G04 #@! TF.FileFunction,Legend,Top*
%FSLAX46Y46*%
G04 Gerber Fmt 4.6, Leading zero omitted, Abs format (unit mm)*
G04 Created by KiCad (PCBNEW 4.0.1-stable) date Tuesday, May 31, 2016 'PMt' 11:12:23 PM*
%MOMM*%
G01*
G04 APERTURE LIST*
%ADD10C,0.100000*%
%ADD11C,0.400000*%
%ADD12C,0.200000*%
%ADD13C,0.300000*%
%ADD14C,0.150000*%
G04 APERTURE END LIST*
D10*
D11*
X137485714Y-90969048D02*
X137604762Y-90850000D01*
X137842857Y-90730952D01*
X138438095Y-90730952D01*
X138676191Y-90850000D01*
X138795238Y-90969048D01*
X138914286Y-91207143D01*
X138914286Y-91445238D01*
X138795238Y-91802381D01*
X137366667Y-93230952D01*
X138914286Y-93230952D01*
X138614286Y-124930952D02*
X137185714Y-124930952D01*
X137900000Y-124930952D02*
X137900000Y-122430952D01*
X137661905Y-122788095D01*
X137423810Y-123026190D01*
X137185714Y-123145238D01*
D12*
X157626190Y-117784524D02*
X157685714Y-117725000D01*
X157804762Y-117665476D01*
X158102381Y-117665476D01*
X158221428Y-117725000D01*
X158280952Y-117784524D01*
X158340476Y-117903571D01*
X158340476Y-118022619D01*
X158280952Y-118201190D01*
X157566666Y-118915476D01*
X158340476Y-118915476D01*
X158876190Y-118915476D02*
X158876190Y-118082143D01*
X158876190Y-118201190D02*
X158935714Y-118141667D01*
X159054761Y-118082143D01*
X159233333Y-118082143D01*
X159352381Y-118141667D01*
X159411904Y-118260714D01*
X159411904Y-118915476D01*
X159411904Y-118260714D02*
X159471428Y-118141667D01*
X159590476Y-118082143D01*
X159769047Y-118082143D01*
X159888095Y-118141667D01*
X159947619Y-118260714D01*
X159947619Y-118915476D01*
X160542857Y-118915476D02*
X160542857Y-118082143D01*
X160542857Y-118201190D02*
X160602381Y-118141667D01*
X160721428Y-118082143D01*
X160900000Y-118082143D01*
X161019048Y-118141667D01*
X161078571Y-118260714D01*
X161078571Y-118915476D01*
X161078571Y-118260714D02*
X161138095Y-118141667D01*
X161257143Y-118082143D01*
X161435714Y-118082143D01*
X161554762Y-118141667D01*
X161614286Y-118260714D01*
X161614286Y-118915476D01*
X141210000Y-124907143D02*
X141067143Y-124978571D01*
X140781429Y-124978571D01*
X140638571Y-124907143D01*
X140567143Y-124835714D01*
X140495714Y-124692857D01*
X140495714Y-124264286D01*
X140567143Y-124121429D01*
X140638571Y-124050000D01*
X140781429Y-123978571D01*
X141067143Y-123978571D01*
X141210000Y-124050000D01*
X141852857Y-124978571D02*
X141852857Y-123478571D01*
X141995714Y-124407143D02*
X142424285Y-124978571D01*
X142424285Y-123978571D02*
X141852857Y-124550000D01*
X143710000Y-124978571D02*
X143710000Y-123478571D01*
X143710000Y-124907143D02*
X143567143Y-124978571D01*
X143281429Y-124978571D01*
X143138571Y-124907143D01*
X143067143Y-124835714D01*
X142995714Y-124692857D01*
X142995714Y-124264286D01*
X143067143Y-124121429D01*
X143138571Y-124050000D01*
X143281429Y-123978571D01*
X143567143Y-123978571D01*
X143710000Y-124050000D01*
X144424286Y-124835714D02*
X144495714Y-124907143D01*
X144424286Y-124978571D01*
X144352857Y-124907143D01*
X144424286Y-124835714D01*
X144424286Y-124978571D01*
X144924286Y-123978571D02*
X145495715Y-123978571D01*
X145138572Y-123478571D02*
X145138572Y-124764286D01*
X145210000Y-124907143D01*
X145352858Y-124978571D01*
X145495715Y-124978571D01*
X146567143Y-124907143D02*
X146424286Y-124978571D01*
X146138572Y-124978571D01*
X145995715Y-124907143D01*
X145924286Y-124764286D01*
X145924286Y-124192857D01*
X145995715Y-124050000D01*
X146138572Y-123978571D01*
X146424286Y-123978571D01*
X146567143Y-124050000D01*
X146638572Y-124192857D01*
X146638572Y-124335714D01*
X145924286Y-124478571D01*
X147924286Y-124907143D02*
X147781429Y-124978571D01*
X147495715Y-124978571D01*
X147352857Y-124907143D01*
X147281429Y-124835714D01*
X147210000Y-124692857D01*
X147210000Y-124264286D01*
X147281429Y-124121429D01*
X147352857Y-124050000D01*
X147495715Y-123978571D01*
X147781429Y-123978571D01*
X147924286Y-124050000D01*
X148567143Y-124978571D02*
X148567143Y-123478571D01*
X149210000Y-124978571D02*
X149210000Y-124192857D01*
X149138571Y-124050000D01*
X148995714Y-123978571D01*
X148781429Y-123978571D01*
X148638571Y-124050000D01*
X148567143Y-124121429D01*
X150995714Y-123407143D02*
X149710000Y-125335714D01*
X152138572Y-124978571D02*
X152138572Y-123478571D01*
X152138572Y-124907143D02*
X151995715Y-124978571D01*
X151710001Y-124978571D01*
X151567143Y-124907143D01*
X151495715Y-124835714D01*
X151424286Y-124692857D01*
X151424286Y-124264286D01*
X151495715Y-124121429D01*
X151567143Y-124050000D01*
X151710001Y-123978571D01*
X151995715Y-123978571D01*
X152138572Y-124050000D01*
X152781429Y-124907143D02*
X152924286Y-124978571D01*
X153210001Y-124978571D01*
X153352858Y-124907143D01*
X153424286Y-124764286D01*
X153424286Y-124692857D01*
X153352858Y-124550000D01*
X153210001Y-124478571D01*
X152995715Y-124478571D01*
X152852858Y-124407143D01*
X152781429Y-124264286D01*
X152781429Y-124192857D01*
X152852858Y-124050000D01*
X152995715Y-123978571D01*
X153210001Y-123978571D01*
X153352858Y-124050000D01*
X154067144Y-124978571D02*
X154067144Y-123478571D01*
X154067144Y-124050000D02*
X154210001Y-123978571D01*
X154495715Y-123978571D01*
X154638572Y-124050000D01*
X154710001Y-124121429D01*
X154781430Y-124264286D01*
X154781430Y-124692857D01*
X154710001Y-124835714D01*
X154638572Y-124907143D01*
X154495715Y-124978571D01*
X154210001Y-124978571D01*
X154067144Y-124907143D01*
X156495715Y-123407143D02*
X155210001Y-125335714D01*
X156852859Y-123978571D02*
X157210002Y-124978571D01*
X157567144Y-123978571D01*
X157995716Y-123478571D02*
X158924287Y-123478571D01*
X158424287Y-124050000D01*
X158638573Y-124050000D01*
X158781430Y-124121429D01*
X158852859Y-124192857D01*
X158924287Y-124335714D01*
X158924287Y-124692857D01*
X158852859Y-124835714D01*
X158781430Y-124907143D01*
X158638573Y-124978571D01*
X158210001Y-124978571D01*
X158067144Y-124907143D01*
X157995716Y-124835714D01*
D13*
X130507143Y-120378571D02*
X130507143Y-118878571D01*
X131078571Y-118878571D01*
X131221429Y-118950000D01*
X131292857Y-119021429D01*
X131364286Y-119164286D01*
X131364286Y-119378571D01*
X131292857Y-119521429D01*
X131221429Y-119592857D01*
X131078571Y-119664286D01*
X130507143Y-119664286D01*
X132221429Y-120378571D02*
X132078571Y-120307143D01*
X132007143Y-120235714D01*
X131935714Y-120092857D01*
X131935714Y-119664286D01*
X132007143Y-119521429D01*
X132078571Y-119450000D01*
X132221429Y-119378571D01*
X132435714Y-119378571D01*
X132578571Y-119450000D01*
X132650000Y-119521429D01*
X132721429Y-119664286D01*
X132721429Y-120092857D01*
X132650000Y-120235714D01*
X132578571Y-120307143D01*
X132435714Y-120378571D01*
X132221429Y-120378571D01*
X133364286Y-120378571D02*
X133364286Y-119378571D01*
X133364286Y-119664286D02*
X133435714Y-119521429D01*
X133507143Y-119450000D01*
X133650000Y-119378571D01*
X133792857Y-119378571D01*
X134078571Y-119378571D02*
X134650000Y-119378571D01*
X134292857Y-118878571D02*
X134292857Y-120164286D01*
X134364285Y-120307143D01*
X134507143Y-120378571D01*
X134650000Y-120378571D01*
X137078571Y-120378571D02*
X136221428Y-120378571D01*
X136650000Y-120378571D02*
X136650000Y-118878571D01*
X136507143Y-119092857D01*
X136364285Y-119235714D01*
X136221428Y-119307143D01*
X130557143Y-97278571D02*
X130557143Y-95778571D01*
X131128571Y-95778571D01*
X131271429Y-95850000D01*
X131342857Y-95921429D01*
X131414286Y-96064286D01*
X131414286Y-96278571D01*
X131342857Y-96421429D01*
X131271429Y-96492857D01*
X131128571Y-96564286D01*
X130557143Y-96564286D01*
X132271429Y-97278571D02*
X132128571Y-97207143D01*
X132057143Y-97135714D01*
X131985714Y-96992857D01*
X131985714Y-96564286D01*
X132057143Y-96421429D01*
X132128571Y-96350000D01*
X132271429Y-96278571D01*
X132485714Y-96278571D01*
X132628571Y-96350000D01*
X132700000Y-96421429D01*
X132771429Y-96564286D01*
X132771429Y-96992857D01*
X132700000Y-97135714D01*
X132628571Y-97207143D01*
X132485714Y-97278571D01*
X132271429Y-97278571D01*
X133414286Y-97278571D02*
X133414286Y-96278571D01*
X133414286Y-96564286D02*
X133485714Y-96421429D01*
X133557143Y-96350000D01*
X133700000Y-96278571D01*
X133842857Y-96278571D01*
X134128571Y-96278571D02*
X134700000Y-96278571D01*
X134342857Y-95778571D02*
X134342857Y-97064286D01*
X134414285Y-97207143D01*
X134557143Y-97278571D01*
X134700000Y-97278571D01*
X136271428Y-95921429D02*
X136342857Y-95850000D01*
X136485714Y-95778571D01*
X136842857Y-95778571D01*
X136985714Y-95850000D01*
X137057143Y-95921429D01*
X137128571Y-96064286D01*
X137128571Y-96207143D01*
X137057143Y-96421429D01*
X136200000Y-97278571D01*
X137128571Y-97278571D01*
D12*
X139100000Y-98000000D02*
X137100000Y-98000000D01*
X139100000Y-108000000D02*
X139100000Y-98000000D01*
X139100000Y-118000000D02*
X137100000Y-118000000D01*
X139100000Y-108000000D02*
X139100000Y-118000000D01*
X137100000Y-108000000D02*
X139100000Y-108000000D01*
D13*
X133242857Y-108228571D02*
X134100000Y-108228571D01*
X133671429Y-109728571D02*
X133671429Y-108228571D01*
X134457143Y-108228571D02*
X135457143Y-109728571D01*
X135457143Y-108228571D02*
X134457143Y-109728571D01*
X134314286Y-112228571D02*
X133814286Y-111514286D01*
X133457143Y-112228571D02*
X133457143Y-110728571D01*
X134028571Y-110728571D01*
X134171429Y-110800000D01*
X134242857Y-110871429D01*
X134314286Y-111014286D01*
X134314286Y-111228571D01*
X134242857Y-111371429D01*
X134171429Y-111442857D01*
X134028571Y-111514286D01*
X133457143Y-111514286D01*
X134814286Y-110728571D02*
X135814286Y-112228571D01*
X135814286Y-110728571D02*
X134814286Y-112228571D01*
X133457143Y-114107143D02*
X134600000Y-114107143D01*
X134028571Y-114678571D02*
X134028571Y-113535714D01*
X136028572Y-113178571D02*
X135314286Y-113178571D01*
X135242857Y-113892857D01*
X135314286Y-113821429D01*
X135457143Y-113750000D01*
X135814286Y-113750000D01*
X135957143Y-113821429D01*
X136028572Y-113892857D01*
X136100000Y-114035714D01*
X136100000Y-114392857D01*
X136028572Y-114535714D01*
X135957143Y-114607143D01*
X135814286Y-114678571D01*
X135457143Y-114678571D01*
X135314286Y-114607143D01*
X135242857Y-114535714D01*
X136528571Y-113178571D02*
X137028571Y-114678571D01*
X137528571Y-113178571D01*
X134242857Y-115750000D02*
X134100000Y-115678571D01*
X133885714Y-115678571D01*
X133671429Y-115750000D01*
X133528571Y-115892857D01*
X133457143Y-116035714D01*
X133385714Y-116321429D01*
X133385714Y-116535714D01*
X133457143Y-116821429D01*
X133528571Y-116964286D01*
X133671429Y-117107143D01*
X133885714Y-117178571D01*
X134028571Y-117178571D01*
X134242857Y-117107143D01*
X134314286Y-117035714D01*
X134314286Y-116535714D01*
X134028571Y-116535714D01*
X134957143Y-117178571D02*
X134957143Y-115678571D01*
X135814286Y-117178571D01*
X135814286Y-115678571D01*
X136528572Y-117178571D02*
X136528572Y-115678571D01*
X136885715Y-115678571D01*
X137100000Y-115750000D01*
X137242858Y-115892857D01*
X137314286Y-116035714D01*
X137385715Y-116321429D01*
X137385715Y-116535714D01*
X137314286Y-116821429D01*
X137242858Y-116964286D01*
X137100000Y-117107143D01*
X136885715Y-117178571D01*
X136528572Y-117178571D01*
X134192857Y-105500000D02*
X134050000Y-105428571D01*
X133835714Y-105428571D01*
X133621429Y-105500000D01*
X133478571Y-105642857D01*
X133407143Y-105785714D01*
X133335714Y-106071429D01*
X133335714Y-106285714D01*
X133407143Y-106571429D01*
X133478571Y-106714286D01*
X133621429Y-106857143D01*
X133835714Y-106928571D01*
X133978571Y-106928571D01*
X134192857Y-106857143D01*
X134264286Y-106785714D01*
X134264286Y-106285714D01*
X133978571Y-106285714D01*
X134907143Y-106928571D02*
X134907143Y-105428571D01*
X135764286Y-106928571D01*
X135764286Y-105428571D01*
X136478572Y-106928571D02*
X136478572Y-105428571D01*
X136835715Y-105428571D01*
X137050000Y-105500000D01*
X137192858Y-105642857D01*
X137264286Y-105785714D01*
X137335715Y-106071429D01*
X137335715Y-106285714D01*
X137264286Y-106571429D01*
X137192858Y-106714286D01*
X137050000Y-106857143D01*
X136835715Y-106928571D01*
X136478572Y-106928571D01*
X133207143Y-103807143D02*
X134350000Y-103807143D01*
X133778571Y-104378571D02*
X133778571Y-103235714D01*
X135778572Y-102878571D02*
X135064286Y-102878571D01*
X134992857Y-103592857D01*
X135064286Y-103521429D01*
X135207143Y-103450000D01*
X135564286Y-103450000D01*
X135707143Y-103521429D01*
X135778572Y-103592857D01*
X135850000Y-103735714D01*
X135850000Y-104092857D01*
X135778572Y-104235714D01*
X135707143Y-104307143D01*
X135564286Y-104378571D01*
X135207143Y-104378571D01*
X135064286Y-104307143D01*
X134992857Y-104235714D01*
X136278571Y-102878571D02*
X136778571Y-104378571D01*
X137278571Y-102878571D01*
X134264286Y-102028571D02*
X133764286Y-101314286D01*
X133407143Y-102028571D02*
X133407143Y-100528571D01*
X133978571Y-100528571D01*
X134121429Y-100600000D01*
X134192857Y-100671429D01*
X134264286Y-100814286D01*
X134264286Y-101028571D01*
X134192857Y-101171429D01*
X134121429Y-101242857D01*
X133978571Y-101314286D01*
X133407143Y-101314286D01*
X134764286Y-100528571D02*
X135764286Y-102028571D01*
X135764286Y-100528571D02*
X134764286Y-102028571D01*
X133342857Y-97928571D02*
X134200000Y-97928571D01*
X133771429Y-99428571D02*
X133771429Y-97928571D01*
X134557143Y-97928571D02*
X135557143Y-99428571D01*
X135557143Y-97928571D02*
X134557143Y-99428571D01*
D14*
X159109620Y-94920560D02*
X159678580Y-94920560D01*
X159678580Y-94920560D02*
X159678580Y-94509080D01*
X164947700Y-98920560D02*
X165516660Y-98920560D01*
X165516660Y-98920560D02*
X165516660Y-98509080D01*
X159259620Y-97370560D02*
X159828580Y-97370560D01*
X159828580Y-97370560D02*
X159828580Y-96959080D01*
X132850000Y-117980000D02*
X132850000Y-116430000D01*
X131550000Y-117980000D02*
X132850000Y-117980000D01*
X127359000Y-116557000D02*
X121517000Y-116557000D01*
X121517000Y-116557000D02*
X121517000Y-116303000D01*
X121517000Y-116303000D02*
X127359000Y-116303000D01*
X127359000Y-116303000D02*
X127359000Y-116430000D01*
X127359000Y-116430000D02*
X121517000Y-116430000D01*
X130026000Y-98904000D02*
X130407000Y-98904000D01*
X130026000Y-98396000D02*
X130407000Y-98396000D01*
X130026000Y-116684000D02*
X130407000Y-116684000D01*
X130026000Y-116176000D02*
X130407000Y-116176000D01*
X130026000Y-114144000D02*
X130407000Y-114144000D01*
X130026000Y-113636000D02*
X130407000Y-113636000D01*
X130026000Y-111604000D02*
X130407000Y-111604000D01*
X130026000Y-111096000D02*
X130407000Y-111096000D01*
X130026000Y-100936000D02*
X130407000Y-100936000D01*
X130026000Y-101444000D02*
X130407000Y-101444000D01*
X130026000Y-103476000D02*
X130407000Y-103476000D01*
X130026000Y-103984000D02*
X130407000Y-103984000D01*
X130026000Y-106016000D02*
X130407000Y-106016000D01*
X130026000Y-106524000D02*
X130407000Y-106524000D01*
X130026000Y-108556000D02*
X130407000Y-108556000D01*
X130026000Y-109064000D02*
X130407000Y-109064000D01*
X130026000Y-102460000D02*
X127486000Y-102460000D01*
X130026000Y-102460000D02*
X130026000Y-99920000D01*
X130026000Y-99920000D02*
X127486000Y-99920000D01*
X127486000Y-101444000D02*
X121390000Y-101444000D01*
X121390000Y-101444000D02*
X121390000Y-100936000D01*
X121390000Y-100936000D02*
X127486000Y-100936000D01*
X127486000Y-99920000D02*
X127486000Y-102460000D01*
X127486000Y-97380000D02*
X127486000Y-99920000D01*
X121390000Y-98396000D02*
X127486000Y-98396000D01*
X121390000Y-98904000D02*
X121390000Y-98396000D01*
X127486000Y-98904000D02*
X121390000Y-98904000D01*
X130026000Y-99920000D02*
X130026000Y-97380000D01*
X130026000Y-99920000D02*
X127486000Y-99920000D01*
X130026000Y-97380000D02*
X127486000Y-97380000D01*
X130026000Y-117700000D02*
X127486000Y-117700000D01*
X130026000Y-115160000D02*
X127486000Y-115160000D01*
X130026000Y-115160000D02*
X130026000Y-112620000D01*
X130026000Y-112620000D02*
X127486000Y-112620000D01*
X127486000Y-114144000D02*
X121390000Y-114144000D01*
X121390000Y-114144000D02*
X121390000Y-113636000D01*
X121390000Y-113636000D02*
X127486000Y-113636000D01*
X127486000Y-112620000D02*
X127486000Y-115160000D01*
X127486000Y-115160000D02*
X127486000Y-117700000D01*
X121390000Y-116176000D02*
X127486000Y-116176000D01*
X121390000Y-116684000D02*
X121390000Y-116176000D01*
X127486000Y-116684000D02*
X121390000Y-116684000D01*
X130026000Y-115160000D02*
X127486000Y-115160000D01*
X130026000Y-117700000D02*
X130026000Y-115160000D01*
X130026000Y-107540000D02*
X127486000Y-107540000D01*
X130026000Y-107540000D02*
X130026000Y-105000000D01*
X130026000Y-105000000D02*
X127486000Y-105000000D01*
X127486000Y-106524000D02*
X121390000Y-106524000D01*
X121390000Y-106524000D02*
X121390000Y-106016000D01*
X121390000Y-106016000D02*
X127486000Y-106016000D01*
X127486000Y-105000000D02*
X127486000Y-107540000D01*
X127486000Y-102460000D02*
X127486000Y-105000000D01*
X121390000Y-103476000D02*
X127486000Y-103476000D01*
X121390000Y-103984000D02*
X121390000Y-103476000D01*
X127486000Y-103984000D02*
X121390000Y-103984000D01*
X130026000Y-102460000D02*
X127486000Y-102460000D01*
X130026000Y-105000000D02*
X130026000Y-102460000D01*
X130026000Y-105000000D02*
X127486000Y-105000000D01*
X130026000Y-110080000D02*
X127486000Y-110080000D01*
X130026000Y-110080000D02*
X130026000Y-107540000D01*
X130026000Y-107540000D02*
X127486000Y-107540000D01*
X127486000Y-109064000D02*
X121390000Y-109064000D01*
X121390000Y-109064000D02*
X121390000Y-108556000D01*
X121390000Y-108556000D02*
X127486000Y-108556000D01*
X127486000Y-107540000D02*
X127486000Y-110080000D01*
X127486000Y-110080000D02*
X127486000Y-112620000D01*
X121390000Y-111096000D02*
X127486000Y-111096000D01*
X121390000Y-111604000D02*
X121390000Y-111096000D01*
X127486000Y-111604000D02*
X121390000Y-111604000D01*
X130026000Y-110080000D02*
X127486000Y-110080000D01*
X130026000Y-112620000D02*
X130026000Y-110080000D01*
X130026000Y-112620000D02*
X127486000Y-112620000D01*
D10*
G36*
X147250711Y-123116801D02*
X147609048Y-122346439D01*
X147628025Y-122348854D01*
X147646638Y-122351038D01*
X147664888Y-122352993D01*
X147682773Y-122354717D01*
X147700296Y-122356212D01*
X147717454Y-122357477D01*
X147734249Y-122358512D01*
X147750680Y-122359317D01*
X147766748Y-122359892D01*
X147782452Y-122360236D01*
X147797792Y-122360351D01*
X147816813Y-122360022D01*
X147835290Y-122359035D01*
X147853223Y-122357390D01*
X147870613Y-122355087D01*
X147887460Y-122352126D01*
X147903762Y-122348506D01*
X147919522Y-122344229D01*
X147934737Y-122339293D01*
X147949409Y-122333700D01*
X147963538Y-122327448D01*
X147977123Y-122320539D01*
X147990164Y-122312971D01*
X148002662Y-122304745D01*
X148014616Y-122295861D01*
X148026026Y-122286319D01*
X148036893Y-122276119D01*
X148047217Y-122265261D01*
X148054930Y-122256190D01*
X148062284Y-122246515D01*
X148069280Y-122236237D01*
X148075916Y-122225355D01*
X148082194Y-122213870D01*
X148088114Y-122201781D01*
X148093674Y-122189088D01*
X148098876Y-122175792D01*
X148103719Y-122161893D01*
X148108203Y-122147390D01*
X148112329Y-122132283D01*
X148116096Y-122116573D01*
X148119504Y-122100259D01*
X148122553Y-122083342D01*
X148125244Y-122065821D01*
X148127576Y-122047696D01*
X148129549Y-122028968D01*
X148131163Y-122009637D01*
X148132419Y-121989702D01*
X148133316Y-121969163D01*
X148133854Y-121948021D01*
X148134033Y-121926275D01*
X148133899Y-121904009D01*
X148133498Y-121882313D01*
X148132829Y-121861186D01*
X148131892Y-121840629D01*
X148130688Y-121820642D01*
X148129216Y-121801223D01*
X148127476Y-121782375D01*
X148125469Y-121764096D01*
X148123194Y-121746386D01*
X148120651Y-121729246D01*
X148117841Y-121712675D01*
X148114763Y-121696674D01*
X148111418Y-121681242D01*
X148107805Y-121666380D01*
X148103924Y-121652087D01*
X148099776Y-121638364D01*
X148095360Y-121625210D01*
X148090676Y-121612626D01*
X148085725Y-121600611D01*
X148080506Y-121589166D01*
X148075019Y-121578291D01*
X148069265Y-121567984D01*
X148061312Y-121555395D01*
X148052691Y-121543568D01*
X148043402Y-121532504D01*
X148033446Y-121522204D01*
X148022822Y-121512666D01*
X148011531Y-121503892D01*
X147999572Y-121495880D01*
X147986945Y-121488631D01*
X147973651Y-121482146D01*
X147959690Y-121476423D01*
X147945061Y-121471464D01*
X147929764Y-121467267D01*
X147913800Y-121463834D01*
X147897168Y-121461163D01*
X147879869Y-121459256D01*
X147861902Y-121458111D01*
X147843267Y-121457730D01*
X147821698Y-121458016D01*
X147801087Y-121458876D01*
X147781435Y-121460309D01*
X147762742Y-121462315D01*
X147745007Y-121464894D01*
X147728231Y-121468046D01*
X147712413Y-121471771D01*
X147697555Y-121476069D01*
X147683654Y-121480941D01*
X147670713Y-121486386D01*
X147658730Y-121492403D01*
X147647705Y-121498994D01*
X147637640Y-121506158D01*
X147628533Y-121513896D01*
X147620384Y-121522206D01*
X147613195Y-121531089D01*
X147606963Y-121540546D01*
X147601691Y-121550575D01*
X147597377Y-121561178D01*
X147594022Y-121572354D01*
X147591625Y-121584103D01*
X147590187Y-121596425D01*
X147589708Y-121609321D01*
X147589708Y-122343813D01*
X147589708Y-122343794D01*
X147609048Y-122346439D01*
X147250711Y-123116801D01*
X147250711Y-121640929D01*
X147250984Y-121624138D01*
X147251805Y-121607555D01*
X147253172Y-121591180D01*
X147255087Y-121575013D01*
X147257549Y-121559055D01*
X147260557Y-121543305D01*
X147264113Y-121527764D01*
X147268216Y-121512431D01*
X147272866Y-121497306D01*
X147278063Y-121482390D01*
X147283807Y-121467682D01*
X147290098Y-121453182D01*
X147296936Y-121438891D01*
X147304321Y-121424808D01*
X147312253Y-121410933D01*
X147320733Y-121397267D01*
X147329759Y-121383809D01*
X147339332Y-121370559D01*
X147349453Y-121357518D01*
X147360120Y-121344685D01*
X147371335Y-121332061D01*
X147383096Y-121319645D01*
X147395405Y-121307437D01*
X147405664Y-121297910D01*
X147416293Y-121288717D01*
X147427293Y-121279859D01*
X147438663Y-121271334D01*
X147450403Y-121263144D01*
X147462514Y-121255289D01*
X147474995Y-121247768D01*
X147487846Y-121240580D01*
X147501068Y-121233728D01*
X147514660Y-121227209D01*
X147528622Y-121221025D01*
X147542955Y-121215175D01*
X147557658Y-121209659D01*
X147572731Y-121204478D01*
X147588174Y-121199631D01*
X147603988Y-121195118D01*
X147620172Y-121190940D01*
X147636727Y-121187095D01*
X147653652Y-121183585D01*
X147670947Y-121180410D01*
X147688612Y-121177568D01*
X147706648Y-121175061D01*
X147725054Y-121172888D01*
X147743830Y-121171050D01*
X147762977Y-121169546D01*
X147782494Y-121168376D01*
X147802381Y-121167540D01*
X147822639Y-121167038D01*
X147843267Y-121166871D01*
X147860816Y-121167045D01*
X147878321Y-121167565D01*
X147895783Y-121168432D01*
X147913203Y-121169647D01*
X147930579Y-121171208D01*
X147947912Y-121173116D01*
X147965202Y-121175370D01*
X147982449Y-121177972D01*
X147996739Y-121180549D01*
X148011498Y-121183839D01*
X148026725Y-121187843D01*
X148042421Y-121192560D01*
X148058586Y-121197991D01*
X148075218Y-121204135D01*
X148092320Y-121210993D01*
X148109890Y-121218564D01*
X148127928Y-121226848D01*
X148146435Y-121235846D01*
X148162092Y-121243849D01*
X148177365Y-121252234D01*
X148192255Y-121261002D01*
X148206763Y-121270152D01*
X148220888Y-121279685D01*
X148234630Y-121289600D01*
X148247989Y-121299898D01*
X148260966Y-121310579D01*
X148273560Y-121321642D01*
X148285770Y-121333088D01*
X148297599Y-121344916D01*
X148309044Y-121357127D01*
X148317968Y-121367361D01*
X148326732Y-121378219D01*
X148335337Y-121389703D01*
X148343783Y-121401811D01*
X148352069Y-121414543D01*
X148360197Y-121427901D01*
X148368165Y-121441882D01*
X148375974Y-121456489D01*
X148383623Y-121471720D01*
X148391114Y-121487576D01*
X148398445Y-121504057D01*
X148405617Y-121521162D01*
X148412630Y-121538892D01*
X148419483Y-121557246D01*
X148426177Y-121576225D01*
X148431014Y-121590670D01*
X148435603Y-121605343D01*
X148439944Y-121620243D01*
X148444037Y-121635370D01*
X148447881Y-121650725D01*
X148451478Y-121666307D01*
X148454827Y-121682117D01*
X148457927Y-121698154D01*
X148460780Y-121714419D01*
X148463384Y-121730911D01*
X148465741Y-121747631D01*
X148467849Y-121764578D01*
X148469709Y-121781753D01*
X148471322Y-121799155D01*
X148472686Y-121816784D01*
X148473802Y-121834641D01*
X148474670Y-121852726D01*
X148475290Y-121871038D01*
X148475663Y-121889577D01*
X148475787Y-121908344D01*
X148475640Y-121928471D01*
X148475200Y-121948321D01*
X148474467Y-121967894D01*
X148473441Y-121987191D01*
X148472121Y-122006211D01*
X148470508Y-122024955D01*
X148468602Y-122043422D01*
X148466403Y-122061613D01*
X148463910Y-122079527D01*
X148461124Y-122097165D01*
X148458045Y-122114526D01*
X148454673Y-122131610D01*
X148451007Y-122148419D01*
X148447048Y-122164950D01*
X148442796Y-122181205D01*
X148438251Y-122197184D01*
X148433412Y-122212886D01*
X148428280Y-122228311D01*
X148422855Y-122243460D01*
X148417137Y-122258332D01*
X148411125Y-122272928D01*
X148404820Y-122287248D01*
X148398222Y-122301291D01*
X148391330Y-122315057D01*
X148384146Y-122328547D01*
X148376668Y-122341760D01*
X148368897Y-122354697D01*
X148360832Y-122367357D01*
X148352475Y-122379741D01*
X148343824Y-122391848D01*
X148334880Y-122403678D01*
X148325642Y-122415232D01*
X148316112Y-122426510D01*
X148306288Y-122437511D01*
X148295881Y-122448532D01*
X148285206Y-122459214D01*
X148274263Y-122469557D01*
X148263051Y-122479561D01*
X148251571Y-122489226D01*
X148239823Y-122498552D01*
X148227807Y-122507538D01*
X148215522Y-122516186D01*
X148202969Y-122524494D01*
X148190148Y-122532463D01*
X148177059Y-122540094D01*
X148163701Y-122547385D01*
X148150075Y-122554336D01*
X148136181Y-122560949D01*
X148122018Y-122567223D01*
X148107587Y-122573157D01*
X148092888Y-122578753D01*
X148077921Y-122584009D01*
X148062685Y-122588926D01*
X148047181Y-122593504D01*
X148031409Y-122597743D01*
X148015369Y-122601643D01*
X147999060Y-122605204D01*
X147982483Y-122608425D01*
X147965638Y-122611308D01*
X147948524Y-122613851D01*
X147931143Y-122616056D01*
X147913493Y-122617921D01*
X147895574Y-122619447D01*
X147877388Y-122620634D01*
X147858933Y-122621481D01*
X147840210Y-122621990D01*
X147821218Y-122622160D01*
X147804316Y-122622033D01*
X147787471Y-122621654D01*
X147770681Y-122621021D01*
X147753948Y-122620135D01*
X147737271Y-122618997D01*
X147720650Y-122617605D01*
X147704085Y-122615960D01*
X147687577Y-122614062D01*
X147671125Y-122611911D01*
X147654729Y-122609508D01*
X147638389Y-122606851D01*
X147622106Y-122603941D01*
X147605879Y-122600778D01*
X147589708Y-122597362D01*
X147589708Y-123116876D01*
X147250711Y-123116876D01*
X147250711Y-123116801D01*
X147250711Y-123116801D01*
G37*
G36*
X148933295Y-122429157D02*
X149123818Y-121656816D01*
X149120019Y-121672623D01*
X149116552Y-121689136D01*
X149113414Y-121706356D01*
X149110607Y-121724281D01*
X149108130Y-121742913D01*
X149105983Y-121762250D01*
X149104166Y-121782294D01*
X149102680Y-121803044D01*
X149101524Y-121824500D01*
X149100698Y-121846662D01*
X149100203Y-121869530D01*
X149100038Y-121893104D01*
X149100203Y-121916557D01*
X149100698Y-121939308D01*
X149101524Y-121961360D01*
X149102680Y-121982711D01*
X149104166Y-122003361D01*
X149105983Y-122023311D01*
X149108130Y-122042561D01*
X149110607Y-122061110D01*
X149113414Y-122078959D01*
X149116552Y-122096108D01*
X149120019Y-122112556D01*
X149123818Y-122128303D01*
X149127946Y-122143350D01*
X149132405Y-122157697D01*
X149137194Y-122171343D01*
X149142313Y-122184289D01*
X149147762Y-122196535D01*
X149153542Y-122208080D01*
X149159652Y-122218924D01*
X149166093Y-122229069D01*
X149172863Y-122238512D01*
X149179964Y-122247256D01*
X149189825Y-122257641D01*
X149200277Y-122267397D01*
X149211320Y-122276524D01*
X149222955Y-122285021D01*
X149235181Y-122292888D01*
X149247998Y-122300127D01*
X149261407Y-122306736D01*
X149275406Y-122312715D01*
X149289997Y-122318065D01*
X149305180Y-122322786D01*
X149320953Y-122326877D01*
X149337318Y-122330339D01*
X149354274Y-122333171D01*
X149371821Y-122335374D01*
X149389960Y-122336948D01*
X149408690Y-122337892D01*
X149428011Y-122338206D01*
X149447327Y-122337892D01*
X149466043Y-122336948D01*
X149484158Y-122335374D01*
X149501672Y-122333171D01*
X149518585Y-122330339D01*
X149534897Y-122326877D01*
X149550609Y-122322786D01*
X149565719Y-122318065D01*
X149580229Y-122312715D01*
X149594139Y-122306736D01*
X149607447Y-122300127D01*
X149620154Y-122292888D01*
X149632261Y-122285021D01*
X149643767Y-122276524D01*
X149654672Y-122267397D01*
X149664976Y-122257641D01*
X149674680Y-122247256D01*
X149681781Y-122238512D01*
X149688551Y-122229069D01*
X149694992Y-122218924D01*
X149701102Y-122208080D01*
X149706881Y-122196535D01*
X149712331Y-122184289D01*
X149717450Y-122171343D01*
X149722239Y-122157697D01*
X149726698Y-122143350D01*
X149730826Y-122128303D01*
X149734624Y-122112556D01*
X149738092Y-122096108D01*
X149741230Y-122078959D01*
X149744037Y-122061110D01*
X149746514Y-122042561D01*
X149748661Y-122023311D01*
X149750478Y-122003361D01*
X149751964Y-121982711D01*
X149753120Y-121961360D01*
X149753946Y-121939308D01*
X149754441Y-121916557D01*
X149754606Y-121893104D01*
X149754441Y-121869530D01*
X149753946Y-121846662D01*
X149753120Y-121824500D01*
X149751964Y-121803044D01*
X149750478Y-121782294D01*
X149748661Y-121762250D01*
X149746514Y-121742913D01*
X149744037Y-121724281D01*
X149741230Y-121706356D01*
X149738092Y-121689136D01*
X149734624Y-121672623D01*
X149730826Y-121656816D01*
X149726698Y-121641715D01*
X149722239Y-121627320D01*
X149717450Y-121613631D01*
X149712331Y-121600648D01*
X149706881Y-121588371D01*
X149701102Y-121576801D01*
X149694992Y-121565936D01*
X149688551Y-121555778D01*
X149681781Y-121546326D01*
X149674680Y-121537580D01*
X149664976Y-121527035D01*
X149654672Y-121517130D01*
X149643767Y-121507864D01*
X149632261Y-121499236D01*
X149620154Y-121491248D01*
X149607447Y-121483899D01*
X149594139Y-121477189D01*
X149580229Y-121471118D01*
X149565719Y-121465686D01*
X149550609Y-121460893D01*
X149534897Y-121456739D01*
X149518585Y-121453225D01*
X149501672Y-121450349D01*
X149484158Y-121448112D01*
X149466043Y-121446515D01*
X149447327Y-121445556D01*
X149428011Y-121445237D01*
X149408690Y-121445556D01*
X149389960Y-121446515D01*
X149371821Y-121448112D01*
X149354274Y-121450349D01*
X149337318Y-121453225D01*
X149320953Y-121456739D01*
X149305180Y-121460893D01*
X149289997Y-121465686D01*
X149275406Y-121471118D01*
X149261407Y-121477189D01*
X149247998Y-121483899D01*
X149235181Y-121491248D01*
X149222955Y-121499236D01*
X149211320Y-121507864D01*
X149200277Y-121517130D01*
X149189825Y-121527035D01*
X149179964Y-121537580D01*
X149172863Y-121546326D01*
X149166093Y-121555778D01*
X149159652Y-121565936D01*
X149153542Y-121576801D01*
X149147762Y-121588371D01*
X149142313Y-121600648D01*
X149137194Y-121613631D01*
X149132405Y-121627320D01*
X149127946Y-121641715D01*
X149123818Y-121656816D01*
X148933295Y-122429157D01*
X148923593Y-122418315D01*
X148914172Y-122407208D01*
X148905031Y-122395834D01*
X148896173Y-122384196D01*
X148887595Y-122372292D01*
X148879299Y-122360123D01*
X148871284Y-122347688D01*
X148863550Y-122334987D01*
X148856097Y-122322021D01*
X148848926Y-122308790D01*
X148842035Y-122295293D01*
X148835426Y-122281531D01*
X148829099Y-122267503D01*
X148823052Y-122253210D01*
X148817287Y-122238651D01*
X148811803Y-122223827D01*
X148806600Y-122208738D01*
X148801679Y-122193383D01*
X148797038Y-122177762D01*
X148792679Y-122161876D01*
X148788601Y-122145725D01*
X148784805Y-122129308D01*
X148781289Y-122112626D01*
X148778055Y-122095678D01*
X148775102Y-122078464D01*
X148772430Y-122060986D01*
X148770040Y-122043241D01*
X148767931Y-122025232D01*
X148766103Y-122006957D01*
X148764556Y-121988416D01*
X148763290Y-121969610D01*
X148762306Y-121950538D01*
X148761603Y-121931201D01*
X148761181Y-121911599D01*
X148761040Y-121891731D01*
X148761181Y-121871862D01*
X148761603Y-121852258D01*
X148762306Y-121832920D01*
X148763290Y-121813848D01*
X148764556Y-121795041D01*
X148766103Y-121776499D01*
X148767931Y-121758223D01*
X148770040Y-121740213D01*
X148772430Y-121722468D01*
X148775102Y-121704988D01*
X148778055Y-121687774D01*
X148781289Y-121670825D01*
X148784805Y-121654142D01*
X148788601Y-121637725D01*
X148792679Y-121621573D01*
X148797038Y-121605686D01*
X148801679Y-121590065D01*
X148806600Y-121574710D01*
X148811803Y-121559620D01*
X148817287Y-121544795D01*
X148823052Y-121530236D01*
X148829099Y-121515942D01*
X148835426Y-121501914D01*
X148842035Y-121488152D01*
X148848926Y-121474654D01*
X148856097Y-121461423D01*
X148863550Y-121448457D01*
X148871284Y-121435756D01*
X148879299Y-121423321D01*
X148887595Y-121411151D01*
X148896173Y-121399247D01*
X148905031Y-121387609D01*
X148914172Y-121376235D01*
X148923593Y-121365128D01*
X148933295Y-121354286D01*
X148943872Y-121343099D01*
X148954721Y-121332257D01*
X148965844Y-121321759D01*
X148977241Y-121311605D01*
X148988910Y-121301796D01*
X149000853Y-121292331D01*
X149013070Y-121283209D01*
X149025559Y-121274432D01*
X149038322Y-121266000D01*
X149051359Y-121257911D01*
X149064668Y-121250167D01*
X149078251Y-121242766D01*
X149092108Y-121235710D01*
X149106237Y-121228999D01*
X149120640Y-121222631D01*
X149135316Y-121216608D01*
X149150266Y-121210928D01*
X149165489Y-121205593D01*
X149180985Y-121200602D01*
X149196755Y-121195956D01*
X149212798Y-121191653D01*
X149229114Y-121187695D01*
X149245704Y-121184081D01*
X149262567Y-121180811D01*
X149279703Y-121177886D01*
X149297113Y-121175304D01*
X149314795Y-121173067D01*
X149332752Y-121171174D01*
X149350981Y-121169625D01*
X149369484Y-121168420D01*
X149388260Y-121167560D01*
X149407310Y-121167043D01*
X149426633Y-121166871D01*
X149446038Y-121167043D01*
X149465167Y-121167560D01*
X149484021Y-121168420D01*
X149502598Y-121169625D01*
X149520900Y-121171174D01*
X149538926Y-121173067D01*
X149556676Y-121175304D01*
X149574150Y-121177886D01*
X149591348Y-121180811D01*
X149608271Y-121184081D01*
X149624917Y-121187695D01*
X149641288Y-121191653D01*
X149657383Y-121195956D01*
X149673202Y-121200602D01*
X149688745Y-121205593D01*
X149704012Y-121210928D01*
X149719004Y-121216608D01*
X149733719Y-121222631D01*
X149748159Y-121228999D01*
X149762323Y-121235710D01*
X149776211Y-121242766D01*
X149789823Y-121250167D01*
X149803159Y-121257911D01*
X149816219Y-121266000D01*
X149829004Y-121274432D01*
X149841512Y-121283209D01*
X149853745Y-121292331D01*
X149865702Y-121301796D01*
X149877383Y-121311605D01*
X149888788Y-121321759D01*
X149899918Y-121332257D01*
X149910771Y-121343099D01*
X149921349Y-121354286D01*
X149931051Y-121365128D01*
X149940473Y-121376235D01*
X149949613Y-121387609D01*
X149958471Y-121399247D01*
X149967049Y-121411151D01*
X149975345Y-121423321D01*
X149983360Y-121435756D01*
X149991094Y-121448457D01*
X149998547Y-121461423D01*
X150005718Y-121474654D01*
X150012609Y-121488152D01*
X150019218Y-121501914D01*
X150025545Y-121515942D01*
X150031592Y-121530236D01*
X150037357Y-121544795D01*
X150042841Y-121559620D01*
X150048044Y-121574710D01*
X150052965Y-121590065D01*
X150057606Y-121605686D01*
X150061965Y-121621573D01*
X150066043Y-121637725D01*
X150069839Y-121654142D01*
X150073355Y-121670825D01*
X150076589Y-121687774D01*
X150079542Y-121704988D01*
X150082214Y-121722468D01*
X150084604Y-121740213D01*
X150086713Y-121758223D01*
X150088541Y-121776499D01*
X150090088Y-121795041D01*
X150091354Y-121813848D01*
X150092338Y-121832920D01*
X150093041Y-121852258D01*
X150093463Y-121871862D01*
X150093603Y-121891731D01*
X150093463Y-121911599D01*
X150093041Y-121931201D01*
X150092338Y-121950538D01*
X150091354Y-121969610D01*
X150090088Y-121988416D01*
X150088541Y-122006957D01*
X150086713Y-122025232D01*
X150084604Y-122043241D01*
X150082214Y-122060986D01*
X150079542Y-122078464D01*
X150076589Y-122095678D01*
X150073355Y-122112626D01*
X150069839Y-122129308D01*
X150066043Y-122145725D01*
X150061965Y-122161876D01*
X150057606Y-122177762D01*
X150052965Y-122193383D01*
X150048044Y-122208738D01*
X150042841Y-122223827D01*
X150037357Y-122238651D01*
X150031592Y-122253210D01*
X150025545Y-122267503D01*
X150019218Y-122281531D01*
X150012609Y-122295293D01*
X150005718Y-122308790D01*
X149998547Y-122322021D01*
X149991094Y-122334987D01*
X149983360Y-122347688D01*
X149975345Y-122360123D01*
X149967049Y-122372292D01*
X149958471Y-122384196D01*
X149949613Y-122395834D01*
X149940473Y-122407208D01*
X149931051Y-122418315D01*
X149921349Y-122429157D01*
X149910771Y-122440344D01*
X149899918Y-122451186D01*
X149888788Y-122461684D01*
X149877383Y-122471837D01*
X149865702Y-122481647D01*
X149853745Y-122491112D01*
X149841512Y-122500234D01*
X149829004Y-122509011D01*
X149816219Y-122517443D01*
X149803159Y-122525532D01*
X149789823Y-122533276D01*
X149776211Y-122540677D01*
X149762323Y-122547733D01*
X149748159Y-122554444D01*
X149733719Y-122560812D01*
X149719004Y-122566835D01*
X149704012Y-122572515D01*
X149688745Y-122577850D01*
X149673202Y-122582840D01*
X149657383Y-122587487D01*
X149641288Y-122591790D01*
X149624917Y-122595748D01*
X149608271Y-122599362D01*
X149591348Y-122602632D01*
X149574150Y-122605557D01*
X149556676Y-122608139D01*
X149538926Y-122610376D01*
X149520900Y-122612269D01*
X149502598Y-122613818D01*
X149484021Y-122615023D01*
X149465167Y-122615883D01*
X149446038Y-122616400D01*
X149426633Y-122616572D01*
X149407310Y-122616400D01*
X149388260Y-122615883D01*
X149369484Y-122615023D01*
X149350981Y-122613818D01*
X149332752Y-122612269D01*
X149314795Y-122610376D01*
X149297113Y-122608139D01*
X149279703Y-122605557D01*
X149262567Y-122602632D01*
X149245704Y-122599362D01*
X149229114Y-122595748D01*
X149212798Y-122591790D01*
X149196755Y-122587487D01*
X149180985Y-122582840D01*
X149165489Y-122577850D01*
X149150266Y-122572515D01*
X149135316Y-122566835D01*
X149120640Y-122560812D01*
X149106237Y-122554444D01*
X149092108Y-122547733D01*
X149078251Y-122540677D01*
X149064668Y-122533276D01*
X149051359Y-122525532D01*
X149038322Y-122517443D01*
X149025559Y-122509011D01*
X149013070Y-122500234D01*
X149000853Y-122491112D01*
X148988910Y-122481647D01*
X148977241Y-122471837D01*
X148965844Y-122461684D01*
X148954721Y-122451186D01*
X148943872Y-122440344D01*
X148933295Y-122429157D01*
X148933295Y-122429157D01*
G37*
G36*
X150457406Y-122594521D02*
X150457406Y-120650122D01*
X150796403Y-120650122D01*
X150796403Y-122594521D01*
X150457406Y-122594521D01*
X150457406Y-122594521D01*
G37*
G36*
X151102327Y-121186175D02*
X151461995Y-121186175D01*
X151777566Y-122168704D01*
X152087625Y-121186175D01*
X152445915Y-121186175D01*
X151909858Y-122628971D01*
X151902042Y-122649925D01*
X151894180Y-122670400D01*
X151886272Y-122690397D01*
X151878319Y-122709916D01*
X151870319Y-122728956D01*
X151862274Y-122747518D01*
X151854182Y-122765601D01*
X151846045Y-122783206D01*
X151837862Y-122800333D01*
X151829633Y-122816981D01*
X151821359Y-122833150D01*
X151813038Y-122848842D01*
X151804671Y-122864054D01*
X151796259Y-122878789D01*
X151787801Y-122893044D01*
X151779296Y-122906822D01*
X151770746Y-122920121D01*
X151762150Y-122932941D01*
X151753509Y-122945283D01*
X151744821Y-122957147D01*
X151736087Y-122968532D01*
X151727308Y-122979438D01*
X151718483Y-122989867D01*
X151709611Y-122999816D01*
X151700694Y-123009288D01*
X151691731Y-123018281D01*
X151682722Y-123026795D01*
X151673668Y-123034831D01*
X151664567Y-123042388D01*
X151649838Y-123054000D01*
X151635050Y-123064948D01*
X151620202Y-123075232D01*
X151605294Y-123084853D01*
X151590327Y-123093811D01*
X151575301Y-123102105D01*
X151560215Y-123109735D01*
X151545069Y-123116702D01*
X151529864Y-123123005D01*
X151514599Y-123128645D01*
X151499275Y-123133621D01*
X151483891Y-123137934D01*
X151468448Y-123141584D01*
X151452945Y-123144569D01*
X151437382Y-123146892D01*
X151421760Y-123148551D01*
X151406079Y-123149546D01*
X151390337Y-123149878D01*
X151374201Y-123149649D01*
X151358015Y-123148964D01*
X151341780Y-123147822D01*
X151325496Y-123146224D01*
X151309164Y-123144169D01*
X151292782Y-123141657D01*
X151276352Y-123138689D01*
X151259872Y-123135264D01*
X151243344Y-123131382D01*
X151226767Y-123127044D01*
X151210141Y-123122249D01*
X151193466Y-123116997D01*
X151176742Y-123111288D01*
X151176742Y-122828784D01*
X151192975Y-122835329D01*
X151209153Y-122841186D01*
X151225276Y-122846353D01*
X151241344Y-122850832D01*
X151257357Y-122854621D01*
X151273314Y-122857722D01*
X151289217Y-122860133D01*
X151305064Y-122861856D01*
X151320857Y-122862889D01*
X151336594Y-122863234D01*
X151346643Y-122862827D01*
X151356643Y-122861608D01*
X151366594Y-122859577D01*
X151376496Y-122856732D01*
X151386349Y-122853075D01*
X151396153Y-122848605D01*
X151405907Y-122843322D01*
X151415612Y-122837227D01*
X151425268Y-122830318D01*
X151434875Y-122822597D01*
X151444433Y-122814064D01*
X151453942Y-122804717D01*
X151463401Y-122794558D01*
X151472812Y-122783586D01*
X151482173Y-122771802D01*
X151491485Y-122759205D01*
X151500748Y-122745795D01*
X151509961Y-122731572D01*
X151519126Y-122716536D01*
X151528241Y-122700688D01*
X151537307Y-122684027D01*
X151546324Y-122666554D01*
X151555292Y-122648267D01*
X151564211Y-122629168D01*
X151573081Y-122609256D01*
X151581901Y-122588532D01*
X151590672Y-122566994D01*
X151599394Y-122544644D01*
X151608067Y-122521482D01*
X151102327Y-121186175D01*
X151102327Y-121186175D01*
G37*
G36*
X152641596Y-121603714D02*
X152641877Y-121585448D01*
X152642721Y-121567557D01*
X152644128Y-121550042D01*
X152646097Y-121532901D01*
X152648630Y-121516136D01*
X152651724Y-121499746D01*
X152655382Y-121483731D01*
X152659602Y-121468091D01*
X152664385Y-121452826D01*
X152669730Y-121437936D01*
X152675638Y-121423421D01*
X152682109Y-121409281D01*
X152689142Y-121395516D01*
X152696738Y-121382127D01*
X152704897Y-121369112D01*
X152713619Y-121356473D01*
X152722903Y-121344209D01*
X152732750Y-121332319D01*
X152743159Y-121320805D01*
X152754132Y-121309666D01*
X152765666Y-121298902D01*
X152777764Y-121288513D01*
X152790424Y-121278500D01*
X152803068Y-121269167D01*
X152815966Y-121260231D01*
X152829117Y-121251693D01*
X152842522Y-121243552D01*
X152856180Y-121235807D01*
X152870092Y-121228460D01*
X152884258Y-121221511D01*
X152898677Y-121214958D01*
X152913350Y-121208802D01*
X152928276Y-121203044D01*
X152943456Y-121197682D01*
X152958889Y-121192718D01*
X152974577Y-121188151D01*
X152990517Y-121183981D01*
X153006712Y-121180208D01*
X153023160Y-121176833D01*
X153039861Y-121173854D01*
X153056816Y-121171273D01*
X153074025Y-121169089D01*
X153091487Y-121167301D01*
X153109203Y-121165911D01*
X153127173Y-121164919D01*
X153145396Y-121164323D01*
X153163873Y-121164124D01*
X153181268Y-121164299D01*
X153198544Y-121164823D01*
X153215700Y-121165696D01*
X153232736Y-121166919D01*
X153249653Y-121168491D01*
X153266450Y-121170412D01*
X153283128Y-121172683D01*
X153299686Y-121175302D01*
X153316124Y-121178272D01*
X153332443Y-121181590D01*
X153348642Y-121185258D01*
X153364722Y-121189275D01*
X153380682Y-121193642D01*
X153396522Y-121198357D01*
X153412242Y-121203422D01*
X153427844Y-121208837D01*
X153443325Y-121214600D01*
X153458687Y-121220713D01*
X153473929Y-121227176D01*
X153489051Y-121233987D01*
X153504054Y-121241148D01*
X153518938Y-121248659D01*
X153533701Y-121256518D01*
X153548345Y-121264727D01*
X153548345Y-121522415D01*
X153533917Y-121515831D01*
X153519296Y-121509585D01*
X153504482Y-121503676D01*
X153489475Y-121498105D01*
X153474276Y-121492872D01*
X153458883Y-121487976D01*
X153443297Y-121483418D01*
X153427519Y-121479198D01*
X153411547Y-121475315D01*
X153395383Y-121471770D01*
X153379026Y-121468563D01*
X153362476Y-121465693D01*
X153345732Y-121463161D01*
X153328796Y-121460966D01*
X153311667Y-121459109D01*
X153294345Y-121457590D01*
X153276830Y-121456408D01*
X153259123Y-121455564D01*
X153241222Y-121455057D01*
X153223128Y-121454889D01*
X153200580Y-121455157D01*
X153179131Y-121455963D01*
X153158782Y-121457307D01*
X153139534Y-121459188D01*
X153121385Y-121461607D01*
X153104336Y-121464563D01*
X153088387Y-121468057D01*
X153073538Y-121472088D01*
X153059789Y-121476657D01*
X153047139Y-121481763D01*
X153035590Y-121487406D01*
X153025141Y-121493587D01*
X153015791Y-121500306D01*
X153007542Y-121507562D01*
X153000392Y-121515355D01*
X152994343Y-121523686D01*
X152989393Y-121532555D01*
X152985543Y-121541960D01*
X152982793Y-121551904D01*
X152981143Y-121562385D01*
X152980594Y-121573403D01*
X152981670Y-121587828D01*
X152984900Y-121601477D01*
X152990283Y-121614352D01*
X152997819Y-121626451D01*
X153007508Y-121637776D01*
X153019351Y-121648326D01*
X153033347Y-121658101D01*
X153049495Y-121667101D01*
X153062274Y-121673058D01*
X153075553Y-121678901D01*
X153089333Y-121684630D01*
X153103615Y-121690246D01*
X153118397Y-121695748D01*
X153133681Y-121701135D01*
X153149466Y-121706409D01*
X153165752Y-121711570D01*
X153182539Y-121716616D01*
X153199827Y-121721549D01*
X153217616Y-121726367D01*
X153234143Y-121730635D01*
X153250651Y-121735170D01*
X153267139Y-121739973D01*
X153283609Y-121745044D01*
X153300059Y-121750384D01*
X153316490Y-121755991D01*
X153332902Y-121761867D01*
X153349295Y-121768011D01*
X153365669Y-121774423D01*
X153382024Y-121781103D01*
X153398359Y-121788051D01*
X153414676Y-121795267D01*
X153428695Y-121801678D01*
X153442405Y-121808708D01*
X153455806Y-121816356D01*
X153468897Y-121824623D01*
X153481679Y-121833509D01*
X153494152Y-121843014D01*
X153506315Y-121853137D01*
X153518169Y-121863879D01*
X153529714Y-121875240D01*
X153540949Y-121887220D01*
X153551875Y-121899818D01*
X153562491Y-121913036D01*
X153572798Y-121926872D01*
X153582796Y-121941327D01*
X153590821Y-121953683D01*
X153598360Y-121966431D01*
X153605412Y-121979569D01*
X153611978Y-121993098D01*
X153618058Y-122007018D01*
X153623651Y-122021329D01*
X153628758Y-122036030D01*
X153633378Y-122051123D01*
X153637512Y-122066606D01*
X153641160Y-122082481D01*
X153644322Y-122098746D01*
X153646997Y-122115402D01*
X153649185Y-122132449D01*
X153650888Y-122149887D01*
X153652103Y-122167716D01*
X153652833Y-122185935D01*
X153653076Y-122204546D01*
X153652748Y-122221338D01*
X153651764Y-122237856D01*
X153650123Y-122254098D01*
X153647827Y-122270066D01*
X153644874Y-122285758D01*
X153641264Y-122301176D01*
X153636999Y-122316319D01*
X153632078Y-122331186D01*
X153626500Y-122345779D01*
X153620266Y-122360097D01*
X153613376Y-122374140D01*
X153605829Y-122387908D01*
X153597627Y-122401401D01*
X153588768Y-122414620D01*
X153579253Y-122427563D01*
X153569081Y-122440231D01*
X153558254Y-122452625D01*
X153546770Y-122464743D01*
X153534631Y-122476587D01*
X153521834Y-122488156D01*
X153508382Y-122499449D01*
X153496277Y-122509006D01*
X153483845Y-122518156D01*
X153471089Y-122526900D01*
X153458007Y-122535237D01*
X153444600Y-122543167D01*
X153430868Y-122550690D01*
X153416810Y-122557807D01*
X153402426Y-122564517D01*
X153387718Y-122570821D01*
X153372684Y-122576718D01*
X153357324Y-122582208D01*
X153341640Y-122587291D01*
X153325629Y-122591968D01*
X153309294Y-122596238D01*
X153292633Y-122600101D01*
X153275647Y-122603558D01*
X153258335Y-122606608D01*
X153240698Y-122609251D01*
X153222736Y-122611488D01*
X153204448Y-122613318D01*
X153185835Y-122614742D01*
X153166897Y-122615758D01*
X153147633Y-122616368D01*
X153128044Y-122616572D01*
X153110769Y-122616424D01*
X153093593Y-122615981D01*
X153076515Y-122615243D01*
X153059536Y-122614209D01*
X153042655Y-122612881D01*
X153025872Y-122611257D01*
X153009188Y-122609337D01*
X152992602Y-122607123D01*
X152976115Y-122604613D01*
X152959726Y-122601808D01*
X152943436Y-122598707D01*
X152927244Y-122595312D01*
X152911150Y-122591621D01*
X152895155Y-122587634D01*
X152879259Y-122583353D01*
X152863460Y-122578776D01*
X152847761Y-122573904D01*
X152832159Y-122568737D01*
X152816656Y-122563274D01*
X152801252Y-122557516D01*
X152785946Y-122551463D01*
X152770738Y-122545114D01*
X152755629Y-122538471D01*
X152740618Y-122531532D01*
X152725706Y-122524297D01*
X152710892Y-122516768D01*
X152696176Y-122508943D01*
X152681559Y-122500823D01*
X152681559Y-122199033D01*
X152696484Y-122208757D01*
X152711492Y-122218084D01*
X152726585Y-122227014D01*
X152741761Y-122235547D01*
X152757021Y-122243683D01*
X152772364Y-122251422D01*
X152787792Y-122258765D01*
X152803303Y-122265710D01*
X152818898Y-122272259D01*
X152834577Y-122278411D01*
X152850339Y-122284166D01*
X152866186Y-122289524D01*
X152882116Y-122294485D01*
X152898130Y-122299049D01*
X152914227Y-122303216D01*
X152930409Y-122306987D01*
X152946674Y-122310360D01*
X152963023Y-122313337D01*
X152979456Y-122315917D01*
X152995972Y-122318099D01*
X153012573Y-122319885D01*
X153029257Y-122321275D01*
X153046025Y-122322267D01*
X153062877Y-122322862D01*
X153079812Y-122323061D01*
X153103449Y-122322831D01*
X153125670Y-122322142D01*
X153146475Y-122320993D01*
X153165863Y-122319385D01*
X153183835Y-122317318D01*
X153200391Y-122314791D01*
X153215530Y-122311805D01*
X153229253Y-122308360D01*
X153241560Y-122304455D01*
X153252450Y-122300091D01*
X153261924Y-122295267D01*
X153269982Y-122289984D01*
X153280317Y-122280855D01*
X153289274Y-122270692D01*
X153296853Y-122259495D01*
X153303054Y-122247265D01*
X153307878Y-122234001D01*
X153311323Y-122219704D01*
X153313390Y-122204373D01*
X153314079Y-122188008D01*
X153313211Y-122174533D01*
X153310608Y-122161671D01*
X153306270Y-122149421D01*
X153300196Y-122137783D01*
X153292387Y-122126757D01*
X153282843Y-122116344D01*
X153271564Y-122106543D01*
X153258549Y-122097355D01*
X153243799Y-122088778D01*
X153231021Y-122081857D01*
X153217741Y-122075117D01*
X153203961Y-122068559D01*
X153189680Y-122062183D01*
X153174897Y-122055989D01*
X153159613Y-122049976D01*
X153143828Y-122044146D01*
X153127543Y-122038498D01*
X153110755Y-122033031D01*
X153093467Y-122027747D01*
X153075678Y-122022644D01*
X153059362Y-122017754D01*
X153043026Y-122012731D01*
X153026672Y-122007573D01*
X153010298Y-122002280D01*
X152993905Y-121996854D01*
X152977493Y-121991294D01*
X152961062Y-121985600D01*
X152944611Y-121979772D01*
X152928142Y-121973809D01*
X152911653Y-121967713D01*
X152895146Y-121961483D01*
X152878619Y-121955118D01*
X152863729Y-121948888D01*
X152849166Y-121942071D01*
X152834929Y-121934666D01*
X152821018Y-121926675D01*
X152807434Y-121918097D01*
X152794175Y-121908932D01*
X152781243Y-121899181D01*
X152768637Y-121888842D01*
X152756356Y-121877916D01*
X152744403Y-121866403D01*
X152732775Y-121854304D01*
X152721473Y-121841617D01*
X152710498Y-121828344D01*
X152701617Y-121816198D01*
X152693349Y-121803648D01*
X152685693Y-121790694D01*
X152678650Y-121777335D01*
X152672219Y-121763573D01*
X152666401Y-121749406D01*
X152661195Y-121734835D01*
X152656601Y-121719859D01*
X152652620Y-121704480D01*
X152649252Y-121688696D01*
X152646496Y-121672508D01*
X152644352Y-121655916D01*
X152642821Y-121638919D01*
X152641902Y-121621519D01*
X152641596Y-121603714D01*
X152641596Y-121603714D01*
G37*
G36*
X153866672Y-121476939D02*
X153866672Y-121186175D01*
X154103695Y-121186175D01*
X154103695Y-120768618D01*
X154442692Y-120768618D01*
X154442692Y-121186175D01*
X154776177Y-121186175D01*
X154776177Y-121476939D01*
X154442692Y-121476939D01*
X154442692Y-122171470D01*
X154443273Y-122193281D01*
X154445017Y-122213241D01*
X154447924Y-122231348D01*
X154451994Y-122247604D01*
X154457226Y-122262007D01*
X154463621Y-122274558D01*
X154471179Y-122285257D01*
X154479899Y-122294105D01*
X154489188Y-122300758D01*
X154499906Y-122306629D01*
X154512053Y-122311717D01*
X154525630Y-122316023D01*
X154540635Y-122319545D01*
X154557069Y-122322285D01*
X154574933Y-122324242D01*
X154594225Y-122325416D01*
X154614947Y-122325807D01*
X154632930Y-122325504D01*
X154650500Y-122324595D01*
X154667657Y-122323080D01*
X154684400Y-122320958D01*
X154700730Y-122318230D01*
X154716646Y-122314896D01*
X154732149Y-122310955D01*
X154747239Y-122306409D01*
X154761915Y-122301256D01*
X154776177Y-122295497D01*
X154776177Y-122575235D01*
X154760807Y-122581350D01*
X154745224Y-122586976D01*
X154729430Y-122592112D01*
X154713424Y-122596760D01*
X154697205Y-122600918D01*
X154680775Y-122604587D01*
X154664132Y-122607766D01*
X154647278Y-122610457D01*
X154630211Y-122612658D01*
X154612933Y-122614370D01*
X154595442Y-122615593D01*
X154577740Y-122616327D01*
X154559825Y-122616572D01*
X154552935Y-122616572D01*
X154534078Y-122616315D01*
X154515592Y-122615547D01*
X154497475Y-122614265D01*
X154479729Y-122612472D01*
X154462352Y-122610165D01*
X154445346Y-122607346D01*
X154428710Y-122604015D01*
X154412444Y-122600171D01*
X154396548Y-122595815D01*
X154381022Y-122590946D01*
X154365867Y-122585565D01*
X154351081Y-122579671D01*
X154336666Y-122573265D01*
X154322621Y-122566346D01*
X154308946Y-122558914D01*
X154295641Y-122550970D01*
X154282706Y-122542514D01*
X154270141Y-122533545D01*
X154257947Y-122524064D01*
X154246123Y-122514070D01*
X154234668Y-122503563D01*
X154223584Y-122492544D01*
X154213386Y-122481584D01*
X154203640Y-122470269D01*
X154194348Y-122458600D01*
X154185510Y-122446576D01*
X154177124Y-122434198D01*
X154169192Y-122421465D01*
X154161713Y-122408378D01*
X154154687Y-122394937D01*
X154148115Y-122381142D01*
X154141996Y-122366992D01*
X154136330Y-122352487D01*
X154131118Y-122337628D01*
X154126358Y-122322415D01*
X154122052Y-122306848D01*
X154118199Y-122290926D01*
X154114800Y-122274649D01*
X154111854Y-122258019D01*
X154109361Y-122241033D01*
X154107321Y-122223694D01*
X154105735Y-122206000D01*
X154104601Y-122187952D01*
X154103921Y-122169549D01*
X154103695Y-122150792D01*
X154103695Y-121476939D01*
X153866672Y-121476939D01*
X153866672Y-121476939D01*
X153866672Y-121476939D01*
G37*
G36*
X155043517Y-122134254D02*
X155378379Y-122091544D01*
X155378718Y-122107399D01*
X155379736Y-122122677D01*
X155381432Y-122137379D01*
X155383807Y-122151504D01*
X155386860Y-122165053D01*
X155390592Y-122178025D01*
X155395002Y-122190421D01*
X155400090Y-122202240D01*
X155405857Y-122213482D01*
X155412303Y-122224148D01*
X155419427Y-122234238D01*
X155427229Y-122243751D01*
X155435710Y-122252687D01*
X155444869Y-122261047D01*
X155454707Y-122268830D01*
X155465224Y-122276037D01*
X155476418Y-122282667D01*
X155488292Y-122288721D01*
X155500843Y-122294198D01*
X155514074Y-122299098D01*
X155527982Y-122303423D01*
X155542570Y-122307170D01*
X155557835Y-122310341D01*
X155573779Y-122312935D01*
X155590402Y-122314953D01*
X155607703Y-122316395D01*
X155625682Y-122317259D01*
X155644340Y-122317548D01*
X155647097Y-122317548D01*
X155665531Y-122317255D01*
X155683270Y-122316376D01*
X155700313Y-122314911D01*
X155716660Y-122312860D01*
X155732312Y-122310223D01*
X155747268Y-122306999D01*
X155761529Y-122303190D01*
X155775094Y-122298795D01*
X155787963Y-122293814D01*
X155800137Y-122288247D01*
X155811615Y-122282094D01*
X155822397Y-122275354D01*
X155832484Y-122268029D01*
X155841875Y-122260118D01*
X155850570Y-122251620D01*
X155858570Y-122242537D01*
X155865874Y-122232868D01*
X155872483Y-122222612D01*
X155878396Y-122211771D01*
X155883613Y-122200344D01*
X155888135Y-122188330D01*
X155891961Y-122175731D01*
X155895091Y-122162545D01*
X155897526Y-122148774D01*
X155899265Y-122134416D01*
X155900308Y-122119473D01*
X155900656Y-122103943D01*
X155900656Y-121926181D01*
X155881143Y-121923527D01*
X155862109Y-121921085D01*
X155843554Y-121918855D01*
X155825476Y-121916836D01*
X155807878Y-121915029D01*
X155790757Y-121913434D01*
X155774116Y-121912050D01*
X155757953Y-121910878D01*
X155742268Y-121909918D01*
X155727061Y-121909169D01*
X155712334Y-121908632D01*
X155698084Y-121908307D01*
X155676508Y-121908525D01*
X155655685Y-121909178D01*
X155635616Y-121910268D01*
X155616300Y-121911794D01*
X155597738Y-121913755D01*
X155579930Y-121916152D01*
X155562876Y-121918985D01*
X155546576Y-121922254D01*
X155531029Y-121925959D01*
X155516236Y-121930099D01*
X155502197Y-121934676D01*
X155488911Y-121939688D01*
X155476379Y-121945136D01*
X155464601Y-121951020D01*
X155453577Y-121957340D01*
X155443306Y-121964096D01*
X155433789Y-121971287D01*
X155425026Y-121978915D01*
X155417017Y-121986978D01*
X155409761Y-121995477D01*
X155403260Y-122004412D01*
X155397511Y-122013783D01*
X155392517Y-122023589D01*
X155388276Y-122033832D01*
X155384790Y-122044510D01*
X155382056Y-122055624D01*
X155380077Y-122067174D01*
X155378851Y-122079160D01*
X155378380Y-122091582D01*
X155378379Y-122091544D01*
X155043517Y-122134254D01*
X155043848Y-122117114D01*
X155044840Y-122099863D01*
X155046493Y-122082501D01*
X155048808Y-122065027D01*
X155051784Y-122047442D01*
X155054681Y-122033999D01*
X155058646Y-122019656D01*
X155063681Y-122004413D01*
X155069783Y-121988270D01*
X155076955Y-121971227D01*
X155085195Y-121953284D01*
X155094503Y-121934441D01*
X155102771Y-121919639D01*
X155111652Y-121905246D01*
X155121145Y-121891261D01*
X155131251Y-121877684D01*
X155141969Y-121864516D01*
X155153299Y-121851756D01*
X155165242Y-121839404D01*
X155177798Y-121827461D01*
X155190966Y-121815926D01*
X155201473Y-121807533D01*
X155212785Y-121799351D01*
X155224900Y-121791380D01*
X155237819Y-121783619D01*
X155251542Y-121776069D01*
X155266069Y-121768729D01*
X155281400Y-121761600D01*
X155297534Y-121754682D01*
X155314473Y-121747974D01*
X155332215Y-121741477D01*
X155350761Y-121735190D01*
X155370111Y-121729114D01*
X155384201Y-121724867D01*
X155398587Y-121720877D01*
X155413269Y-121717145D01*
X155428246Y-121713669D01*
X155443519Y-121710452D01*
X155459087Y-121707491D01*
X155474951Y-121704788D01*
X155491111Y-121702343D01*
X155507567Y-121700155D01*
X155524318Y-121698224D01*
X155541364Y-121696551D01*
X155558707Y-121695135D01*
X155576345Y-121693977D01*
X155594278Y-121693076D01*
X155612507Y-121692432D01*
X155631032Y-121692046D01*
X155649853Y-121691918D01*
X155665360Y-121692003D01*
X155681015Y-121692260D01*
X155696816Y-121692689D01*
X155712765Y-121693289D01*
X155728860Y-121694060D01*
X155745103Y-121695003D01*
X155761492Y-121696117D01*
X155778029Y-121697403D01*
X155794712Y-121698860D01*
X155811542Y-121700489D01*
X155828520Y-121702289D01*
X155845644Y-121704260D01*
X155862916Y-121706403D01*
X155880334Y-121708717D01*
X155897899Y-121711203D01*
X155897625Y-121695328D01*
X155896801Y-121679941D01*
X155895428Y-121665043D01*
X155893506Y-121650634D01*
X155891035Y-121636713D01*
X155888014Y-121623280D01*
X155884444Y-121610336D01*
X155880325Y-121597880D01*
X155875657Y-121585913D01*
X155870440Y-121574434D01*
X155864673Y-121563444D01*
X155858358Y-121552942D01*
X155851493Y-121542928D01*
X155844079Y-121533403D01*
X155836116Y-121524367D01*
X155827603Y-121515819D01*
X155818541Y-121507759D01*
X155808931Y-121500188D01*
X155798771Y-121493106D01*
X155788061Y-121486511D01*
X155776803Y-121480406D01*
X155764995Y-121474788D01*
X155752639Y-121469660D01*
X155739733Y-121465019D01*
X155726277Y-121460867D01*
X155712273Y-121457204D01*
X155697720Y-121454029D01*
X155682617Y-121451342D01*
X155666965Y-121449144D01*
X155650764Y-121447435D01*
X155634013Y-121446213D01*
X155616714Y-121445481D01*
X155598865Y-121445237D01*
X155580003Y-121445351D01*
X155561339Y-121445695D01*
X155542873Y-121446269D01*
X155524606Y-121447071D01*
X155506537Y-121448103D01*
X155488666Y-121449364D01*
X155470994Y-121450855D01*
X155453521Y-121452575D01*
X155436246Y-121454524D01*
X155419169Y-121456703D01*
X155402291Y-121459111D01*
X155385611Y-121461748D01*
X155369130Y-121464615D01*
X155352847Y-121467711D01*
X155336762Y-121471036D01*
X155320876Y-121474591D01*
X155305189Y-121478375D01*
X155289700Y-121482388D01*
X155274409Y-121486631D01*
X155259317Y-121491103D01*
X155244423Y-121495804D01*
X155229727Y-121500734D01*
X155215230Y-121505894D01*
X155200932Y-121511284D01*
X155186832Y-121516902D01*
X155186832Y-121242676D01*
X155201841Y-121236750D01*
X155216977Y-121231056D01*
X155232240Y-121225595D01*
X155247628Y-121220366D01*
X155263144Y-121215369D01*
X155278785Y-121210605D01*
X155294553Y-121206073D01*
X155310447Y-121201773D01*
X155326468Y-121197706D01*
X155342615Y-121193872D01*
X155358889Y-121190270D01*
X155375289Y-121186900D01*
X155391815Y-121183762D01*
X155408468Y-121180857D01*
X155425247Y-121178185D01*
X155442152Y-121175744D01*
X155459184Y-121173537D01*
X155476342Y-121171561D01*
X155493627Y-121169818D01*
X155511038Y-121168308D01*
X155528575Y-121167029D01*
X155546239Y-121165984D01*
X155564029Y-121165170D01*
X155581946Y-121164589D01*
X155599988Y-121164241D01*
X155618158Y-121164124D01*
X155638119Y-121164296D01*
X155657766Y-121164810D01*
X155677096Y-121165668D01*
X155696112Y-121166868D01*
X155714812Y-121168412D01*
X155733196Y-121170298D01*
X155751266Y-121172527D01*
X155769019Y-121175100D01*
X155786458Y-121178015D01*
X155803580Y-121181273D01*
X155820388Y-121184874D01*
X155836880Y-121188818D01*
X155853057Y-121193106D01*
X155868918Y-121197736D01*
X155884464Y-121202709D01*
X155899694Y-121208025D01*
X155914609Y-121213684D01*
X155929209Y-121219686D01*
X155943493Y-121226031D01*
X155957461Y-121232719D01*
X155971115Y-121239750D01*
X155984453Y-121247124D01*
X155997475Y-121254841D01*
X156010182Y-121262901D01*
X156022574Y-121271303D01*
X156034650Y-121280049D01*
X156046411Y-121289138D01*
X156057856Y-121298570D01*
X156068986Y-121308345D01*
X156079801Y-121318462D01*
X156090280Y-121328813D01*
X156100404Y-121339470D01*
X156110173Y-121350433D01*
X156119586Y-121361703D01*
X156128644Y-121373278D01*
X156137347Y-121385160D01*
X156145695Y-121397348D01*
X156153688Y-121409842D01*
X156161325Y-121422643D01*
X156168608Y-121435750D01*
X156175534Y-121449163D01*
X156182106Y-121462882D01*
X156188323Y-121476907D01*
X156194184Y-121491239D01*
X156199690Y-121505877D01*
X156204841Y-121520821D01*
X156209636Y-121536071D01*
X156214077Y-121551628D01*
X156218162Y-121567490D01*
X156221892Y-121583659D01*
X156225266Y-121600134D01*
X156228286Y-121616916D01*
X156230950Y-121634003D01*
X156233259Y-121651397D01*
X156235213Y-121669097D01*
X156236811Y-121687104D01*
X156238055Y-121705416D01*
X156238943Y-121724035D01*
X156239475Y-121742960D01*
X156239653Y-121762191D01*
X156239653Y-122142532D01*
X156239377Y-122159326D01*
X156238549Y-122175917D01*
X156237168Y-122192305D01*
X156235235Y-122208490D01*
X156232750Y-122224471D01*
X156229712Y-122240250D01*
X156226123Y-122255825D01*
X156221981Y-122271197D01*
X156217287Y-122286366D01*
X156212040Y-122301332D01*
X156206241Y-122316094D01*
X156199891Y-122330653D01*
X156192987Y-122345010D01*
X156185532Y-122359163D01*
X156177524Y-122373113D01*
X156168964Y-122386859D01*
X156159852Y-122400403D01*
X156150187Y-122413744D01*
X156139971Y-122426881D01*
X156129202Y-122439815D01*
X156117880Y-122452546D01*
X156106007Y-122465074D01*
X156093581Y-122477398D01*
X156083415Y-122486831D01*
X156072876Y-122495933D01*
X156061963Y-122504704D01*
X156050677Y-122513143D01*
X156039016Y-122521252D01*
X156026983Y-122529030D01*
X156014576Y-122536477D01*
X156001795Y-122543593D01*
X155988640Y-122550377D01*
X155975112Y-122556831D01*
X155961211Y-122562954D01*
X155946935Y-122568746D01*
X155932286Y-122574207D01*
X155917264Y-122579337D01*
X155901868Y-122584136D01*
X155886098Y-122588605D01*
X155869955Y-122592742D01*
X155853438Y-122596548D01*
X155836548Y-122600023D01*
X155819284Y-122603167D01*
X155801647Y-122605981D01*
X155783635Y-122608463D01*
X155765251Y-122610614D01*
X155746492Y-122612434D01*
X155727360Y-122613924D01*
X155707855Y-122615082D01*
X155687976Y-122615910D01*
X155667723Y-122616406D01*
X155647096Y-122616572D01*
X155626607Y-122616415D01*
X155606478Y-122615947D01*
X155586711Y-122615166D01*
X155567305Y-122614073D01*
X155548261Y-122612667D01*
X155529577Y-122610949D01*
X155511256Y-122608919D01*
X155493295Y-122606576D01*
X155475696Y-122603921D01*
X155458458Y-122600953D01*
X155441582Y-122597673D01*
X155425067Y-122594081D01*
X155408913Y-122590177D01*
X155393121Y-122585960D01*
X155377690Y-122581430D01*
X155362620Y-122576589D01*
X155347912Y-122571434D01*
X155333565Y-122565968D01*
X155319580Y-122560189D01*
X155305956Y-122554098D01*
X155292693Y-122547695D01*
X155279791Y-122540979D01*
X155267251Y-122533950D01*
X155255072Y-122526610D01*
X155243255Y-122518957D01*
X155231799Y-122510991D01*
X155220704Y-122502714D01*
X155209971Y-122494123D01*
X155199599Y-122485221D01*
X155189588Y-122476006D01*
X155177162Y-122463670D01*
X155165289Y-122451105D01*
X155153967Y-122438310D01*
X155143198Y-122425286D01*
X155132982Y-122412032D01*
X155123317Y-122398549D01*
X155114205Y-122384837D01*
X155105645Y-122370896D01*
X155097637Y-122356725D01*
X155090182Y-122342325D01*
X155083278Y-122327695D01*
X155076927Y-122312837D01*
X155071129Y-122297749D01*
X155065882Y-122282431D01*
X155061188Y-122266884D01*
X155057046Y-122251108D01*
X155053457Y-122235103D01*
X155050419Y-122218868D01*
X155047934Y-122202404D01*
X155046001Y-122185710D01*
X155044620Y-122168787D01*
X155043792Y-122151635D01*
X155043516Y-122134254D01*
X155043517Y-122134254D01*
X155043517Y-122134254D01*
G37*
G36*
X156537310Y-121891731D02*
X156537451Y-121871707D01*
X156537873Y-121851953D01*
X156538576Y-121832470D01*
X156539560Y-121813256D01*
X156540826Y-121794312D01*
X156542372Y-121775638D01*
X156544200Y-121757234D01*
X156546310Y-121739100D01*
X156548700Y-121721237D01*
X156551372Y-121703643D01*
X156554325Y-121686319D01*
X156557559Y-121669265D01*
X156561074Y-121652481D01*
X156564871Y-121635967D01*
X156568949Y-121619723D01*
X156573308Y-121603749D01*
X156577948Y-121588045D01*
X156582870Y-121572611D01*
X156588073Y-121557447D01*
X156593557Y-121542553D01*
X156599322Y-121527928D01*
X156605368Y-121513574D01*
X156611696Y-121499490D01*
X156618305Y-121485676D01*
X156625195Y-121472132D01*
X156632367Y-121458858D01*
X156639819Y-121445853D01*
X156647553Y-121433119D01*
X156655568Y-121420655D01*
X156663865Y-121408460D01*
X156672442Y-121396536D01*
X156681301Y-121384882D01*
X156690441Y-121373497D01*
X156699862Y-121362383D01*
X156709565Y-121351539D01*
X156720141Y-121340352D01*
X156730991Y-121329510D01*
X156742114Y-121319012D01*
X156753510Y-121308859D01*
X156765180Y-121299049D01*
X156777123Y-121289584D01*
X156789339Y-121280462D01*
X156801829Y-121271685D01*
X156814592Y-121263253D01*
X156827628Y-121255164D01*
X156840938Y-121247420D01*
X156854521Y-121240019D01*
X156868377Y-121232963D01*
X156882507Y-121226252D01*
X156896910Y-121219884D01*
X156911586Y-121213861D01*
X156926536Y-121208181D01*
X156941759Y-121202846D01*
X156957255Y-121197856D01*
X156973025Y-121193209D01*
X156989067Y-121188906D01*
X157005384Y-121184948D01*
X157021973Y-121181334D01*
X157038836Y-121178064D01*
X157055973Y-121175139D01*
X157073382Y-121172557D01*
X157091065Y-121170320D01*
X157109021Y-121168427D01*
X157127251Y-121166878D01*
X157145754Y-121165673D01*
X157164530Y-121164813D01*
X157183580Y-121164296D01*
X157202903Y-121164124D01*
X157220116Y-121164261D01*
X157237306Y-121164670D01*
X157254471Y-121165352D01*
X157271613Y-121166306D01*
X157288731Y-121167534D01*
X157305825Y-121169034D01*
X157322895Y-121170807D01*
X157339941Y-121172852D01*
X157356963Y-121175171D01*
X157373961Y-121177762D01*
X157390935Y-121180626D01*
X157407886Y-121183762D01*
X157424812Y-121187172D01*
X157441715Y-121190854D01*
X157458593Y-121194809D01*
X157475448Y-121199036D01*
X157492279Y-121203537D01*
X157509086Y-121208310D01*
X157525868Y-121213356D01*
X157542627Y-121218674D01*
X157559362Y-121224266D01*
X157576073Y-121230130D01*
X157592761Y-121236267D01*
X157609424Y-121242676D01*
X157609424Y-121525162D01*
X157593506Y-121518884D01*
X157577513Y-121512912D01*
X157561446Y-121507247D01*
X157545303Y-121501887D01*
X157529085Y-121496834D01*
X157512793Y-121492088D01*
X157496425Y-121487647D01*
X157479982Y-121483513D01*
X157463464Y-121479685D01*
X157446872Y-121476163D01*
X157430204Y-121472948D01*
X157413461Y-121470038D01*
X157396644Y-121467435D01*
X157379751Y-121465138D01*
X157362783Y-121463148D01*
X157345741Y-121461464D01*
X157328623Y-121460085D01*
X157311430Y-121459014D01*
X157294162Y-121458248D01*
X157276820Y-121457789D01*
X157259402Y-121457635D01*
X157239224Y-121457884D01*
X157219596Y-121458628D01*
X157200517Y-121459869D01*
X157181988Y-121461606D01*
X157164008Y-121463839D01*
X157146579Y-121466568D01*
X157129699Y-121469794D01*
X157113368Y-121473516D01*
X157097588Y-121477735D01*
X157082357Y-121482449D01*
X157067675Y-121487660D01*
X157053544Y-121493367D01*
X157039962Y-121499571D01*
X157026930Y-121506270D01*
X157014447Y-121513466D01*
X157002514Y-121521158D01*
X156991131Y-121529347D01*
X156980298Y-121538032D01*
X156970014Y-121547213D01*
X156961689Y-121555579D01*
X156953751Y-121564639D01*
X156946200Y-121574394D01*
X156939037Y-121584844D01*
X156932260Y-121595989D01*
X156925871Y-121607828D01*
X156919870Y-121620362D01*
X156914255Y-121633591D01*
X156909027Y-121647514D01*
X156904187Y-121662132D01*
X156899734Y-121677444D01*
X156895669Y-121693452D01*
X156891990Y-121710153D01*
X156888699Y-121727550D01*
X156885794Y-121745641D01*
X156883278Y-121764427D01*
X156881148Y-121783908D01*
X156879405Y-121804083D01*
X156878050Y-121824953D01*
X156877082Y-121846518D01*
X156876501Y-121868777D01*
X156876308Y-121891731D01*
X156876501Y-121914445D01*
X156877082Y-121936487D01*
X156878050Y-121957857D01*
X156879405Y-121978555D01*
X156881148Y-121998582D01*
X156883278Y-122017936D01*
X156885794Y-122036619D01*
X156888699Y-122054629D01*
X156891990Y-122071968D01*
X156895669Y-122088635D01*
X156899734Y-122104630D01*
X156904187Y-122119953D01*
X156909027Y-122134604D01*
X156914255Y-122148584D01*
X156919870Y-122161891D01*
X156925871Y-122174527D01*
X156932260Y-122186490D01*
X156939037Y-122197782D01*
X156946200Y-122208402D01*
X156953751Y-122218350D01*
X156961689Y-122227626D01*
X156970014Y-122236230D01*
X156980298Y-122245411D01*
X156991131Y-122254096D01*
X157002514Y-122262284D01*
X157014447Y-122269977D01*
X157026930Y-122277173D01*
X157039962Y-122283872D01*
X157053544Y-122290076D01*
X157067675Y-122295783D01*
X157082357Y-122300994D01*
X157097588Y-122305708D01*
X157113368Y-122309927D01*
X157129699Y-122313649D01*
X157146579Y-122316875D01*
X157164008Y-122319604D01*
X157181988Y-122321837D01*
X157200517Y-122323574D01*
X157219596Y-122324815D01*
X157239224Y-122325559D01*
X157259402Y-122325807D01*
X157276070Y-122325648D01*
X157292738Y-122325170D01*
X157309405Y-122324373D01*
X157326073Y-122323258D01*
X157342741Y-122321824D01*
X157359408Y-122320071D01*
X157376076Y-122317999D01*
X157392744Y-122315609D01*
X157409411Y-122312900D01*
X157426079Y-122309872D01*
X157442747Y-122306526D01*
X157459415Y-122302861D01*
X157476082Y-122298877D01*
X157492750Y-122294575D01*
X157509418Y-122289954D01*
X157526085Y-122285014D01*
X157542753Y-122279755D01*
X157559421Y-122274178D01*
X157576089Y-122268282D01*
X157592756Y-122262067D01*
X157609424Y-122255534D01*
X157609424Y-122538020D01*
X157592761Y-122544429D01*
X157576073Y-122550566D01*
X157559362Y-122556430D01*
X157542627Y-122562022D01*
X157525868Y-122567340D01*
X157509086Y-122572386D01*
X157492279Y-122577159D01*
X157475448Y-122581660D01*
X157458593Y-122585887D01*
X157441715Y-122589842D01*
X157424812Y-122593524D01*
X157407886Y-122596934D01*
X157390935Y-122600070D01*
X157373961Y-122602934D01*
X157356963Y-122605525D01*
X157339941Y-122607844D01*
X157322895Y-122609889D01*
X157305825Y-122611662D01*
X157288731Y-122613162D01*
X157271613Y-122614390D01*
X157254471Y-122615344D01*
X157237306Y-122616026D01*
X157220116Y-122616435D01*
X157202903Y-122616572D01*
X157183580Y-122616400D01*
X157164530Y-122615883D01*
X157145754Y-122615023D01*
X157127251Y-122613818D01*
X157109021Y-122612269D01*
X157091065Y-122610376D01*
X157073382Y-122608139D01*
X157055973Y-122605557D01*
X157038836Y-122602632D01*
X157021973Y-122599362D01*
X157005384Y-122595748D01*
X156989067Y-122591790D01*
X156973025Y-122587487D01*
X156957255Y-122582840D01*
X156941759Y-122577850D01*
X156926536Y-122572515D01*
X156911586Y-122566835D01*
X156896910Y-122560812D01*
X156882507Y-122554444D01*
X156868377Y-122547733D01*
X156854521Y-122540677D01*
X156840938Y-122533276D01*
X156827628Y-122525532D01*
X156814592Y-122517443D01*
X156801829Y-122509011D01*
X156789339Y-122500234D01*
X156777123Y-122491112D01*
X156765180Y-122481647D01*
X156753510Y-122471837D01*
X156742114Y-122461684D01*
X156730991Y-122451186D01*
X156720141Y-122440344D01*
X156709565Y-122429157D01*
X156699862Y-122418315D01*
X156690441Y-122407208D01*
X156681301Y-122395834D01*
X156672442Y-122384196D01*
X156663865Y-122372292D01*
X156655568Y-122360123D01*
X156647553Y-122347688D01*
X156639819Y-122334987D01*
X156632367Y-122322021D01*
X156625195Y-122308790D01*
X156618305Y-122295293D01*
X156611696Y-122281531D01*
X156605368Y-122267503D01*
X156599322Y-122253210D01*
X156593557Y-122238651D01*
X156588073Y-122223827D01*
X156582870Y-122208738D01*
X156577948Y-122193383D01*
X156573308Y-122177762D01*
X156568949Y-122161876D01*
X156564871Y-122145725D01*
X156561074Y-122129308D01*
X156557559Y-122112626D01*
X156554325Y-122095678D01*
X156551372Y-122078464D01*
X156548700Y-122060986D01*
X156546310Y-122043241D01*
X156544200Y-122025232D01*
X156542372Y-122006957D01*
X156540826Y-121988416D01*
X156539560Y-121969610D01*
X156538576Y-121950538D01*
X156537873Y-121931201D01*
X156537451Y-121911599D01*
X156537310Y-121891731D01*
X156537310Y-121891731D01*
G37*
G36*
X157922239Y-122594521D02*
X157922239Y-120658382D01*
X158261236Y-120658382D01*
X158261236Y-121702943D01*
X158735281Y-121186175D01*
X159184522Y-121186175D01*
X158571295Y-121813179D01*
X159249289Y-122594521D01*
X158820719Y-122594521D01*
X158354943Y-122039183D01*
X158261236Y-122134254D01*
X158261236Y-122594521D01*
X157922239Y-122594521D01*
X157922239Y-122594521D01*
G37*
G36*
X165678753Y-111739545D02*
X165185721Y-111510209D01*
X165187266Y-111498064D01*
X165188664Y-111486152D01*
X165189915Y-111474472D01*
X165191019Y-111463025D01*
X165191976Y-111451811D01*
X165192785Y-111440829D01*
X165193448Y-111430081D01*
X165193963Y-111419565D01*
X165194331Y-111409281D01*
X165194551Y-111399231D01*
X165194625Y-111389413D01*
X165194414Y-111377240D01*
X165193783Y-111365415D01*
X165192730Y-111353937D01*
X165191256Y-111342808D01*
X165189360Y-111332026D01*
X165187044Y-111321592D01*
X165184307Y-111311506D01*
X165181148Y-111301768D01*
X165177568Y-111292378D01*
X165173567Y-111283336D01*
X165169145Y-111274641D01*
X165164301Y-111266295D01*
X165159037Y-111258296D01*
X165153351Y-111250646D01*
X165147244Y-111243343D01*
X165140716Y-111236388D01*
X165133767Y-111229781D01*
X165127962Y-111224845D01*
X165121770Y-111220138D01*
X165115192Y-111215661D01*
X165108227Y-111211414D01*
X165100877Y-111207396D01*
X165093140Y-111203607D01*
X165085017Y-111200048D01*
X165076507Y-111196719D01*
X165067611Y-111193620D01*
X165058329Y-111190750D01*
X165048661Y-111188109D01*
X165038607Y-111185699D01*
X165028166Y-111183517D01*
X165017339Y-111181566D01*
X165006125Y-111179844D01*
X164994526Y-111178352D01*
X164982540Y-111177089D01*
X164970167Y-111176056D01*
X164957409Y-111175252D01*
X164944264Y-111174678D01*
X164930733Y-111174334D01*
X164916816Y-111174219D01*
X164902566Y-111174304D01*
X164888680Y-111174561D01*
X164875159Y-111174990D01*
X164862003Y-111175589D01*
X164849211Y-111176360D01*
X164836783Y-111177302D01*
X164824720Y-111178415D01*
X164813021Y-111179700D01*
X164801687Y-111181156D01*
X164790717Y-111182783D01*
X164780112Y-111184582D01*
X164769871Y-111186551D01*
X164759995Y-111188693D01*
X164750483Y-111191005D01*
X164741336Y-111193489D01*
X164732553Y-111196143D01*
X164724135Y-111198970D01*
X164716081Y-111201967D01*
X164708391Y-111205136D01*
X164701066Y-111208476D01*
X164694106Y-111211988D01*
X164687510Y-111215670D01*
X164679453Y-111220760D01*
X164671884Y-111226278D01*
X164664803Y-111232223D01*
X164658210Y-111238595D01*
X164652106Y-111245394D01*
X164646491Y-111252620D01*
X164641363Y-111260274D01*
X164636724Y-111268355D01*
X164632573Y-111276863D01*
X164628911Y-111285799D01*
X164625737Y-111295161D01*
X164623051Y-111304951D01*
X164620854Y-111315168D01*
X164619144Y-111325813D01*
X164617924Y-111336884D01*
X164617191Y-111348383D01*
X164616947Y-111360309D01*
X164617130Y-111374113D01*
X164617681Y-111387304D01*
X164618598Y-111399882D01*
X164619881Y-111411845D01*
X164621532Y-111423196D01*
X164623549Y-111433932D01*
X164625933Y-111444055D01*
X164628684Y-111453565D01*
X164631802Y-111462461D01*
X164635287Y-111470744D01*
X164639138Y-111478413D01*
X164643356Y-111485468D01*
X164647941Y-111491911D01*
X164652893Y-111497739D01*
X164658212Y-111502954D01*
X164663897Y-111507555D01*
X164669949Y-111511543D01*
X164676368Y-111514918D01*
X164683154Y-111517679D01*
X164690307Y-111519826D01*
X164697826Y-111521360D01*
X164705712Y-111522280D01*
X164713965Y-111522587D01*
X165184040Y-111522587D01*
X165184028Y-111522587D01*
X165185721Y-111510209D01*
X165678753Y-111739545D01*
X164734195Y-111739545D01*
X164723448Y-111739370D01*
X164712835Y-111738845D01*
X164702355Y-111737970D01*
X164692009Y-111736744D01*
X164681795Y-111735169D01*
X164671716Y-111733243D01*
X164661769Y-111730967D01*
X164651956Y-111728342D01*
X164642276Y-111725366D01*
X164632730Y-111722040D01*
X164623316Y-111718364D01*
X164614037Y-111714337D01*
X164604890Y-111709961D01*
X164595877Y-111705234D01*
X164586997Y-111700158D01*
X164578251Y-111694731D01*
X164569638Y-111688954D01*
X164561158Y-111682827D01*
X164552812Y-111676350D01*
X164544599Y-111669523D01*
X164536519Y-111662346D01*
X164528573Y-111654819D01*
X164520760Y-111646941D01*
X164514662Y-111640375D01*
X164508779Y-111633572D01*
X164503109Y-111626533D01*
X164497654Y-111619256D01*
X164492412Y-111611742D01*
X164487385Y-111603991D01*
X164482571Y-111596003D01*
X164477972Y-111587778D01*
X164473586Y-111579317D01*
X164469414Y-111570618D01*
X164465456Y-111561682D01*
X164461712Y-111552509D01*
X164458182Y-111543099D01*
X164454866Y-111533452D01*
X164451764Y-111523568D01*
X164448876Y-111513448D01*
X164446201Y-111503090D01*
X164443741Y-111492495D01*
X164441495Y-111481663D01*
X164439462Y-111470594D01*
X164437644Y-111459288D01*
X164436039Y-111447745D01*
X164434649Y-111435965D01*
X164433472Y-111423949D01*
X164432509Y-111411695D01*
X164431760Y-111399204D01*
X164431226Y-111386476D01*
X164430905Y-111373511D01*
X164430798Y-111360309D01*
X164430909Y-111349078D01*
X164431242Y-111337875D01*
X164431797Y-111326699D01*
X164432574Y-111315550D01*
X164433573Y-111304430D01*
X164434794Y-111293336D01*
X164436237Y-111282271D01*
X164437902Y-111271233D01*
X164439551Y-111262087D01*
X164441657Y-111252641D01*
X164444220Y-111242896D01*
X164447239Y-111232850D01*
X164450714Y-111222505D01*
X164454647Y-111211860D01*
X164459035Y-111200915D01*
X164463881Y-111189670D01*
X164469183Y-111178126D01*
X164474942Y-111166281D01*
X164480063Y-111156261D01*
X164485430Y-111146487D01*
X164491041Y-111136957D01*
X164496897Y-111127672D01*
X164502998Y-111118632D01*
X164509344Y-111109837D01*
X164515935Y-111101287D01*
X164522770Y-111092982D01*
X164529851Y-111084922D01*
X164537176Y-111077107D01*
X164544746Y-111069537D01*
X164552561Y-111062212D01*
X164559111Y-111056501D01*
X164566060Y-111050892D01*
X164573410Y-111045384D01*
X164581159Y-111039979D01*
X164589308Y-111034676D01*
X164597856Y-111029474D01*
X164606805Y-111024374D01*
X164616153Y-111019377D01*
X164625901Y-111014481D01*
X164636049Y-111009687D01*
X164646596Y-111004995D01*
X164657544Y-111000405D01*
X164668891Y-110995917D01*
X164680638Y-110991531D01*
X164692784Y-110987247D01*
X164702029Y-110984151D01*
X164711419Y-110981214D01*
X164720955Y-110978436D01*
X164730637Y-110975817D01*
X164740464Y-110973356D01*
X164750437Y-110971054D01*
X164760555Y-110968911D01*
X164770819Y-110966927D01*
X164781228Y-110965101D01*
X164791783Y-110963434D01*
X164802484Y-110961926D01*
X164813330Y-110960577D01*
X164824322Y-110959386D01*
X164835459Y-110958354D01*
X164846742Y-110957481D01*
X164858171Y-110956767D01*
X164869745Y-110956211D01*
X164881464Y-110955814D01*
X164893330Y-110955576D01*
X164905340Y-110955497D01*
X164918221Y-110955590D01*
X164930925Y-110955872D01*
X164943452Y-110956341D01*
X164955802Y-110956998D01*
X164967975Y-110957843D01*
X164979971Y-110958875D01*
X164991790Y-110960095D01*
X165003432Y-110961502D01*
X165014897Y-110963098D01*
X165026185Y-110964881D01*
X165037297Y-110966851D01*
X165048231Y-110969010D01*
X165058988Y-110971356D01*
X165069568Y-110973889D01*
X165079971Y-110976611D01*
X165090198Y-110979520D01*
X165100247Y-110982616D01*
X165110119Y-110985901D01*
X165119814Y-110989373D01*
X165129333Y-110993033D01*
X165138674Y-110996880D01*
X165147839Y-111000915D01*
X165156826Y-111005138D01*
X165165636Y-111009548D01*
X165174270Y-111014147D01*
X165182726Y-111018932D01*
X165191006Y-111023906D01*
X165199108Y-111029067D01*
X165207034Y-111034416D01*
X165214783Y-111039953D01*
X165222354Y-111045677D01*
X165229749Y-111051589D01*
X165236966Y-111057688D01*
X165244007Y-111063976D01*
X165251061Y-111070636D01*
X165257897Y-111077468D01*
X165264517Y-111084472D01*
X165270919Y-111091647D01*
X165277105Y-111098994D01*
X165283073Y-111106513D01*
X165288825Y-111114204D01*
X165294359Y-111122066D01*
X165299676Y-111130100D01*
X165304777Y-111138305D01*
X165309660Y-111146683D01*
X165314326Y-111155231D01*
X165318775Y-111163952D01*
X165323007Y-111172844D01*
X165327023Y-111181908D01*
X165330821Y-111191144D01*
X165334402Y-111200552D01*
X165337766Y-111210131D01*
X165340913Y-111219881D01*
X165343843Y-111229804D01*
X165346556Y-111239898D01*
X165349052Y-111250164D01*
X165351330Y-111260602D01*
X165353392Y-111271211D01*
X165355237Y-111281992D01*
X165356865Y-111292944D01*
X165358276Y-111304069D01*
X165359469Y-111315365D01*
X165360446Y-111326832D01*
X165361205Y-111338472D01*
X165361748Y-111350283D01*
X165362074Y-111362266D01*
X165362182Y-111374420D01*
X165362101Y-111385238D01*
X165361858Y-111396019D01*
X165361453Y-111406764D01*
X165360887Y-111417473D01*
X165360158Y-111428147D01*
X165359267Y-111438784D01*
X165358214Y-111449385D01*
X165357000Y-111459951D01*
X165355623Y-111470480D01*
X165354085Y-111480973D01*
X165352384Y-111491431D01*
X165350522Y-111501852D01*
X165348498Y-111512238D01*
X165346311Y-111522587D01*
X165678801Y-111522587D01*
X165678801Y-111739545D01*
X165678753Y-111739545D01*
X165678753Y-111739545D01*
G37*
G36*
X165238661Y-110662691D02*
X164744362Y-110540757D01*
X164754479Y-110543188D01*
X164765047Y-110545407D01*
X164776068Y-110547415D01*
X164787540Y-110549212D01*
X164799464Y-110550797D01*
X164811840Y-110552171D01*
X164824668Y-110553334D01*
X164837948Y-110554285D01*
X164851680Y-110555025D01*
X164865864Y-110555553D01*
X164880499Y-110555870D01*
X164895587Y-110555976D01*
X164910596Y-110555870D01*
X164925157Y-110555553D01*
X164939270Y-110555025D01*
X164952935Y-110554285D01*
X164966151Y-110553334D01*
X164978919Y-110552171D01*
X164991239Y-110550797D01*
X165003111Y-110549212D01*
X165014534Y-110547415D01*
X165025509Y-110545407D01*
X165036036Y-110543188D01*
X165046114Y-110540757D01*
X165055744Y-110538115D01*
X165064926Y-110535261D01*
X165073660Y-110532196D01*
X165081945Y-110528920D01*
X165089782Y-110525432D01*
X165097171Y-110521733D01*
X165104112Y-110517823D01*
X165110604Y-110513701D01*
X165116648Y-110509368D01*
X165122244Y-110504823D01*
X165128890Y-110498512D01*
X165135134Y-110491823D01*
X165140975Y-110484755D01*
X165146413Y-110477309D01*
X165151449Y-110469484D01*
X165156081Y-110461281D01*
X165160311Y-110452700D01*
X165164138Y-110443740D01*
X165167562Y-110434402D01*
X165170583Y-110424685D01*
X165173201Y-110414590D01*
X165175417Y-110404116D01*
X165177230Y-110393265D01*
X165178639Y-110382034D01*
X165179646Y-110370426D01*
X165180251Y-110358439D01*
X165180452Y-110346073D01*
X165180251Y-110333710D01*
X165179646Y-110321733D01*
X165178639Y-110310139D01*
X165177230Y-110298930D01*
X165175417Y-110288106D01*
X165173201Y-110277666D01*
X165170583Y-110267610D01*
X165167562Y-110257940D01*
X165164138Y-110248653D01*
X165160311Y-110239751D01*
X165156081Y-110231234D01*
X165151449Y-110223101D01*
X165146413Y-110215353D01*
X165140975Y-110207989D01*
X165135134Y-110201010D01*
X165128890Y-110194415D01*
X165122244Y-110188205D01*
X165116648Y-110183660D01*
X165110604Y-110179327D01*
X165104112Y-110175205D01*
X165097171Y-110171295D01*
X165089782Y-110167596D01*
X165081945Y-110164108D01*
X165073660Y-110160832D01*
X165064926Y-110157767D01*
X165055744Y-110154913D01*
X165046114Y-110152271D01*
X165036036Y-110149840D01*
X165025509Y-110147621D01*
X165014534Y-110145613D01*
X165003111Y-110143816D01*
X164991239Y-110142231D01*
X164978919Y-110140857D01*
X164966151Y-110139694D01*
X164952935Y-110138743D01*
X164939270Y-110138003D01*
X164925157Y-110137475D01*
X164910596Y-110137158D01*
X164895587Y-110137052D01*
X164880499Y-110137158D01*
X164865864Y-110137475D01*
X164851680Y-110138003D01*
X164837948Y-110138743D01*
X164824668Y-110139694D01*
X164811840Y-110140857D01*
X164799464Y-110142231D01*
X164787540Y-110143816D01*
X164776068Y-110145613D01*
X164765047Y-110147621D01*
X164754479Y-110149840D01*
X164744362Y-110152271D01*
X164734697Y-110154913D01*
X164725485Y-110157767D01*
X164716724Y-110160832D01*
X164708415Y-110164108D01*
X164700558Y-110167596D01*
X164693153Y-110171295D01*
X164686199Y-110175205D01*
X164679698Y-110179327D01*
X164673649Y-110183660D01*
X164668051Y-110188205D01*
X164661303Y-110194415D01*
X164654963Y-110201010D01*
X164649033Y-110207989D01*
X164643511Y-110215353D01*
X164638399Y-110223101D01*
X164633695Y-110231234D01*
X164629401Y-110239751D01*
X164625516Y-110248653D01*
X164622039Y-110257940D01*
X164618972Y-110267610D01*
X164616313Y-110277666D01*
X164614064Y-110288106D01*
X164612223Y-110298930D01*
X164610792Y-110310139D01*
X164609769Y-110321733D01*
X164609156Y-110333710D01*
X164608951Y-110346073D01*
X164609156Y-110358439D01*
X164609769Y-110370426D01*
X164610792Y-110382034D01*
X164612223Y-110393265D01*
X164614064Y-110404116D01*
X164616313Y-110414590D01*
X164618972Y-110424685D01*
X164622039Y-110434402D01*
X164625516Y-110443740D01*
X164629401Y-110452700D01*
X164633695Y-110461281D01*
X164638399Y-110469484D01*
X164643511Y-110477309D01*
X164649033Y-110484755D01*
X164654963Y-110491823D01*
X164661303Y-110498512D01*
X164668051Y-110504823D01*
X164673649Y-110509368D01*
X164679698Y-110513701D01*
X164686199Y-110517823D01*
X164693153Y-110521733D01*
X164700558Y-110525432D01*
X164708415Y-110528920D01*
X164716724Y-110532196D01*
X164725485Y-110535261D01*
X164734697Y-110538115D01*
X164744362Y-110540757D01*
X165238661Y-110662691D01*
X165231722Y-110668901D01*
X165224613Y-110674930D01*
X165217334Y-110680780D01*
X165209885Y-110686450D01*
X165202267Y-110691939D01*
X165194478Y-110697249D01*
X165186520Y-110702379D01*
X165178392Y-110707328D01*
X165170094Y-110712098D01*
X165161626Y-110716688D01*
X165152988Y-110721097D01*
X165144180Y-110725327D01*
X165135202Y-110729377D01*
X165126054Y-110733247D01*
X165116737Y-110736936D01*
X165107250Y-110740446D01*
X165097592Y-110743776D01*
X165087765Y-110746926D01*
X165077768Y-110749896D01*
X165067601Y-110752685D01*
X165057264Y-110755295D01*
X165046757Y-110757725D01*
X165036080Y-110759975D01*
X165025234Y-110762045D01*
X165014217Y-110763935D01*
X165003031Y-110765645D01*
X164991675Y-110767174D01*
X164980148Y-110768524D01*
X164968452Y-110769694D01*
X164956586Y-110770684D01*
X164944550Y-110771494D01*
X164932345Y-110772124D01*
X164919969Y-110772574D01*
X164907423Y-110772844D01*
X164894708Y-110772934D01*
X164881992Y-110772844D01*
X164869445Y-110772574D01*
X164857069Y-110772124D01*
X164844863Y-110771494D01*
X164832826Y-110770684D01*
X164820960Y-110769694D01*
X164809263Y-110768524D01*
X164797736Y-110767174D01*
X164786379Y-110765645D01*
X164775192Y-110763935D01*
X164764175Y-110762045D01*
X164753328Y-110759975D01*
X164742651Y-110757725D01*
X164732144Y-110755295D01*
X164721807Y-110752685D01*
X164711639Y-110749896D01*
X164701642Y-110746926D01*
X164691814Y-110743776D01*
X164682156Y-110740446D01*
X164672669Y-110736936D01*
X164663351Y-110733247D01*
X164654203Y-110729377D01*
X164645225Y-110725327D01*
X164636417Y-110721097D01*
X164627779Y-110716688D01*
X164619311Y-110712098D01*
X164611012Y-110707328D01*
X164602884Y-110702379D01*
X164594925Y-110697249D01*
X164587137Y-110691939D01*
X164579518Y-110686450D01*
X164572070Y-110680780D01*
X164564791Y-110674930D01*
X164557682Y-110668901D01*
X164550743Y-110662691D01*
X164543584Y-110655922D01*
X164536645Y-110648978D01*
X164529926Y-110641860D01*
X164523428Y-110634566D01*
X164517149Y-110627097D01*
X164511092Y-110619454D01*
X164505254Y-110611635D01*
X164499637Y-110603642D01*
X164494240Y-110595474D01*
X164489063Y-110587130D01*
X164484107Y-110578612D01*
X164479371Y-110569919D01*
X164474855Y-110561051D01*
X164470559Y-110552008D01*
X164466484Y-110542790D01*
X164462629Y-110533397D01*
X164458994Y-110523830D01*
X164455580Y-110514087D01*
X164452386Y-110504169D01*
X164449412Y-110494077D01*
X164446658Y-110483809D01*
X164444125Y-110473367D01*
X164441812Y-110462750D01*
X164439719Y-110451957D01*
X164437847Y-110440990D01*
X164436195Y-110429848D01*
X164434763Y-110418531D01*
X164433551Y-110407039D01*
X164432560Y-110395372D01*
X164431789Y-110383530D01*
X164431238Y-110371513D01*
X164430908Y-110359322D01*
X164430798Y-110346955D01*
X164430908Y-110334536D01*
X164431238Y-110322293D01*
X164431789Y-110310227D01*
X164432560Y-110298337D01*
X164433551Y-110286624D01*
X164434763Y-110275087D01*
X164436195Y-110263727D01*
X164437847Y-110252544D01*
X164439719Y-110241537D01*
X164441812Y-110230707D01*
X164444125Y-110220053D01*
X164446658Y-110209576D01*
X164449412Y-110199275D01*
X164452386Y-110189151D01*
X164455580Y-110179203D01*
X164458994Y-110169432D01*
X164462629Y-110159838D01*
X164466484Y-110150420D01*
X164470559Y-110141178D01*
X164474855Y-110132114D01*
X164479371Y-110123225D01*
X164484107Y-110114514D01*
X164489063Y-110105978D01*
X164494240Y-110097620D01*
X164499637Y-110089438D01*
X164505254Y-110081432D01*
X164511092Y-110073603D01*
X164517149Y-110065951D01*
X164523428Y-110058475D01*
X164529926Y-110051175D01*
X164536645Y-110044053D01*
X164543584Y-110037106D01*
X164550743Y-110030337D01*
X164557682Y-110024127D01*
X164564791Y-110018098D01*
X164572070Y-110012248D01*
X164579518Y-110006578D01*
X164587137Y-110001089D01*
X164594925Y-109995779D01*
X164602884Y-109990649D01*
X164611012Y-109985700D01*
X164619311Y-109980930D01*
X164627779Y-109976340D01*
X164636417Y-109971930D01*
X164645225Y-109967701D01*
X164654203Y-109963651D01*
X164663351Y-109959781D01*
X164672669Y-109956091D01*
X164682156Y-109952582D01*
X164691814Y-109949252D01*
X164701642Y-109946102D01*
X164711639Y-109943132D01*
X164721807Y-109940342D01*
X164732144Y-109937733D01*
X164742651Y-109935303D01*
X164753328Y-109933053D01*
X164764175Y-109930983D01*
X164775192Y-109929093D01*
X164786379Y-109927383D01*
X164797736Y-109925853D01*
X164809263Y-109924503D01*
X164820960Y-109923334D01*
X164832826Y-109922344D01*
X164844863Y-109921534D01*
X164857069Y-109920904D01*
X164869445Y-109920454D01*
X164881992Y-109920184D01*
X164894708Y-109920094D01*
X164907423Y-109920184D01*
X164919969Y-109920454D01*
X164932345Y-109920904D01*
X164944550Y-109921534D01*
X164956586Y-109922344D01*
X164968452Y-109923334D01*
X164980148Y-109924503D01*
X164991675Y-109925853D01*
X165003031Y-109927383D01*
X165014217Y-109929093D01*
X165025234Y-109930983D01*
X165036080Y-109933053D01*
X165046757Y-109935303D01*
X165057264Y-109937733D01*
X165067601Y-109940342D01*
X165077768Y-109943132D01*
X165087765Y-109946102D01*
X165097592Y-109949252D01*
X165107250Y-109952582D01*
X165116737Y-109956091D01*
X165126054Y-109959781D01*
X165135202Y-109963651D01*
X165144180Y-109967701D01*
X165152988Y-109971930D01*
X165161626Y-109976340D01*
X165170094Y-109980930D01*
X165178392Y-109985700D01*
X165186520Y-109990649D01*
X165194478Y-109995779D01*
X165202267Y-110001089D01*
X165209885Y-110006578D01*
X165217334Y-110012248D01*
X165224613Y-110018098D01*
X165231722Y-110024127D01*
X165238661Y-110030337D01*
X165245820Y-110037106D01*
X165252759Y-110044053D01*
X165259478Y-110051175D01*
X165265976Y-110058475D01*
X165272254Y-110065951D01*
X165278312Y-110073603D01*
X165284149Y-110081432D01*
X165289767Y-110089438D01*
X165295164Y-110097620D01*
X165300340Y-110105978D01*
X165305297Y-110114514D01*
X165310033Y-110123225D01*
X165314549Y-110132114D01*
X165318844Y-110141178D01*
X165322920Y-110150420D01*
X165326775Y-110159838D01*
X165330409Y-110169432D01*
X165333824Y-110179203D01*
X165337018Y-110189151D01*
X165339992Y-110199275D01*
X165342745Y-110209576D01*
X165345279Y-110220053D01*
X165347592Y-110230707D01*
X165349684Y-110241537D01*
X165351557Y-110252544D01*
X165353209Y-110263727D01*
X165354641Y-110275087D01*
X165355852Y-110286624D01*
X165356844Y-110298337D01*
X165357615Y-110310227D01*
X165358165Y-110322293D01*
X165358496Y-110334536D01*
X165358606Y-110346955D01*
X165358496Y-110359322D01*
X165358165Y-110371513D01*
X165357615Y-110383530D01*
X165356844Y-110395372D01*
X165355852Y-110407039D01*
X165354641Y-110418531D01*
X165353209Y-110429848D01*
X165351557Y-110440990D01*
X165349684Y-110451957D01*
X165347592Y-110462750D01*
X165345279Y-110473367D01*
X165342745Y-110483809D01*
X165339992Y-110494077D01*
X165337018Y-110504169D01*
X165333824Y-110514087D01*
X165330409Y-110523830D01*
X165326775Y-110533397D01*
X165322920Y-110542790D01*
X165318844Y-110552008D01*
X165314549Y-110561051D01*
X165310033Y-110569919D01*
X165305297Y-110578612D01*
X165300340Y-110587130D01*
X165295164Y-110595474D01*
X165289767Y-110603642D01*
X165284149Y-110611635D01*
X165278312Y-110619454D01*
X165272254Y-110627097D01*
X165265976Y-110634566D01*
X165259478Y-110641860D01*
X165252759Y-110648978D01*
X165245820Y-110655922D01*
X165238661Y-110662691D01*
X165238661Y-110662691D01*
G37*
G36*
X165344493Y-109687260D02*
X164100078Y-109687260D01*
X164100078Y-109470302D01*
X165344493Y-109470302D01*
X165344493Y-109687260D01*
X165344493Y-109687260D01*
G37*
G36*
X164443152Y-109274510D02*
X164443152Y-109044323D01*
X165071970Y-108842358D01*
X164443152Y-108643920D01*
X164443152Y-108414615D01*
X165366541Y-108757691D01*
X165379952Y-108762693D01*
X165393056Y-108767725D01*
X165405854Y-108772786D01*
X165418346Y-108777876D01*
X165430532Y-108782996D01*
X165442412Y-108788145D01*
X165453985Y-108793323D01*
X165465252Y-108798531D01*
X165476213Y-108803768D01*
X165486868Y-108809035D01*
X165497216Y-108814331D01*
X165507259Y-108819656D01*
X165516995Y-108825010D01*
X165526425Y-108830394D01*
X165535548Y-108835808D01*
X165544366Y-108841250D01*
X165552877Y-108846722D01*
X165561082Y-108852224D01*
X165568981Y-108857754D01*
X165576574Y-108863315D01*
X165583860Y-108868904D01*
X165590841Y-108874523D01*
X165597515Y-108880171D01*
X165603882Y-108885849D01*
X165609944Y-108891556D01*
X165615700Y-108897292D01*
X165621149Y-108903058D01*
X165626292Y-108908853D01*
X165631129Y-108914677D01*
X165638560Y-108924104D01*
X165645567Y-108933568D01*
X165652149Y-108943071D01*
X165658306Y-108952612D01*
X165664039Y-108962191D01*
X165669347Y-108971808D01*
X165674230Y-108981463D01*
X165678689Y-108991156D01*
X165682723Y-109000887D01*
X165686333Y-109010657D01*
X165689518Y-109020464D01*
X165692278Y-109030310D01*
X165694614Y-109040194D01*
X165696524Y-109050115D01*
X165698011Y-109060075D01*
X165699072Y-109070074D01*
X165699709Y-109080110D01*
X165699922Y-109090184D01*
X165699775Y-109100512D01*
X165699337Y-109110871D01*
X165698606Y-109121261D01*
X165697583Y-109131682D01*
X165696268Y-109142135D01*
X165694661Y-109152619D01*
X165692761Y-109163135D01*
X165690569Y-109173682D01*
X165688085Y-109184260D01*
X165685308Y-109194869D01*
X165682239Y-109205510D01*
X165678878Y-109216182D01*
X165675225Y-109226885D01*
X165494422Y-109226885D01*
X165498611Y-109216496D01*
X165502359Y-109206142D01*
X165505666Y-109195823D01*
X165508532Y-109185540D01*
X165510958Y-109175292D01*
X165512942Y-109165079D01*
X165514485Y-109154901D01*
X165515588Y-109144759D01*
X165516249Y-109134652D01*
X165516470Y-109124580D01*
X165516210Y-109118148D01*
X165515429Y-109111748D01*
X165514129Y-109105380D01*
X165512308Y-109099042D01*
X165509968Y-109092737D01*
X165507107Y-109086462D01*
X165503726Y-109080219D01*
X165499825Y-109074008D01*
X165495404Y-109067828D01*
X165490462Y-109061680D01*
X165485001Y-109055563D01*
X165479019Y-109049477D01*
X165472517Y-109043423D01*
X165465495Y-109037401D01*
X165457953Y-109031409D01*
X165449891Y-109025450D01*
X165441309Y-109019522D01*
X165432206Y-109013625D01*
X165422583Y-109007760D01*
X165412440Y-109001926D01*
X165401777Y-108996123D01*
X165390594Y-108990352D01*
X165378891Y-108984613D01*
X165366668Y-108978905D01*
X165353924Y-108973228D01*
X165340660Y-108967583D01*
X165326876Y-108961970D01*
X165312572Y-108956388D01*
X165297748Y-108950837D01*
X164443152Y-109274510D01*
X164443152Y-109274510D01*
G37*
G36*
X164710377Y-108289379D02*
X164698687Y-108289198D01*
X164687237Y-108288658D01*
X164676027Y-108287758D01*
X164665057Y-108286498D01*
X164654327Y-108284877D01*
X164643837Y-108282896D01*
X164633588Y-108280556D01*
X164623578Y-108277855D01*
X164613808Y-108274794D01*
X164604279Y-108271373D01*
X164594989Y-108267592D01*
X164585940Y-108263450D01*
X164577131Y-108258949D01*
X164568561Y-108254087D01*
X164560232Y-108248866D01*
X164552143Y-108243284D01*
X164544294Y-108237342D01*
X164536684Y-108231040D01*
X164529315Y-108224378D01*
X164522186Y-108217356D01*
X164515297Y-108209973D01*
X164508649Y-108202231D01*
X164502240Y-108194128D01*
X164496267Y-108186036D01*
X164490548Y-108177782D01*
X164485083Y-108169365D01*
X164479873Y-108160786D01*
X164474917Y-108152045D01*
X164470215Y-108143141D01*
X164465767Y-108134075D01*
X164461573Y-108124847D01*
X164457633Y-108115456D01*
X164453948Y-108105903D01*
X164450517Y-108096188D01*
X164447340Y-108086311D01*
X164444417Y-108076271D01*
X164441748Y-108066069D01*
X164439333Y-108055705D01*
X164437173Y-108045178D01*
X164435267Y-108034489D01*
X164433615Y-108023638D01*
X164432217Y-108012624D01*
X164431073Y-108001448D01*
X164430183Y-107990110D01*
X164429548Y-107978609D01*
X164429167Y-107966947D01*
X164429040Y-107955122D01*
X164429151Y-107943989D01*
X164429487Y-107932932D01*
X164430046Y-107921952D01*
X164430828Y-107911049D01*
X164431834Y-107900222D01*
X164433064Y-107889472D01*
X164434517Y-107878798D01*
X164436194Y-107868201D01*
X164438094Y-107857680D01*
X164440218Y-107847236D01*
X164442565Y-107836869D01*
X164445136Y-107826578D01*
X164447931Y-107816364D01*
X164450949Y-107806226D01*
X164454190Y-107796165D01*
X164457656Y-107786180D01*
X164461344Y-107776272D01*
X164465257Y-107766441D01*
X164469393Y-107756686D01*
X164473752Y-107747007D01*
X164478335Y-107737405D01*
X164483142Y-107727880D01*
X164488172Y-107718431D01*
X164493425Y-107709059D01*
X164658346Y-107709059D01*
X164654132Y-107718293D01*
X164650134Y-107727650D01*
X164646353Y-107737131D01*
X164642787Y-107746736D01*
X164639438Y-107756464D01*
X164636305Y-107766315D01*
X164633388Y-107776290D01*
X164630687Y-107786388D01*
X164628202Y-107796610D01*
X164625933Y-107806955D01*
X164623880Y-107817423D01*
X164622043Y-107828016D01*
X164620423Y-107838731D01*
X164619018Y-107849570D01*
X164617830Y-107860533D01*
X164616857Y-107871619D01*
X164616101Y-107882828D01*
X164615561Y-107894161D01*
X164615237Y-107905618D01*
X164615129Y-107917198D01*
X164615301Y-107931629D01*
X164615817Y-107945356D01*
X164616677Y-107958379D01*
X164617881Y-107970699D01*
X164619429Y-107982314D01*
X164621320Y-107993225D01*
X164623556Y-108003432D01*
X164626136Y-108012936D01*
X164629060Y-108021735D01*
X164632328Y-108029831D01*
X164635940Y-108037222D01*
X164639896Y-108043910D01*
X164644196Y-108049894D01*
X164648839Y-108055173D01*
X164653827Y-108059749D01*
X164659159Y-108063621D01*
X164664835Y-108066789D01*
X164670855Y-108069252D01*
X164677218Y-108071012D01*
X164683926Y-108072068D01*
X164690978Y-108072420D01*
X164700210Y-108071731D01*
X164708945Y-108069664D01*
X164717185Y-108066219D01*
X164724929Y-108061396D01*
X164732177Y-108055195D01*
X164738929Y-108047615D01*
X164745185Y-108038658D01*
X164750945Y-108028323D01*
X164754757Y-108020145D01*
X164758497Y-108011646D01*
X164762163Y-108002827D01*
X164765757Y-107993687D01*
X164769278Y-107984226D01*
X164772727Y-107974444D01*
X164776102Y-107964342D01*
X164779405Y-107953919D01*
X164782634Y-107943175D01*
X164785791Y-107932111D01*
X164788875Y-107920726D01*
X164791606Y-107910148D01*
X164794509Y-107899583D01*
X164797583Y-107889031D01*
X164800828Y-107878490D01*
X164804246Y-107867962D01*
X164807835Y-107857446D01*
X164811595Y-107846942D01*
X164815527Y-107836451D01*
X164819631Y-107825972D01*
X164823906Y-107815505D01*
X164828353Y-107805050D01*
X164832971Y-107794608D01*
X164837074Y-107785635D01*
X164841573Y-107776861D01*
X164846468Y-107768284D01*
X164851759Y-107759906D01*
X164857446Y-107751725D01*
X164863529Y-107743743D01*
X164870008Y-107735958D01*
X164876883Y-107728372D01*
X164884154Y-107720983D01*
X164891821Y-107713793D01*
X164899884Y-107706800D01*
X164908343Y-107700006D01*
X164917198Y-107693409D01*
X164926449Y-107687010D01*
X164934357Y-107681874D01*
X164942516Y-107677050D01*
X164950924Y-107672536D01*
X164959583Y-107668334D01*
X164968491Y-107664443D01*
X164977650Y-107660863D01*
X164987059Y-107657595D01*
X164996719Y-107654638D01*
X165006628Y-107651992D01*
X165016788Y-107649657D01*
X165027197Y-107647634D01*
X165037857Y-107645922D01*
X165048767Y-107644521D01*
X165059928Y-107643432D01*
X165071338Y-107642654D01*
X165082999Y-107642187D01*
X165094909Y-107642031D01*
X165105656Y-107642241D01*
X165116228Y-107642871D01*
X165126623Y-107643921D01*
X165136842Y-107645391D01*
X165146885Y-107647281D01*
X165156753Y-107649591D01*
X165166444Y-107652321D01*
X165175959Y-107655470D01*
X165185299Y-107659040D01*
X165194462Y-107663030D01*
X165203450Y-107667440D01*
X165212261Y-107672269D01*
X165220897Y-107677519D01*
X165229357Y-107683189D01*
X165237640Y-107689278D01*
X165245748Y-107695788D01*
X165253680Y-107702717D01*
X165261436Y-107710067D01*
X165269016Y-107717836D01*
X165276420Y-107726026D01*
X165283648Y-107734635D01*
X165289764Y-107742383D01*
X165295620Y-107750339D01*
X165301216Y-107758503D01*
X165306552Y-107766875D01*
X165311627Y-107775456D01*
X165316442Y-107784245D01*
X165320997Y-107793242D01*
X165325291Y-107802447D01*
X165329325Y-107811861D01*
X165333099Y-107821482D01*
X165336613Y-107831312D01*
X165339866Y-107841351D01*
X165342859Y-107851597D01*
X165345592Y-107862052D01*
X165348065Y-107872715D01*
X165350277Y-107883586D01*
X165352229Y-107894665D01*
X165353921Y-107905953D01*
X165355352Y-107917449D01*
X165356524Y-107929153D01*
X165357435Y-107941065D01*
X165358085Y-107953186D01*
X165358476Y-107965515D01*
X165358606Y-107978052D01*
X165358511Y-107989108D01*
X165358228Y-108000101D01*
X165357755Y-108011030D01*
X165357094Y-108021897D01*
X165356244Y-108032701D01*
X165355204Y-108043442D01*
X165353976Y-108054120D01*
X165352559Y-108064735D01*
X165350952Y-108075286D01*
X165349157Y-108085775D01*
X165347173Y-108096201D01*
X165344999Y-108106564D01*
X165342637Y-108116864D01*
X165340086Y-108127101D01*
X165337346Y-108137275D01*
X165334417Y-108147385D01*
X165331299Y-108157433D01*
X165327991Y-108167418D01*
X165324495Y-108177340D01*
X165320810Y-108187199D01*
X165316936Y-108196995D01*
X165312873Y-108206728D01*
X165308621Y-108216398D01*
X165304180Y-108226004D01*
X165299550Y-108235548D01*
X165294731Y-108245029D01*
X165289724Y-108254447D01*
X165284527Y-108263802D01*
X165091381Y-108263802D01*
X165097604Y-108254250D01*
X165103574Y-108244645D01*
X165109289Y-108234986D01*
X165114750Y-108225273D01*
X165119957Y-108215507D01*
X165124910Y-108205687D01*
X165129609Y-108195813D01*
X165134055Y-108185886D01*
X165138246Y-108175905D01*
X165142183Y-108165871D01*
X165145866Y-108155783D01*
X165149295Y-108145641D01*
X165152470Y-108135446D01*
X165155391Y-108125197D01*
X165158058Y-108114895D01*
X165160471Y-108104538D01*
X165162630Y-108094129D01*
X165164536Y-108083665D01*
X165166187Y-108073148D01*
X165167584Y-108062578D01*
X165168727Y-108051953D01*
X165169616Y-108041275D01*
X165170251Y-108030544D01*
X165170632Y-108019759D01*
X165170759Y-108008920D01*
X165170612Y-107993792D01*
X165170171Y-107979571D01*
X165169436Y-107966256D01*
X165168407Y-107953848D01*
X165167084Y-107942346D01*
X165165466Y-107931750D01*
X165163555Y-107922061D01*
X165161350Y-107913278D01*
X165158851Y-107905402D01*
X165156058Y-107898432D01*
X165152971Y-107892369D01*
X165149590Y-107887212D01*
X165143747Y-107880597D01*
X165137243Y-107874865D01*
X165130077Y-107870014D01*
X165122250Y-107866045D01*
X165113761Y-107862958D01*
X165104610Y-107860753D01*
X165094798Y-107859431D01*
X165084325Y-107858990D01*
X165075701Y-107859545D01*
X165067469Y-107861211D01*
X165059629Y-107863987D01*
X165052181Y-107867874D01*
X165045125Y-107872872D01*
X165038460Y-107878980D01*
X165032188Y-107886199D01*
X165026307Y-107894529D01*
X165020818Y-107903969D01*
X165016388Y-107912147D01*
X165012075Y-107920646D01*
X165007878Y-107929465D01*
X165003797Y-107938605D01*
X164999833Y-107948066D01*
X164995985Y-107957848D01*
X164992254Y-107967950D01*
X164988639Y-107978373D01*
X164985140Y-107989116D01*
X164981758Y-108000181D01*
X164978492Y-108011566D01*
X164975363Y-108022008D01*
X164972148Y-108032463D01*
X164968846Y-108042930D01*
X164965459Y-108053409D01*
X164961987Y-108063901D01*
X164958428Y-108074404D01*
X164954784Y-108084920D01*
X164951054Y-108095449D01*
X164947238Y-108105989D01*
X164943336Y-108116542D01*
X164939349Y-108127107D01*
X164935276Y-108137684D01*
X164931288Y-108147213D01*
X164926925Y-108156534D01*
X164922187Y-108165645D01*
X164917072Y-108174548D01*
X164911582Y-108183242D01*
X164905717Y-108191728D01*
X164899476Y-108200005D01*
X164892859Y-108208073D01*
X164885866Y-108215932D01*
X164878498Y-108223582D01*
X164870754Y-108231024D01*
X164862635Y-108238257D01*
X164854140Y-108245281D01*
X164846367Y-108250965D01*
X164838335Y-108256257D01*
X164830044Y-108261156D01*
X164821495Y-108265664D01*
X164812687Y-108269780D01*
X164803620Y-108273504D01*
X164794294Y-108276835D01*
X164784710Y-108279775D01*
X164774867Y-108282323D01*
X164764765Y-108284479D01*
X164754405Y-108286243D01*
X164743786Y-108287615D01*
X164732908Y-108288595D01*
X164721772Y-108289183D01*
X164710377Y-108289379D01*
X164710377Y-108289379D01*
G37*
G36*
X164629241Y-107505330D02*
X164443152Y-107505330D01*
X164443152Y-107353635D01*
X164175916Y-107353635D01*
X164175916Y-107136677D01*
X164443152Y-107136677D01*
X164443152Y-106923247D01*
X164629241Y-106923247D01*
X164629241Y-107136677D01*
X165073741Y-107136677D01*
X165087700Y-107136305D01*
X165100474Y-107135189D01*
X165112063Y-107133328D01*
X165122466Y-107130724D01*
X165131684Y-107127375D01*
X165139717Y-107123283D01*
X165146565Y-107118446D01*
X165152227Y-107112865D01*
X165156485Y-107106920D01*
X165160243Y-107100060D01*
X165163499Y-107092286D01*
X165166254Y-107083597D01*
X165168509Y-107073994D01*
X165170262Y-107063476D01*
X165171515Y-107052043D01*
X165172266Y-107039696D01*
X165172517Y-107026434D01*
X165172323Y-107014925D01*
X165171741Y-107003680D01*
X165170771Y-106992700D01*
X165169413Y-106981984D01*
X165167667Y-106971533D01*
X165165533Y-106961347D01*
X165163011Y-106951425D01*
X165160102Y-106941767D01*
X165156804Y-106932375D01*
X165153118Y-106923247D01*
X165332151Y-106923247D01*
X165336064Y-106933084D01*
X165339665Y-106943056D01*
X165342952Y-106953165D01*
X165345926Y-106963409D01*
X165348587Y-106973789D01*
X165350935Y-106984304D01*
X165352970Y-106994955D01*
X165354692Y-107005742D01*
X165356101Y-107016665D01*
X165357197Y-107027723D01*
X165357980Y-107038917D01*
X165358449Y-107050246D01*
X165358606Y-107061712D01*
X165358606Y-107066121D01*
X165358442Y-107078190D01*
X165357950Y-107090021D01*
X165357130Y-107101616D01*
X165355982Y-107112974D01*
X165354506Y-107124095D01*
X165352702Y-107134979D01*
X165350570Y-107145626D01*
X165348110Y-107156036D01*
X165345322Y-107166209D01*
X165342206Y-107176146D01*
X165338761Y-107185845D01*
X165334989Y-107195308D01*
X165330889Y-107204534D01*
X165326461Y-107213523D01*
X165321705Y-107222275D01*
X165316621Y-107230790D01*
X165311209Y-107239068D01*
X165305469Y-107247109D01*
X165299401Y-107254914D01*
X165293005Y-107262482D01*
X165286281Y-107269812D01*
X165279228Y-107276906D01*
X165272214Y-107283433D01*
X165264972Y-107289670D01*
X165257504Y-107295617D01*
X165249809Y-107301274D01*
X165241887Y-107306640D01*
X165233738Y-107311717D01*
X165225362Y-107316504D01*
X165216760Y-107321000D01*
X165207931Y-107325206D01*
X165198875Y-107329123D01*
X165189592Y-107332749D01*
X165180082Y-107336085D01*
X165170346Y-107339131D01*
X165160382Y-107341887D01*
X165150192Y-107344352D01*
X165139776Y-107346528D01*
X165129132Y-107348414D01*
X165118261Y-107350009D01*
X165107164Y-107351315D01*
X165095840Y-107352330D01*
X165084289Y-107353055D01*
X165072511Y-107353490D01*
X165060507Y-107353635D01*
X164629241Y-107353635D01*
X164629241Y-107505330D01*
X164629241Y-107505330D01*
X164629241Y-107505330D01*
G37*
G36*
X165049922Y-106752149D02*
X165022588Y-106537837D01*
X165032735Y-106537620D01*
X165042514Y-106536969D01*
X165051923Y-106535883D01*
X165060963Y-106534364D01*
X165069634Y-106532410D01*
X165077936Y-106530021D01*
X165085869Y-106527199D01*
X165093433Y-106523942D01*
X165100629Y-106520251D01*
X165107455Y-106516126D01*
X165113912Y-106511567D01*
X165120000Y-106506573D01*
X165125720Y-106501146D01*
X165131070Y-106495284D01*
X165136051Y-106488987D01*
X165140664Y-106482257D01*
X165144907Y-106475092D01*
X165148781Y-106467493D01*
X165152287Y-106459460D01*
X165155423Y-106450993D01*
X165158190Y-106442091D01*
X165160589Y-106432755D01*
X165162618Y-106422985D01*
X165164279Y-106412781D01*
X165165570Y-106402143D01*
X165166493Y-106391070D01*
X165167046Y-106379563D01*
X165167231Y-106367622D01*
X165167231Y-106365858D01*
X165167043Y-106354060D01*
X165166480Y-106342707D01*
X165165543Y-106331800D01*
X165164230Y-106321337D01*
X165162542Y-106311320D01*
X165160480Y-106301748D01*
X165158042Y-106292621D01*
X165155229Y-106283940D01*
X165152041Y-106275704D01*
X165148478Y-106267913D01*
X165144540Y-106260567D01*
X165140227Y-106253666D01*
X165135539Y-106247210D01*
X165130475Y-106241200D01*
X165125037Y-106235635D01*
X165119224Y-106230515D01*
X165113035Y-106225840D01*
X165106472Y-106221611D01*
X165099533Y-106217827D01*
X165092220Y-106214488D01*
X165084531Y-106211594D01*
X165076468Y-106209145D01*
X165068029Y-106207142D01*
X165059215Y-106205584D01*
X165050026Y-106204471D01*
X165040463Y-106203803D01*
X165030524Y-106203580D01*
X164916756Y-106203580D01*
X164915057Y-106216068D01*
X164913494Y-106228250D01*
X164912067Y-106240126D01*
X164910775Y-106251695D01*
X164909619Y-106262958D01*
X164908598Y-106273915D01*
X164907712Y-106284566D01*
X164906962Y-106294910D01*
X164906347Y-106304949D01*
X164905868Y-106314681D01*
X164905525Y-106324106D01*
X164905316Y-106333226D01*
X164905456Y-106347035D01*
X164905874Y-106360362D01*
X164906572Y-106373206D01*
X164907548Y-106385568D01*
X164908803Y-106397447D01*
X164910337Y-106408845D01*
X164912150Y-106419759D01*
X164914243Y-106430192D01*
X164916614Y-106440142D01*
X164919264Y-106449609D01*
X164922192Y-106458594D01*
X164925400Y-106467097D01*
X164928887Y-106475117D01*
X164932653Y-106482655D01*
X164936698Y-106489711D01*
X164941021Y-106496284D01*
X164945624Y-106502375D01*
X164950505Y-106507983D01*
X164955666Y-106513109D01*
X164961105Y-106517753D01*
X164966824Y-106521914D01*
X164972821Y-106525593D01*
X164979097Y-106528789D01*
X164985652Y-106531503D01*
X164992486Y-106533735D01*
X164999599Y-106535484D01*
X165006992Y-106536751D01*
X165014662Y-106537535D01*
X165022612Y-106537837D01*
X165022588Y-106537837D01*
X165049922Y-106752149D01*
X165038953Y-106751938D01*
X165027913Y-106751303D01*
X165016801Y-106750244D01*
X165005618Y-106748763D01*
X164994363Y-106746858D01*
X164985760Y-106745004D01*
X164976580Y-106742466D01*
X164966824Y-106739244D01*
X164956493Y-106735339D01*
X164945585Y-106730749D01*
X164934102Y-106725475D01*
X164922042Y-106719518D01*
X164912569Y-106714226D01*
X164903357Y-106708543D01*
X164894407Y-106702467D01*
X164885718Y-106695999D01*
X164877290Y-106689140D01*
X164869124Y-106681888D01*
X164861219Y-106674245D01*
X164853575Y-106666209D01*
X164846193Y-106657782D01*
X164840821Y-106651057D01*
X164835585Y-106643818D01*
X164830483Y-106636064D01*
X164825516Y-106627796D01*
X164820684Y-106619013D01*
X164815987Y-106609716D01*
X164811424Y-106599904D01*
X164806996Y-106589578D01*
X164802703Y-106578737D01*
X164798545Y-106567382D01*
X164794522Y-106555513D01*
X164790633Y-106543129D01*
X164787915Y-106534111D01*
X164785361Y-106524904D01*
X164782972Y-106515508D01*
X164780748Y-106505923D01*
X164778689Y-106496148D01*
X164776794Y-106486184D01*
X164775065Y-106476031D01*
X164773500Y-106465689D01*
X164772099Y-106455157D01*
X164770864Y-106444437D01*
X164769793Y-106433527D01*
X164768887Y-106422428D01*
X164768145Y-106411139D01*
X164767569Y-106399662D01*
X164767157Y-106387995D01*
X164766910Y-106376139D01*
X164766827Y-106364094D01*
X164766882Y-106354169D01*
X164767047Y-106344151D01*
X164767321Y-106334038D01*
X164767705Y-106323831D01*
X164768199Y-106313530D01*
X164768802Y-106303134D01*
X164769515Y-106292645D01*
X164770338Y-106282062D01*
X164771271Y-106271384D01*
X164772313Y-106260613D01*
X164773465Y-106249747D01*
X164774726Y-106238788D01*
X164776098Y-106227734D01*
X164777579Y-106216586D01*
X164779170Y-106205344D01*
X164769010Y-106205520D01*
X164759162Y-106206047D01*
X164749628Y-106206926D01*
X164740406Y-106208156D01*
X164731496Y-106209738D01*
X164722899Y-106211671D01*
X164714615Y-106213956D01*
X164706643Y-106216592D01*
X164698984Y-106219579D01*
X164691638Y-106222918D01*
X164684604Y-106226609D01*
X164677883Y-106230651D01*
X164671474Y-106235045D01*
X164665378Y-106239790D01*
X164659595Y-106244886D01*
X164654124Y-106250334D01*
X164648966Y-106256133D01*
X164644120Y-106262284D01*
X164639588Y-106268787D01*
X164635367Y-106275641D01*
X164631460Y-106282846D01*
X164627865Y-106290403D01*
X164624582Y-106298311D01*
X164621612Y-106306571D01*
X164618955Y-106315182D01*
X164616610Y-106324145D01*
X164614578Y-106333459D01*
X164612859Y-106343125D01*
X164611452Y-106353142D01*
X164610358Y-106363511D01*
X164609577Y-106374231D01*
X164609108Y-106385303D01*
X164608951Y-106396726D01*
X164609025Y-106408798D01*
X164609245Y-106420743D01*
X164609612Y-106432561D01*
X164610126Y-106444252D01*
X164610786Y-106455817D01*
X164611593Y-106467254D01*
X164612547Y-106478564D01*
X164613648Y-106489747D01*
X164614896Y-106500803D01*
X164616290Y-106511732D01*
X164617831Y-106522534D01*
X164619519Y-106533209D01*
X164621354Y-106543757D01*
X164623335Y-106554178D01*
X164625463Y-106564472D01*
X164627738Y-106574639D01*
X164630160Y-106584679D01*
X164632728Y-106594592D01*
X164635444Y-106604378D01*
X164638306Y-106614037D01*
X164641314Y-106623569D01*
X164644470Y-106632975D01*
X164647772Y-106642253D01*
X164651221Y-106651404D01*
X164654817Y-106660428D01*
X164479313Y-106660428D01*
X164475520Y-106650822D01*
X164471876Y-106641135D01*
X164468381Y-106631367D01*
X164465034Y-106621518D01*
X164461836Y-106611588D01*
X164458787Y-106601577D01*
X164455887Y-106591486D01*
X164453135Y-106581314D01*
X164450532Y-106571060D01*
X164448078Y-106560726D01*
X164445773Y-106550311D01*
X164443616Y-106539815D01*
X164441608Y-106529238D01*
X164439749Y-106518581D01*
X164438038Y-106507842D01*
X164436476Y-106497023D01*
X164435063Y-106486122D01*
X164433799Y-106475141D01*
X164432684Y-106464079D01*
X164431717Y-106452936D01*
X164430899Y-106441712D01*
X164430230Y-106430407D01*
X164429709Y-106419021D01*
X164429337Y-106407555D01*
X164429114Y-106396007D01*
X164429040Y-106384379D01*
X164429149Y-106371604D01*
X164429479Y-106359030D01*
X164430027Y-106346658D01*
X164430796Y-106334488D01*
X164431783Y-106322520D01*
X164432991Y-106310754D01*
X164434417Y-106299190D01*
X164436064Y-106287828D01*
X164437929Y-106276667D01*
X164440015Y-106265708D01*
X164442320Y-106254952D01*
X164444844Y-106244397D01*
X164447588Y-106234044D01*
X164450551Y-106223893D01*
X164453734Y-106213943D01*
X164457136Y-106204196D01*
X164460758Y-106194650D01*
X164464599Y-106185307D01*
X164468660Y-106176165D01*
X164472940Y-106167225D01*
X164477440Y-106158487D01*
X164482159Y-106149950D01*
X164487098Y-106141616D01*
X164492256Y-106133483D01*
X164497634Y-106125553D01*
X164503232Y-106117824D01*
X164509048Y-106110297D01*
X164515085Y-106102972D01*
X164521341Y-106095849D01*
X164527816Y-106088928D01*
X164534440Y-106082221D01*
X164541261Y-106075742D01*
X164548277Y-106069490D01*
X164555490Y-106063465D01*
X164562898Y-106057668D01*
X164570502Y-106052098D01*
X164578303Y-106046755D01*
X164586299Y-106041640D01*
X164594491Y-106036752D01*
X164602880Y-106032091D01*
X164611464Y-106027658D01*
X164620244Y-106023452D01*
X164629221Y-106019473D01*
X164638393Y-106015722D01*
X164647761Y-106012198D01*
X164657325Y-106008902D01*
X164667085Y-106005833D01*
X164677042Y-106002991D01*
X164687194Y-106000376D01*
X164697542Y-105997989D01*
X164708086Y-105995830D01*
X164718826Y-105993897D01*
X164729762Y-105992192D01*
X164740894Y-105990714D01*
X164752222Y-105989464D01*
X164763746Y-105988441D01*
X164775466Y-105987645D01*
X164787382Y-105987077D01*
X164799494Y-105986736D01*
X164811802Y-105986622D01*
X165055221Y-105986622D01*
X165065969Y-105986799D01*
X165076587Y-105987329D01*
X165087075Y-105988213D01*
X165097434Y-105989450D01*
X165107662Y-105991040D01*
X165117760Y-105992984D01*
X165127728Y-105995281D01*
X165137566Y-105997932D01*
X165147274Y-106000937D01*
X165156852Y-106004294D01*
X165166300Y-106008005D01*
X165175618Y-106012070D01*
X165184806Y-106016488D01*
X165193864Y-106021260D01*
X165202792Y-106026385D01*
X165211590Y-106031863D01*
X165220258Y-106037695D01*
X165228796Y-106043880D01*
X165237204Y-106050419D01*
X165245482Y-106057311D01*
X165253629Y-106064557D01*
X165261647Y-106072156D01*
X165269535Y-106080108D01*
X165275572Y-106086614D01*
X165281397Y-106093359D01*
X165287010Y-106100344D01*
X165292412Y-106107567D01*
X165297601Y-106115029D01*
X165302579Y-106122731D01*
X165307345Y-106130672D01*
X165311899Y-106138851D01*
X165316242Y-106147270D01*
X165320372Y-106155928D01*
X165324291Y-106164825D01*
X165327998Y-106173961D01*
X165331493Y-106183337D01*
X165334776Y-106192951D01*
X165337847Y-106202804D01*
X165340707Y-106212897D01*
X165343355Y-106223229D01*
X165345791Y-106233799D01*
X165348015Y-106244609D01*
X165350027Y-106255658D01*
X165351828Y-106266946D01*
X165353416Y-106278473D01*
X165354793Y-106290240D01*
X165355958Y-106302245D01*
X165356911Y-106314489D01*
X165357653Y-106326973D01*
X165358182Y-106339696D01*
X165358500Y-106352657D01*
X165358606Y-106365858D01*
X165358506Y-106378972D01*
X165358206Y-106391854D01*
X165357706Y-106404505D01*
X165357007Y-106416925D01*
X165356107Y-106429113D01*
X165355007Y-106441070D01*
X165353708Y-106452796D01*
X165352209Y-106464291D01*
X165350509Y-106475554D01*
X165348610Y-106486587D01*
X165346511Y-106497388D01*
X165344212Y-106507957D01*
X165341713Y-106518295D01*
X165339014Y-106528403D01*
X165336115Y-106538278D01*
X165333017Y-106547923D01*
X165329718Y-106557336D01*
X165326220Y-106566518D01*
X165322521Y-106575469D01*
X165318623Y-106584188D01*
X165314524Y-106592677D01*
X165310226Y-106600934D01*
X165305728Y-106608959D01*
X165301030Y-106616754D01*
X165296132Y-106624317D01*
X165291034Y-106631649D01*
X165285737Y-106638749D01*
X165280239Y-106645619D01*
X165274541Y-106652257D01*
X165268644Y-106658664D01*
X165260749Y-106666616D01*
X165252707Y-106674215D01*
X165244518Y-106681461D01*
X165236183Y-106688353D01*
X165227701Y-106694892D01*
X165219072Y-106701077D01*
X165210296Y-106706909D01*
X165201373Y-106712387D01*
X165192304Y-106717512D01*
X165183088Y-106722284D01*
X165173725Y-106726702D01*
X165164215Y-106730766D01*
X165154559Y-106734478D01*
X165144756Y-106737835D01*
X165134806Y-106740840D01*
X165124709Y-106743490D01*
X165114466Y-106745788D01*
X165104075Y-106747732D01*
X165093538Y-106749322D01*
X165082855Y-106750559D01*
X165072024Y-106751443D01*
X165061047Y-106751973D01*
X165049922Y-106752150D01*
X165049922Y-106752149D01*
X165049922Y-106752149D01*
G37*
G36*
X164894708Y-105796121D02*
X164881893Y-105796031D01*
X164869250Y-105795761D01*
X164856781Y-105795311D01*
X164844484Y-105794682D01*
X164832360Y-105793872D01*
X164820408Y-105792882D01*
X164808630Y-105791712D01*
X164797024Y-105790362D01*
X164785591Y-105788832D01*
X164774331Y-105787122D01*
X164763244Y-105785232D01*
X164752329Y-105783162D01*
X164741588Y-105780912D01*
X164731019Y-105778483D01*
X164720623Y-105775873D01*
X164710399Y-105773083D01*
X164700349Y-105770113D01*
X164690471Y-105766963D01*
X164680766Y-105763634D01*
X164671234Y-105760124D01*
X164661874Y-105756434D01*
X164652688Y-105752564D01*
X164643674Y-105748514D01*
X164634833Y-105744285D01*
X164626164Y-105739875D01*
X164617669Y-105735285D01*
X164609346Y-105730516D01*
X164601196Y-105725566D01*
X164593219Y-105720436D01*
X164585415Y-105715127D01*
X164577783Y-105709637D01*
X164570324Y-105703967D01*
X164563038Y-105698118D01*
X164555925Y-105692088D01*
X164548985Y-105685878D01*
X164541826Y-105679110D01*
X164534887Y-105672166D01*
X164528168Y-105665047D01*
X164521669Y-105657753D01*
X164515391Y-105650285D01*
X164509333Y-105642641D01*
X164503496Y-105634823D01*
X164497879Y-105626829D01*
X164492482Y-105618661D01*
X164487305Y-105610318D01*
X164482349Y-105601800D01*
X164477612Y-105593107D01*
X164473097Y-105584239D01*
X164468801Y-105575196D01*
X164464726Y-105565978D01*
X164460871Y-105556585D01*
X164457236Y-105547017D01*
X164453822Y-105537274D01*
X164450628Y-105527357D01*
X164447654Y-105517264D01*
X164444900Y-105506997D01*
X164442367Y-105496554D01*
X164440054Y-105485937D01*
X164437961Y-105475145D01*
X164436089Y-105464178D01*
X164434437Y-105453035D01*
X164433005Y-105441718D01*
X164431793Y-105430226D01*
X164430802Y-105418559D01*
X164430031Y-105406718D01*
X164429480Y-105394701D01*
X164429150Y-105382509D01*
X164429040Y-105370142D01*
X164429127Y-105359126D01*
X164429389Y-105348124D01*
X164429825Y-105337138D01*
X164430436Y-105326168D01*
X164431222Y-105315212D01*
X164432182Y-105304272D01*
X164433316Y-105293347D01*
X164434626Y-105282438D01*
X164436109Y-105271544D01*
X164437768Y-105260665D01*
X164439600Y-105249801D01*
X164441608Y-105238953D01*
X164443790Y-105228120D01*
X164446146Y-105217303D01*
X164448678Y-105206500D01*
X164451383Y-105195713D01*
X164454263Y-105184942D01*
X164457318Y-105174185D01*
X164460548Y-105163444D01*
X164463952Y-105152718D01*
X164467530Y-105142008D01*
X164471283Y-105131313D01*
X164475211Y-105120633D01*
X164479313Y-105109969D01*
X164660104Y-105109969D01*
X164656086Y-105120156D01*
X164652264Y-105130391D01*
X164648638Y-105140675D01*
X164645208Y-105151006D01*
X164641974Y-105161385D01*
X164638936Y-105171813D01*
X164636094Y-105182288D01*
X164633448Y-105192811D01*
X164630998Y-105203383D01*
X164628744Y-105214002D01*
X164626686Y-105224669D01*
X164624825Y-105235385D01*
X164623159Y-105246148D01*
X164621689Y-105256959D01*
X164620415Y-105267819D01*
X164619337Y-105278726D01*
X164618455Y-105289681D01*
X164617769Y-105300685D01*
X164617279Y-105311736D01*
X164616985Y-105322835D01*
X164616887Y-105333983D01*
X164617046Y-105346897D01*
X164617522Y-105359459D01*
X164618316Y-105371669D01*
X164619428Y-105383528D01*
X164620857Y-105395035D01*
X164622604Y-105406190D01*
X164624668Y-105416993D01*
X164627050Y-105427444D01*
X164629750Y-105437544D01*
X164632767Y-105447292D01*
X164636102Y-105456688D01*
X164639755Y-105465732D01*
X164643725Y-105474424D01*
X164648013Y-105482765D01*
X164652618Y-105490754D01*
X164657541Y-105498391D01*
X164662782Y-105505676D01*
X164668340Y-105512609D01*
X164674216Y-105519191D01*
X164679570Y-105524519D01*
X164685369Y-105529599D01*
X164691612Y-105534432D01*
X164698300Y-105539016D01*
X164705433Y-105543353D01*
X164713010Y-105547442D01*
X164721032Y-105551283D01*
X164729498Y-105554877D01*
X164738409Y-105558222D01*
X164747764Y-105561320D01*
X164757564Y-105564170D01*
X164767809Y-105566772D01*
X164778498Y-105569126D01*
X164789632Y-105571233D01*
X164801210Y-105573092D01*
X164813233Y-105574702D01*
X164825701Y-105576065D01*
X164838613Y-105577181D01*
X164851970Y-105578048D01*
X164865771Y-105578667D01*
X164880017Y-105579039D01*
X164894708Y-105579163D01*
X164909245Y-105579039D01*
X164923352Y-105578667D01*
X164937028Y-105578048D01*
X164950275Y-105577181D01*
X164963092Y-105576065D01*
X164975479Y-105574702D01*
X164987436Y-105573092D01*
X164998963Y-105571233D01*
X165010060Y-105569126D01*
X165020726Y-105566772D01*
X165030963Y-105564170D01*
X165040770Y-105561320D01*
X165050147Y-105558222D01*
X165059093Y-105554877D01*
X165067610Y-105551283D01*
X165075697Y-105547442D01*
X165083354Y-105543353D01*
X165090580Y-105539016D01*
X165097377Y-105534432D01*
X165103744Y-105529599D01*
X165109681Y-105524519D01*
X165115187Y-105519191D01*
X165121063Y-105512609D01*
X165126621Y-105505676D01*
X165131862Y-105498391D01*
X165136785Y-105490754D01*
X165141391Y-105482765D01*
X165145678Y-105474424D01*
X165149649Y-105465732D01*
X165153301Y-105456688D01*
X165156636Y-105447292D01*
X165159653Y-105437544D01*
X165162353Y-105427444D01*
X165164735Y-105416993D01*
X165166800Y-105406190D01*
X165168547Y-105395035D01*
X165169976Y-105383528D01*
X165171088Y-105371669D01*
X165171882Y-105359459D01*
X165172358Y-105346897D01*
X165172517Y-105333983D01*
X165172415Y-105323315D01*
X165172109Y-105312648D01*
X165171599Y-105301981D01*
X165170885Y-105291313D01*
X165169967Y-105280646D01*
X165168845Y-105269979D01*
X165167520Y-105259311D01*
X165165990Y-105248644D01*
X165164256Y-105237977D01*
X165162318Y-105227309D01*
X165160177Y-105216642D01*
X165157831Y-105205975D01*
X165155281Y-105195307D01*
X165152528Y-105184640D01*
X165149570Y-105173973D01*
X165146409Y-105163305D01*
X165143043Y-105152638D01*
X165139474Y-105141971D01*
X165135701Y-105131303D01*
X165131723Y-105120636D01*
X165127542Y-105109969D01*
X165308333Y-105109969D01*
X165312435Y-105120633D01*
X165316362Y-105131313D01*
X165320115Y-105142008D01*
X165323694Y-105152718D01*
X165327098Y-105163444D01*
X165330327Y-105174185D01*
X165333382Y-105184942D01*
X165336262Y-105195713D01*
X165338968Y-105206500D01*
X165341499Y-105217303D01*
X165343856Y-105228120D01*
X165346038Y-105238953D01*
X165348045Y-105249801D01*
X165349878Y-105260665D01*
X165351536Y-105271544D01*
X165353020Y-105282438D01*
X165354329Y-105293347D01*
X165355464Y-105304272D01*
X165356424Y-105315212D01*
X165357209Y-105326168D01*
X165357820Y-105337138D01*
X165358257Y-105348124D01*
X165358519Y-105359126D01*
X165358606Y-105370142D01*
X165358496Y-105382509D01*
X165358165Y-105394701D01*
X165357615Y-105406718D01*
X165356844Y-105418559D01*
X165355852Y-105430226D01*
X165354641Y-105441718D01*
X165353209Y-105453035D01*
X165351557Y-105464178D01*
X165349684Y-105475145D01*
X165347592Y-105485937D01*
X165345279Y-105496554D01*
X165342745Y-105506997D01*
X165339992Y-105517264D01*
X165337018Y-105527357D01*
X165333824Y-105537274D01*
X165330409Y-105547017D01*
X165326775Y-105556585D01*
X165322920Y-105565978D01*
X165318844Y-105575196D01*
X165314549Y-105584239D01*
X165310033Y-105593107D01*
X165305297Y-105601800D01*
X165300340Y-105610318D01*
X165295164Y-105618661D01*
X165289767Y-105626829D01*
X165284149Y-105634823D01*
X165278312Y-105642641D01*
X165272254Y-105650285D01*
X165265976Y-105657753D01*
X165259478Y-105665047D01*
X165252759Y-105672166D01*
X165245820Y-105679110D01*
X165238661Y-105685878D01*
X165231722Y-105692088D01*
X165224613Y-105698118D01*
X165217334Y-105703967D01*
X165209885Y-105709637D01*
X165202267Y-105715127D01*
X165194478Y-105720436D01*
X165186520Y-105725566D01*
X165178392Y-105730516D01*
X165170094Y-105735285D01*
X165161626Y-105739875D01*
X165152988Y-105744285D01*
X165144180Y-105748514D01*
X165135202Y-105752564D01*
X165126054Y-105756434D01*
X165116737Y-105760124D01*
X165107250Y-105763634D01*
X165097592Y-105766963D01*
X165087765Y-105770113D01*
X165077768Y-105773083D01*
X165067601Y-105775873D01*
X165057264Y-105778483D01*
X165046757Y-105780912D01*
X165036080Y-105783162D01*
X165025234Y-105785232D01*
X165014217Y-105787122D01*
X165003031Y-105788832D01*
X164991675Y-105790362D01*
X164980148Y-105791712D01*
X164968452Y-105792882D01*
X164956586Y-105793872D01*
X164944550Y-105794682D01*
X164932345Y-105795311D01*
X164919969Y-105795761D01*
X164907423Y-105796031D01*
X164894708Y-105796121D01*
X164894708Y-105796121D01*
G37*
G36*
X165344493Y-104909767D02*
X164105365Y-104909767D01*
X164105365Y-104692809D01*
X164773884Y-104692809D01*
X164443152Y-104389420D01*
X164443152Y-104101906D01*
X164844435Y-104494371D01*
X165344493Y-104060455D01*
X165344493Y-104334740D01*
X164989077Y-104632837D01*
X165049922Y-104692809D01*
X165344493Y-104692809D01*
X165344493Y-104909767D01*
X165344493Y-104909767D01*
G37*
D14*
X163916667Y-118778571D02*
X163583333Y-118778571D01*
X163583333Y-119302381D02*
X163583333Y-118302381D01*
X164059524Y-118302381D01*
X164345238Y-118302381D02*
X164964286Y-118302381D01*
X164630952Y-118683333D01*
X164773810Y-118683333D01*
X164869048Y-118730952D01*
X164916667Y-118778571D01*
X164964286Y-118873810D01*
X164964286Y-119111905D01*
X164916667Y-119207143D01*
X164869048Y-119254762D01*
X164773810Y-119302381D01*
X164488095Y-119302381D01*
X164392857Y-119254762D01*
X164345238Y-119207143D01*
X135066667Y-93828571D02*
X134733333Y-93828571D01*
X134733333Y-94352381D02*
X134733333Y-93352381D01*
X135209524Y-93352381D01*
X135542857Y-93447619D02*
X135590476Y-93400000D01*
X135685714Y-93352381D01*
X135923810Y-93352381D01*
X136019048Y-93400000D01*
X136066667Y-93447619D01*
X136114286Y-93542857D01*
X136114286Y-93638095D01*
X136066667Y-93780952D01*
X135495238Y-94352381D01*
X136114286Y-94352381D01*
X142711905Y-99302381D02*
X142711905Y-98302381D01*
X143092858Y-98302381D01*
X143188096Y-98350000D01*
X143235715Y-98397619D01*
X143283334Y-98492857D01*
X143283334Y-98635714D01*
X143235715Y-98730952D01*
X143188096Y-98778571D01*
X143092858Y-98826190D01*
X142711905Y-98826190D01*
X143664286Y-98397619D02*
X143711905Y-98350000D01*
X143807143Y-98302381D01*
X144045239Y-98302381D01*
X144140477Y-98350000D01*
X144188096Y-98397619D01*
X144235715Y-98492857D01*
X144235715Y-98588095D01*
X144188096Y-98730952D01*
X143616667Y-99302381D01*
X144235715Y-99302381D01*
X142511905Y-115852381D02*
X142511905Y-114852381D01*
X142892858Y-114852381D01*
X142988096Y-114900000D01*
X143035715Y-114947619D01*
X143083334Y-115042857D01*
X143083334Y-115185714D01*
X143035715Y-115280952D01*
X142988096Y-115328571D01*
X142892858Y-115376190D01*
X142511905Y-115376190D01*
X143416667Y-114852381D02*
X144035715Y-114852381D01*
X143702381Y-115233333D01*
X143845239Y-115233333D01*
X143940477Y-115280952D01*
X143988096Y-115328571D01*
X144035715Y-115423810D01*
X144035715Y-115661905D01*
X143988096Y-115757143D01*
X143940477Y-115804762D01*
X143845239Y-115852381D01*
X143559524Y-115852381D01*
X143464286Y-115804762D01*
X143416667Y-115757143D01*
X135616667Y-121728571D02*
X135283333Y-121728571D01*
X135283333Y-122252381D02*
X135283333Y-121252381D01*
X135759524Y-121252381D01*
X136664286Y-122252381D02*
X136092857Y-122252381D01*
X136378571Y-122252381D02*
X136378571Y-121252381D01*
X136283333Y-121395238D01*
X136188095Y-121490476D01*
X136092857Y-121538095D01*
M02*
