M48
INCH,TZ
T1C0.013
T2C0.013
T3C0.040
T4C0.118
%
G90
G05
T1
X53917Y-43307
X54134Y-42933
X55669Y-44744
X55689Y-39626
X58543Y-44449
X59469Y-44488
X60472Y-36909
X60735Y-45737
X60758Y-36272
X60827Y-36594
X60886Y-37362
X60984Y-45953
X61713Y-36299
X61929Y-37402
X61929Y-38228
X62638Y-38642
X62972Y-36772
X63111Y-38155
X63189Y-37579
X63279Y-37134
X63976Y-37520
X64154Y-38524
X64671Y-37540
T2
X60732Y-45402
X60732Y-39637
X60866Y-44973
X60866Y-40066
X60895Y-39351
X60993Y-44531
X61001Y-40496
X61029Y-45260
X61030Y-39780
X61118Y-44090
X61164Y-40209
X61166Y-44812
X61243Y-43650
X61283Y-38978
X61298Y-40638
X61303Y-44363
X61369Y-43211
X61404Y-41783
X61440Y-43915
X61470Y-39249
X61538Y-42212
X61538Y-42827
X61567Y-41497
X61577Y-43467
X61701Y-41926
X61728Y-39042
X61836Y-42355
X61836Y-42685
X61915Y-39312
X62305Y-38998
X62305Y-38998
X63404Y-38998
X63404Y-46042
X63794Y-39312
X63794Y-45727
X63873Y-42355
X63873Y-42685
X63981Y-39042
X63981Y-45998
X64008Y-41926
X64008Y-43114
X64142Y-41497
X64142Y-43543
X64171Y-42212
X64171Y-42827
X64239Y-39249
X64239Y-45791
X64276Y-41067
X64276Y-43972
X64305Y-41783
X64305Y-43257
X64411Y-40638
X64411Y-44401
X64426Y-38978
X64426Y-46061
X64440Y-41354
X64440Y-43686
X64545Y-40209
X64545Y-44830
X64574Y-40925
X64574Y-44115
X64679Y-39780
X64679Y-45260
X64708Y-40496
X64708Y-44544
X64814Y-39351
X64814Y-45689
X64843Y-40066
X64843Y-44973
X64977Y-39637
X64977Y-45402
T3
X51791Y-38839
X51791Y-39839
X51791Y-40839
X51791Y-41839
X51791Y-42839
X51791Y-43839
X51791Y-44839
X51791Y-45839
T4
X52264Y-36516
X52264Y-48524
X64272Y-36516
X64272Y-48524
T0
M30
