G04 #@! TF.FileFunction,Legend,Top*
%FSLAX46Y46*%
G04 Gerber Fmt 4.6, Leading zero omitted, Abs format (unit mm)*
G04 Created by KiCad (PCBNEW (2015-11-03 BZR 6296)-product) date Tuesday, November 10, 2015 'PMt' 04:38:30 PM*
%MOMM*%
G01*
G04 APERTURE LIST*
%ADD10C,0.100000*%
%ADD11C,0.250000*%
%ADD12C,0.300000*%
%ADD13C,0.200000*%
%ADD14C,0.150000*%
G04 APERTURE END LIST*
D10*
D11*
X139110000Y-123807143D02*
X138967143Y-123878571D01*
X138681429Y-123878571D01*
X138538571Y-123807143D01*
X138467143Y-123735714D01*
X138395714Y-123592857D01*
X138395714Y-123164286D01*
X138467143Y-123021429D01*
X138538571Y-122950000D01*
X138681429Y-122878571D01*
X138967143Y-122878571D01*
X139110000Y-122950000D01*
X139752857Y-123878571D02*
X139752857Y-122378571D01*
X139895714Y-123307143D02*
X140324285Y-123878571D01*
X140324285Y-122878571D02*
X139752857Y-123450000D01*
X141610000Y-123878571D02*
X141610000Y-122378571D01*
X141610000Y-123807143D02*
X141467143Y-123878571D01*
X141181429Y-123878571D01*
X141038571Y-123807143D01*
X140967143Y-123735714D01*
X140895714Y-123592857D01*
X140895714Y-123164286D01*
X140967143Y-123021429D01*
X141038571Y-122950000D01*
X141181429Y-122878571D01*
X141467143Y-122878571D01*
X141610000Y-122950000D01*
X142324286Y-123735714D02*
X142395714Y-123807143D01*
X142324286Y-123878571D01*
X142252857Y-123807143D01*
X142324286Y-123735714D01*
X142324286Y-123878571D01*
X142824286Y-122878571D02*
X143395715Y-122878571D01*
X143038572Y-122378571D02*
X143038572Y-123664286D01*
X143110000Y-123807143D01*
X143252858Y-123878571D01*
X143395715Y-123878571D01*
X144467143Y-123807143D02*
X144324286Y-123878571D01*
X144038572Y-123878571D01*
X143895715Y-123807143D01*
X143824286Y-123664286D01*
X143824286Y-123092857D01*
X143895715Y-122950000D01*
X144038572Y-122878571D01*
X144324286Y-122878571D01*
X144467143Y-122950000D01*
X144538572Y-123092857D01*
X144538572Y-123235714D01*
X143824286Y-123378571D01*
X145824286Y-123807143D02*
X145681429Y-123878571D01*
X145395715Y-123878571D01*
X145252857Y-123807143D01*
X145181429Y-123735714D01*
X145110000Y-123592857D01*
X145110000Y-123164286D01*
X145181429Y-123021429D01*
X145252857Y-122950000D01*
X145395715Y-122878571D01*
X145681429Y-122878571D01*
X145824286Y-122950000D01*
X146467143Y-123878571D02*
X146467143Y-122378571D01*
X147110000Y-123878571D02*
X147110000Y-123092857D01*
X147038571Y-122950000D01*
X146895714Y-122878571D01*
X146681429Y-122878571D01*
X146538571Y-122950000D01*
X146467143Y-123021429D01*
X148895714Y-122307143D02*
X147610000Y-124235714D01*
X150038572Y-123878571D02*
X150038572Y-122378571D01*
X150038572Y-123807143D02*
X149895715Y-123878571D01*
X149610001Y-123878571D01*
X149467143Y-123807143D01*
X149395715Y-123735714D01*
X149324286Y-123592857D01*
X149324286Y-123164286D01*
X149395715Y-123021429D01*
X149467143Y-122950000D01*
X149610001Y-122878571D01*
X149895715Y-122878571D01*
X150038572Y-122950000D01*
X150681429Y-123807143D02*
X150824286Y-123878571D01*
X151110001Y-123878571D01*
X151252858Y-123807143D01*
X151324286Y-123664286D01*
X151324286Y-123592857D01*
X151252858Y-123450000D01*
X151110001Y-123378571D01*
X150895715Y-123378571D01*
X150752858Y-123307143D01*
X150681429Y-123164286D01*
X150681429Y-123092857D01*
X150752858Y-122950000D01*
X150895715Y-122878571D01*
X151110001Y-122878571D01*
X151252858Y-122950000D01*
X151967144Y-123878571D02*
X151967144Y-122378571D01*
X151967144Y-122950000D02*
X152110001Y-122878571D01*
X152395715Y-122878571D01*
X152538572Y-122950000D01*
X152610001Y-123021429D01*
X152681430Y-123164286D01*
X152681430Y-123592857D01*
X152610001Y-123735714D01*
X152538572Y-123807143D01*
X152395715Y-123878571D01*
X152110001Y-123878571D01*
X151967144Y-123807143D01*
X154395715Y-122307143D02*
X153110001Y-124235714D01*
X154752859Y-122878571D02*
X155110002Y-123878571D01*
X155467144Y-122878571D01*
X156824287Y-123878571D02*
X155967144Y-123878571D01*
X156395716Y-123878571D02*
X156395716Y-122378571D01*
X156252859Y-122592857D01*
X156110001Y-122735714D01*
X155967144Y-122807143D01*
D12*
X143357143Y-113678571D02*
X143357143Y-112178571D01*
X143928571Y-112178571D01*
X144071429Y-112250000D01*
X144142857Y-112321429D01*
X144214286Y-112464286D01*
X144214286Y-112678571D01*
X144142857Y-112821429D01*
X144071429Y-112892857D01*
X143928571Y-112964286D01*
X143357143Y-112964286D01*
X145071429Y-113678571D02*
X144928571Y-113607143D01*
X144857143Y-113535714D01*
X144785714Y-113392857D01*
X144785714Y-112964286D01*
X144857143Y-112821429D01*
X144928571Y-112750000D01*
X145071429Y-112678571D01*
X145285714Y-112678571D01*
X145428571Y-112750000D01*
X145500000Y-112821429D01*
X145571429Y-112964286D01*
X145571429Y-113392857D01*
X145500000Y-113535714D01*
X145428571Y-113607143D01*
X145285714Y-113678571D01*
X145071429Y-113678571D01*
X146214286Y-113678571D02*
X146214286Y-112678571D01*
X146214286Y-112964286D02*
X146285714Y-112821429D01*
X146357143Y-112750000D01*
X146500000Y-112678571D01*
X146642857Y-112678571D01*
X146928571Y-112678571D02*
X147500000Y-112678571D01*
X147142857Y-112178571D02*
X147142857Y-113464286D01*
X147214285Y-113607143D01*
X147357143Y-113678571D01*
X147500000Y-113678571D01*
X149928571Y-113678571D02*
X149071428Y-113678571D01*
X149500000Y-113678571D02*
X149500000Y-112178571D01*
X149357143Y-112392857D01*
X149214285Y-112535714D01*
X149071428Y-112607143D01*
X143357143Y-103678571D02*
X143357143Y-102178571D01*
X143928571Y-102178571D01*
X144071429Y-102250000D01*
X144142857Y-102321429D01*
X144214286Y-102464286D01*
X144214286Y-102678571D01*
X144142857Y-102821429D01*
X144071429Y-102892857D01*
X143928571Y-102964286D01*
X143357143Y-102964286D01*
X145071429Y-103678571D02*
X144928571Y-103607143D01*
X144857143Y-103535714D01*
X144785714Y-103392857D01*
X144785714Y-102964286D01*
X144857143Y-102821429D01*
X144928571Y-102750000D01*
X145071429Y-102678571D01*
X145285714Y-102678571D01*
X145428571Y-102750000D01*
X145500000Y-102821429D01*
X145571429Y-102964286D01*
X145571429Y-103392857D01*
X145500000Y-103535714D01*
X145428571Y-103607143D01*
X145285714Y-103678571D01*
X145071429Y-103678571D01*
X146214286Y-103678571D02*
X146214286Y-102678571D01*
X146214286Y-102964286D02*
X146285714Y-102821429D01*
X146357143Y-102750000D01*
X146500000Y-102678571D01*
X146642857Y-102678571D01*
X146928571Y-102678571D02*
X147500000Y-102678571D01*
X147142857Y-102178571D02*
X147142857Y-103464286D01*
X147214285Y-103607143D01*
X147357143Y-103678571D01*
X147500000Y-103678571D01*
X149071428Y-102321429D02*
X149142857Y-102250000D01*
X149285714Y-102178571D01*
X149642857Y-102178571D01*
X149785714Y-102250000D01*
X149857143Y-102321429D01*
X149928571Y-102464286D01*
X149928571Y-102607143D01*
X149857143Y-102821429D01*
X149000000Y-103678571D01*
X149928571Y-103678571D01*
D13*
X142000000Y-98000000D02*
X140000000Y-98000000D01*
X142000000Y-108000000D02*
X142000000Y-98000000D01*
X142000000Y-118000000D02*
X140000000Y-118000000D01*
X142000000Y-108000000D02*
X142000000Y-118000000D01*
X140000000Y-108000000D02*
X142000000Y-108000000D01*
D12*
X136142857Y-108228571D02*
X137000000Y-108228571D01*
X136571429Y-109728571D02*
X136571429Y-108228571D01*
X137357143Y-108228571D02*
X138357143Y-109728571D01*
X138357143Y-108228571D02*
X137357143Y-109728571D01*
X137214286Y-112228571D02*
X136714286Y-111514286D01*
X136357143Y-112228571D02*
X136357143Y-110728571D01*
X136928571Y-110728571D01*
X137071429Y-110800000D01*
X137142857Y-110871429D01*
X137214286Y-111014286D01*
X137214286Y-111228571D01*
X137142857Y-111371429D01*
X137071429Y-111442857D01*
X136928571Y-111514286D01*
X136357143Y-111514286D01*
X137714286Y-110728571D02*
X138714286Y-112228571D01*
X138714286Y-110728571D02*
X137714286Y-112228571D01*
X136357143Y-114107143D02*
X137500000Y-114107143D01*
X136928571Y-114678571D02*
X136928571Y-113535714D01*
X138928572Y-113178571D02*
X138214286Y-113178571D01*
X138142857Y-113892857D01*
X138214286Y-113821429D01*
X138357143Y-113750000D01*
X138714286Y-113750000D01*
X138857143Y-113821429D01*
X138928572Y-113892857D01*
X139000000Y-114035714D01*
X139000000Y-114392857D01*
X138928572Y-114535714D01*
X138857143Y-114607143D01*
X138714286Y-114678571D01*
X138357143Y-114678571D01*
X138214286Y-114607143D01*
X138142857Y-114535714D01*
X139428571Y-113178571D02*
X139928571Y-114678571D01*
X140428571Y-113178571D01*
X137142857Y-115750000D02*
X137000000Y-115678571D01*
X136785714Y-115678571D01*
X136571429Y-115750000D01*
X136428571Y-115892857D01*
X136357143Y-116035714D01*
X136285714Y-116321429D01*
X136285714Y-116535714D01*
X136357143Y-116821429D01*
X136428571Y-116964286D01*
X136571429Y-117107143D01*
X136785714Y-117178571D01*
X136928571Y-117178571D01*
X137142857Y-117107143D01*
X137214286Y-117035714D01*
X137214286Y-116535714D01*
X136928571Y-116535714D01*
X137857143Y-117178571D02*
X137857143Y-115678571D01*
X138714286Y-117178571D01*
X138714286Y-115678571D01*
X139428572Y-117178571D02*
X139428572Y-115678571D01*
X139785715Y-115678571D01*
X140000000Y-115750000D01*
X140142858Y-115892857D01*
X140214286Y-116035714D01*
X140285715Y-116321429D01*
X140285715Y-116535714D01*
X140214286Y-116821429D01*
X140142858Y-116964286D01*
X140000000Y-117107143D01*
X139785715Y-117178571D01*
X139428572Y-117178571D01*
X137142857Y-105650000D02*
X137000000Y-105578571D01*
X136785714Y-105578571D01*
X136571429Y-105650000D01*
X136428571Y-105792857D01*
X136357143Y-105935714D01*
X136285714Y-106221429D01*
X136285714Y-106435714D01*
X136357143Y-106721429D01*
X136428571Y-106864286D01*
X136571429Y-107007143D01*
X136785714Y-107078571D01*
X136928571Y-107078571D01*
X137142857Y-107007143D01*
X137214286Y-106935714D01*
X137214286Y-106435714D01*
X136928571Y-106435714D01*
X137857143Y-107078571D02*
X137857143Y-105578571D01*
X138714286Y-107078571D01*
X138714286Y-105578571D01*
X139428572Y-107078571D02*
X139428572Y-105578571D01*
X139785715Y-105578571D01*
X140000000Y-105650000D01*
X140142858Y-105792857D01*
X140214286Y-105935714D01*
X140285715Y-106221429D01*
X140285715Y-106435714D01*
X140214286Y-106721429D01*
X140142858Y-106864286D01*
X140000000Y-107007143D01*
X139785715Y-107078571D01*
X139428572Y-107078571D01*
X136357143Y-103907143D02*
X137500000Y-103907143D01*
X136928571Y-104478571D02*
X136928571Y-103335714D01*
X138928572Y-102978571D02*
X138214286Y-102978571D01*
X138142857Y-103692857D01*
X138214286Y-103621429D01*
X138357143Y-103550000D01*
X138714286Y-103550000D01*
X138857143Y-103621429D01*
X138928572Y-103692857D01*
X139000000Y-103835714D01*
X139000000Y-104192857D01*
X138928572Y-104335714D01*
X138857143Y-104407143D01*
X138714286Y-104478571D01*
X138357143Y-104478571D01*
X138214286Y-104407143D01*
X138142857Y-104335714D01*
X139428571Y-102978571D02*
X139928571Y-104478571D01*
X140428571Y-102978571D01*
X137214286Y-101978571D02*
X136714286Y-101264286D01*
X136357143Y-101978571D02*
X136357143Y-100478571D01*
X136928571Y-100478571D01*
X137071429Y-100550000D01*
X137142857Y-100621429D01*
X137214286Y-100764286D01*
X137214286Y-100978571D01*
X137142857Y-101121429D01*
X137071429Y-101192857D01*
X136928571Y-101264286D01*
X136357143Y-101264286D01*
X137714286Y-100478571D02*
X138714286Y-101978571D01*
X138714286Y-100478571D02*
X137714286Y-101978571D01*
X136142857Y-97928571D02*
X137000000Y-97928571D01*
X136571429Y-99428571D02*
X136571429Y-97928571D01*
X137357143Y-97928571D02*
X138357143Y-99428571D01*
X138357143Y-97928571D02*
X137357143Y-99428571D01*
X132042857Y-115800000D02*
X131900000Y-115728571D01*
X131685714Y-115728571D01*
X131471429Y-115800000D01*
X131328571Y-115942857D01*
X131257143Y-116085714D01*
X131185714Y-116371429D01*
X131185714Y-116585714D01*
X131257143Y-116871429D01*
X131328571Y-117014286D01*
X131471429Y-117157143D01*
X131685714Y-117228571D01*
X131828571Y-117228571D01*
X132042857Y-117157143D01*
X132114286Y-117085714D01*
X132114286Y-116585714D01*
X131828571Y-116585714D01*
X132042857Y-105650000D02*
X131900000Y-105578571D01*
X131685714Y-105578571D01*
X131471429Y-105650000D01*
X131328571Y-105792857D01*
X131257143Y-105935714D01*
X131185714Y-106221429D01*
X131185714Y-106435714D01*
X131257143Y-106721429D01*
X131328571Y-106864286D01*
X131471429Y-107007143D01*
X131685714Y-107078571D01*
X131828571Y-107078571D01*
X132042857Y-107007143D01*
X132114286Y-106935714D01*
X132114286Y-106435714D01*
X131828571Y-106435714D01*
X132057144Y-113178571D02*
X131342858Y-113178571D01*
X131271429Y-113892857D01*
X131342858Y-113821429D01*
X131485715Y-113750000D01*
X131842858Y-113750000D01*
X131985715Y-113821429D01*
X132057144Y-113892857D01*
X132128572Y-114035714D01*
X132128572Y-114392857D01*
X132057144Y-114535714D01*
X131985715Y-114607143D01*
X131842858Y-114678571D01*
X131485715Y-114678571D01*
X131342858Y-114607143D01*
X131271429Y-114535714D01*
X132057144Y-103078571D02*
X131342858Y-103078571D01*
X131271429Y-103792857D01*
X131342858Y-103721429D01*
X131485715Y-103650000D01*
X131842858Y-103650000D01*
X131985715Y-103721429D01*
X132057144Y-103792857D01*
X132128572Y-103935714D01*
X132128572Y-104292857D01*
X132057144Y-104435714D01*
X131985715Y-104507143D01*
X131842858Y-104578571D01*
X131485715Y-104578571D01*
X131342858Y-104507143D01*
X131271429Y-104435714D01*
X132114286Y-112178571D02*
X131614286Y-111464286D01*
X131257143Y-112178571D02*
X131257143Y-110678571D01*
X131828571Y-110678571D01*
X131971429Y-110750000D01*
X132042857Y-110821429D01*
X132114286Y-110964286D01*
X132114286Y-111178571D01*
X132042857Y-111321429D01*
X131971429Y-111392857D01*
X131828571Y-111464286D01*
X131257143Y-111464286D01*
X132164286Y-102028571D02*
X131664286Y-101314286D01*
X131307143Y-102028571D02*
X131307143Y-100528571D01*
X131878571Y-100528571D01*
X132021429Y-100600000D01*
X132092857Y-100671429D01*
X132164286Y-100814286D01*
X132164286Y-101028571D01*
X132092857Y-101171429D01*
X132021429Y-101242857D01*
X131878571Y-101314286D01*
X131307143Y-101314286D01*
X131271429Y-108228571D02*
X132128572Y-108228571D01*
X131700001Y-109728571D02*
X131700001Y-108228571D01*
X131271429Y-98078571D02*
X132128572Y-98078571D01*
X131700001Y-99578571D02*
X131700001Y-98078571D01*
D14*
X159109620Y-94920560D02*
X159678580Y-94920560D01*
X159678580Y-94920560D02*
X159678580Y-94509080D01*
X164947700Y-98920560D02*
X165516660Y-98920560D01*
X165516660Y-98920560D02*
X165516660Y-98509080D01*
X159259620Y-97370560D02*
X159828580Y-97370560D01*
X159828580Y-97370560D02*
X159828580Y-96959080D01*
X135800000Y-118050000D02*
X135800000Y-116500000D01*
X134500000Y-118050000D02*
X135800000Y-118050000D01*
X130309000Y-116627000D02*
X124467000Y-116627000D01*
X124467000Y-116627000D02*
X124467000Y-116373000D01*
X124467000Y-116373000D02*
X130309000Y-116373000D01*
X130309000Y-116373000D02*
X130309000Y-116500000D01*
X130309000Y-116500000D02*
X124467000Y-116500000D01*
X132976000Y-98974000D02*
X133357000Y-98974000D01*
X132976000Y-98466000D02*
X133357000Y-98466000D01*
X132976000Y-116754000D02*
X133357000Y-116754000D01*
X132976000Y-116246000D02*
X133357000Y-116246000D01*
X132976000Y-114214000D02*
X133357000Y-114214000D01*
X132976000Y-113706000D02*
X133357000Y-113706000D01*
X132976000Y-111674000D02*
X133357000Y-111674000D01*
X132976000Y-111166000D02*
X133357000Y-111166000D01*
X132976000Y-101006000D02*
X133357000Y-101006000D01*
X132976000Y-101514000D02*
X133357000Y-101514000D01*
X132976000Y-103546000D02*
X133357000Y-103546000D01*
X132976000Y-104054000D02*
X133357000Y-104054000D01*
X132976000Y-106086000D02*
X133357000Y-106086000D01*
X132976000Y-106594000D02*
X133357000Y-106594000D01*
X132976000Y-108626000D02*
X133357000Y-108626000D01*
X132976000Y-109134000D02*
X133357000Y-109134000D01*
X132976000Y-102530000D02*
X130436000Y-102530000D01*
X132976000Y-102530000D02*
X132976000Y-99990000D01*
X132976000Y-99990000D02*
X130436000Y-99990000D01*
X130436000Y-101514000D02*
X124340000Y-101514000D01*
X124340000Y-101514000D02*
X124340000Y-101006000D01*
X124340000Y-101006000D02*
X130436000Y-101006000D01*
X130436000Y-99990000D02*
X130436000Y-102530000D01*
X130436000Y-97450000D02*
X130436000Y-99990000D01*
X124340000Y-98466000D02*
X130436000Y-98466000D01*
X124340000Y-98974000D02*
X124340000Y-98466000D01*
X130436000Y-98974000D02*
X124340000Y-98974000D01*
X132976000Y-99990000D02*
X132976000Y-97450000D01*
X132976000Y-99990000D02*
X130436000Y-99990000D01*
X132976000Y-97450000D02*
X130436000Y-97450000D01*
X132976000Y-117770000D02*
X130436000Y-117770000D01*
X132976000Y-115230000D02*
X130436000Y-115230000D01*
X132976000Y-115230000D02*
X132976000Y-112690000D01*
X132976000Y-112690000D02*
X130436000Y-112690000D01*
X130436000Y-114214000D02*
X124340000Y-114214000D01*
X124340000Y-114214000D02*
X124340000Y-113706000D01*
X124340000Y-113706000D02*
X130436000Y-113706000D01*
X130436000Y-112690000D02*
X130436000Y-115230000D01*
X130436000Y-115230000D02*
X130436000Y-117770000D01*
X124340000Y-116246000D02*
X130436000Y-116246000D01*
X124340000Y-116754000D02*
X124340000Y-116246000D01*
X130436000Y-116754000D02*
X124340000Y-116754000D01*
X132976000Y-115230000D02*
X130436000Y-115230000D01*
X132976000Y-117770000D02*
X132976000Y-115230000D01*
X132976000Y-107610000D02*
X130436000Y-107610000D01*
X132976000Y-107610000D02*
X132976000Y-105070000D01*
X132976000Y-105070000D02*
X130436000Y-105070000D01*
X130436000Y-106594000D02*
X124340000Y-106594000D01*
X124340000Y-106594000D02*
X124340000Y-106086000D01*
X124340000Y-106086000D02*
X130436000Y-106086000D01*
X130436000Y-105070000D02*
X130436000Y-107610000D01*
X130436000Y-102530000D02*
X130436000Y-105070000D01*
X124340000Y-103546000D02*
X130436000Y-103546000D01*
X124340000Y-104054000D02*
X124340000Y-103546000D01*
X130436000Y-104054000D02*
X124340000Y-104054000D01*
X132976000Y-102530000D02*
X130436000Y-102530000D01*
X132976000Y-105070000D02*
X132976000Y-102530000D01*
X132976000Y-105070000D02*
X130436000Y-105070000D01*
X132976000Y-110150000D02*
X130436000Y-110150000D01*
X132976000Y-110150000D02*
X132976000Y-107610000D01*
X132976000Y-107610000D02*
X130436000Y-107610000D01*
X130436000Y-109134000D02*
X124340000Y-109134000D01*
X124340000Y-109134000D02*
X124340000Y-108626000D01*
X124340000Y-108626000D02*
X130436000Y-108626000D01*
X130436000Y-107610000D02*
X130436000Y-110150000D01*
X130436000Y-110150000D02*
X130436000Y-112690000D01*
X124340000Y-111166000D02*
X130436000Y-111166000D01*
X124340000Y-111674000D02*
X124340000Y-111166000D01*
X130436000Y-111674000D02*
X124340000Y-111674000D01*
X132976000Y-110150000D02*
X130436000Y-110150000D01*
X132976000Y-112690000D02*
X132976000Y-110150000D01*
X132976000Y-112690000D02*
X130436000Y-112690000D01*
X133761905Y-122052381D02*
X133761905Y-121052381D01*
X134142858Y-121052381D01*
X134238096Y-121100000D01*
X134285715Y-121147619D01*
X134333334Y-121242857D01*
X134333334Y-121385714D01*
X134285715Y-121480952D01*
X134238096Y-121528571D01*
X134142858Y-121576190D01*
X133761905Y-121576190D01*
X135285715Y-122052381D02*
X134714286Y-122052381D01*
X135000000Y-122052381D02*
X135000000Y-121052381D01*
X134904762Y-121195238D01*
X134809524Y-121290476D01*
X134714286Y-121338095D01*
M02*
