G04 #@! TF.FileFunction,Legend,Top*
%FSLAX46Y46*%
G04 Gerber Fmt 4.6, Leading zero omitted, Abs format (unit mm)*
G04 Created by KiCad (PCBNEW 4.0.1-stable) date Tuesday, April 12, 2016 'PMt' 11:12:41 PM*
%MOMM*%
G01*
G04 APERTURE LIST*
%ADD10C,0.100000*%
%ADD11C,0.400000*%
%ADD12C,0.200000*%
%ADD13C,0.300000*%
%ADD14C,0.150000*%
G04 APERTURE END LIST*
D10*
D11*
X137485714Y-90969048D02*
X137604762Y-90850000D01*
X137842857Y-90730952D01*
X138438095Y-90730952D01*
X138676191Y-90850000D01*
X138795238Y-90969048D01*
X138914286Y-91207143D01*
X138914286Y-91445238D01*
X138795238Y-91802381D01*
X137366667Y-93230952D01*
X138914286Y-93230952D01*
X138614286Y-124930952D02*
X137185714Y-124930952D01*
X137900000Y-124930952D02*
X137900000Y-122430952D01*
X137661905Y-122788095D01*
X137423810Y-123026190D01*
X137185714Y-123145238D01*
D12*
X157626190Y-117784524D02*
X157685714Y-117725000D01*
X157804762Y-117665476D01*
X158102381Y-117665476D01*
X158221428Y-117725000D01*
X158280952Y-117784524D01*
X158340476Y-117903571D01*
X158340476Y-118022619D01*
X158280952Y-118201190D01*
X157566666Y-118915476D01*
X158340476Y-118915476D01*
X158876190Y-118915476D02*
X158876190Y-118082143D01*
X158876190Y-118201190D02*
X158935714Y-118141667D01*
X159054761Y-118082143D01*
X159233333Y-118082143D01*
X159352381Y-118141667D01*
X159411904Y-118260714D01*
X159411904Y-118915476D01*
X159411904Y-118260714D02*
X159471428Y-118141667D01*
X159590476Y-118082143D01*
X159769047Y-118082143D01*
X159888095Y-118141667D01*
X159947619Y-118260714D01*
X159947619Y-118915476D01*
X160542857Y-118915476D02*
X160542857Y-118082143D01*
X160542857Y-118201190D02*
X160602381Y-118141667D01*
X160721428Y-118082143D01*
X160900000Y-118082143D01*
X161019048Y-118141667D01*
X161078571Y-118260714D01*
X161078571Y-118915476D01*
X161078571Y-118260714D02*
X161138095Y-118141667D01*
X161257143Y-118082143D01*
X161435714Y-118082143D01*
X161554762Y-118141667D01*
X161614286Y-118260714D01*
X161614286Y-118915476D01*
X141210000Y-124907143D02*
X141067143Y-124978571D01*
X140781429Y-124978571D01*
X140638571Y-124907143D01*
X140567143Y-124835714D01*
X140495714Y-124692857D01*
X140495714Y-124264286D01*
X140567143Y-124121429D01*
X140638571Y-124050000D01*
X140781429Y-123978571D01*
X141067143Y-123978571D01*
X141210000Y-124050000D01*
X141852857Y-124978571D02*
X141852857Y-123478571D01*
X141995714Y-124407143D02*
X142424285Y-124978571D01*
X142424285Y-123978571D02*
X141852857Y-124550000D01*
X143710000Y-124978571D02*
X143710000Y-123478571D01*
X143710000Y-124907143D02*
X143567143Y-124978571D01*
X143281429Y-124978571D01*
X143138571Y-124907143D01*
X143067143Y-124835714D01*
X142995714Y-124692857D01*
X142995714Y-124264286D01*
X143067143Y-124121429D01*
X143138571Y-124050000D01*
X143281429Y-123978571D01*
X143567143Y-123978571D01*
X143710000Y-124050000D01*
X144424286Y-124835714D02*
X144495714Y-124907143D01*
X144424286Y-124978571D01*
X144352857Y-124907143D01*
X144424286Y-124835714D01*
X144424286Y-124978571D01*
X144924286Y-123978571D02*
X145495715Y-123978571D01*
X145138572Y-123478571D02*
X145138572Y-124764286D01*
X145210000Y-124907143D01*
X145352858Y-124978571D01*
X145495715Y-124978571D01*
X146567143Y-124907143D02*
X146424286Y-124978571D01*
X146138572Y-124978571D01*
X145995715Y-124907143D01*
X145924286Y-124764286D01*
X145924286Y-124192857D01*
X145995715Y-124050000D01*
X146138572Y-123978571D01*
X146424286Y-123978571D01*
X146567143Y-124050000D01*
X146638572Y-124192857D01*
X146638572Y-124335714D01*
X145924286Y-124478571D01*
X147924286Y-124907143D02*
X147781429Y-124978571D01*
X147495715Y-124978571D01*
X147352857Y-124907143D01*
X147281429Y-124835714D01*
X147210000Y-124692857D01*
X147210000Y-124264286D01*
X147281429Y-124121429D01*
X147352857Y-124050000D01*
X147495715Y-123978571D01*
X147781429Y-123978571D01*
X147924286Y-124050000D01*
X148567143Y-124978571D02*
X148567143Y-123478571D01*
X149210000Y-124978571D02*
X149210000Y-124192857D01*
X149138571Y-124050000D01*
X148995714Y-123978571D01*
X148781429Y-123978571D01*
X148638571Y-124050000D01*
X148567143Y-124121429D01*
X150995714Y-123407143D02*
X149710000Y-125335714D01*
X152138572Y-124978571D02*
X152138572Y-123478571D01*
X152138572Y-124907143D02*
X151995715Y-124978571D01*
X151710001Y-124978571D01*
X151567143Y-124907143D01*
X151495715Y-124835714D01*
X151424286Y-124692857D01*
X151424286Y-124264286D01*
X151495715Y-124121429D01*
X151567143Y-124050000D01*
X151710001Y-123978571D01*
X151995715Y-123978571D01*
X152138572Y-124050000D01*
X152781429Y-124907143D02*
X152924286Y-124978571D01*
X153210001Y-124978571D01*
X153352858Y-124907143D01*
X153424286Y-124764286D01*
X153424286Y-124692857D01*
X153352858Y-124550000D01*
X153210001Y-124478571D01*
X152995715Y-124478571D01*
X152852858Y-124407143D01*
X152781429Y-124264286D01*
X152781429Y-124192857D01*
X152852858Y-124050000D01*
X152995715Y-123978571D01*
X153210001Y-123978571D01*
X153352858Y-124050000D01*
X154067144Y-124978571D02*
X154067144Y-123478571D01*
X154067144Y-124050000D02*
X154210001Y-123978571D01*
X154495715Y-123978571D01*
X154638572Y-124050000D01*
X154710001Y-124121429D01*
X154781430Y-124264286D01*
X154781430Y-124692857D01*
X154710001Y-124835714D01*
X154638572Y-124907143D01*
X154495715Y-124978571D01*
X154210001Y-124978571D01*
X154067144Y-124907143D01*
X156495715Y-123407143D02*
X155210001Y-125335714D01*
X156852859Y-123978571D02*
X157210002Y-124978571D01*
X157567144Y-123978571D01*
X158067144Y-123621429D02*
X158138573Y-123550000D01*
X158281430Y-123478571D01*
X158638573Y-123478571D01*
X158781430Y-123550000D01*
X158852859Y-123621429D01*
X158924287Y-123764286D01*
X158924287Y-123907143D01*
X158852859Y-124121429D01*
X157995716Y-124978571D01*
X158924287Y-124978571D01*
D13*
X130507143Y-120378571D02*
X130507143Y-118878571D01*
X131078571Y-118878571D01*
X131221429Y-118950000D01*
X131292857Y-119021429D01*
X131364286Y-119164286D01*
X131364286Y-119378571D01*
X131292857Y-119521429D01*
X131221429Y-119592857D01*
X131078571Y-119664286D01*
X130507143Y-119664286D01*
X132221429Y-120378571D02*
X132078571Y-120307143D01*
X132007143Y-120235714D01*
X131935714Y-120092857D01*
X131935714Y-119664286D01*
X132007143Y-119521429D01*
X132078571Y-119450000D01*
X132221429Y-119378571D01*
X132435714Y-119378571D01*
X132578571Y-119450000D01*
X132650000Y-119521429D01*
X132721429Y-119664286D01*
X132721429Y-120092857D01*
X132650000Y-120235714D01*
X132578571Y-120307143D01*
X132435714Y-120378571D01*
X132221429Y-120378571D01*
X133364286Y-120378571D02*
X133364286Y-119378571D01*
X133364286Y-119664286D02*
X133435714Y-119521429D01*
X133507143Y-119450000D01*
X133650000Y-119378571D01*
X133792857Y-119378571D01*
X134078571Y-119378571D02*
X134650000Y-119378571D01*
X134292857Y-118878571D02*
X134292857Y-120164286D01*
X134364285Y-120307143D01*
X134507143Y-120378571D01*
X134650000Y-120378571D01*
X137078571Y-120378571D02*
X136221428Y-120378571D01*
X136650000Y-120378571D02*
X136650000Y-118878571D01*
X136507143Y-119092857D01*
X136364285Y-119235714D01*
X136221428Y-119307143D01*
X130557143Y-97278571D02*
X130557143Y-95778571D01*
X131128571Y-95778571D01*
X131271429Y-95850000D01*
X131342857Y-95921429D01*
X131414286Y-96064286D01*
X131414286Y-96278571D01*
X131342857Y-96421429D01*
X131271429Y-96492857D01*
X131128571Y-96564286D01*
X130557143Y-96564286D01*
X132271429Y-97278571D02*
X132128571Y-97207143D01*
X132057143Y-97135714D01*
X131985714Y-96992857D01*
X131985714Y-96564286D01*
X132057143Y-96421429D01*
X132128571Y-96350000D01*
X132271429Y-96278571D01*
X132485714Y-96278571D01*
X132628571Y-96350000D01*
X132700000Y-96421429D01*
X132771429Y-96564286D01*
X132771429Y-96992857D01*
X132700000Y-97135714D01*
X132628571Y-97207143D01*
X132485714Y-97278571D01*
X132271429Y-97278571D01*
X133414286Y-97278571D02*
X133414286Y-96278571D01*
X133414286Y-96564286D02*
X133485714Y-96421429D01*
X133557143Y-96350000D01*
X133700000Y-96278571D01*
X133842857Y-96278571D01*
X134128571Y-96278571D02*
X134700000Y-96278571D01*
X134342857Y-95778571D02*
X134342857Y-97064286D01*
X134414285Y-97207143D01*
X134557143Y-97278571D01*
X134700000Y-97278571D01*
X136271428Y-95921429D02*
X136342857Y-95850000D01*
X136485714Y-95778571D01*
X136842857Y-95778571D01*
X136985714Y-95850000D01*
X137057143Y-95921429D01*
X137128571Y-96064286D01*
X137128571Y-96207143D01*
X137057143Y-96421429D01*
X136200000Y-97278571D01*
X137128571Y-97278571D01*
D12*
X139100000Y-98000000D02*
X137100000Y-98000000D01*
X139100000Y-108000000D02*
X139100000Y-98000000D01*
X139100000Y-118000000D02*
X137100000Y-118000000D01*
X139100000Y-108000000D02*
X139100000Y-118000000D01*
X137100000Y-108000000D02*
X139100000Y-108000000D01*
D13*
X133242857Y-108228571D02*
X134100000Y-108228571D01*
X133671429Y-109728571D02*
X133671429Y-108228571D01*
X134457143Y-108228571D02*
X135457143Y-109728571D01*
X135457143Y-108228571D02*
X134457143Y-109728571D01*
X134314286Y-112228571D02*
X133814286Y-111514286D01*
X133457143Y-112228571D02*
X133457143Y-110728571D01*
X134028571Y-110728571D01*
X134171429Y-110800000D01*
X134242857Y-110871429D01*
X134314286Y-111014286D01*
X134314286Y-111228571D01*
X134242857Y-111371429D01*
X134171429Y-111442857D01*
X134028571Y-111514286D01*
X133457143Y-111514286D01*
X134814286Y-110728571D02*
X135814286Y-112228571D01*
X135814286Y-110728571D02*
X134814286Y-112228571D01*
X133457143Y-114107143D02*
X134600000Y-114107143D01*
X134028571Y-114678571D02*
X134028571Y-113535714D01*
X136028572Y-113178571D02*
X135314286Y-113178571D01*
X135242857Y-113892857D01*
X135314286Y-113821429D01*
X135457143Y-113750000D01*
X135814286Y-113750000D01*
X135957143Y-113821429D01*
X136028572Y-113892857D01*
X136100000Y-114035714D01*
X136100000Y-114392857D01*
X136028572Y-114535714D01*
X135957143Y-114607143D01*
X135814286Y-114678571D01*
X135457143Y-114678571D01*
X135314286Y-114607143D01*
X135242857Y-114535714D01*
X136528571Y-113178571D02*
X137028571Y-114678571D01*
X137528571Y-113178571D01*
X134242857Y-115750000D02*
X134100000Y-115678571D01*
X133885714Y-115678571D01*
X133671429Y-115750000D01*
X133528571Y-115892857D01*
X133457143Y-116035714D01*
X133385714Y-116321429D01*
X133385714Y-116535714D01*
X133457143Y-116821429D01*
X133528571Y-116964286D01*
X133671429Y-117107143D01*
X133885714Y-117178571D01*
X134028571Y-117178571D01*
X134242857Y-117107143D01*
X134314286Y-117035714D01*
X134314286Y-116535714D01*
X134028571Y-116535714D01*
X134957143Y-117178571D02*
X134957143Y-115678571D01*
X135814286Y-117178571D01*
X135814286Y-115678571D01*
X136528572Y-117178571D02*
X136528572Y-115678571D01*
X136885715Y-115678571D01*
X137100000Y-115750000D01*
X137242858Y-115892857D01*
X137314286Y-116035714D01*
X137385715Y-116321429D01*
X137385715Y-116535714D01*
X137314286Y-116821429D01*
X137242858Y-116964286D01*
X137100000Y-117107143D01*
X136885715Y-117178571D01*
X136528572Y-117178571D01*
X134192857Y-105500000D02*
X134050000Y-105428571D01*
X133835714Y-105428571D01*
X133621429Y-105500000D01*
X133478571Y-105642857D01*
X133407143Y-105785714D01*
X133335714Y-106071429D01*
X133335714Y-106285714D01*
X133407143Y-106571429D01*
X133478571Y-106714286D01*
X133621429Y-106857143D01*
X133835714Y-106928571D01*
X133978571Y-106928571D01*
X134192857Y-106857143D01*
X134264286Y-106785714D01*
X134264286Y-106285714D01*
X133978571Y-106285714D01*
X134907143Y-106928571D02*
X134907143Y-105428571D01*
X135764286Y-106928571D01*
X135764286Y-105428571D01*
X136478572Y-106928571D02*
X136478572Y-105428571D01*
X136835715Y-105428571D01*
X137050000Y-105500000D01*
X137192858Y-105642857D01*
X137264286Y-105785714D01*
X137335715Y-106071429D01*
X137335715Y-106285714D01*
X137264286Y-106571429D01*
X137192858Y-106714286D01*
X137050000Y-106857143D01*
X136835715Y-106928571D01*
X136478572Y-106928571D01*
X133207143Y-103807143D02*
X134350000Y-103807143D01*
X133778571Y-104378571D02*
X133778571Y-103235714D01*
X135778572Y-102878571D02*
X135064286Y-102878571D01*
X134992857Y-103592857D01*
X135064286Y-103521429D01*
X135207143Y-103450000D01*
X135564286Y-103450000D01*
X135707143Y-103521429D01*
X135778572Y-103592857D01*
X135850000Y-103735714D01*
X135850000Y-104092857D01*
X135778572Y-104235714D01*
X135707143Y-104307143D01*
X135564286Y-104378571D01*
X135207143Y-104378571D01*
X135064286Y-104307143D01*
X134992857Y-104235714D01*
X136278571Y-102878571D02*
X136778571Y-104378571D01*
X137278571Y-102878571D01*
X134264286Y-102028571D02*
X133764286Y-101314286D01*
X133407143Y-102028571D02*
X133407143Y-100528571D01*
X133978571Y-100528571D01*
X134121429Y-100600000D01*
X134192857Y-100671429D01*
X134264286Y-100814286D01*
X134264286Y-101028571D01*
X134192857Y-101171429D01*
X134121429Y-101242857D01*
X133978571Y-101314286D01*
X133407143Y-101314286D01*
X134764286Y-100528571D02*
X135764286Y-102028571D01*
X135764286Y-100528571D02*
X134764286Y-102028571D01*
X133342857Y-97928571D02*
X134200000Y-97928571D01*
X133771429Y-99428571D02*
X133771429Y-97928571D01*
X134557143Y-97928571D02*
X135557143Y-99428571D01*
X135557143Y-97928571D02*
X134557143Y-99428571D01*
D14*
X159109620Y-94920560D02*
X159678580Y-94920560D01*
X159678580Y-94920560D02*
X159678580Y-94509080D01*
X164947700Y-98920560D02*
X165516660Y-98920560D01*
X165516660Y-98920560D02*
X165516660Y-98509080D01*
X159259620Y-97370560D02*
X159828580Y-97370560D01*
X159828580Y-97370560D02*
X159828580Y-96959080D01*
X132850000Y-117980000D02*
X132850000Y-116430000D01*
X131550000Y-117980000D02*
X132850000Y-117980000D01*
X127359000Y-116557000D02*
X121517000Y-116557000D01*
X121517000Y-116557000D02*
X121517000Y-116303000D01*
X121517000Y-116303000D02*
X127359000Y-116303000D01*
X127359000Y-116303000D02*
X127359000Y-116430000D01*
X127359000Y-116430000D02*
X121517000Y-116430000D01*
X130026000Y-98904000D02*
X130407000Y-98904000D01*
X130026000Y-98396000D02*
X130407000Y-98396000D01*
X130026000Y-116684000D02*
X130407000Y-116684000D01*
X130026000Y-116176000D02*
X130407000Y-116176000D01*
X130026000Y-114144000D02*
X130407000Y-114144000D01*
X130026000Y-113636000D02*
X130407000Y-113636000D01*
X130026000Y-111604000D02*
X130407000Y-111604000D01*
X130026000Y-111096000D02*
X130407000Y-111096000D01*
X130026000Y-100936000D02*
X130407000Y-100936000D01*
X130026000Y-101444000D02*
X130407000Y-101444000D01*
X130026000Y-103476000D02*
X130407000Y-103476000D01*
X130026000Y-103984000D02*
X130407000Y-103984000D01*
X130026000Y-106016000D02*
X130407000Y-106016000D01*
X130026000Y-106524000D02*
X130407000Y-106524000D01*
X130026000Y-108556000D02*
X130407000Y-108556000D01*
X130026000Y-109064000D02*
X130407000Y-109064000D01*
X130026000Y-102460000D02*
X127486000Y-102460000D01*
X130026000Y-102460000D02*
X130026000Y-99920000D01*
X130026000Y-99920000D02*
X127486000Y-99920000D01*
X127486000Y-101444000D02*
X121390000Y-101444000D01*
X121390000Y-101444000D02*
X121390000Y-100936000D01*
X121390000Y-100936000D02*
X127486000Y-100936000D01*
X127486000Y-99920000D02*
X127486000Y-102460000D01*
X127486000Y-97380000D02*
X127486000Y-99920000D01*
X121390000Y-98396000D02*
X127486000Y-98396000D01*
X121390000Y-98904000D02*
X121390000Y-98396000D01*
X127486000Y-98904000D02*
X121390000Y-98904000D01*
X130026000Y-99920000D02*
X130026000Y-97380000D01*
X130026000Y-99920000D02*
X127486000Y-99920000D01*
X130026000Y-97380000D02*
X127486000Y-97380000D01*
X130026000Y-117700000D02*
X127486000Y-117700000D01*
X130026000Y-115160000D02*
X127486000Y-115160000D01*
X130026000Y-115160000D02*
X130026000Y-112620000D01*
X130026000Y-112620000D02*
X127486000Y-112620000D01*
X127486000Y-114144000D02*
X121390000Y-114144000D01*
X121390000Y-114144000D02*
X121390000Y-113636000D01*
X121390000Y-113636000D02*
X127486000Y-113636000D01*
X127486000Y-112620000D02*
X127486000Y-115160000D01*
X127486000Y-115160000D02*
X127486000Y-117700000D01*
X121390000Y-116176000D02*
X127486000Y-116176000D01*
X121390000Y-116684000D02*
X121390000Y-116176000D01*
X127486000Y-116684000D02*
X121390000Y-116684000D01*
X130026000Y-115160000D02*
X127486000Y-115160000D01*
X130026000Y-117700000D02*
X130026000Y-115160000D01*
X130026000Y-107540000D02*
X127486000Y-107540000D01*
X130026000Y-107540000D02*
X130026000Y-105000000D01*
X130026000Y-105000000D02*
X127486000Y-105000000D01*
X127486000Y-106524000D02*
X121390000Y-106524000D01*
X121390000Y-106524000D02*
X121390000Y-106016000D01*
X121390000Y-106016000D02*
X127486000Y-106016000D01*
X127486000Y-105000000D02*
X127486000Y-107540000D01*
X127486000Y-102460000D02*
X127486000Y-105000000D01*
X121390000Y-103476000D02*
X127486000Y-103476000D01*
X121390000Y-103984000D02*
X121390000Y-103476000D01*
X127486000Y-103984000D02*
X121390000Y-103984000D01*
X130026000Y-102460000D02*
X127486000Y-102460000D01*
X130026000Y-105000000D02*
X130026000Y-102460000D01*
X130026000Y-105000000D02*
X127486000Y-105000000D01*
X130026000Y-110080000D02*
X127486000Y-110080000D01*
X130026000Y-110080000D02*
X130026000Y-107540000D01*
X130026000Y-107540000D02*
X127486000Y-107540000D01*
X127486000Y-109064000D02*
X121390000Y-109064000D01*
X121390000Y-109064000D02*
X121390000Y-108556000D01*
X121390000Y-108556000D02*
X127486000Y-108556000D01*
X127486000Y-107540000D02*
X127486000Y-110080000D01*
X127486000Y-110080000D02*
X127486000Y-112620000D01*
X121390000Y-111096000D02*
X127486000Y-111096000D01*
X121390000Y-111604000D02*
X121390000Y-111096000D01*
X127486000Y-111604000D02*
X121390000Y-111604000D01*
X130026000Y-110080000D02*
X127486000Y-110080000D01*
X130026000Y-112620000D02*
X130026000Y-110080000D01*
X130026000Y-112620000D02*
X127486000Y-112620000D01*
D10*
G36*
X147383691Y-123130592D02*
X147383691Y-121617505D01*
X147740564Y-121433111D01*
X147729397Y-121439473D01*
X147718906Y-121446274D01*
X147709092Y-121453514D01*
X147699955Y-121461193D01*
X147691494Y-121469311D01*
X147683711Y-121477867D01*
X147676604Y-121486862D01*
X147670174Y-121496296D01*
X147664421Y-121506169D01*
X147659345Y-121516481D01*
X147654945Y-121527231D01*
X147651223Y-121538420D01*
X147648177Y-121550048D01*
X147645808Y-121562115D01*
X147644116Y-121574621D01*
X147643101Y-121587565D01*
X147642762Y-121600948D01*
X147642762Y-122328554D01*
X147642762Y-122328536D01*
X147659014Y-122334639D01*
X147675308Y-122340394D01*
X147691645Y-122345800D01*
X147708024Y-122350857D01*
X147724445Y-122355565D01*
X147740909Y-122359925D01*
X147757416Y-122363936D01*
X147773965Y-122367598D01*
X147790557Y-122370911D01*
X147807191Y-122373876D01*
X147823868Y-122376492D01*
X147840588Y-122378759D01*
X147857349Y-122380677D01*
X147874154Y-122382246D01*
X147891001Y-122383467D01*
X147907890Y-122384339D01*
X147924822Y-122384862D01*
X147941797Y-122385037D01*
X147960766Y-122384832D01*
X147979089Y-122384219D01*
X147996765Y-122383197D01*
X148013795Y-122381766D01*
X148030178Y-122379926D01*
X148045915Y-122377678D01*
X148061006Y-122375021D01*
X148075449Y-122371954D01*
X148089247Y-122368479D01*
X148104707Y-122363867D01*
X148120080Y-122358309D01*
X148135368Y-122351805D01*
X148150570Y-122344354D01*
X148165685Y-122335958D01*
X148180714Y-122326615D01*
X148195657Y-122316327D01*
X148210514Y-122305092D01*
X148221049Y-122296138D01*
X148231105Y-122286319D01*
X148240683Y-122275635D01*
X148249783Y-122264085D01*
X148258404Y-122251671D01*
X148266547Y-122238391D01*
X148274211Y-122224246D01*
X148281398Y-122209236D01*
X148288106Y-122193360D01*
X148294335Y-122176620D01*
X148300087Y-122159014D01*
X148304172Y-122145368D01*
X148307975Y-122131256D01*
X148311497Y-122116679D01*
X148314737Y-122101636D01*
X148317695Y-122086128D01*
X148320371Y-122070154D01*
X148322766Y-122053715D01*
X148324879Y-122036811D01*
X148326710Y-122019441D01*
X148328260Y-122001605D01*
X148329528Y-121983304D01*
X148330514Y-121964538D01*
X148331218Y-121945307D01*
X148331641Y-121925609D01*
X148331782Y-121905447D01*
X148331658Y-121885171D01*
X148331286Y-121865337D01*
X148330667Y-121845943D01*
X148329801Y-121826991D01*
X148328686Y-121808481D01*
X148327324Y-121790411D01*
X148325715Y-121772783D01*
X148323858Y-121755596D01*
X148321753Y-121738851D01*
X148319401Y-121722546D01*
X148316801Y-121706683D01*
X148313953Y-121691261D01*
X148310858Y-121676281D01*
X148307515Y-121661742D01*
X148303925Y-121647644D01*
X148300087Y-121633987D01*
X148294347Y-121614680D01*
X148288151Y-121596353D01*
X148281500Y-121579007D01*
X148274394Y-121562640D01*
X148266832Y-121547253D01*
X148258814Y-121532846D01*
X148250341Y-121519419D01*
X148241412Y-121506972D01*
X148232028Y-121495504D01*
X148222188Y-121485017D01*
X148211892Y-121475510D01*
X148197444Y-121463601D01*
X148183040Y-121452684D01*
X148168678Y-121442757D01*
X148154359Y-121433821D01*
X148140084Y-121425875D01*
X148125851Y-121418920D01*
X148111661Y-121412956D01*
X148097515Y-121407983D01*
X148083132Y-121403794D01*
X148068232Y-121400163D01*
X148052815Y-121397091D01*
X148036881Y-121394578D01*
X148020431Y-121392623D01*
X148003464Y-121391226D01*
X147985980Y-121390388D01*
X147967979Y-121390109D01*
X147947336Y-121390329D01*
X147927370Y-121390987D01*
X147908080Y-121392084D01*
X147889467Y-121393619D01*
X147871531Y-121395594D01*
X147854272Y-121398007D01*
X147837690Y-121400859D01*
X147821784Y-121404150D01*
X147806555Y-121407880D01*
X147792004Y-121412049D01*
X147778129Y-121416656D01*
X147764930Y-121421702D01*
X147752409Y-121427187D01*
X147740564Y-121433111D01*
X147383691Y-121617505D01*
X147383921Y-121602385D01*
X147384610Y-121587341D01*
X147385758Y-121572373D01*
X147387366Y-121557482D01*
X147389433Y-121542666D01*
X147391960Y-121527928D01*
X147394828Y-121514457D01*
X147398709Y-121500029D01*
X147403602Y-121484646D01*
X147409508Y-121468307D01*
X147416427Y-121451012D01*
X147424357Y-121432760D01*
X147433301Y-121413552D01*
X147441246Y-121398445D01*
X147449769Y-121383747D01*
X147458871Y-121369457D01*
X147468551Y-121355575D01*
X147478810Y-121342101D01*
X147489647Y-121329036D01*
X147501063Y-121316379D01*
X147513057Y-121304131D01*
X147525629Y-121292291D01*
X147535677Y-121283666D01*
X147546529Y-121275253D01*
X147558185Y-121267050D01*
X147570645Y-121259058D01*
X147583909Y-121251277D01*
X147597976Y-121243706D01*
X147612848Y-121236347D01*
X147628523Y-121229199D01*
X147645002Y-121222261D01*
X147662285Y-121215534D01*
X147680371Y-121209018D01*
X147699262Y-121202714D01*
X147713877Y-121198041D01*
X147728782Y-121193669D01*
X147743978Y-121189599D01*
X147759465Y-121185831D01*
X147775243Y-121182364D01*
X147791311Y-121179198D01*
X147807669Y-121176334D01*
X147824319Y-121173772D01*
X147841259Y-121171511D01*
X147858490Y-121169551D01*
X147876012Y-121167893D01*
X147893824Y-121166536D01*
X147911927Y-121165481D01*
X147930320Y-121164727D01*
X147949005Y-121164275D01*
X147967979Y-121164124D01*
X147985384Y-121164294D01*
X148002686Y-121164803D01*
X148019886Y-121165650D01*
X148036983Y-121166837D01*
X148053979Y-121168364D01*
X148070873Y-121170229D01*
X148087665Y-121172433D01*
X148104354Y-121174977D01*
X148120942Y-121177859D01*
X148134825Y-121180642D01*
X148148912Y-121183996D01*
X148163205Y-121187920D01*
X148177703Y-121192416D01*
X148192406Y-121197483D01*
X148207314Y-121203120D01*
X148222427Y-121209329D01*
X148237745Y-121216108D01*
X148253268Y-121223459D01*
X148268995Y-121231380D01*
X148284928Y-121239873D01*
X148299685Y-121248114D01*
X148314097Y-121256757D01*
X148328164Y-121265801D01*
X148341887Y-121275247D01*
X148355266Y-121285094D01*
X148368300Y-121295344D01*
X148380989Y-121305994D01*
X148393334Y-121317047D01*
X148405334Y-121328501D01*
X148416990Y-121340357D01*
X148428302Y-121352614D01*
X148439269Y-121365274D01*
X148447806Y-121375846D01*
X148456148Y-121386981D01*
X148464294Y-121398680D01*
X148472243Y-121410943D01*
X148479997Y-121423769D01*
X148487555Y-121437158D01*
X148494917Y-121451111D01*
X148502083Y-121465627D01*
X148509052Y-121480707D01*
X148515826Y-121496350D01*
X148522404Y-121512557D01*
X148528786Y-121529327D01*
X148534972Y-121546660D01*
X148540962Y-121564557D01*
X148546755Y-121583017D01*
X148551275Y-121597789D01*
X148555550Y-121612806D01*
X148559582Y-121628066D01*
X148563368Y-121643571D01*
X148566911Y-121659321D01*
X148570209Y-121675314D01*
X148573263Y-121691552D01*
X148576072Y-121708035D01*
X148578637Y-121724761D01*
X148580958Y-121741732D01*
X148583035Y-121758947D01*
X148584867Y-121776407D01*
X148586455Y-121794111D01*
X148587799Y-121812059D01*
X148588898Y-121830252D01*
X148589753Y-121848689D01*
X148590364Y-121867370D01*
X148590731Y-121886296D01*
X148590853Y-121905466D01*
X148590721Y-121925277D01*
X148590328Y-121944814D01*
X148589672Y-121964075D01*
X148588753Y-121983062D01*
X148587572Y-122001773D01*
X148586128Y-122020210D01*
X148584422Y-122038371D01*
X148582453Y-122056258D01*
X148580222Y-122073869D01*
X148577729Y-122091206D01*
X148574972Y-122108267D01*
X148571954Y-122125054D01*
X148568673Y-122141565D01*
X148565129Y-122157802D01*
X148561323Y-122173763D01*
X148557255Y-122189449D01*
X148552924Y-122204861D01*
X148548330Y-122219997D01*
X148543474Y-122234859D01*
X148538356Y-122249445D01*
X148532975Y-122263756D01*
X148525740Y-122281892D01*
X148518161Y-122299435D01*
X148510237Y-122316386D01*
X148501969Y-122332745D01*
X148493357Y-122348513D01*
X148484399Y-122363688D01*
X148475098Y-122378271D01*
X148465451Y-122392261D01*
X148455460Y-122405660D01*
X148445125Y-122418467D01*
X148434445Y-122430682D01*
X148423421Y-122442304D01*
X148412052Y-122453335D01*
X148400339Y-122463773D01*
X148388281Y-122473619D01*
X148375879Y-122482874D01*
X148361487Y-122492905D01*
X148347052Y-122502529D01*
X148332576Y-122511745D01*
X148318057Y-122520554D01*
X148303497Y-122528955D01*
X148288894Y-122536948D01*
X148274248Y-122544534D01*
X148259561Y-122551713D01*
X148244832Y-122558483D01*
X148230060Y-122564847D01*
X148215246Y-122570802D01*
X148200390Y-122576350D01*
X148185492Y-122581491D01*
X148170551Y-122586223D01*
X148155674Y-122590399D01*
X148140572Y-122594265D01*
X148125245Y-122597822D01*
X148109692Y-122601069D01*
X148093915Y-122604008D01*
X148077913Y-122606637D01*
X148061686Y-122608956D01*
X148045234Y-122610967D01*
X148028557Y-122612668D01*
X148011655Y-122614060D01*
X147994528Y-122615142D01*
X147977176Y-122615915D01*
X147959599Y-122616379D01*
X147941797Y-122616534D01*
X147924533Y-122616406D01*
X147907346Y-122616024D01*
X147890235Y-122615386D01*
X147873201Y-122614493D01*
X147856244Y-122613344D01*
X147839363Y-122611941D01*
X147822558Y-122610283D01*
X147805830Y-122608369D01*
X147789179Y-122606200D01*
X147772604Y-122603776D01*
X147756106Y-122601097D01*
X147739684Y-122598162D01*
X147723339Y-122594973D01*
X147707071Y-122591528D01*
X147690879Y-122587828D01*
X147674764Y-122583873D01*
X147658725Y-122579663D01*
X147642762Y-122575198D01*
X147642762Y-123130555D01*
X147383691Y-123130555D01*
X147383691Y-123130592D01*
X147383691Y-123130592D01*
G37*
G36*
X148942253Y-122256908D02*
X149173763Y-121631277D01*
X149170092Y-121644245D01*
X149166657Y-121657654D01*
X149163460Y-121671505D01*
X149160499Y-121685797D01*
X149157776Y-121700530D01*
X149155289Y-121715705D01*
X149153039Y-121731321D01*
X149151025Y-121747379D01*
X149149249Y-121763878D01*
X149147709Y-121780818D01*
X149146407Y-121798200D01*
X149145341Y-121816024D01*
X149144512Y-121834288D01*
X149143920Y-121852994D01*
X149143565Y-121872142D01*
X149143446Y-121891731D01*
X149143565Y-121911325D01*
X149143920Y-121930489D01*
X149144512Y-121949222D01*
X149145341Y-121967524D01*
X149146407Y-121985396D01*
X149147709Y-122002836D01*
X149149249Y-122019847D01*
X149151025Y-122036426D01*
X149153039Y-122052575D01*
X149155289Y-122068293D01*
X149157776Y-122083581D01*
X149160499Y-122098437D01*
X149163460Y-122112864D01*
X149166657Y-122126859D01*
X149170092Y-122140424D01*
X149173763Y-122153558D01*
X149179776Y-122171666D01*
X149186291Y-122188909D01*
X149193306Y-122205287D01*
X149200823Y-122220799D01*
X149208840Y-122235445D01*
X149217359Y-122249226D01*
X149226379Y-122262142D01*
X149235900Y-122274192D01*
X149245922Y-122285376D01*
X149256445Y-122295695D01*
X149267470Y-122305149D01*
X149281267Y-122315762D01*
X149295098Y-122325559D01*
X149308964Y-122334540D01*
X149322863Y-122342704D01*
X149336797Y-122350052D01*
X149350764Y-122356584D01*
X149364766Y-122362300D01*
X149378802Y-122367200D01*
X149392871Y-122371283D01*
X149407281Y-122374758D01*
X149422337Y-122377824D01*
X149438040Y-122380481D01*
X149454389Y-122382730D01*
X149471385Y-122384569D01*
X149489028Y-122386000D01*
X149507316Y-122387022D01*
X149526252Y-122387636D01*
X149545833Y-122387840D01*
X149565704Y-122387636D01*
X149584895Y-122387022D01*
X149603405Y-122386000D01*
X149621234Y-122384569D01*
X149638383Y-122382730D01*
X149654851Y-122380481D01*
X149670639Y-122377824D01*
X149685747Y-122374758D01*
X149700174Y-122371283D01*
X149714243Y-122367196D01*
X149728279Y-122362294D01*
X149742280Y-122356576D01*
X149756248Y-122350043D01*
X149770181Y-122342695D01*
X149784081Y-122334531D01*
X149797946Y-122325552D01*
X149811778Y-122315758D01*
X149825575Y-122305149D01*
X149836588Y-122295695D01*
X149847077Y-122285376D01*
X149857042Y-122274192D01*
X149866483Y-122262142D01*
X149875401Y-122249226D01*
X149883794Y-122235445D01*
X149891664Y-122220799D01*
X149899010Y-122205287D01*
X149905832Y-122188909D01*
X149912130Y-122171666D01*
X149917904Y-122153558D01*
X149921742Y-122140424D01*
X149925332Y-122126859D01*
X149928675Y-122112864D01*
X149931770Y-122098437D01*
X149934618Y-122083581D01*
X149937218Y-122068293D01*
X149939570Y-122052575D01*
X149941675Y-122036426D01*
X149943532Y-122019847D01*
X149945141Y-122002836D01*
X149946503Y-121985396D01*
X149947618Y-121967524D01*
X149948484Y-121949222D01*
X149949103Y-121930489D01*
X149949475Y-121911325D01*
X149949598Y-121891731D01*
X149949475Y-121872142D01*
X149949103Y-121852994D01*
X149948484Y-121834288D01*
X149947618Y-121816024D01*
X149946503Y-121798200D01*
X149945141Y-121780818D01*
X149943532Y-121763878D01*
X149941675Y-121747379D01*
X149939570Y-121731321D01*
X149937218Y-121715705D01*
X149934618Y-121700530D01*
X149931770Y-121685797D01*
X149928675Y-121671505D01*
X149925332Y-121657654D01*
X149921742Y-121644245D01*
X149917904Y-121631277D01*
X149912130Y-121612931D01*
X149905832Y-121595472D01*
X149899010Y-121578902D01*
X149891664Y-121563219D01*
X149883794Y-121548425D01*
X149875401Y-121534520D01*
X149866483Y-121521502D01*
X149857042Y-121509372D01*
X149847077Y-121498131D01*
X149836588Y-121487778D01*
X149825575Y-121478313D01*
X149811778Y-121467700D01*
X149797946Y-121457903D01*
X149784081Y-121448922D01*
X149770181Y-121440758D01*
X149756248Y-121433409D01*
X149742280Y-121426877D01*
X149728279Y-121421162D01*
X149714243Y-121416262D01*
X149700174Y-121412179D01*
X149685747Y-121408704D01*
X149670639Y-121405638D01*
X149654851Y-121402981D01*
X149638383Y-121400732D01*
X149621234Y-121398892D01*
X149603405Y-121397462D01*
X149584895Y-121396439D01*
X149565704Y-121395826D01*
X149545833Y-121395622D01*
X149526252Y-121395826D01*
X149507316Y-121396439D01*
X149489028Y-121397462D01*
X149471385Y-121398892D01*
X149454389Y-121400732D01*
X149438040Y-121402981D01*
X149422337Y-121405638D01*
X149407281Y-121408704D01*
X149392871Y-121412179D01*
X149378802Y-121416266D01*
X149364766Y-121421168D01*
X149350764Y-121426886D01*
X149336797Y-121433419D01*
X149322863Y-121440767D01*
X149308964Y-121448931D01*
X149295098Y-121457909D01*
X149281267Y-121467704D01*
X149267470Y-121478313D01*
X149256445Y-121487778D01*
X149245922Y-121498131D01*
X149235900Y-121509372D01*
X149226379Y-121521502D01*
X149217359Y-121534520D01*
X149208840Y-121548425D01*
X149200823Y-121563219D01*
X149193306Y-121578902D01*
X149186291Y-121595472D01*
X149179776Y-121612931D01*
X149173763Y-121631277D01*
X148942253Y-122256908D01*
X148936988Y-122243119D01*
X148931969Y-122229063D01*
X148927194Y-122214740D01*
X148922664Y-122200148D01*
X148918379Y-122185289D01*
X148914339Y-122170163D01*
X148910543Y-122154768D01*
X148906993Y-122139106D01*
X148903687Y-122123177D01*
X148900627Y-122106979D01*
X148897811Y-122090514D01*
X148895240Y-122073781D01*
X148892914Y-122056781D01*
X148890832Y-122039513D01*
X148888996Y-122021977D01*
X148887404Y-122004173D01*
X148886058Y-121986102D01*
X148884956Y-121967763D01*
X148884099Y-121949157D01*
X148883487Y-121930282D01*
X148883119Y-121911141D01*
X148882997Y-121891731D01*
X148883119Y-121872324D01*
X148883487Y-121853191D01*
X148884099Y-121834331D01*
X148884956Y-121815744D01*
X148886058Y-121797431D01*
X148887404Y-121779391D01*
X148888996Y-121761624D01*
X148890832Y-121744131D01*
X148892914Y-121726911D01*
X148895240Y-121709964D01*
X148897811Y-121693291D01*
X148900627Y-121676891D01*
X148903687Y-121660765D01*
X148906993Y-121644912D01*
X148910543Y-121629332D01*
X148914339Y-121614025D01*
X148918379Y-121598992D01*
X148922664Y-121584233D01*
X148927194Y-121569746D01*
X148931969Y-121555533D01*
X148936988Y-121541594D01*
X148942253Y-121527928D01*
X148949372Y-121510519D01*
X148956786Y-121493635D01*
X148964497Y-121477276D01*
X148972503Y-121461441D01*
X148980804Y-121446130D01*
X148989401Y-121431343D01*
X148998294Y-121417081D01*
X149007483Y-121403343D01*
X149016967Y-121390130D01*
X149026747Y-121377440D01*
X149036822Y-121365276D01*
X149047193Y-121353635D01*
X149057860Y-121342519D01*
X149068822Y-121331927D01*
X149080080Y-121321860D01*
X149091634Y-121312316D01*
X149103483Y-121303298D01*
X149118072Y-121292892D01*
X149132703Y-121282937D01*
X149147376Y-121273432D01*
X149162092Y-121264376D01*
X149176850Y-121255771D01*
X149191649Y-121247616D01*
X149206491Y-121239910D01*
X149221376Y-121232655D01*
X149236302Y-121225850D01*
X149251271Y-121219495D01*
X149266281Y-121213590D01*
X149281334Y-121208135D01*
X149296430Y-121203129D01*
X149311567Y-121198574D01*
X149327021Y-121194210D01*
X149342671Y-121190168D01*
X149358519Y-121186450D01*
X149374563Y-121183056D01*
X149390804Y-121179984D01*
X149407242Y-121177236D01*
X149423877Y-121174811D01*
X149440709Y-121172710D01*
X149457737Y-121170932D01*
X149474963Y-121169477D01*
X149492385Y-121168345D01*
X149510004Y-121167537D01*
X149527820Y-121167052D01*
X149545833Y-121166890D01*
X149564029Y-121167052D01*
X149582000Y-121167537D01*
X149599746Y-121168345D01*
X149617266Y-121169477D01*
X149634562Y-121170932D01*
X149651633Y-121172710D01*
X149668479Y-121174811D01*
X149685100Y-121177236D01*
X149701495Y-121179984D01*
X149717666Y-121183056D01*
X149733612Y-121186450D01*
X149749333Y-121190168D01*
X149764829Y-121194210D01*
X149780100Y-121198574D01*
X149795427Y-121203129D01*
X149810698Y-121208135D01*
X149825913Y-121213590D01*
X149841071Y-121219495D01*
X149856173Y-121225850D01*
X149871219Y-121232655D01*
X149886209Y-121239910D01*
X149901142Y-121247616D01*
X149916019Y-121255771D01*
X149930840Y-121264376D01*
X149945605Y-121273432D01*
X149960313Y-121282937D01*
X149974966Y-121292892D01*
X149989562Y-121303298D01*
X150001411Y-121312316D01*
X150012964Y-121321860D01*
X150024222Y-121331927D01*
X150035185Y-121342519D01*
X150045851Y-121353635D01*
X150056222Y-121365276D01*
X150066298Y-121377440D01*
X150076078Y-121390130D01*
X150085562Y-121403343D01*
X150094750Y-121417081D01*
X150103643Y-121431343D01*
X150112240Y-121446130D01*
X150120542Y-121461441D01*
X150128548Y-121477276D01*
X150136258Y-121493635D01*
X150143673Y-121510519D01*
X150150792Y-121527928D01*
X150156057Y-121541594D01*
X150161076Y-121555533D01*
X150165851Y-121569746D01*
X150170381Y-121584233D01*
X150174666Y-121598992D01*
X150178706Y-121614025D01*
X150182501Y-121629332D01*
X150186052Y-121644912D01*
X150189357Y-121660765D01*
X150192418Y-121676891D01*
X150195234Y-121693291D01*
X150197805Y-121709964D01*
X150200131Y-121726911D01*
X150202212Y-121744131D01*
X150204049Y-121761624D01*
X150205640Y-121779391D01*
X150206987Y-121797431D01*
X150208089Y-121815744D01*
X150208946Y-121834331D01*
X150209558Y-121853191D01*
X150209925Y-121872324D01*
X150210048Y-121891731D01*
X150209925Y-121911141D01*
X150209558Y-121930282D01*
X150208946Y-121949157D01*
X150208089Y-121967763D01*
X150206987Y-121986102D01*
X150205640Y-122004173D01*
X150204049Y-122021977D01*
X150202212Y-122039513D01*
X150200131Y-122056781D01*
X150197805Y-122073781D01*
X150195234Y-122090514D01*
X150192418Y-122106979D01*
X150189357Y-122123177D01*
X150186052Y-122139106D01*
X150182501Y-122154768D01*
X150178706Y-122170163D01*
X150174666Y-122185289D01*
X150170381Y-122200148D01*
X150165851Y-122214740D01*
X150161076Y-122229063D01*
X150156057Y-122243119D01*
X150150792Y-122256908D01*
X150143673Y-122274159D01*
X150136258Y-122290895D01*
X150128548Y-122307117D01*
X150120542Y-122322823D01*
X150112240Y-122338015D01*
X150103643Y-122352691D01*
X150094750Y-122366853D01*
X150085562Y-122380499D01*
X150076078Y-122393631D01*
X150066298Y-122406248D01*
X150056222Y-122418349D01*
X150045851Y-122429936D01*
X150035185Y-122441008D01*
X150024222Y-122451565D01*
X150012964Y-122461607D01*
X150001411Y-122471133D01*
X149989562Y-122480145D01*
X149974966Y-122490558D01*
X149960313Y-122500535D01*
X149945605Y-122510075D01*
X149930840Y-122519180D01*
X149916019Y-122527850D01*
X149901142Y-122536083D01*
X149886209Y-122543881D01*
X149871219Y-122551242D01*
X149856173Y-122558168D01*
X149841071Y-122564658D01*
X149825913Y-122570713D01*
X149810698Y-122576331D01*
X149795427Y-122581514D01*
X149780100Y-122586261D01*
X149764829Y-122590436D01*
X149749333Y-122594303D01*
X149733612Y-122597859D01*
X149717666Y-122601107D01*
X149701495Y-122604045D01*
X149685100Y-122606674D01*
X149668479Y-122608994D01*
X149651633Y-122611004D01*
X149634562Y-122612705D01*
X149617266Y-122614097D01*
X149599746Y-122615180D01*
X149582000Y-122615953D01*
X149564029Y-122616417D01*
X149545833Y-122616572D01*
X149527820Y-122616417D01*
X149510004Y-122615953D01*
X149492385Y-122615180D01*
X149474963Y-122614097D01*
X149457737Y-122612705D01*
X149440709Y-122611004D01*
X149423877Y-122608994D01*
X149407242Y-122606674D01*
X149390804Y-122604045D01*
X149374563Y-122601107D01*
X149358519Y-122597859D01*
X149342671Y-122594303D01*
X149327021Y-122590436D01*
X149311567Y-122586261D01*
X149296430Y-122581514D01*
X149281334Y-122576331D01*
X149266281Y-122570713D01*
X149251271Y-122564658D01*
X149236302Y-122558168D01*
X149221376Y-122551242D01*
X149206491Y-122543881D01*
X149191649Y-122536083D01*
X149176850Y-122527850D01*
X149162092Y-122519180D01*
X149147376Y-122510075D01*
X149132703Y-122500535D01*
X149118072Y-122490558D01*
X149103483Y-122480145D01*
X149091634Y-122471133D01*
X149080080Y-122461607D01*
X149068822Y-122451565D01*
X149057860Y-122441008D01*
X149047193Y-122429936D01*
X149036822Y-122418349D01*
X149026747Y-122406248D01*
X149016967Y-122393631D01*
X149007483Y-122380499D01*
X148998294Y-122366853D01*
X148989401Y-122352691D01*
X148980804Y-122338015D01*
X148972503Y-122322823D01*
X148964497Y-122307117D01*
X148956786Y-122290895D01*
X148949372Y-122274159D01*
X148942253Y-122256908D01*
X148942253Y-122256908D01*
G37*
G36*
X150584874Y-122594521D02*
X150584874Y-120650122D01*
X150843945Y-120650122D01*
X150843945Y-122594521D01*
X150584874Y-122594521D01*
X150584874Y-122594521D01*
G37*
G36*
X151152626Y-121186175D02*
X151429612Y-121186175D01*
X151808572Y-122241743D01*
X152180642Y-121186175D01*
X152457628Y-121186175D01*
X151878852Y-122744738D01*
X151871444Y-122764260D01*
X151863873Y-122783300D01*
X151856140Y-122801858D01*
X151848245Y-122819934D01*
X151840187Y-122837527D01*
X151831968Y-122854639D01*
X151823585Y-122871269D01*
X151815041Y-122887417D01*
X151806334Y-122903082D01*
X151797465Y-122918266D01*
X151788433Y-122932968D01*
X151779240Y-122947187D01*
X151769884Y-122960925D01*
X151760365Y-122974181D01*
X151750685Y-122986954D01*
X151740842Y-122999246D01*
X151730836Y-123011055D01*
X151720669Y-123022383D01*
X151710339Y-123033228D01*
X151699846Y-123043592D01*
X151689192Y-123053473D01*
X151678375Y-123062873D01*
X151667396Y-123071790D01*
X151656254Y-123080225D01*
X151644950Y-123088179D01*
X151633484Y-123095650D01*
X151621856Y-123102639D01*
X151610065Y-123109147D01*
X151598112Y-123115172D01*
X151585996Y-123120715D01*
X151573719Y-123125776D01*
X151561279Y-123130356D01*
X151548676Y-123134453D01*
X151535911Y-123138068D01*
X151522984Y-123141201D01*
X151509895Y-123143852D01*
X151496644Y-123146021D01*
X151483230Y-123147708D01*
X151469653Y-123148913D01*
X151455915Y-123149637D01*
X151442014Y-123149878D01*
X151440640Y-123149878D01*
X151424956Y-123149724D01*
X151409137Y-123149265D01*
X151393184Y-123148499D01*
X151377098Y-123147427D01*
X151360877Y-123146049D01*
X151344522Y-123144365D01*
X151328034Y-123142374D01*
X151311411Y-123140077D01*
X151294654Y-123137474D01*
X151277764Y-123134564D01*
X151260739Y-123131349D01*
X151243581Y-123127827D01*
X151243581Y-122896310D01*
X151260296Y-122900514D01*
X151276819Y-122904304D01*
X151293149Y-122907682D01*
X151309286Y-122910646D01*
X151325230Y-122913197D01*
X151340981Y-122915334D01*
X151356539Y-122917059D01*
X151371904Y-122918370D01*
X151387076Y-122919268D01*
X151402055Y-122919754D01*
X151413648Y-122919392D01*
X151425090Y-122918308D01*
X151436382Y-122916501D01*
X151447524Y-122913972D01*
X151458517Y-122910719D01*
X151469359Y-122906744D01*
X151480051Y-122902046D01*
X151490593Y-122896626D01*
X151500985Y-122890483D01*
X151511227Y-122883617D01*
X151521318Y-122876028D01*
X151531260Y-122867716D01*
X151541052Y-122858682D01*
X151550694Y-122848925D01*
X151560185Y-122838445D01*
X151569527Y-122827243D01*
X151578718Y-122815318D01*
X151587760Y-122802670D01*
X151596651Y-122789299D01*
X151605392Y-122775206D01*
X151613984Y-122760389D01*
X151622425Y-122744851D01*
X151630716Y-122728589D01*
X151638857Y-122711604D01*
X151646848Y-122693897D01*
X151654689Y-122675468D01*
X151662380Y-122656315D01*
X151669921Y-122636440D01*
X151677312Y-122615841D01*
X151684553Y-122594521D01*
X151152630Y-121186175D01*
X151152626Y-121186175D01*
X151152626Y-121186175D01*
G37*
G36*
X152645041Y-121584429D02*
X152645351Y-121567058D01*
X152646282Y-121549949D01*
X152647832Y-121533102D01*
X152650002Y-121516518D01*
X152652793Y-121500195D01*
X152656203Y-121484134D01*
X152660234Y-121468334D01*
X152664885Y-121452797D01*
X152670156Y-121437522D01*
X152676047Y-121422508D01*
X152682558Y-121407757D01*
X152689690Y-121393267D01*
X152697441Y-121379039D01*
X152705813Y-121365073D01*
X152714805Y-121351369D01*
X152724416Y-121337927D01*
X152734648Y-121324747D01*
X152745500Y-121311829D01*
X152756972Y-121299173D01*
X152769065Y-121286778D01*
X152779306Y-121277162D01*
X152789967Y-121267939D01*
X152801046Y-121259107D01*
X152812545Y-121250669D01*
X152824462Y-121242623D01*
X152836798Y-121234969D01*
X152849553Y-121227708D01*
X152862727Y-121220839D01*
X152876320Y-121214363D01*
X152890332Y-121208280D01*
X152904763Y-121202589D01*
X152919613Y-121197290D01*
X152934881Y-121192384D01*
X152950569Y-121187870D01*
X152966675Y-121183749D01*
X152983201Y-121180020D01*
X153000145Y-121176684D01*
X153017508Y-121173740D01*
X153035291Y-121171189D01*
X153053492Y-121169031D01*
X153072112Y-121167264D01*
X153091151Y-121165891D01*
X153110609Y-121164909D01*
X153130486Y-121164321D01*
X153150781Y-121164124D01*
X153167427Y-121164299D01*
X153184052Y-121164822D01*
X153200656Y-121165695D01*
X153217240Y-121166917D01*
X153233802Y-121168488D01*
X153250344Y-121170407D01*
X153266865Y-121172676D01*
X153283365Y-121175294D01*
X153299844Y-121178261D01*
X153316302Y-121181577D01*
X153332740Y-121185242D01*
X153349156Y-121189256D01*
X153365552Y-121193619D01*
X153381927Y-121198331D01*
X153398281Y-121203393D01*
X153414614Y-121208803D01*
X153430927Y-121214562D01*
X153447218Y-121220671D01*
X153463489Y-121227128D01*
X153479739Y-121233935D01*
X153495968Y-121241090D01*
X153512176Y-121248595D01*
X153528364Y-121256449D01*
X153528364Y-121479686D01*
X153510955Y-121471873D01*
X153493641Y-121464440D01*
X153476420Y-121457389D01*
X153459293Y-121450718D01*
X153442260Y-121444429D01*
X153425320Y-121438521D01*
X153408474Y-121432994D01*
X153391722Y-121427849D01*
X153375064Y-121423084D01*
X153358499Y-121418701D01*
X153342029Y-121414699D01*
X153325652Y-121411078D01*
X153309368Y-121407838D01*
X153293179Y-121404979D01*
X153277083Y-121402502D01*
X153261081Y-121400405D01*
X153245172Y-121398690D01*
X153229358Y-121397356D01*
X153213637Y-121396403D01*
X153198010Y-121395831D01*
X153182476Y-121395641D01*
X153162138Y-121395888D01*
X153142568Y-121396631D01*
X153123765Y-121397869D01*
X153105729Y-121399602D01*
X153088461Y-121401831D01*
X153071961Y-121404555D01*
X153056228Y-121407774D01*
X153041262Y-121411488D01*
X153027064Y-121415697D01*
X153013633Y-121420402D01*
X153000970Y-121425602D01*
X152989074Y-121431297D01*
X152977946Y-121437487D01*
X152967585Y-121444173D01*
X152957992Y-121451353D01*
X152949166Y-121459029D01*
X152941108Y-121467201D01*
X152933817Y-121475867D01*
X152927293Y-121485029D01*
X152921537Y-121494686D01*
X152916549Y-121504838D01*
X152912328Y-121515485D01*
X152908874Y-121526628D01*
X152906188Y-121538265D01*
X152904269Y-121550398D01*
X152903118Y-121563027D01*
X152902734Y-121576150D01*
X152903653Y-121589082D01*
X152906409Y-121601537D01*
X152911003Y-121613516D01*
X152917434Y-121625018D01*
X152925702Y-121636044D01*
X152935807Y-121646593D01*
X152947750Y-121656665D01*
X152961531Y-121666260D01*
X152977149Y-121675379D01*
X152990929Y-121682327D01*
X153005210Y-121689138D01*
X153019993Y-121695812D01*
X153035277Y-121702350D01*
X153051061Y-121708750D01*
X153067347Y-121715014D01*
X153084134Y-121721140D01*
X153101422Y-121727130D01*
X153119212Y-121732983D01*
X153137502Y-121738700D01*
X153156293Y-121744279D01*
X153172406Y-121748813D01*
X153188518Y-121753509D01*
X153204631Y-121758369D01*
X153220743Y-121763392D01*
X153236856Y-121768579D01*
X153252968Y-121773928D01*
X153269081Y-121779441D01*
X153285193Y-121785117D01*
X153301305Y-121790956D01*
X153317418Y-121796958D01*
X153333530Y-121803124D01*
X153349643Y-121809453D01*
X153365755Y-121815945D01*
X153380752Y-121822145D01*
X153395425Y-121828936D01*
X153409775Y-121836318D01*
X153423802Y-121844290D01*
X153437505Y-121852853D01*
X153450884Y-121862006D01*
X153463940Y-121871750D01*
X153476673Y-121882084D01*
X153489083Y-121893009D01*
X153501169Y-121904524D01*
X153512931Y-121916630D01*
X153524370Y-121929327D01*
X153535486Y-121942614D01*
X153546278Y-121956491D01*
X153555456Y-121969078D01*
X153564042Y-121982031D01*
X153572036Y-121995349D01*
X153579437Y-122009033D01*
X153586247Y-122023083D01*
X153592464Y-122037499D01*
X153598089Y-122052281D01*
X153603122Y-122067428D01*
X153607563Y-122082942D01*
X153611412Y-122098821D01*
X153614669Y-122115066D01*
X153617333Y-122131677D01*
X153619406Y-122148654D01*
X153620886Y-122165997D01*
X153621774Y-122183706D01*
X153622070Y-122201780D01*
X153621750Y-122218613D01*
X153620789Y-122235212D01*
X153619187Y-122251577D01*
X153616944Y-122267707D01*
X153614061Y-122283603D01*
X153610536Y-122299265D01*
X153606371Y-122314693D01*
X153601565Y-122329887D01*
X153596118Y-122344846D01*
X153590031Y-122359571D01*
X153583303Y-122374061D01*
X153575934Y-122388318D01*
X153567924Y-122402340D01*
X153559273Y-122416128D01*
X153549982Y-122429682D01*
X153540050Y-122443001D01*
X153529477Y-122456086D01*
X153518263Y-122468937D01*
X153506408Y-122481554D01*
X153493913Y-122493937D01*
X153483847Y-122503189D01*
X153473365Y-122512078D01*
X153462467Y-122520604D01*
X153451153Y-122528768D01*
X153439423Y-122536569D01*
X153427278Y-122544007D01*
X153414716Y-122551082D01*
X153401739Y-122557794D01*
X153388346Y-122564143D01*
X153374537Y-122570130D01*
X153360312Y-122575754D01*
X153345672Y-122581015D01*
X153330615Y-122585913D01*
X153315143Y-122590448D01*
X153299255Y-122594621D01*
X153282951Y-122598430D01*
X153266231Y-122601877D01*
X153249095Y-122604961D01*
X153231543Y-122607682D01*
X153213576Y-122610041D01*
X153195192Y-122612036D01*
X153176393Y-122613669D01*
X153157178Y-122614939D01*
X153137547Y-122615846D01*
X153117501Y-122616390D01*
X153097038Y-122616572D01*
X153079031Y-122616415D01*
X153061169Y-122615945D01*
X153043453Y-122615163D01*
X153025883Y-122614067D01*
X153008458Y-122612658D01*
X152991178Y-122610936D01*
X152974044Y-122608901D01*
X152957056Y-122606553D01*
X152940213Y-122603892D01*
X152923515Y-122600918D01*
X152906963Y-122597630D01*
X152890557Y-122594030D01*
X152874296Y-122590116D01*
X152858181Y-122585890D01*
X152842211Y-122581350D01*
X152826387Y-122576498D01*
X152810708Y-122571332D01*
X152795175Y-122565853D01*
X152779787Y-122560061D01*
X152764545Y-122553956D01*
X152749448Y-122547538D01*
X152734497Y-122540807D01*
X152719691Y-122533762D01*
X152705031Y-122526405D01*
X152690517Y-122518735D01*
X152690517Y-122284471D01*
X152705830Y-122292904D01*
X152721226Y-122300979D01*
X152736702Y-122308694D01*
X152752260Y-122316050D01*
X152767900Y-122323048D01*
X152783620Y-122329687D01*
X152799422Y-122335967D01*
X152815306Y-122341888D01*
X152831270Y-122347450D01*
X152847316Y-122352653D01*
X152863444Y-122357498D01*
X152879652Y-122361984D01*
X152895942Y-122366110D01*
X152912314Y-122369878D01*
X152928766Y-122373288D01*
X152945300Y-122376338D01*
X152961916Y-122379029D01*
X152978613Y-122381362D01*
X152995391Y-122383335D01*
X153012250Y-122384950D01*
X153029191Y-122386206D01*
X153046213Y-122387103D01*
X153063317Y-122387642D01*
X153080501Y-122387821D01*
X153086014Y-122387821D01*
X153106407Y-122387536D01*
X153126034Y-122386680D01*
X153144895Y-122385253D01*
X153162988Y-122383256D01*
X153180316Y-122380688D01*
X153196877Y-122377549D01*
X153212671Y-122373839D01*
X153227699Y-122369559D01*
X153241961Y-122364709D01*
X153255456Y-122359287D01*
X153268184Y-122353295D01*
X153280146Y-122346732D01*
X153291342Y-122339599D01*
X153304957Y-122329414D01*
X153317139Y-122318706D01*
X153327887Y-122307475D01*
X153337203Y-122295720D01*
X153345085Y-122283441D01*
X153351534Y-122270639D01*
X153356551Y-122257314D01*
X153360133Y-122243466D01*
X153362283Y-122229093D01*
X153363000Y-122214198D01*
X153362385Y-122198696D01*
X153360540Y-122183763D01*
X153357465Y-122169400D01*
X153353160Y-122155606D01*
X153347625Y-122142383D01*
X153340860Y-122129729D01*
X153332865Y-122117645D01*
X153323640Y-122106131D01*
X153313185Y-122095186D01*
X153301501Y-122084811D01*
X153288586Y-122075006D01*
X153276183Y-122066222D01*
X153263322Y-122057783D01*
X153250001Y-122049688D01*
X153236220Y-122041938D01*
X153221980Y-122034532D01*
X153207281Y-122027470D01*
X153192123Y-122020753D01*
X153176505Y-122014380D01*
X153160428Y-122008352D01*
X153143892Y-122002668D01*
X153126896Y-121997329D01*
X153109441Y-121992334D01*
X153093116Y-121987635D01*
X153076792Y-121982872D01*
X153060467Y-121978043D01*
X153044143Y-121973149D01*
X153027818Y-121968191D01*
X153011494Y-121963167D01*
X152995170Y-121958078D01*
X152978845Y-121952925D01*
X152962521Y-121947706D01*
X152946196Y-121942422D01*
X152929872Y-121937073D01*
X152913547Y-121931660D01*
X152897223Y-121926181D01*
X152881290Y-121920178D01*
X152865715Y-121913621D01*
X152850500Y-121906510D01*
X152835643Y-121898845D01*
X152821145Y-121890626D01*
X152807006Y-121881852D01*
X152793226Y-121872524D01*
X152779804Y-121862642D01*
X152766741Y-121852206D01*
X152754037Y-121841216D01*
X152741692Y-121829671D01*
X152729705Y-121817572D01*
X152718078Y-121804919D01*
X152708664Y-121793307D01*
X152699900Y-121781254D01*
X152691785Y-121768760D01*
X152684319Y-121755824D01*
X152677502Y-121742448D01*
X152671335Y-121728631D01*
X152665817Y-121714372D01*
X152660947Y-121699673D01*
X152656728Y-121684532D01*
X152653157Y-121668951D01*
X152650236Y-121652928D01*
X152647963Y-121636465D01*
X152646340Y-121619561D01*
X152645366Y-121602215D01*
X152645042Y-121584429D01*
X152645041Y-121584429D01*
X152645041Y-121584429D01*
G37*
G36*
X153823264Y-121403900D02*
X153823264Y-121186175D01*
X154068555Y-121186175D01*
X154068555Y-120765871D01*
X154326248Y-120765871D01*
X154326248Y-121186175D01*
X154701074Y-121186175D01*
X154701074Y-121403900D01*
X154326248Y-121403900D01*
X154326248Y-122222458D01*
X154326678Y-122237149D01*
X154327968Y-122251157D01*
X154330117Y-122264482D01*
X154333127Y-122277123D01*
X154336996Y-122289081D01*
X154341725Y-122300356D01*
X154347314Y-122310948D01*
X154353763Y-122320856D01*
X154361072Y-122330081D01*
X154369240Y-122338622D01*
X154378269Y-122346480D01*
X154388157Y-122353655D01*
X154398905Y-122360147D01*
X154410513Y-122365955D01*
X154422981Y-122371080D01*
X154436309Y-122375521D01*
X154450496Y-122379280D01*
X154465544Y-122382355D01*
X154481451Y-122384746D01*
X154498218Y-122386454D01*
X154515845Y-122387479D01*
X154534332Y-122387821D01*
X154537088Y-122387821D01*
X154556091Y-122387408D01*
X154574516Y-122386168D01*
X154592361Y-122384101D01*
X154609628Y-122381207D01*
X154626316Y-122377487D01*
X154642425Y-122372940D01*
X154657956Y-122367566D01*
X154672908Y-122361366D01*
X154687280Y-122354339D01*
X154701075Y-122346485D01*
X154701075Y-122578001D01*
X154684998Y-122584162D01*
X154668920Y-122589787D01*
X154652843Y-122594876D01*
X154636766Y-122599429D01*
X154620689Y-122603447D01*
X154604612Y-122606929D01*
X154588535Y-122609875D01*
X154572458Y-122612286D01*
X154556381Y-122614161D01*
X154540304Y-122615500D01*
X154524226Y-122616304D01*
X154508149Y-122616572D01*
X154501259Y-122616572D01*
X154486551Y-122616318D01*
X154471561Y-122615558D01*
X154456290Y-122614291D01*
X154440738Y-122612517D01*
X154424905Y-122610236D01*
X154408790Y-122607448D01*
X154392394Y-122604154D01*
X154379243Y-122601106D01*
X154365514Y-122597480D01*
X154351206Y-122593277D01*
X154336320Y-122588496D01*
X154320855Y-122583138D01*
X154304812Y-122577203D01*
X154288191Y-122570690D01*
X154270991Y-122563599D01*
X154253212Y-122555931D01*
X154238908Y-122548732D01*
X154225059Y-122540668D01*
X154211666Y-122531737D01*
X154198729Y-122521942D01*
X154186247Y-122511280D01*
X154174220Y-122499754D01*
X154162649Y-122487362D01*
X154151534Y-122474104D01*
X154140874Y-122459981D01*
X154130669Y-122444992D01*
X154120921Y-122429138D01*
X154113707Y-122415928D01*
X154107028Y-122402281D01*
X154100883Y-122388198D01*
X154095272Y-122373680D01*
X154090196Y-122358726D01*
X154085654Y-122343336D01*
X154081647Y-122327510D01*
X154078173Y-122311249D01*
X154075235Y-122294551D01*
X154072830Y-122277418D01*
X154070960Y-122259849D01*
X154069624Y-122241844D01*
X154068823Y-122223404D01*
X154068555Y-122204527D01*
X154068555Y-121403882D01*
X153823265Y-121403882D01*
X153823264Y-121403900D01*
X153823264Y-121403900D01*
G37*
G36*
X154961524Y-122150792D02*
X155217838Y-122147989D01*
X155218149Y-122162300D01*
X155219083Y-122176172D01*
X155220639Y-122189603D01*
X155222818Y-122202593D01*
X155225620Y-122215144D01*
X155229044Y-122227253D01*
X155233091Y-122238923D01*
X155237760Y-122250152D01*
X155243052Y-122260941D01*
X155248967Y-122271289D01*
X155255504Y-122281198D01*
X155262664Y-122290665D01*
X155270446Y-122299693D01*
X155278851Y-122308280D01*
X155287878Y-122316426D01*
X155297528Y-122324133D01*
X155307801Y-122331399D01*
X155318696Y-122338224D01*
X155330214Y-122344609D01*
X155342355Y-122350554D01*
X155355118Y-122356059D01*
X155368503Y-122361123D01*
X155382511Y-122365747D01*
X155397142Y-122369930D01*
X155412395Y-122373673D01*
X155428271Y-122376976D01*
X155444770Y-122379838D01*
X155461891Y-122382260D01*
X155479635Y-122384242D01*
X155498001Y-122385783D01*
X155516990Y-122386884D01*
X155536601Y-122387544D01*
X155556835Y-122387765D01*
X155560969Y-122387765D01*
X155580638Y-122387540D01*
X155599683Y-122386866D01*
X155618103Y-122385742D01*
X155635899Y-122384169D01*
X155653071Y-122382146D01*
X155669618Y-122379674D01*
X155685541Y-122376753D01*
X155700839Y-122373382D01*
X155715513Y-122369561D01*
X155729563Y-122365292D01*
X155742988Y-122360572D01*
X155755789Y-122355403D01*
X155767965Y-122349785D01*
X155779517Y-122343717D01*
X155790444Y-122337200D01*
X155800747Y-122330234D01*
X155810426Y-122322818D01*
X155819480Y-122314952D01*
X155827910Y-122306637D01*
X155835715Y-122297872D01*
X155842896Y-122288659D01*
X155849452Y-122278995D01*
X155855384Y-122268882D01*
X155860692Y-122258320D01*
X155865375Y-122247308D01*
X155869434Y-122235847D01*
X155872868Y-122223936D01*
X155875678Y-122211576D01*
X155877863Y-122198766D01*
X155879425Y-122185507D01*
X155880361Y-122171799D01*
X155880673Y-122157641D01*
X155880673Y-121928871D01*
X155865895Y-121926584D01*
X155850694Y-121924452D01*
X155835072Y-121922475D01*
X155819027Y-121920654D01*
X155802561Y-121918989D01*
X155785673Y-121917479D01*
X155768363Y-121916124D01*
X155750632Y-121914925D01*
X155732478Y-121913882D01*
X155713903Y-121912994D01*
X155694906Y-121912261D01*
X155675486Y-121911685D01*
X155655646Y-121911263D01*
X155635383Y-121910997D01*
X155619128Y-121911224D01*
X155602647Y-121911903D01*
X155585942Y-121913036D01*
X155569012Y-121914622D01*
X155551857Y-121916661D01*
X155534477Y-121919153D01*
X155516871Y-121922098D01*
X155501218Y-121924692D01*
X155485263Y-121927678D01*
X155469006Y-121931054D01*
X155452448Y-121934822D01*
X155435589Y-121938980D01*
X155418428Y-121943529D01*
X155400966Y-121948470D01*
X155383202Y-121953801D01*
X155367584Y-121959058D01*
X155352579Y-121965030D01*
X155338186Y-121971717D01*
X155324405Y-121979118D01*
X155311238Y-121987233D01*
X155298682Y-121996063D01*
X155286739Y-122005608D01*
X155275409Y-122015867D01*
X155264690Y-122026840D01*
X155253709Y-122039888D01*
X155244192Y-122053539D01*
X155236139Y-122067793D01*
X155229550Y-122082650D01*
X155224426Y-122098109D01*
X155220765Y-122114170D01*
X155218569Y-122130835D01*
X155217837Y-122148102D01*
X155217838Y-122147989D01*
X154961524Y-122150792D01*
X154961830Y-122133498D01*
X154962749Y-122116525D01*
X154964280Y-122099873D01*
X154966423Y-122083541D01*
X154969179Y-122067529D01*
X154972548Y-122051838D01*
X154976529Y-122036467D01*
X154981122Y-122021417D01*
X154986328Y-122006688D01*
X154992147Y-121992279D01*
X154998578Y-121978190D01*
X155005621Y-121964422D01*
X155013277Y-121950974D01*
X155021545Y-121937847D01*
X155030425Y-121925041D01*
X155039919Y-121912555D01*
X155050024Y-121900389D01*
X155060742Y-121888544D01*
X155072073Y-121877020D01*
X155084016Y-121865816D01*
X155096571Y-121854932D01*
X155109739Y-121844369D01*
X155123520Y-121834127D01*
X155137912Y-121824205D01*
X155149820Y-121816435D01*
X155162025Y-121808929D01*
X155174527Y-121801687D01*
X155187326Y-121794708D01*
X155200422Y-121787992D01*
X155213815Y-121781539D01*
X155227505Y-121775350D01*
X155241492Y-121769424D01*
X155255776Y-121763762D01*
X155270357Y-121758363D01*
X155285235Y-121753227D01*
X155300411Y-121748355D01*
X155315883Y-121743746D01*
X155331652Y-121739401D01*
X155347719Y-121735319D01*
X155364082Y-121731500D01*
X155380743Y-121727944D01*
X155397700Y-121724652D01*
X155414955Y-121721624D01*
X155432506Y-121718858D01*
X155450355Y-121716356D01*
X155468501Y-121714118D01*
X155486944Y-121712142D01*
X155505683Y-121710431D01*
X155524720Y-121708982D01*
X155544054Y-121707797D01*
X155563685Y-121706875D01*
X155583613Y-121706217D01*
X155603838Y-121705822D01*
X155624360Y-121705690D01*
X155641962Y-121705764D01*
X155659491Y-121705984D01*
X155676946Y-121706352D01*
X155694328Y-121706867D01*
X155711636Y-121707530D01*
X155728870Y-121708339D01*
X155746031Y-121709296D01*
X155763119Y-121710400D01*
X155780133Y-121711651D01*
X155797074Y-121713049D01*
X155813941Y-121714594D01*
X155830735Y-121716287D01*
X155847455Y-121718126D01*
X155864102Y-121720113D01*
X155880675Y-121722247D01*
X155879421Y-121701682D01*
X155877604Y-121681813D01*
X155875224Y-121662640D01*
X155872282Y-121644163D01*
X155868778Y-121626382D01*
X155864710Y-121609297D01*
X155860080Y-121592909D01*
X155854888Y-121577216D01*
X155849132Y-121562219D01*
X155842814Y-121547919D01*
X155835934Y-121534315D01*
X155828490Y-121521406D01*
X155820484Y-121509194D01*
X155811916Y-121497678D01*
X155802785Y-121486858D01*
X155793091Y-121476734D01*
X155782834Y-121467306D01*
X155773234Y-121459398D01*
X155763000Y-121451917D01*
X155752132Y-121444864D01*
X155740630Y-121438238D01*
X155728495Y-121432039D01*
X155715727Y-121426269D01*
X155702324Y-121420925D01*
X155688288Y-121416009D01*
X155673618Y-121411521D01*
X155658315Y-121407460D01*
X155642377Y-121403826D01*
X155625807Y-121400620D01*
X155608602Y-121397841D01*
X155590764Y-121395490D01*
X155572292Y-121393567D01*
X155553187Y-121392070D01*
X155533448Y-121391002D01*
X155513075Y-121390360D01*
X155492068Y-121390147D01*
X155476087Y-121390280D01*
X155460016Y-121390678D01*
X155443858Y-121391342D01*
X155427610Y-121392272D01*
X155411275Y-121393468D01*
X155394850Y-121394929D01*
X155378337Y-121396656D01*
X155361736Y-121398649D01*
X155345045Y-121400907D01*
X155328267Y-121403431D01*
X155311399Y-121406221D01*
X155294444Y-121409276D01*
X155277399Y-121412597D01*
X155260266Y-121416184D01*
X155243045Y-121420036D01*
X155225734Y-121424154D01*
X155208336Y-121428538D01*
X155190848Y-121433188D01*
X155173273Y-121438103D01*
X155155608Y-121443283D01*
X155137855Y-121448730D01*
X155120014Y-121454442D01*
X155102083Y-121460420D01*
X155102083Y-121239929D01*
X155118111Y-121233988D01*
X155134221Y-121228289D01*
X155150416Y-121222832D01*
X155166695Y-121217618D01*
X155183057Y-121212646D01*
X155199503Y-121207917D01*
X155216033Y-121203431D01*
X155232646Y-121199187D01*
X155249344Y-121195185D01*
X155266125Y-121191426D01*
X155282990Y-121187910D01*
X155299939Y-121184636D01*
X155316971Y-121181604D01*
X155334088Y-121178815D01*
X155351288Y-121176269D01*
X155368572Y-121173965D01*
X155385939Y-121171904D01*
X155403391Y-121170085D01*
X155420926Y-121168508D01*
X155438545Y-121167175D01*
X155456248Y-121166083D01*
X155474035Y-121165235D01*
X155491905Y-121164628D01*
X155509859Y-121164264D01*
X155527897Y-121164143D01*
X155547317Y-121164313D01*
X155566439Y-121164823D01*
X155585265Y-121165673D01*
X155603793Y-121166863D01*
X155622025Y-121168392D01*
X155639959Y-121170262D01*
X155657597Y-121172471D01*
X155674937Y-121175021D01*
X155691980Y-121177910D01*
X155708726Y-121181139D01*
X155725176Y-121184708D01*
X155741328Y-121188618D01*
X155757183Y-121192867D01*
X155772741Y-121197455D01*
X155788002Y-121202384D01*
X155802966Y-121207653D01*
X155817633Y-121213262D01*
X155832003Y-121219210D01*
X155846075Y-121225499D01*
X155859851Y-121232127D01*
X155873330Y-121239096D01*
X155886512Y-121246404D01*
X155899396Y-121254052D01*
X155911984Y-121262040D01*
X155924275Y-121270369D01*
X155936268Y-121279036D01*
X155947965Y-121288044D01*
X155959364Y-121297392D01*
X155970466Y-121307080D01*
X155981272Y-121317108D01*
X155992106Y-121327721D01*
X156002560Y-121338652D01*
X156012634Y-121349902D01*
X156022328Y-121361469D01*
X156031641Y-121373354D01*
X156040575Y-121385556D01*
X156049128Y-121398077D01*
X156057301Y-121410916D01*
X156065095Y-121424072D01*
X156072507Y-121437546D01*
X156079540Y-121451338D01*
X156086193Y-121465448D01*
X156092465Y-121479876D01*
X156098358Y-121494622D01*
X156103870Y-121509685D01*
X156109002Y-121525067D01*
X156113754Y-121540766D01*
X156118125Y-121556783D01*
X156122117Y-121573118D01*
X156125728Y-121589771D01*
X156128959Y-121606741D01*
X156131811Y-121624030D01*
X156134282Y-121641636D01*
X156136372Y-121659561D01*
X156138083Y-121677803D01*
X156139414Y-121696363D01*
X156140364Y-121715241D01*
X156140934Y-121734436D01*
X156141124Y-121753950D01*
X156141124Y-122160463D01*
X156140856Y-122175621D01*
X156140052Y-122190780D01*
X156138713Y-122205938D01*
X156136837Y-122221097D01*
X156134425Y-122236255D01*
X156131478Y-122251414D01*
X156128581Y-122264548D01*
X156124615Y-122278751D01*
X156119581Y-122294022D01*
X156113479Y-122310362D01*
X156106307Y-122327769D01*
X156098067Y-122346245D01*
X156088759Y-122365789D01*
X156081103Y-122381188D01*
X156072835Y-122396144D01*
X156063954Y-122410658D01*
X156054461Y-122424729D01*
X156044355Y-122438357D01*
X156033637Y-122451543D01*
X156022307Y-122464285D01*
X156010364Y-122476585D01*
X155997808Y-122488443D01*
X155987760Y-122497074D01*
X155976908Y-122505514D01*
X155965252Y-122513763D01*
X155952792Y-122521820D01*
X155939529Y-122529686D01*
X155925461Y-122537361D01*
X155910590Y-122544845D01*
X155894915Y-122552137D01*
X155878436Y-122559238D01*
X155861153Y-122566148D01*
X155843066Y-122572866D01*
X155824176Y-122579394D01*
X155809566Y-122583898D01*
X155794677Y-122588112D01*
X155779508Y-122592035D01*
X155764059Y-122595667D01*
X155748330Y-122599009D01*
X155732321Y-122602060D01*
X155716032Y-122604821D01*
X155699463Y-122607291D01*
X155682614Y-122609471D01*
X155665486Y-122611360D01*
X155648077Y-122612958D01*
X155630389Y-122614266D01*
X155612420Y-122615283D01*
X155594172Y-122616009D01*
X155575644Y-122616445D01*
X155556836Y-122616590D01*
X155537522Y-122616440D01*
X155518509Y-122615988D01*
X155499798Y-122615234D01*
X155481388Y-122614180D01*
X155463280Y-122612824D01*
X155445473Y-122611166D01*
X155427968Y-122609208D01*
X155410764Y-122606948D01*
X155393861Y-122604387D01*
X155377260Y-122601524D01*
X155360961Y-122598360D01*
X155344963Y-122594895D01*
X155329266Y-122591128D01*
X155313871Y-122587060D01*
X155298777Y-122582691D01*
X155283984Y-122578020D01*
X155264864Y-122571271D01*
X155246548Y-122564349D01*
X155229035Y-122557256D01*
X155212326Y-122549990D01*
X155196422Y-122542553D01*
X155181321Y-122534944D01*
X155167023Y-122527162D01*
X155153530Y-122519209D01*
X155140841Y-122511084D01*
X155128955Y-122502787D01*
X155117873Y-122494318D01*
X155107596Y-122485677D01*
X155095979Y-122475012D01*
X155084830Y-122463960D01*
X155074151Y-122452523D01*
X155063939Y-122440699D01*
X155054197Y-122428489D01*
X155044922Y-122415894D01*
X155036117Y-122402912D01*
X155027780Y-122389544D01*
X155019911Y-122375790D01*
X155012511Y-122361650D01*
X155004307Y-122344125D01*
X154996922Y-122327376D01*
X154990355Y-122311402D01*
X154984606Y-122296202D01*
X154979675Y-122281778D01*
X154975562Y-122268128D01*
X154972268Y-122255254D01*
X154969792Y-122243154D01*
X154967265Y-122227570D01*
X154965198Y-122212064D01*
X154963590Y-122196634D01*
X154962441Y-122181283D01*
X154961752Y-122166008D01*
X154961523Y-122150811D01*
X154961524Y-122150792D01*
X154961524Y-122150792D01*
G37*
G36*
X156604145Y-122429157D02*
X156594520Y-122418313D01*
X156585174Y-122407199D01*
X156576107Y-122395814D01*
X156567319Y-122384160D01*
X156558810Y-122372236D01*
X156550580Y-122360041D01*
X156542629Y-122347577D01*
X156534957Y-122334843D01*
X156527564Y-122321838D01*
X156520450Y-122308564D01*
X156513615Y-122295020D01*
X156507059Y-122281206D01*
X156500782Y-122267122D01*
X156494784Y-122252768D01*
X156489065Y-122238143D01*
X156483625Y-122223249D01*
X156478463Y-122208085D01*
X156473581Y-122192651D01*
X156468978Y-122176947D01*
X156464654Y-122160973D01*
X156460609Y-122144729D01*
X156456842Y-122128215D01*
X156453355Y-122111431D01*
X156450147Y-122094377D01*
X156447217Y-122077053D01*
X156444567Y-122059459D01*
X156442196Y-122041596D01*
X156440103Y-122023462D01*
X156438290Y-122005058D01*
X156436756Y-121986384D01*
X156435500Y-121967440D01*
X156434524Y-121948226D01*
X156433826Y-121928743D01*
X156433408Y-121908989D01*
X156433268Y-121888965D01*
X156433408Y-121868943D01*
X156433826Y-121849192D01*
X156434524Y-121829714D01*
X156435500Y-121810508D01*
X156436756Y-121791575D01*
X156438290Y-121772913D01*
X156440103Y-121754524D01*
X156442196Y-121736407D01*
X156444567Y-121718563D01*
X156447217Y-121700991D01*
X156450147Y-121683690D01*
X156453355Y-121666663D01*
X156456842Y-121649907D01*
X156460609Y-121633424D01*
X156464654Y-121617213D01*
X156468978Y-121601274D01*
X156473581Y-121585607D01*
X156478463Y-121570213D01*
X156483625Y-121555091D01*
X156489065Y-121540241D01*
X156494784Y-121525664D01*
X156500782Y-121511359D01*
X156507059Y-121497326D01*
X156513615Y-121483565D01*
X156520450Y-121470076D01*
X156527564Y-121456860D01*
X156534957Y-121443916D01*
X156542629Y-121431244D01*
X156550580Y-121418845D01*
X156558810Y-121406718D01*
X156567319Y-121394863D01*
X156576107Y-121383280D01*
X156585174Y-121371969D01*
X156594520Y-121360931D01*
X156604145Y-121350165D01*
X156614639Y-121339061D01*
X156625409Y-121328298D01*
X156636455Y-121317877D01*
X156647777Y-121307798D01*
X156659374Y-121298060D01*
X156671247Y-121288664D01*
X156683397Y-121279610D01*
X156695822Y-121270897D01*
X156708523Y-121262526D01*
X156721500Y-121254497D01*
X156734752Y-121246809D01*
X156748281Y-121239463D01*
X156762085Y-121232459D01*
X156776166Y-121225796D01*
X156790522Y-121219475D01*
X156805154Y-121213496D01*
X156820062Y-121207859D01*
X156835245Y-121202563D01*
X156850705Y-121197608D01*
X156866440Y-121192996D01*
X156882452Y-121188725D01*
X156898739Y-121184796D01*
X156915302Y-121181208D01*
X156932141Y-121177962D01*
X156949256Y-121175058D01*
X156966646Y-121172495D01*
X156984313Y-121170274D01*
X157002255Y-121168395D01*
X157020473Y-121166858D01*
X157038967Y-121165662D01*
X157057737Y-121164808D01*
X157076783Y-121164295D01*
X157096105Y-121164124D01*
X157113278Y-121164250D01*
X157130403Y-121164627D01*
X157147480Y-121165256D01*
X157164508Y-121166135D01*
X157181488Y-121167266D01*
X157198419Y-121168649D01*
X157215302Y-121170283D01*
X157232136Y-121172168D01*
X157248921Y-121174305D01*
X157265659Y-121176693D01*
X157282347Y-121179332D01*
X157298987Y-121182223D01*
X157315579Y-121185365D01*
X157332122Y-121188758D01*
X157348616Y-121192403D01*
X157365063Y-121196299D01*
X157381460Y-121200447D01*
X157397809Y-121204846D01*
X157414110Y-121209496D01*
X157430362Y-121214398D01*
X157446565Y-121219551D01*
X157462720Y-121224955D01*
X157478827Y-121230611D01*
X157494885Y-121236518D01*
X157510894Y-121242676D01*
X157510894Y-121487965D01*
X157494925Y-121480432D01*
X157478941Y-121473219D01*
X157462943Y-121466326D01*
X157446930Y-121459755D01*
X157430903Y-121453504D01*
X157414862Y-121447573D01*
X157398807Y-121441963D01*
X157382737Y-121436674D01*
X157366652Y-121431705D01*
X157350554Y-121427057D01*
X157334441Y-121422729D01*
X157318313Y-121418722D01*
X157302172Y-121415035D01*
X157286016Y-121411669D01*
X157269845Y-121408624D01*
X157253660Y-121405899D01*
X157237461Y-121403495D01*
X157221248Y-121401411D01*
X157205020Y-121399648D01*
X157188778Y-121398205D01*
X157172521Y-121397083D01*
X157156250Y-121396282D01*
X157139965Y-121395801D01*
X157123666Y-121395641D01*
X157118153Y-121395641D01*
X157098933Y-121395892D01*
X157080133Y-121396647D01*
X157061753Y-121397904D01*
X157043794Y-121399664D01*
X157026255Y-121401927D01*
X157009136Y-121404693D01*
X156992438Y-121407962D01*
X156976160Y-121411734D01*
X156960302Y-121416009D01*
X156944864Y-121420787D01*
X156929847Y-121426067D01*
X156915250Y-121431851D01*
X156901074Y-121438137D01*
X156887318Y-121444927D01*
X156873982Y-121452219D01*
X156861066Y-121460014D01*
X156848571Y-121468313D01*
X156836496Y-121477114D01*
X156824841Y-121486418D01*
X156813606Y-121496225D01*
X156805289Y-121504145D01*
X156797298Y-121512640D01*
X156789633Y-121521710D01*
X156782295Y-121531355D01*
X156775282Y-121541575D01*
X156768596Y-121552369D01*
X156762236Y-121563738D01*
X156756202Y-121575682D01*
X156750494Y-121588201D01*
X156745112Y-121601295D01*
X156740057Y-121614963D01*
X156735327Y-121629206D01*
X156730924Y-121644024D01*
X156726847Y-121659417D01*
X156723096Y-121675385D01*
X156719671Y-121691927D01*
X156716573Y-121709044D01*
X156713800Y-121726736D01*
X156711354Y-121745003D01*
X156709234Y-121763845D01*
X156707440Y-121783261D01*
X156705973Y-121803252D01*
X156704831Y-121823818D01*
X156704016Y-121844959D01*
X156703526Y-121866675D01*
X156703363Y-121888965D01*
X156703504Y-121909496D01*
X156703927Y-121929562D01*
X156704631Y-121949162D01*
X156705617Y-121968296D01*
X156706885Y-121986965D01*
X156708434Y-122005168D01*
X156710266Y-122022906D01*
X156712379Y-122040178D01*
X156714773Y-122056984D01*
X156717450Y-122073325D01*
X156720408Y-122089200D01*
X156723648Y-122104610D01*
X156727170Y-122119554D01*
X156730973Y-122134032D01*
X156735058Y-122148045D01*
X156741322Y-122166154D01*
X156748087Y-122183396D01*
X156755353Y-122199774D01*
X156763120Y-122215286D01*
X156771388Y-122229932D01*
X156780158Y-122243713D01*
X156789428Y-122256629D01*
X156799199Y-122268679D01*
X156809472Y-122279863D01*
X156820246Y-122290182D01*
X156831521Y-122299636D01*
X156845914Y-122310249D01*
X156860306Y-122320046D01*
X156874699Y-122329027D01*
X156889092Y-122337191D01*
X156903485Y-122344540D01*
X156917878Y-122351072D01*
X156932271Y-122356787D01*
X156946664Y-122361687D01*
X156961056Y-122365770D01*
X156974534Y-122368916D01*
X156988507Y-122371731D01*
X157002976Y-122374214D01*
X157017942Y-122376367D01*
X157033403Y-122378188D01*
X157049361Y-122379678D01*
X157065815Y-122380837D01*
X157082765Y-122381665D01*
X157100211Y-122382162D01*
X157118153Y-122382327D01*
X157135012Y-122382172D01*
X157151829Y-122381705D01*
X157168602Y-122380928D01*
X157185332Y-122379839D01*
X157202019Y-122378439D01*
X157218663Y-122376729D01*
X157235264Y-122374707D01*
X157251822Y-122372374D01*
X157268337Y-122369730D01*
X157284809Y-122366776D01*
X157301238Y-122363510D01*
X157317624Y-122359933D01*
X157333966Y-122356045D01*
X157350266Y-122351846D01*
X157366523Y-122347336D01*
X157382736Y-122342515D01*
X157398906Y-122337383D01*
X157415034Y-122331940D01*
X157431118Y-122326186D01*
X157447159Y-122320121D01*
X157463158Y-122313745D01*
X157479113Y-122307057D01*
X157495025Y-122300059D01*
X157510894Y-122292750D01*
X157510894Y-122538039D01*
X157494884Y-122544197D01*
X157478826Y-122550104D01*
X157462720Y-122555760D01*
X157446565Y-122561164D01*
X157430361Y-122566317D01*
X157414109Y-122571219D01*
X157397809Y-122575869D01*
X157381459Y-122580268D01*
X157365062Y-122584416D01*
X157348616Y-122588312D01*
X157332121Y-122591957D01*
X157315578Y-122595350D01*
X157298987Y-122598492D01*
X157282347Y-122601383D01*
X157265658Y-122604022D01*
X157248921Y-122606410D01*
X157232135Y-122608547D01*
X157215301Y-122610432D01*
X157198419Y-122612066D01*
X157181487Y-122613448D01*
X157164508Y-122614580D01*
X157147480Y-122615459D01*
X157130403Y-122616088D01*
X157113278Y-122616465D01*
X157096104Y-122616590D01*
X157076782Y-122616418D01*
X157057737Y-122615902D01*
X157038967Y-122615042D01*
X157020473Y-122613837D01*
X157002254Y-122612288D01*
X156984312Y-122610395D01*
X156966646Y-122608158D01*
X156949255Y-122605576D01*
X156932140Y-122602651D01*
X156915301Y-122599381D01*
X156898738Y-122595767D01*
X156882451Y-122591808D01*
X156866440Y-122587506D01*
X156850704Y-122582859D01*
X156835245Y-122577868D01*
X156820061Y-122572533D01*
X156805153Y-122566854D01*
X156790521Y-122560831D01*
X156776165Y-122554463D01*
X156762085Y-122547751D01*
X156748280Y-122540695D01*
X156734752Y-122533295D01*
X156721499Y-122525551D01*
X156708522Y-122517462D01*
X156695821Y-122509029D01*
X156683396Y-122500252D01*
X156671247Y-122491131D01*
X156659374Y-122481666D01*
X156647776Y-122471856D01*
X156636454Y-122461703D01*
X156625408Y-122451205D01*
X156614639Y-122440362D01*
X156604144Y-122429176D01*
X156604145Y-122429157D01*
X156604145Y-122429157D01*
G37*
G36*
X157818197Y-122594521D02*
X157818197Y-120650122D01*
X158075890Y-120650122D01*
X158075890Y-121775982D01*
X158684983Y-121186175D01*
X159035004Y-121186175D01*
X158423156Y-121773216D01*
X159116309Y-122594521D01*
X158773177Y-122594521D01*
X158250901Y-121939953D01*
X158075890Y-122109456D01*
X158075890Y-122594521D01*
X157818197Y-122594521D01*
X157818197Y-122594521D01*
G37*
G36*
X165687579Y-111654438D02*
X164719203Y-111654438D01*
X164601191Y-111426039D01*
X164605263Y-111433186D01*
X164609616Y-111439900D01*
X164614249Y-111446181D01*
X164619164Y-111452029D01*
X164624359Y-111457444D01*
X164629835Y-111462425D01*
X164635592Y-111466973D01*
X164641630Y-111471089D01*
X164647948Y-111474771D01*
X164654548Y-111478019D01*
X164661428Y-111480835D01*
X164668589Y-111483217D01*
X164676031Y-111485167D01*
X164683754Y-111486683D01*
X164691757Y-111487766D01*
X164700041Y-111488415D01*
X164708607Y-111488632D01*
X165174275Y-111488632D01*
X165174263Y-111488632D01*
X165178169Y-111478231D01*
X165181852Y-111467803D01*
X165185312Y-111457347D01*
X165188548Y-111446865D01*
X165191562Y-111436355D01*
X165194352Y-111425818D01*
X165196919Y-111415254D01*
X165199263Y-111404662D01*
X165201383Y-111394043D01*
X165203281Y-111383398D01*
X165204955Y-111372724D01*
X165206406Y-111362024D01*
X165207633Y-111351296D01*
X165208638Y-111340542D01*
X165209419Y-111329760D01*
X165209977Y-111318950D01*
X165210312Y-111308114D01*
X165210423Y-111297250D01*
X165210293Y-111285110D01*
X165209900Y-111273383D01*
X165209246Y-111262070D01*
X165208330Y-111251171D01*
X165207153Y-111240686D01*
X165205714Y-111230614D01*
X165204013Y-111220956D01*
X165202051Y-111211712D01*
X165199827Y-111202882D01*
X165196875Y-111192988D01*
X165193318Y-111183149D01*
X165189155Y-111173364D01*
X165184387Y-111163635D01*
X165179013Y-111153962D01*
X165173034Y-111144343D01*
X165166449Y-111134779D01*
X165159259Y-111125271D01*
X165153529Y-111118529D01*
X165147244Y-111112093D01*
X165140406Y-111105963D01*
X165133015Y-111100139D01*
X165125069Y-111094622D01*
X165116570Y-111089410D01*
X165107517Y-111084505D01*
X165097911Y-111079905D01*
X165087751Y-111075612D01*
X165077037Y-111071625D01*
X165065769Y-111067945D01*
X165057035Y-111065330D01*
X165048004Y-111062896D01*
X165038674Y-111060642D01*
X165029047Y-111058568D01*
X165019122Y-111056675D01*
X165008899Y-111054962D01*
X164998378Y-111053430D01*
X164987559Y-111052077D01*
X164976442Y-111050905D01*
X164965027Y-111049914D01*
X164953315Y-111049102D01*
X164941304Y-111048471D01*
X164928996Y-111048020D01*
X164916390Y-111047750D01*
X164903486Y-111047660D01*
X164890510Y-111047739D01*
X164877815Y-111047977D01*
X164865404Y-111048373D01*
X164853275Y-111048928D01*
X164841428Y-111049641D01*
X164829863Y-111050512D01*
X164818581Y-111051542D01*
X164807582Y-111052731D01*
X164796864Y-111054078D01*
X164786430Y-111055584D01*
X164776277Y-111057247D01*
X164766407Y-111059070D01*
X164756820Y-111061051D01*
X164747515Y-111063190D01*
X164738492Y-111065488D01*
X164729752Y-111067945D01*
X164717395Y-111071618D01*
X164705666Y-111075583D01*
X164694564Y-111079840D01*
X164684089Y-111084388D01*
X164674242Y-111089228D01*
X164665021Y-111094359D01*
X164656428Y-111099782D01*
X164648462Y-111105496D01*
X164641123Y-111111502D01*
X164634411Y-111117800D01*
X164628326Y-111124389D01*
X164620705Y-111133636D01*
X164613718Y-111142855D01*
X164607364Y-111152046D01*
X164601645Y-111161210D01*
X164596560Y-111170347D01*
X164592109Y-111179455D01*
X164588292Y-111188537D01*
X164585109Y-111197590D01*
X164582428Y-111206796D01*
X164580105Y-111216332D01*
X164578138Y-111226198D01*
X164576530Y-111236396D01*
X164575279Y-111246924D01*
X164574385Y-111257783D01*
X164573849Y-111268973D01*
X164573670Y-111280493D01*
X164573810Y-111293705D01*
X164574231Y-111306483D01*
X164574934Y-111318829D01*
X164575916Y-111330741D01*
X164577180Y-111342220D01*
X164578725Y-111353266D01*
X164580550Y-111363879D01*
X164582656Y-111374058D01*
X164585043Y-111383805D01*
X164587711Y-111393118D01*
X164590660Y-111401998D01*
X164593889Y-111410445D01*
X164597400Y-111418458D01*
X164601191Y-111426039D01*
X164719203Y-111654438D01*
X164709526Y-111654291D01*
X164699898Y-111653850D01*
X164690319Y-111653115D01*
X164680788Y-111652086D01*
X164671307Y-111650763D01*
X164661874Y-111649146D01*
X164653252Y-111647310D01*
X164644019Y-111644826D01*
X164634174Y-111641694D01*
X164623716Y-111637915D01*
X164612647Y-111633487D01*
X164600966Y-111628411D01*
X164588674Y-111622688D01*
X164579005Y-111617603D01*
X164569598Y-111612148D01*
X164560452Y-111606323D01*
X164551568Y-111600127D01*
X164542945Y-111593562D01*
X164534583Y-111586626D01*
X164526483Y-111579320D01*
X164518644Y-111571644D01*
X164511066Y-111563597D01*
X164505546Y-111557166D01*
X164500162Y-111550221D01*
X164494912Y-111542761D01*
X164489797Y-111534787D01*
X164484817Y-111526298D01*
X164479972Y-111517295D01*
X164475262Y-111507778D01*
X164470687Y-111497745D01*
X164466247Y-111487199D01*
X164461942Y-111476138D01*
X164457772Y-111464562D01*
X164453737Y-111452472D01*
X164450746Y-111443119D01*
X164447948Y-111433579D01*
X164445344Y-111423854D01*
X164442932Y-111413942D01*
X164440713Y-111403845D01*
X164438687Y-111393561D01*
X164436854Y-111383092D01*
X164435214Y-111372436D01*
X164433767Y-111361594D01*
X164432513Y-111350566D01*
X164431451Y-111339353D01*
X164430583Y-111327953D01*
X164429908Y-111316367D01*
X164429425Y-111304595D01*
X164429136Y-111292637D01*
X164429040Y-111280493D01*
X164429148Y-111269355D01*
X164429474Y-111258281D01*
X164430016Y-111247273D01*
X164430776Y-111236331D01*
X164431753Y-111225453D01*
X164432946Y-111214641D01*
X164434357Y-111203895D01*
X164435985Y-111193213D01*
X164437830Y-111182597D01*
X164439611Y-111173712D01*
X164441757Y-111164696D01*
X164444269Y-111155549D01*
X164447146Y-111146270D01*
X164450389Y-111136860D01*
X164453997Y-111127319D01*
X164457970Y-111117647D01*
X164462309Y-111107843D01*
X164467014Y-111097909D01*
X164472083Y-111087843D01*
X164477519Y-111077646D01*
X164482793Y-111068202D01*
X164488324Y-111058978D01*
X164494113Y-111049975D01*
X164500158Y-111041192D01*
X164506460Y-111032630D01*
X164513020Y-111024288D01*
X164519836Y-111016167D01*
X164526910Y-111008266D01*
X164534241Y-111000586D01*
X164541828Y-110993126D01*
X164549673Y-110985887D01*
X164557775Y-110978868D01*
X164564541Y-110973404D01*
X164571668Y-110968065D01*
X164579155Y-110962852D01*
X164587003Y-110957764D01*
X164595212Y-110952802D01*
X164603781Y-110947965D01*
X164612711Y-110943253D01*
X164622001Y-110938667D01*
X164631652Y-110934206D01*
X164641664Y-110929871D01*
X164652036Y-110925661D01*
X164662769Y-110921577D01*
X164673863Y-110917618D01*
X164685317Y-110913785D01*
X164697131Y-110910076D01*
X164706585Y-110907184D01*
X164716196Y-110904448D01*
X164725962Y-110901868D01*
X164735886Y-110899444D01*
X164745965Y-110897177D01*
X164756201Y-110895066D01*
X164766593Y-110893112D01*
X164777142Y-110891314D01*
X164787847Y-110889672D01*
X164798709Y-110888187D01*
X164809726Y-110886858D01*
X164820900Y-110885685D01*
X164832231Y-110884669D01*
X164843718Y-110883809D01*
X164855361Y-110883105D01*
X164867161Y-110882558D01*
X164879117Y-110882167D01*
X164891229Y-110881932D01*
X164903498Y-110881854D01*
X164916177Y-110881938D01*
X164928681Y-110882190D01*
X164941008Y-110882610D01*
X164953160Y-110883198D01*
X164965135Y-110883954D01*
X164976934Y-110884878D01*
X164988558Y-110885970D01*
X165000005Y-110887230D01*
X165011276Y-110888658D01*
X165022372Y-110890254D01*
X165033291Y-110892018D01*
X165044034Y-110893950D01*
X165054602Y-110896049D01*
X165064993Y-110898317D01*
X165075208Y-110900753D01*
X165085248Y-110903357D01*
X165095111Y-110906129D01*
X165104798Y-110909069D01*
X165114309Y-110912176D01*
X165123645Y-110915452D01*
X165132804Y-110918896D01*
X165144411Y-110923526D01*
X165155638Y-110928377D01*
X165166487Y-110933448D01*
X165176957Y-110938740D01*
X165187048Y-110944252D01*
X165196760Y-110949984D01*
X165206093Y-110955938D01*
X165215047Y-110962111D01*
X165223623Y-110968505D01*
X165231819Y-110975120D01*
X165239636Y-110981955D01*
X165247075Y-110989010D01*
X165254134Y-110996287D01*
X165260815Y-111003783D01*
X165267116Y-111011500D01*
X165273039Y-111019438D01*
X165279459Y-111028648D01*
X165285618Y-111037886D01*
X165291517Y-111047151D01*
X165297154Y-111056443D01*
X165302531Y-111065762D01*
X165307647Y-111075108D01*
X165312502Y-111084481D01*
X165317096Y-111093881D01*
X165321429Y-111103308D01*
X165325502Y-111112762D01*
X165329313Y-111122243D01*
X165332864Y-111131750D01*
X165336154Y-111141285D01*
X165339183Y-111150847D01*
X165341855Y-111160369D01*
X165344330Y-111170034D01*
X165346606Y-111179843D01*
X165348684Y-111189797D01*
X165350565Y-111199894D01*
X165352247Y-111210136D01*
X165353732Y-111220521D01*
X165355019Y-111231050D01*
X165356107Y-111241724D01*
X165356998Y-111252541D01*
X165357691Y-111263502D01*
X165358186Y-111274608D01*
X165358483Y-111285857D01*
X165358582Y-111297250D01*
X165358500Y-111308299D01*
X165358255Y-111319299D01*
X165357847Y-111330249D01*
X165357275Y-111341151D01*
X165356540Y-111352004D01*
X165355642Y-111362808D01*
X165354581Y-111373563D01*
X165353356Y-111384269D01*
X165351968Y-111394925D01*
X165350417Y-111405533D01*
X165348702Y-111416092D01*
X165346824Y-111426602D01*
X165344783Y-111437063D01*
X165342578Y-111447475D01*
X165340210Y-111457837D01*
X165337679Y-111468151D01*
X165334984Y-111478416D01*
X165332127Y-111488632D01*
X165687555Y-111488632D01*
X165687555Y-111654438D01*
X165687579Y-111654438D01*
X165687579Y-111654438D01*
G37*
G36*
X165128421Y-110656958D02*
X164728018Y-110508792D01*
X164736317Y-110511141D01*
X164744899Y-110513339D01*
X164753763Y-110515386D01*
X164762910Y-110517280D01*
X164772339Y-110519024D01*
X164782051Y-110520615D01*
X164792046Y-110522055D01*
X164802323Y-110523344D01*
X164812882Y-110524481D01*
X164823724Y-110525466D01*
X164834848Y-110526300D01*
X164846255Y-110526982D01*
X164857945Y-110527512D01*
X164869916Y-110527891D01*
X164882171Y-110528119D01*
X164894708Y-110528194D01*
X164907248Y-110528119D01*
X164919513Y-110527891D01*
X164931502Y-110527512D01*
X164943215Y-110526982D01*
X164954653Y-110526300D01*
X164965815Y-110525466D01*
X164976702Y-110524481D01*
X164987313Y-110523344D01*
X164997648Y-110522055D01*
X165007708Y-110520615D01*
X165017492Y-110519024D01*
X165027000Y-110517280D01*
X165036233Y-110515386D01*
X165045190Y-110513339D01*
X165053871Y-110511141D01*
X165062277Y-110508792D01*
X165073866Y-110504943D01*
X165084902Y-110500774D01*
X165095383Y-110496284D01*
X165105311Y-110491473D01*
X165114685Y-110486342D01*
X165123505Y-110480890D01*
X165131771Y-110475117D01*
X165139483Y-110469024D01*
X165146641Y-110462610D01*
X165153245Y-110455875D01*
X165159295Y-110448819D01*
X165166088Y-110439989D01*
X165172358Y-110431137D01*
X165178105Y-110422263D01*
X165183331Y-110413367D01*
X165188033Y-110404450D01*
X165192214Y-110395511D01*
X165195872Y-110386550D01*
X165199008Y-110377567D01*
X165201621Y-110368562D01*
X165203845Y-110359340D01*
X165205807Y-110349704D01*
X165207508Y-110339654D01*
X165208947Y-110329191D01*
X165210124Y-110318313D01*
X165211040Y-110307022D01*
X165211694Y-110295318D01*
X165212087Y-110283199D01*
X165212218Y-110270667D01*
X165212087Y-110257949D01*
X165211694Y-110245667D01*
X165211040Y-110233821D01*
X165210124Y-110222410D01*
X165208947Y-110211435D01*
X165207508Y-110200895D01*
X165205807Y-110190791D01*
X165203845Y-110181122D01*
X165201621Y-110171889D01*
X165199005Y-110162884D01*
X165195868Y-110153902D01*
X165192209Y-110144941D01*
X165188028Y-110136001D01*
X165183325Y-110127084D01*
X165178100Y-110118188D01*
X165172354Y-110109314D01*
X165166085Y-110100462D01*
X165159295Y-110091632D01*
X165153245Y-110084584D01*
X165146641Y-110077871D01*
X165139483Y-110071493D01*
X165131771Y-110065451D01*
X165123505Y-110059743D01*
X165114685Y-110054372D01*
X165105311Y-110049335D01*
X165095383Y-110044634D01*
X165084902Y-110040268D01*
X165073866Y-110036237D01*
X165062277Y-110032542D01*
X165053871Y-110030085D01*
X165045190Y-110027787D01*
X165036233Y-110025648D01*
X165027000Y-110023667D01*
X165017492Y-110021845D01*
X165007708Y-110020181D01*
X164997648Y-110018675D01*
X164987313Y-110017328D01*
X164976702Y-110016140D01*
X164965815Y-110015109D01*
X164954653Y-110014238D01*
X164943215Y-110013525D01*
X164931502Y-110012970D01*
X164919513Y-110012574D01*
X164907248Y-110012336D01*
X164894708Y-110012257D01*
X164882171Y-110012336D01*
X164869916Y-110012574D01*
X164857945Y-110012970D01*
X164846255Y-110013525D01*
X164834848Y-110014238D01*
X164823724Y-110015109D01*
X164812882Y-110016140D01*
X164802323Y-110017328D01*
X164792046Y-110018675D01*
X164782051Y-110020181D01*
X164772339Y-110021845D01*
X164762910Y-110023667D01*
X164753763Y-110025648D01*
X164744899Y-110027787D01*
X164736317Y-110030085D01*
X164728018Y-110032542D01*
X164716276Y-110036237D01*
X164705102Y-110040268D01*
X164694497Y-110044634D01*
X164684460Y-110049335D01*
X164674992Y-110054372D01*
X164666092Y-110059743D01*
X164657761Y-110065451D01*
X164649998Y-110071493D01*
X164642804Y-110077871D01*
X164636178Y-110084584D01*
X164630120Y-110091632D01*
X164623328Y-110100462D01*
X164617058Y-110109314D01*
X164611310Y-110118188D01*
X164606085Y-110127084D01*
X164601382Y-110136001D01*
X164597202Y-110144941D01*
X164593543Y-110153902D01*
X164590408Y-110162884D01*
X164587794Y-110171889D01*
X164585571Y-110181122D01*
X164583608Y-110190791D01*
X164581908Y-110200895D01*
X164580469Y-110211435D01*
X164579291Y-110222410D01*
X164578375Y-110233821D01*
X164577721Y-110245667D01*
X164577329Y-110257949D01*
X164577198Y-110270667D01*
X164577329Y-110283199D01*
X164577721Y-110295318D01*
X164578375Y-110307022D01*
X164579291Y-110318313D01*
X164580469Y-110329191D01*
X164581908Y-110339654D01*
X164583608Y-110349704D01*
X164585571Y-110359340D01*
X164587794Y-110368562D01*
X164590410Y-110377567D01*
X164593548Y-110386550D01*
X164597207Y-110395511D01*
X164601388Y-110404450D01*
X164606091Y-110413367D01*
X164611316Y-110422263D01*
X164617062Y-110431137D01*
X164623330Y-110439989D01*
X164630120Y-110448819D01*
X164636178Y-110455875D01*
X164642804Y-110462610D01*
X164649998Y-110469024D01*
X164657761Y-110475117D01*
X164666092Y-110480890D01*
X164674992Y-110486342D01*
X164684460Y-110491473D01*
X164694497Y-110496284D01*
X164705102Y-110500774D01*
X164716276Y-110504943D01*
X164728018Y-110508792D01*
X165128421Y-110656958D01*
X165119596Y-110660328D01*
X165110601Y-110663540D01*
X165101433Y-110666596D01*
X165092095Y-110669495D01*
X165082585Y-110672237D01*
X165072904Y-110674823D01*
X165063052Y-110677252D01*
X165053028Y-110679524D01*
X165042833Y-110681640D01*
X165032467Y-110683599D01*
X165021929Y-110685401D01*
X165011220Y-110687046D01*
X165000340Y-110688535D01*
X164989288Y-110689867D01*
X164978065Y-110691043D01*
X164966671Y-110692061D01*
X164955105Y-110692923D01*
X164943368Y-110693628D01*
X164931460Y-110694177D01*
X164919381Y-110694569D01*
X164907130Y-110694804D01*
X164894708Y-110694882D01*
X164882287Y-110694804D01*
X164870042Y-110694569D01*
X164857972Y-110694177D01*
X164846076Y-110693628D01*
X164834356Y-110692923D01*
X164822810Y-110692061D01*
X164811439Y-110691043D01*
X164800244Y-110689867D01*
X164789223Y-110688535D01*
X164778377Y-110687046D01*
X164767706Y-110685401D01*
X164757210Y-110683599D01*
X164746889Y-110681640D01*
X164736743Y-110679524D01*
X164726772Y-110677252D01*
X164716976Y-110674823D01*
X164707355Y-110672237D01*
X164697909Y-110669495D01*
X164688638Y-110666596D01*
X164679541Y-110663540D01*
X164670620Y-110660328D01*
X164661874Y-110656958D01*
X164650732Y-110652402D01*
X164639927Y-110647657D01*
X164629457Y-110642722D01*
X164619322Y-110637598D01*
X164609523Y-110632285D01*
X164600060Y-110626783D01*
X164590932Y-110621092D01*
X164582140Y-110615211D01*
X164573683Y-110609141D01*
X164565562Y-110602882D01*
X164557776Y-110596434D01*
X164550326Y-110589796D01*
X164543212Y-110582970D01*
X164536433Y-110575954D01*
X164529990Y-110568749D01*
X164523882Y-110561354D01*
X164518110Y-110553771D01*
X164511451Y-110544434D01*
X164505080Y-110535070D01*
X164498996Y-110525679D01*
X164493201Y-110516261D01*
X164487693Y-110506816D01*
X164482474Y-110497344D01*
X164477543Y-110487845D01*
X164472899Y-110478320D01*
X164468544Y-110468767D01*
X164464477Y-110459187D01*
X164460697Y-110449580D01*
X164457206Y-110439946D01*
X164454003Y-110430285D01*
X164451088Y-110420597D01*
X164448294Y-110410707D01*
X164445708Y-110400690D01*
X164443328Y-110390548D01*
X164441156Y-110380280D01*
X164439190Y-110369885D01*
X164437431Y-110359365D01*
X164435879Y-110348719D01*
X164434534Y-110337946D01*
X164433396Y-110327048D01*
X164432465Y-110316024D01*
X164431741Y-110304874D01*
X164431224Y-110293597D01*
X164430913Y-110282195D01*
X164430810Y-110270667D01*
X164430913Y-110259021D01*
X164431224Y-110247520D01*
X164431741Y-110236163D01*
X164432465Y-110224950D01*
X164433396Y-110213880D01*
X164434534Y-110202955D01*
X164435879Y-110192174D01*
X164437431Y-110181536D01*
X164439190Y-110171043D01*
X164441156Y-110160694D01*
X164443328Y-110150488D01*
X164445708Y-110140427D01*
X164448294Y-110130510D01*
X164451088Y-110120736D01*
X164454003Y-110110927D01*
X164457206Y-110101153D01*
X164460697Y-110091416D01*
X164464477Y-110081715D01*
X164468544Y-110072049D01*
X164472899Y-110062420D01*
X164477543Y-110052826D01*
X164482474Y-110043269D01*
X164487693Y-110033748D01*
X164493201Y-110024262D01*
X164498996Y-110014813D01*
X164505080Y-110005399D01*
X164511451Y-109996022D01*
X164518110Y-109986681D01*
X164523882Y-109979097D01*
X164529990Y-109971703D01*
X164536433Y-109964498D01*
X164543212Y-109957482D01*
X164550326Y-109950655D01*
X164557776Y-109944018D01*
X164565562Y-109937569D01*
X164573683Y-109931310D01*
X164582140Y-109925240D01*
X164590932Y-109919360D01*
X164600060Y-109913668D01*
X164609523Y-109908166D01*
X164619322Y-109902853D01*
X164629457Y-109897729D01*
X164639927Y-109892795D01*
X164650732Y-109888049D01*
X164661874Y-109883493D01*
X164670620Y-109880124D01*
X164679541Y-109876911D01*
X164688638Y-109873855D01*
X164697909Y-109870956D01*
X164707355Y-109868214D01*
X164716976Y-109865628D01*
X164726772Y-109863199D01*
X164736743Y-109860927D01*
X164746889Y-109858811D01*
X164757210Y-109856853D01*
X164767706Y-109855050D01*
X164778377Y-109853405D01*
X164789223Y-109851916D01*
X164800244Y-109850584D01*
X164811439Y-109849409D01*
X164822810Y-109848390D01*
X164834356Y-109847528D01*
X164846076Y-109846823D01*
X164857972Y-109846275D01*
X164870042Y-109845883D01*
X164882287Y-109845648D01*
X164894708Y-109845569D01*
X164907130Y-109845648D01*
X164919381Y-109845883D01*
X164931460Y-109846275D01*
X164943368Y-109846823D01*
X164955105Y-109847528D01*
X164966671Y-109848390D01*
X164978065Y-109849409D01*
X164989288Y-109850584D01*
X165000340Y-109851916D01*
X165011220Y-109853405D01*
X165021929Y-109855050D01*
X165032467Y-109856853D01*
X165042833Y-109858811D01*
X165053028Y-109860927D01*
X165063052Y-109863199D01*
X165072904Y-109865628D01*
X165082585Y-109868214D01*
X165092095Y-109870956D01*
X165101433Y-109873855D01*
X165110601Y-109876911D01*
X165119596Y-109880124D01*
X165128421Y-109883493D01*
X165139462Y-109888049D01*
X165150173Y-109892795D01*
X165160555Y-109897729D01*
X165170607Y-109902853D01*
X165180329Y-109908166D01*
X165189722Y-109913668D01*
X165198786Y-109919360D01*
X165207520Y-109925240D01*
X165215924Y-109931310D01*
X165223999Y-109937569D01*
X165231744Y-109944018D01*
X165239159Y-109950655D01*
X165246245Y-109957482D01*
X165253001Y-109964498D01*
X165259428Y-109971703D01*
X165265525Y-109979097D01*
X165271293Y-109986681D01*
X165277957Y-109996022D01*
X165284342Y-110005399D01*
X165290448Y-110014813D01*
X165296275Y-110024262D01*
X165301824Y-110033748D01*
X165307093Y-110043269D01*
X165312084Y-110052826D01*
X165316795Y-110062420D01*
X165321228Y-110072049D01*
X165325381Y-110081715D01*
X165329256Y-110091416D01*
X165332852Y-110101153D01*
X165336169Y-110110927D01*
X165339207Y-110120736D01*
X165341879Y-110130510D01*
X165344354Y-110140427D01*
X165346630Y-110150488D01*
X165348708Y-110160694D01*
X165350589Y-110171043D01*
X165352272Y-110181536D01*
X165353756Y-110192174D01*
X165355043Y-110202955D01*
X165356131Y-110213880D01*
X165357022Y-110224950D01*
X165357715Y-110236163D01*
X165358210Y-110247520D01*
X165358507Y-110259021D01*
X165358606Y-110270667D01*
X165358507Y-110282195D01*
X165358210Y-110293597D01*
X165357715Y-110304874D01*
X165357022Y-110316024D01*
X165356131Y-110327048D01*
X165355043Y-110337946D01*
X165353756Y-110348719D01*
X165352272Y-110359365D01*
X165350589Y-110369885D01*
X165348708Y-110380280D01*
X165346630Y-110390548D01*
X165344354Y-110400690D01*
X165341879Y-110410707D01*
X165339207Y-110420597D01*
X165336169Y-110430285D01*
X165332852Y-110439946D01*
X165329256Y-110449580D01*
X165325381Y-110459187D01*
X165321228Y-110468767D01*
X165316795Y-110478320D01*
X165312084Y-110487845D01*
X165307093Y-110497344D01*
X165301824Y-110506816D01*
X165296275Y-110516261D01*
X165290448Y-110525679D01*
X165284342Y-110535070D01*
X165277957Y-110544434D01*
X165271293Y-110553771D01*
X165265525Y-110561354D01*
X165259428Y-110568749D01*
X165253001Y-110575954D01*
X165246245Y-110582970D01*
X165239159Y-110589796D01*
X165231744Y-110596434D01*
X165223999Y-110602882D01*
X165215924Y-110609141D01*
X165207520Y-110615211D01*
X165198786Y-110621092D01*
X165189722Y-110626783D01*
X165180329Y-110632285D01*
X165170607Y-110637598D01*
X165160555Y-110642722D01*
X165150173Y-110647657D01*
X165139462Y-110652402D01*
X165128421Y-110656958D01*
X165128421Y-110656958D01*
G37*
G36*
X165344493Y-109605681D02*
X164100078Y-109605681D01*
X164100078Y-109439875D01*
X165344493Y-109439875D01*
X165344493Y-109605681D01*
X165344493Y-109605681D01*
G37*
G36*
X164443152Y-109242319D02*
X164443152Y-109065049D01*
X165118715Y-108822514D01*
X164443152Y-108584389D01*
X164443152Y-108407118D01*
X165440632Y-108777535D01*
X165453126Y-108782276D01*
X165465312Y-108787121D01*
X165477189Y-108792070D01*
X165488757Y-108797123D01*
X165500018Y-108802280D01*
X165510969Y-108807541D01*
X165521612Y-108812905D01*
X165531947Y-108818374D01*
X165541973Y-108823946D01*
X165551690Y-108829622D01*
X165561099Y-108835403D01*
X165570200Y-108841287D01*
X165578992Y-108847274D01*
X165587476Y-108853366D01*
X165595651Y-108859562D01*
X165603517Y-108865861D01*
X165611075Y-108872265D01*
X165618325Y-108878772D01*
X165625266Y-108885383D01*
X165631899Y-108892098D01*
X165638223Y-108898917D01*
X165644238Y-108905840D01*
X165649946Y-108912867D01*
X165655344Y-108919997D01*
X165660434Y-108927232D01*
X165665216Y-108934570D01*
X165669689Y-108942012D01*
X165673854Y-108949558D01*
X165677710Y-108957208D01*
X165681258Y-108964962D01*
X165684497Y-108972820D01*
X165687428Y-108980782D01*
X165690050Y-108988847D01*
X165692364Y-108997017D01*
X165694369Y-109005290D01*
X165696065Y-109013667D01*
X165697454Y-109022148D01*
X165698533Y-109030733D01*
X165699305Y-109039422D01*
X165699767Y-109048215D01*
X165699922Y-109057111D01*
X165699922Y-109057990D01*
X165699824Y-109068028D01*
X165699530Y-109078152D01*
X165699040Y-109088362D01*
X165698354Y-109098658D01*
X165697472Y-109109039D01*
X165696393Y-109119506D01*
X165695119Y-109130058D01*
X165693649Y-109140697D01*
X165691983Y-109151421D01*
X165690121Y-109162231D01*
X165688063Y-109173127D01*
X165685809Y-109184108D01*
X165537639Y-109184108D01*
X165540329Y-109173410D01*
X165542755Y-109162836D01*
X165544916Y-109152385D01*
X165546813Y-109142057D01*
X165548446Y-109131853D01*
X165549814Y-109121772D01*
X165550918Y-109111815D01*
X165551757Y-109101982D01*
X165552332Y-109092271D01*
X165552642Y-109082685D01*
X165552411Y-109075265D01*
X165551717Y-109067942D01*
X165550561Y-109060715D01*
X165548942Y-109053584D01*
X165546860Y-109046549D01*
X165544316Y-109039610D01*
X165541310Y-109032768D01*
X165537841Y-109026021D01*
X165533909Y-109019370D01*
X165529515Y-109012815D01*
X165524658Y-109006356D01*
X165519338Y-108999994D01*
X165513556Y-108993727D01*
X165507312Y-108987556D01*
X165500605Y-108981482D01*
X165493435Y-108975503D01*
X165485803Y-108969620D01*
X165477709Y-108963834D01*
X165469151Y-108958143D01*
X165460132Y-108952549D01*
X165450649Y-108947050D01*
X165440704Y-108941648D01*
X165430297Y-108936342D01*
X165419427Y-108931131D01*
X165408094Y-108926017D01*
X165396299Y-108920999D01*
X165384042Y-108916077D01*
X165371321Y-108911250D01*
X165358139Y-108906520D01*
X165344493Y-108901886D01*
X164443152Y-109242317D01*
X164443152Y-109242319D01*
X164443152Y-109242319D01*
G37*
G36*
X164698034Y-108287174D02*
X164686917Y-108286975D01*
X164675968Y-108286380D01*
X164665186Y-108285388D01*
X164654571Y-108283999D01*
X164644125Y-108282213D01*
X164633845Y-108280030D01*
X164623734Y-108277450D01*
X164613790Y-108274474D01*
X164604014Y-108271100D01*
X164594405Y-108267330D01*
X164584964Y-108263163D01*
X164575691Y-108258599D01*
X164566585Y-108253638D01*
X164557647Y-108248280D01*
X164548876Y-108242525D01*
X164540274Y-108236374D01*
X164531838Y-108229825D01*
X164523571Y-108222880D01*
X164515470Y-108215538D01*
X164507538Y-108207799D01*
X164501384Y-108201244D01*
X164495481Y-108194421D01*
X164489829Y-108187330D01*
X164484428Y-108179971D01*
X164479279Y-108172344D01*
X164474380Y-108164449D01*
X164469733Y-108156286D01*
X164465337Y-108147855D01*
X164461193Y-108139155D01*
X164457299Y-108130187D01*
X164453657Y-108120952D01*
X164450266Y-108111448D01*
X164447126Y-108101676D01*
X164444237Y-108091636D01*
X164441599Y-108081328D01*
X164439213Y-108070752D01*
X164437078Y-108059907D01*
X164435194Y-108048795D01*
X164433561Y-108037414D01*
X164432180Y-108025765D01*
X164431049Y-108013848D01*
X164430170Y-108001664D01*
X164429542Y-107989210D01*
X164429165Y-107976489D01*
X164429040Y-107963500D01*
X164429151Y-107952847D01*
X164429486Y-107942207D01*
X164430045Y-107931580D01*
X164430827Y-107920967D01*
X164431832Y-107910367D01*
X164433061Y-107899780D01*
X164434513Y-107889207D01*
X164436188Y-107878647D01*
X164438087Y-107868100D01*
X164440209Y-107857567D01*
X164442555Y-107847047D01*
X164445124Y-107836540D01*
X164447916Y-107826047D01*
X164450932Y-107815567D01*
X164454171Y-107805100D01*
X164457634Y-107794647D01*
X164461320Y-107784207D01*
X164465229Y-107773780D01*
X164469362Y-107763367D01*
X164473718Y-107752967D01*
X164478298Y-107742580D01*
X164483101Y-107732207D01*
X164488127Y-107721847D01*
X164630999Y-107721847D01*
X164625999Y-107732989D01*
X164621242Y-107744070D01*
X164616729Y-107755091D01*
X164612460Y-107766052D01*
X164608435Y-107776954D01*
X164604654Y-107787795D01*
X164601116Y-107798576D01*
X164597823Y-107809298D01*
X164594774Y-107819959D01*
X164591969Y-107830560D01*
X164589407Y-107841102D01*
X164587090Y-107851583D01*
X164585016Y-107862004D01*
X164583187Y-107872366D01*
X164581601Y-107882667D01*
X164580259Y-107892908D01*
X164579162Y-107903090D01*
X164578308Y-107913211D01*
X164577698Y-107923273D01*
X164577332Y-107933274D01*
X164577210Y-107943215D01*
X164577369Y-107956232D01*
X164577844Y-107968757D01*
X164578636Y-107980790D01*
X164579746Y-107992333D01*
X164581172Y-108003385D01*
X164582915Y-108013945D01*
X164584975Y-108024014D01*
X164587352Y-108033592D01*
X164590046Y-108042679D01*
X164593057Y-108051275D01*
X164596385Y-108059379D01*
X164600030Y-108066992D01*
X164603992Y-108074114D01*
X164608271Y-108080745D01*
X164612866Y-108086885D01*
X164617779Y-108092534D01*
X164623008Y-108097691D01*
X164628555Y-108102357D01*
X164634418Y-108106532D01*
X164640599Y-108110216D01*
X164647096Y-108113409D01*
X164653910Y-108116110D01*
X164661042Y-108118321D01*
X164668490Y-108120040D01*
X164676255Y-108121268D01*
X164684337Y-108122004D01*
X164692736Y-108122250D01*
X164701013Y-108121662D01*
X164708984Y-108119898D01*
X164716650Y-108116958D01*
X164724012Y-108112843D01*
X164731068Y-108107551D01*
X164737819Y-108101083D01*
X164744266Y-108093440D01*
X164750407Y-108084620D01*
X164756243Y-108074625D01*
X164760689Y-108065806D01*
X164765048Y-108056665D01*
X164769320Y-108047205D01*
X164773504Y-108037423D01*
X164777600Y-108027321D01*
X164781609Y-108016898D01*
X164785530Y-108006154D01*
X164789363Y-107995090D01*
X164793109Y-107983705D01*
X164796768Y-107971999D01*
X164800339Y-107959972D01*
X164803240Y-107949660D01*
X164806246Y-107939348D01*
X164809356Y-107929036D01*
X164812571Y-107918724D01*
X164815890Y-107908412D01*
X164819314Y-107898100D01*
X164822842Y-107887788D01*
X164826475Y-107877476D01*
X164830212Y-107867165D01*
X164834053Y-107856853D01*
X164837999Y-107846541D01*
X164842050Y-107836229D01*
X164846205Y-107825917D01*
X164850173Y-107816319D01*
X164854519Y-107806928D01*
X164859243Y-107797744D01*
X164864346Y-107788767D01*
X164869826Y-107779997D01*
X164875684Y-107771434D01*
X164881920Y-107763078D01*
X164888534Y-107754929D01*
X164895526Y-107746987D01*
X164902895Y-107739252D01*
X164910643Y-107731724D01*
X164918769Y-107724403D01*
X164927273Y-107717289D01*
X164936155Y-107710382D01*
X164944210Y-107704508D01*
X164952500Y-107699013D01*
X164961023Y-107693897D01*
X164969781Y-107689160D01*
X164978773Y-107684802D01*
X164987999Y-107680823D01*
X164997460Y-107677223D01*
X165007154Y-107674002D01*
X165017083Y-107671159D01*
X165027246Y-107668696D01*
X165037642Y-107666612D01*
X165048274Y-107664907D01*
X165059139Y-107663580D01*
X165070238Y-107662633D01*
X165081572Y-107662064D01*
X165093139Y-107661875D01*
X165103913Y-107662080D01*
X165114536Y-107662695D01*
X165125009Y-107663720D01*
X165135333Y-107665156D01*
X165145506Y-107667001D01*
X165155530Y-107669257D01*
X165165404Y-107671923D01*
X165175127Y-107674998D01*
X165184701Y-107678484D01*
X165194125Y-107682380D01*
X165203399Y-107686686D01*
X165212523Y-107691402D01*
X165221498Y-107696529D01*
X165230322Y-107702065D01*
X165238996Y-107708012D01*
X165247521Y-107714368D01*
X165255895Y-107721135D01*
X165264120Y-107728312D01*
X165272195Y-107735899D01*
X165280119Y-107743896D01*
X165286041Y-107750338D01*
X165291730Y-107757047D01*
X165297187Y-107764021D01*
X165302411Y-107771262D01*
X165307404Y-107778769D01*
X165312164Y-107786542D01*
X165316692Y-107794582D01*
X165320988Y-107802887D01*
X165325052Y-107811458D01*
X165328883Y-107820296D01*
X165332482Y-107829400D01*
X165335849Y-107838770D01*
X165338984Y-107848406D01*
X165341887Y-107858309D01*
X165344557Y-107868477D01*
X165346995Y-107878912D01*
X165349201Y-107889612D01*
X165351175Y-107900579D01*
X165352917Y-107911812D01*
X165354426Y-107923311D01*
X165355703Y-107935077D01*
X165356748Y-107947108D01*
X165357561Y-107959406D01*
X165358141Y-107971970D01*
X165358490Y-107984800D01*
X165358606Y-107997896D01*
X165358506Y-108009420D01*
X165358205Y-108020852D01*
X165357704Y-108032190D01*
X165357003Y-108043435D01*
X165356101Y-108054587D01*
X165354999Y-108065646D01*
X165353697Y-108076612D01*
X165352194Y-108087484D01*
X165350491Y-108098264D01*
X165348587Y-108108950D01*
X165346483Y-108119543D01*
X165344179Y-108130044D01*
X165341675Y-108140450D01*
X165338970Y-108150764D01*
X165336064Y-108160985D01*
X165332958Y-108171113D01*
X165329652Y-108181147D01*
X165326146Y-108191088D01*
X165322439Y-108200936D01*
X165318532Y-108210691D01*
X165314424Y-108220353D01*
X165310116Y-108229922D01*
X165305608Y-108239398D01*
X165300899Y-108248780D01*
X165295990Y-108258069D01*
X165146062Y-108258069D01*
X165151459Y-108248269D01*
X165156626Y-108238416D01*
X165161564Y-108228511D01*
X165166272Y-108218553D01*
X165170751Y-108208544D01*
X165175000Y-108198483D01*
X165179019Y-108188370D01*
X165182808Y-108178204D01*
X165186368Y-108167987D01*
X165189698Y-108157718D01*
X165192799Y-108147396D01*
X165195670Y-108137023D01*
X165198311Y-108126597D01*
X165200722Y-108116119D01*
X165202904Y-108105590D01*
X165204856Y-108095008D01*
X165206579Y-108084374D01*
X165208072Y-108073688D01*
X165209335Y-108062950D01*
X165210368Y-108052160D01*
X165211172Y-108041318D01*
X165211746Y-108030424D01*
X165212091Y-108019477D01*
X165212206Y-108008479D01*
X165212206Y-108004951D01*
X165212023Y-107991899D01*
X165211475Y-107979338D01*
X165210562Y-107967267D01*
X165209284Y-107955687D01*
X165207640Y-107944598D01*
X165205631Y-107933999D01*
X165203257Y-107923890D01*
X165200518Y-107914273D01*
X165197414Y-107905145D01*
X165193944Y-107896508D01*
X165190109Y-107888362D01*
X165185909Y-107880706D01*
X165181343Y-107873541D01*
X165174825Y-107864828D01*
X165167972Y-107857031D01*
X165160784Y-107850152D01*
X165153261Y-107844190D01*
X165145402Y-107839145D01*
X165137209Y-107835018D01*
X165128681Y-107831808D01*
X165119818Y-107829515D01*
X165110620Y-107828139D01*
X165101087Y-107827680D01*
X165091165Y-107828074D01*
X165081608Y-107829255D01*
X165072416Y-107831223D01*
X165063588Y-107833978D01*
X165055125Y-107837520D01*
X165047027Y-107841850D01*
X165039293Y-107846966D01*
X165031924Y-107852870D01*
X165024919Y-107859561D01*
X165018279Y-107867040D01*
X165012004Y-107875305D01*
X165006382Y-107883243D01*
X165000981Y-107891474D01*
X164995801Y-107900000D01*
X164990840Y-107908819D01*
X164986100Y-107917933D01*
X164981581Y-107927340D01*
X164977282Y-107937041D01*
X164973204Y-107947037D01*
X164969345Y-107957326D01*
X164965708Y-107967909D01*
X164962290Y-107978787D01*
X164959094Y-107989958D01*
X164956086Y-108000406D01*
X164953038Y-108010853D01*
X164949947Y-108021301D01*
X164946816Y-108031749D01*
X164943642Y-108042196D01*
X164940427Y-108052644D01*
X164937170Y-108063091D01*
X164933872Y-108073539D01*
X164930532Y-108083987D01*
X164927150Y-108094434D01*
X164923727Y-108104882D01*
X164920262Y-108115330D01*
X164916756Y-108125777D01*
X164912914Y-108135975D01*
X164908718Y-108145942D01*
X164904167Y-108155680D01*
X164899261Y-108165188D01*
X164894001Y-108174467D01*
X164888385Y-108183516D01*
X164882416Y-108192336D01*
X164876091Y-108200925D01*
X164869412Y-108209286D01*
X164862378Y-108217416D01*
X164854990Y-108225317D01*
X164847246Y-108232988D01*
X164839148Y-108240430D01*
X164831717Y-108246455D01*
X164824002Y-108252064D01*
X164816006Y-108257258D01*
X164807727Y-108262036D01*
X164799167Y-108266399D01*
X164790324Y-108270346D01*
X164781198Y-108273877D01*
X164771791Y-108276994D01*
X164762101Y-108279694D01*
X164752129Y-108281980D01*
X164741874Y-108283849D01*
X164731338Y-108285303D01*
X164720519Y-108286342D01*
X164709418Y-108286965D01*
X164698034Y-108287173D01*
X164698034Y-108287174D01*
X164698034Y-108287174D01*
G37*
G36*
X164582496Y-107533111D02*
X164443152Y-107533111D01*
X164443152Y-107376125D01*
X164174158Y-107376125D01*
X164174158Y-107211201D01*
X164443152Y-107211201D01*
X164443152Y-106971312D01*
X164582496Y-106971312D01*
X164582496Y-107211201D01*
X165106373Y-107211201D01*
X165115775Y-107210926D01*
X165124741Y-107210101D01*
X165133268Y-107208725D01*
X165141359Y-107206799D01*
X165149012Y-107204323D01*
X165156228Y-107201296D01*
X165163006Y-107197719D01*
X165169348Y-107193592D01*
X165175252Y-107188914D01*
X165180718Y-107183686D01*
X165185747Y-107177908D01*
X165190339Y-107171579D01*
X165194494Y-107164701D01*
X165198211Y-107157272D01*
X165201491Y-107149292D01*
X165204334Y-107140762D01*
X165206739Y-107131682D01*
X165208707Y-107122052D01*
X165210238Y-107111871D01*
X165211331Y-107101140D01*
X165211987Y-107089859D01*
X165212206Y-107078028D01*
X165212206Y-107076264D01*
X165211941Y-107064102D01*
X165211147Y-107052310D01*
X165209825Y-107040889D01*
X165207973Y-107029838D01*
X165205592Y-107019158D01*
X165202682Y-107008848D01*
X165199242Y-106998908D01*
X165195274Y-106989339D01*
X165190777Y-106980140D01*
X165185750Y-106971312D01*
X165333921Y-106971312D01*
X165337864Y-106981602D01*
X165341463Y-106991891D01*
X165344721Y-107002180D01*
X165347635Y-107012470D01*
X165350206Y-107022759D01*
X165352435Y-107033048D01*
X165354320Y-107043338D01*
X165355863Y-107053627D01*
X165357063Y-107063916D01*
X165357920Y-107074206D01*
X165358434Y-107084495D01*
X165358606Y-107094784D01*
X165358606Y-107099194D01*
X165358444Y-107108607D01*
X165357957Y-107118201D01*
X165357146Y-107127974D01*
X165356011Y-107137928D01*
X165354551Y-107148061D01*
X165352767Y-107158374D01*
X165350658Y-107168868D01*
X165348708Y-107177284D01*
X165346387Y-107186071D01*
X165343697Y-107195228D01*
X165340638Y-107204755D01*
X165337208Y-107214653D01*
X165333410Y-107224920D01*
X165329241Y-107235558D01*
X165324704Y-107246566D01*
X165319796Y-107257944D01*
X165315189Y-107267099D01*
X165310027Y-107275962D01*
X165304312Y-107284534D01*
X165298043Y-107292814D01*
X165291220Y-107300802D01*
X165283842Y-107308499D01*
X165275912Y-107315905D01*
X165267427Y-107323018D01*
X165258388Y-107329841D01*
X165248795Y-107336372D01*
X165238649Y-107342611D01*
X165230194Y-107347227D01*
X165221460Y-107351502D01*
X165212447Y-107355435D01*
X165203155Y-107359026D01*
X165193585Y-107362274D01*
X165183735Y-107365181D01*
X165173607Y-107367746D01*
X165163199Y-107369969D01*
X165152513Y-107371850D01*
X165141548Y-107373389D01*
X165130303Y-107374586D01*
X165118780Y-107375441D01*
X165106978Y-107375954D01*
X165094897Y-107376125D01*
X164582484Y-107376125D01*
X164582484Y-107533111D01*
X164582496Y-107533111D01*
X164582496Y-107533111D01*
G37*
G36*
X165060507Y-106804625D02*
X165058713Y-106640584D01*
X165067872Y-106640385D01*
X165076750Y-106639787D01*
X165085346Y-106638791D01*
X165093660Y-106637396D01*
X165101692Y-106635603D01*
X165109442Y-106633412D01*
X165116911Y-106630822D01*
X165124097Y-106627833D01*
X165131002Y-106624447D01*
X165137625Y-106620661D01*
X165143966Y-106616477D01*
X165150026Y-106611895D01*
X165155803Y-106606915D01*
X165161299Y-106601535D01*
X165166513Y-106595758D01*
X165171445Y-106589582D01*
X165176095Y-106583007D01*
X165180463Y-106576034D01*
X165184550Y-106568663D01*
X165188355Y-106560893D01*
X165191878Y-106552725D01*
X165195119Y-106544158D01*
X165198078Y-106535193D01*
X165200755Y-106525829D01*
X165203151Y-106516067D01*
X165205265Y-106505906D01*
X165207096Y-106495347D01*
X165208647Y-106484390D01*
X165209915Y-106473034D01*
X165210901Y-106461279D01*
X165211606Y-106449127D01*
X165212028Y-106436575D01*
X165212169Y-106423626D01*
X165212169Y-106420980D01*
X165212026Y-106408392D01*
X165211594Y-106396203D01*
X165210875Y-106384414D01*
X165209868Y-106373024D01*
X165208574Y-106362034D01*
X165206992Y-106351444D01*
X165205122Y-106341254D01*
X165202964Y-106331463D01*
X165200519Y-106322071D01*
X165197787Y-106313080D01*
X165194766Y-106304488D01*
X165191458Y-106296295D01*
X165187863Y-106288502D01*
X165183979Y-106281109D01*
X165179808Y-106274116D01*
X165175350Y-106267522D01*
X165170603Y-106261327D01*
X165165569Y-106255533D01*
X165160248Y-106250138D01*
X165154638Y-106245142D01*
X165148741Y-106240547D01*
X165142557Y-106236351D01*
X165136085Y-106232554D01*
X165129325Y-106229157D01*
X165122277Y-106226160D01*
X165114942Y-106223562D01*
X165107319Y-106221364D01*
X165099409Y-106219566D01*
X165091210Y-106218167D01*
X165082725Y-106217168D01*
X165073951Y-106216569D01*
X165064890Y-106216369D01*
X164918478Y-106216369D01*
X164917014Y-106225827D01*
X164915649Y-106235556D01*
X164914384Y-106245554D01*
X164913219Y-106255823D01*
X164912153Y-106266361D01*
X164911186Y-106277169D01*
X164910320Y-106288247D01*
X164909552Y-106299596D01*
X164908884Y-106311214D01*
X164908316Y-106323102D01*
X164907847Y-106335260D01*
X164907478Y-106347689D01*
X164907208Y-106360387D01*
X164907038Y-106373355D01*
X164907183Y-106383758D01*
X164907618Y-106394306D01*
X164908343Y-106404997D01*
X164909358Y-106415832D01*
X164910663Y-106426812D01*
X164912258Y-106437935D01*
X164914143Y-106449202D01*
X164915803Y-106459221D01*
X164917714Y-106469432D01*
X164919875Y-106479836D01*
X164922286Y-106490433D01*
X164924947Y-106501223D01*
X164927859Y-106512206D01*
X164931021Y-106523382D01*
X164934433Y-106534751D01*
X164937797Y-106544746D01*
X164941619Y-106554350D01*
X164945899Y-106563561D01*
X164950635Y-106572381D01*
X164955829Y-106580808D01*
X164961480Y-106588843D01*
X164967589Y-106596487D01*
X164974155Y-106603739D01*
X164981178Y-106610598D01*
X164989529Y-106617626D01*
X164998265Y-106623717D01*
X165007388Y-106628871D01*
X165016896Y-106633088D01*
X165026789Y-106636367D01*
X165037069Y-106638710D01*
X165047734Y-106640116D01*
X165058785Y-106640584D01*
X165058713Y-106640584D01*
X165060507Y-106804625D01*
X165049439Y-106804429D01*
X165038576Y-106803841D01*
X165027919Y-106802861D01*
X165017466Y-106801489D01*
X165007219Y-106799725D01*
X164997176Y-106797569D01*
X164987339Y-106795022D01*
X164977707Y-106792082D01*
X164968280Y-106788750D01*
X164959058Y-106785026D01*
X164950042Y-106780910D01*
X164941230Y-106776403D01*
X164932624Y-106771503D01*
X164924222Y-106766211D01*
X164916026Y-106760528D01*
X164908035Y-106754452D01*
X164900249Y-106747984D01*
X164892668Y-106741125D01*
X164885293Y-106733873D01*
X164878122Y-106726230D01*
X164871157Y-106718194D01*
X164864396Y-106709767D01*
X164857841Y-106700947D01*
X164851491Y-106691736D01*
X164846519Y-106684115D01*
X164841715Y-106676304D01*
X164837080Y-106668303D01*
X164832613Y-106660111D01*
X164828315Y-106651730D01*
X164824185Y-106643159D01*
X164820224Y-106634397D01*
X164816432Y-106625445D01*
X164812808Y-106616303D01*
X164809352Y-106606971D01*
X164806066Y-106597449D01*
X164802947Y-106587737D01*
X164799998Y-106577835D01*
X164797217Y-106567742D01*
X164794604Y-106557460D01*
X164792160Y-106546987D01*
X164789884Y-106536325D01*
X164787777Y-106525472D01*
X164785839Y-106514429D01*
X164784069Y-106503196D01*
X164782468Y-106491773D01*
X164781035Y-106480160D01*
X164779771Y-106468356D01*
X164778676Y-106456363D01*
X164777749Y-106444179D01*
X164776990Y-106431805D01*
X164776400Y-106419242D01*
X164775979Y-106406488D01*
X164775726Y-106393544D01*
X164775642Y-106380410D01*
X164775689Y-106369144D01*
X164775830Y-106357926D01*
X164776065Y-106346755D01*
X164776395Y-106335630D01*
X164776819Y-106324553D01*
X164777337Y-106313523D01*
X164777949Y-106302540D01*
X164778656Y-106291604D01*
X164779456Y-106280715D01*
X164780351Y-106269873D01*
X164781340Y-106259078D01*
X164782423Y-106248330D01*
X164783601Y-106237629D01*
X164784872Y-106226975D01*
X164786238Y-106216368D01*
X164773076Y-106217171D01*
X164760360Y-106218333D01*
X164748089Y-106219856D01*
X164736264Y-106221739D01*
X164724884Y-106223982D01*
X164713950Y-106226585D01*
X164703461Y-106229549D01*
X164693418Y-106232872D01*
X164683820Y-106236555D01*
X164674668Y-106240599D01*
X164665961Y-106245002D01*
X164657700Y-106249766D01*
X164649884Y-106254890D01*
X164642514Y-106260374D01*
X164635589Y-106266218D01*
X164629110Y-106272422D01*
X164623076Y-106278986D01*
X164618015Y-106285130D01*
X164613227Y-106291680D01*
X164608713Y-106298636D01*
X164604472Y-106305997D01*
X164600505Y-106313763D01*
X164596812Y-106321935D01*
X164593392Y-106330513D01*
X164590246Y-106339496D01*
X164587373Y-106348884D01*
X164584774Y-106358679D01*
X164582449Y-106368878D01*
X164580397Y-106379484D01*
X164578618Y-106390495D01*
X164577114Y-106401911D01*
X164575883Y-106413733D01*
X164574925Y-106425960D01*
X164574241Y-106438594D01*
X164573831Y-106451632D01*
X164573694Y-106465076D01*
X164573779Y-106475305D01*
X164574034Y-106485589D01*
X164574459Y-106495931D01*
X164575054Y-106506329D01*
X164575819Y-106516784D01*
X164576755Y-106527296D01*
X164577860Y-106537864D01*
X164579135Y-106548489D01*
X164580580Y-106559171D01*
X164582196Y-106569909D01*
X164583981Y-106580704D01*
X164585937Y-106591556D01*
X164588062Y-106602465D01*
X164590358Y-106613430D01*
X164592823Y-106624452D01*
X164595459Y-106635530D01*
X164598264Y-106646665D01*
X164601240Y-106657857D01*
X164604386Y-106669106D01*
X164607701Y-106680411D01*
X164611187Y-106691773D01*
X164614843Y-106703191D01*
X164618669Y-106714667D01*
X164477555Y-106714667D01*
X164473752Y-106704409D01*
X164470105Y-106694098D01*
X164466612Y-106683734D01*
X164463275Y-106673315D01*
X164460094Y-106662844D01*
X164457067Y-106652318D01*
X164454196Y-106641739D01*
X164451479Y-106631106D01*
X164448919Y-106620420D01*
X164446513Y-106609680D01*
X164444262Y-106598886D01*
X164442167Y-106588039D01*
X164440227Y-106577138D01*
X164438442Y-106566184D01*
X164436812Y-106555176D01*
X164435338Y-106544114D01*
X164434018Y-106532999D01*
X164432854Y-106521830D01*
X164431845Y-106510607D01*
X164430992Y-106499331D01*
X164430293Y-106488001D01*
X164429750Y-106476618D01*
X164429362Y-106465181D01*
X164429129Y-106453690D01*
X164429052Y-106442146D01*
X164429160Y-106429717D01*
X164429487Y-106417479D01*
X164430031Y-106405430D01*
X164430792Y-106393572D01*
X164431771Y-106381904D01*
X164432968Y-106370426D01*
X164434382Y-106359138D01*
X164436013Y-106348040D01*
X164437862Y-106337133D01*
X164439929Y-106326415D01*
X164442213Y-106315888D01*
X164444715Y-106305550D01*
X164447435Y-106295403D01*
X164450371Y-106285446D01*
X164453526Y-106275679D01*
X164456898Y-106266102D01*
X164460488Y-106256715D01*
X164464295Y-106247518D01*
X164468319Y-106238512D01*
X164472562Y-106229695D01*
X164477021Y-106221069D01*
X164481699Y-106212633D01*
X164486593Y-106204386D01*
X164491706Y-106196330D01*
X164497036Y-106188464D01*
X164502583Y-106180788D01*
X164508348Y-106173303D01*
X164514331Y-106166007D01*
X164520531Y-106158902D01*
X164526949Y-106151986D01*
X164533742Y-106145052D01*
X164540738Y-106138362D01*
X164547937Y-106131914D01*
X164555340Y-106125710D01*
X164562946Y-106119749D01*
X164570756Y-106114032D01*
X164578769Y-106108558D01*
X164586986Y-106103327D01*
X164595406Y-106098340D01*
X164604030Y-106093595D01*
X164612856Y-106089094D01*
X164621887Y-106084837D01*
X164631121Y-106080822D01*
X164640558Y-106077051D01*
X164650199Y-106073523D01*
X164660043Y-106070239D01*
X164670090Y-106067198D01*
X164680341Y-106064400D01*
X164690795Y-106061845D01*
X164701453Y-106059534D01*
X164712315Y-106057466D01*
X164723379Y-106055641D01*
X164734647Y-106054060D01*
X164746119Y-106052722D01*
X164757794Y-106051627D01*
X164769672Y-106050775D01*
X164781754Y-106050167D01*
X164794039Y-106049802D01*
X164806528Y-106049680D01*
X165066696Y-106049680D01*
X165076398Y-106049852D01*
X165086099Y-106050366D01*
X165095801Y-106051224D01*
X165105502Y-106052424D01*
X165115203Y-106053968D01*
X165124905Y-106055854D01*
X165133311Y-106057708D01*
X165142401Y-106060246D01*
X165152174Y-106063468D01*
X165162631Y-106067374D01*
X165173772Y-106071963D01*
X165185597Y-106077237D01*
X165198105Y-106083194D01*
X165207960Y-106088094D01*
X165217532Y-106093386D01*
X165226821Y-106099069D01*
X165235827Y-106105145D01*
X165244549Y-106111613D01*
X165252987Y-106118472D01*
X165261143Y-106125724D01*
X165269015Y-106133367D01*
X165276603Y-106141403D01*
X165282127Y-106147834D01*
X165287529Y-106154779D01*
X165292808Y-106162239D01*
X165297965Y-106170213D01*
X165302999Y-106178702D01*
X165307911Y-106187705D01*
X165312701Y-106197222D01*
X165317368Y-106207255D01*
X165321912Y-106217801D01*
X165326335Y-106228862D01*
X165330634Y-106240438D01*
X165334812Y-106252528D01*
X165337695Y-106261878D01*
X165340391Y-106271407D01*
X165342902Y-106281115D01*
X165345227Y-106291003D01*
X165347366Y-106301069D01*
X165349319Y-106311315D01*
X165351086Y-106321740D01*
X165352666Y-106332344D01*
X165354061Y-106343127D01*
X165355270Y-106354089D01*
X165356293Y-106365231D01*
X165357130Y-106376551D01*
X165357781Y-106388051D01*
X165358246Y-106399730D01*
X165358525Y-106411588D01*
X165358618Y-106423625D01*
X165358521Y-106435986D01*
X165358232Y-106448154D01*
X165357750Y-106460129D01*
X165357075Y-106471911D01*
X165356207Y-106483501D01*
X165355147Y-106494897D01*
X165353893Y-106506101D01*
X165352447Y-106517111D01*
X165350807Y-106527929D01*
X165348975Y-106538553D01*
X165346950Y-106548985D01*
X165344733Y-106559224D01*
X165342322Y-106569270D01*
X165339718Y-106579123D01*
X165336922Y-106588783D01*
X165333933Y-106598250D01*
X165329613Y-106610487D01*
X165325183Y-106622209D01*
X165320644Y-106633417D01*
X165315994Y-106644111D01*
X165311234Y-106654290D01*
X165306364Y-106663955D01*
X165301384Y-106673105D01*
X165296294Y-106681741D01*
X165291094Y-106689862D01*
X165285784Y-106697469D01*
X165280363Y-106704561D01*
X165274833Y-106711139D01*
X165268007Y-106718574D01*
X165260934Y-106725709D01*
X165253614Y-106732544D01*
X165246047Y-106739079D01*
X165238233Y-106745314D01*
X165230172Y-106751250D01*
X165221863Y-106756885D01*
X165213308Y-106762221D01*
X165204505Y-106767257D01*
X165195456Y-106771993D01*
X165184240Y-106777243D01*
X165173521Y-106781970D01*
X165163297Y-106786173D01*
X165153570Y-106789852D01*
X165144338Y-106793008D01*
X165135602Y-106795640D01*
X165127362Y-106797749D01*
X165119619Y-106799333D01*
X165109645Y-106800950D01*
X165099721Y-106802273D01*
X165089846Y-106803302D01*
X165080021Y-106804037D01*
X165070245Y-106804479D01*
X165060519Y-106804626D01*
X165060507Y-106804625D01*
X165060507Y-106804625D01*
G37*
G36*
X165238661Y-105753347D02*
X165231720Y-105759507D01*
X165224607Y-105765489D01*
X165217321Y-105771291D01*
X165209862Y-105776916D01*
X165202231Y-105782361D01*
X165194426Y-105787629D01*
X165186449Y-105792717D01*
X165178299Y-105797627D01*
X165169977Y-105802359D01*
X165161481Y-105806912D01*
X165152813Y-105811286D01*
X165143972Y-105815482D01*
X165134958Y-105819500D01*
X165125771Y-105823338D01*
X165116412Y-105826999D01*
X165106880Y-105830480D01*
X165097175Y-105833783D01*
X165087297Y-105836908D01*
X165077246Y-105839854D01*
X165067023Y-105842622D01*
X165056627Y-105845211D01*
X165046058Y-105847621D01*
X165035316Y-105849853D01*
X165024401Y-105851906D01*
X165013314Y-105853781D01*
X165002054Y-105855477D01*
X164990621Y-105856995D01*
X164979015Y-105858334D01*
X164967237Y-105859494D01*
X164955286Y-105860476D01*
X164943162Y-105861280D01*
X164930865Y-105861905D01*
X164918395Y-105862351D01*
X164905753Y-105862619D01*
X164892938Y-105862708D01*
X164880123Y-105862619D01*
X164867483Y-105862351D01*
X164855017Y-105861905D01*
X164842725Y-105861280D01*
X164830608Y-105860476D01*
X164818665Y-105859494D01*
X164806896Y-105858334D01*
X164795301Y-105856995D01*
X164783880Y-105855477D01*
X164772634Y-105853781D01*
X164761562Y-105851906D01*
X164750664Y-105849853D01*
X164739941Y-105847621D01*
X164729391Y-105845211D01*
X164719016Y-105842622D01*
X164708815Y-105839854D01*
X164698789Y-105836908D01*
X164688936Y-105833783D01*
X164679258Y-105830480D01*
X164669754Y-105826999D01*
X164660425Y-105823338D01*
X164651269Y-105819500D01*
X164642288Y-105815482D01*
X164633481Y-105811286D01*
X164624849Y-105806912D01*
X164616390Y-105802359D01*
X164608106Y-105797627D01*
X164599996Y-105792717D01*
X164592061Y-105787629D01*
X164584299Y-105782361D01*
X164576712Y-105776916D01*
X164569299Y-105771291D01*
X164562060Y-105765489D01*
X164554996Y-105759507D01*
X164548106Y-105753347D01*
X164540999Y-105746631D01*
X164534111Y-105739738D01*
X164527441Y-105732669D01*
X164520991Y-105725423D01*
X164514759Y-105718001D01*
X164508745Y-105710402D01*
X164502950Y-105702626D01*
X164497374Y-105694674D01*
X164492017Y-105686545D01*
X164486878Y-105678240D01*
X164481958Y-105669758D01*
X164477256Y-105661100D01*
X164472774Y-105652265D01*
X164468510Y-105643254D01*
X164464464Y-105634066D01*
X164460638Y-105624702D01*
X164457029Y-105615161D01*
X164453640Y-105605443D01*
X164450469Y-105595549D01*
X164447517Y-105585478D01*
X164444784Y-105575231D01*
X164442269Y-105564807D01*
X164439973Y-105554207D01*
X164437896Y-105543430D01*
X164436037Y-105532476D01*
X164434397Y-105521346D01*
X164432976Y-105510040D01*
X164431773Y-105498557D01*
X164430789Y-105486897D01*
X164430024Y-105475061D01*
X164429477Y-105463048D01*
X164429149Y-105450859D01*
X164429040Y-105438493D01*
X164429120Y-105427502D01*
X164429361Y-105416542D01*
X164429764Y-105405613D01*
X164430327Y-105394715D01*
X164431051Y-105383848D01*
X164431935Y-105373012D01*
X164432981Y-105362207D01*
X164434188Y-105351433D01*
X164435555Y-105340690D01*
X164437083Y-105329979D01*
X164438772Y-105319298D01*
X164440623Y-105308648D01*
X164442633Y-105298030D01*
X164444805Y-105287442D01*
X164447138Y-105276885D01*
X164449632Y-105266360D01*
X164452286Y-105255866D01*
X164455101Y-105245402D01*
X164458077Y-105234970D01*
X164461214Y-105224569D01*
X164464512Y-105214198D01*
X164467971Y-105203859D01*
X164471591Y-105193551D01*
X164475371Y-105183274D01*
X164479313Y-105173028D01*
X164636298Y-105173028D01*
X164631476Y-105183248D01*
X164626860Y-105193478D01*
X164622449Y-105203717D01*
X164618243Y-105213965D01*
X164614242Y-105224222D01*
X164610447Y-105234488D01*
X164606856Y-105244764D01*
X164603471Y-105255049D01*
X164600291Y-105265342D01*
X164597316Y-105275646D01*
X164594546Y-105285958D01*
X164591982Y-105296279D01*
X164589623Y-105306610D01*
X164587468Y-105316950D01*
X164585519Y-105327299D01*
X164583775Y-105337657D01*
X164582237Y-105348025D01*
X164580903Y-105358401D01*
X164579775Y-105368787D01*
X164578851Y-105379182D01*
X164578133Y-105389586D01*
X164577620Y-105400000D01*
X164577313Y-105410422D01*
X164577210Y-105420854D01*
X164577210Y-105424382D01*
X164577371Y-105436683D01*
X164577854Y-105448715D01*
X164578658Y-105460478D01*
X164579785Y-105471972D01*
X164581233Y-105483197D01*
X164583004Y-105494153D01*
X164585096Y-105504840D01*
X164587510Y-105515258D01*
X164590246Y-105525407D01*
X164593303Y-105535287D01*
X164596683Y-105544898D01*
X164600385Y-105554240D01*
X164604408Y-105563313D01*
X164608753Y-105572117D01*
X164613420Y-105580652D01*
X164618409Y-105588918D01*
X164623720Y-105596915D01*
X164629353Y-105604643D01*
X164635307Y-105612102D01*
X164641584Y-105619292D01*
X164646653Y-105624615D01*
X164652090Y-105629729D01*
X164657895Y-105634635D01*
X164664067Y-105639331D01*
X164670608Y-105643819D01*
X164677516Y-105648099D01*
X164684793Y-105652169D01*
X164692437Y-105656031D01*
X164700449Y-105659684D01*
X164708829Y-105663128D01*
X164717576Y-105666364D01*
X164726692Y-105669391D01*
X164736176Y-105672209D01*
X164746027Y-105674818D01*
X164756246Y-105677218D01*
X164766833Y-105679410D01*
X164777788Y-105681393D01*
X164789111Y-105683168D01*
X164800802Y-105684733D01*
X164812861Y-105686090D01*
X164825287Y-105687238D01*
X164838082Y-105688178D01*
X164851244Y-105688908D01*
X164864774Y-105689430D01*
X164878672Y-105689743D01*
X164892938Y-105689848D01*
X164906078Y-105689757D01*
X164918920Y-105689487D01*
X164931464Y-105689036D01*
X164943710Y-105688405D01*
X164955658Y-105687594D01*
X164967308Y-105686602D01*
X164978660Y-105685430D01*
X164989714Y-105684078D01*
X165000470Y-105682545D01*
X165010928Y-105680832D01*
X165021088Y-105678939D01*
X165030950Y-105676865D01*
X165040515Y-105674611D01*
X165049781Y-105672177D01*
X165058749Y-105669563D01*
X165070338Y-105665554D01*
X165081374Y-105661224D01*
X165091855Y-105656574D01*
X165101783Y-105651603D01*
X165111157Y-105646312D01*
X165119977Y-105640699D01*
X165128242Y-105634766D01*
X165135954Y-105628512D01*
X165143113Y-105621938D01*
X165149717Y-105615043D01*
X165155767Y-105607827D01*
X165162560Y-105598615D01*
X165168830Y-105589404D01*
X165174577Y-105580192D01*
X165179802Y-105570981D01*
X165184505Y-105561770D01*
X165188686Y-105552558D01*
X165192344Y-105543347D01*
X165195480Y-105534135D01*
X165198093Y-105524924D01*
X165200106Y-105516298D01*
X165201908Y-105507356D01*
X165203497Y-105498095D01*
X165204875Y-105488517D01*
X165206040Y-105478622D01*
X165206994Y-105468409D01*
X165207736Y-105457879D01*
X165208266Y-105447031D01*
X165208583Y-105435865D01*
X165208689Y-105424382D01*
X165208590Y-105413592D01*
X165208291Y-105402830D01*
X165207794Y-105392095D01*
X165207097Y-105381387D01*
X165206201Y-105370708D01*
X165205106Y-105360055D01*
X165203812Y-105349431D01*
X165202319Y-105338834D01*
X165200627Y-105328264D01*
X165198736Y-105317722D01*
X165196646Y-105307208D01*
X165194357Y-105296721D01*
X165191869Y-105286261D01*
X165189181Y-105275830D01*
X165186295Y-105265426D01*
X165183210Y-105255049D01*
X165179925Y-105244700D01*
X165176442Y-105234378D01*
X165172759Y-105224084D01*
X165168877Y-105213818D01*
X165164796Y-105203579D01*
X165160517Y-105193368D01*
X165156038Y-105183184D01*
X165151360Y-105173028D01*
X165308345Y-105173028D01*
X165312286Y-105183274D01*
X165316067Y-105193551D01*
X165319686Y-105203859D01*
X165323145Y-105214199D01*
X165326443Y-105224569D01*
X165329580Y-105234970D01*
X165332556Y-105245403D01*
X165335372Y-105255866D01*
X165338026Y-105266360D01*
X165340520Y-105276886D01*
X165342852Y-105287442D01*
X165345024Y-105298030D01*
X165347035Y-105308649D01*
X165348885Y-105319298D01*
X165350574Y-105329979D01*
X165352102Y-105340691D01*
X165353470Y-105351433D01*
X165354676Y-105362207D01*
X165355722Y-105373012D01*
X165356607Y-105383848D01*
X165357331Y-105394715D01*
X165357894Y-105405613D01*
X165358296Y-105416542D01*
X165358537Y-105427502D01*
X165358618Y-105438493D01*
X165358508Y-105450859D01*
X165358177Y-105463049D01*
X165357627Y-105475061D01*
X165356856Y-105486897D01*
X165355864Y-105498557D01*
X165354653Y-105510040D01*
X165353221Y-105521347D01*
X165351569Y-105532477D01*
X165349696Y-105543430D01*
X165347604Y-105554207D01*
X165345291Y-105564807D01*
X165342757Y-105575231D01*
X165340004Y-105585478D01*
X165337030Y-105595549D01*
X165333836Y-105605443D01*
X165330421Y-105615161D01*
X165326787Y-105624702D01*
X165322932Y-105634066D01*
X165318856Y-105643254D01*
X165314561Y-105652266D01*
X165310045Y-105661101D01*
X165305309Y-105669759D01*
X165300352Y-105678241D01*
X165295176Y-105686546D01*
X165289779Y-105694674D01*
X165284162Y-105702626D01*
X165278324Y-105710402D01*
X165272266Y-105718001D01*
X165265988Y-105725423D01*
X165259490Y-105732669D01*
X165252771Y-105739739D01*
X165245832Y-105746631D01*
X165238673Y-105753348D01*
X165238661Y-105753347D01*
X165238661Y-105753347D01*
G37*
G36*
X165344493Y-104976354D02*
X164100078Y-104976354D01*
X164100078Y-104811430D01*
X164820629Y-104811430D01*
X164443152Y-104421611D01*
X164443152Y-104197597D01*
X164818858Y-104589180D01*
X165344493Y-104145562D01*
X165344493Y-104365167D01*
X164925570Y-104699423D01*
X165034052Y-104811430D01*
X165344493Y-104811430D01*
X165344493Y-104976354D01*
X165344493Y-104976354D01*
G37*
D14*
X163916667Y-118778571D02*
X163583333Y-118778571D01*
X163583333Y-119302381D02*
X163583333Y-118302381D01*
X164059524Y-118302381D01*
X164345238Y-118302381D02*
X164964286Y-118302381D01*
X164630952Y-118683333D01*
X164773810Y-118683333D01*
X164869048Y-118730952D01*
X164916667Y-118778571D01*
X164964286Y-118873810D01*
X164964286Y-119111905D01*
X164916667Y-119207143D01*
X164869048Y-119254762D01*
X164773810Y-119302381D01*
X164488095Y-119302381D01*
X164392857Y-119254762D01*
X164345238Y-119207143D01*
X135066667Y-93828571D02*
X134733333Y-93828571D01*
X134733333Y-94352381D02*
X134733333Y-93352381D01*
X135209524Y-93352381D01*
X135542857Y-93447619D02*
X135590476Y-93400000D01*
X135685714Y-93352381D01*
X135923810Y-93352381D01*
X136019048Y-93400000D01*
X136066667Y-93447619D01*
X136114286Y-93542857D01*
X136114286Y-93638095D01*
X136066667Y-93780952D01*
X135495238Y-94352381D01*
X136114286Y-94352381D01*
X142711905Y-99302381D02*
X142711905Y-98302381D01*
X143092858Y-98302381D01*
X143188096Y-98350000D01*
X143235715Y-98397619D01*
X143283334Y-98492857D01*
X143283334Y-98635714D01*
X143235715Y-98730952D01*
X143188096Y-98778571D01*
X143092858Y-98826190D01*
X142711905Y-98826190D01*
X143664286Y-98397619D02*
X143711905Y-98350000D01*
X143807143Y-98302381D01*
X144045239Y-98302381D01*
X144140477Y-98350000D01*
X144188096Y-98397619D01*
X144235715Y-98492857D01*
X144235715Y-98588095D01*
X144188096Y-98730952D01*
X143616667Y-99302381D01*
X144235715Y-99302381D01*
X142511905Y-115852381D02*
X142511905Y-114852381D01*
X142892858Y-114852381D01*
X142988096Y-114900000D01*
X143035715Y-114947619D01*
X143083334Y-115042857D01*
X143083334Y-115185714D01*
X143035715Y-115280952D01*
X142988096Y-115328571D01*
X142892858Y-115376190D01*
X142511905Y-115376190D01*
X143416667Y-114852381D02*
X144035715Y-114852381D01*
X143702381Y-115233333D01*
X143845239Y-115233333D01*
X143940477Y-115280952D01*
X143988096Y-115328571D01*
X144035715Y-115423810D01*
X144035715Y-115661905D01*
X143988096Y-115757143D01*
X143940477Y-115804762D01*
X143845239Y-115852381D01*
X143559524Y-115852381D01*
X143464286Y-115804762D01*
X143416667Y-115757143D01*
X135616667Y-121728571D02*
X135283333Y-121728571D01*
X135283333Y-122252381D02*
X135283333Y-121252381D01*
X135759524Y-121252381D01*
X136664286Y-122252381D02*
X136092857Y-122252381D01*
X136378571Y-122252381D02*
X136378571Y-121252381D01*
X136283333Y-121395238D01*
X136188095Y-121490476D01*
X136092857Y-121538095D01*
M02*
