G04 #@! TF.FileFunction,Soldermask,Top*
%FSLAX46Y46*%
G04 Gerber Fmt 4.6, Leading zero omitted, Abs format (unit mm)*
G04 Created by KiCad (PCBNEW 4.0.1-stable) date Monday, April 04, 2016 'PMt' 01:11:27 PM*
%MOMM*%
G01*
G04 APERTURE LIST*
%ADD10C,0.100000*%
%ADD11C,0.010000*%
%ADD12C,2.000000*%
%ADD13R,1.100000X0.600000*%
%ADD14R,1.901140X0.798780*%
%ADD15R,2.432000X2.127200*%
%ADD16O,2.432000X2.127200*%
%ADD17C,1.924000*%
G04 APERTURE END LIST*
D10*
D11*
G36*
X141391031Y-91643103D02*
X141428866Y-91644878D01*
X141464763Y-91647950D01*
X141500412Y-91652451D01*
X141537499Y-91658512D01*
X141562537Y-91663226D01*
X141599505Y-91670873D01*
X141634770Y-91679056D01*
X141669378Y-91688108D01*
X141704376Y-91698364D01*
X141740809Y-91710156D01*
X141779722Y-91723818D01*
X141822161Y-91739684D01*
X141869173Y-91758088D01*
X141904737Y-91772406D01*
X141951958Y-91791805D01*
X141999898Y-91811943D01*
X142048959Y-91833011D01*
X142099547Y-91855199D01*
X142152066Y-91878695D01*
X142206921Y-91903689D01*
X142264514Y-91930372D01*
X142325251Y-91958932D01*
X142389536Y-91989559D01*
X142457773Y-92022442D01*
X142530365Y-92057772D01*
X142607719Y-92095737D01*
X142690236Y-92136528D01*
X142778323Y-92180333D01*
X142836085Y-92209177D01*
X142917799Y-92249964D01*
X142993732Y-92287698D01*
X143064358Y-92322596D01*
X143130149Y-92354875D01*
X143191577Y-92384752D01*
X143249115Y-92412444D01*
X143303235Y-92438167D01*
X143354409Y-92462138D01*
X143403111Y-92484575D01*
X143449811Y-92505695D01*
X143494982Y-92525714D01*
X143539097Y-92544848D01*
X143582629Y-92563316D01*
X143626049Y-92581334D01*
X143669829Y-92599119D01*
X143714443Y-92616888D01*
X143760363Y-92634857D01*
X143777542Y-92641509D01*
X143801524Y-92650793D01*
X143823788Y-92659455D01*
X143843348Y-92667109D01*
X143859219Y-92673366D01*
X143870414Y-92677840D01*
X143875784Y-92680070D01*
X143885832Y-92684573D01*
X143870698Y-92703849D01*
X143858889Y-92717902D01*
X143842920Y-92735482D01*
X143823921Y-92755449D01*
X143803023Y-92776663D01*
X143781357Y-92797986D01*
X143760055Y-92818277D01*
X143740246Y-92836397D01*
X143731681Y-92843920D01*
X143656102Y-92905039D01*
X143574352Y-92963238D01*
X143486747Y-93018375D01*
X143393601Y-93070306D01*
X143295231Y-93118886D01*
X143191952Y-93163973D01*
X143084079Y-93205422D01*
X142971928Y-93243091D01*
X142855814Y-93276835D01*
X142736054Y-93306510D01*
X142696278Y-93315281D01*
X142637253Y-93327567D01*
X142583414Y-93338013D01*
X142533205Y-93346877D01*
X142485074Y-93354413D01*
X142437469Y-93360877D01*
X142388835Y-93366526D01*
X142378778Y-93367588D01*
X142358732Y-93369185D01*
X142333512Y-93370438D01*
X142304439Y-93371348D01*
X142272833Y-93371913D01*
X142240014Y-93372134D01*
X142207303Y-93372011D01*
X142176020Y-93371543D01*
X142147485Y-93370730D01*
X142123019Y-93369572D01*
X142103941Y-93368069D01*
X142100083Y-93367629D01*
X142029587Y-93356359D01*
X141964668Y-93340777D01*
X141905314Y-93320875D01*
X141851511Y-93296642D01*
X141803246Y-93268071D01*
X141760506Y-93235152D01*
X141723275Y-93197875D01*
X141691542Y-93156233D01*
X141665292Y-93110216D01*
X141645814Y-93063556D01*
X141636564Y-93035336D01*
X141629950Y-93009790D01*
X141625611Y-92984670D01*
X141623189Y-92957726D01*
X141622323Y-92926710D01*
X141622311Y-92916690D01*
X141622506Y-92859783D01*
X141599541Y-92857430D01*
X141576577Y-92855078D01*
X141526819Y-92889010D01*
X141527261Y-92938359D01*
X141531246Y-92996590D01*
X141542027Y-93053341D01*
X141559427Y-93108195D01*
X141583267Y-93160732D01*
X141613369Y-93210536D01*
X141649554Y-93257188D01*
X141674774Y-93284155D01*
X141715410Y-93321000D01*
X141759140Y-93353371D01*
X141806472Y-93381491D01*
X141857911Y-93405584D01*
X141913966Y-93425873D01*
X141975143Y-93442584D01*
X142041948Y-93455938D01*
X142075389Y-93461113D01*
X142096455Y-93463389D01*
X142123303Y-93465185D01*
X142154675Y-93466500D01*
X142189315Y-93467334D01*
X142225966Y-93467688D01*
X142263369Y-93467562D01*
X142300269Y-93466956D01*
X142335407Y-93465870D01*
X142367526Y-93464303D01*
X142395370Y-93462257D01*
X142407000Y-93461088D01*
X142521247Y-93445915D01*
X142636379Y-93426055D01*
X142751524Y-93401770D01*
X142865809Y-93373321D01*
X142978359Y-93340969D01*
X143088303Y-93304975D01*
X143194766Y-93265600D01*
X143296876Y-93223106D01*
X143393760Y-93177754D01*
X143448608Y-93149498D01*
X143531718Y-93102751D01*
X143610658Y-93053631D01*
X143684981Y-93002487D01*
X143754241Y-92949668D01*
X143817993Y-92895522D01*
X143875791Y-92840397D01*
X143927188Y-92784643D01*
X143948880Y-92758480D01*
X143963589Y-92740572D01*
X143974647Y-92728259D01*
X143982321Y-92721267D01*
X143986878Y-92719322D01*
X143987106Y-92719373D01*
X144001682Y-92723012D01*
X144022129Y-92727139D01*
X144047296Y-92731588D01*
X144076029Y-92736193D01*
X144107174Y-92740787D01*
X144139579Y-92745204D01*
X144172091Y-92749276D01*
X144203556Y-92752837D01*
X144232821Y-92755720D01*
X144246736Y-92756893D01*
X144276996Y-92758630D01*
X144310509Y-92759311D01*
X144347721Y-92758909D01*
X144389075Y-92757398D01*
X144435017Y-92754750D01*
X144485991Y-92750938D01*
X144542441Y-92745937D01*
X144604812Y-92739719D01*
X144673548Y-92732256D01*
X144694764Y-92729853D01*
X144792696Y-92718039D01*
X144897110Y-92704253D01*
X145007726Y-92688544D01*
X145124267Y-92670962D01*
X145246454Y-92651559D01*
X145374011Y-92630386D01*
X145506657Y-92607492D01*
X145644117Y-92582928D01*
X145786110Y-92556746D01*
X145932360Y-92528995D01*
X146082588Y-92499727D01*
X146236517Y-92468991D01*
X146393867Y-92436840D01*
X146554361Y-92403322D01*
X146717721Y-92368489D01*
X146883669Y-92332392D01*
X146911972Y-92326166D01*
X146943505Y-92319268D01*
X146973573Y-92312787D01*
X147001326Y-92306899D01*
X147025913Y-92301780D01*
X147046484Y-92297607D01*
X147062186Y-92294556D01*
X147072170Y-92292804D01*
X147074250Y-92292520D01*
X147101629Y-92292603D01*
X147130597Y-92298198D01*
X147159337Y-92308640D01*
X147186032Y-92323263D01*
X147208863Y-92341400D01*
X147209577Y-92342097D01*
X147220334Y-92354458D01*
X147233559Y-92372584D01*
X147248873Y-92395782D01*
X147265898Y-92423362D01*
X147284253Y-92454633D01*
X147303562Y-92488902D01*
X147323444Y-92525479D01*
X147343521Y-92563671D01*
X147363415Y-92602789D01*
X147382747Y-92642139D01*
X147401137Y-92681031D01*
X147418208Y-92718774D01*
X147426938Y-92738888D01*
X147454418Y-92807828D01*
X147476295Y-92872753D01*
X147492564Y-92933631D01*
X147503220Y-92990428D01*
X147508258Y-93043112D01*
X147507674Y-93091650D01*
X147501462Y-93136008D01*
X147490303Y-93174355D01*
X147480721Y-93194617D01*
X147467158Y-93216530D01*
X147451359Y-93237628D01*
X147435072Y-93255441D01*
X147429089Y-93260860D01*
X147413700Y-93272771D01*
X147397081Y-93283287D01*
X147378689Y-93292518D01*
X147357978Y-93300574D01*
X147334406Y-93307565D01*
X147307427Y-93313602D01*
X147276498Y-93318794D01*
X147241074Y-93323252D01*
X147200612Y-93327086D01*
X147154567Y-93330405D01*
X147102396Y-93333321D01*
X147061903Y-93335182D01*
X147042132Y-93335961D01*
X147016304Y-93336876D01*
X146985416Y-93337897D01*
X146950464Y-93338994D01*
X146912446Y-93340137D01*
X146872357Y-93341294D01*
X146831195Y-93342437D01*
X146789956Y-93343534D01*
X146769097Y-93344070D01*
X146663132Y-93346865D01*
X146563623Y-93349728D01*
X146469971Y-93352688D01*
X146381576Y-93355774D01*
X146297840Y-93359016D01*
X146218162Y-93362444D01*
X146141944Y-93366086D01*
X146068587Y-93369972D01*
X145997491Y-93374132D01*
X145928056Y-93378595D01*
X145859683Y-93383390D01*
X145791774Y-93388548D01*
X145723729Y-93394096D01*
X145687833Y-93397168D01*
X145535425Y-93411484D01*
X145388916Y-93427501D01*
X145247314Y-93445426D01*
X145109629Y-93465462D01*
X144974869Y-93487813D01*
X144842042Y-93512686D01*
X144710156Y-93540283D01*
X144578221Y-93570811D01*
X144445244Y-93604473D01*
X144310234Y-93641474D01*
X144172199Y-93682018D01*
X144030149Y-93726311D01*
X143922181Y-93761516D01*
X143865529Y-93780415D01*
X143813101Y-93798181D01*
X143764324Y-93815079D01*
X143718627Y-93831377D01*
X143675437Y-93847340D01*
X143634184Y-93863235D01*
X143594295Y-93879327D01*
X143555199Y-93895884D01*
X143516325Y-93913170D01*
X143477099Y-93931452D01*
X143436952Y-93950997D01*
X143395310Y-93972071D01*
X143351602Y-93994939D01*
X143305257Y-94019869D01*
X143255703Y-94047125D01*
X143202368Y-94076975D01*
X143144680Y-94109684D01*
X143082068Y-94145519D01*
X143017306Y-94182815D01*
X142967113Y-94211743D01*
X142922343Y-94237450D01*
X142882339Y-94260298D01*
X142846445Y-94280648D01*
X142814006Y-94298863D01*
X142784365Y-94315303D01*
X142756866Y-94330330D01*
X142730853Y-94344307D01*
X142705670Y-94357594D01*
X142680662Y-94370554D01*
X142655172Y-94383549D01*
X142632778Y-94394820D01*
X142567461Y-94426741D01*
X142506674Y-94454702D01*
X142449369Y-94479064D01*
X142394501Y-94500188D01*
X142341022Y-94518436D01*
X142287885Y-94534169D01*
X142234043Y-94547748D01*
X142178449Y-94559537D01*
X142130975Y-94568094D01*
X142071699Y-94577475D01*
X142017114Y-94584849D01*
X141965196Y-94590377D01*
X141913926Y-94594223D01*
X141861279Y-94596550D01*
X141805234Y-94597522D01*
X141766708Y-94597509D01*
X141740120Y-94597309D01*
X141715076Y-94597051D01*
X141692670Y-94596751D01*
X141673997Y-94596426D01*
X141660149Y-94596092D01*
X141652223Y-94595767D01*
X141652056Y-94595755D01*
X141561009Y-94586740D01*
X141471200Y-94573096D01*
X141383485Y-94555042D01*
X141298718Y-94532798D01*
X141217756Y-94506583D01*
X141141455Y-94476619D01*
X141083791Y-94449817D01*
X140997957Y-94402919D01*
X140914330Y-94349377D01*
X140832988Y-94289273D01*
X140754006Y-94222690D01*
X140677461Y-94149708D01*
X140603429Y-94070411D01*
X140531985Y-93984879D01*
X140463207Y-93893196D01*
X140397171Y-93795442D01*
X140333952Y-93691701D01*
X140273627Y-93582053D01*
X140269300Y-93573746D01*
X140232293Y-93498734D01*
X140197779Y-93420989D01*
X140165400Y-93339580D01*
X140134798Y-93253574D01*
X140105612Y-93162039D01*
X140089110Y-93105758D01*
X140081543Y-93079169D01*
X139835806Y-92980044D01*
X139796329Y-92964069D01*
X139758813Y-92948791D01*
X139723766Y-92934422D01*
X139691694Y-92921173D01*
X139663102Y-92909257D01*
X139638498Y-92898887D01*
X139618388Y-92890274D01*
X139603278Y-92883630D01*
X139593674Y-92879168D01*
X139590083Y-92877101D01*
X139590069Y-92877055D01*
X139592644Y-92874178D01*
X139600115Y-92866965D01*
X139612098Y-92855762D01*
X139628213Y-92840917D01*
X139648078Y-92822776D01*
X139671310Y-92801686D01*
X139697529Y-92777994D01*
X139726351Y-92752048D01*
X139757395Y-92724193D01*
X139790280Y-92694778D01*
X139815847Y-92671966D01*
X140041625Y-92470741D01*
X140056003Y-92431022D01*
X140084338Y-92360948D01*
X140117586Y-92294045D01*
X140156152Y-92229707D01*
X140200445Y-92167324D01*
X140250870Y-92106287D01*
X140307835Y-92045990D01*
X140324224Y-92029917D01*
X140391538Y-91969739D01*
X140464130Y-91914059D01*
X140541734Y-91863010D01*
X140624086Y-91816722D01*
X140710921Y-91775330D01*
X140801974Y-91738964D01*
X140896979Y-91707758D01*
X140995671Y-91681842D01*
X141041750Y-91671834D01*
X141086147Y-91663197D01*
X141125869Y-91656427D01*
X141162979Y-91651295D01*
X141199540Y-91647572D01*
X141237614Y-91645029D01*
X141279265Y-91643439D01*
X141302806Y-91642916D01*
X141349574Y-91642493D01*
X141391031Y-91643103D01*
X141391031Y-91643103D01*
G37*
X141391031Y-91643103D02*
X141428866Y-91644878D01*
X141464763Y-91647950D01*
X141500412Y-91652451D01*
X141537499Y-91658512D01*
X141562537Y-91663226D01*
X141599505Y-91670873D01*
X141634770Y-91679056D01*
X141669378Y-91688108D01*
X141704376Y-91698364D01*
X141740809Y-91710156D01*
X141779722Y-91723818D01*
X141822161Y-91739684D01*
X141869173Y-91758088D01*
X141904737Y-91772406D01*
X141951958Y-91791805D01*
X141999898Y-91811943D01*
X142048959Y-91833011D01*
X142099547Y-91855199D01*
X142152066Y-91878695D01*
X142206921Y-91903689D01*
X142264514Y-91930372D01*
X142325251Y-91958932D01*
X142389536Y-91989559D01*
X142457773Y-92022442D01*
X142530365Y-92057772D01*
X142607719Y-92095737D01*
X142690236Y-92136528D01*
X142778323Y-92180333D01*
X142836085Y-92209177D01*
X142917799Y-92249964D01*
X142993732Y-92287698D01*
X143064358Y-92322596D01*
X143130149Y-92354875D01*
X143191577Y-92384752D01*
X143249115Y-92412444D01*
X143303235Y-92438167D01*
X143354409Y-92462138D01*
X143403111Y-92484575D01*
X143449811Y-92505695D01*
X143494982Y-92525714D01*
X143539097Y-92544848D01*
X143582629Y-92563316D01*
X143626049Y-92581334D01*
X143669829Y-92599119D01*
X143714443Y-92616888D01*
X143760363Y-92634857D01*
X143777542Y-92641509D01*
X143801524Y-92650793D01*
X143823788Y-92659455D01*
X143843348Y-92667109D01*
X143859219Y-92673366D01*
X143870414Y-92677840D01*
X143875784Y-92680070D01*
X143885832Y-92684573D01*
X143870698Y-92703849D01*
X143858889Y-92717902D01*
X143842920Y-92735482D01*
X143823921Y-92755449D01*
X143803023Y-92776663D01*
X143781357Y-92797986D01*
X143760055Y-92818277D01*
X143740246Y-92836397D01*
X143731681Y-92843920D01*
X143656102Y-92905039D01*
X143574352Y-92963238D01*
X143486747Y-93018375D01*
X143393601Y-93070306D01*
X143295231Y-93118886D01*
X143191952Y-93163973D01*
X143084079Y-93205422D01*
X142971928Y-93243091D01*
X142855814Y-93276835D01*
X142736054Y-93306510D01*
X142696278Y-93315281D01*
X142637253Y-93327567D01*
X142583414Y-93338013D01*
X142533205Y-93346877D01*
X142485074Y-93354413D01*
X142437469Y-93360877D01*
X142388835Y-93366526D01*
X142378778Y-93367588D01*
X142358732Y-93369185D01*
X142333512Y-93370438D01*
X142304439Y-93371348D01*
X142272833Y-93371913D01*
X142240014Y-93372134D01*
X142207303Y-93372011D01*
X142176020Y-93371543D01*
X142147485Y-93370730D01*
X142123019Y-93369572D01*
X142103941Y-93368069D01*
X142100083Y-93367629D01*
X142029587Y-93356359D01*
X141964668Y-93340777D01*
X141905314Y-93320875D01*
X141851511Y-93296642D01*
X141803246Y-93268071D01*
X141760506Y-93235152D01*
X141723275Y-93197875D01*
X141691542Y-93156233D01*
X141665292Y-93110216D01*
X141645814Y-93063556D01*
X141636564Y-93035336D01*
X141629950Y-93009790D01*
X141625611Y-92984670D01*
X141623189Y-92957726D01*
X141622323Y-92926710D01*
X141622311Y-92916690D01*
X141622506Y-92859783D01*
X141599541Y-92857430D01*
X141576577Y-92855078D01*
X141526819Y-92889010D01*
X141527261Y-92938359D01*
X141531246Y-92996590D01*
X141542027Y-93053341D01*
X141559427Y-93108195D01*
X141583267Y-93160732D01*
X141613369Y-93210536D01*
X141649554Y-93257188D01*
X141674774Y-93284155D01*
X141715410Y-93321000D01*
X141759140Y-93353371D01*
X141806472Y-93381491D01*
X141857911Y-93405584D01*
X141913966Y-93425873D01*
X141975143Y-93442584D01*
X142041948Y-93455938D01*
X142075389Y-93461113D01*
X142096455Y-93463389D01*
X142123303Y-93465185D01*
X142154675Y-93466500D01*
X142189315Y-93467334D01*
X142225966Y-93467688D01*
X142263369Y-93467562D01*
X142300269Y-93466956D01*
X142335407Y-93465870D01*
X142367526Y-93464303D01*
X142395370Y-93462257D01*
X142407000Y-93461088D01*
X142521247Y-93445915D01*
X142636379Y-93426055D01*
X142751524Y-93401770D01*
X142865809Y-93373321D01*
X142978359Y-93340969D01*
X143088303Y-93304975D01*
X143194766Y-93265600D01*
X143296876Y-93223106D01*
X143393760Y-93177754D01*
X143448608Y-93149498D01*
X143531718Y-93102751D01*
X143610658Y-93053631D01*
X143684981Y-93002487D01*
X143754241Y-92949668D01*
X143817993Y-92895522D01*
X143875791Y-92840397D01*
X143927188Y-92784643D01*
X143948880Y-92758480D01*
X143963589Y-92740572D01*
X143974647Y-92728259D01*
X143982321Y-92721267D01*
X143986878Y-92719322D01*
X143987106Y-92719373D01*
X144001682Y-92723012D01*
X144022129Y-92727139D01*
X144047296Y-92731588D01*
X144076029Y-92736193D01*
X144107174Y-92740787D01*
X144139579Y-92745204D01*
X144172091Y-92749276D01*
X144203556Y-92752837D01*
X144232821Y-92755720D01*
X144246736Y-92756893D01*
X144276996Y-92758630D01*
X144310509Y-92759311D01*
X144347721Y-92758909D01*
X144389075Y-92757398D01*
X144435017Y-92754750D01*
X144485991Y-92750938D01*
X144542441Y-92745937D01*
X144604812Y-92739719D01*
X144673548Y-92732256D01*
X144694764Y-92729853D01*
X144792696Y-92718039D01*
X144897110Y-92704253D01*
X145007726Y-92688544D01*
X145124267Y-92670962D01*
X145246454Y-92651559D01*
X145374011Y-92630386D01*
X145506657Y-92607492D01*
X145644117Y-92582928D01*
X145786110Y-92556746D01*
X145932360Y-92528995D01*
X146082588Y-92499727D01*
X146236517Y-92468991D01*
X146393867Y-92436840D01*
X146554361Y-92403322D01*
X146717721Y-92368489D01*
X146883669Y-92332392D01*
X146911972Y-92326166D01*
X146943505Y-92319268D01*
X146973573Y-92312787D01*
X147001326Y-92306899D01*
X147025913Y-92301780D01*
X147046484Y-92297607D01*
X147062186Y-92294556D01*
X147072170Y-92292804D01*
X147074250Y-92292520D01*
X147101629Y-92292603D01*
X147130597Y-92298198D01*
X147159337Y-92308640D01*
X147186032Y-92323263D01*
X147208863Y-92341400D01*
X147209577Y-92342097D01*
X147220334Y-92354458D01*
X147233559Y-92372584D01*
X147248873Y-92395782D01*
X147265898Y-92423362D01*
X147284253Y-92454633D01*
X147303562Y-92488902D01*
X147323444Y-92525479D01*
X147343521Y-92563671D01*
X147363415Y-92602789D01*
X147382747Y-92642139D01*
X147401137Y-92681031D01*
X147418208Y-92718774D01*
X147426938Y-92738888D01*
X147454418Y-92807828D01*
X147476295Y-92872753D01*
X147492564Y-92933631D01*
X147503220Y-92990428D01*
X147508258Y-93043112D01*
X147507674Y-93091650D01*
X147501462Y-93136008D01*
X147490303Y-93174355D01*
X147480721Y-93194617D01*
X147467158Y-93216530D01*
X147451359Y-93237628D01*
X147435072Y-93255441D01*
X147429089Y-93260860D01*
X147413700Y-93272771D01*
X147397081Y-93283287D01*
X147378689Y-93292518D01*
X147357978Y-93300574D01*
X147334406Y-93307565D01*
X147307427Y-93313602D01*
X147276498Y-93318794D01*
X147241074Y-93323252D01*
X147200612Y-93327086D01*
X147154567Y-93330405D01*
X147102396Y-93333321D01*
X147061903Y-93335182D01*
X147042132Y-93335961D01*
X147016304Y-93336876D01*
X146985416Y-93337897D01*
X146950464Y-93338994D01*
X146912446Y-93340137D01*
X146872357Y-93341294D01*
X146831195Y-93342437D01*
X146789956Y-93343534D01*
X146769097Y-93344070D01*
X146663132Y-93346865D01*
X146563623Y-93349728D01*
X146469971Y-93352688D01*
X146381576Y-93355774D01*
X146297840Y-93359016D01*
X146218162Y-93362444D01*
X146141944Y-93366086D01*
X146068587Y-93369972D01*
X145997491Y-93374132D01*
X145928056Y-93378595D01*
X145859683Y-93383390D01*
X145791774Y-93388548D01*
X145723729Y-93394096D01*
X145687833Y-93397168D01*
X145535425Y-93411484D01*
X145388916Y-93427501D01*
X145247314Y-93445426D01*
X145109629Y-93465462D01*
X144974869Y-93487813D01*
X144842042Y-93512686D01*
X144710156Y-93540283D01*
X144578221Y-93570811D01*
X144445244Y-93604473D01*
X144310234Y-93641474D01*
X144172199Y-93682018D01*
X144030149Y-93726311D01*
X143922181Y-93761516D01*
X143865529Y-93780415D01*
X143813101Y-93798181D01*
X143764324Y-93815079D01*
X143718627Y-93831377D01*
X143675437Y-93847340D01*
X143634184Y-93863235D01*
X143594295Y-93879327D01*
X143555199Y-93895884D01*
X143516325Y-93913170D01*
X143477099Y-93931452D01*
X143436952Y-93950997D01*
X143395310Y-93972071D01*
X143351602Y-93994939D01*
X143305257Y-94019869D01*
X143255703Y-94047125D01*
X143202368Y-94076975D01*
X143144680Y-94109684D01*
X143082068Y-94145519D01*
X143017306Y-94182815D01*
X142967113Y-94211743D01*
X142922343Y-94237450D01*
X142882339Y-94260298D01*
X142846445Y-94280648D01*
X142814006Y-94298863D01*
X142784365Y-94315303D01*
X142756866Y-94330330D01*
X142730853Y-94344307D01*
X142705670Y-94357594D01*
X142680662Y-94370554D01*
X142655172Y-94383549D01*
X142632778Y-94394820D01*
X142567461Y-94426741D01*
X142506674Y-94454702D01*
X142449369Y-94479064D01*
X142394501Y-94500188D01*
X142341022Y-94518436D01*
X142287885Y-94534169D01*
X142234043Y-94547748D01*
X142178449Y-94559537D01*
X142130975Y-94568094D01*
X142071699Y-94577475D01*
X142017114Y-94584849D01*
X141965196Y-94590377D01*
X141913926Y-94594223D01*
X141861279Y-94596550D01*
X141805234Y-94597522D01*
X141766708Y-94597509D01*
X141740120Y-94597309D01*
X141715076Y-94597051D01*
X141692670Y-94596751D01*
X141673997Y-94596426D01*
X141660149Y-94596092D01*
X141652223Y-94595767D01*
X141652056Y-94595755D01*
X141561009Y-94586740D01*
X141471200Y-94573096D01*
X141383485Y-94555042D01*
X141298718Y-94532798D01*
X141217756Y-94506583D01*
X141141455Y-94476619D01*
X141083791Y-94449817D01*
X140997957Y-94402919D01*
X140914330Y-94349377D01*
X140832988Y-94289273D01*
X140754006Y-94222690D01*
X140677461Y-94149708D01*
X140603429Y-94070411D01*
X140531985Y-93984879D01*
X140463207Y-93893196D01*
X140397171Y-93795442D01*
X140333952Y-93691701D01*
X140273627Y-93582053D01*
X140269300Y-93573746D01*
X140232293Y-93498734D01*
X140197779Y-93420989D01*
X140165400Y-93339580D01*
X140134798Y-93253574D01*
X140105612Y-93162039D01*
X140089110Y-93105758D01*
X140081543Y-93079169D01*
X139835806Y-92980044D01*
X139796329Y-92964069D01*
X139758813Y-92948791D01*
X139723766Y-92934422D01*
X139691694Y-92921173D01*
X139663102Y-92909257D01*
X139638498Y-92898887D01*
X139618388Y-92890274D01*
X139603278Y-92883630D01*
X139593674Y-92879168D01*
X139590083Y-92877101D01*
X139590069Y-92877055D01*
X139592644Y-92874178D01*
X139600115Y-92866965D01*
X139612098Y-92855762D01*
X139628213Y-92840917D01*
X139648078Y-92822776D01*
X139671310Y-92801686D01*
X139697529Y-92777994D01*
X139726351Y-92752048D01*
X139757395Y-92724193D01*
X139790280Y-92694778D01*
X139815847Y-92671966D01*
X140041625Y-92470741D01*
X140056003Y-92431022D01*
X140084338Y-92360948D01*
X140117586Y-92294045D01*
X140156152Y-92229707D01*
X140200445Y-92167324D01*
X140250870Y-92106287D01*
X140307835Y-92045990D01*
X140324224Y-92029917D01*
X140391538Y-91969739D01*
X140464130Y-91914059D01*
X140541734Y-91863010D01*
X140624086Y-91816722D01*
X140710921Y-91775330D01*
X140801974Y-91738964D01*
X140896979Y-91707758D01*
X140995671Y-91681842D01*
X141041750Y-91671834D01*
X141086147Y-91663197D01*
X141125869Y-91656427D01*
X141162979Y-91651295D01*
X141199540Y-91647572D01*
X141237614Y-91645029D01*
X141279265Y-91643439D01*
X141302806Y-91642916D01*
X141349574Y-91642493D01*
X141391031Y-91643103D01*
D12*
X164250000Y-120400000D03*
X137450000Y-94600000D03*
D13*
X161190000Y-100200000D03*
X161190000Y-100600000D03*
X161190000Y-101000000D03*
X161190000Y-101400000D03*
X161190000Y-101800000D03*
X161190000Y-102200000D03*
X161190000Y-102600000D03*
X161190000Y-103000000D03*
X161190000Y-103400000D03*
X161190000Y-103800000D03*
X161190000Y-107800000D03*
X161190000Y-107400000D03*
X161190000Y-107000000D03*
X161190000Y-106600000D03*
X161190000Y-106200000D03*
X161190000Y-105800000D03*
X161190000Y-105400000D03*
X161190000Y-105000000D03*
X161190000Y-104600000D03*
X161190000Y-104200000D03*
X161190000Y-108200000D03*
X161190000Y-108600000D03*
X161190000Y-109000000D03*
X161190000Y-109400000D03*
X161190000Y-109800000D03*
X161190000Y-110200000D03*
X161190000Y-110600000D03*
X161190000Y-111000000D03*
X161190000Y-111400000D03*
X161190000Y-111800000D03*
X161190000Y-115800000D03*
X161190000Y-115400000D03*
X161190000Y-115000000D03*
X161190000Y-114600000D03*
X161190000Y-114200000D03*
X161190000Y-113800000D03*
X161190000Y-113400000D03*
X161190000Y-113000000D03*
X161190000Y-112600000D03*
X161190000Y-112200000D03*
X158110000Y-112200000D03*
X158110000Y-112600000D03*
X158110000Y-113000000D03*
X158110000Y-113400000D03*
X158110000Y-113800000D03*
X158110000Y-114200000D03*
X158110000Y-114600000D03*
X158110000Y-115000000D03*
X158110000Y-115400000D03*
X158110000Y-115800000D03*
X158110000Y-111800000D03*
X158110000Y-111400000D03*
X158110000Y-111000000D03*
X158110000Y-110600000D03*
X158110000Y-110200000D03*
X158110000Y-109800000D03*
X158110000Y-109400000D03*
X158110000Y-109000000D03*
X158110000Y-108600000D03*
X158110000Y-108200000D03*
X158110000Y-104200000D03*
X158110000Y-104600000D03*
X158110000Y-105000000D03*
X158110000Y-105400000D03*
X158110000Y-105800000D03*
X158110000Y-106200000D03*
X158110000Y-106600000D03*
X158110000Y-107000000D03*
X158110000Y-107400000D03*
X158110000Y-107800000D03*
X158110000Y-103800000D03*
X158110000Y-103400000D03*
X158110000Y-103000000D03*
X158110000Y-102600000D03*
X158110000Y-102200000D03*
X158110000Y-101800000D03*
X158110000Y-101400000D03*
X158110000Y-101000000D03*
X158110000Y-100600000D03*
X158110000Y-100200000D03*
D14*
X158461920Y-94250000D03*
X158461920Y-93599760D03*
X158461920Y-92949520D03*
X155800000Y-92949520D03*
X155800000Y-93599760D03*
X155800000Y-94250000D03*
X164300000Y-98250000D03*
X164300000Y-97599760D03*
X164300000Y-96949520D03*
X161638080Y-96949520D03*
X161638080Y-97599760D03*
X161638080Y-98250000D03*
X158611920Y-96700000D03*
X158611920Y-96049760D03*
X158611920Y-95399520D03*
X155950000Y-95399520D03*
X155950000Y-96049760D03*
X155950000Y-96700000D03*
D15*
X131550000Y-116430000D03*
D16*
X131550000Y-113890000D03*
X131550000Y-111350000D03*
X131550000Y-108810000D03*
X131550000Y-106270000D03*
X131550000Y-103730000D03*
X131550000Y-101190000D03*
X131550000Y-98650000D03*
D17*
X143450000Y-100600000D03*
X143250000Y-113650000D03*
D12*
X138300000Y-120950000D03*
M02*
