G04 #@! TF.FileFunction,Legend,Bot*
%FSLAX46Y46*%
G04 Gerber Fmt 4.6, Leading zero omitted, Abs format (unit mm)*
G04 Created by KiCad (PCBNEW 4.0.1-stable) date Tuesday, May 31, 2016 'PMt' 11:12:23 PM*
%MOMM*%
G01*
G04 APERTURE LIST*
%ADD10C,0.100000*%
%ADD11C,0.400000*%
%ADD12C,0.200000*%
%ADD13C,0.300000*%
%ADD14C,0.150000*%
G04 APERTURE END LIST*
D10*
D11*
X138914286Y-90969048D02*
X138795238Y-90850000D01*
X138557143Y-90730952D01*
X137961905Y-90730952D01*
X137723809Y-90850000D01*
X137604762Y-90969048D01*
X137485714Y-91207143D01*
X137485714Y-91445238D01*
X137604762Y-91802381D01*
X139033333Y-93230952D01*
X137485714Y-93230952D01*
X137185714Y-124930952D02*
X138614286Y-124930952D01*
X137900000Y-124930952D02*
X137900000Y-122430952D01*
X138138095Y-122788095D01*
X138376190Y-123026190D01*
X138614286Y-123145238D01*
D12*
X158240000Y-124907143D02*
X158382857Y-124978571D01*
X158668571Y-124978571D01*
X158811429Y-124907143D01*
X158882857Y-124835714D01*
X158954286Y-124692857D01*
X158954286Y-124264286D01*
X158882857Y-124121429D01*
X158811429Y-124050000D01*
X158668571Y-123978571D01*
X158382857Y-123978571D01*
X158240000Y-124050000D01*
X157597143Y-124978571D02*
X157597143Y-123478571D01*
X157454286Y-124407143D02*
X157025715Y-124978571D01*
X157025715Y-123978571D02*
X157597143Y-124550000D01*
X155740000Y-124978571D02*
X155740000Y-123478571D01*
X155740000Y-124907143D02*
X155882857Y-124978571D01*
X156168571Y-124978571D01*
X156311429Y-124907143D01*
X156382857Y-124835714D01*
X156454286Y-124692857D01*
X156454286Y-124264286D01*
X156382857Y-124121429D01*
X156311429Y-124050000D01*
X156168571Y-123978571D01*
X155882857Y-123978571D01*
X155740000Y-124050000D01*
X155025714Y-124835714D02*
X154954286Y-124907143D01*
X155025714Y-124978571D01*
X155097143Y-124907143D01*
X155025714Y-124835714D01*
X155025714Y-124978571D01*
X154525714Y-123978571D02*
X153954285Y-123978571D01*
X154311428Y-123478571D02*
X154311428Y-124764286D01*
X154240000Y-124907143D01*
X154097142Y-124978571D01*
X153954285Y-124978571D01*
X152882857Y-124907143D02*
X153025714Y-124978571D01*
X153311428Y-124978571D01*
X153454285Y-124907143D01*
X153525714Y-124764286D01*
X153525714Y-124192857D01*
X153454285Y-124050000D01*
X153311428Y-123978571D01*
X153025714Y-123978571D01*
X152882857Y-124050000D01*
X152811428Y-124192857D01*
X152811428Y-124335714D01*
X153525714Y-124478571D01*
X151525714Y-124907143D02*
X151668571Y-124978571D01*
X151954285Y-124978571D01*
X152097143Y-124907143D01*
X152168571Y-124835714D01*
X152240000Y-124692857D01*
X152240000Y-124264286D01*
X152168571Y-124121429D01*
X152097143Y-124050000D01*
X151954285Y-123978571D01*
X151668571Y-123978571D01*
X151525714Y-124050000D01*
X150882857Y-124978571D02*
X150882857Y-123478571D01*
X150240000Y-124978571D02*
X150240000Y-124192857D01*
X150311429Y-124050000D01*
X150454286Y-123978571D01*
X150668571Y-123978571D01*
X150811429Y-124050000D01*
X150882857Y-124121429D01*
X148454286Y-123407143D02*
X149740000Y-125335714D01*
X147311428Y-124978571D02*
X147311428Y-123478571D01*
X147311428Y-124907143D02*
X147454285Y-124978571D01*
X147739999Y-124978571D01*
X147882857Y-124907143D01*
X147954285Y-124835714D01*
X148025714Y-124692857D01*
X148025714Y-124264286D01*
X147954285Y-124121429D01*
X147882857Y-124050000D01*
X147739999Y-123978571D01*
X147454285Y-123978571D01*
X147311428Y-124050000D01*
X146668571Y-124907143D02*
X146525714Y-124978571D01*
X146239999Y-124978571D01*
X146097142Y-124907143D01*
X146025714Y-124764286D01*
X146025714Y-124692857D01*
X146097142Y-124550000D01*
X146239999Y-124478571D01*
X146454285Y-124478571D01*
X146597142Y-124407143D01*
X146668571Y-124264286D01*
X146668571Y-124192857D01*
X146597142Y-124050000D01*
X146454285Y-123978571D01*
X146239999Y-123978571D01*
X146097142Y-124050000D01*
X145382856Y-124978571D02*
X145382856Y-123478571D01*
X145382856Y-124050000D02*
X145239999Y-123978571D01*
X144954285Y-123978571D01*
X144811428Y-124050000D01*
X144739999Y-124121429D01*
X144668570Y-124264286D01*
X144668570Y-124692857D01*
X144739999Y-124835714D01*
X144811428Y-124907143D01*
X144954285Y-124978571D01*
X145239999Y-124978571D01*
X145382856Y-124907143D01*
X142954285Y-123407143D02*
X144239999Y-125335714D01*
X142597141Y-123978571D02*
X142239998Y-124978571D01*
X141882856Y-123978571D01*
X141454284Y-123478571D02*
X140525713Y-123478571D01*
X141025713Y-124050000D01*
X140811427Y-124050000D01*
X140668570Y-124121429D01*
X140597141Y-124192857D01*
X140525713Y-124335714D01*
X140525713Y-124692857D01*
X140597141Y-124835714D01*
X140668570Y-124907143D01*
X140811427Y-124978571D01*
X141239999Y-124978571D01*
X141382856Y-124907143D01*
X141454284Y-124835714D01*
D13*
X137092857Y-120378571D02*
X137092857Y-118878571D01*
X136521429Y-118878571D01*
X136378571Y-118950000D01*
X136307143Y-119021429D01*
X136235714Y-119164286D01*
X136235714Y-119378571D01*
X136307143Y-119521429D01*
X136378571Y-119592857D01*
X136521429Y-119664286D01*
X137092857Y-119664286D01*
X135378571Y-120378571D02*
X135521429Y-120307143D01*
X135592857Y-120235714D01*
X135664286Y-120092857D01*
X135664286Y-119664286D01*
X135592857Y-119521429D01*
X135521429Y-119450000D01*
X135378571Y-119378571D01*
X135164286Y-119378571D01*
X135021429Y-119450000D01*
X134950000Y-119521429D01*
X134878571Y-119664286D01*
X134878571Y-120092857D01*
X134950000Y-120235714D01*
X135021429Y-120307143D01*
X135164286Y-120378571D01*
X135378571Y-120378571D01*
X134235714Y-120378571D02*
X134235714Y-119378571D01*
X134235714Y-119664286D02*
X134164286Y-119521429D01*
X134092857Y-119450000D01*
X133950000Y-119378571D01*
X133807143Y-119378571D01*
X133521429Y-119378571D02*
X132950000Y-119378571D01*
X133307143Y-118878571D02*
X133307143Y-120164286D01*
X133235715Y-120307143D01*
X133092857Y-120378571D01*
X132950000Y-120378571D01*
X130521429Y-120378571D02*
X131378572Y-120378571D01*
X130950000Y-120378571D02*
X130950000Y-118878571D01*
X131092857Y-119092857D01*
X131235715Y-119235714D01*
X131378572Y-119307143D01*
X137092857Y-97228571D02*
X137092857Y-95728571D01*
X136521429Y-95728571D01*
X136378571Y-95800000D01*
X136307143Y-95871429D01*
X136235714Y-96014286D01*
X136235714Y-96228571D01*
X136307143Y-96371429D01*
X136378571Y-96442857D01*
X136521429Y-96514286D01*
X137092857Y-96514286D01*
X135378571Y-97228571D02*
X135521429Y-97157143D01*
X135592857Y-97085714D01*
X135664286Y-96942857D01*
X135664286Y-96514286D01*
X135592857Y-96371429D01*
X135521429Y-96300000D01*
X135378571Y-96228571D01*
X135164286Y-96228571D01*
X135021429Y-96300000D01*
X134950000Y-96371429D01*
X134878571Y-96514286D01*
X134878571Y-96942857D01*
X134950000Y-97085714D01*
X135021429Y-97157143D01*
X135164286Y-97228571D01*
X135378571Y-97228571D01*
X134235714Y-97228571D02*
X134235714Y-96228571D01*
X134235714Y-96514286D02*
X134164286Y-96371429D01*
X134092857Y-96300000D01*
X133950000Y-96228571D01*
X133807143Y-96228571D01*
X133521429Y-96228571D02*
X132950000Y-96228571D01*
X133307143Y-95728571D02*
X133307143Y-97014286D01*
X133235715Y-97157143D01*
X133092857Y-97228571D01*
X132950000Y-97228571D01*
X131378572Y-95871429D02*
X131307143Y-95800000D01*
X131164286Y-95728571D01*
X130807143Y-95728571D01*
X130664286Y-95800000D01*
X130592857Y-95871429D01*
X130521429Y-96014286D01*
X130521429Y-96157143D01*
X130592857Y-96371429D01*
X131450000Y-97228571D01*
X130521429Y-97228571D01*
D12*
X139100000Y-98000000D02*
X137100000Y-98000000D01*
X139100000Y-108000000D02*
X139100000Y-98000000D01*
X137100000Y-108000000D02*
X139100000Y-108000000D01*
X139100000Y-108000000D02*
X139100000Y-118000000D01*
X139100000Y-118000000D02*
X137100000Y-118000000D01*
D13*
X135497143Y-97908571D02*
X134640000Y-97908571D01*
X135068571Y-99408571D02*
X135068571Y-97908571D01*
X134282857Y-97908571D02*
X133282857Y-99408571D01*
X133282857Y-97908571D02*
X134282857Y-99408571D01*
X134925714Y-102008571D02*
X135425714Y-101294286D01*
X135782857Y-102008571D02*
X135782857Y-100508571D01*
X135211429Y-100508571D01*
X135068571Y-100580000D01*
X134997143Y-100651429D01*
X134925714Y-100794286D01*
X134925714Y-101008571D01*
X134997143Y-101151429D01*
X135068571Y-101222857D01*
X135211429Y-101294286D01*
X135782857Y-101294286D01*
X134425714Y-100508571D02*
X133425714Y-102008571D01*
X133425714Y-100508571D02*
X134425714Y-102008571D01*
X137822857Y-103867143D02*
X136680000Y-103867143D01*
X137251429Y-104438571D02*
X137251429Y-103295714D01*
X135251428Y-102938571D02*
X135965714Y-102938571D01*
X136037143Y-103652857D01*
X135965714Y-103581429D01*
X135822857Y-103510000D01*
X135465714Y-103510000D01*
X135322857Y-103581429D01*
X135251428Y-103652857D01*
X135180000Y-103795714D01*
X135180000Y-104152857D01*
X135251428Y-104295714D01*
X135322857Y-104367143D01*
X135465714Y-104438571D01*
X135822857Y-104438571D01*
X135965714Y-104367143D01*
X136037143Y-104295714D01*
X134751429Y-102938571D02*
X134251429Y-104438571D01*
X133751429Y-102938571D01*
X136537143Y-105660000D02*
X136680000Y-105588571D01*
X136894286Y-105588571D01*
X137108571Y-105660000D01*
X137251429Y-105802857D01*
X137322857Y-105945714D01*
X137394286Y-106231429D01*
X137394286Y-106445714D01*
X137322857Y-106731429D01*
X137251429Y-106874286D01*
X137108571Y-107017143D01*
X136894286Y-107088571D01*
X136751429Y-107088571D01*
X136537143Y-107017143D01*
X136465714Y-106945714D01*
X136465714Y-106445714D01*
X136751429Y-106445714D01*
X135822857Y-107088571D02*
X135822857Y-105588571D01*
X134965714Y-107088571D01*
X134965714Y-105588571D01*
X134251428Y-107088571D02*
X134251428Y-105588571D01*
X133894285Y-105588571D01*
X133680000Y-105660000D01*
X133537142Y-105802857D01*
X133465714Y-105945714D01*
X133394285Y-106231429D01*
X133394285Y-106445714D01*
X133465714Y-106731429D01*
X133537142Y-106874286D01*
X133680000Y-107017143D01*
X133894285Y-107088571D01*
X134251428Y-107088571D01*
X135657143Y-108228571D02*
X134800000Y-108228571D01*
X135228571Y-109728571D02*
X135228571Y-108228571D01*
X134442857Y-108228571D02*
X133442857Y-109728571D01*
X133442857Y-108228571D02*
X134442857Y-109728571D01*
X134985714Y-112228571D02*
X135485714Y-111514286D01*
X135842857Y-112228571D02*
X135842857Y-110728571D01*
X135271429Y-110728571D01*
X135128571Y-110800000D01*
X135057143Y-110871429D01*
X134985714Y-111014286D01*
X134985714Y-111228571D01*
X135057143Y-111371429D01*
X135128571Y-111442857D01*
X135271429Y-111514286D01*
X135842857Y-111514286D01*
X134485714Y-110728571D02*
X133485714Y-112228571D01*
X133485714Y-110728571D02*
X134485714Y-112228571D01*
X137542857Y-114107143D02*
X136400000Y-114107143D01*
X136971429Y-114678571D02*
X136971429Y-113535714D01*
X134971428Y-113178571D02*
X135685714Y-113178571D01*
X135757143Y-113892857D01*
X135685714Y-113821429D01*
X135542857Y-113750000D01*
X135185714Y-113750000D01*
X135042857Y-113821429D01*
X134971428Y-113892857D01*
X134900000Y-114035714D01*
X134900000Y-114392857D01*
X134971428Y-114535714D01*
X135042857Y-114607143D01*
X135185714Y-114678571D01*
X135542857Y-114678571D01*
X135685714Y-114607143D01*
X135757143Y-114535714D01*
X134471429Y-113178571D02*
X133971429Y-114678571D01*
X133471429Y-113178571D01*
X136507143Y-115750000D02*
X136650000Y-115678571D01*
X136864286Y-115678571D01*
X137078571Y-115750000D01*
X137221429Y-115892857D01*
X137292857Y-116035714D01*
X137364286Y-116321429D01*
X137364286Y-116535714D01*
X137292857Y-116821429D01*
X137221429Y-116964286D01*
X137078571Y-117107143D01*
X136864286Y-117178571D01*
X136721429Y-117178571D01*
X136507143Y-117107143D01*
X136435714Y-117035714D01*
X136435714Y-116535714D01*
X136721429Y-116535714D01*
X135792857Y-117178571D02*
X135792857Y-115678571D01*
X134935714Y-117178571D01*
X134935714Y-115678571D01*
X134221428Y-117178571D02*
X134221428Y-115678571D01*
X133864285Y-115678571D01*
X133650000Y-115750000D01*
X133507142Y-115892857D01*
X133435714Y-116035714D01*
X133364285Y-116321429D01*
X133364285Y-116535714D01*
X133435714Y-116821429D01*
X133507142Y-116964286D01*
X133650000Y-117107143D01*
X133864285Y-117178571D01*
X134221428Y-117178571D01*
D14*
X158725000Y-99240000D02*
X160575000Y-99240000D01*
X158725000Y-116760000D02*
X160575000Y-116760000D01*
X159650000Y-115800000D02*
X159650000Y-100200000D01*
X156850000Y-96500000D02*
X157550000Y-96500000D01*
X157550000Y-95300000D02*
X156850000Y-95300000D01*
X158337500Y-94737500D02*
X156187500Y-94737500D01*
X159162500Y-92487500D02*
X156187500Y-92487500D01*
X154950000Y-91875000D02*
X155950000Y-91875000D01*
X155950000Y-90525000D02*
X154950000Y-90525000D01*
X146749820Y-98551940D02*
X146749820Y-97850900D01*
X146749820Y-97850900D02*
X146500900Y-97850900D01*
X143950840Y-97850900D02*
X143750180Y-97850900D01*
X143750180Y-97850900D02*
X143750180Y-98551940D01*
X145049660Y-103050180D02*
X144348620Y-103050180D01*
X144348620Y-103050180D02*
X144348620Y-103299100D01*
X144348620Y-105849160D02*
X144348620Y-106049820D01*
X144348620Y-106049820D02*
X145049660Y-106049820D01*
X145000800Y-108500180D02*
X144299760Y-108500180D01*
X144299760Y-108500180D02*
X144299760Y-108749100D01*
X144299760Y-111299160D02*
X144299760Y-111499820D01*
X144299760Y-111499820D02*
X145000800Y-111499820D01*
X143450180Y-116298060D02*
X143450180Y-116999100D01*
X143450180Y-116999100D02*
X143699100Y-116999100D01*
X146249160Y-116999100D02*
X146449820Y-116999100D01*
X146449820Y-116999100D02*
X146449820Y-116298060D01*
X140675000Y-97600000D02*
X140675000Y-98600000D01*
X142025000Y-98600000D02*
X142025000Y-97600000D01*
X142025000Y-103750000D02*
X142025000Y-102750000D01*
X140675000Y-102750000D02*
X140675000Y-103750000D01*
X140675000Y-110650000D02*
X140675000Y-111650000D01*
X142025000Y-111650000D02*
X142025000Y-110650000D01*
X141975000Y-116800000D02*
X141975000Y-115800000D01*
X140625000Y-115800000D02*
X140625000Y-116800000D01*
X144900000Y-102725000D02*
X145900000Y-102725000D01*
X145900000Y-101375000D02*
X144900000Y-101375000D01*
X149575000Y-105200000D02*
X149575000Y-104200000D01*
X148225000Y-104200000D02*
X148225000Y-105200000D01*
X149525000Y-110650000D02*
X149525000Y-109650000D01*
X148175000Y-109650000D02*
X148175000Y-110650000D01*
X145500000Y-112025000D02*
X144500000Y-112025000D01*
X144500000Y-113375000D02*
X145500000Y-113375000D01*
D10*
G36*
X159249289Y-123116801D02*
X158890952Y-122346439D01*
X158871975Y-122348854D01*
X158853362Y-122351038D01*
X158835112Y-122352993D01*
X158817227Y-122354717D01*
X158799704Y-122356212D01*
X158782546Y-122357477D01*
X158765751Y-122358512D01*
X158749320Y-122359317D01*
X158733252Y-122359892D01*
X158717548Y-122360236D01*
X158702208Y-122360351D01*
X158683187Y-122360022D01*
X158664710Y-122359035D01*
X158646777Y-122357390D01*
X158629387Y-122355087D01*
X158612540Y-122352126D01*
X158596238Y-122348506D01*
X158580478Y-122344229D01*
X158565263Y-122339293D01*
X158550591Y-122333700D01*
X158536462Y-122327448D01*
X158522877Y-122320539D01*
X158509836Y-122312971D01*
X158497338Y-122304745D01*
X158485384Y-122295861D01*
X158473974Y-122286319D01*
X158463107Y-122276119D01*
X158452783Y-122265261D01*
X158445070Y-122256190D01*
X158437716Y-122246515D01*
X158430720Y-122236237D01*
X158424084Y-122225355D01*
X158417806Y-122213870D01*
X158411886Y-122201781D01*
X158406326Y-122189088D01*
X158401124Y-122175792D01*
X158396281Y-122161893D01*
X158391797Y-122147390D01*
X158387671Y-122132283D01*
X158383904Y-122116573D01*
X158380496Y-122100259D01*
X158377447Y-122083342D01*
X158374756Y-122065821D01*
X158372424Y-122047696D01*
X158370451Y-122028968D01*
X158368837Y-122009637D01*
X158367581Y-121989702D01*
X158366684Y-121969163D01*
X158366146Y-121948021D01*
X158365967Y-121926275D01*
X158366101Y-121904009D01*
X158366502Y-121882313D01*
X158367171Y-121861186D01*
X158368108Y-121840629D01*
X158369312Y-121820642D01*
X158370784Y-121801223D01*
X158372524Y-121782375D01*
X158374531Y-121764096D01*
X158376806Y-121746386D01*
X158379349Y-121729246D01*
X158382159Y-121712675D01*
X158385237Y-121696674D01*
X158388582Y-121681242D01*
X158392195Y-121666380D01*
X158396076Y-121652087D01*
X158400224Y-121638364D01*
X158404640Y-121625210D01*
X158409324Y-121612626D01*
X158414275Y-121600611D01*
X158419494Y-121589166D01*
X158424981Y-121578291D01*
X158430735Y-121567984D01*
X158438688Y-121555395D01*
X158447309Y-121543568D01*
X158456598Y-121532504D01*
X158466554Y-121522204D01*
X158477178Y-121512666D01*
X158488469Y-121503892D01*
X158500428Y-121495880D01*
X158513055Y-121488631D01*
X158526349Y-121482146D01*
X158540310Y-121476423D01*
X158554939Y-121471464D01*
X158570236Y-121467267D01*
X158586200Y-121463834D01*
X158602832Y-121461163D01*
X158620131Y-121459256D01*
X158638098Y-121458111D01*
X158656733Y-121457730D01*
X158678302Y-121458016D01*
X158698913Y-121458876D01*
X158718565Y-121460309D01*
X158737258Y-121462315D01*
X158754993Y-121464894D01*
X158771769Y-121468046D01*
X158787587Y-121471771D01*
X158802445Y-121476069D01*
X158816346Y-121480941D01*
X158829287Y-121486386D01*
X158841270Y-121492403D01*
X158852295Y-121498994D01*
X158862360Y-121506158D01*
X158871467Y-121513896D01*
X158879616Y-121522206D01*
X158886805Y-121531089D01*
X158893037Y-121540546D01*
X158898309Y-121550575D01*
X158902623Y-121561178D01*
X158905978Y-121572354D01*
X158908375Y-121584103D01*
X158909813Y-121596425D01*
X158910292Y-121609321D01*
X158910292Y-122343813D01*
X158910292Y-122343794D01*
X158890952Y-122346439D01*
X159249289Y-123116801D01*
X159249289Y-121640929D01*
X159249016Y-121624138D01*
X159248195Y-121607555D01*
X159246828Y-121591180D01*
X159244913Y-121575013D01*
X159242451Y-121559055D01*
X159239443Y-121543305D01*
X159235887Y-121527764D01*
X159231784Y-121512431D01*
X159227134Y-121497306D01*
X159221937Y-121482390D01*
X159216193Y-121467682D01*
X159209902Y-121453182D01*
X159203064Y-121438891D01*
X159195679Y-121424808D01*
X159187747Y-121410933D01*
X159179267Y-121397267D01*
X159170241Y-121383809D01*
X159160668Y-121370559D01*
X159150547Y-121357518D01*
X159139880Y-121344685D01*
X159128665Y-121332061D01*
X159116904Y-121319645D01*
X159104595Y-121307437D01*
X159094336Y-121297910D01*
X159083707Y-121288717D01*
X159072707Y-121279859D01*
X159061337Y-121271334D01*
X159049597Y-121263144D01*
X159037486Y-121255289D01*
X159025005Y-121247768D01*
X159012154Y-121240580D01*
X158998932Y-121233728D01*
X158985340Y-121227209D01*
X158971378Y-121221025D01*
X158957045Y-121215175D01*
X158942342Y-121209659D01*
X158927269Y-121204478D01*
X158911826Y-121199631D01*
X158896012Y-121195118D01*
X158879828Y-121190940D01*
X158863273Y-121187095D01*
X158846348Y-121183585D01*
X158829053Y-121180410D01*
X158811388Y-121177568D01*
X158793352Y-121175061D01*
X158774946Y-121172888D01*
X158756170Y-121171050D01*
X158737023Y-121169546D01*
X158717506Y-121168376D01*
X158697619Y-121167540D01*
X158677361Y-121167038D01*
X158656733Y-121166871D01*
X158639184Y-121167045D01*
X158621679Y-121167565D01*
X158604217Y-121168432D01*
X158586797Y-121169647D01*
X158569421Y-121171208D01*
X158552088Y-121173116D01*
X158534798Y-121175370D01*
X158517551Y-121177972D01*
X158503261Y-121180549D01*
X158488502Y-121183839D01*
X158473275Y-121187843D01*
X158457579Y-121192560D01*
X158441414Y-121197991D01*
X158424782Y-121204135D01*
X158407680Y-121210993D01*
X158390110Y-121218564D01*
X158372072Y-121226848D01*
X158353565Y-121235846D01*
X158337908Y-121243849D01*
X158322635Y-121252234D01*
X158307745Y-121261002D01*
X158293237Y-121270152D01*
X158279112Y-121279685D01*
X158265370Y-121289600D01*
X158252011Y-121299898D01*
X158239034Y-121310579D01*
X158226440Y-121321642D01*
X158214230Y-121333088D01*
X158202401Y-121344916D01*
X158190956Y-121357127D01*
X158182032Y-121367361D01*
X158173268Y-121378219D01*
X158164663Y-121389703D01*
X158156217Y-121401811D01*
X158147931Y-121414543D01*
X158139803Y-121427901D01*
X158131835Y-121441882D01*
X158124026Y-121456489D01*
X158116377Y-121471720D01*
X158108886Y-121487576D01*
X158101555Y-121504057D01*
X158094383Y-121521162D01*
X158087370Y-121538892D01*
X158080517Y-121557246D01*
X158073823Y-121576225D01*
X158068986Y-121590670D01*
X158064397Y-121605343D01*
X158060056Y-121620243D01*
X158055963Y-121635370D01*
X158052119Y-121650725D01*
X158048522Y-121666307D01*
X158045173Y-121682117D01*
X158042073Y-121698154D01*
X158039220Y-121714419D01*
X158036616Y-121730911D01*
X158034259Y-121747631D01*
X158032151Y-121764578D01*
X158030291Y-121781753D01*
X158028678Y-121799155D01*
X158027314Y-121816784D01*
X158026198Y-121834641D01*
X158025330Y-121852726D01*
X158024710Y-121871038D01*
X158024337Y-121889577D01*
X158024213Y-121908344D01*
X158024360Y-121928471D01*
X158024800Y-121948321D01*
X158025533Y-121967894D01*
X158026559Y-121987191D01*
X158027879Y-122006211D01*
X158029492Y-122024955D01*
X158031398Y-122043422D01*
X158033597Y-122061613D01*
X158036090Y-122079527D01*
X158038876Y-122097165D01*
X158041955Y-122114526D01*
X158045327Y-122131610D01*
X158048993Y-122148419D01*
X158052952Y-122164950D01*
X158057204Y-122181205D01*
X158061749Y-122197184D01*
X158066588Y-122212886D01*
X158071720Y-122228311D01*
X158077145Y-122243460D01*
X158082863Y-122258332D01*
X158088875Y-122272928D01*
X158095180Y-122287248D01*
X158101778Y-122301291D01*
X158108670Y-122315057D01*
X158115854Y-122328547D01*
X158123332Y-122341760D01*
X158131103Y-122354697D01*
X158139168Y-122367357D01*
X158147525Y-122379741D01*
X158156176Y-122391848D01*
X158165120Y-122403678D01*
X158174358Y-122415232D01*
X158183888Y-122426510D01*
X158193712Y-122437511D01*
X158204119Y-122448532D01*
X158214794Y-122459214D01*
X158225737Y-122469557D01*
X158236949Y-122479561D01*
X158248429Y-122489226D01*
X158260177Y-122498552D01*
X158272193Y-122507538D01*
X158284478Y-122516186D01*
X158297031Y-122524494D01*
X158309852Y-122532463D01*
X158322941Y-122540094D01*
X158336299Y-122547385D01*
X158349925Y-122554336D01*
X158363819Y-122560949D01*
X158377982Y-122567223D01*
X158392413Y-122573157D01*
X158407112Y-122578753D01*
X158422079Y-122584009D01*
X158437315Y-122588926D01*
X158452819Y-122593504D01*
X158468591Y-122597743D01*
X158484631Y-122601643D01*
X158500940Y-122605204D01*
X158517517Y-122608425D01*
X158534362Y-122611308D01*
X158551476Y-122613851D01*
X158568857Y-122616056D01*
X158586507Y-122617921D01*
X158604426Y-122619447D01*
X158622612Y-122620634D01*
X158641067Y-122621481D01*
X158659790Y-122621990D01*
X158678782Y-122622160D01*
X158695684Y-122622033D01*
X158712529Y-122621654D01*
X158729319Y-122621021D01*
X158746052Y-122620135D01*
X158762729Y-122618997D01*
X158779350Y-122617605D01*
X158795915Y-122615960D01*
X158812423Y-122614062D01*
X158828875Y-122611911D01*
X158845271Y-122609508D01*
X158861611Y-122606851D01*
X158877894Y-122603941D01*
X158894121Y-122600778D01*
X158910292Y-122597362D01*
X158910292Y-123116876D01*
X159249289Y-123116876D01*
X159249289Y-123116801D01*
X159249289Y-123116801D01*
G37*
G36*
X157566705Y-122429157D02*
X157376182Y-121656816D01*
X157379981Y-121672623D01*
X157383448Y-121689136D01*
X157386586Y-121706356D01*
X157389393Y-121724281D01*
X157391870Y-121742913D01*
X157394017Y-121762250D01*
X157395834Y-121782294D01*
X157397320Y-121803044D01*
X157398476Y-121824500D01*
X157399302Y-121846662D01*
X157399797Y-121869530D01*
X157399962Y-121893104D01*
X157399797Y-121916557D01*
X157399302Y-121939308D01*
X157398476Y-121961360D01*
X157397320Y-121982711D01*
X157395834Y-122003361D01*
X157394017Y-122023311D01*
X157391870Y-122042561D01*
X157389393Y-122061110D01*
X157386586Y-122078959D01*
X157383448Y-122096108D01*
X157379981Y-122112556D01*
X157376182Y-122128303D01*
X157372054Y-122143350D01*
X157367595Y-122157697D01*
X157362806Y-122171343D01*
X157357687Y-122184289D01*
X157352238Y-122196535D01*
X157346458Y-122208080D01*
X157340348Y-122218924D01*
X157333907Y-122229069D01*
X157327137Y-122238512D01*
X157320036Y-122247256D01*
X157310175Y-122257641D01*
X157299723Y-122267397D01*
X157288680Y-122276524D01*
X157277045Y-122285021D01*
X157264819Y-122292888D01*
X157252002Y-122300127D01*
X157238593Y-122306736D01*
X157224594Y-122312715D01*
X157210003Y-122318065D01*
X157194820Y-122322786D01*
X157179047Y-122326877D01*
X157162682Y-122330339D01*
X157145726Y-122333171D01*
X157128179Y-122335374D01*
X157110040Y-122336948D01*
X157091310Y-122337892D01*
X157071989Y-122338206D01*
X157052673Y-122337892D01*
X157033957Y-122336948D01*
X157015842Y-122335374D01*
X156998328Y-122333171D01*
X156981415Y-122330339D01*
X156965103Y-122326877D01*
X156949391Y-122322786D01*
X156934281Y-122318065D01*
X156919771Y-122312715D01*
X156905861Y-122306736D01*
X156892553Y-122300127D01*
X156879846Y-122292888D01*
X156867739Y-122285021D01*
X156856233Y-122276524D01*
X156845328Y-122267397D01*
X156835024Y-122257641D01*
X156825320Y-122247256D01*
X156818219Y-122238512D01*
X156811449Y-122229069D01*
X156805008Y-122218924D01*
X156798898Y-122208080D01*
X156793119Y-122196535D01*
X156787669Y-122184289D01*
X156782550Y-122171343D01*
X156777761Y-122157697D01*
X156773302Y-122143350D01*
X156769174Y-122128303D01*
X156765376Y-122112556D01*
X156761908Y-122096108D01*
X156758770Y-122078959D01*
X156755963Y-122061110D01*
X156753486Y-122042561D01*
X156751339Y-122023311D01*
X156749522Y-122003361D01*
X156748036Y-121982711D01*
X156746880Y-121961360D01*
X156746054Y-121939308D01*
X156745559Y-121916557D01*
X156745394Y-121893104D01*
X156745559Y-121869530D01*
X156746054Y-121846662D01*
X156746880Y-121824500D01*
X156748036Y-121803044D01*
X156749522Y-121782294D01*
X156751339Y-121762250D01*
X156753486Y-121742913D01*
X156755963Y-121724281D01*
X156758770Y-121706356D01*
X156761908Y-121689136D01*
X156765376Y-121672623D01*
X156769174Y-121656816D01*
X156773302Y-121641715D01*
X156777761Y-121627320D01*
X156782550Y-121613631D01*
X156787669Y-121600648D01*
X156793119Y-121588371D01*
X156798898Y-121576801D01*
X156805008Y-121565936D01*
X156811449Y-121555778D01*
X156818219Y-121546326D01*
X156825320Y-121537580D01*
X156835024Y-121527035D01*
X156845328Y-121517130D01*
X156856233Y-121507864D01*
X156867739Y-121499236D01*
X156879846Y-121491248D01*
X156892553Y-121483899D01*
X156905861Y-121477189D01*
X156919771Y-121471118D01*
X156934281Y-121465686D01*
X156949391Y-121460893D01*
X156965103Y-121456739D01*
X156981415Y-121453225D01*
X156998328Y-121450349D01*
X157015842Y-121448112D01*
X157033957Y-121446515D01*
X157052673Y-121445556D01*
X157071989Y-121445237D01*
X157091310Y-121445556D01*
X157110040Y-121446515D01*
X157128179Y-121448112D01*
X157145726Y-121450349D01*
X157162682Y-121453225D01*
X157179047Y-121456739D01*
X157194820Y-121460893D01*
X157210003Y-121465686D01*
X157224594Y-121471118D01*
X157238593Y-121477189D01*
X157252002Y-121483899D01*
X157264819Y-121491248D01*
X157277045Y-121499236D01*
X157288680Y-121507864D01*
X157299723Y-121517130D01*
X157310175Y-121527035D01*
X157320036Y-121537580D01*
X157327137Y-121546326D01*
X157333907Y-121555778D01*
X157340348Y-121565936D01*
X157346458Y-121576801D01*
X157352238Y-121588371D01*
X157357687Y-121600648D01*
X157362806Y-121613631D01*
X157367595Y-121627320D01*
X157372054Y-121641715D01*
X157376182Y-121656816D01*
X157566705Y-122429157D01*
X157576407Y-122418315D01*
X157585828Y-122407208D01*
X157594969Y-122395834D01*
X157603827Y-122384196D01*
X157612405Y-122372292D01*
X157620701Y-122360123D01*
X157628716Y-122347688D01*
X157636450Y-122334987D01*
X157643903Y-122322021D01*
X157651074Y-122308790D01*
X157657965Y-122295293D01*
X157664574Y-122281531D01*
X157670901Y-122267503D01*
X157676948Y-122253210D01*
X157682713Y-122238651D01*
X157688197Y-122223827D01*
X157693400Y-122208738D01*
X157698321Y-122193383D01*
X157702962Y-122177762D01*
X157707321Y-122161876D01*
X157711399Y-122145725D01*
X157715195Y-122129308D01*
X157718711Y-122112626D01*
X157721945Y-122095678D01*
X157724898Y-122078464D01*
X157727570Y-122060986D01*
X157729960Y-122043241D01*
X157732069Y-122025232D01*
X157733897Y-122006957D01*
X157735444Y-121988416D01*
X157736710Y-121969610D01*
X157737694Y-121950538D01*
X157738397Y-121931201D01*
X157738819Y-121911599D01*
X157738960Y-121891731D01*
X157738819Y-121871862D01*
X157738397Y-121852258D01*
X157737694Y-121832920D01*
X157736710Y-121813848D01*
X157735444Y-121795041D01*
X157733897Y-121776499D01*
X157732069Y-121758223D01*
X157729960Y-121740213D01*
X157727570Y-121722468D01*
X157724898Y-121704988D01*
X157721945Y-121687774D01*
X157718711Y-121670825D01*
X157715195Y-121654142D01*
X157711399Y-121637725D01*
X157707321Y-121621573D01*
X157702962Y-121605686D01*
X157698321Y-121590065D01*
X157693400Y-121574710D01*
X157688197Y-121559620D01*
X157682713Y-121544795D01*
X157676948Y-121530236D01*
X157670901Y-121515942D01*
X157664574Y-121501914D01*
X157657965Y-121488152D01*
X157651074Y-121474654D01*
X157643903Y-121461423D01*
X157636450Y-121448457D01*
X157628716Y-121435756D01*
X157620701Y-121423321D01*
X157612405Y-121411151D01*
X157603827Y-121399247D01*
X157594969Y-121387609D01*
X157585828Y-121376235D01*
X157576407Y-121365128D01*
X157566705Y-121354286D01*
X157556128Y-121343099D01*
X157545279Y-121332257D01*
X157534156Y-121321759D01*
X157522759Y-121311605D01*
X157511090Y-121301796D01*
X157499147Y-121292331D01*
X157486930Y-121283209D01*
X157474441Y-121274432D01*
X157461678Y-121266000D01*
X157448641Y-121257911D01*
X157435332Y-121250167D01*
X157421749Y-121242766D01*
X157407892Y-121235710D01*
X157393763Y-121228999D01*
X157379360Y-121222631D01*
X157364684Y-121216608D01*
X157349734Y-121210928D01*
X157334511Y-121205593D01*
X157319015Y-121200602D01*
X157303245Y-121195956D01*
X157287202Y-121191653D01*
X157270886Y-121187695D01*
X157254296Y-121184081D01*
X157237433Y-121180811D01*
X157220297Y-121177886D01*
X157202887Y-121175304D01*
X157185205Y-121173067D01*
X157167248Y-121171174D01*
X157149019Y-121169625D01*
X157130516Y-121168420D01*
X157111740Y-121167560D01*
X157092690Y-121167043D01*
X157073367Y-121166871D01*
X157053962Y-121167043D01*
X157034833Y-121167560D01*
X157015979Y-121168420D01*
X156997402Y-121169625D01*
X156979100Y-121171174D01*
X156961074Y-121173067D01*
X156943324Y-121175304D01*
X156925850Y-121177886D01*
X156908652Y-121180811D01*
X156891729Y-121184081D01*
X156875083Y-121187695D01*
X156858712Y-121191653D01*
X156842617Y-121195956D01*
X156826798Y-121200602D01*
X156811255Y-121205593D01*
X156795988Y-121210928D01*
X156780996Y-121216608D01*
X156766281Y-121222631D01*
X156751841Y-121228999D01*
X156737677Y-121235710D01*
X156723789Y-121242766D01*
X156710177Y-121250167D01*
X156696841Y-121257911D01*
X156683781Y-121266000D01*
X156670996Y-121274432D01*
X156658488Y-121283209D01*
X156646255Y-121292331D01*
X156634298Y-121301796D01*
X156622617Y-121311605D01*
X156611212Y-121321759D01*
X156600082Y-121332257D01*
X156589229Y-121343099D01*
X156578651Y-121354286D01*
X156568949Y-121365128D01*
X156559527Y-121376235D01*
X156550387Y-121387609D01*
X156541529Y-121399247D01*
X156532951Y-121411151D01*
X156524655Y-121423321D01*
X156516640Y-121435756D01*
X156508906Y-121448457D01*
X156501453Y-121461423D01*
X156494282Y-121474654D01*
X156487391Y-121488152D01*
X156480782Y-121501914D01*
X156474455Y-121515942D01*
X156468408Y-121530236D01*
X156462643Y-121544795D01*
X156457159Y-121559620D01*
X156451956Y-121574710D01*
X156447035Y-121590065D01*
X156442394Y-121605686D01*
X156438035Y-121621573D01*
X156433957Y-121637725D01*
X156430161Y-121654142D01*
X156426645Y-121670825D01*
X156423411Y-121687774D01*
X156420458Y-121704988D01*
X156417786Y-121722468D01*
X156415396Y-121740213D01*
X156413287Y-121758223D01*
X156411459Y-121776499D01*
X156409912Y-121795041D01*
X156408646Y-121813848D01*
X156407662Y-121832920D01*
X156406959Y-121852258D01*
X156406537Y-121871862D01*
X156406397Y-121891731D01*
X156406537Y-121911599D01*
X156406959Y-121931201D01*
X156407662Y-121950538D01*
X156408646Y-121969610D01*
X156409912Y-121988416D01*
X156411459Y-122006957D01*
X156413287Y-122025232D01*
X156415396Y-122043241D01*
X156417786Y-122060986D01*
X156420458Y-122078464D01*
X156423411Y-122095678D01*
X156426645Y-122112626D01*
X156430161Y-122129308D01*
X156433957Y-122145725D01*
X156438035Y-122161876D01*
X156442394Y-122177762D01*
X156447035Y-122193383D01*
X156451956Y-122208738D01*
X156457159Y-122223827D01*
X156462643Y-122238651D01*
X156468408Y-122253210D01*
X156474455Y-122267503D01*
X156480782Y-122281531D01*
X156487391Y-122295293D01*
X156494282Y-122308790D01*
X156501453Y-122322021D01*
X156508906Y-122334987D01*
X156516640Y-122347688D01*
X156524655Y-122360123D01*
X156532951Y-122372292D01*
X156541529Y-122384196D01*
X156550387Y-122395834D01*
X156559527Y-122407208D01*
X156568949Y-122418315D01*
X156578651Y-122429157D01*
X156589229Y-122440344D01*
X156600082Y-122451186D01*
X156611212Y-122461684D01*
X156622617Y-122471837D01*
X156634298Y-122481647D01*
X156646255Y-122491112D01*
X156658488Y-122500234D01*
X156670996Y-122509011D01*
X156683781Y-122517443D01*
X156696841Y-122525532D01*
X156710177Y-122533276D01*
X156723789Y-122540677D01*
X156737677Y-122547733D01*
X156751841Y-122554444D01*
X156766281Y-122560812D01*
X156780996Y-122566835D01*
X156795988Y-122572515D01*
X156811255Y-122577850D01*
X156826798Y-122582840D01*
X156842617Y-122587487D01*
X156858712Y-122591790D01*
X156875083Y-122595748D01*
X156891729Y-122599362D01*
X156908652Y-122602632D01*
X156925850Y-122605557D01*
X156943324Y-122608139D01*
X156961074Y-122610376D01*
X156979100Y-122612269D01*
X156997402Y-122613818D01*
X157015979Y-122615023D01*
X157034833Y-122615883D01*
X157053962Y-122616400D01*
X157073367Y-122616572D01*
X157092690Y-122616400D01*
X157111740Y-122615883D01*
X157130516Y-122615023D01*
X157149019Y-122613818D01*
X157167248Y-122612269D01*
X157185205Y-122610376D01*
X157202887Y-122608139D01*
X157220297Y-122605557D01*
X157237433Y-122602632D01*
X157254296Y-122599362D01*
X157270886Y-122595748D01*
X157287202Y-122591790D01*
X157303245Y-122587487D01*
X157319015Y-122582840D01*
X157334511Y-122577850D01*
X157349734Y-122572515D01*
X157364684Y-122566835D01*
X157379360Y-122560812D01*
X157393763Y-122554444D01*
X157407892Y-122547733D01*
X157421749Y-122540677D01*
X157435332Y-122533276D01*
X157448641Y-122525532D01*
X157461678Y-122517443D01*
X157474441Y-122509011D01*
X157486930Y-122500234D01*
X157499147Y-122491112D01*
X157511090Y-122481647D01*
X157522759Y-122471837D01*
X157534156Y-122461684D01*
X157545279Y-122451186D01*
X157556128Y-122440344D01*
X157566705Y-122429157D01*
X157566705Y-122429157D01*
G37*
G36*
X156042594Y-122594521D02*
X156042594Y-120650122D01*
X155703597Y-120650122D01*
X155703597Y-122594521D01*
X156042594Y-122594521D01*
X156042594Y-122594521D01*
G37*
G36*
X155397673Y-121186175D02*
X155038005Y-121186175D01*
X154722434Y-122168704D01*
X154412375Y-121186175D01*
X154054085Y-121186175D01*
X154590142Y-122628971D01*
X154597958Y-122649925D01*
X154605820Y-122670400D01*
X154613728Y-122690397D01*
X154621681Y-122709916D01*
X154629681Y-122728956D01*
X154637726Y-122747518D01*
X154645818Y-122765601D01*
X154653955Y-122783206D01*
X154662138Y-122800333D01*
X154670367Y-122816981D01*
X154678641Y-122833150D01*
X154686962Y-122848842D01*
X154695329Y-122864054D01*
X154703741Y-122878789D01*
X154712199Y-122893044D01*
X154720704Y-122906822D01*
X154729254Y-122920121D01*
X154737850Y-122932941D01*
X154746491Y-122945283D01*
X154755179Y-122957147D01*
X154763913Y-122968532D01*
X154772692Y-122979438D01*
X154781517Y-122989867D01*
X154790389Y-122999816D01*
X154799306Y-123009288D01*
X154808269Y-123018281D01*
X154817278Y-123026795D01*
X154826332Y-123034831D01*
X154835433Y-123042388D01*
X154850162Y-123054000D01*
X154864950Y-123064948D01*
X154879798Y-123075232D01*
X154894706Y-123084853D01*
X154909673Y-123093811D01*
X154924699Y-123102105D01*
X154939785Y-123109735D01*
X154954931Y-123116702D01*
X154970136Y-123123005D01*
X154985401Y-123128645D01*
X155000725Y-123133621D01*
X155016109Y-123137934D01*
X155031552Y-123141584D01*
X155047055Y-123144569D01*
X155062618Y-123146892D01*
X155078240Y-123148551D01*
X155093921Y-123149546D01*
X155109663Y-123149878D01*
X155125799Y-123149649D01*
X155141985Y-123148964D01*
X155158220Y-123147822D01*
X155174504Y-123146224D01*
X155190836Y-123144169D01*
X155207218Y-123141657D01*
X155223648Y-123138689D01*
X155240128Y-123135264D01*
X155256656Y-123131382D01*
X155273233Y-123127044D01*
X155289859Y-123122249D01*
X155306534Y-123116997D01*
X155323258Y-123111288D01*
X155323258Y-122828784D01*
X155307025Y-122835329D01*
X155290847Y-122841186D01*
X155274724Y-122846353D01*
X155258656Y-122850832D01*
X155242643Y-122854621D01*
X155226686Y-122857722D01*
X155210783Y-122860133D01*
X155194936Y-122861856D01*
X155179143Y-122862889D01*
X155163406Y-122863234D01*
X155153357Y-122862827D01*
X155143357Y-122861608D01*
X155133406Y-122859577D01*
X155123504Y-122856732D01*
X155113651Y-122853075D01*
X155103847Y-122848605D01*
X155094093Y-122843322D01*
X155084388Y-122837227D01*
X155074732Y-122830318D01*
X155065125Y-122822597D01*
X155055567Y-122814064D01*
X155046058Y-122804717D01*
X155036599Y-122794558D01*
X155027188Y-122783586D01*
X155017827Y-122771802D01*
X155008515Y-122759205D01*
X154999252Y-122745795D01*
X154990039Y-122731572D01*
X154980874Y-122716536D01*
X154971759Y-122700688D01*
X154962693Y-122684027D01*
X154953676Y-122666554D01*
X154944708Y-122648267D01*
X154935789Y-122629168D01*
X154926919Y-122609256D01*
X154918099Y-122588532D01*
X154909328Y-122566994D01*
X154900606Y-122544644D01*
X154891933Y-122521482D01*
X155397673Y-121186175D01*
X155397673Y-121186175D01*
G37*
G36*
X153858404Y-121603714D02*
X153858123Y-121585448D01*
X153857279Y-121567557D01*
X153855872Y-121550042D01*
X153853903Y-121532901D01*
X153851370Y-121516136D01*
X153848276Y-121499746D01*
X153844618Y-121483731D01*
X153840398Y-121468091D01*
X153835615Y-121452826D01*
X153830270Y-121437936D01*
X153824362Y-121423421D01*
X153817891Y-121409281D01*
X153810858Y-121395516D01*
X153803262Y-121382127D01*
X153795103Y-121369112D01*
X153786381Y-121356473D01*
X153777097Y-121344209D01*
X153767250Y-121332319D01*
X153756841Y-121320805D01*
X153745868Y-121309666D01*
X153734334Y-121298902D01*
X153722236Y-121288513D01*
X153709576Y-121278500D01*
X153696932Y-121269167D01*
X153684034Y-121260231D01*
X153670883Y-121251693D01*
X153657478Y-121243552D01*
X153643820Y-121235807D01*
X153629908Y-121228460D01*
X153615742Y-121221511D01*
X153601323Y-121214958D01*
X153586650Y-121208802D01*
X153571724Y-121203044D01*
X153556544Y-121197682D01*
X153541111Y-121192718D01*
X153525423Y-121188151D01*
X153509483Y-121183981D01*
X153493288Y-121180208D01*
X153476840Y-121176833D01*
X153460139Y-121173854D01*
X153443184Y-121171273D01*
X153425975Y-121169089D01*
X153408513Y-121167301D01*
X153390797Y-121165911D01*
X153372827Y-121164919D01*
X153354604Y-121164323D01*
X153336127Y-121164124D01*
X153318732Y-121164299D01*
X153301456Y-121164823D01*
X153284300Y-121165696D01*
X153267264Y-121166919D01*
X153250347Y-121168491D01*
X153233550Y-121170412D01*
X153216872Y-121172683D01*
X153200314Y-121175302D01*
X153183876Y-121178272D01*
X153167557Y-121181590D01*
X153151358Y-121185258D01*
X153135278Y-121189275D01*
X153119318Y-121193642D01*
X153103478Y-121198357D01*
X153087758Y-121203422D01*
X153072156Y-121208837D01*
X153056675Y-121214600D01*
X153041313Y-121220713D01*
X153026071Y-121227176D01*
X153010949Y-121233987D01*
X152995946Y-121241148D01*
X152981062Y-121248659D01*
X152966299Y-121256518D01*
X152951655Y-121264727D01*
X152951655Y-121522415D01*
X152966083Y-121515831D01*
X152980704Y-121509585D01*
X152995518Y-121503676D01*
X153010525Y-121498105D01*
X153025724Y-121492872D01*
X153041117Y-121487976D01*
X153056703Y-121483418D01*
X153072481Y-121479198D01*
X153088453Y-121475315D01*
X153104617Y-121471770D01*
X153120974Y-121468563D01*
X153137524Y-121465693D01*
X153154268Y-121463161D01*
X153171204Y-121460966D01*
X153188333Y-121459109D01*
X153205655Y-121457590D01*
X153223170Y-121456408D01*
X153240877Y-121455564D01*
X153258778Y-121455057D01*
X153276872Y-121454889D01*
X153299420Y-121455157D01*
X153320869Y-121455963D01*
X153341218Y-121457307D01*
X153360466Y-121459188D01*
X153378615Y-121461607D01*
X153395664Y-121464563D01*
X153411613Y-121468057D01*
X153426462Y-121472088D01*
X153440211Y-121476657D01*
X153452861Y-121481763D01*
X153464410Y-121487406D01*
X153474859Y-121493587D01*
X153484209Y-121500306D01*
X153492458Y-121507562D01*
X153499608Y-121515355D01*
X153505657Y-121523686D01*
X153510607Y-121532555D01*
X153514457Y-121541960D01*
X153517207Y-121551904D01*
X153518857Y-121562385D01*
X153519406Y-121573403D01*
X153518330Y-121587828D01*
X153515100Y-121601477D01*
X153509717Y-121614352D01*
X153502181Y-121626451D01*
X153492492Y-121637776D01*
X153480649Y-121648326D01*
X153466653Y-121658101D01*
X153450505Y-121667101D01*
X153437726Y-121673058D01*
X153424447Y-121678901D01*
X153410667Y-121684630D01*
X153396385Y-121690246D01*
X153381603Y-121695748D01*
X153366319Y-121701135D01*
X153350534Y-121706409D01*
X153334248Y-121711570D01*
X153317461Y-121716616D01*
X153300173Y-121721549D01*
X153282384Y-121726367D01*
X153265857Y-121730635D01*
X153249349Y-121735170D01*
X153232861Y-121739973D01*
X153216391Y-121745044D01*
X153199941Y-121750384D01*
X153183510Y-121755991D01*
X153167098Y-121761867D01*
X153150705Y-121768011D01*
X153134331Y-121774423D01*
X153117976Y-121781103D01*
X153101641Y-121788051D01*
X153085324Y-121795267D01*
X153071305Y-121801678D01*
X153057595Y-121808708D01*
X153044194Y-121816356D01*
X153031103Y-121824623D01*
X153018321Y-121833509D01*
X153005848Y-121843014D01*
X152993685Y-121853137D01*
X152981831Y-121863879D01*
X152970286Y-121875240D01*
X152959051Y-121887220D01*
X152948125Y-121899818D01*
X152937509Y-121913036D01*
X152927202Y-121926872D01*
X152917204Y-121941327D01*
X152909179Y-121953683D01*
X152901640Y-121966431D01*
X152894588Y-121979569D01*
X152888022Y-121993098D01*
X152881942Y-122007018D01*
X152876349Y-122021329D01*
X152871242Y-122036030D01*
X152866622Y-122051123D01*
X152862488Y-122066606D01*
X152858840Y-122082481D01*
X152855678Y-122098746D01*
X152853003Y-122115402D01*
X152850815Y-122132449D01*
X152849112Y-122149887D01*
X152847897Y-122167716D01*
X152847167Y-122185935D01*
X152846924Y-122204546D01*
X152847252Y-122221338D01*
X152848236Y-122237856D01*
X152849877Y-122254098D01*
X152852173Y-122270066D01*
X152855126Y-122285758D01*
X152858736Y-122301176D01*
X152863001Y-122316319D01*
X152867922Y-122331186D01*
X152873500Y-122345779D01*
X152879734Y-122360097D01*
X152886624Y-122374140D01*
X152894171Y-122387908D01*
X152902373Y-122401401D01*
X152911232Y-122414620D01*
X152920747Y-122427563D01*
X152930919Y-122440231D01*
X152941746Y-122452625D01*
X152953230Y-122464743D01*
X152965369Y-122476587D01*
X152978166Y-122488156D01*
X152991618Y-122499449D01*
X153003723Y-122509006D01*
X153016155Y-122518156D01*
X153028911Y-122526900D01*
X153041993Y-122535237D01*
X153055400Y-122543167D01*
X153069132Y-122550690D01*
X153083190Y-122557807D01*
X153097574Y-122564517D01*
X153112282Y-122570821D01*
X153127316Y-122576718D01*
X153142676Y-122582208D01*
X153158360Y-122587291D01*
X153174371Y-122591968D01*
X153190706Y-122596238D01*
X153207367Y-122600101D01*
X153224353Y-122603558D01*
X153241665Y-122606608D01*
X153259302Y-122609251D01*
X153277264Y-122611488D01*
X153295552Y-122613318D01*
X153314165Y-122614742D01*
X153333103Y-122615758D01*
X153352367Y-122616368D01*
X153371956Y-122616572D01*
X153389231Y-122616424D01*
X153406407Y-122615981D01*
X153423485Y-122615243D01*
X153440464Y-122614209D01*
X153457345Y-122612881D01*
X153474128Y-122611257D01*
X153490812Y-122609337D01*
X153507398Y-122607123D01*
X153523885Y-122604613D01*
X153540274Y-122601808D01*
X153556564Y-122598707D01*
X153572756Y-122595312D01*
X153588850Y-122591621D01*
X153604845Y-122587634D01*
X153620741Y-122583353D01*
X153636540Y-122578776D01*
X153652239Y-122573904D01*
X153667841Y-122568737D01*
X153683344Y-122563274D01*
X153698748Y-122557516D01*
X153714054Y-122551463D01*
X153729262Y-122545114D01*
X153744371Y-122538471D01*
X153759382Y-122531532D01*
X153774294Y-122524297D01*
X153789108Y-122516768D01*
X153803824Y-122508943D01*
X153818441Y-122500823D01*
X153818441Y-122199033D01*
X153803516Y-122208757D01*
X153788508Y-122218084D01*
X153773415Y-122227014D01*
X153758239Y-122235547D01*
X153742979Y-122243683D01*
X153727636Y-122251422D01*
X153712208Y-122258765D01*
X153696697Y-122265710D01*
X153681102Y-122272259D01*
X153665423Y-122278411D01*
X153649661Y-122284166D01*
X153633814Y-122289524D01*
X153617884Y-122294485D01*
X153601870Y-122299049D01*
X153585773Y-122303216D01*
X153569591Y-122306987D01*
X153553326Y-122310360D01*
X153536977Y-122313337D01*
X153520544Y-122315917D01*
X153504028Y-122318099D01*
X153487427Y-122319885D01*
X153470743Y-122321275D01*
X153453975Y-122322267D01*
X153437123Y-122322862D01*
X153420188Y-122323061D01*
X153396551Y-122322831D01*
X153374330Y-122322142D01*
X153353525Y-122320993D01*
X153334137Y-122319385D01*
X153316165Y-122317318D01*
X153299609Y-122314791D01*
X153284470Y-122311805D01*
X153270747Y-122308360D01*
X153258440Y-122304455D01*
X153247550Y-122300091D01*
X153238076Y-122295267D01*
X153230018Y-122289984D01*
X153219683Y-122280855D01*
X153210726Y-122270692D01*
X153203147Y-122259495D01*
X153196946Y-122247265D01*
X153192122Y-122234001D01*
X153188677Y-122219704D01*
X153186610Y-122204373D01*
X153185921Y-122188008D01*
X153186789Y-122174533D01*
X153189392Y-122161671D01*
X153193730Y-122149421D01*
X153199804Y-122137783D01*
X153207613Y-122126757D01*
X153217157Y-122116344D01*
X153228436Y-122106543D01*
X153241451Y-122097355D01*
X153256201Y-122088778D01*
X153268979Y-122081857D01*
X153282259Y-122075117D01*
X153296039Y-122068559D01*
X153310320Y-122062183D01*
X153325103Y-122055989D01*
X153340387Y-122049976D01*
X153356172Y-122044146D01*
X153372457Y-122038498D01*
X153389245Y-122033031D01*
X153406533Y-122027747D01*
X153424322Y-122022644D01*
X153440638Y-122017754D01*
X153456974Y-122012731D01*
X153473328Y-122007573D01*
X153489702Y-122002280D01*
X153506095Y-121996854D01*
X153522507Y-121991294D01*
X153538938Y-121985600D01*
X153555389Y-121979772D01*
X153571858Y-121973809D01*
X153588347Y-121967713D01*
X153604854Y-121961483D01*
X153621381Y-121955118D01*
X153636271Y-121948888D01*
X153650834Y-121942071D01*
X153665071Y-121934666D01*
X153678982Y-121926675D01*
X153692566Y-121918097D01*
X153705825Y-121908932D01*
X153718757Y-121899181D01*
X153731363Y-121888842D01*
X153743644Y-121877916D01*
X153755597Y-121866403D01*
X153767225Y-121854304D01*
X153778527Y-121841617D01*
X153789502Y-121828344D01*
X153798383Y-121816198D01*
X153806651Y-121803648D01*
X153814307Y-121790694D01*
X153821350Y-121777335D01*
X153827781Y-121763573D01*
X153833599Y-121749406D01*
X153838805Y-121734835D01*
X153843399Y-121719859D01*
X153847380Y-121704480D01*
X153850748Y-121688696D01*
X153853504Y-121672508D01*
X153855648Y-121655916D01*
X153857179Y-121638919D01*
X153858098Y-121621519D01*
X153858404Y-121603714D01*
X153858404Y-121603714D01*
G37*
G36*
X152633328Y-121476939D02*
X152633328Y-121186175D01*
X152396305Y-121186175D01*
X152396305Y-120768618D01*
X152057308Y-120768618D01*
X152057308Y-121186175D01*
X151723823Y-121186175D01*
X151723823Y-121476939D01*
X152057308Y-121476939D01*
X152057308Y-122171470D01*
X152056727Y-122193281D01*
X152054983Y-122213241D01*
X152052076Y-122231348D01*
X152048006Y-122247604D01*
X152042774Y-122262007D01*
X152036379Y-122274558D01*
X152028821Y-122285257D01*
X152020101Y-122294105D01*
X152010812Y-122300758D01*
X152000094Y-122306629D01*
X151987947Y-122311717D01*
X151974370Y-122316023D01*
X151959365Y-122319545D01*
X151942931Y-122322285D01*
X151925067Y-122324242D01*
X151905775Y-122325416D01*
X151885053Y-122325807D01*
X151867070Y-122325504D01*
X151849500Y-122324595D01*
X151832343Y-122323080D01*
X151815600Y-122320958D01*
X151799270Y-122318230D01*
X151783354Y-122314896D01*
X151767851Y-122310955D01*
X151752761Y-122306409D01*
X151738085Y-122301256D01*
X151723823Y-122295497D01*
X151723823Y-122575235D01*
X151739193Y-122581350D01*
X151754776Y-122586976D01*
X151770570Y-122592112D01*
X151786576Y-122596760D01*
X151802795Y-122600918D01*
X151819225Y-122604587D01*
X151835868Y-122607766D01*
X151852722Y-122610457D01*
X151869789Y-122612658D01*
X151887067Y-122614370D01*
X151904558Y-122615593D01*
X151922260Y-122616327D01*
X151940175Y-122616572D01*
X151947065Y-122616572D01*
X151965922Y-122616315D01*
X151984408Y-122615547D01*
X152002525Y-122614265D01*
X152020271Y-122612472D01*
X152037648Y-122610165D01*
X152054654Y-122607346D01*
X152071290Y-122604015D01*
X152087556Y-122600171D01*
X152103452Y-122595815D01*
X152118978Y-122590946D01*
X152134133Y-122585565D01*
X152148919Y-122579671D01*
X152163334Y-122573265D01*
X152177379Y-122566346D01*
X152191054Y-122558914D01*
X152204359Y-122550970D01*
X152217294Y-122542514D01*
X152229859Y-122533545D01*
X152242053Y-122524064D01*
X152253877Y-122514070D01*
X152265332Y-122503563D01*
X152276416Y-122492544D01*
X152286614Y-122481584D01*
X152296360Y-122470269D01*
X152305652Y-122458600D01*
X152314490Y-122446576D01*
X152322876Y-122434198D01*
X152330808Y-122421465D01*
X152338287Y-122408378D01*
X152345313Y-122394937D01*
X152351885Y-122381142D01*
X152358004Y-122366992D01*
X152363670Y-122352487D01*
X152368882Y-122337628D01*
X152373642Y-122322415D01*
X152377948Y-122306848D01*
X152381801Y-122290926D01*
X152385200Y-122274649D01*
X152388146Y-122258019D01*
X152390639Y-122241033D01*
X152392679Y-122223694D01*
X152394265Y-122206000D01*
X152395399Y-122187952D01*
X152396079Y-122169549D01*
X152396305Y-122150792D01*
X152396305Y-121476939D01*
X152633328Y-121476939D01*
X152633328Y-121476939D01*
X152633328Y-121476939D01*
G37*
G36*
X151456483Y-122134254D02*
X151121621Y-122091544D01*
X151121282Y-122107399D01*
X151120264Y-122122677D01*
X151118568Y-122137379D01*
X151116193Y-122151504D01*
X151113140Y-122165053D01*
X151109408Y-122178025D01*
X151104998Y-122190421D01*
X151099910Y-122202240D01*
X151094143Y-122213482D01*
X151087697Y-122224148D01*
X151080573Y-122234238D01*
X151072771Y-122243751D01*
X151064290Y-122252687D01*
X151055131Y-122261047D01*
X151045293Y-122268830D01*
X151034776Y-122276037D01*
X151023582Y-122282667D01*
X151011708Y-122288721D01*
X150999157Y-122294198D01*
X150985926Y-122299098D01*
X150972018Y-122303423D01*
X150957430Y-122307170D01*
X150942165Y-122310341D01*
X150926221Y-122312935D01*
X150909598Y-122314953D01*
X150892297Y-122316395D01*
X150874318Y-122317259D01*
X150855660Y-122317548D01*
X150852903Y-122317548D01*
X150834469Y-122317255D01*
X150816730Y-122316376D01*
X150799687Y-122314911D01*
X150783340Y-122312860D01*
X150767688Y-122310223D01*
X150752732Y-122306999D01*
X150738471Y-122303190D01*
X150724906Y-122298795D01*
X150712037Y-122293814D01*
X150699863Y-122288247D01*
X150688385Y-122282094D01*
X150677603Y-122275354D01*
X150667516Y-122268029D01*
X150658125Y-122260118D01*
X150649430Y-122251620D01*
X150641430Y-122242537D01*
X150634126Y-122232868D01*
X150627517Y-122222612D01*
X150621604Y-122211771D01*
X150616387Y-122200344D01*
X150611865Y-122188330D01*
X150608039Y-122175731D01*
X150604909Y-122162545D01*
X150602474Y-122148774D01*
X150600735Y-122134416D01*
X150599692Y-122119473D01*
X150599344Y-122103943D01*
X150599344Y-121926181D01*
X150618857Y-121923527D01*
X150637891Y-121921085D01*
X150656446Y-121918855D01*
X150674524Y-121916836D01*
X150692122Y-121915029D01*
X150709243Y-121913434D01*
X150725884Y-121912050D01*
X150742047Y-121910878D01*
X150757732Y-121909918D01*
X150772939Y-121909169D01*
X150787666Y-121908632D01*
X150801916Y-121908307D01*
X150823492Y-121908525D01*
X150844315Y-121909178D01*
X150864384Y-121910268D01*
X150883700Y-121911794D01*
X150902262Y-121913755D01*
X150920070Y-121916152D01*
X150937124Y-121918985D01*
X150953424Y-121922254D01*
X150968971Y-121925959D01*
X150983764Y-121930099D01*
X150997803Y-121934676D01*
X151011089Y-121939688D01*
X151023621Y-121945136D01*
X151035399Y-121951020D01*
X151046423Y-121957340D01*
X151056694Y-121964096D01*
X151066211Y-121971287D01*
X151074974Y-121978915D01*
X151082983Y-121986978D01*
X151090239Y-121995477D01*
X151096740Y-122004412D01*
X151102489Y-122013783D01*
X151107483Y-122023589D01*
X151111724Y-122033832D01*
X151115210Y-122044510D01*
X151117944Y-122055624D01*
X151119923Y-122067174D01*
X151121149Y-122079160D01*
X151121620Y-122091582D01*
X151121621Y-122091544D01*
X151456483Y-122134254D01*
X151456152Y-122117114D01*
X151455160Y-122099863D01*
X151453507Y-122082501D01*
X151451192Y-122065027D01*
X151448216Y-122047442D01*
X151445319Y-122033999D01*
X151441354Y-122019656D01*
X151436319Y-122004413D01*
X151430217Y-121988270D01*
X151423045Y-121971227D01*
X151414805Y-121953284D01*
X151405497Y-121934441D01*
X151397229Y-121919639D01*
X151388348Y-121905246D01*
X151378855Y-121891261D01*
X151368749Y-121877684D01*
X151358031Y-121864516D01*
X151346701Y-121851756D01*
X151334758Y-121839404D01*
X151322202Y-121827461D01*
X151309034Y-121815926D01*
X151298527Y-121807533D01*
X151287215Y-121799351D01*
X151275100Y-121791380D01*
X151262181Y-121783619D01*
X151248458Y-121776069D01*
X151233931Y-121768729D01*
X151218600Y-121761600D01*
X151202466Y-121754682D01*
X151185527Y-121747974D01*
X151167785Y-121741477D01*
X151149239Y-121735190D01*
X151129889Y-121729114D01*
X151115799Y-121724867D01*
X151101413Y-121720877D01*
X151086731Y-121717145D01*
X151071754Y-121713669D01*
X151056481Y-121710452D01*
X151040913Y-121707491D01*
X151025049Y-121704788D01*
X151008889Y-121702343D01*
X150992433Y-121700155D01*
X150975682Y-121698224D01*
X150958636Y-121696551D01*
X150941293Y-121695135D01*
X150923655Y-121693977D01*
X150905722Y-121693076D01*
X150887493Y-121692432D01*
X150868968Y-121692046D01*
X150850147Y-121691918D01*
X150834640Y-121692003D01*
X150818985Y-121692260D01*
X150803184Y-121692689D01*
X150787235Y-121693289D01*
X150771140Y-121694060D01*
X150754897Y-121695003D01*
X150738508Y-121696117D01*
X150721971Y-121697403D01*
X150705288Y-121698860D01*
X150688458Y-121700489D01*
X150671480Y-121702289D01*
X150654356Y-121704260D01*
X150637084Y-121706403D01*
X150619666Y-121708717D01*
X150602101Y-121711203D01*
X150602375Y-121695328D01*
X150603199Y-121679941D01*
X150604572Y-121665043D01*
X150606494Y-121650634D01*
X150608965Y-121636713D01*
X150611986Y-121623280D01*
X150615556Y-121610336D01*
X150619675Y-121597880D01*
X150624343Y-121585913D01*
X150629560Y-121574434D01*
X150635327Y-121563444D01*
X150641642Y-121552942D01*
X150648507Y-121542928D01*
X150655921Y-121533403D01*
X150663884Y-121524367D01*
X150672397Y-121515819D01*
X150681459Y-121507759D01*
X150691069Y-121500188D01*
X150701229Y-121493106D01*
X150711939Y-121486511D01*
X150723197Y-121480406D01*
X150735005Y-121474788D01*
X150747361Y-121469660D01*
X150760267Y-121465019D01*
X150773723Y-121460867D01*
X150787727Y-121457204D01*
X150802280Y-121454029D01*
X150817383Y-121451342D01*
X150833035Y-121449144D01*
X150849236Y-121447435D01*
X150865987Y-121446213D01*
X150883286Y-121445481D01*
X150901135Y-121445237D01*
X150919997Y-121445351D01*
X150938661Y-121445695D01*
X150957127Y-121446269D01*
X150975394Y-121447071D01*
X150993463Y-121448103D01*
X151011334Y-121449364D01*
X151029006Y-121450855D01*
X151046479Y-121452575D01*
X151063754Y-121454524D01*
X151080831Y-121456703D01*
X151097709Y-121459111D01*
X151114389Y-121461748D01*
X151130870Y-121464615D01*
X151147153Y-121467711D01*
X151163238Y-121471036D01*
X151179124Y-121474591D01*
X151194811Y-121478375D01*
X151210300Y-121482388D01*
X151225591Y-121486631D01*
X151240683Y-121491103D01*
X151255577Y-121495804D01*
X151270273Y-121500734D01*
X151284770Y-121505894D01*
X151299068Y-121511284D01*
X151313168Y-121516902D01*
X151313168Y-121242676D01*
X151298159Y-121236750D01*
X151283023Y-121231056D01*
X151267760Y-121225595D01*
X151252372Y-121220366D01*
X151236856Y-121215369D01*
X151221215Y-121210605D01*
X151205447Y-121206073D01*
X151189553Y-121201773D01*
X151173532Y-121197706D01*
X151157385Y-121193872D01*
X151141111Y-121190270D01*
X151124711Y-121186900D01*
X151108185Y-121183762D01*
X151091532Y-121180857D01*
X151074753Y-121178185D01*
X151057848Y-121175744D01*
X151040816Y-121173537D01*
X151023658Y-121171561D01*
X151006373Y-121169818D01*
X150988962Y-121168308D01*
X150971425Y-121167029D01*
X150953761Y-121165984D01*
X150935971Y-121165170D01*
X150918054Y-121164589D01*
X150900012Y-121164241D01*
X150881842Y-121164124D01*
X150861881Y-121164296D01*
X150842234Y-121164810D01*
X150822904Y-121165668D01*
X150803888Y-121166868D01*
X150785188Y-121168412D01*
X150766804Y-121170298D01*
X150748734Y-121172527D01*
X150730981Y-121175100D01*
X150713542Y-121178015D01*
X150696420Y-121181273D01*
X150679612Y-121184874D01*
X150663120Y-121188818D01*
X150646943Y-121193106D01*
X150631082Y-121197736D01*
X150615536Y-121202709D01*
X150600306Y-121208025D01*
X150585391Y-121213684D01*
X150570791Y-121219686D01*
X150556507Y-121226031D01*
X150542539Y-121232719D01*
X150528885Y-121239750D01*
X150515547Y-121247124D01*
X150502525Y-121254841D01*
X150489818Y-121262901D01*
X150477426Y-121271303D01*
X150465350Y-121280049D01*
X150453589Y-121289138D01*
X150442144Y-121298570D01*
X150431014Y-121308345D01*
X150420199Y-121318462D01*
X150409720Y-121328813D01*
X150399596Y-121339470D01*
X150389827Y-121350433D01*
X150380414Y-121361703D01*
X150371356Y-121373278D01*
X150362653Y-121385160D01*
X150354305Y-121397348D01*
X150346312Y-121409842D01*
X150338675Y-121422643D01*
X150331392Y-121435750D01*
X150324466Y-121449163D01*
X150317894Y-121462882D01*
X150311677Y-121476907D01*
X150305816Y-121491239D01*
X150300310Y-121505877D01*
X150295159Y-121520821D01*
X150290364Y-121536071D01*
X150285923Y-121551628D01*
X150281838Y-121567490D01*
X150278108Y-121583659D01*
X150274734Y-121600134D01*
X150271714Y-121616916D01*
X150269050Y-121634003D01*
X150266741Y-121651397D01*
X150264787Y-121669097D01*
X150263189Y-121687104D01*
X150261945Y-121705416D01*
X150261057Y-121724035D01*
X150260525Y-121742960D01*
X150260347Y-121762191D01*
X150260347Y-122142532D01*
X150260623Y-122159326D01*
X150261451Y-122175917D01*
X150262832Y-122192305D01*
X150264765Y-122208490D01*
X150267250Y-122224471D01*
X150270288Y-122240250D01*
X150273877Y-122255825D01*
X150278019Y-122271197D01*
X150282713Y-122286366D01*
X150287960Y-122301332D01*
X150293759Y-122316094D01*
X150300109Y-122330653D01*
X150307013Y-122345010D01*
X150314468Y-122359163D01*
X150322476Y-122373113D01*
X150331036Y-122386859D01*
X150340148Y-122400403D01*
X150349813Y-122413744D01*
X150360029Y-122426881D01*
X150370798Y-122439815D01*
X150382120Y-122452546D01*
X150393993Y-122465074D01*
X150406419Y-122477398D01*
X150416585Y-122486831D01*
X150427124Y-122495933D01*
X150438037Y-122504704D01*
X150449323Y-122513143D01*
X150460984Y-122521252D01*
X150473017Y-122529030D01*
X150485424Y-122536477D01*
X150498205Y-122543593D01*
X150511360Y-122550377D01*
X150524888Y-122556831D01*
X150538789Y-122562954D01*
X150553065Y-122568746D01*
X150567714Y-122574207D01*
X150582736Y-122579337D01*
X150598132Y-122584136D01*
X150613902Y-122588605D01*
X150630045Y-122592742D01*
X150646562Y-122596548D01*
X150663452Y-122600023D01*
X150680716Y-122603167D01*
X150698353Y-122605981D01*
X150716365Y-122608463D01*
X150734749Y-122610614D01*
X150753508Y-122612434D01*
X150772640Y-122613924D01*
X150792145Y-122615082D01*
X150812024Y-122615910D01*
X150832277Y-122616406D01*
X150852904Y-122616572D01*
X150873393Y-122616415D01*
X150893522Y-122615947D01*
X150913289Y-122615166D01*
X150932695Y-122614073D01*
X150951739Y-122612667D01*
X150970423Y-122610949D01*
X150988744Y-122608919D01*
X151006705Y-122606576D01*
X151024304Y-122603921D01*
X151041542Y-122600953D01*
X151058418Y-122597673D01*
X151074933Y-122594081D01*
X151091087Y-122590177D01*
X151106879Y-122585960D01*
X151122310Y-122581430D01*
X151137380Y-122576589D01*
X151152088Y-122571434D01*
X151166435Y-122565968D01*
X151180420Y-122560189D01*
X151194044Y-122554098D01*
X151207307Y-122547695D01*
X151220209Y-122540979D01*
X151232749Y-122533950D01*
X151244928Y-122526610D01*
X151256745Y-122518957D01*
X151268201Y-122510991D01*
X151279296Y-122502714D01*
X151290029Y-122494123D01*
X151300401Y-122485221D01*
X151310412Y-122476006D01*
X151322838Y-122463670D01*
X151334711Y-122451105D01*
X151346033Y-122438310D01*
X151356802Y-122425286D01*
X151367018Y-122412032D01*
X151376683Y-122398549D01*
X151385795Y-122384837D01*
X151394355Y-122370896D01*
X151402363Y-122356725D01*
X151409818Y-122342325D01*
X151416722Y-122327695D01*
X151423073Y-122312837D01*
X151428871Y-122297749D01*
X151434118Y-122282431D01*
X151438812Y-122266884D01*
X151442954Y-122251108D01*
X151446543Y-122235103D01*
X151449581Y-122218868D01*
X151452066Y-122202404D01*
X151453999Y-122185710D01*
X151455380Y-122168787D01*
X151456208Y-122151635D01*
X151456484Y-122134254D01*
X151456483Y-122134254D01*
X151456483Y-122134254D01*
G37*
G36*
X149962690Y-121891731D02*
X149962549Y-121871707D01*
X149962127Y-121851953D01*
X149961424Y-121832470D01*
X149960440Y-121813256D01*
X149959174Y-121794312D01*
X149957628Y-121775638D01*
X149955800Y-121757234D01*
X149953690Y-121739100D01*
X149951300Y-121721237D01*
X149948628Y-121703643D01*
X149945675Y-121686319D01*
X149942441Y-121669265D01*
X149938926Y-121652481D01*
X149935129Y-121635967D01*
X149931051Y-121619723D01*
X149926692Y-121603749D01*
X149922052Y-121588045D01*
X149917130Y-121572611D01*
X149911927Y-121557447D01*
X149906443Y-121542553D01*
X149900678Y-121527928D01*
X149894632Y-121513574D01*
X149888304Y-121499490D01*
X149881695Y-121485676D01*
X149874805Y-121472132D01*
X149867633Y-121458858D01*
X149860181Y-121445853D01*
X149852447Y-121433119D01*
X149844432Y-121420655D01*
X149836135Y-121408460D01*
X149827558Y-121396536D01*
X149818699Y-121384882D01*
X149809559Y-121373497D01*
X149800138Y-121362383D01*
X149790435Y-121351539D01*
X149779859Y-121340352D01*
X149769009Y-121329510D01*
X149757886Y-121319012D01*
X149746490Y-121308859D01*
X149734820Y-121299049D01*
X149722877Y-121289584D01*
X149710661Y-121280462D01*
X149698171Y-121271685D01*
X149685408Y-121263253D01*
X149672372Y-121255164D01*
X149659062Y-121247420D01*
X149645479Y-121240019D01*
X149631623Y-121232963D01*
X149617493Y-121226252D01*
X149603090Y-121219884D01*
X149588414Y-121213861D01*
X149573464Y-121208181D01*
X149558241Y-121202846D01*
X149542745Y-121197856D01*
X149526975Y-121193209D01*
X149510933Y-121188906D01*
X149494616Y-121184948D01*
X149478027Y-121181334D01*
X149461164Y-121178064D01*
X149444027Y-121175139D01*
X149426618Y-121172557D01*
X149408935Y-121170320D01*
X149390979Y-121168427D01*
X149372749Y-121166878D01*
X149354246Y-121165673D01*
X149335470Y-121164813D01*
X149316420Y-121164296D01*
X149297097Y-121164124D01*
X149279884Y-121164261D01*
X149262694Y-121164670D01*
X149245529Y-121165352D01*
X149228387Y-121166306D01*
X149211269Y-121167534D01*
X149194175Y-121169034D01*
X149177105Y-121170807D01*
X149160059Y-121172852D01*
X149143037Y-121175171D01*
X149126039Y-121177762D01*
X149109065Y-121180626D01*
X149092114Y-121183762D01*
X149075188Y-121187172D01*
X149058285Y-121190854D01*
X149041407Y-121194809D01*
X149024552Y-121199036D01*
X149007721Y-121203537D01*
X148990914Y-121208310D01*
X148974132Y-121213356D01*
X148957373Y-121218674D01*
X148940638Y-121224266D01*
X148923927Y-121230130D01*
X148907239Y-121236267D01*
X148890576Y-121242676D01*
X148890576Y-121525162D01*
X148906494Y-121518884D01*
X148922487Y-121512912D01*
X148938554Y-121507247D01*
X148954697Y-121501887D01*
X148970915Y-121496834D01*
X148987207Y-121492088D01*
X149003575Y-121487647D01*
X149020018Y-121483513D01*
X149036536Y-121479685D01*
X149053128Y-121476163D01*
X149069796Y-121472948D01*
X149086539Y-121470038D01*
X149103356Y-121467435D01*
X149120249Y-121465138D01*
X149137217Y-121463148D01*
X149154259Y-121461464D01*
X149171377Y-121460085D01*
X149188570Y-121459014D01*
X149205838Y-121458248D01*
X149223180Y-121457789D01*
X149240598Y-121457635D01*
X149260776Y-121457884D01*
X149280404Y-121458628D01*
X149299483Y-121459869D01*
X149318012Y-121461606D01*
X149335992Y-121463839D01*
X149353421Y-121466568D01*
X149370301Y-121469794D01*
X149386632Y-121473516D01*
X149402412Y-121477735D01*
X149417643Y-121482449D01*
X149432325Y-121487660D01*
X149446456Y-121493367D01*
X149460038Y-121499571D01*
X149473070Y-121506270D01*
X149485553Y-121513466D01*
X149497486Y-121521158D01*
X149508869Y-121529347D01*
X149519702Y-121538032D01*
X149529986Y-121547213D01*
X149538311Y-121555579D01*
X149546249Y-121564639D01*
X149553800Y-121574394D01*
X149560963Y-121584844D01*
X149567740Y-121595989D01*
X149574129Y-121607828D01*
X149580130Y-121620362D01*
X149585745Y-121633591D01*
X149590973Y-121647514D01*
X149595813Y-121662132D01*
X149600266Y-121677444D01*
X149604331Y-121693452D01*
X149608010Y-121710153D01*
X149611301Y-121727550D01*
X149614206Y-121745641D01*
X149616722Y-121764427D01*
X149618852Y-121783908D01*
X149620595Y-121804083D01*
X149621950Y-121824953D01*
X149622918Y-121846518D01*
X149623499Y-121868777D01*
X149623692Y-121891731D01*
X149623499Y-121914445D01*
X149622918Y-121936487D01*
X149621950Y-121957857D01*
X149620595Y-121978555D01*
X149618852Y-121998582D01*
X149616722Y-122017936D01*
X149614206Y-122036619D01*
X149611301Y-122054629D01*
X149608010Y-122071968D01*
X149604331Y-122088635D01*
X149600266Y-122104630D01*
X149595813Y-122119953D01*
X149590973Y-122134604D01*
X149585745Y-122148584D01*
X149580130Y-122161891D01*
X149574129Y-122174527D01*
X149567740Y-122186490D01*
X149560963Y-122197782D01*
X149553800Y-122208402D01*
X149546249Y-122218350D01*
X149538311Y-122227626D01*
X149529986Y-122236230D01*
X149519702Y-122245411D01*
X149508869Y-122254096D01*
X149497486Y-122262284D01*
X149485553Y-122269977D01*
X149473070Y-122277173D01*
X149460038Y-122283872D01*
X149446456Y-122290076D01*
X149432325Y-122295783D01*
X149417643Y-122300994D01*
X149402412Y-122305708D01*
X149386632Y-122309927D01*
X149370301Y-122313649D01*
X149353421Y-122316875D01*
X149335992Y-122319604D01*
X149318012Y-122321837D01*
X149299483Y-122323574D01*
X149280404Y-122324815D01*
X149260776Y-122325559D01*
X149240598Y-122325807D01*
X149223930Y-122325648D01*
X149207262Y-122325170D01*
X149190595Y-122324373D01*
X149173927Y-122323258D01*
X149157259Y-122321824D01*
X149140592Y-122320071D01*
X149123924Y-122317999D01*
X149107256Y-122315609D01*
X149090589Y-122312900D01*
X149073921Y-122309872D01*
X149057253Y-122306526D01*
X149040585Y-122302861D01*
X149023918Y-122298877D01*
X149007250Y-122294575D01*
X148990582Y-122289954D01*
X148973915Y-122285014D01*
X148957247Y-122279755D01*
X148940579Y-122274178D01*
X148923911Y-122268282D01*
X148907244Y-122262067D01*
X148890576Y-122255534D01*
X148890576Y-122538020D01*
X148907239Y-122544429D01*
X148923927Y-122550566D01*
X148940638Y-122556430D01*
X148957373Y-122562022D01*
X148974132Y-122567340D01*
X148990914Y-122572386D01*
X149007721Y-122577159D01*
X149024552Y-122581660D01*
X149041407Y-122585887D01*
X149058285Y-122589842D01*
X149075188Y-122593524D01*
X149092114Y-122596934D01*
X149109065Y-122600070D01*
X149126039Y-122602934D01*
X149143037Y-122605525D01*
X149160059Y-122607844D01*
X149177105Y-122609889D01*
X149194175Y-122611662D01*
X149211269Y-122613162D01*
X149228387Y-122614390D01*
X149245529Y-122615344D01*
X149262694Y-122616026D01*
X149279884Y-122616435D01*
X149297097Y-122616572D01*
X149316420Y-122616400D01*
X149335470Y-122615883D01*
X149354246Y-122615023D01*
X149372749Y-122613818D01*
X149390979Y-122612269D01*
X149408935Y-122610376D01*
X149426618Y-122608139D01*
X149444027Y-122605557D01*
X149461164Y-122602632D01*
X149478027Y-122599362D01*
X149494616Y-122595748D01*
X149510933Y-122591790D01*
X149526975Y-122587487D01*
X149542745Y-122582840D01*
X149558241Y-122577850D01*
X149573464Y-122572515D01*
X149588414Y-122566835D01*
X149603090Y-122560812D01*
X149617493Y-122554444D01*
X149631623Y-122547733D01*
X149645479Y-122540677D01*
X149659062Y-122533276D01*
X149672372Y-122525532D01*
X149685408Y-122517443D01*
X149698171Y-122509011D01*
X149710661Y-122500234D01*
X149722877Y-122491112D01*
X149734820Y-122481647D01*
X149746490Y-122471837D01*
X149757886Y-122461684D01*
X149769009Y-122451186D01*
X149779859Y-122440344D01*
X149790435Y-122429157D01*
X149800138Y-122418315D01*
X149809559Y-122407208D01*
X149818699Y-122395834D01*
X149827558Y-122384196D01*
X149836135Y-122372292D01*
X149844432Y-122360123D01*
X149852447Y-122347688D01*
X149860181Y-122334987D01*
X149867633Y-122322021D01*
X149874805Y-122308790D01*
X149881695Y-122295293D01*
X149888304Y-122281531D01*
X149894632Y-122267503D01*
X149900678Y-122253210D01*
X149906443Y-122238651D01*
X149911927Y-122223827D01*
X149917130Y-122208738D01*
X149922052Y-122193383D01*
X149926692Y-122177762D01*
X149931051Y-122161876D01*
X149935129Y-122145725D01*
X149938926Y-122129308D01*
X149942441Y-122112626D01*
X149945675Y-122095678D01*
X149948628Y-122078464D01*
X149951300Y-122060986D01*
X149953690Y-122043241D01*
X149955800Y-122025232D01*
X149957628Y-122006957D01*
X149959174Y-121988416D01*
X149960440Y-121969610D01*
X149961424Y-121950538D01*
X149962127Y-121931201D01*
X149962549Y-121911599D01*
X149962690Y-121891731D01*
X149962690Y-121891731D01*
G37*
G36*
X148577761Y-122594521D02*
X148577761Y-120658382D01*
X148238764Y-120658382D01*
X148238764Y-121702943D01*
X147764719Y-121186175D01*
X147315478Y-121186175D01*
X147928705Y-121813179D01*
X147250711Y-122594521D01*
X147679281Y-122594521D01*
X148145057Y-122039183D01*
X148238764Y-122134254D01*
X148238764Y-122594521D01*
X148577761Y-122594521D01*
X148577761Y-122594521D01*
G37*
G36*
X165578753Y-104060455D02*
X165085721Y-104289791D01*
X165087266Y-104301936D01*
X165088664Y-104313848D01*
X165089915Y-104325528D01*
X165091019Y-104336975D01*
X165091976Y-104348189D01*
X165092785Y-104359171D01*
X165093448Y-104369919D01*
X165093963Y-104380435D01*
X165094331Y-104390719D01*
X165094551Y-104400769D01*
X165094625Y-104410587D01*
X165094414Y-104422760D01*
X165093783Y-104434585D01*
X165092730Y-104446063D01*
X165091256Y-104457192D01*
X165089360Y-104467974D01*
X165087044Y-104478408D01*
X165084307Y-104488494D01*
X165081148Y-104498232D01*
X165077568Y-104507622D01*
X165073567Y-104516664D01*
X165069145Y-104525359D01*
X165064301Y-104533705D01*
X165059037Y-104541704D01*
X165053351Y-104549354D01*
X165047244Y-104556657D01*
X165040716Y-104563612D01*
X165033767Y-104570219D01*
X165027962Y-104575155D01*
X165021770Y-104579862D01*
X165015192Y-104584339D01*
X165008227Y-104588586D01*
X165000877Y-104592604D01*
X164993140Y-104596393D01*
X164985017Y-104599952D01*
X164976507Y-104603281D01*
X164967611Y-104606380D01*
X164958329Y-104609250D01*
X164948661Y-104611891D01*
X164938607Y-104614301D01*
X164928166Y-104616483D01*
X164917339Y-104618434D01*
X164906125Y-104620156D01*
X164894526Y-104621648D01*
X164882540Y-104622911D01*
X164870167Y-104623944D01*
X164857409Y-104624748D01*
X164844264Y-104625322D01*
X164830733Y-104625666D01*
X164816816Y-104625781D01*
X164802566Y-104625696D01*
X164788680Y-104625439D01*
X164775159Y-104625010D01*
X164762003Y-104624411D01*
X164749211Y-104623640D01*
X164736783Y-104622698D01*
X164724720Y-104621585D01*
X164713021Y-104620300D01*
X164701687Y-104618844D01*
X164690717Y-104617217D01*
X164680112Y-104615418D01*
X164669871Y-104613449D01*
X164659995Y-104611307D01*
X164650483Y-104608995D01*
X164641336Y-104606511D01*
X164632553Y-104603857D01*
X164624135Y-104601030D01*
X164616081Y-104598033D01*
X164608391Y-104594864D01*
X164601066Y-104591524D01*
X164594106Y-104588012D01*
X164587510Y-104584330D01*
X164579453Y-104579240D01*
X164571884Y-104573722D01*
X164564803Y-104567777D01*
X164558210Y-104561405D01*
X164552106Y-104554606D01*
X164546491Y-104547380D01*
X164541363Y-104539726D01*
X164536724Y-104531645D01*
X164532573Y-104523137D01*
X164528911Y-104514201D01*
X164525737Y-104504839D01*
X164523051Y-104495049D01*
X164520854Y-104484832D01*
X164519144Y-104474187D01*
X164517924Y-104463116D01*
X164517191Y-104451617D01*
X164516947Y-104439691D01*
X164517130Y-104425887D01*
X164517681Y-104412696D01*
X164518598Y-104400118D01*
X164519881Y-104388155D01*
X164521532Y-104376804D01*
X164523549Y-104366068D01*
X164525933Y-104355945D01*
X164528684Y-104346435D01*
X164531802Y-104337539D01*
X164535287Y-104329256D01*
X164539138Y-104321587D01*
X164543356Y-104314532D01*
X164547941Y-104308089D01*
X164552893Y-104302261D01*
X164558212Y-104297046D01*
X164563897Y-104292445D01*
X164569949Y-104288457D01*
X164576368Y-104285082D01*
X164583154Y-104282321D01*
X164590307Y-104280174D01*
X164597826Y-104278640D01*
X164605712Y-104277720D01*
X164613965Y-104277413D01*
X165084040Y-104277413D01*
X165084028Y-104277413D01*
X165085721Y-104289791D01*
X165578753Y-104060455D01*
X164634195Y-104060455D01*
X164623448Y-104060630D01*
X164612835Y-104061155D01*
X164602355Y-104062030D01*
X164592009Y-104063256D01*
X164581795Y-104064831D01*
X164571716Y-104066757D01*
X164561769Y-104069033D01*
X164551956Y-104071658D01*
X164542276Y-104074634D01*
X164532730Y-104077960D01*
X164523316Y-104081636D01*
X164514037Y-104085663D01*
X164504890Y-104090039D01*
X164495877Y-104094766D01*
X164486997Y-104099842D01*
X164478251Y-104105269D01*
X164469638Y-104111046D01*
X164461158Y-104117173D01*
X164452812Y-104123650D01*
X164444599Y-104130477D01*
X164436519Y-104137654D01*
X164428573Y-104145181D01*
X164420760Y-104153059D01*
X164414662Y-104159625D01*
X164408779Y-104166428D01*
X164403109Y-104173467D01*
X164397654Y-104180744D01*
X164392412Y-104188258D01*
X164387385Y-104196009D01*
X164382571Y-104203997D01*
X164377972Y-104212222D01*
X164373586Y-104220683D01*
X164369414Y-104229382D01*
X164365456Y-104238318D01*
X164361712Y-104247491D01*
X164358182Y-104256901D01*
X164354866Y-104266548D01*
X164351764Y-104276432D01*
X164348876Y-104286552D01*
X164346201Y-104296910D01*
X164343741Y-104307505D01*
X164341495Y-104318337D01*
X164339462Y-104329406D01*
X164337644Y-104340712D01*
X164336039Y-104352255D01*
X164334649Y-104364035D01*
X164333472Y-104376051D01*
X164332509Y-104388305D01*
X164331760Y-104400796D01*
X164331226Y-104413524D01*
X164330905Y-104426489D01*
X164330798Y-104439691D01*
X164330909Y-104450922D01*
X164331242Y-104462125D01*
X164331797Y-104473301D01*
X164332574Y-104484450D01*
X164333573Y-104495570D01*
X164334794Y-104506664D01*
X164336237Y-104517729D01*
X164337902Y-104528767D01*
X164339551Y-104537913D01*
X164341657Y-104547359D01*
X164344220Y-104557104D01*
X164347239Y-104567150D01*
X164350714Y-104577495D01*
X164354647Y-104588140D01*
X164359035Y-104599085D01*
X164363881Y-104610330D01*
X164369183Y-104621874D01*
X164374942Y-104633719D01*
X164380063Y-104643739D01*
X164385430Y-104653513D01*
X164391041Y-104663043D01*
X164396897Y-104672328D01*
X164402998Y-104681368D01*
X164409344Y-104690163D01*
X164415935Y-104698713D01*
X164422770Y-104707018D01*
X164429851Y-104715078D01*
X164437176Y-104722893D01*
X164444746Y-104730463D01*
X164452561Y-104737788D01*
X164459111Y-104743499D01*
X164466060Y-104749108D01*
X164473410Y-104754616D01*
X164481159Y-104760021D01*
X164489308Y-104765324D01*
X164497856Y-104770526D01*
X164506805Y-104775626D01*
X164516153Y-104780623D01*
X164525901Y-104785519D01*
X164536049Y-104790313D01*
X164546596Y-104795005D01*
X164557544Y-104799595D01*
X164568891Y-104804083D01*
X164580638Y-104808469D01*
X164592784Y-104812753D01*
X164602029Y-104815849D01*
X164611419Y-104818786D01*
X164620955Y-104821564D01*
X164630637Y-104824183D01*
X164640464Y-104826644D01*
X164650437Y-104828946D01*
X164660555Y-104831089D01*
X164670819Y-104833073D01*
X164681228Y-104834899D01*
X164691783Y-104836566D01*
X164702484Y-104838074D01*
X164713330Y-104839423D01*
X164724322Y-104840614D01*
X164735459Y-104841646D01*
X164746742Y-104842519D01*
X164758171Y-104843233D01*
X164769745Y-104843789D01*
X164781464Y-104844186D01*
X164793330Y-104844424D01*
X164805340Y-104844503D01*
X164818221Y-104844410D01*
X164830925Y-104844128D01*
X164843452Y-104843659D01*
X164855802Y-104843002D01*
X164867975Y-104842157D01*
X164879971Y-104841125D01*
X164891790Y-104839905D01*
X164903432Y-104838498D01*
X164914897Y-104836902D01*
X164926185Y-104835119D01*
X164937297Y-104833149D01*
X164948231Y-104830990D01*
X164958988Y-104828644D01*
X164969568Y-104826111D01*
X164979971Y-104823389D01*
X164990198Y-104820480D01*
X165000247Y-104817384D01*
X165010119Y-104814099D01*
X165019814Y-104810627D01*
X165029333Y-104806967D01*
X165038674Y-104803120D01*
X165047839Y-104799085D01*
X165056826Y-104794862D01*
X165065636Y-104790452D01*
X165074270Y-104785853D01*
X165082726Y-104781068D01*
X165091006Y-104776094D01*
X165099108Y-104770933D01*
X165107034Y-104765584D01*
X165114783Y-104760047D01*
X165122354Y-104754323D01*
X165129749Y-104748411D01*
X165136966Y-104742312D01*
X165144007Y-104736024D01*
X165151061Y-104729364D01*
X165157897Y-104722532D01*
X165164517Y-104715528D01*
X165170919Y-104708353D01*
X165177105Y-104701006D01*
X165183073Y-104693487D01*
X165188825Y-104685796D01*
X165194359Y-104677934D01*
X165199676Y-104669900D01*
X165204777Y-104661695D01*
X165209660Y-104653317D01*
X165214326Y-104644769D01*
X165218775Y-104636048D01*
X165223007Y-104627156D01*
X165227023Y-104618092D01*
X165230821Y-104608856D01*
X165234402Y-104599448D01*
X165237766Y-104589869D01*
X165240913Y-104580119D01*
X165243843Y-104570196D01*
X165246556Y-104560102D01*
X165249052Y-104549836D01*
X165251330Y-104539398D01*
X165253392Y-104528789D01*
X165255237Y-104518008D01*
X165256865Y-104507056D01*
X165258276Y-104495931D01*
X165259469Y-104484635D01*
X165260446Y-104473168D01*
X165261205Y-104461528D01*
X165261748Y-104449717D01*
X165262074Y-104437734D01*
X165262182Y-104425580D01*
X165262101Y-104414762D01*
X165261858Y-104403981D01*
X165261453Y-104393236D01*
X165260887Y-104382527D01*
X165260158Y-104371853D01*
X165259267Y-104361216D01*
X165258214Y-104350615D01*
X165257000Y-104340049D01*
X165255623Y-104329520D01*
X165254085Y-104319027D01*
X165252384Y-104308569D01*
X165250522Y-104298148D01*
X165248498Y-104287762D01*
X165246311Y-104277413D01*
X165578801Y-104277413D01*
X165578801Y-104060455D01*
X165578753Y-104060455D01*
X165578753Y-104060455D01*
G37*
G36*
X165138661Y-105137309D02*
X164644362Y-105259243D01*
X164654479Y-105256812D01*
X164665047Y-105254593D01*
X164676068Y-105252585D01*
X164687540Y-105250788D01*
X164699464Y-105249203D01*
X164711840Y-105247829D01*
X164724668Y-105246666D01*
X164737948Y-105245715D01*
X164751680Y-105244975D01*
X164765864Y-105244447D01*
X164780499Y-105244130D01*
X164795587Y-105244024D01*
X164810596Y-105244130D01*
X164825157Y-105244447D01*
X164839270Y-105244975D01*
X164852935Y-105245715D01*
X164866151Y-105246666D01*
X164878919Y-105247829D01*
X164891239Y-105249203D01*
X164903111Y-105250788D01*
X164914534Y-105252585D01*
X164925509Y-105254593D01*
X164936036Y-105256812D01*
X164946114Y-105259243D01*
X164955744Y-105261885D01*
X164964926Y-105264739D01*
X164973660Y-105267804D01*
X164981945Y-105271080D01*
X164989782Y-105274568D01*
X164997171Y-105278267D01*
X165004112Y-105282177D01*
X165010604Y-105286299D01*
X165016648Y-105290632D01*
X165022244Y-105295177D01*
X165028890Y-105301488D01*
X165035134Y-105308177D01*
X165040975Y-105315245D01*
X165046413Y-105322691D01*
X165051449Y-105330516D01*
X165056081Y-105338719D01*
X165060311Y-105347300D01*
X165064138Y-105356260D01*
X165067562Y-105365598D01*
X165070583Y-105375315D01*
X165073201Y-105385410D01*
X165075417Y-105395884D01*
X165077230Y-105406735D01*
X165078639Y-105417966D01*
X165079646Y-105429574D01*
X165080251Y-105441561D01*
X165080452Y-105453927D01*
X165080251Y-105466290D01*
X165079646Y-105478267D01*
X165078639Y-105489861D01*
X165077230Y-105501070D01*
X165075417Y-105511894D01*
X165073201Y-105522334D01*
X165070583Y-105532390D01*
X165067562Y-105542060D01*
X165064138Y-105551347D01*
X165060311Y-105560249D01*
X165056081Y-105568766D01*
X165051449Y-105576899D01*
X165046413Y-105584647D01*
X165040975Y-105592011D01*
X165035134Y-105598990D01*
X165028890Y-105605585D01*
X165022244Y-105611795D01*
X165016648Y-105616340D01*
X165010604Y-105620673D01*
X165004112Y-105624795D01*
X164997171Y-105628705D01*
X164989782Y-105632404D01*
X164981945Y-105635892D01*
X164973660Y-105639168D01*
X164964926Y-105642233D01*
X164955744Y-105645087D01*
X164946114Y-105647729D01*
X164936036Y-105650160D01*
X164925509Y-105652379D01*
X164914534Y-105654387D01*
X164903111Y-105656184D01*
X164891239Y-105657769D01*
X164878919Y-105659143D01*
X164866151Y-105660306D01*
X164852935Y-105661257D01*
X164839270Y-105661997D01*
X164825157Y-105662525D01*
X164810596Y-105662842D01*
X164795587Y-105662948D01*
X164780499Y-105662842D01*
X164765864Y-105662525D01*
X164751680Y-105661997D01*
X164737948Y-105661257D01*
X164724668Y-105660306D01*
X164711840Y-105659143D01*
X164699464Y-105657769D01*
X164687540Y-105656184D01*
X164676068Y-105654387D01*
X164665047Y-105652379D01*
X164654479Y-105650160D01*
X164644362Y-105647729D01*
X164634697Y-105645087D01*
X164625485Y-105642233D01*
X164616724Y-105639168D01*
X164608415Y-105635892D01*
X164600558Y-105632404D01*
X164593153Y-105628705D01*
X164586199Y-105624795D01*
X164579698Y-105620673D01*
X164573649Y-105616340D01*
X164568051Y-105611795D01*
X164561303Y-105605585D01*
X164554963Y-105598990D01*
X164549033Y-105592011D01*
X164543511Y-105584647D01*
X164538399Y-105576899D01*
X164533695Y-105568766D01*
X164529401Y-105560249D01*
X164525516Y-105551347D01*
X164522039Y-105542060D01*
X164518972Y-105532390D01*
X164516313Y-105522334D01*
X164514064Y-105511894D01*
X164512223Y-105501070D01*
X164510792Y-105489861D01*
X164509769Y-105478267D01*
X164509156Y-105466290D01*
X164508951Y-105453927D01*
X164509156Y-105441561D01*
X164509769Y-105429574D01*
X164510792Y-105417966D01*
X164512223Y-105406735D01*
X164514064Y-105395884D01*
X164516313Y-105385410D01*
X164518972Y-105375315D01*
X164522039Y-105365598D01*
X164525516Y-105356260D01*
X164529401Y-105347300D01*
X164533695Y-105338719D01*
X164538399Y-105330516D01*
X164543511Y-105322691D01*
X164549033Y-105315245D01*
X164554963Y-105308177D01*
X164561303Y-105301488D01*
X164568051Y-105295177D01*
X164573649Y-105290632D01*
X164579698Y-105286299D01*
X164586199Y-105282177D01*
X164593153Y-105278267D01*
X164600558Y-105274568D01*
X164608415Y-105271080D01*
X164616724Y-105267804D01*
X164625485Y-105264739D01*
X164634697Y-105261885D01*
X164644362Y-105259243D01*
X165138661Y-105137309D01*
X165131722Y-105131099D01*
X165124613Y-105125070D01*
X165117334Y-105119220D01*
X165109885Y-105113550D01*
X165102267Y-105108061D01*
X165094478Y-105102751D01*
X165086520Y-105097621D01*
X165078392Y-105092672D01*
X165070094Y-105087902D01*
X165061626Y-105083312D01*
X165052988Y-105078903D01*
X165044180Y-105074673D01*
X165035202Y-105070623D01*
X165026054Y-105066753D01*
X165016737Y-105063064D01*
X165007250Y-105059554D01*
X164997592Y-105056224D01*
X164987765Y-105053074D01*
X164977768Y-105050104D01*
X164967601Y-105047315D01*
X164957264Y-105044705D01*
X164946757Y-105042275D01*
X164936080Y-105040025D01*
X164925234Y-105037955D01*
X164914217Y-105036065D01*
X164903031Y-105034355D01*
X164891675Y-105032826D01*
X164880148Y-105031476D01*
X164868452Y-105030306D01*
X164856586Y-105029316D01*
X164844550Y-105028506D01*
X164832345Y-105027876D01*
X164819969Y-105027426D01*
X164807423Y-105027156D01*
X164794708Y-105027066D01*
X164781992Y-105027156D01*
X164769445Y-105027426D01*
X164757069Y-105027876D01*
X164744863Y-105028506D01*
X164732826Y-105029316D01*
X164720960Y-105030306D01*
X164709263Y-105031476D01*
X164697736Y-105032826D01*
X164686379Y-105034355D01*
X164675192Y-105036065D01*
X164664175Y-105037955D01*
X164653328Y-105040025D01*
X164642651Y-105042275D01*
X164632144Y-105044705D01*
X164621807Y-105047315D01*
X164611639Y-105050104D01*
X164601642Y-105053074D01*
X164591814Y-105056224D01*
X164582156Y-105059554D01*
X164572669Y-105063064D01*
X164563351Y-105066753D01*
X164554203Y-105070623D01*
X164545225Y-105074673D01*
X164536417Y-105078903D01*
X164527779Y-105083312D01*
X164519311Y-105087902D01*
X164511012Y-105092672D01*
X164502884Y-105097621D01*
X164494925Y-105102751D01*
X164487137Y-105108061D01*
X164479518Y-105113550D01*
X164472070Y-105119220D01*
X164464791Y-105125070D01*
X164457682Y-105131099D01*
X164450743Y-105137309D01*
X164443584Y-105144078D01*
X164436645Y-105151022D01*
X164429926Y-105158140D01*
X164423428Y-105165434D01*
X164417149Y-105172903D01*
X164411092Y-105180546D01*
X164405254Y-105188365D01*
X164399637Y-105196358D01*
X164394240Y-105204526D01*
X164389063Y-105212870D01*
X164384107Y-105221388D01*
X164379371Y-105230081D01*
X164374855Y-105238949D01*
X164370559Y-105247992D01*
X164366484Y-105257210D01*
X164362629Y-105266603D01*
X164358994Y-105276170D01*
X164355580Y-105285913D01*
X164352386Y-105295831D01*
X164349412Y-105305923D01*
X164346658Y-105316191D01*
X164344125Y-105326633D01*
X164341812Y-105337250D01*
X164339719Y-105348043D01*
X164337847Y-105359010D01*
X164336195Y-105370152D01*
X164334763Y-105381469D01*
X164333551Y-105392961D01*
X164332560Y-105404628D01*
X164331789Y-105416470D01*
X164331238Y-105428487D01*
X164330908Y-105440678D01*
X164330798Y-105453045D01*
X164330908Y-105465464D01*
X164331238Y-105477707D01*
X164331789Y-105489773D01*
X164332560Y-105501663D01*
X164333551Y-105513376D01*
X164334763Y-105524913D01*
X164336195Y-105536273D01*
X164337847Y-105547456D01*
X164339719Y-105558463D01*
X164341812Y-105569293D01*
X164344125Y-105579947D01*
X164346658Y-105590424D01*
X164349412Y-105600725D01*
X164352386Y-105610849D01*
X164355580Y-105620797D01*
X164358994Y-105630568D01*
X164362629Y-105640162D01*
X164366484Y-105649580D01*
X164370559Y-105658822D01*
X164374855Y-105667886D01*
X164379371Y-105676775D01*
X164384107Y-105685486D01*
X164389063Y-105694022D01*
X164394240Y-105702380D01*
X164399637Y-105710562D01*
X164405254Y-105718568D01*
X164411092Y-105726397D01*
X164417149Y-105734049D01*
X164423428Y-105741525D01*
X164429926Y-105748825D01*
X164436645Y-105755947D01*
X164443584Y-105762894D01*
X164450743Y-105769663D01*
X164457682Y-105775873D01*
X164464791Y-105781902D01*
X164472070Y-105787752D01*
X164479518Y-105793422D01*
X164487137Y-105798911D01*
X164494925Y-105804221D01*
X164502884Y-105809351D01*
X164511012Y-105814300D01*
X164519311Y-105819070D01*
X164527779Y-105823660D01*
X164536417Y-105828070D01*
X164545225Y-105832299D01*
X164554203Y-105836349D01*
X164563351Y-105840219D01*
X164572669Y-105843909D01*
X164582156Y-105847418D01*
X164591814Y-105850748D01*
X164601642Y-105853898D01*
X164611639Y-105856868D01*
X164621807Y-105859658D01*
X164632144Y-105862267D01*
X164642651Y-105864697D01*
X164653328Y-105866947D01*
X164664175Y-105869017D01*
X164675192Y-105870907D01*
X164686379Y-105872617D01*
X164697736Y-105874147D01*
X164709263Y-105875497D01*
X164720960Y-105876666D01*
X164732826Y-105877656D01*
X164744863Y-105878466D01*
X164757069Y-105879096D01*
X164769445Y-105879546D01*
X164781992Y-105879816D01*
X164794708Y-105879906D01*
X164807423Y-105879816D01*
X164819969Y-105879546D01*
X164832345Y-105879096D01*
X164844550Y-105878466D01*
X164856586Y-105877656D01*
X164868452Y-105876666D01*
X164880148Y-105875497D01*
X164891675Y-105874147D01*
X164903031Y-105872617D01*
X164914217Y-105870907D01*
X164925234Y-105869017D01*
X164936080Y-105866947D01*
X164946757Y-105864697D01*
X164957264Y-105862267D01*
X164967601Y-105859658D01*
X164977768Y-105856868D01*
X164987765Y-105853898D01*
X164997592Y-105850748D01*
X165007250Y-105847418D01*
X165016737Y-105843909D01*
X165026054Y-105840219D01*
X165035202Y-105836349D01*
X165044180Y-105832299D01*
X165052988Y-105828070D01*
X165061626Y-105823660D01*
X165070094Y-105819070D01*
X165078392Y-105814300D01*
X165086520Y-105809351D01*
X165094478Y-105804221D01*
X165102267Y-105798911D01*
X165109885Y-105793422D01*
X165117334Y-105787752D01*
X165124613Y-105781902D01*
X165131722Y-105775873D01*
X165138661Y-105769663D01*
X165145820Y-105762894D01*
X165152759Y-105755947D01*
X165159478Y-105748825D01*
X165165976Y-105741525D01*
X165172254Y-105734049D01*
X165178312Y-105726397D01*
X165184149Y-105718568D01*
X165189767Y-105710562D01*
X165195164Y-105702380D01*
X165200340Y-105694022D01*
X165205297Y-105685486D01*
X165210033Y-105676775D01*
X165214549Y-105667886D01*
X165218844Y-105658822D01*
X165222920Y-105649580D01*
X165226775Y-105640162D01*
X165230409Y-105630568D01*
X165233824Y-105620797D01*
X165237018Y-105610849D01*
X165239992Y-105600725D01*
X165242745Y-105590424D01*
X165245279Y-105579947D01*
X165247592Y-105569293D01*
X165249684Y-105558463D01*
X165251557Y-105547456D01*
X165253209Y-105536273D01*
X165254641Y-105524913D01*
X165255852Y-105513376D01*
X165256844Y-105501663D01*
X165257615Y-105489773D01*
X165258165Y-105477707D01*
X165258496Y-105465464D01*
X165258606Y-105453045D01*
X165258496Y-105440678D01*
X165258165Y-105428487D01*
X165257615Y-105416470D01*
X165256844Y-105404628D01*
X165255852Y-105392961D01*
X165254641Y-105381469D01*
X165253209Y-105370152D01*
X165251557Y-105359010D01*
X165249684Y-105348043D01*
X165247592Y-105337250D01*
X165245279Y-105326633D01*
X165242745Y-105316191D01*
X165239992Y-105305923D01*
X165237018Y-105295831D01*
X165233824Y-105285913D01*
X165230409Y-105276170D01*
X165226775Y-105266603D01*
X165222920Y-105257210D01*
X165218844Y-105247992D01*
X165214549Y-105238949D01*
X165210033Y-105230081D01*
X165205297Y-105221388D01*
X165200340Y-105212870D01*
X165195164Y-105204526D01*
X165189767Y-105196358D01*
X165184149Y-105188365D01*
X165178312Y-105180546D01*
X165172254Y-105172903D01*
X165165976Y-105165434D01*
X165159478Y-105158140D01*
X165152759Y-105151022D01*
X165145820Y-105144078D01*
X165138661Y-105137309D01*
X165138661Y-105137309D01*
G37*
G36*
X165244493Y-106112740D02*
X164000078Y-106112740D01*
X164000078Y-106329698D01*
X165244493Y-106329698D01*
X165244493Y-106112740D01*
X165244493Y-106112740D01*
G37*
G36*
X164343152Y-106525490D02*
X164343152Y-106755677D01*
X164971970Y-106957642D01*
X164343152Y-107156080D01*
X164343152Y-107385385D01*
X165266541Y-107042309D01*
X165279952Y-107037307D01*
X165293056Y-107032275D01*
X165305854Y-107027214D01*
X165318346Y-107022124D01*
X165330532Y-107017004D01*
X165342412Y-107011855D01*
X165353985Y-107006677D01*
X165365252Y-107001469D01*
X165376213Y-106996232D01*
X165386868Y-106990965D01*
X165397216Y-106985669D01*
X165407259Y-106980344D01*
X165416995Y-106974990D01*
X165426425Y-106969606D01*
X165435548Y-106964192D01*
X165444366Y-106958750D01*
X165452877Y-106953278D01*
X165461082Y-106947776D01*
X165468981Y-106942246D01*
X165476574Y-106936685D01*
X165483860Y-106931096D01*
X165490841Y-106925477D01*
X165497515Y-106919829D01*
X165503882Y-106914151D01*
X165509944Y-106908444D01*
X165515700Y-106902708D01*
X165521149Y-106896942D01*
X165526292Y-106891147D01*
X165531129Y-106885323D01*
X165538560Y-106875896D01*
X165545567Y-106866432D01*
X165552149Y-106856929D01*
X165558306Y-106847388D01*
X165564039Y-106837809D01*
X165569347Y-106828192D01*
X165574230Y-106818537D01*
X165578689Y-106808844D01*
X165582723Y-106799113D01*
X165586333Y-106789343D01*
X165589518Y-106779536D01*
X165592278Y-106769690D01*
X165594614Y-106759806D01*
X165596524Y-106749885D01*
X165598011Y-106739925D01*
X165599072Y-106729926D01*
X165599709Y-106719890D01*
X165599922Y-106709816D01*
X165599775Y-106699488D01*
X165599337Y-106689129D01*
X165598606Y-106678739D01*
X165597583Y-106668318D01*
X165596268Y-106657865D01*
X165594661Y-106647381D01*
X165592761Y-106636865D01*
X165590569Y-106626318D01*
X165588085Y-106615740D01*
X165585308Y-106605131D01*
X165582239Y-106594490D01*
X165578878Y-106583818D01*
X165575225Y-106573115D01*
X165394422Y-106573115D01*
X165398611Y-106583504D01*
X165402359Y-106593858D01*
X165405666Y-106604177D01*
X165408532Y-106614460D01*
X165410958Y-106624708D01*
X165412942Y-106634921D01*
X165414485Y-106645099D01*
X165415588Y-106655241D01*
X165416249Y-106665348D01*
X165416470Y-106675420D01*
X165416210Y-106681852D01*
X165415429Y-106688252D01*
X165414129Y-106694620D01*
X165412308Y-106700958D01*
X165409968Y-106707263D01*
X165407107Y-106713538D01*
X165403726Y-106719781D01*
X165399825Y-106725992D01*
X165395404Y-106732172D01*
X165390462Y-106738320D01*
X165385001Y-106744437D01*
X165379019Y-106750523D01*
X165372517Y-106756577D01*
X165365495Y-106762599D01*
X165357953Y-106768591D01*
X165349891Y-106774550D01*
X165341309Y-106780478D01*
X165332206Y-106786375D01*
X165322583Y-106792240D01*
X165312440Y-106798074D01*
X165301777Y-106803877D01*
X165290594Y-106809648D01*
X165278891Y-106815387D01*
X165266668Y-106821095D01*
X165253924Y-106826772D01*
X165240660Y-106832417D01*
X165226876Y-106838030D01*
X165212572Y-106843612D01*
X165197748Y-106849163D01*
X164343152Y-106525490D01*
X164343152Y-106525490D01*
G37*
G36*
X164610377Y-107510621D02*
X164598687Y-107510802D01*
X164587237Y-107511342D01*
X164576027Y-107512242D01*
X164565057Y-107513502D01*
X164554327Y-107515123D01*
X164543837Y-107517104D01*
X164533588Y-107519444D01*
X164523578Y-107522145D01*
X164513808Y-107525206D01*
X164504279Y-107528627D01*
X164494989Y-107532408D01*
X164485940Y-107536550D01*
X164477131Y-107541051D01*
X164468561Y-107545913D01*
X164460232Y-107551134D01*
X164452143Y-107556716D01*
X164444294Y-107562658D01*
X164436684Y-107568960D01*
X164429315Y-107575622D01*
X164422186Y-107582644D01*
X164415297Y-107590027D01*
X164408649Y-107597769D01*
X164402240Y-107605872D01*
X164396267Y-107613964D01*
X164390548Y-107622218D01*
X164385083Y-107630635D01*
X164379873Y-107639214D01*
X164374917Y-107647955D01*
X164370215Y-107656859D01*
X164365767Y-107665925D01*
X164361573Y-107675153D01*
X164357633Y-107684544D01*
X164353948Y-107694097D01*
X164350517Y-107703812D01*
X164347340Y-107713689D01*
X164344417Y-107723729D01*
X164341748Y-107733931D01*
X164339333Y-107744295D01*
X164337173Y-107754822D01*
X164335267Y-107765511D01*
X164333615Y-107776362D01*
X164332217Y-107787376D01*
X164331073Y-107798552D01*
X164330183Y-107809890D01*
X164329548Y-107821391D01*
X164329167Y-107833053D01*
X164329040Y-107844878D01*
X164329151Y-107856011D01*
X164329487Y-107867068D01*
X164330046Y-107878048D01*
X164330828Y-107888951D01*
X164331834Y-107899778D01*
X164333064Y-107910528D01*
X164334517Y-107921202D01*
X164336194Y-107931799D01*
X164338094Y-107942320D01*
X164340218Y-107952764D01*
X164342565Y-107963131D01*
X164345136Y-107973422D01*
X164347931Y-107983636D01*
X164350949Y-107993774D01*
X164354190Y-108003835D01*
X164357656Y-108013820D01*
X164361344Y-108023728D01*
X164365257Y-108033559D01*
X164369393Y-108043314D01*
X164373752Y-108052993D01*
X164378335Y-108062595D01*
X164383142Y-108072120D01*
X164388172Y-108081569D01*
X164393425Y-108090941D01*
X164558346Y-108090941D01*
X164554132Y-108081707D01*
X164550134Y-108072350D01*
X164546353Y-108062869D01*
X164542787Y-108053264D01*
X164539438Y-108043536D01*
X164536305Y-108033685D01*
X164533388Y-108023710D01*
X164530687Y-108013612D01*
X164528202Y-108003390D01*
X164525933Y-107993045D01*
X164523880Y-107982577D01*
X164522043Y-107971984D01*
X164520423Y-107961269D01*
X164519018Y-107950430D01*
X164517830Y-107939467D01*
X164516857Y-107928381D01*
X164516101Y-107917172D01*
X164515561Y-107905839D01*
X164515237Y-107894382D01*
X164515129Y-107882802D01*
X164515301Y-107868371D01*
X164515817Y-107854644D01*
X164516677Y-107841621D01*
X164517881Y-107829301D01*
X164519429Y-107817686D01*
X164521320Y-107806775D01*
X164523556Y-107796568D01*
X164526136Y-107787064D01*
X164529060Y-107778265D01*
X164532328Y-107770169D01*
X164535940Y-107762778D01*
X164539896Y-107756090D01*
X164544196Y-107750106D01*
X164548839Y-107744827D01*
X164553827Y-107740251D01*
X164559159Y-107736379D01*
X164564835Y-107733211D01*
X164570855Y-107730748D01*
X164577218Y-107728988D01*
X164583926Y-107727932D01*
X164590978Y-107727580D01*
X164600210Y-107728269D01*
X164608945Y-107730336D01*
X164617185Y-107733781D01*
X164624929Y-107738604D01*
X164632177Y-107744805D01*
X164638929Y-107752385D01*
X164645185Y-107761342D01*
X164650945Y-107771677D01*
X164654757Y-107779855D01*
X164658497Y-107788354D01*
X164662163Y-107797173D01*
X164665757Y-107806313D01*
X164669278Y-107815774D01*
X164672727Y-107825556D01*
X164676102Y-107835658D01*
X164679405Y-107846081D01*
X164682634Y-107856825D01*
X164685791Y-107867889D01*
X164688875Y-107879274D01*
X164691606Y-107889852D01*
X164694509Y-107900417D01*
X164697583Y-107910969D01*
X164700828Y-107921510D01*
X164704246Y-107932038D01*
X164707835Y-107942554D01*
X164711595Y-107953058D01*
X164715527Y-107963549D01*
X164719631Y-107974028D01*
X164723906Y-107984495D01*
X164728353Y-107994950D01*
X164732971Y-108005392D01*
X164737074Y-108014365D01*
X164741573Y-108023139D01*
X164746468Y-108031716D01*
X164751759Y-108040094D01*
X164757446Y-108048275D01*
X164763529Y-108056257D01*
X164770008Y-108064042D01*
X164776883Y-108071628D01*
X164784154Y-108079017D01*
X164791821Y-108086207D01*
X164799884Y-108093200D01*
X164808343Y-108099994D01*
X164817198Y-108106591D01*
X164826449Y-108112990D01*
X164834357Y-108118126D01*
X164842516Y-108122950D01*
X164850924Y-108127464D01*
X164859583Y-108131666D01*
X164868491Y-108135557D01*
X164877650Y-108139137D01*
X164887059Y-108142405D01*
X164896719Y-108145362D01*
X164906628Y-108148008D01*
X164916788Y-108150343D01*
X164927197Y-108152366D01*
X164937857Y-108154078D01*
X164948767Y-108155479D01*
X164959928Y-108156568D01*
X164971338Y-108157346D01*
X164982999Y-108157813D01*
X164994909Y-108157969D01*
X165005656Y-108157759D01*
X165016228Y-108157129D01*
X165026623Y-108156079D01*
X165036842Y-108154609D01*
X165046885Y-108152719D01*
X165056753Y-108150409D01*
X165066444Y-108147679D01*
X165075959Y-108144530D01*
X165085299Y-108140960D01*
X165094462Y-108136970D01*
X165103450Y-108132560D01*
X165112261Y-108127731D01*
X165120897Y-108122481D01*
X165129357Y-108116811D01*
X165137640Y-108110722D01*
X165145748Y-108104212D01*
X165153680Y-108097283D01*
X165161436Y-108089933D01*
X165169016Y-108082164D01*
X165176420Y-108073974D01*
X165183648Y-108065365D01*
X165189764Y-108057617D01*
X165195620Y-108049661D01*
X165201216Y-108041497D01*
X165206552Y-108033125D01*
X165211627Y-108024544D01*
X165216442Y-108015755D01*
X165220997Y-108006758D01*
X165225291Y-107997553D01*
X165229325Y-107988139D01*
X165233099Y-107978518D01*
X165236613Y-107968688D01*
X165239866Y-107958649D01*
X165242859Y-107948403D01*
X165245592Y-107937948D01*
X165248065Y-107927285D01*
X165250277Y-107916414D01*
X165252229Y-107905335D01*
X165253921Y-107894047D01*
X165255352Y-107882551D01*
X165256524Y-107870847D01*
X165257435Y-107858935D01*
X165258085Y-107846814D01*
X165258476Y-107834485D01*
X165258606Y-107821948D01*
X165258511Y-107810892D01*
X165258228Y-107799899D01*
X165257755Y-107788970D01*
X165257094Y-107778103D01*
X165256244Y-107767299D01*
X165255204Y-107756558D01*
X165253976Y-107745880D01*
X165252559Y-107735265D01*
X165250952Y-107724714D01*
X165249157Y-107714225D01*
X165247173Y-107703799D01*
X165244999Y-107693436D01*
X165242637Y-107683136D01*
X165240086Y-107672899D01*
X165237346Y-107662725D01*
X165234417Y-107652615D01*
X165231299Y-107642567D01*
X165227991Y-107632582D01*
X165224495Y-107622660D01*
X165220810Y-107612801D01*
X165216936Y-107603005D01*
X165212873Y-107593272D01*
X165208621Y-107583602D01*
X165204180Y-107573996D01*
X165199550Y-107564452D01*
X165194731Y-107554971D01*
X165189724Y-107545553D01*
X165184527Y-107536198D01*
X164991381Y-107536198D01*
X164997604Y-107545750D01*
X165003574Y-107555355D01*
X165009289Y-107565014D01*
X165014750Y-107574727D01*
X165019957Y-107584493D01*
X165024910Y-107594313D01*
X165029609Y-107604187D01*
X165034055Y-107614114D01*
X165038246Y-107624095D01*
X165042183Y-107634129D01*
X165045866Y-107644217D01*
X165049295Y-107654359D01*
X165052470Y-107664554D01*
X165055391Y-107674803D01*
X165058058Y-107685105D01*
X165060471Y-107695462D01*
X165062630Y-107705871D01*
X165064536Y-107716335D01*
X165066187Y-107726852D01*
X165067584Y-107737422D01*
X165068727Y-107748047D01*
X165069616Y-107758725D01*
X165070251Y-107769456D01*
X165070632Y-107780241D01*
X165070759Y-107791080D01*
X165070612Y-107806208D01*
X165070171Y-107820429D01*
X165069436Y-107833744D01*
X165068407Y-107846152D01*
X165067084Y-107857654D01*
X165065466Y-107868250D01*
X165063555Y-107877939D01*
X165061350Y-107886722D01*
X165058851Y-107894598D01*
X165056058Y-107901568D01*
X165052971Y-107907631D01*
X165049590Y-107912788D01*
X165043747Y-107919403D01*
X165037243Y-107925135D01*
X165030077Y-107929986D01*
X165022250Y-107933955D01*
X165013761Y-107937042D01*
X165004610Y-107939247D01*
X164994798Y-107940569D01*
X164984325Y-107941010D01*
X164975701Y-107940455D01*
X164967469Y-107938789D01*
X164959629Y-107936013D01*
X164952181Y-107932126D01*
X164945125Y-107927128D01*
X164938460Y-107921020D01*
X164932188Y-107913801D01*
X164926307Y-107905471D01*
X164920818Y-107896031D01*
X164916388Y-107887853D01*
X164912075Y-107879354D01*
X164907878Y-107870535D01*
X164903797Y-107861395D01*
X164899833Y-107851934D01*
X164895985Y-107842152D01*
X164892254Y-107832050D01*
X164888639Y-107821627D01*
X164885140Y-107810884D01*
X164881758Y-107799819D01*
X164878492Y-107788434D01*
X164875363Y-107777992D01*
X164872148Y-107767537D01*
X164868846Y-107757070D01*
X164865459Y-107746591D01*
X164861987Y-107736099D01*
X164858428Y-107725596D01*
X164854784Y-107715080D01*
X164851054Y-107704551D01*
X164847238Y-107694011D01*
X164843336Y-107683458D01*
X164839349Y-107672893D01*
X164835276Y-107662316D01*
X164831288Y-107652787D01*
X164826925Y-107643466D01*
X164822187Y-107634355D01*
X164817072Y-107625452D01*
X164811582Y-107616758D01*
X164805717Y-107608272D01*
X164799476Y-107599995D01*
X164792859Y-107591927D01*
X164785866Y-107584068D01*
X164778498Y-107576418D01*
X164770754Y-107568976D01*
X164762635Y-107561743D01*
X164754140Y-107554719D01*
X164746367Y-107549035D01*
X164738335Y-107543743D01*
X164730044Y-107538844D01*
X164721495Y-107534336D01*
X164712687Y-107530220D01*
X164703620Y-107526496D01*
X164694294Y-107523165D01*
X164684710Y-107520225D01*
X164674867Y-107517677D01*
X164664765Y-107515521D01*
X164654405Y-107513757D01*
X164643786Y-107512385D01*
X164632908Y-107511405D01*
X164621772Y-107510817D01*
X164610377Y-107510621D01*
X164610377Y-107510621D01*
G37*
G36*
X164529241Y-108294670D02*
X164343152Y-108294670D01*
X164343152Y-108446365D01*
X164075916Y-108446365D01*
X164075916Y-108663323D01*
X164343152Y-108663323D01*
X164343152Y-108876753D01*
X164529241Y-108876753D01*
X164529241Y-108663323D01*
X164973741Y-108663323D01*
X164987700Y-108663695D01*
X165000474Y-108664811D01*
X165012063Y-108666672D01*
X165022466Y-108669276D01*
X165031684Y-108672625D01*
X165039717Y-108676717D01*
X165046565Y-108681554D01*
X165052227Y-108687135D01*
X165056485Y-108693080D01*
X165060243Y-108699940D01*
X165063499Y-108707714D01*
X165066254Y-108716403D01*
X165068509Y-108726006D01*
X165070262Y-108736524D01*
X165071515Y-108747957D01*
X165072266Y-108760304D01*
X165072517Y-108773566D01*
X165072323Y-108785075D01*
X165071741Y-108796320D01*
X165070771Y-108807300D01*
X165069413Y-108818016D01*
X165067667Y-108828467D01*
X165065533Y-108838653D01*
X165063011Y-108848575D01*
X165060102Y-108858233D01*
X165056804Y-108867625D01*
X165053118Y-108876753D01*
X165232151Y-108876753D01*
X165236064Y-108866916D01*
X165239665Y-108856944D01*
X165242952Y-108846835D01*
X165245926Y-108836591D01*
X165248587Y-108826211D01*
X165250935Y-108815696D01*
X165252970Y-108805045D01*
X165254692Y-108794258D01*
X165256101Y-108783335D01*
X165257197Y-108772277D01*
X165257980Y-108761083D01*
X165258449Y-108749754D01*
X165258606Y-108738288D01*
X165258606Y-108733879D01*
X165258442Y-108721810D01*
X165257950Y-108709979D01*
X165257130Y-108698384D01*
X165255982Y-108687026D01*
X165254506Y-108675905D01*
X165252702Y-108665021D01*
X165250570Y-108654374D01*
X165248110Y-108643964D01*
X165245322Y-108633791D01*
X165242206Y-108623854D01*
X165238761Y-108614155D01*
X165234989Y-108604692D01*
X165230889Y-108595466D01*
X165226461Y-108586477D01*
X165221705Y-108577725D01*
X165216621Y-108569210D01*
X165211209Y-108560932D01*
X165205469Y-108552891D01*
X165199401Y-108545086D01*
X165193005Y-108537518D01*
X165186281Y-108530188D01*
X165179228Y-108523094D01*
X165172214Y-108516567D01*
X165164972Y-108510330D01*
X165157504Y-108504383D01*
X165149809Y-108498726D01*
X165141887Y-108493360D01*
X165133738Y-108488283D01*
X165125362Y-108483496D01*
X165116760Y-108479000D01*
X165107931Y-108474794D01*
X165098875Y-108470877D01*
X165089592Y-108467251D01*
X165080082Y-108463915D01*
X165070346Y-108460869D01*
X165060382Y-108458113D01*
X165050192Y-108455648D01*
X165039776Y-108453472D01*
X165029132Y-108451586D01*
X165018261Y-108449991D01*
X165007164Y-108448685D01*
X164995840Y-108447670D01*
X164984289Y-108446945D01*
X164972511Y-108446510D01*
X164960507Y-108446365D01*
X164529241Y-108446365D01*
X164529241Y-108294670D01*
X164529241Y-108294670D01*
X164529241Y-108294670D01*
G37*
G36*
X164949922Y-109047851D02*
X164922588Y-109262163D01*
X164932735Y-109262380D01*
X164942514Y-109263031D01*
X164951923Y-109264117D01*
X164960963Y-109265636D01*
X164969634Y-109267590D01*
X164977936Y-109269979D01*
X164985869Y-109272801D01*
X164993433Y-109276058D01*
X165000629Y-109279749D01*
X165007455Y-109283874D01*
X165013912Y-109288433D01*
X165020000Y-109293427D01*
X165025720Y-109298854D01*
X165031070Y-109304716D01*
X165036051Y-109311013D01*
X165040664Y-109317743D01*
X165044907Y-109324908D01*
X165048781Y-109332507D01*
X165052287Y-109340540D01*
X165055423Y-109349007D01*
X165058190Y-109357909D01*
X165060589Y-109367245D01*
X165062618Y-109377015D01*
X165064279Y-109387219D01*
X165065570Y-109397857D01*
X165066493Y-109408930D01*
X165067046Y-109420437D01*
X165067231Y-109432378D01*
X165067231Y-109434142D01*
X165067043Y-109445940D01*
X165066480Y-109457293D01*
X165065543Y-109468200D01*
X165064230Y-109478663D01*
X165062542Y-109488680D01*
X165060480Y-109498252D01*
X165058042Y-109507379D01*
X165055229Y-109516060D01*
X165052041Y-109524296D01*
X165048478Y-109532087D01*
X165044540Y-109539433D01*
X165040227Y-109546334D01*
X165035539Y-109552790D01*
X165030475Y-109558800D01*
X165025037Y-109564365D01*
X165019224Y-109569485D01*
X165013035Y-109574160D01*
X165006472Y-109578389D01*
X164999533Y-109582173D01*
X164992220Y-109585512D01*
X164984531Y-109588406D01*
X164976468Y-109590855D01*
X164968029Y-109592858D01*
X164959215Y-109594416D01*
X164950026Y-109595529D01*
X164940463Y-109596197D01*
X164930524Y-109596420D01*
X164816756Y-109596420D01*
X164815057Y-109583932D01*
X164813494Y-109571750D01*
X164812067Y-109559874D01*
X164810775Y-109548305D01*
X164809619Y-109537042D01*
X164808598Y-109526085D01*
X164807712Y-109515434D01*
X164806962Y-109505090D01*
X164806347Y-109495051D01*
X164805868Y-109485319D01*
X164805525Y-109475894D01*
X164805316Y-109466774D01*
X164805456Y-109452965D01*
X164805874Y-109439638D01*
X164806572Y-109426794D01*
X164807548Y-109414432D01*
X164808803Y-109402553D01*
X164810337Y-109391155D01*
X164812150Y-109380241D01*
X164814243Y-109369808D01*
X164816614Y-109359858D01*
X164819264Y-109350391D01*
X164822192Y-109341406D01*
X164825400Y-109332903D01*
X164828887Y-109324883D01*
X164832653Y-109317345D01*
X164836698Y-109310289D01*
X164841021Y-109303716D01*
X164845624Y-109297625D01*
X164850505Y-109292017D01*
X164855666Y-109286891D01*
X164861105Y-109282247D01*
X164866824Y-109278086D01*
X164872821Y-109274407D01*
X164879097Y-109271211D01*
X164885652Y-109268497D01*
X164892486Y-109266265D01*
X164899599Y-109264516D01*
X164906992Y-109263249D01*
X164914662Y-109262465D01*
X164922612Y-109262163D01*
X164922588Y-109262163D01*
X164949922Y-109047851D01*
X164938953Y-109048062D01*
X164927913Y-109048697D01*
X164916801Y-109049756D01*
X164905618Y-109051237D01*
X164894363Y-109053142D01*
X164885760Y-109054996D01*
X164876580Y-109057534D01*
X164866824Y-109060756D01*
X164856493Y-109064661D01*
X164845585Y-109069251D01*
X164834102Y-109074525D01*
X164822042Y-109080482D01*
X164812569Y-109085774D01*
X164803357Y-109091457D01*
X164794407Y-109097533D01*
X164785718Y-109104001D01*
X164777290Y-109110860D01*
X164769124Y-109118112D01*
X164761219Y-109125755D01*
X164753575Y-109133791D01*
X164746193Y-109142218D01*
X164740821Y-109148943D01*
X164735585Y-109156182D01*
X164730483Y-109163936D01*
X164725516Y-109172204D01*
X164720684Y-109180987D01*
X164715987Y-109190284D01*
X164711424Y-109200096D01*
X164706996Y-109210422D01*
X164702703Y-109221263D01*
X164698545Y-109232618D01*
X164694522Y-109244487D01*
X164690633Y-109256871D01*
X164687915Y-109265889D01*
X164685361Y-109275096D01*
X164682972Y-109284492D01*
X164680748Y-109294077D01*
X164678689Y-109303852D01*
X164676794Y-109313816D01*
X164675065Y-109323969D01*
X164673500Y-109334311D01*
X164672099Y-109344843D01*
X164670864Y-109355563D01*
X164669793Y-109366473D01*
X164668887Y-109377572D01*
X164668145Y-109388861D01*
X164667569Y-109400338D01*
X164667157Y-109412005D01*
X164666910Y-109423861D01*
X164666827Y-109435906D01*
X164666882Y-109445831D01*
X164667047Y-109455849D01*
X164667321Y-109465962D01*
X164667705Y-109476169D01*
X164668199Y-109486470D01*
X164668802Y-109496866D01*
X164669515Y-109507355D01*
X164670338Y-109517938D01*
X164671271Y-109528616D01*
X164672313Y-109539387D01*
X164673465Y-109550253D01*
X164674726Y-109561212D01*
X164676098Y-109572266D01*
X164677579Y-109583414D01*
X164679170Y-109594656D01*
X164669010Y-109594480D01*
X164659162Y-109593953D01*
X164649628Y-109593074D01*
X164640406Y-109591844D01*
X164631496Y-109590262D01*
X164622899Y-109588329D01*
X164614615Y-109586044D01*
X164606643Y-109583408D01*
X164598984Y-109580421D01*
X164591638Y-109577082D01*
X164584604Y-109573391D01*
X164577883Y-109569349D01*
X164571474Y-109564955D01*
X164565378Y-109560210D01*
X164559595Y-109555114D01*
X164554124Y-109549666D01*
X164548966Y-109543867D01*
X164544120Y-109537716D01*
X164539588Y-109531213D01*
X164535367Y-109524359D01*
X164531460Y-109517154D01*
X164527865Y-109509597D01*
X164524582Y-109501689D01*
X164521612Y-109493429D01*
X164518955Y-109484818D01*
X164516610Y-109475855D01*
X164514578Y-109466541D01*
X164512859Y-109456875D01*
X164511452Y-109446858D01*
X164510358Y-109436489D01*
X164509577Y-109425769D01*
X164509108Y-109414697D01*
X164508951Y-109403274D01*
X164509025Y-109391202D01*
X164509245Y-109379257D01*
X164509612Y-109367439D01*
X164510126Y-109355748D01*
X164510786Y-109344183D01*
X164511593Y-109332746D01*
X164512547Y-109321436D01*
X164513648Y-109310253D01*
X164514896Y-109299197D01*
X164516290Y-109288268D01*
X164517831Y-109277466D01*
X164519519Y-109266791D01*
X164521354Y-109256243D01*
X164523335Y-109245822D01*
X164525463Y-109235528D01*
X164527738Y-109225361D01*
X164530160Y-109215321D01*
X164532728Y-109205408D01*
X164535444Y-109195622D01*
X164538306Y-109185963D01*
X164541314Y-109176431D01*
X164544470Y-109167025D01*
X164547772Y-109157747D01*
X164551221Y-109148596D01*
X164554817Y-109139572D01*
X164379313Y-109139572D01*
X164375520Y-109149178D01*
X164371876Y-109158865D01*
X164368381Y-109168633D01*
X164365034Y-109178482D01*
X164361836Y-109188412D01*
X164358787Y-109198423D01*
X164355887Y-109208514D01*
X164353135Y-109218686D01*
X164350532Y-109228940D01*
X164348078Y-109239274D01*
X164345773Y-109249689D01*
X164343616Y-109260185D01*
X164341608Y-109270762D01*
X164339749Y-109281419D01*
X164338038Y-109292158D01*
X164336476Y-109302977D01*
X164335063Y-109313878D01*
X164333799Y-109324859D01*
X164332684Y-109335921D01*
X164331717Y-109347064D01*
X164330899Y-109358288D01*
X164330230Y-109369593D01*
X164329709Y-109380979D01*
X164329337Y-109392445D01*
X164329114Y-109403993D01*
X164329040Y-109415621D01*
X164329149Y-109428396D01*
X164329479Y-109440970D01*
X164330027Y-109453342D01*
X164330796Y-109465512D01*
X164331783Y-109477480D01*
X164332991Y-109489246D01*
X164334417Y-109500810D01*
X164336064Y-109512172D01*
X164337929Y-109523333D01*
X164340015Y-109534292D01*
X164342320Y-109545048D01*
X164344844Y-109555603D01*
X164347588Y-109565956D01*
X164350551Y-109576107D01*
X164353734Y-109586057D01*
X164357136Y-109595804D01*
X164360758Y-109605350D01*
X164364599Y-109614693D01*
X164368660Y-109623835D01*
X164372940Y-109632775D01*
X164377440Y-109641513D01*
X164382159Y-109650050D01*
X164387098Y-109658384D01*
X164392256Y-109666517D01*
X164397634Y-109674447D01*
X164403232Y-109682176D01*
X164409048Y-109689703D01*
X164415085Y-109697028D01*
X164421341Y-109704151D01*
X164427816Y-109711072D01*
X164434440Y-109717779D01*
X164441261Y-109724258D01*
X164448277Y-109730510D01*
X164455490Y-109736535D01*
X164462898Y-109742332D01*
X164470502Y-109747902D01*
X164478303Y-109753245D01*
X164486299Y-109758360D01*
X164494491Y-109763248D01*
X164502880Y-109767909D01*
X164511464Y-109772342D01*
X164520244Y-109776548D01*
X164529221Y-109780527D01*
X164538393Y-109784278D01*
X164547761Y-109787802D01*
X164557325Y-109791098D01*
X164567085Y-109794167D01*
X164577042Y-109797009D01*
X164587194Y-109799624D01*
X164597542Y-109802011D01*
X164608086Y-109804170D01*
X164618826Y-109806103D01*
X164629762Y-109807808D01*
X164640894Y-109809286D01*
X164652222Y-109810536D01*
X164663746Y-109811559D01*
X164675466Y-109812355D01*
X164687382Y-109812923D01*
X164699494Y-109813264D01*
X164711802Y-109813378D01*
X164955221Y-109813378D01*
X164965969Y-109813201D01*
X164976587Y-109812671D01*
X164987075Y-109811787D01*
X164997434Y-109810550D01*
X165007662Y-109808960D01*
X165017760Y-109807016D01*
X165027728Y-109804719D01*
X165037566Y-109802068D01*
X165047274Y-109799063D01*
X165056852Y-109795706D01*
X165066300Y-109791995D01*
X165075618Y-109787930D01*
X165084806Y-109783512D01*
X165093864Y-109778740D01*
X165102792Y-109773615D01*
X165111590Y-109768137D01*
X165120258Y-109762305D01*
X165128796Y-109756120D01*
X165137204Y-109749581D01*
X165145482Y-109742689D01*
X165153629Y-109735443D01*
X165161647Y-109727844D01*
X165169535Y-109719892D01*
X165175572Y-109713386D01*
X165181397Y-109706641D01*
X165187010Y-109699656D01*
X165192412Y-109692433D01*
X165197601Y-109684971D01*
X165202579Y-109677269D01*
X165207345Y-109669328D01*
X165211899Y-109661149D01*
X165216242Y-109652730D01*
X165220372Y-109644072D01*
X165224291Y-109635175D01*
X165227998Y-109626039D01*
X165231493Y-109616663D01*
X165234776Y-109607049D01*
X165237847Y-109597196D01*
X165240707Y-109587103D01*
X165243355Y-109576771D01*
X165245791Y-109566201D01*
X165248015Y-109555391D01*
X165250027Y-109544342D01*
X165251828Y-109533054D01*
X165253416Y-109521527D01*
X165254793Y-109509760D01*
X165255958Y-109497755D01*
X165256911Y-109485511D01*
X165257653Y-109473027D01*
X165258182Y-109460304D01*
X165258500Y-109447343D01*
X165258606Y-109434142D01*
X165258506Y-109421028D01*
X165258206Y-109408146D01*
X165257706Y-109395495D01*
X165257007Y-109383075D01*
X165256107Y-109370887D01*
X165255007Y-109358930D01*
X165253708Y-109347204D01*
X165252209Y-109335709D01*
X165250509Y-109324446D01*
X165248610Y-109313413D01*
X165246511Y-109302612D01*
X165244212Y-109292043D01*
X165241713Y-109281705D01*
X165239014Y-109271597D01*
X165236115Y-109261722D01*
X165233017Y-109252077D01*
X165229718Y-109242664D01*
X165226220Y-109233482D01*
X165222521Y-109224531D01*
X165218623Y-109215812D01*
X165214524Y-109207323D01*
X165210226Y-109199066D01*
X165205728Y-109191041D01*
X165201030Y-109183246D01*
X165196132Y-109175683D01*
X165191034Y-109168351D01*
X165185737Y-109161251D01*
X165180239Y-109154381D01*
X165174541Y-109147743D01*
X165168644Y-109141336D01*
X165160749Y-109133384D01*
X165152707Y-109125785D01*
X165144518Y-109118539D01*
X165136183Y-109111647D01*
X165127701Y-109105108D01*
X165119072Y-109098923D01*
X165110296Y-109093091D01*
X165101373Y-109087613D01*
X165092304Y-109082488D01*
X165083088Y-109077716D01*
X165073725Y-109073298D01*
X165064215Y-109069234D01*
X165054559Y-109065522D01*
X165044756Y-109062165D01*
X165034806Y-109059160D01*
X165024709Y-109056510D01*
X165014466Y-109054212D01*
X165004075Y-109052268D01*
X164993538Y-109050678D01*
X164982855Y-109049441D01*
X164972024Y-109048557D01*
X164961047Y-109048027D01*
X164949922Y-109047850D01*
X164949922Y-109047851D01*
X164949922Y-109047851D01*
G37*
G36*
X164794708Y-110003879D02*
X164781893Y-110003969D01*
X164769250Y-110004239D01*
X164756781Y-110004689D01*
X164744484Y-110005318D01*
X164732360Y-110006128D01*
X164720408Y-110007118D01*
X164708630Y-110008288D01*
X164697024Y-110009638D01*
X164685591Y-110011168D01*
X164674331Y-110012878D01*
X164663244Y-110014768D01*
X164652329Y-110016838D01*
X164641588Y-110019088D01*
X164631019Y-110021517D01*
X164620623Y-110024127D01*
X164610399Y-110026917D01*
X164600349Y-110029887D01*
X164590471Y-110033037D01*
X164580766Y-110036366D01*
X164571234Y-110039876D01*
X164561874Y-110043566D01*
X164552688Y-110047436D01*
X164543674Y-110051486D01*
X164534833Y-110055715D01*
X164526164Y-110060125D01*
X164517669Y-110064715D01*
X164509346Y-110069484D01*
X164501196Y-110074434D01*
X164493219Y-110079564D01*
X164485415Y-110084873D01*
X164477783Y-110090363D01*
X164470324Y-110096033D01*
X164463038Y-110101882D01*
X164455925Y-110107912D01*
X164448985Y-110114122D01*
X164441826Y-110120890D01*
X164434887Y-110127834D01*
X164428168Y-110134953D01*
X164421669Y-110142247D01*
X164415391Y-110149715D01*
X164409333Y-110157359D01*
X164403496Y-110165177D01*
X164397879Y-110173171D01*
X164392482Y-110181339D01*
X164387305Y-110189682D01*
X164382349Y-110198200D01*
X164377612Y-110206893D01*
X164373097Y-110215761D01*
X164368801Y-110224804D01*
X164364726Y-110234022D01*
X164360871Y-110243415D01*
X164357236Y-110252983D01*
X164353822Y-110262726D01*
X164350628Y-110272643D01*
X164347654Y-110282736D01*
X164344900Y-110293003D01*
X164342367Y-110303446D01*
X164340054Y-110314063D01*
X164337961Y-110324855D01*
X164336089Y-110335822D01*
X164334437Y-110346965D01*
X164333005Y-110358282D01*
X164331793Y-110369774D01*
X164330802Y-110381441D01*
X164330031Y-110393282D01*
X164329480Y-110405299D01*
X164329150Y-110417491D01*
X164329040Y-110429858D01*
X164329127Y-110440874D01*
X164329389Y-110451876D01*
X164329825Y-110462862D01*
X164330436Y-110473832D01*
X164331222Y-110484788D01*
X164332182Y-110495728D01*
X164333316Y-110506653D01*
X164334626Y-110517562D01*
X164336109Y-110528456D01*
X164337768Y-110539335D01*
X164339600Y-110550199D01*
X164341608Y-110561047D01*
X164343790Y-110571880D01*
X164346146Y-110582697D01*
X164348678Y-110593500D01*
X164351383Y-110604287D01*
X164354263Y-110615058D01*
X164357318Y-110625815D01*
X164360548Y-110636556D01*
X164363952Y-110647282D01*
X164367530Y-110657992D01*
X164371283Y-110668687D01*
X164375211Y-110679367D01*
X164379313Y-110690031D01*
X164560104Y-110690031D01*
X164556086Y-110679844D01*
X164552264Y-110669609D01*
X164548638Y-110659325D01*
X164545208Y-110648994D01*
X164541974Y-110638615D01*
X164538936Y-110628187D01*
X164536094Y-110617712D01*
X164533448Y-110607189D01*
X164530998Y-110596617D01*
X164528744Y-110585998D01*
X164526686Y-110575331D01*
X164524825Y-110564615D01*
X164523159Y-110553852D01*
X164521689Y-110543041D01*
X164520415Y-110532181D01*
X164519337Y-110521274D01*
X164518455Y-110510319D01*
X164517769Y-110499315D01*
X164517279Y-110488264D01*
X164516985Y-110477165D01*
X164516887Y-110466017D01*
X164517046Y-110453103D01*
X164517522Y-110440541D01*
X164518316Y-110428331D01*
X164519428Y-110416472D01*
X164520857Y-110404965D01*
X164522604Y-110393810D01*
X164524668Y-110383007D01*
X164527050Y-110372556D01*
X164529750Y-110362456D01*
X164532767Y-110352708D01*
X164536102Y-110343312D01*
X164539755Y-110334268D01*
X164543725Y-110325576D01*
X164548013Y-110317235D01*
X164552618Y-110309246D01*
X164557541Y-110301609D01*
X164562782Y-110294324D01*
X164568340Y-110287391D01*
X164574216Y-110280809D01*
X164579570Y-110275481D01*
X164585369Y-110270401D01*
X164591612Y-110265568D01*
X164598300Y-110260984D01*
X164605433Y-110256647D01*
X164613010Y-110252558D01*
X164621032Y-110248717D01*
X164629498Y-110245123D01*
X164638409Y-110241778D01*
X164647764Y-110238680D01*
X164657564Y-110235830D01*
X164667809Y-110233228D01*
X164678498Y-110230874D01*
X164689632Y-110228767D01*
X164701210Y-110226908D01*
X164713233Y-110225298D01*
X164725701Y-110223935D01*
X164738613Y-110222819D01*
X164751970Y-110221952D01*
X164765771Y-110221333D01*
X164780017Y-110220961D01*
X164794708Y-110220837D01*
X164809245Y-110220961D01*
X164823352Y-110221333D01*
X164837028Y-110221952D01*
X164850275Y-110222819D01*
X164863092Y-110223935D01*
X164875479Y-110225298D01*
X164887436Y-110226908D01*
X164898963Y-110228767D01*
X164910060Y-110230874D01*
X164920726Y-110233228D01*
X164930963Y-110235830D01*
X164940770Y-110238680D01*
X164950147Y-110241778D01*
X164959093Y-110245123D01*
X164967610Y-110248717D01*
X164975697Y-110252558D01*
X164983354Y-110256647D01*
X164990580Y-110260984D01*
X164997377Y-110265568D01*
X165003744Y-110270401D01*
X165009681Y-110275481D01*
X165015187Y-110280809D01*
X165021063Y-110287391D01*
X165026621Y-110294324D01*
X165031862Y-110301609D01*
X165036785Y-110309246D01*
X165041391Y-110317235D01*
X165045678Y-110325576D01*
X165049649Y-110334268D01*
X165053301Y-110343312D01*
X165056636Y-110352708D01*
X165059653Y-110362456D01*
X165062353Y-110372556D01*
X165064735Y-110383007D01*
X165066800Y-110393810D01*
X165068547Y-110404965D01*
X165069976Y-110416472D01*
X165071088Y-110428331D01*
X165071882Y-110440541D01*
X165072358Y-110453103D01*
X165072517Y-110466017D01*
X165072415Y-110476685D01*
X165072109Y-110487352D01*
X165071599Y-110498019D01*
X165070885Y-110508687D01*
X165069967Y-110519354D01*
X165068845Y-110530021D01*
X165067520Y-110540689D01*
X165065990Y-110551356D01*
X165064256Y-110562023D01*
X165062318Y-110572691D01*
X165060177Y-110583358D01*
X165057831Y-110594025D01*
X165055281Y-110604693D01*
X165052528Y-110615360D01*
X165049570Y-110626027D01*
X165046409Y-110636695D01*
X165043043Y-110647362D01*
X165039474Y-110658029D01*
X165035701Y-110668697D01*
X165031723Y-110679364D01*
X165027542Y-110690031D01*
X165208333Y-110690031D01*
X165212435Y-110679367D01*
X165216362Y-110668687D01*
X165220115Y-110657992D01*
X165223694Y-110647282D01*
X165227098Y-110636556D01*
X165230327Y-110625815D01*
X165233382Y-110615058D01*
X165236262Y-110604287D01*
X165238968Y-110593500D01*
X165241499Y-110582697D01*
X165243856Y-110571880D01*
X165246038Y-110561047D01*
X165248045Y-110550199D01*
X165249878Y-110539335D01*
X165251536Y-110528456D01*
X165253020Y-110517562D01*
X165254329Y-110506653D01*
X165255464Y-110495728D01*
X165256424Y-110484788D01*
X165257209Y-110473832D01*
X165257820Y-110462862D01*
X165258257Y-110451876D01*
X165258519Y-110440874D01*
X165258606Y-110429858D01*
X165258496Y-110417491D01*
X165258165Y-110405299D01*
X165257615Y-110393282D01*
X165256844Y-110381441D01*
X165255852Y-110369774D01*
X165254641Y-110358282D01*
X165253209Y-110346965D01*
X165251557Y-110335822D01*
X165249684Y-110324855D01*
X165247592Y-110314063D01*
X165245279Y-110303446D01*
X165242745Y-110293003D01*
X165239992Y-110282736D01*
X165237018Y-110272643D01*
X165233824Y-110262726D01*
X165230409Y-110252983D01*
X165226775Y-110243415D01*
X165222920Y-110234022D01*
X165218844Y-110224804D01*
X165214549Y-110215761D01*
X165210033Y-110206893D01*
X165205297Y-110198200D01*
X165200340Y-110189682D01*
X165195164Y-110181339D01*
X165189767Y-110173171D01*
X165184149Y-110165177D01*
X165178312Y-110157359D01*
X165172254Y-110149715D01*
X165165976Y-110142247D01*
X165159478Y-110134953D01*
X165152759Y-110127834D01*
X165145820Y-110120890D01*
X165138661Y-110114122D01*
X165131722Y-110107912D01*
X165124613Y-110101882D01*
X165117334Y-110096033D01*
X165109885Y-110090363D01*
X165102267Y-110084873D01*
X165094478Y-110079564D01*
X165086520Y-110074434D01*
X165078392Y-110069484D01*
X165070094Y-110064715D01*
X165061626Y-110060125D01*
X165052988Y-110055715D01*
X165044180Y-110051486D01*
X165035202Y-110047436D01*
X165026054Y-110043566D01*
X165016737Y-110039876D01*
X165007250Y-110036366D01*
X164997592Y-110033037D01*
X164987765Y-110029887D01*
X164977768Y-110026917D01*
X164967601Y-110024127D01*
X164957264Y-110021517D01*
X164946757Y-110019088D01*
X164936080Y-110016838D01*
X164925234Y-110014768D01*
X164914217Y-110012878D01*
X164903031Y-110011168D01*
X164891675Y-110009638D01*
X164880148Y-110008288D01*
X164868452Y-110007118D01*
X164856586Y-110006128D01*
X164844550Y-110005318D01*
X164832345Y-110004689D01*
X164819969Y-110004239D01*
X164807423Y-110003969D01*
X164794708Y-110003879D01*
X164794708Y-110003879D01*
G37*
G36*
X165244493Y-110890233D02*
X164005365Y-110890233D01*
X164005365Y-111107191D01*
X164673884Y-111107191D01*
X164343152Y-111410580D01*
X164343152Y-111698094D01*
X164744435Y-111305629D01*
X165244493Y-111739545D01*
X165244493Y-111465260D01*
X164889077Y-111167163D01*
X164949922Y-111107191D01*
X165244493Y-111107191D01*
X165244493Y-110890233D01*
X165244493Y-110890233D01*
G37*
D14*
X136233333Y-121728571D02*
X136566667Y-121728571D01*
X136566667Y-122252381D02*
X136566667Y-121252381D01*
X136090476Y-121252381D01*
X135280952Y-121585714D02*
X135280952Y-122252381D01*
X135519048Y-121204762D02*
X135757143Y-121919048D01*
X135138095Y-121919048D01*
X135783333Y-93828571D02*
X136116667Y-93828571D01*
X136116667Y-94352381D02*
X136116667Y-93352381D01*
X135640476Y-93352381D01*
X134783333Y-93352381D02*
X135259524Y-93352381D01*
X135307143Y-93828571D01*
X135259524Y-93780952D01*
X135164286Y-93733333D01*
X134926190Y-93733333D01*
X134830952Y-93780952D01*
X134783333Y-93828571D01*
X134735714Y-93923810D01*
X134735714Y-94161905D01*
X134783333Y-94257143D01*
X134830952Y-94304762D01*
X134926190Y-94352381D01*
X135164286Y-94352381D01*
X135259524Y-94304762D01*
X135307143Y-94257143D01*
X164583333Y-118778571D02*
X164916667Y-118778571D01*
X164916667Y-119302381D02*
X164916667Y-118302381D01*
X164440476Y-118302381D01*
X163630952Y-118302381D02*
X163821429Y-118302381D01*
X163916667Y-118350000D01*
X163964286Y-118397619D01*
X164059524Y-118540476D01*
X164107143Y-118730952D01*
X164107143Y-119111905D01*
X164059524Y-119207143D01*
X164011905Y-119254762D01*
X163916667Y-119302381D01*
X163726190Y-119302381D01*
X163630952Y-119254762D01*
X163583333Y-119207143D01*
X163535714Y-119111905D01*
X163535714Y-118873810D01*
X163583333Y-118778571D01*
X163630952Y-118730952D01*
X163726190Y-118683333D01*
X163916667Y-118683333D01*
X164011905Y-118730952D01*
X164059524Y-118778571D01*
X164107143Y-118873810D01*
X147245238Y-97347619D02*
X147340476Y-97300000D01*
X147435714Y-97204762D01*
X147578571Y-97061905D01*
X147673810Y-97014286D01*
X147769048Y-97014286D01*
X147721429Y-97252381D02*
X147816667Y-97204762D01*
X147911905Y-97109524D01*
X147959524Y-96919048D01*
X147959524Y-96585714D01*
X147911905Y-96395238D01*
X147816667Y-96300000D01*
X147721429Y-96252381D01*
X147530952Y-96252381D01*
X147435714Y-96300000D01*
X147340476Y-96395238D01*
X147292857Y-96585714D01*
X147292857Y-96919048D01*
X147340476Y-97109524D01*
X147435714Y-97204762D01*
X147530952Y-97252381D01*
X147721429Y-97252381D01*
X146340476Y-97252381D02*
X146911905Y-97252381D01*
X146626191Y-97252381D02*
X146626191Y-96252381D01*
X146721429Y-96395238D01*
X146816667Y-96490476D01*
X146911905Y-96538095D01*
X143345238Y-106647619D02*
X143440476Y-106600000D01*
X143535714Y-106504762D01*
X143678571Y-106361905D01*
X143773810Y-106314286D01*
X143869048Y-106314286D01*
X143821429Y-106552381D02*
X143916667Y-106504762D01*
X144011905Y-106409524D01*
X144059524Y-106219048D01*
X144059524Y-105885714D01*
X144011905Y-105695238D01*
X143916667Y-105600000D01*
X143821429Y-105552381D01*
X143630952Y-105552381D01*
X143535714Y-105600000D01*
X143440476Y-105695238D01*
X143392857Y-105885714D01*
X143392857Y-106219048D01*
X143440476Y-106409524D01*
X143535714Y-106504762D01*
X143630952Y-106552381D01*
X143821429Y-106552381D01*
X143011905Y-105647619D02*
X142964286Y-105600000D01*
X142869048Y-105552381D01*
X142630952Y-105552381D01*
X142535714Y-105600000D01*
X142488095Y-105647619D01*
X142440476Y-105742857D01*
X142440476Y-105838095D01*
X142488095Y-105980952D01*
X143059524Y-106552381D01*
X142440476Y-106552381D01*
X143295238Y-108997619D02*
X143390476Y-108950000D01*
X143485714Y-108854762D01*
X143628571Y-108711905D01*
X143723810Y-108664286D01*
X143819048Y-108664286D01*
X143771429Y-108902381D02*
X143866667Y-108854762D01*
X143961905Y-108759524D01*
X144009524Y-108569048D01*
X144009524Y-108235714D01*
X143961905Y-108045238D01*
X143866667Y-107950000D01*
X143771429Y-107902381D01*
X143580952Y-107902381D01*
X143485714Y-107950000D01*
X143390476Y-108045238D01*
X143342857Y-108235714D01*
X143342857Y-108569048D01*
X143390476Y-108759524D01*
X143485714Y-108854762D01*
X143580952Y-108902381D01*
X143771429Y-108902381D01*
X143009524Y-107902381D02*
X142390476Y-107902381D01*
X142723810Y-108283333D01*
X142580952Y-108283333D01*
X142485714Y-108330952D01*
X142438095Y-108378571D01*
X142390476Y-108473810D01*
X142390476Y-108711905D01*
X142438095Y-108807143D01*
X142485714Y-108854762D01*
X142580952Y-108902381D01*
X142866667Y-108902381D01*
X142961905Y-108854762D01*
X143009524Y-108807143D01*
X145045238Y-120706479D02*
X145140476Y-120658860D01*
X145235714Y-120563622D01*
X145378571Y-120420765D01*
X145473810Y-120373146D01*
X145569048Y-120373146D01*
X145521429Y-120611241D02*
X145616667Y-120563622D01*
X145711905Y-120468384D01*
X145759524Y-120277908D01*
X145759524Y-119944574D01*
X145711905Y-119754098D01*
X145616667Y-119658860D01*
X145521429Y-119611241D01*
X145330952Y-119611241D01*
X145235714Y-119658860D01*
X145140476Y-119754098D01*
X145092857Y-119944574D01*
X145092857Y-120277908D01*
X145140476Y-120468384D01*
X145235714Y-120563622D01*
X145330952Y-120611241D01*
X145521429Y-120611241D01*
X144235714Y-119944574D02*
X144235714Y-120611241D01*
X144473810Y-119563622D02*
X144711905Y-120277908D01*
X144092857Y-120277908D01*
X139616666Y-97352381D02*
X139950000Y-96876190D01*
X140188095Y-97352381D02*
X140188095Y-96352381D01*
X139807142Y-96352381D01*
X139711904Y-96400000D01*
X139664285Y-96447619D01*
X139616666Y-96542857D01*
X139616666Y-96685714D01*
X139664285Y-96780952D01*
X139711904Y-96828571D01*
X139807142Y-96876190D01*
X140188095Y-96876190D01*
X138664285Y-97352381D02*
X139235714Y-97352381D01*
X138950000Y-97352381D02*
X138950000Y-96352381D01*
X139045238Y-96495238D01*
X139140476Y-96590476D01*
X139235714Y-96638095D01*
X140516666Y-106802381D02*
X140850000Y-106326190D01*
X141088095Y-106802381D02*
X141088095Y-105802381D01*
X140707142Y-105802381D01*
X140611904Y-105850000D01*
X140564285Y-105897619D01*
X140516666Y-105992857D01*
X140516666Y-106135714D01*
X140564285Y-106230952D01*
X140611904Y-106278571D01*
X140707142Y-106326190D01*
X141088095Y-106326190D01*
X140135714Y-105897619D02*
X140088095Y-105850000D01*
X139992857Y-105802381D01*
X139754761Y-105802381D01*
X139659523Y-105850000D01*
X139611904Y-105897619D01*
X139564285Y-105992857D01*
X139564285Y-106088095D01*
X139611904Y-106230952D01*
X140183333Y-106802381D01*
X139564285Y-106802381D01*
X140516666Y-108902381D02*
X140850000Y-108426190D01*
X141088095Y-108902381D02*
X141088095Y-107902381D01*
X140707142Y-107902381D01*
X140611904Y-107950000D01*
X140564285Y-107997619D01*
X140516666Y-108092857D01*
X140516666Y-108235714D01*
X140564285Y-108330952D01*
X140611904Y-108378571D01*
X140707142Y-108426190D01*
X141088095Y-108426190D01*
X140183333Y-107902381D02*
X139564285Y-107902381D01*
X139897619Y-108283333D01*
X139754761Y-108283333D01*
X139659523Y-108330952D01*
X139611904Y-108378571D01*
X139564285Y-108473810D01*
X139564285Y-108711905D01*
X139611904Y-108807143D01*
X139659523Y-108854762D01*
X139754761Y-108902381D01*
X140040476Y-108902381D01*
X140135714Y-108854762D01*
X140183333Y-108807143D01*
X141516666Y-119752381D02*
X141850000Y-119276190D01*
X142088095Y-119752381D02*
X142088095Y-118752381D01*
X141707142Y-118752381D01*
X141611904Y-118800000D01*
X141564285Y-118847619D01*
X141516666Y-118942857D01*
X141516666Y-119085714D01*
X141564285Y-119180952D01*
X141611904Y-119228571D01*
X141707142Y-119276190D01*
X142088095Y-119276190D01*
X140659523Y-119085714D02*
X140659523Y-119752381D01*
X140897619Y-118704762D02*
X141135714Y-119419048D01*
X140516666Y-119419048D01*
X148666666Y-102252381D02*
X149000000Y-101776190D01*
X149238095Y-102252381D02*
X149238095Y-101252381D01*
X148857142Y-101252381D01*
X148761904Y-101300000D01*
X148714285Y-101347619D01*
X148666666Y-101442857D01*
X148666666Y-101585714D01*
X148714285Y-101680952D01*
X148761904Y-101728571D01*
X148857142Y-101776190D01*
X149238095Y-101776190D01*
X147761904Y-101252381D02*
X148238095Y-101252381D01*
X148285714Y-101728571D01*
X148238095Y-101680952D01*
X148142857Y-101633333D01*
X147904761Y-101633333D01*
X147809523Y-101680952D01*
X147761904Y-101728571D01*
X147714285Y-101823810D01*
X147714285Y-102061905D01*
X147761904Y-102157143D01*
X147809523Y-102204762D01*
X147904761Y-102252381D01*
X148142857Y-102252381D01*
X148238095Y-102204762D01*
X148285714Y-102157143D01*
X150916666Y-105152381D02*
X151250000Y-104676190D01*
X151488095Y-105152381D02*
X151488095Y-104152381D01*
X151107142Y-104152381D01*
X151011904Y-104200000D01*
X150964285Y-104247619D01*
X150916666Y-104342857D01*
X150916666Y-104485714D01*
X150964285Y-104580952D01*
X151011904Y-104628571D01*
X151107142Y-104676190D01*
X151488095Y-104676190D01*
X150059523Y-104152381D02*
X150250000Y-104152381D01*
X150345238Y-104200000D01*
X150392857Y-104247619D01*
X150488095Y-104390476D01*
X150535714Y-104580952D01*
X150535714Y-104961905D01*
X150488095Y-105057143D01*
X150440476Y-105104762D01*
X150345238Y-105152381D01*
X150154761Y-105152381D01*
X150059523Y-105104762D01*
X150011904Y-105057143D01*
X149964285Y-104961905D01*
X149964285Y-104723810D01*
X150011904Y-104628571D01*
X150059523Y-104580952D01*
X150154761Y-104533333D01*
X150345238Y-104533333D01*
X150440476Y-104580952D01*
X150488095Y-104628571D01*
X150535714Y-104723810D01*
X150916666Y-110602381D02*
X151250000Y-110126190D01*
X151488095Y-110602381D02*
X151488095Y-109602381D01*
X151107142Y-109602381D01*
X151011904Y-109650000D01*
X150964285Y-109697619D01*
X150916666Y-109792857D01*
X150916666Y-109935714D01*
X150964285Y-110030952D01*
X151011904Y-110078571D01*
X151107142Y-110126190D01*
X151488095Y-110126190D01*
X150583333Y-109602381D02*
X149916666Y-109602381D01*
X150345238Y-110602381D01*
X148366666Y-114402381D02*
X148700000Y-113926190D01*
X148938095Y-114402381D02*
X148938095Y-113402381D01*
X148557142Y-113402381D01*
X148461904Y-113450000D01*
X148414285Y-113497619D01*
X148366666Y-113592857D01*
X148366666Y-113735714D01*
X148414285Y-113830952D01*
X148461904Y-113878571D01*
X148557142Y-113926190D01*
X148938095Y-113926190D01*
X147795238Y-113830952D02*
X147890476Y-113783333D01*
X147938095Y-113735714D01*
X147985714Y-113640476D01*
X147985714Y-113592857D01*
X147938095Y-113497619D01*
X147890476Y-113450000D01*
X147795238Y-113402381D01*
X147604761Y-113402381D01*
X147509523Y-113450000D01*
X147461904Y-113497619D01*
X147414285Y-113592857D01*
X147414285Y-113640476D01*
X147461904Y-113735714D01*
X147509523Y-113783333D01*
X147604761Y-113830952D01*
X147795238Y-113830952D01*
X147890476Y-113878571D01*
X147938095Y-113926190D01*
X147985714Y-114021429D01*
X147985714Y-114211905D01*
X147938095Y-114307143D01*
X147890476Y-114354762D01*
X147795238Y-114402381D01*
X147604761Y-114402381D01*
X147509523Y-114354762D01*
X147461904Y-114307143D01*
X147414285Y-114211905D01*
X147414285Y-114021429D01*
X147461904Y-113926190D01*
X147509523Y-113878571D01*
X147604761Y-113830952D01*
M02*
