G04 #@! TF.FileFunction,Soldermask,Top*
%FSLAX46Y46*%
G04 Gerber Fmt 4.6, Leading zero omitted, Abs format (unit mm)*
G04 Created by KiCad (PCBNEW 4.0.1-stable) date Tuesday, April 12, 2016 'PMt' 11:12:41 PM*
%MOMM*%
G01*
G04 APERTURE LIST*
%ADD10C,0.100000*%
%ADD11C,0.010000*%
%ADD12C,2.000000*%
%ADD13R,0.852400X0.352400*%
%ADD14R,1.653540X0.551180*%
%ADD15R,2.184400X1.879600*%
%ADD16O,2.184400X1.879600*%
%ADD17C,1.676400*%
G04 APERTURE END LIST*
D10*
D11*
G36*
X146141031Y-91623103D02*
X146178866Y-91624878D01*
X146214763Y-91627950D01*
X146250412Y-91632451D01*
X146287499Y-91638512D01*
X146312537Y-91643226D01*
X146349505Y-91650873D01*
X146384770Y-91659056D01*
X146419378Y-91668108D01*
X146454376Y-91678364D01*
X146490809Y-91690156D01*
X146529722Y-91703818D01*
X146572161Y-91719684D01*
X146619173Y-91738088D01*
X146654737Y-91752406D01*
X146701958Y-91771805D01*
X146749898Y-91791943D01*
X146798959Y-91813011D01*
X146849547Y-91835199D01*
X146902066Y-91858695D01*
X146956921Y-91883689D01*
X147014514Y-91910372D01*
X147075251Y-91938932D01*
X147139536Y-91969559D01*
X147207773Y-92002442D01*
X147280365Y-92037772D01*
X147357719Y-92075737D01*
X147440236Y-92116528D01*
X147528323Y-92160333D01*
X147586085Y-92189177D01*
X147667799Y-92229964D01*
X147743732Y-92267698D01*
X147814358Y-92302596D01*
X147880149Y-92334875D01*
X147941577Y-92364752D01*
X147999115Y-92392444D01*
X148053235Y-92418167D01*
X148104409Y-92442138D01*
X148153111Y-92464575D01*
X148199811Y-92485695D01*
X148244982Y-92505714D01*
X148289097Y-92524848D01*
X148332629Y-92543316D01*
X148376049Y-92561334D01*
X148419829Y-92579119D01*
X148464443Y-92596888D01*
X148510363Y-92614857D01*
X148527542Y-92621509D01*
X148551524Y-92630793D01*
X148573788Y-92639455D01*
X148593348Y-92647109D01*
X148609219Y-92653366D01*
X148620414Y-92657840D01*
X148625784Y-92660070D01*
X148635832Y-92664573D01*
X148620698Y-92683849D01*
X148608889Y-92697902D01*
X148592920Y-92715482D01*
X148573921Y-92735449D01*
X148553023Y-92756663D01*
X148531357Y-92777986D01*
X148510055Y-92798277D01*
X148490246Y-92816397D01*
X148481681Y-92823920D01*
X148406102Y-92885039D01*
X148324352Y-92943238D01*
X148236747Y-92998375D01*
X148143601Y-93050306D01*
X148045231Y-93098886D01*
X147941952Y-93143973D01*
X147834079Y-93185422D01*
X147721928Y-93223091D01*
X147605814Y-93256835D01*
X147486054Y-93286510D01*
X147446278Y-93295281D01*
X147387253Y-93307567D01*
X147333414Y-93318013D01*
X147283205Y-93326877D01*
X147235074Y-93334413D01*
X147187469Y-93340877D01*
X147138835Y-93346526D01*
X147128778Y-93347588D01*
X147108732Y-93349185D01*
X147083512Y-93350438D01*
X147054439Y-93351348D01*
X147022833Y-93351913D01*
X146990014Y-93352134D01*
X146957303Y-93352011D01*
X146926020Y-93351543D01*
X146897485Y-93350730D01*
X146873019Y-93349572D01*
X146853941Y-93348069D01*
X146850083Y-93347629D01*
X146779587Y-93336359D01*
X146714668Y-93320777D01*
X146655314Y-93300875D01*
X146601511Y-93276642D01*
X146553246Y-93248071D01*
X146510506Y-93215152D01*
X146473275Y-93177875D01*
X146441542Y-93136233D01*
X146415292Y-93090216D01*
X146395814Y-93043556D01*
X146386564Y-93015336D01*
X146379950Y-92989790D01*
X146375611Y-92964670D01*
X146373189Y-92937726D01*
X146372323Y-92906710D01*
X146372311Y-92896690D01*
X146372506Y-92839783D01*
X146349541Y-92837430D01*
X146326577Y-92835078D01*
X146276819Y-92869010D01*
X146277261Y-92918359D01*
X146281246Y-92976590D01*
X146292027Y-93033341D01*
X146309427Y-93088195D01*
X146333267Y-93140732D01*
X146363369Y-93190536D01*
X146399554Y-93237188D01*
X146424774Y-93264155D01*
X146465410Y-93301000D01*
X146509140Y-93333371D01*
X146556472Y-93361491D01*
X146607911Y-93385584D01*
X146663966Y-93405873D01*
X146725143Y-93422584D01*
X146791948Y-93435938D01*
X146825389Y-93441113D01*
X146846455Y-93443389D01*
X146873303Y-93445185D01*
X146904675Y-93446500D01*
X146939315Y-93447334D01*
X146975966Y-93447688D01*
X147013369Y-93447562D01*
X147050269Y-93446956D01*
X147085407Y-93445870D01*
X147117526Y-93444303D01*
X147145370Y-93442257D01*
X147157000Y-93441088D01*
X147271247Y-93425915D01*
X147386379Y-93406055D01*
X147501524Y-93381770D01*
X147615809Y-93353321D01*
X147728359Y-93320969D01*
X147838303Y-93284975D01*
X147944766Y-93245600D01*
X148046876Y-93203106D01*
X148143760Y-93157754D01*
X148198608Y-93129498D01*
X148281718Y-93082751D01*
X148360658Y-93033631D01*
X148434981Y-92982487D01*
X148504241Y-92929668D01*
X148567993Y-92875522D01*
X148625791Y-92820397D01*
X148677188Y-92764643D01*
X148698880Y-92738480D01*
X148713589Y-92720572D01*
X148724647Y-92708259D01*
X148732321Y-92701267D01*
X148736878Y-92699322D01*
X148737106Y-92699373D01*
X148751682Y-92703012D01*
X148772129Y-92707139D01*
X148797296Y-92711588D01*
X148826029Y-92716193D01*
X148857174Y-92720787D01*
X148889579Y-92725204D01*
X148922091Y-92729276D01*
X148953556Y-92732837D01*
X148982821Y-92735720D01*
X148996736Y-92736893D01*
X149026996Y-92738630D01*
X149060509Y-92739311D01*
X149097721Y-92738909D01*
X149139075Y-92737398D01*
X149185017Y-92734750D01*
X149235991Y-92730938D01*
X149292441Y-92725937D01*
X149354812Y-92719719D01*
X149423548Y-92712256D01*
X149444764Y-92709853D01*
X149542696Y-92698039D01*
X149647110Y-92684253D01*
X149757726Y-92668544D01*
X149874267Y-92650962D01*
X149996454Y-92631559D01*
X150124011Y-92610386D01*
X150256657Y-92587492D01*
X150394117Y-92562928D01*
X150536110Y-92536746D01*
X150682360Y-92508995D01*
X150832588Y-92479727D01*
X150986517Y-92448991D01*
X151143867Y-92416840D01*
X151304361Y-92383322D01*
X151467721Y-92348489D01*
X151633669Y-92312392D01*
X151661972Y-92306166D01*
X151693505Y-92299268D01*
X151723573Y-92292787D01*
X151751326Y-92286899D01*
X151775913Y-92281780D01*
X151796484Y-92277607D01*
X151812186Y-92274556D01*
X151822170Y-92272804D01*
X151824250Y-92272520D01*
X151851629Y-92272603D01*
X151880597Y-92278198D01*
X151909337Y-92288640D01*
X151936032Y-92303263D01*
X151958863Y-92321400D01*
X151959577Y-92322097D01*
X151970334Y-92334458D01*
X151983559Y-92352584D01*
X151998873Y-92375782D01*
X152015898Y-92403362D01*
X152034253Y-92434633D01*
X152053562Y-92468902D01*
X152073444Y-92505479D01*
X152093521Y-92543671D01*
X152113415Y-92582789D01*
X152132747Y-92622139D01*
X152151137Y-92661031D01*
X152168208Y-92698774D01*
X152176938Y-92718888D01*
X152204418Y-92787828D01*
X152226295Y-92852753D01*
X152242564Y-92913631D01*
X152253220Y-92970428D01*
X152258258Y-93023112D01*
X152257674Y-93071650D01*
X152251462Y-93116008D01*
X152240303Y-93154355D01*
X152230721Y-93174617D01*
X152217158Y-93196530D01*
X152201359Y-93217628D01*
X152185072Y-93235441D01*
X152179089Y-93240860D01*
X152163700Y-93252771D01*
X152147081Y-93263287D01*
X152128689Y-93272518D01*
X152107978Y-93280574D01*
X152084406Y-93287565D01*
X152057427Y-93293602D01*
X152026498Y-93298794D01*
X151991074Y-93303252D01*
X151950612Y-93307086D01*
X151904567Y-93310405D01*
X151852396Y-93313321D01*
X151811903Y-93315182D01*
X151792132Y-93315961D01*
X151766304Y-93316876D01*
X151735416Y-93317897D01*
X151700464Y-93318994D01*
X151662446Y-93320137D01*
X151622357Y-93321294D01*
X151581195Y-93322437D01*
X151539956Y-93323534D01*
X151519097Y-93324070D01*
X151413132Y-93326865D01*
X151313623Y-93329728D01*
X151219971Y-93332688D01*
X151131576Y-93335774D01*
X151047840Y-93339016D01*
X150968162Y-93342444D01*
X150891944Y-93346086D01*
X150818587Y-93349972D01*
X150747491Y-93354132D01*
X150678056Y-93358595D01*
X150609683Y-93363390D01*
X150541774Y-93368548D01*
X150473729Y-93374096D01*
X150437833Y-93377168D01*
X150285425Y-93391484D01*
X150138916Y-93407501D01*
X149997314Y-93425426D01*
X149859629Y-93445462D01*
X149724869Y-93467813D01*
X149592042Y-93492686D01*
X149460156Y-93520283D01*
X149328221Y-93550811D01*
X149195244Y-93584473D01*
X149060234Y-93621474D01*
X148922199Y-93662018D01*
X148780149Y-93706311D01*
X148672181Y-93741516D01*
X148615529Y-93760415D01*
X148563101Y-93778181D01*
X148514324Y-93795079D01*
X148468627Y-93811377D01*
X148425437Y-93827340D01*
X148384184Y-93843235D01*
X148344295Y-93859327D01*
X148305199Y-93875884D01*
X148266325Y-93893170D01*
X148227099Y-93911452D01*
X148186952Y-93930997D01*
X148145310Y-93952071D01*
X148101602Y-93974939D01*
X148055257Y-93999869D01*
X148005703Y-94027125D01*
X147952368Y-94056975D01*
X147894680Y-94089684D01*
X147832068Y-94125519D01*
X147767306Y-94162815D01*
X147717113Y-94191743D01*
X147672343Y-94217450D01*
X147632339Y-94240298D01*
X147596445Y-94260648D01*
X147564006Y-94278863D01*
X147534365Y-94295303D01*
X147506866Y-94310330D01*
X147480853Y-94324307D01*
X147455670Y-94337594D01*
X147430662Y-94350554D01*
X147405172Y-94363549D01*
X147382778Y-94374820D01*
X147317461Y-94406741D01*
X147256674Y-94434702D01*
X147199369Y-94459064D01*
X147144501Y-94480188D01*
X147091022Y-94498436D01*
X147037885Y-94514169D01*
X146984043Y-94527748D01*
X146928449Y-94539537D01*
X146880975Y-94548094D01*
X146821699Y-94557475D01*
X146767114Y-94564849D01*
X146715196Y-94570377D01*
X146663926Y-94574223D01*
X146611279Y-94576550D01*
X146555234Y-94577522D01*
X146516708Y-94577509D01*
X146490120Y-94577309D01*
X146465076Y-94577051D01*
X146442670Y-94576751D01*
X146423997Y-94576426D01*
X146410149Y-94576092D01*
X146402223Y-94575767D01*
X146402056Y-94575755D01*
X146311009Y-94566740D01*
X146221200Y-94553096D01*
X146133485Y-94535042D01*
X146048718Y-94512798D01*
X145967756Y-94486583D01*
X145891455Y-94456619D01*
X145833791Y-94429817D01*
X145747957Y-94382919D01*
X145664330Y-94329377D01*
X145582988Y-94269273D01*
X145504006Y-94202690D01*
X145427461Y-94129708D01*
X145353429Y-94050411D01*
X145281985Y-93964879D01*
X145213207Y-93873196D01*
X145147171Y-93775442D01*
X145083952Y-93671701D01*
X145023627Y-93562053D01*
X145019300Y-93553746D01*
X144982293Y-93478734D01*
X144947779Y-93400989D01*
X144915400Y-93319580D01*
X144884798Y-93233574D01*
X144855612Y-93142039D01*
X144839110Y-93085758D01*
X144831543Y-93059169D01*
X144585806Y-92960044D01*
X144546329Y-92944069D01*
X144508813Y-92928791D01*
X144473766Y-92914422D01*
X144441694Y-92901173D01*
X144413102Y-92889257D01*
X144388498Y-92878887D01*
X144368388Y-92870274D01*
X144353278Y-92863630D01*
X144343674Y-92859168D01*
X144340083Y-92857101D01*
X144340069Y-92857055D01*
X144342644Y-92854178D01*
X144350115Y-92846965D01*
X144362098Y-92835762D01*
X144378213Y-92820917D01*
X144398078Y-92802776D01*
X144421310Y-92781686D01*
X144447529Y-92757994D01*
X144476351Y-92732048D01*
X144507395Y-92704193D01*
X144540280Y-92674778D01*
X144565847Y-92651966D01*
X144791625Y-92450741D01*
X144806003Y-92411022D01*
X144834338Y-92340948D01*
X144867586Y-92274045D01*
X144906152Y-92209707D01*
X144950445Y-92147324D01*
X145000870Y-92086287D01*
X145057835Y-92025990D01*
X145074224Y-92009917D01*
X145141538Y-91949739D01*
X145214130Y-91894059D01*
X145291734Y-91843010D01*
X145374086Y-91796722D01*
X145460921Y-91755330D01*
X145551974Y-91718964D01*
X145646979Y-91687758D01*
X145745671Y-91661842D01*
X145791750Y-91651834D01*
X145836147Y-91643197D01*
X145875869Y-91636427D01*
X145912979Y-91631295D01*
X145949540Y-91627572D01*
X145987614Y-91625029D01*
X146029265Y-91623439D01*
X146052806Y-91622916D01*
X146099574Y-91622493D01*
X146141031Y-91623103D01*
X146141031Y-91623103D01*
G37*
X146141031Y-91623103D02*
X146178866Y-91624878D01*
X146214763Y-91627950D01*
X146250412Y-91632451D01*
X146287499Y-91638512D01*
X146312537Y-91643226D01*
X146349505Y-91650873D01*
X146384770Y-91659056D01*
X146419378Y-91668108D01*
X146454376Y-91678364D01*
X146490809Y-91690156D01*
X146529722Y-91703818D01*
X146572161Y-91719684D01*
X146619173Y-91738088D01*
X146654737Y-91752406D01*
X146701958Y-91771805D01*
X146749898Y-91791943D01*
X146798959Y-91813011D01*
X146849547Y-91835199D01*
X146902066Y-91858695D01*
X146956921Y-91883689D01*
X147014514Y-91910372D01*
X147075251Y-91938932D01*
X147139536Y-91969559D01*
X147207773Y-92002442D01*
X147280365Y-92037772D01*
X147357719Y-92075737D01*
X147440236Y-92116528D01*
X147528323Y-92160333D01*
X147586085Y-92189177D01*
X147667799Y-92229964D01*
X147743732Y-92267698D01*
X147814358Y-92302596D01*
X147880149Y-92334875D01*
X147941577Y-92364752D01*
X147999115Y-92392444D01*
X148053235Y-92418167D01*
X148104409Y-92442138D01*
X148153111Y-92464575D01*
X148199811Y-92485695D01*
X148244982Y-92505714D01*
X148289097Y-92524848D01*
X148332629Y-92543316D01*
X148376049Y-92561334D01*
X148419829Y-92579119D01*
X148464443Y-92596888D01*
X148510363Y-92614857D01*
X148527542Y-92621509D01*
X148551524Y-92630793D01*
X148573788Y-92639455D01*
X148593348Y-92647109D01*
X148609219Y-92653366D01*
X148620414Y-92657840D01*
X148625784Y-92660070D01*
X148635832Y-92664573D01*
X148620698Y-92683849D01*
X148608889Y-92697902D01*
X148592920Y-92715482D01*
X148573921Y-92735449D01*
X148553023Y-92756663D01*
X148531357Y-92777986D01*
X148510055Y-92798277D01*
X148490246Y-92816397D01*
X148481681Y-92823920D01*
X148406102Y-92885039D01*
X148324352Y-92943238D01*
X148236747Y-92998375D01*
X148143601Y-93050306D01*
X148045231Y-93098886D01*
X147941952Y-93143973D01*
X147834079Y-93185422D01*
X147721928Y-93223091D01*
X147605814Y-93256835D01*
X147486054Y-93286510D01*
X147446278Y-93295281D01*
X147387253Y-93307567D01*
X147333414Y-93318013D01*
X147283205Y-93326877D01*
X147235074Y-93334413D01*
X147187469Y-93340877D01*
X147138835Y-93346526D01*
X147128778Y-93347588D01*
X147108732Y-93349185D01*
X147083512Y-93350438D01*
X147054439Y-93351348D01*
X147022833Y-93351913D01*
X146990014Y-93352134D01*
X146957303Y-93352011D01*
X146926020Y-93351543D01*
X146897485Y-93350730D01*
X146873019Y-93349572D01*
X146853941Y-93348069D01*
X146850083Y-93347629D01*
X146779587Y-93336359D01*
X146714668Y-93320777D01*
X146655314Y-93300875D01*
X146601511Y-93276642D01*
X146553246Y-93248071D01*
X146510506Y-93215152D01*
X146473275Y-93177875D01*
X146441542Y-93136233D01*
X146415292Y-93090216D01*
X146395814Y-93043556D01*
X146386564Y-93015336D01*
X146379950Y-92989790D01*
X146375611Y-92964670D01*
X146373189Y-92937726D01*
X146372323Y-92906710D01*
X146372311Y-92896690D01*
X146372506Y-92839783D01*
X146349541Y-92837430D01*
X146326577Y-92835078D01*
X146276819Y-92869010D01*
X146277261Y-92918359D01*
X146281246Y-92976590D01*
X146292027Y-93033341D01*
X146309427Y-93088195D01*
X146333267Y-93140732D01*
X146363369Y-93190536D01*
X146399554Y-93237188D01*
X146424774Y-93264155D01*
X146465410Y-93301000D01*
X146509140Y-93333371D01*
X146556472Y-93361491D01*
X146607911Y-93385584D01*
X146663966Y-93405873D01*
X146725143Y-93422584D01*
X146791948Y-93435938D01*
X146825389Y-93441113D01*
X146846455Y-93443389D01*
X146873303Y-93445185D01*
X146904675Y-93446500D01*
X146939315Y-93447334D01*
X146975966Y-93447688D01*
X147013369Y-93447562D01*
X147050269Y-93446956D01*
X147085407Y-93445870D01*
X147117526Y-93444303D01*
X147145370Y-93442257D01*
X147157000Y-93441088D01*
X147271247Y-93425915D01*
X147386379Y-93406055D01*
X147501524Y-93381770D01*
X147615809Y-93353321D01*
X147728359Y-93320969D01*
X147838303Y-93284975D01*
X147944766Y-93245600D01*
X148046876Y-93203106D01*
X148143760Y-93157754D01*
X148198608Y-93129498D01*
X148281718Y-93082751D01*
X148360658Y-93033631D01*
X148434981Y-92982487D01*
X148504241Y-92929668D01*
X148567993Y-92875522D01*
X148625791Y-92820397D01*
X148677188Y-92764643D01*
X148698880Y-92738480D01*
X148713589Y-92720572D01*
X148724647Y-92708259D01*
X148732321Y-92701267D01*
X148736878Y-92699322D01*
X148737106Y-92699373D01*
X148751682Y-92703012D01*
X148772129Y-92707139D01*
X148797296Y-92711588D01*
X148826029Y-92716193D01*
X148857174Y-92720787D01*
X148889579Y-92725204D01*
X148922091Y-92729276D01*
X148953556Y-92732837D01*
X148982821Y-92735720D01*
X148996736Y-92736893D01*
X149026996Y-92738630D01*
X149060509Y-92739311D01*
X149097721Y-92738909D01*
X149139075Y-92737398D01*
X149185017Y-92734750D01*
X149235991Y-92730938D01*
X149292441Y-92725937D01*
X149354812Y-92719719D01*
X149423548Y-92712256D01*
X149444764Y-92709853D01*
X149542696Y-92698039D01*
X149647110Y-92684253D01*
X149757726Y-92668544D01*
X149874267Y-92650962D01*
X149996454Y-92631559D01*
X150124011Y-92610386D01*
X150256657Y-92587492D01*
X150394117Y-92562928D01*
X150536110Y-92536746D01*
X150682360Y-92508995D01*
X150832588Y-92479727D01*
X150986517Y-92448991D01*
X151143867Y-92416840D01*
X151304361Y-92383322D01*
X151467721Y-92348489D01*
X151633669Y-92312392D01*
X151661972Y-92306166D01*
X151693505Y-92299268D01*
X151723573Y-92292787D01*
X151751326Y-92286899D01*
X151775913Y-92281780D01*
X151796484Y-92277607D01*
X151812186Y-92274556D01*
X151822170Y-92272804D01*
X151824250Y-92272520D01*
X151851629Y-92272603D01*
X151880597Y-92278198D01*
X151909337Y-92288640D01*
X151936032Y-92303263D01*
X151958863Y-92321400D01*
X151959577Y-92322097D01*
X151970334Y-92334458D01*
X151983559Y-92352584D01*
X151998873Y-92375782D01*
X152015898Y-92403362D01*
X152034253Y-92434633D01*
X152053562Y-92468902D01*
X152073444Y-92505479D01*
X152093521Y-92543671D01*
X152113415Y-92582789D01*
X152132747Y-92622139D01*
X152151137Y-92661031D01*
X152168208Y-92698774D01*
X152176938Y-92718888D01*
X152204418Y-92787828D01*
X152226295Y-92852753D01*
X152242564Y-92913631D01*
X152253220Y-92970428D01*
X152258258Y-93023112D01*
X152257674Y-93071650D01*
X152251462Y-93116008D01*
X152240303Y-93154355D01*
X152230721Y-93174617D01*
X152217158Y-93196530D01*
X152201359Y-93217628D01*
X152185072Y-93235441D01*
X152179089Y-93240860D01*
X152163700Y-93252771D01*
X152147081Y-93263287D01*
X152128689Y-93272518D01*
X152107978Y-93280574D01*
X152084406Y-93287565D01*
X152057427Y-93293602D01*
X152026498Y-93298794D01*
X151991074Y-93303252D01*
X151950612Y-93307086D01*
X151904567Y-93310405D01*
X151852396Y-93313321D01*
X151811903Y-93315182D01*
X151792132Y-93315961D01*
X151766304Y-93316876D01*
X151735416Y-93317897D01*
X151700464Y-93318994D01*
X151662446Y-93320137D01*
X151622357Y-93321294D01*
X151581195Y-93322437D01*
X151539956Y-93323534D01*
X151519097Y-93324070D01*
X151413132Y-93326865D01*
X151313623Y-93329728D01*
X151219971Y-93332688D01*
X151131576Y-93335774D01*
X151047840Y-93339016D01*
X150968162Y-93342444D01*
X150891944Y-93346086D01*
X150818587Y-93349972D01*
X150747491Y-93354132D01*
X150678056Y-93358595D01*
X150609683Y-93363390D01*
X150541774Y-93368548D01*
X150473729Y-93374096D01*
X150437833Y-93377168D01*
X150285425Y-93391484D01*
X150138916Y-93407501D01*
X149997314Y-93425426D01*
X149859629Y-93445462D01*
X149724869Y-93467813D01*
X149592042Y-93492686D01*
X149460156Y-93520283D01*
X149328221Y-93550811D01*
X149195244Y-93584473D01*
X149060234Y-93621474D01*
X148922199Y-93662018D01*
X148780149Y-93706311D01*
X148672181Y-93741516D01*
X148615529Y-93760415D01*
X148563101Y-93778181D01*
X148514324Y-93795079D01*
X148468627Y-93811377D01*
X148425437Y-93827340D01*
X148384184Y-93843235D01*
X148344295Y-93859327D01*
X148305199Y-93875884D01*
X148266325Y-93893170D01*
X148227099Y-93911452D01*
X148186952Y-93930997D01*
X148145310Y-93952071D01*
X148101602Y-93974939D01*
X148055257Y-93999869D01*
X148005703Y-94027125D01*
X147952368Y-94056975D01*
X147894680Y-94089684D01*
X147832068Y-94125519D01*
X147767306Y-94162815D01*
X147717113Y-94191743D01*
X147672343Y-94217450D01*
X147632339Y-94240298D01*
X147596445Y-94260648D01*
X147564006Y-94278863D01*
X147534365Y-94295303D01*
X147506866Y-94310330D01*
X147480853Y-94324307D01*
X147455670Y-94337594D01*
X147430662Y-94350554D01*
X147405172Y-94363549D01*
X147382778Y-94374820D01*
X147317461Y-94406741D01*
X147256674Y-94434702D01*
X147199369Y-94459064D01*
X147144501Y-94480188D01*
X147091022Y-94498436D01*
X147037885Y-94514169D01*
X146984043Y-94527748D01*
X146928449Y-94539537D01*
X146880975Y-94548094D01*
X146821699Y-94557475D01*
X146767114Y-94564849D01*
X146715196Y-94570377D01*
X146663926Y-94574223D01*
X146611279Y-94576550D01*
X146555234Y-94577522D01*
X146516708Y-94577509D01*
X146490120Y-94577309D01*
X146465076Y-94577051D01*
X146442670Y-94576751D01*
X146423997Y-94576426D01*
X146410149Y-94576092D01*
X146402223Y-94575767D01*
X146402056Y-94575755D01*
X146311009Y-94566740D01*
X146221200Y-94553096D01*
X146133485Y-94535042D01*
X146048718Y-94512798D01*
X145967756Y-94486583D01*
X145891455Y-94456619D01*
X145833791Y-94429817D01*
X145747957Y-94382919D01*
X145664330Y-94329377D01*
X145582988Y-94269273D01*
X145504006Y-94202690D01*
X145427461Y-94129708D01*
X145353429Y-94050411D01*
X145281985Y-93964879D01*
X145213207Y-93873196D01*
X145147171Y-93775442D01*
X145083952Y-93671701D01*
X145023627Y-93562053D01*
X145019300Y-93553746D01*
X144982293Y-93478734D01*
X144947779Y-93400989D01*
X144915400Y-93319580D01*
X144884798Y-93233574D01*
X144855612Y-93142039D01*
X144839110Y-93085758D01*
X144831543Y-93059169D01*
X144585806Y-92960044D01*
X144546329Y-92944069D01*
X144508813Y-92928791D01*
X144473766Y-92914422D01*
X144441694Y-92901173D01*
X144413102Y-92889257D01*
X144388498Y-92878887D01*
X144368388Y-92870274D01*
X144353278Y-92863630D01*
X144343674Y-92859168D01*
X144340083Y-92857101D01*
X144340069Y-92857055D01*
X144342644Y-92854178D01*
X144350115Y-92846965D01*
X144362098Y-92835762D01*
X144378213Y-92820917D01*
X144398078Y-92802776D01*
X144421310Y-92781686D01*
X144447529Y-92757994D01*
X144476351Y-92732048D01*
X144507395Y-92704193D01*
X144540280Y-92674778D01*
X144565847Y-92651966D01*
X144791625Y-92450741D01*
X144806003Y-92411022D01*
X144834338Y-92340948D01*
X144867586Y-92274045D01*
X144906152Y-92209707D01*
X144950445Y-92147324D01*
X145000870Y-92086287D01*
X145057835Y-92025990D01*
X145074224Y-92009917D01*
X145141538Y-91949739D01*
X145214130Y-91894059D01*
X145291734Y-91843010D01*
X145374086Y-91796722D01*
X145460921Y-91755330D01*
X145551974Y-91718964D01*
X145646979Y-91687758D01*
X145745671Y-91661842D01*
X145791750Y-91651834D01*
X145836147Y-91643197D01*
X145875869Y-91636427D01*
X145912979Y-91631295D01*
X145949540Y-91627572D01*
X145987614Y-91625029D01*
X146029265Y-91623439D01*
X146052806Y-91622916D01*
X146099574Y-91622493D01*
X146141031Y-91623103D01*
D12*
X164250000Y-120400000D03*
X137450000Y-94600000D03*
D13*
X161190000Y-100200000D03*
X161190000Y-100600000D03*
X161190000Y-101000000D03*
X161190000Y-101400000D03*
X161190000Y-101800000D03*
X161190000Y-102200000D03*
X161190000Y-102600000D03*
X161190000Y-103000000D03*
X161190000Y-103400000D03*
X161190000Y-103800000D03*
X161190000Y-107800000D03*
X161190000Y-107400000D03*
X161190000Y-107000000D03*
X161190000Y-106600000D03*
X161190000Y-106200000D03*
X161190000Y-105800000D03*
X161190000Y-105400000D03*
X161190000Y-105000000D03*
X161190000Y-104600000D03*
X161190000Y-104200000D03*
X161190000Y-108200000D03*
X161190000Y-108600000D03*
X161190000Y-109000000D03*
X161190000Y-109400000D03*
X161190000Y-109800000D03*
X161190000Y-110200000D03*
X161190000Y-110600000D03*
X161190000Y-111000000D03*
X161190000Y-111400000D03*
X161190000Y-111800000D03*
X161190000Y-115800000D03*
X161190000Y-115400000D03*
X161190000Y-115000000D03*
X161190000Y-114600000D03*
X161190000Y-114200000D03*
X161190000Y-113800000D03*
X161190000Y-113400000D03*
X161190000Y-113000000D03*
X161190000Y-112600000D03*
X161190000Y-112200000D03*
X158110000Y-112200000D03*
X158110000Y-112600000D03*
X158110000Y-113000000D03*
X158110000Y-113400000D03*
X158110000Y-113800000D03*
X158110000Y-114200000D03*
X158110000Y-114600000D03*
X158110000Y-115000000D03*
X158110000Y-115400000D03*
X158110000Y-115800000D03*
X158110000Y-111800000D03*
X158110000Y-111400000D03*
X158110000Y-111000000D03*
X158110000Y-110600000D03*
X158110000Y-110200000D03*
X158110000Y-109800000D03*
X158110000Y-109400000D03*
X158110000Y-109000000D03*
X158110000Y-108600000D03*
X158110000Y-108200000D03*
X158110000Y-104200000D03*
X158110000Y-104600000D03*
X158110000Y-105000000D03*
X158110000Y-105400000D03*
X158110000Y-105800000D03*
X158110000Y-106200000D03*
X158110000Y-106600000D03*
X158110000Y-107000000D03*
X158110000Y-107400000D03*
X158110000Y-107800000D03*
X158110000Y-103800000D03*
X158110000Y-103400000D03*
X158110000Y-103000000D03*
X158110000Y-102600000D03*
X158110000Y-102200000D03*
X158110000Y-101800000D03*
X158110000Y-101400000D03*
X158110000Y-101000000D03*
X158110000Y-100600000D03*
X158110000Y-100200000D03*
D14*
X158461920Y-94250000D03*
X158461920Y-93599760D03*
X158461920Y-92949520D03*
X155800000Y-92949520D03*
X155800000Y-93599760D03*
X155800000Y-94250000D03*
X164300000Y-98250000D03*
X164300000Y-97599760D03*
X164300000Y-96949520D03*
X161638080Y-96949520D03*
X161638080Y-97599760D03*
X161638080Y-98250000D03*
X158611920Y-96700000D03*
X158611920Y-96049760D03*
X158611920Y-95399520D03*
X155950000Y-95399520D03*
X155950000Y-96049760D03*
X155950000Y-96700000D03*
D15*
X131550000Y-116430000D03*
D16*
X131550000Y-113890000D03*
X131550000Y-111350000D03*
X131550000Y-108810000D03*
X131550000Y-106270000D03*
X131550000Y-103730000D03*
X131550000Y-101190000D03*
X131550000Y-98650000D03*
D17*
X143450000Y-100600000D03*
X143250000Y-113650000D03*
D12*
X138300000Y-120950000D03*
M02*
