G04 #@! TF.FileFunction,Soldermask,Top*
%FSLAX46Y46*%
G04 Gerber Fmt 4.6, Leading zero omitted, Abs format (unit mm)*
G04 Created by KiCad (PCBNEW (2015-11-03 BZR 6296)-product) date Tuesday, November 10, 2015 'PMt' 04:38:30 PM*
%MOMM*%
G01*
G04 APERTURE LIST*
%ADD10C,0.100000*%
%ADD11C,0.010000*%
%ADD12R,1.100000X0.600000*%
%ADD13R,1.901140X0.798780*%
%ADD14R,2.432000X2.127200*%
%ADD15O,2.432000X2.127200*%
G04 APERTURE END LIST*
D10*
D11*
G36*
X142391031Y-92093103D02*
X142428866Y-92094878D01*
X142464763Y-92097950D01*
X142500412Y-92102451D01*
X142537499Y-92108512D01*
X142562537Y-92113226D01*
X142599505Y-92120873D01*
X142634770Y-92129056D01*
X142669378Y-92138108D01*
X142704376Y-92148364D01*
X142740809Y-92160156D01*
X142779722Y-92173818D01*
X142822161Y-92189684D01*
X142869173Y-92208088D01*
X142904737Y-92222406D01*
X142951958Y-92241805D01*
X142999898Y-92261943D01*
X143048959Y-92283011D01*
X143099547Y-92305199D01*
X143152066Y-92328695D01*
X143206921Y-92353689D01*
X143264514Y-92380372D01*
X143325251Y-92408932D01*
X143389536Y-92439559D01*
X143457773Y-92472442D01*
X143530365Y-92507772D01*
X143607719Y-92545737D01*
X143690236Y-92586528D01*
X143778323Y-92630333D01*
X143836085Y-92659177D01*
X143917799Y-92699964D01*
X143993732Y-92737698D01*
X144064358Y-92772596D01*
X144130149Y-92804875D01*
X144191577Y-92834752D01*
X144249115Y-92862444D01*
X144303235Y-92888167D01*
X144354409Y-92912138D01*
X144403111Y-92934575D01*
X144449811Y-92955695D01*
X144494982Y-92975714D01*
X144539097Y-92994848D01*
X144582629Y-93013316D01*
X144626049Y-93031334D01*
X144669829Y-93049119D01*
X144714443Y-93066888D01*
X144760363Y-93084857D01*
X144777542Y-93091509D01*
X144801524Y-93100793D01*
X144823788Y-93109455D01*
X144843348Y-93117109D01*
X144859219Y-93123366D01*
X144870414Y-93127840D01*
X144875784Y-93130070D01*
X144885832Y-93134573D01*
X144870698Y-93153849D01*
X144858889Y-93167902D01*
X144842920Y-93185482D01*
X144823921Y-93205449D01*
X144803023Y-93226663D01*
X144781357Y-93247986D01*
X144760055Y-93268277D01*
X144740246Y-93286397D01*
X144731681Y-93293920D01*
X144656102Y-93355039D01*
X144574352Y-93413238D01*
X144486747Y-93468375D01*
X144393601Y-93520306D01*
X144295231Y-93568886D01*
X144191952Y-93613973D01*
X144084079Y-93655422D01*
X143971928Y-93693091D01*
X143855814Y-93726835D01*
X143736054Y-93756510D01*
X143696278Y-93765281D01*
X143637253Y-93777567D01*
X143583414Y-93788013D01*
X143533205Y-93796877D01*
X143485074Y-93804413D01*
X143437469Y-93810877D01*
X143388835Y-93816526D01*
X143378778Y-93817588D01*
X143358732Y-93819185D01*
X143333512Y-93820438D01*
X143304439Y-93821348D01*
X143272833Y-93821913D01*
X143240014Y-93822134D01*
X143207303Y-93822011D01*
X143176020Y-93821543D01*
X143147485Y-93820730D01*
X143123019Y-93819572D01*
X143103941Y-93818069D01*
X143100083Y-93817629D01*
X143029587Y-93806359D01*
X142964668Y-93790777D01*
X142905314Y-93770875D01*
X142851511Y-93746642D01*
X142803246Y-93718071D01*
X142760506Y-93685152D01*
X142723275Y-93647875D01*
X142691542Y-93606233D01*
X142665292Y-93560216D01*
X142645814Y-93513556D01*
X142636564Y-93485336D01*
X142629950Y-93459790D01*
X142625611Y-93434670D01*
X142623189Y-93407726D01*
X142622323Y-93376710D01*
X142622311Y-93366690D01*
X142622506Y-93309783D01*
X142599541Y-93307430D01*
X142576577Y-93305078D01*
X142526819Y-93339010D01*
X142527261Y-93388359D01*
X142531246Y-93446590D01*
X142542027Y-93503341D01*
X142559427Y-93558195D01*
X142583267Y-93610732D01*
X142613369Y-93660536D01*
X142649554Y-93707188D01*
X142674774Y-93734155D01*
X142715410Y-93771000D01*
X142759140Y-93803371D01*
X142806472Y-93831491D01*
X142857911Y-93855584D01*
X142913966Y-93875873D01*
X142975143Y-93892584D01*
X143041948Y-93905938D01*
X143075389Y-93911113D01*
X143096455Y-93913389D01*
X143123303Y-93915185D01*
X143154675Y-93916500D01*
X143189315Y-93917334D01*
X143225966Y-93917688D01*
X143263369Y-93917562D01*
X143300269Y-93916956D01*
X143335407Y-93915870D01*
X143367526Y-93914303D01*
X143395370Y-93912257D01*
X143407000Y-93911088D01*
X143521247Y-93895915D01*
X143636379Y-93876055D01*
X143751524Y-93851770D01*
X143865809Y-93823321D01*
X143978359Y-93790969D01*
X144088303Y-93754975D01*
X144194766Y-93715600D01*
X144296876Y-93673106D01*
X144393760Y-93627754D01*
X144448608Y-93599498D01*
X144531718Y-93552751D01*
X144610658Y-93503631D01*
X144684981Y-93452487D01*
X144754241Y-93399668D01*
X144817993Y-93345522D01*
X144875791Y-93290397D01*
X144927188Y-93234643D01*
X144948880Y-93208480D01*
X144963589Y-93190572D01*
X144974647Y-93178259D01*
X144982321Y-93171267D01*
X144986878Y-93169322D01*
X144987106Y-93169373D01*
X145001682Y-93173012D01*
X145022129Y-93177139D01*
X145047296Y-93181588D01*
X145076029Y-93186193D01*
X145107174Y-93190787D01*
X145139579Y-93195204D01*
X145172091Y-93199276D01*
X145203556Y-93202837D01*
X145232821Y-93205720D01*
X145246736Y-93206893D01*
X145276996Y-93208630D01*
X145310509Y-93209311D01*
X145347721Y-93208909D01*
X145389075Y-93207398D01*
X145435017Y-93204750D01*
X145485991Y-93200938D01*
X145542441Y-93195937D01*
X145604812Y-93189719D01*
X145673548Y-93182256D01*
X145694764Y-93179853D01*
X145792696Y-93168039D01*
X145897110Y-93154253D01*
X146007726Y-93138544D01*
X146124267Y-93120962D01*
X146246454Y-93101559D01*
X146374011Y-93080386D01*
X146506657Y-93057492D01*
X146644117Y-93032928D01*
X146786110Y-93006746D01*
X146932360Y-92978995D01*
X147082588Y-92949727D01*
X147236517Y-92918991D01*
X147393867Y-92886840D01*
X147554361Y-92853322D01*
X147717721Y-92818489D01*
X147883669Y-92782392D01*
X147911972Y-92776166D01*
X147943505Y-92769268D01*
X147973573Y-92762787D01*
X148001326Y-92756899D01*
X148025913Y-92751780D01*
X148046484Y-92747607D01*
X148062186Y-92744556D01*
X148072170Y-92742804D01*
X148074250Y-92742520D01*
X148101629Y-92742603D01*
X148130597Y-92748198D01*
X148159337Y-92758640D01*
X148186032Y-92773263D01*
X148208863Y-92791400D01*
X148209577Y-92792097D01*
X148220334Y-92804458D01*
X148233559Y-92822584D01*
X148248873Y-92845782D01*
X148265898Y-92873362D01*
X148284253Y-92904633D01*
X148303562Y-92938902D01*
X148323444Y-92975479D01*
X148343521Y-93013671D01*
X148363415Y-93052789D01*
X148382747Y-93092139D01*
X148401137Y-93131031D01*
X148418208Y-93168774D01*
X148426938Y-93188888D01*
X148454418Y-93257828D01*
X148476295Y-93322753D01*
X148492564Y-93383631D01*
X148503220Y-93440428D01*
X148508258Y-93493112D01*
X148507674Y-93541650D01*
X148501462Y-93586008D01*
X148490303Y-93624355D01*
X148480721Y-93644617D01*
X148467158Y-93666530D01*
X148451359Y-93687628D01*
X148435072Y-93705441D01*
X148429089Y-93710860D01*
X148413700Y-93722771D01*
X148397081Y-93733287D01*
X148378689Y-93742518D01*
X148357978Y-93750574D01*
X148334406Y-93757565D01*
X148307427Y-93763602D01*
X148276498Y-93768794D01*
X148241074Y-93773252D01*
X148200612Y-93777086D01*
X148154567Y-93780405D01*
X148102396Y-93783321D01*
X148061903Y-93785182D01*
X148042132Y-93785961D01*
X148016304Y-93786876D01*
X147985416Y-93787897D01*
X147950464Y-93788994D01*
X147912446Y-93790137D01*
X147872357Y-93791294D01*
X147831195Y-93792437D01*
X147789956Y-93793534D01*
X147769097Y-93794070D01*
X147663132Y-93796865D01*
X147563623Y-93799728D01*
X147469971Y-93802688D01*
X147381576Y-93805774D01*
X147297840Y-93809016D01*
X147218162Y-93812444D01*
X147141944Y-93816086D01*
X147068587Y-93819972D01*
X146997491Y-93824132D01*
X146928056Y-93828595D01*
X146859683Y-93833390D01*
X146791774Y-93838548D01*
X146723729Y-93844096D01*
X146687833Y-93847168D01*
X146535425Y-93861484D01*
X146388916Y-93877501D01*
X146247314Y-93895426D01*
X146109629Y-93915462D01*
X145974869Y-93937813D01*
X145842042Y-93962686D01*
X145710156Y-93990283D01*
X145578221Y-94020811D01*
X145445244Y-94054473D01*
X145310234Y-94091474D01*
X145172199Y-94132018D01*
X145030149Y-94176311D01*
X144922181Y-94211516D01*
X144865529Y-94230415D01*
X144813101Y-94248181D01*
X144764324Y-94265079D01*
X144718627Y-94281377D01*
X144675437Y-94297340D01*
X144634184Y-94313235D01*
X144594295Y-94329327D01*
X144555199Y-94345884D01*
X144516325Y-94363170D01*
X144477099Y-94381452D01*
X144436952Y-94400997D01*
X144395310Y-94422071D01*
X144351602Y-94444939D01*
X144305257Y-94469869D01*
X144255703Y-94497125D01*
X144202368Y-94526975D01*
X144144680Y-94559684D01*
X144082068Y-94595519D01*
X144017306Y-94632815D01*
X143967113Y-94661743D01*
X143922343Y-94687450D01*
X143882339Y-94710298D01*
X143846445Y-94730648D01*
X143814006Y-94748863D01*
X143784365Y-94765303D01*
X143756866Y-94780330D01*
X143730853Y-94794307D01*
X143705670Y-94807594D01*
X143680662Y-94820554D01*
X143655172Y-94833549D01*
X143632778Y-94844820D01*
X143567461Y-94876741D01*
X143506674Y-94904702D01*
X143449369Y-94929064D01*
X143394501Y-94950188D01*
X143341022Y-94968436D01*
X143287885Y-94984169D01*
X143234043Y-94997748D01*
X143178449Y-95009537D01*
X143130975Y-95018094D01*
X143071699Y-95027475D01*
X143017114Y-95034849D01*
X142965196Y-95040377D01*
X142913926Y-95044223D01*
X142861279Y-95046550D01*
X142805234Y-95047522D01*
X142766708Y-95047509D01*
X142740120Y-95047309D01*
X142715076Y-95047051D01*
X142692670Y-95046751D01*
X142673997Y-95046426D01*
X142660149Y-95046092D01*
X142652223Y-95045767D01*
X142652056Y-95045755D01*
X142561009Y-95036740D01*
X142471200Y-95023096D01*
X142383485Y-95005042D01*
X142298718Y-94982798D01*
X142217756Y-94956583D01*
X142141455Y-94926619D01*
X142083791Y-94899817D01*
X141997957Y-94852919D01*
X141914330Y-94799377D01*
X141832988Y-94739273D01*
X141754006Y-94672690D01*
X141677461Y-94599708D01*
X141603429Y-94520411D01*
X141531985Y-94434879D01*
X141463207Y-94343196D01*
X141397171Y-94245442D01*
X141333952Y-94141701D01*
X141273627Y-94032053D01*
X141269300Y-94023746D01*
X141232293Y-93948734D01*
X141197779Y-93870989D01*
X141165400Y-93789580D01*
X141134798Y-93703574D01*
X141105612Y-93612039D01*
X141089110Y-93555758D01*
X141081543Y-93529169D01*
X140835806Y-93430044D01*
X140796329Y-93414069D01*
X140758813Y-93398791D01*
X140723766Y-93384422D01*
X140691694Y-93371173D01*
X140663102Y-93359257D01*
X140638498Y-93348887D01*
X140618388Y-93340274D01*
X140603278Y-93333630D01*
X140593674Y-93329168D01*
X140590083Y-93327101D01*
X140590069Y-93327055D01*
X140592644Y-93324178D01*
X140600115Y-93316965D01*
X140612098Y-93305762D01*
X140628213Y-93290917D01*
X140648078Y-93272776D01*
X140671310Y-93251686D01*
X140697529Y-93227994D01*
X140726351Y-93202048D01*
X140757395Y-93174193D01*
X140790280Y-93144778D01*
X140815847Y-93121966D01*
X141041625Y-92920741D01*
X141056003Y-92881022D01*
X141084338Y-92810948D01*
X141117586Y-92744045D01*
X141156152Y-92679707D01*
X141200445Y-92617324D01*
X141250870Y-92556287D01*
X141307835Y-92495990D01*
X141324224Y-92479917D01*
X141391538Y-92419739D01*
X141464130Y-92364059D01*
X141541734Y-92313010D01*
X141624086Y-92266722D01*
X141710921Y-92225330D01*
X141801974Y-92188964D01*
X141896979Y-92157758D01*
X141995671Y-92131842D01*
X142041750Y-92121834D01*
X142086147Y-92113197D01*
X142125869Y-92106427D01*
X142162979Y-92101295D01*
X142199540Y-92097572D01*
X142237614Y-92095029D01*
X142279265Y-92093439D01*
X142302806Y-92092916D01*
X142349574Y-92092493D01*
X142391031Y-92093103D01*
X142391031Y-92093103D01*
G37*
X142391031Y-92093103D02*
X142428866Y-92094878D01*
X142464763Y-92097950D01*
X142500412Y-92102451D01*
X142537499Y-92108512D01*
X142562537Y-92113226D01*
X142599505Y-92120873D01*
X142634770Y-92129056D01*
X142669378Y-92138108D01*
X142704376Y-92148364D01*
X142740809Y-92160156D01*
X142779722Y-92173818D01*
X142822161Y-92189684D01*
X142869173Y-92208088D01*
X142904737Y-92222406D01*
X142951958Y-92241805D01*
X142999898Y-92261943D01*
X143048959Y-92283011D01*
X143099547Y-92305199D01*
X143152066Y-92328695D01*
X143206921Y-92353689D01*
X143264514Y-92380372D01*
X143325251Y-92408932D01*
X143389536Y-92439559D01*
X143457773Y-92472442D01*
X143530365Y-92507772D01*
X143607719Y-92545737D01*
X143690236Y-92586528D01*
X143778323Y-92630333D01*
X143836085Y-92659177D01*
X143917799Y-92699964D01*
X143993732Y-92737698D01*
X144064358Y-92772596D01*
X144130149Y-92804875D01*
X144191577Y-92834752D01*
X144249115Y-92862444D01*
X144303235Y-92888167D01*
X144354409Y-92912138D01*
X144403111Y-92934575D01*
X144449811Y-92955695D01*
X144494982Y-92975714D01*
X144539097Y-92994848D01*
X144582629Y-93013316D01*
X144626049Y-93031334D01*
X144669829Y-93049119D01*
X144714443Y-93066888D01*
X144760363Y-93084857D01*
X144777542Y-93091509D01*
X144801524Y-93100793D01*
X144823788Y-93109455D01*
X144843348Y-93117109D01*
X144859219Y-93123366D01*
X144870414Y-93127840D01*
X144875784Y-93130070D01*
X144885832Y-93134573D01*
X144870698Y-93153849D01*
X144858889Y-93167902D01*
X144842920Y-93185482D01*
X144823921Y-93205449D01*
X144803023Y-93226663D01*
X144781357Y-93247986D01*
X144760055Y-93268277D01*
X144740246Y-93286397D01*
X144731681Y-93293920D01*
X144656102Y-93355039D01*
X144574352Y-93413238D01*
X144486747Y-93468375D01*
X144393601Y-93520306D01*
X144295231Y-93568886D01*
X144191952Y-93613973D01*
X144084079Y-93655422D01*
X143971928Y-93693091D01*
X143855814Y-93726835D01*
X143736054Y-93756510D01*
X143696278Y-93765281D01*
X143637253Y-93777567D01*
X143583414Y-93788013D01*
X143533205Y-93796877D01*
X143485074Y-93804413D01*
X143437469Y-93810877D01*
X143388835Y-93816526D01*
X143378778Y-93817588D01*
X143358732Y-93819185D01*
X143333512Y-93820438D01*
X143304439Y-93821348D01*
X143272833Y-93821913D01*
X143240014Y-93822134D01*
X143207303Y-93822011D01*
X143176020Y-93821543D01*
X143147485Y-93820730D01*
X143123019Y-93819572D01*
X143103941Y-93818069D01*
X143100083Y-93817629D01*
X143029587Y-93806359D01*
X142964668Y-93790777D01*
X142905314Y-93770875D01*
X142851511Y-93746642D01*
X142803246Y-93718071D01*
X142760506Y-93685152D01*
X142723275Y-93647875D01*
X142691542Y-93606233D01*
X142665292Y-93560216D01*
X142645814Y-93513556D01*
X142636564Y-93485336D01*
X142629950Y-93459790D01*
X142625611Y-93434670D01*
X142623189Y-93407726D01*
X142622323Y-93376710D01*
X142622311Y-93366690D01*
X142622506Y-93309783D01*
X142599541Y-93307430D01*
X142576577Y-93305078D01*
X142526819Y-93339010D01*
X142527261Y-93388359D01*
X142531246Y-93446590D01*
X142542027Y-93503341D01*
X142559427Y-93558195D01*
X142583267Y-93610732D01*
X142613369Y-93660536D01*
X142649554Y-93707188D01*
X142674774Y-93734155D01*
X142715410Y-93771000D01*
X142759140Y-93803371D01*
X142806472Y-93831491D01*
X142857911Y-93855584D01*
X142913966Y-93875873D01*
X142975143Y-93892584D01*
X143041948Y-93905938D01*
X143075389Y-93911113D01*
X143096455Y-93913389D01*
X143123303Y-93915185D01*
X143154675Y-93916500D01*
X143189315Y-93917334D01*
X143225966Y-93917688D01*
X143263369Y-93917562D01*
X143300269Y-93916956D01*
X143335407Y-93915870D01*
X143367526Y-93914303D01*
X143395370Y-93912257D01*
X143407000Y-93911088D01*
X143521247Y-93895915D01*
X143636379Y-93876055D01*
X143751524Y-93851770D01*
X143865809Y-93823321D01*
X143978359Y-93790969D01*
X144088303Y-93754975D01*
X144194766Y-93715600D01*
X144296876Y-93673106D01*
X144393760Y-93627754D01*
X144448608Y-93599498D01*
X144531718Y-93552751D01*
X144610658Y-93503631D01*
X144684981Y-93452487D01*
X144754241Y-93399668D01*
X144817993Y-93345522D01*
X144875791Y-93290397D01*
X144927188Y-93234643D01*
X144948880Y-93208480D01*
X144963589Y-93190572D01*
X144974647Y-93178259D01*
X144982321Y-93171267D01*
X144986878Y-93169322D01*
X144987106Y-93169373D01*
X145001682Y-93173012D01*
X145022129Y-93177139D01*
X145047296Y-93181588D01*
X145076029Y-93186193D01*
X145107174Y-93190787D01*
X145139579Y-93195204D01*
X145172091Y-93199276D01*
X145203556Y-93202837D01*
X145232821Y-93205720D01*
X145246736Y-93206893D01*
X145276996Y-93208630D01*
X145310509Y-93209311D01*
X145347721Y-93208909D01*
X145389075Y-93207398D01*
X145435017Y-93204750D01*
X145485991Y-93200938D01*
X145542441Y-93195937D01*
X145604812Y-93189719D01*
X145673548Y-93182256D01*
X145694764Y-93179853D01*
X145792696Y-93168039D01*
X145897110Y-93154253D01*
X146007726Y-93138544D01*
X146124267Y-93120962D01*
X146246454Y-93101559D01*
X146374011Y-93080386D01*
X146506657Y-93057492D01*
X146644117Y-93032928D01*
X146786110Y-93006746D01*
X146932360Y-92978995D01*
X147082588Y-92949727D01*
X147236517Y-92918991D01*
X147393867Y-92886840D01*
X147554361Y-92853322D01*
X147717721Y-92818489D01*
X147883669Y-92782392D01*
X147911972Y-92776166D01*
X147943505Y-92769268D01*
X147973573Y-92762787D01*
X148001326Y-92756899D01*
X148025913Y-92751780D01*
X148046484Y-92747607D01*
X148062186Y-92744556D01*
X148072170Y-92742804D01*
X148074250Y-92742520D01*
X148101629Y-92742603D01*
X148130597Y-92748198D01*
X148159337Y-92758640D01*
X148186032Y-92773263D01*
X148208863Y-92791400D01*
X148209577Y-92792097D01*
X148220334Y-92804458D01*
X148233559Y-92822584D01*
X148248873Y-92845782D01*
X148265898Y-92873362D01*
X148284253Y-92904633D01*
X148303562Y-92938902D01*
X148323444Y-92975479D01*
X148343521Y-93013671D01*
X148363415Y-93052789D01*
X148382747Y-93092139D01*
X148401137Y-93131031D01*
X148418208Y-93168774D01*
X148426938Y-93188888D01*
X148454418Y-93257828D01*
X148476295Y-93322753D01*
X148492564Y-93383631D01*
X148503220Y-93440428D01*
X148508258Y-93493112D01*
X148507674Y-93541650D01*
X148501462Y-93586008D01*
X148490303Y-93624355D01*
X148480721Y-93644617D01*
X148467158Y-93666530D01*
X148451359Y-93687628D01*
X148435072Y-93705441D01*
X148429089Y-93710860D01*
X148413700Y-93722771D01*
X148397081Y-93733287D01*
X148378689Y-93742518D01*
X148357978Y-93750574D01*
X148334406Y-93757565D01*
X148307427Y-93763602D01*
X148276498Y-93768794D01*
X148241074Y-93773252D01*
X148200612Y-93777086D01*
X148154567Y-93780405D01*
X148102396Y-93783321D01*
X148061903Y-93785182D01*
X148042132Y-93785961D01*
X148016304Y-93786876D01*
X147985416Y-93787897D01*
X147950464Y-93788994D01*
X147912446Y-93790137D01*
X147872357Y-93791294D01*
X147831195Y-93792437D01*
X147789956Y-93793534D01*
X147769097Y-93794070D01*
X147663132Y-93796865D01*
X147563623Y-93799728D01*
X147469971Y-93802688D01*
X147381576Y-93805774D01*
X147297840Y-93809016D01*
X147218162Y-93812444D01*
X147141944Y-93816086D01*
X147068587Y-93819972D01*
X146997491Y-93824132D01*
X146928056Y-93828595D01*
X146859683Y-93833390D01*
X146791774Y-93838548D01*
X146723729Y-93844096D01*
X146687833Y-93847168D01*
X146535425Y-93861484D01*
X146388916Y-93877501D01*
X146247314Y-93895426D01*
X146109629Y-93915462D01*
X145974869Y-93937813D01*
X145842042Y-93962686D01*
X145710156Y-93990283D01*
X145578221Y-94020811D01*
X145445244Y-94054473D01*
X145310234Y-94091474D01*
X145172199Y-94132018D01*
X145030149Y-94176311D01*
X144922181Y-94211516D01*
X144865529Y-94230415D01*
X144813101Y-94248181D01*
X144764324Y-94265079D01*
X144718627Y-94281377D01*
X144675437Y-94297340D01*
X144634184Y-94313235D01*
X144594295Y-94329327D01*
X144555199Y-94345884D01*
X144516325Y-94363170D01*
X144477099Y-94381452D01*
X144436952Y-94400997D01*
X144395310Y-94422071D01*
X144351602Y-94444939D01*
X144305257Y-94469869D01*
X144255703Y-94497125D01*
X144202368Y-94526975D01*
X144144680Y-94559684D01*
X144082068Y-94595519D01*
X144017306Y-94632815D01*
X143967113Y-94661743D01*
X143922343Y-94687450D01*
X143882339Y-94710298D01*
X143846445Y-94730648D01*
X143814006Y-94748863D01*
X143784365Y-94765303D01*
X143756866Y-94780330D01*
X143730853Y-94794307D01*
X143705670Y-94807594D01*
X143680662Y-94820554D01*
X143655172Y-94833549D01*
X143632778Y-94844820D01*
X143567461Y-94876741D01*
X143506674Y-94904702D01*
X143449369Y-94929064D01*
X143394501Y-94950188D01*
X143341022Y-94968436D01*
X143287885Y-94984169D01*
X143234043Y-94997748D01*
X143178449Y-95009537D01*
X143130975Y-95018094D01*
X143071699Y-95027475D01*
X143017114Y-95034849D01*
X142965196Y-95040377D01*
X142913926Y-95044223D01*
X142861279Y-95046550D01*
X142805234Y-95047522D01*
X142766708Y-95047509D01*
X142740120Y-95047309D01*
X142715076Y-95047051D01*
X142692670Y-95046751D01*
X142673997Y-95046426D01*
X142660149Y-95046092D01*
X142652223Y-95045767D01*
X142652056Y-95045755D01*
X142561009Y-95036740D01*
X142471200Y-95023096D01*
X142383485Y-95005042D01*
X142298718Y-94982798D01*
X142217756Y-94956583D01*
X142141455Y-94926619D01*
X142083791Y-94899817D01*
X141997957Y-94852919D01*
X141914330Y-94799377D01*
X141832988Y-94739273D01*
X141754006Y-94672690D01*
X141677461Y-94599708D01*
X141603429Y-94520411D01*
X141531985Y-94434879D01*
X141463207Y-94343196D01*
X141397171Y-94245442D01*
X141333952Y-94141701D01*
X141273627Y-94032053D01*
X141269300Y-94023746D01*
X141232293Y-93948734D01*
X141197779Y-93870989D01*
X141165400Y-93789580D01*
X141134798Y-93703574D01*
X141105612Y-93612039D01*
X141089110Y-93555758D01*
X141081543Y-93529169D01*
X140835806Y-93430044D01*
X140796329Y-93414069D01*
X140758813Y-93398791D01*
X140723766Y-93384422D01*
X140691694Y-93371173D01*
X140663102Y-93359257D01*
X140638498Y-93348887D01*
X140618388Y-93340274D01*
X140603278Y-93333630D01*
X140593674Y-93329168D01*
X140590083Y-93327101D01*
X140590069Y-93327055D01*
X140592644Y-93324178D01*
X140600115Y-93316965D01*
X140612098Y-93305762D01*
X140628213Y-93290917D01*
X140648078Y-93272776D01*
X140671310Y-93251686D01*
X140697529Y-93227994D01*
X140726351Y-93202048D01*
X140757395Y-93174193D01*
X140790280Y-93144778D01*
X140815847Y-93121966D01*
X141041625Y-92920741D01*
X141056003Y-92881022D01*
X141084338Y-92810948D01*
X141117586Y-92744045D01*
X141156152Y-92679707D01*
X141200445Y-92617324D01*
X141250870Y-92556287D01*
X141307835Y-92495990D01*
X141324224Y-92479917D01*
X141391538Y-92419739D01*
X141464130Y-92364059D01*
X141541734Y-92313010D01*
X141624086Y-92266722D01*
X141710921Y-92225330D01*
X141801974Y-92188964D01*
X141896979Y-92157758D01*
X141995671Y-92131842D01*
X142041750Y-92121834D01*
X142086147Y-92113197D01*
X142125869Y-92106427D01*
X142162979Y-92101295D01*
X142199540Y-92097572D01*
X142237614Y-92095029D01*
X142279265Y-92093439D01*
X142302806Y-92092916D01*
X142349574Y-92092493D01*
X142391031Y-92093103D01*
D12*
X161190000Y-100200000D03*
X161190000Y-100600000D03*
X161190000Y-101000000D03*
X161190000Y-101400000D03*
X161190000Y-101800000D03*
X161190000Y-102200000D03*
X161190000Y-102600000D03*
X161190000Y-103000000D03*
X161190000Y-103400000D03*
X161190000Y-103800000D03*
X161190000Y-107800000D03*
X161190000Y-107400000D03*
X161190000Y-107000000D03*
X161190000Y-106600000D03*
X161190000Y-106200000D03*
X161190000Y-105800000D03*
X161190000Y-105400000D03*
X161190000Y-105000000D03*
X161190000Y-104600000D03*
X161190000Y-104200000D03*
X161190000Y-108200000D03*
X161190000Y-108600000D03*
X161190000Y-109000000D03*
X161190000Y-109400000D03*
X161190000Y-109800000D03*
X161190000Y-110200000D03*
X161190000Y-110600000D03*
X161190000Y-111000000D03*
X161190000Y-111400000D03*
X161190000Y-111800000D03*
X161190000Y-115800000D03*
X161190000Y-115400000D03*
X161190000Y-115000000D03*
X161190000Y-114600000D03*
X161190000Y-114200000D03*
X161190000Y-113800000D03*
X161190000Y-113400000D03*
X161190000Y-113000000D03*
X161190000Y-112600000D03*
X161190000Y-112200000D03*
X158110000Y-112200000D03*
X158110000Y-112600000D03*
X158110000Y-113000000D03*
X158110000Y-113400000D03*
X158110000Y-113800000D03*
X158110000Y-114200000D03*
X158110000Y-114600000D03*
X158110000Y-115000000D03*
X158110000Y-115400000D03*
X158110000Y-115800000D03*
X158110000Y-111800000D03*
X158110000Y-111400000D03*
X158110000Y-111000000D03*
X158110000Y-110600000D03*
X158110000Y-110200000D03*
X158110000Y-109800000D03*
X158110000Y-109400000D03*
X158110000Y-109000000D03*
X158110000Y-108600000D03*
X158110000Y-108200000D03*
X158110000Y-104200000D03*
X158110000Y-104600000D03*
X158110000Y-105000000D03*
X158110000Y-105400000D03*
X158110000Y-105800000D03*
X158110000Y-106200000D03*
X158110000Y-106600000D03*
X158110000Y-107000000D03*
X158110000Y-107400000D03*
X158110000Y-107800000D03*
X158110000Y-103800000D03*
X158110000Y-103400000D03*
X158110000Y-103000000D03*
X158110000Y-102600000D03*
X158110000Y-102200000D03*
X158110000Y-101800000D03*
X158110000Y-101400000D03*
X158110000Y-101000000D03*
X158110000Y-100600000D03*
X158110000Y-100200000D03*
D13*
X158461920Y-94250000D03*
X158461920Y-93599760D03*
X158461920Y-92949520D03*
X155800000Y-92949520D03*
X155800000Y-93599760D03*
X155800000Y-94250000D03*
X164300000Y-98250000D03*
X164300000Y-97599760D03*
X164300000Y-96949520D03*
X161638080Y-96949520D03*
X161638080Y-97599760D03*
X161638080Y-98250000D03*
X158611920Y-96700000D03*
X158611920Y-96049760D03*
X158611920Y-95399520D03*
X155950000Y-95399520D03*
X155950000Y-96049760D03*
X155950000Y-96700000D03*
D14*
X134500000Y-116500000D03*
D15*
X134500000Y-113960000D03*
X134500000Y-111420000D03*
X134500000Y-108880000D03*
X134500000Y-106340000D03*
X134500000Y-103800000D03*
X134500000Y-101260000D03*
X134500000Y-98720000D03*
M02*
