G04 #@! TF.FileFunction,Soldermask,Bot*
%FSLAX46Y46*%
G04 Gerber Fmt 4.6, Leading zero omitted, Abs format (unit mm)*
G04 Created by KiCad (PCBNEW (2015-11-03 BZR 6296)-product) date Tuesday, November 10, 2015 'PMt' 04:38:30 PM*
%MOMM*%
G01*
G04 APERTURE LIST*
%ADD10C,0.100000*%
%ADD11C,0.010000*%
%ADD12R,1.060000X0.630000*%
%ADD13R,1.060000X0.750000*%
%ADD14R,1.600000X1.150000*%
%ADD15R,1.150000X0.700000*%
%ADD16R,1.275000X1.125000*%
%ADD17R,1.600000X1.300000*%
%ADD18C,1.924000*%
%ADD19R,2.432000X2.127200*%
%ADD20O,2.432000X2.127200*%
G04 APERTURE END LIST*
D10*
D11*
G36*
X147158969Y-92053103D02*
X147121134Y-92054878D01*
X147085237Y-92057950D01*
X147049588Y-92062451D01*
X147012501Y-92068512D01*
X146987463Y-92073226D01*
X146950495Y-92080873D01*
X146915230Y-92089056D01*
X146880622Y-92098108D01*
X146845624Y-92108364D01*
X146809191Y-92120156D01*
X146770278Y-92133818D01*
X146727839Y-92149684D01*
X146680827Y-92168088D01*
X146645263Y-92182406D01*
X146598042Y-92201805D01*
X146550102Y-92221943D01*
X146501041Y-92243011D01*
X146450453Y-92265199D01*
X146397934Y-92288695D01*
X146343079Y-92313689D01*
X146285486Y-92340372D01*
X146224749Y-92368932D01*
X146160464Y-92399559D01*
X146092227Y-92432442D01*
X146019635Y-92467772D01*
X145942281Y-92505737D01*
X145859764Y-92546528D01*
X145771677Y-92590333D01*
X145713915Y-92619177D01*
X145632201Y-92659964D01*
X145556268Y-92697698D01*
X145485642Y-92732596D01*
X145419851Y-92764875D01*
X145358423Y-92794752D01*
X145300885Y-92822444D01*
X145246765Y-92848167D01*
X145195591Y-92872138D01*
X145146889Y-92894575D01*
X145100189Y-92915695D01*
X145055018Y-92935714D01*
X145010903Y-92954848D01*
X144967371Y-92973316D01*
X144923951Y-92991334D01*
X144880171Y-93009119D01*
X144835557Y-93026888D01*
X144789637Y-93044857D01*
X144772458Y-93051509D01*
X144748476Y-93060793D01*
X144726212Y-93069455D01*
X144706652Y-93077109D01*
X144690781Y-93083366D01*
X144679586Y-93087840D01*
X144674216Y-93090070D01*
X144664168Y-93094573D01*
X144679302Y-93113849D01*
X144691111Y-93127902D01*
X144707080Y-93145482D01*
X144726079Y-93165449D01*
X144746977Y-93186663D01*
X144768643Y-93207986D01*
X144789945Y-93228277D01*
X144809754Y-93246397D01*
X144818319Y-93253920D01*
X144893898Y-93315039D01*
X144975648Y-93373238D01*
X145063253Y-93428375D01*
X145156399Y-93480306D01*
X145254769Y-93528886D01*
X145358048Y-93573973D01*
X145465921Y-93615422D01*
X145578072Y-93653091D01*
X145694186Y-93686835D01*
X145813946Y-93716510D01*
X145853722Y-93725281D01*
X145912747Y-93737567D01*
X145966586Y-93748013D01*
X146016795Y-93756877D01*
X146064926Y-93764413D01*
X146112531Y-93770877D01*
X146161165Y-93776526D01*
X146171222Y-93777588D01*
X146191268Y-93779185D01*
X146216488Y-93780438D01*
X146245561Y-93781348D01*
X146277167Y-93781913D01*
X146309986Y-93782134D01*
X146342697Y-93782011D01*
X146373980Y-93781543D01*
X146402515Y-93780730D01*
X146426981Y-93779572D01*
X146446059Y-93778069D01*
X146449917Y-93777629D01*
X146520413Y-93766359D01*
X146585332Y-93750777D01*
X146644686Y-93730875D01*
X146698489Y-93706642D01*
X146746754Y-93678071D01*
X146789494Y-93645152D01*
X146826725Y-93607875D01*
X146858458Y-93566233D01*
X146884708Y-93520216D01*
X146904186Y-93473556D01*
X146913436Y-93445336D01*
X146920050Y-93419790D01*
X146924389Y-93394670D01*
X146926811Y-93367726D01*
X146927677Y-93336710D01*
X146927689Y-93326690D01*
X146927494Y-93269783D01*
X146950459Y-93267430D01*
X146973423Y-93265078D01*
X147023181Y-93299010D01*
X147022739Y-93348359D01*
X147018754Y-93406590D01*
X147007973Y-93463341D01*
X146990573Y-93518195D01*
X146966733Y-93570732D01*
X146936631Y-93620536D01*
X146900446Y-93667188D01*
X146875226Y-93694155D01*
X146834590Y-93731000D01*
X146790860Y-93763371D01*
X146743528Y-93791491D01*
X146692089Y-93815584D01*
X146636034Y-93835873D01*
X146574857Y-93852584D01*
X146508052Y-93865938D01*
X146474611Y-93871113D01*
X146453545Y-93873389D01*
X146426697Y-93875185D01*
X146395325Y-93876500D01*
X146360685Y-93877334D01*
X146324034Y-93877688D01*
X146286631Y-93877562D01*
X146249731Y-93876956D01*
X146214593Y-93875870D01*
X146182474Y-93874303D01*
X146154630Y-93872257D01*
X146143000Y-93871088D01*
X146028753Y-93855915D01*
X145913621Y-93836055D01*
X145798476Y-93811770D01*
X145684191Y-93783321D01*
X145571641Y-93750969D01*
X145461697Y-93714975D01*
X145355234Y-93675600D01*
X145253124Y-93633106D01*
X145156240Y-93587754D01*
X145101392Y-93559498D01*
X145018282Y-93512751D01*
X144939342Y-93463631D01*
X144865019Y-93412487D01*
X144795759Y-93359668D01*
X144732007Y-93305522D01*
X144674209Y-93250397D01*
X144622812Y-93194643D01*
X144601120Y-93168480D01*
X144586411Y-93150572D01*
X144575353Y-93138259D01*
X144567679Y-93131267D01*
X144563122Y-93129322D01*
X144562894Y-93129373D01*
X144548318Y-93133012D01*
X144527871Y-93137139D01*
X144502704Y-93141588D01*
X144473971Y-93146193D01*
X144442826Y-93150787D01*
X144410421Y-93155204D01*
X144377909Y-93159276D01*
X144346444Y-93162837D01*
X144317179Y-93165720D01*
X144303264Y-93166893D01*
X144273004Y-93168630D01*
X144239491Y-93169311D01*
X144202279Y-93168909D01*
X144160925Y-93167398D01*
X144114983Y-93164750D01*
X144064009Y-93160938D01*
X144007559Y-93155937D01*
X143945188Y-93149719D01*
X143876452Y-93142256D01*
X143855236Y-93139853D01*
X143757304Y-93128039D01*
X143652890Y-93114253D01*
X143542274Y-93098544D01*
X143425733Y-93080962D01*
X143303546Y-93061559D01*
X143175989Y-93040386D01*
X143043343Y-93017492D01*
X142905883Y-92992928D01*
X142763890Y-92966746D01*
X142617640Y-92938995D01*
X142467412Y-92909727D01*
X142313483Y-92878991D01*
X142156133Y-92846840D01*
X141995639Y-92813322D01*
X141832279Y-92778489D01*
X141666331Y-92742392D01*
X141638028Y-92736166D01*
X141606495Y-92729268D01*
X141576427Y-92722787D01*
X141548674Y-92716899D01*
X141524087Y-92711780D01*
X141503516Y-92707607D01*
X141487814Y-92704556D01*
X141477830Y-92702804D01*
X141475750Y-92702520D01*
X141448371Y-92702603D01*
X141419403Y-92708198D01*
X141390663Y-92718640D01*
X141363968Y-92733263D01*
X141341137Y-92751400D01*
X141340423Y-92752097D01*
X141329666Y-92764458D01*
X141316441Y-92782584D01*
X141301127Y-92805782D01*
X141284102Y-92833362D01*
X141265747Y-92864633D01*
X141246438Y-92898902D01*
X141226556Y-92935479D01*
X141206479Y-92973671D01*
X141186585Y-93012789D01*
X141167253Y-93052139D01*
X141148863Y-93091031D01*
X141131792Y-93128774D01*
X141123062Y-93148888D01*
X141095582Y-93217828D01*
X141073705Y-93282753D01*
X141057436Y-93343631D01*
X141046780Y-93400428D01*
X141041742Y-93453112D01*
X141042326Y-93501650D01*
X141048538Y-93546008D01*
X141059697Y-93584355D01*
X141069279Y-93604617D01*
X141082842Y-93626530D01*
X141098641Y-93647628D01*
X141114928Y-93665441D01*
X141120911Y-93670860D01*
X141136300Y-93682771D01*
X141152919Y-93693287D01*
X141171311Y-93702518D01*
X141192022Y-93710574D01*
X141215594Y-93717565D01*
X141242573Y-93723602D01*
X141273502Y-93728794D01*
X141308926Y-93733252D01*
X141349388Y-93737086D01*
X141395433Y-93740405D01*
X141447604Y-93743321D01*
X141488097Y-93745182D01*
X141507868Y-93745961D01*
X141533696Y-93746876D01*
X141564584Y-93747897D01*
X141599536Y-93748994D01*
X141637554Y-93750137D01*
X141677643Y-93751294D01*
X141718805Y-93752437D01*
X141760044Y-93753534D01*
X141780903Y-93754070D01*
X141886868Y-93756865D01*
X141986377Y-93759728D01*
X142080029Y-93762688D01*
X142168424Y-93765774D01*
X142252160Y-93769016D01*
X142331838Y-93772444D01*
X142408056Y-93776086D01*
X142481413Y-93779972D01*
X142552509Y-93784132D01*
X142621944Y-93788595D01*
X142690317Y-93793390D01*
X142758226Y-93798548D01*
X142826271Y-93804096D01*
X142862167Y-93807168D01*
X143014575Y-93821484D01*
X143161084Y-93837501D01*
X143302686Y-93855426D01*
X143440371Y-93875462D01*
X143575131Y-93897813D01*
X143707958Y-93922686D01*
X143839844Y-93950283D01*
X143971779Y-93980811D01*
X144104756Y-94014473D01*
X144239766Y-94051474D01*
X144377801Y-94092018D01*
X144519851Y-94136311D01*
X144627819Y-94171516D01*
X144684471Y-94190415D01*
X144736899Y-94208181D01*
X144785676Y-94225079D01*
X144831373Y-94241377D01*
X144874563Y-94257340D01*
X144915816Y-94273235D01*
X144955705Y-94289327D01*
X144994801Y-94305884D01*
X145033675Y-94323170D01*
X145072901Y-94341452D01*
X145113048Y-94360997D01*
X145154690Y-94382071D01*
X145198398Y-94404939D01*
X145244743Y-94429869D01*
X145294297Y-94457125D01*
X145347632Y-94486975D01*
X145405320Y-94519684D01*
X145467932Y-94555519D01*
X145532694Y-94592815D01*
X145582887Y-94621743D01*
X145627657Y-94647450D01*
X145667661Y-94670298D01*
X145703555Y-94690648D01*
X145735994Y-94708863D01*
X145765635Y-94725303D01*
X145793134Y-94740330D01*
X145819147Y-94754307D01*
X145844330Y-94767594D01*
X145869338Y-94780554D01*
X145894828Y-94793549D01*
X145917222Y-94804820D01*
X145982539Y-94836741D01*
X146043326Y-94864702D01*
X146100631Y-94889064D01*
X146155499Y-94910188D01*
X146208978Y-94928436D01*
X146262115Y-94944169D01*
X146315957Y-94957748D01*
X146371551Y-94969537D01*
X146419025Y-94978094D01*
X146478301Y-94987475D01*
X146532886Y-94994849D01*
X146584804Y-95000377D01*
X146636074Y-95004223D01*
X146688721Y-95006550D01*
X146744766Y-95007522D01*
X146783292Y-95007509D01*
X146809880Y-95007309D01*
X146834924Y-95007051D01*
X146857330Y-95006751D01*
X146876003Y-95006426D01*
X146889851Y-95006092D01*
X146897777Y-95005767D01*
X146897944Y-95005755D01*
X146988991Y-94996740D01*
X147078800Y-94983096D01*
X147166515Y-94965042D01*
X147251282Y-94942798D01*
X147332244Y-94916583D01*
X147408545Y-94886619D01*
X147466209Y-94859817D01*
X147552043Y-94812919D01*
X147635670Y-94759377D01*
X147717012Y-94699273D01*
X147795994Y-94632690D01*
X147872539Y-94559708D01*
X147946571Y-94480411D01*
X148018015Y-94394879D01*
X148086793Y-94303196D01*
X148152829Y-94205442D01*
X148216048Y-94101701D01*
X148276373Y-93992053D01*
X148280700Y-93983746D01*
X148317707Y-93908734D01*
X148352221Y-93830989D01*
X148384600Y-93749580D01*
X148415202Y-93663574D01*
X148444388Y-93572039D01*
X148460890Y-93515758D01*
X148468457Y-93489169D01*
X148714194Y-93390044D01*
X148753671Y-93374069D01*
X148791187Y-93358791D01*
X148826234Y-93344422D01*
X148858306Y-93331173D01*
X148886898Y-93319257D01*
X148911502Y-93308887D01*
X148931612Y-93300274D01*
X148946722Y-93293630D01*
X148956326Y-93289168D01*
X148959917Y-93287101D01*
X148959931Y-93287055D01*
X148957356Y-93284178D01*
X148949885Y-93276965D01*
X148937902Y-93265762D01*
X148921787Y-93250917D01*
X148901922Y-93232776D01*
X148878690Y-93211686D01*
X148852471Y-93187994D01*
X148823649Y-93162048D01*
X148792605Y-93134193D01*
X148759720Y-93104778D01*
X148734153Y-93081966D01*
X148508375Y-92880741D01*
X148493997Y-92841022D01*
X148465662Y-92770948D01*
X148432414Y-92704045D01*
X148393848Y-92639707D01*
X148349555Y-92577324D01*
X148299130Y-92516287D01*
X148242165Y-92455990D01*
X148225776Y-92439917D01*
X148158462Y-92379739D01*
X148085870Y-92324059D01*
X148008266Y-92273010D01*
X147925914Y-92226722D01*
X147839079Y-92185330D01*
X147748026Y-92148964D01*
X147653021Y-92117758D01*
X147554329Y-92091842D01*
X147508250Y-92081834D01*
X147463853Y-92073197D01*
X147424131Y-92066427D01*
X147387021Y-92061295D01*
X147350460Y-92057572D01*
X147312386Y-92055029D01*
X147270735Y-92053439D01*
X147247194Y-92052916D01*
X147200426Y-92052493D01*
X147158969Y-92053103D01*
X147158969Y-92053103D01*
G37*
X147158969Y-92053103D02*
X147121134Y-92054878D01*
X147085237Y-92057950D01*
X147049588Y-92062451D01*
X147012501Y-92068512D01*
X146987463Y-92073226D01*
X146950495Y-92080873D01*
X146915230Y-92089056D01*
X146880622Y-92098108D01*
X146845624Y-92108364D01*
X146809191Y-92120156D01*
X146770278Y-92133818D01*
X146727839Y-92149684D01*
X146680827Y-92168088D01*
X146645263Y-92182406D01*
X146598042Y-92201805D01*
X146550102Y-92221943D01*
X146501041Y-92243011D01*
X146450453Y-92265199D01*
X146397934Y-92288695D01*
X146343079Y-92313689D01*
X146285486Y-92340372D01*
X146224749Y-92368932D01*
X146160464Y-92399559D01*
X146092227Y-92432442D01*
X146019635Y-92467772D01*
X145942281Y-92505737D01*
X145859764Y-92546528D01*
X145771677Y-92590333D01*
X145713915Y-92619177D01*
X145632201Y-92659964D01*
X145556268Y-92697698D01*
X145485642Y-92732596D01*
X145419851Y-92764875D01*
X145358423Y-92794752D01*
X145300885Y-92822444D01*
X145246765Y-92848167D01*
X145195591Y-92872138D01*
X145146889Y-92894575D01*
X145100189Y-92915695D01*
X145055018Y-92935714D01*
X145010903Y-92954848D01*
X144967371Y-92973316D01*
X144923951Y-92991334D01*
X144880171Y-93009119D01*
X144835557Y-93026888D01*
X144789637Y-93044857D01*
X144772458Y-93051509D01*
X144748476Y-93060793D01*
X144726212Y-93069455D01*
X144706652Y-93077109D01*
X144690781Y-93083366D01*
X144679586Y-93087840D01*
X144674216Y-93090070D01*
X144664168Y-93094573D01*
X144679302Y-93113849D01*
X144691111Y-93127902D01*
X144707080Y-93145482D01*
X144726079Y-93165449D01*
X144746977Y-93186663D01*
X144768643Y-93207986D01*
X144789945Y-93228277D01*
X144809754Y-93246397D01*
X144818319Y-93253920D01*
X144893898Y-93315039D01*
X144975648Y-93373238D01*
X145063253Y-93428375D01*
X145156399Y-93480306D01*
X145254769Y-93528886D01*
X145358048Y-93573973D01*
X145465921Y-93615422D01*
X145578072Y-93653091D01*
X145694186Y-93686835D01*
X145813946Y-93716510D01*
X145853722Y-93725281D01*
X145912747Y-93737567D01*
X145966586Y-93748013D01*
X146016795Y-93756877D01*
X146064926Y-93764413D01*
X146112531Y-93770877D01*
X146161165Y-93776526D01*
X146171222Y-93777588D01*
X146191268Y-93779185D01*
X146216488Y-93780438D01*
X146245561Y-93781348D01*
X146277167Y-93781913D01*
X146309986Y-93782134D01*
X146342697Y-93782011D01*
X146373980Y-93781543D01*
X146402515Y-93780730D01*
X146426981Y-93779572D01*
X146446059Y-93778069D01*
X146449917Y-93777629D01*
X146520413Y-93766359D01*
X146585332Y-93750777D01*
X146644686Y-93730875D01*
X146698489Y-93706642D01*
X146746754Y-93678071D01*
X146789494Y-93645152D01*
X146826725Y-93607875D01*
X146858458Y-93566233D01*
X146884708Y-93520216D01*
X146904186Y-93473556D01*
X146913436Y-93445336D01*
X146920050Y-93419790D01*
X146924389Y-93394670D01*
X146926811Y-93367726D01*
X146927677Y-93336710D01*
X146927689Y-93326690D01*
X146927494Y-93269783D01*
X146950459Y-93267430D01*
X146973423Y-93265078D01*
X147023181Y-93299010D01*
X147022739Y-93348359D01*
X147018754Y-93406590D01*
X147007973Y-93463341D01*
X146990573Y-93518195D01*
X146966733Y-93570732D01*
X146936631Y-93620536D01*
X146900446Y-93667188D01*
X146875226Y-93694155D01*
X146834590Y-93731000D01*
X146790860Y-93763371D01*
X146743528Y-93791491D01*
X146692089Y-93815584D01*
X146636034Y-93835873D01*
X146574857Y-93852584D01*
X146508052Y-93865938D01*
X146474611Y-93871113D01*
X146453545Y-93873389D01*
X146426697Y-93875185D01*
X146395325Y-93876500D01*
X146360685Y-93877334D01*
X146324034Y-93877688D01*
X146286631Y-93877562D01*
X146249731Y-93876956D01*
X146214593Y-93875870D01*
X146182474Y-93874303D01*
X146154630Y-93872257D01*
X146143000Y-93871088D01*
X146028753Y-93855915D01*
X145913621Y-93836055D01*
X145798476Y-93811770D01*
X145684191Y-93783321D01*
X145571641Y-93750969D01*
X145461697Y-93714975D01*
X145355234Y-93675600D01*
X145253124Y-93633106D01*
X145156240Y-93587754D01*
X145101392Y-93559498D01*
X145018282Y-93512751D01*
X144939342Y-93463631D01*
X144865019Y-93412487D01*
X144795759Y-93359668D01*
X144732007Y-93305522D01*
X144674209Y-93250397D01*
X144622812Y-93194643D01*
X144601120Y-93168480D01*
X144586411Y-93150572D01*
X144575353Y-93138259D01*
X144567679Y-93131267D01*
X144563122Y-93129322D01*
X144562894Y-93129373D01*
X144548318Y-93133012D01*
X144527871Y-93137139D01*
X144502704Y-93141588D01*
X144473971Y-93146193D01*
X144442826Y-93150787D01*
X144410421Y-93155204D01*
X144377909Y-93159276D01*
X144346444Y-93162837D01*
X144317179Y-93165720D01*
X144303264Y-93166893D01*
X144273004Y-93168630D01*
X144239491Y-93169311D01*
X144202279Y-93168909D01*
X144160925Y-93167398D01*
X144114983Y-93164750D01*
X144064009Y-93160938D01*
X144007559Y-93155937D01*
X143945188Y-93149719D01*
X143876452Y-93142256D01*
X143855236Y-93139853D01*
X143757304Y-93128039D01*
X143652890Y-93114253D01*
X143542274Y-93098544D01*
X143425733Y-93080962D01*
X143303546Y-93061559D01*
X143175989Y-93040386D01*
X143043343Y-93017492D01*
X142905883Y-92992928D01*
X142763890Y-92966746D01*
X142617640Y-92938995D01*
X142467412Y-92909727D01*
X142313483Y-92878991D01*
X142156133Y-92846840D01*
X141995639Y-92813322D01*
X141832279Y-92778489D01*
X141666331Y-92742392D01*
X141638028Y-92736166D01*
X141606495Y-92729268D01*
X141576427Y-92722787D01*
X141548674Y-92716899D01*
X141524087Y-92711780D01*
X141503516Y-92707607D01*
X141487814Y-92704556D01*
X141477830Y-92702804D01*
X141475750Y-92702520D01*
X141448371Y-92702603D01*
X141419403Y-92708198D01*
X141390663Y-92718640D01*
X141363968Y-92733263D01*
X141341137Y-92751400D01*
X141340423Y-92752097D01*
X141329666Y-92764458D01*
X141316441Y-92782584D01*
X141301127Y-92805782D01*
X141284102Y-92833362D01*
X141265747Y-92864633D01*
X141246438Y-92898902D01*
X141226556Y-92935479D01*
X141206479Y-92973671D01*
X141186585Y-93012789D01*
X141167253Y-93052139D01*
X141148863Y-93091031D01*
X141131792Y-93128774D01*
X141123062Y-93148888D01*
X141095582Y-93217828D01*
X141073705Y-93282753D01*
X141057436Y-93343631D01*
X141046780Y-93400428D01*
X141041742Y-93453112D01*
X141042326Y-93501650D01*
X141048538Y-93546008D01*
X141059697Y-93584355D01*
X141069279Y-93604617D01*
X141082842Y-93626530D01*
X141098641Y-93647628D01*
X141114928Y-93665441D01*
X141120911Y-93670860D01*
X141136300Y-93682771D01*
X141152919Y-93693287D01*
X141171311Y-93702518D01*
X141192022Y-93710574D01*
X141215594Y-93717565D01*
X141242573Y-93723602D01*
X141273502Y-93728794D01*
X141308926Y-93733252D01*
X141349388Y-93737086D01*
X141395433Y-93740405D01*
X141447604Y-93743321D01*
X141488097Y-93745182D01*
X141507868Y-93745961D01*
X141533696Y-93746876D01*
X141564584Y-93747897D01*
X141599536Y-93748994D01*
X141637554Y-93750137D01*
X141677643Y-93751294D01*
X141718805Y-93752437D01*
X141760044Y-93753534D01*
X141780903Y-93754070D01*
X141886868Y-93756865D01*
X141986377Y-93759728D01*
X142080029Y-93762688D01*
X142168424Y-93765774D01*
X142252160Y-93769016D01*
X142331838Y-93772444D01*
X142408056Y-93776086D01*
X142481413Y-93779972D01*
X142552509Y-93784132D01*
X142621944Y-93788595D01*
X142690317Y-93793390D01*
X142758226Y-93798548D01*
X142826271Y-93804096D01*
X142862167Y-93807168D01*
X143014575Y-93821484D01*
X143161084Y-93837501D01*
X143302686Y-93855426D01*
X143440371Y-93875462D01*
X143575131Y-93897813D01*
X143707958Y-93922686D01*
X143839844Y-93950283D01*
X143971779Y-93980811D01*
X144104756Y-94014473D01*
X144239766Y-94051474D01*
X144377801Y-94092018D01*
X144519851Y-94136311D01*
X144627819Y-94171516D01*
X144684471Y-94190415D01*
X144736899Y-94208181D01*
X144785676Y-94225079D01*
X144831373Y-94241377D01*
X144874563Y-94257340D01*
X144915816Y-94273235D01*
X144955705Y-94289327D01*
X144994801Y-94305884D01*
X145033675Y-94323170D01*
X145072901Y-94341452D01*
X145113048Y-94360997D01*
X145154690Y-94382071D01*
X145198398Y-94404939D01*
X145244743Y-94429869D01*
X145294297Y-94457125D01*
X145347632Y-94486975D01*
X145405320Y-94519684D01*
X145467932Y-94555519D01*
X145532694Y-94592815D01*
X145582887Y-94621743D01*
X145627657Y-94647450D01*
X145667661Y-94670298D01*
X145703555Y-94690648D01*
X145735994Y-94708863D01*
X145765635Y-94725303D01*
X145793134Y-94740330D01*
X145819147Y-94754307D01*
X145844330Y-94767594D01*
X145869338Y-94780554D01*
X145894828Y-94793549D01*
X145917222Y-94804820D01*
X145982539Y-94836741D01*
X146043326Y-94864702D01*
X146100631Y-94889064D01*
X146155499Y-94910188D01*
X146208978Y-94928436D01*
X146262115Y-94944169D01*
X146315957Y-94957748D01*
X146371551Y-94969537D01*
X146419025Y-94978094D01*
X146478301Y-94987475D01*
X146532886Y-94994849D01*
X146584804Y-95000377D01*
X146636074Y-95004223D01*
X146688721Y-95006550D01*
X146744766Y-95007522D01*
X146783292Y-95007509D01*
X146809880Y-95007309D01*
X146834924Y-95007051D01*
X146857330Y-95006751D01*
X146876003Y-95006426D01*
X146889851Y-95006092D01*
X146897777Y-95005767D01*
X146897944Y-95005755D01*
X146988991Y-94996740D01*
X147078800Y-94983096D01*
X147166515Y-94965042D01*
X147251282Y-94942798D01*
X147332244Y-94916583D01*
X147408545Y-94886619D01*
X147466209Y-94859817D01*
X147552043Y-94812919D01*
X147635670Y-94759377D01*
X147717012Y-94699273D01*
X147795994Y-94632690D01*
X147872539Y-94559708D01*
X147946571Y-94480411D01*
X148018015Y-94394879D01*
X148086793Y-94303196D01*
X148152829Y-94205442D01*
X148216048Y-94101701D01*
X148276373Y-93992053D01*
X148280700Y-93983746D01*
X148317707Y-93908734D01*
X148352221Y-93830989D01*
X148384600Y-93749580D01*
X148415202Y-93663574D01*
X148444388Y-93572039D01*
X148460890Y-93515758D01*
X148468457Y-93489169D01*
X148714194Y-93390044D01*
X148753671Y-93374069D01*
X148791187Y-93358791D01*
X148826234Y-93344422D01*
X148858306Y-93331173D01*
X148886898Y-93319257D01*
X148911502Y-93308887D01*
X148931612Y-93300274D01*
X148946722Y-93293630D01*
X148956326Y-93289168D01*
X148959917Y-93287101D01*
X148959931Y-93287055D01*
X148957356Y-93284178D01*
X148949885Y-93276965D01*
X148937902Y-93265762D01*
X148921787Y-93250917D01*
X148901922Y-93232776D01*
X148878690Y-93211686D01*
X148852471Y-93187994D01*
X148823649Y-93162048D01*
X148792605Y-93134193D01*
X148759720Y-93104778D01*
X148734153Y-93081966D01*
X148508375Y-92880741D01*
X148493997Y-92841022D01*
X148465662Y-92770948D01*
X148432414Y-92704045D01*
X148393848Y-92639707D01*
X148349555Y-92577324D01*
X148299130Y-92516287D01*
X148242165Y-92455990D01*
X148225776Y-92439917D01*
X148158462Y-92379739D01*
X148085870Y-92324059D01*
X148008266Y-92273010D01*
X147925914Y-92226722D01*
X147839079Y-92185330D01*
X147748026Y-92148964D01*
X147653021Y-92117758D01*
X147554329Y-92091842D01*
X147508250Y-92081834D01*
X147463853Y-92073197D01*
X147424131Y-92066427D01*
X147387021Y-92061295D01*
X147350460Y-92057572D01*
X147312386Y-92055029D01*
X147270735Y-92053439D01*
X147247194Y-92052916D01*
X147200426Y-92052493D01*
X147158969Y-92053103D01*
D12*
X161005000Y-115800000D03*
X158295000Y-115800000D03*
X161005000Y-100200000D03*
X158295000Y-100200000D03*
X161005000Y-115400000D03*
X161005000Y-115000000D03*
X161005000Y-114600000D03*
X161005000Y-114200000D03*
X161005000Y-113800000D03*
X161005000Y-113400000D03*
X161005000Y-113000000D03*
X161005000Y-112600000D03*
X161005000Y-112200000D03*
X161005000Y-111800000D03*
X161005000Y-111400000D03*
X161005000Y-111000000D03*
X161005000Y-110600000D03*
X161005000Y-110200000D03*
X161005000Y-109800000D03*
X161005000Y-109400000D03*
X161005000Y-109000000D03*
X161005000Y-108600000D03*
X161005000Y-108200000D03*
X161005000Y-107800000D03*
X161005000Y-107400000D03*
X161005000Y-107000000D03*
X161005000Y-106600000D03*
X161005000Y-106200000D03*
X161005000Y-105800000D03*
X161005000Y-105400000D03*
X161005000Y-105000000D03*
X161005000Y-104600000D03*
X161005000Y-104200000D03*
X161005000Y-103800000D03*
X161005000Y-103400000D03*
X161005000Y-103000000D03*
X161005000Y-102600000D03*
X161005000Y-102200000D03*
X161005000Y-101800000D03*
X161005000Y-101400000D03*
X161005000Y-101000000D03*
X161005000Y-100600000D03*
D13*
X161005000Y-99725000D03*
X158295000Y-99725000D03*
X161005000Y-116275000D03*
X158295000Y-116275000D03*
D12*
X158295000Y-100600000D03*
X158295000Y-101000000D03*
X158295000Y-101400000D03*
X158295000Y-101800000D03*
X158295000Y-102200000D03*
X158295000Y-102600000D03*
X158295000Y-103000000D03*
X158295000Y-103400000D03*
X158295000Y-103800000D03*
X158295000Y-104200000D03*
X158295000Y-104600000D03*
X158295000Y-105000000D03*
X158295000Y-105400000D03*
X158295000Y-105800000D03*
X158295000Y-106200000D03*
X158295000Y-106600000D03*
X158295000Y-107000000D03*
X158295000Y-107400000D03*
X158295000Y-107800000D03*
X158295000Y-108200000D03*
X158295000Y-108600000D03*
X158295000Y-109000000D03*
X158295000Y-109400000D03*
X158295000Y-109800000D03*
X158295000Y-110200000D03*
X158295000Y-110600000D03*
X158295000Y-111000000D03*
X158295000Y-111400000D03*
X158295000Y-111800000D03*
X158295000Y-112200000D03*
X158295000Y-112600000D03*
X158295000Y-113000000D03*
X158295000Y-113400000D03*
X158295000Y-113800000D03*
X158295000Y-114200000D03*
X158295000Y-114600000D03*
X158295000Y-115000000D03*
X158295000Y-115400000D03*
D14*
X156250000Y-95900000D03*
X158150000Y-95900000D03*
D15*
X158712500Y-92862500D03*
X158712500Y-93362500D03*
X158712500Y-93862500D03*
X158712500Y-94362500D03*
X155812500Y-94362500D03*
X155812500Y-93862500D03*
X155812500Y-93362500D03*
X155812500Y-92862500D03*
D16*
X156825000Y-93975000D03*
X156825000Y-93250000D03*
X157700000Y-93975000D03*
X157700000Y-93250000D03*
D17*
X156550000Y-91200000D03*
X154350000Y-91200000D03*
D18*
X158550000Y-91250000D03*
D19*
X134500000Y-116500000D03*
D20*
X134500000Y-113960000D03*
X134500000Y-111420000D03*
X134500000Y-108880000D03*
X134500000Y-106340000D03*
X134500000Y-103800000D03*
X134500000Y-101260000D03*
X134500000Y-98720000D03*
M02*
