G04 #@! TF.FileFunction,Copper,L1,Top,Signal*
%FSLAX46Y46*%
G04 Gerber Fmt 4.6, Leading zero omitted, Abs format (unit mm)*
G04 Created by KiCad (PCBNEW 4.0.1-stable) date Monday, April 04, 2016 'PMt' 01:11:26 PM*
%MOMM*%
G01*
G04 APERTURE LIST*
%ADD10C,0.100000*%
%ADD11C,0.010000*%
%ADD12C,1.000000*%
%ADD13R,0.700000X0.200000*%
%ADD14R,1.501140X0.398780*%
%ADD15R,2.032000X1.727200*%
%ADD16O,2.032000X1.727200*%
%ADD17C,1.524000*%
%ADD18C,0.685800*%
%ADD19C,0.685801*%
%ADD20C,0.152400*%
%ADD21C,0.508000*%
%ADD22C,0.254000*%
G04 APERTURE END LIST*
D10*
D11*
G36*
X141359423Y-91725069D02*
X141391094Y-91725572D01*
X141418725Y-91726621D01*
X141443824Y-91728340D01*
X141467893Y-91730851D01*
X141492439Y-91734276D01*
X141518967Y-91738740D01*
X141540931Y-91742815D01*
X141599786Y-91755578D01*
X141660883Y-91771645D01*
X141721336Y-91790182D01*
X141778260Y-91810354D01*
X141789639Y-91814777D01*
X141832817Y-91831970D01*
X141875192Y-91849108D01*
X141917150Y-91866370D01*
X141959080Y-91883937D01*
X142001369Y-91901989D01*
X142044404Y-91920707D01*
X142088573Y-91940271D01*
X142134265Y-91960862D01*
X142181866Y-91982659D01*
X142231764Y-92005844D01*
X142284347Y-92030597D01*
X142340003Y-92057099D01*
X142399118Y-92085528D01*
X142462082Y-92116067D01*
X142529280Y-92148896D01*
X142601102Y-92184194D01*
X142677935Y-92222143D01*
X142760166Y-92262923D01*
X142848183Y-92306714D01*
X142870903Y-92318037D01*
X142949183Y-92356981D01*
X143021702Y-92392880D01*
X143088949Y-92425961D01*
X143151415Y-92456448D01*
X143209589Y-92484567D01*
X143263962Y-92510545D01*
X143315024Y-92534606D01*
X143363265Y-92556978D01*
X143409175Y-92577885D01*
X143453244Y-92597553D01*
X143495962Y-92616208D01*
X143537819Y-92634076D01*
X143579306Y-92651382D01*
X143620912Y-92668353D01*
X143663128Y-92685213D01*
X143696403Y-92698281D01*
X143719926Y-92707518D01*
X143741319Y-92716037D01*
X143759688Y-92723473D01*
X143774143Y-92729460D01*
X143783791Y-92733635D01*
X143787732Y-92735624D01*
X143787199Y-92739719D01*
X143781987Y-92747737D01*
X143772739Y-92758968D01*
X143760100Y-92772704D01*
X143744712Y-92788236D01*
X143727219Y-92804855D01*
X143714178Y-92816657D01*
X143646199Y-92872758D01*
X143571764Y-92926253D01*
X143490994Y-92977086D01*
X143404011Y-93025200D01*
X143310938Y-93070538D01*
X143211897Y-93113043D01*
X143107009Y-93152658D01*
X142996398Y-93189327D01*
X142880185Y-93222992D01*
X142793292Y-93245296D01*
X142692697Y-93268538D01*
X142597709Y-93287867D01*
X142508081Y-93303303D01*
X142423561Y-93314868D01*
X142343901Y-93322580D01*
X142268851Y-93326462D01*
X142198163Y-93326535D01*
X142131587Y-93322818D01*
X142068874Y-93315332D01*
X142031082Y-93308660D01*
X141970450Y-93293748D01*
X141915094Y-93274367D01*
X141865086Y-93250590D01*
X141820499Y-93222491D01*
X141781404Y-93190142D01*
X141747873Y-93153617D01*
X141719979Y-93112988D01*
X141697795Y-93068329D01*
X141681392Y-93019713D01*
X141670842Y-92967214D01*
X141667903Y-92940940D01*
X141667085Y-92929833D01*
X141666149Y-92921698D01*
X141664111Y-92915994D01*
X141659991Y-92912178D01*
X141652806Y-92909710D01*
X141641575Y-92908046D01*
X141625315Y-92906646D01*
X141603045Y-92904967D01*
X141602667Y-92904937D01*
X141575115Y-92902710D01*
X141553944Y-92900816D01*
X141538491Y-92899166D01*
X141528094Y-92897673D01*
X141522090Y-92896249D01*
X141519817Y-92894807D01*
X141519918Y-92893974D01*
X141517973Y-92892665D01*
X141511139Y-92892440D01*
X141501468Y-92893114D01*
X141491010Y-92894497D01*
X141481817Y-92896403D01*
X141477431Y-92897859D01*
X141471923Y-92899376D01*
X141460616Y-92901836D01*
X141444669Y-92905008D01*
X141425241Y-92908665D01*
X141403489Y-92912578D01*
X141398056Y-92913529D01*
X141316570Y-92927036D01*
X141239154Y-92938409D01*
X141163266Y-92947987D01*
X141086367Y-92956109D01*
X141062917Y-92958294D01*
X141040487Y-92959888D01*
X141013281Y-92961121D01*
X140982652Y-92961993D01*
X140949951Y-92962504D01*
X140916529Y-92962652D01*
X140883738Y-92962438D01*
X140852930Y-92961861D01*
X140825455Y-92960920D01*
X140802666Y-92959615D01*
X140789514Y-92958402D01*
X140716686Y-92948747D01*
X140645829Y-92936860D01*
X140575068Y-92922349D01*
X140502527Y-92904822D01*
X140426331Y-92883890D01*
X140410857Y-92879368D01*
X140388243Y-92872575D01*
X140371577Y-92867222D01*
X140359982Y-92862959D01*
X140352578Y-92859438D01*
X140348490Y-92856309D01*
X140347057Y-92853968D01*
X140346091Y-92848855D01*
X140344509Y-92837561D01*
X140342410Y-92820925D01*
X140339895Y-92799783D01*
X140337063Y-92774975D01*
X140334013Y-92747338D01*
X140330918Y-92718392D01*
X140327321Y-92684399D01*
X140324435Y-92656757D01*
X140322312Y-92634791D01*
X140321001Y-92617830D01*
X140320553Y-92605198D01*
X140321018Y-92596223D01*
X140322447Y-92590230D01*
X140324890Y-92586547D01*
X140328397Y-92584499D01*
X140333018Y-92583413D01*
X140338805Y-92582615D01*
X140341091Y-92582283D01*
X140352337Y-92580254D01*
X140369389Y-92576797D01*
X140391193Y-92572151D01*
X140416700Y-92566555D01*
X140444858Y-92560249D01*
X140474615Y-92553471D01*
X140504921Y-92546461D01*
X140534725Y-92539457D01*
X140562975Y-92532700D01*
X140588620Y-92526427D01*
X140607833Y-92521593D01*
X140710462Y-92494234D01*
X140806453Y-92466397D01*
X140896213Y-92437945D01*
X140980153Y-92408742D01*
X141058680Y-92378650D01*
X141132203Y-92347534D01*
X141144056Y-92342213D01*
X141214730Y-92307760D01*
X141286700Y-92268022D01*
X141358246Y-92224092D01*
X141427648Y-92177066D01*
X141493190Y-92128037D01*
X141537403Y-92091786D01*
X141555065Y-92076423D01*
X141573398Y-92060012D01*
X141591684Y-92043244D01*
X141609206Y-92026810D01*
X141625249Y-92011401D01*
X141639095Y-91997709D01*
X141650027Y-91986424D01*
X141657329Y-91978238D01*
X141660283Y-91973841D01*
X141660219Y-91973368D01*
X141654114Y-91970119D01*
X141642137Y-91965797D01*
X141625347Y-91960663D01*
X141604801Y-91954980D01*
X141581556Y-91949011D01*
X141556670Y-91943019D01*
X141531199Y-91937265D01*
X141506201Y-91932013D01*
X141482732Y-91927526D01*
X141461852Y-91924065D01*
X141461556Y-91924021D01*
X141406513Y-91917477D01*
X141352179Y-91914423D01*
X141297039Y-91914893D01*
X141239581Y-91918923D01*
X141178289Y-91926548D01*
X141148461Y-91931261D01*
X141055204Y-91949850D01*
X140965771Y-91973707D01*
X140880377Y-92002725D01*
X140799234Y-92036797D01*
X140722557Y-92075818D01*
X140650558Y-92119681D01*
X140583451Y-92168280D01*
X140521449Y-92221509D01*
X140477949Y-92264915D01*
X140435574Y-92313556D01*
X140397536Y-92364333D01*
X140364493Y-92416230D01*
X140337105Y-92468230D01*
X140319656Y-92509355D01*
X140314680Y-92521769D01*
X140310056Y-92531937D01*
X140306789Y-92537652D01*
X140303532Y-92540958D01*
X140295631Y-92548670D01*
X140283561Y-92560334D01*
X140267793Y-92575496D01*
X140248801Y-92593704D01*
X140227057Y-92614504D01*
X140203034Y-92637442D01*
X140177205Y-92662065D01*
X140158042Y-92680309D01*
X140131341Y-92705737D01*
X140106208Y-92729712D01*
X140083104Y-92751794D01*
X140062486Y-92771540D01*
X140044813Y-92788513D01*
X140030545Y-92802270D01*
X140020139Y-92812371D01*
X140014055Y-92818376D01*
X140012607Y-92819922D01*
X140015572Y-92821699D01*
X140024384Y-92826052D01*
X140038436Y-92832701D01*
X140057123Y-92841368D01*
X140079836Y-92851773D01*
X140105972Y-92863637D01*
X140134923Y-92876683D01*
X140166083Y-92890630D01*
X140173468Y-92893923D01*
X140335126Y-92965942D01*
X140351981Y-93026214D01*
X140360094Y-93054199D01*
X140369941Y-93086534D01*
X140380916Y-93121347D01*
X140392411Y-93156762D01*
X140403817Y-93190907D01*
X140414527Y-93221907D01*
X140423511Y-93246757D01*
X140428959Y-93260443D01*
X140433479Y-93268917D01*
X140438136Y-93273733D01*
X140443830Y-93276392D01*
X140451132Y-93277558D01*
X140464453Y-93278496D01*
X140482760Y-93279209D01*
X140505020Y-93279697D01*
X140530201Y-93279965D01*
X140557269Y-93280013D01*
X140585192Y-93279845D01*
X140612937Y-93279461D01*
X140639472Y-93278866D01*
X140663763Y-93278060D01*
X140684777Y-93277046D01*
X140701319Y-93275841D01*
X140864261Y-93258212D01*
X140964139Y-93244838D01*
X141006859Y-93238400D01*
X141043678Y-93232100D01*
X141075734Y-93225624D01*
X141104167Y-93218661D01*
X141130116Y-93210899D01*
X141154721Y-93202025D01*
X141179122Y-93191727D01*
X141204457Y-93179694D01*
X141207556Y-93178147D01*
X141263115Y-93146813D01*
X141317664Y-93109211D01*
X141370233Y-93066128D01*
X141419852Y-93018353D01*
X141460314Y-92973042D01*
X141478347Y-92951319D01*
X141480748Y-92976569D01*
X141487775Y-93023991D01*
X141499681Y-93073168D01*
X141515802Y-93122224D01*
X141535477Y-93169282D01*
X141558042Y-93212463D01*
X141571719Y-93234289D01*
X141609340Y-93284006D01*
X141652141Y-93329003D01*
X141700037Y-93369251D01*
X141752937Y-93404723D01*
X141810757Y-93435389D01*
X141873406Y-93461223D01*
X141940799Y-93482197D01*
X142012848Y-93498282D01*
X142089465Y-93509451D01*
X142170562Y-93515676D01*
X142256053Y-93516929D01*
X142345848Y-93513182D01*
X142424639Y-93506139D01*
X142497782Y-93496822D01*
X142575875Y-93484509D01*
X142657621Y-93469481D01*
X142741724Y-93452024D01*
X142826887Y-93432418D01*
X142911813Y-93410949D01*
X142995205Y-93387899D01*
X143071986Y-93364745D01*
X143169460Y-93332112D01*
X143263786Y-93296670D01*
X143354613Y-93258629D01*
X143441592Y-93218203D01*
X143524372Y-93175600D01*
X143602604Y-93131034D01*
X143675937Y-93084714D01*
X143744021Y-93036853D01*
X143806506Y-92987661D01*
X143863041Y-92937350D01*
X143913278Y-92886131D01*
X143956865Y-92834215D01*
X143961516Y-92828103D01*
X143971132Y-92815676D01*
X143977892Y-92808104D01*
X143982929Y-92804422D01*
X143987377Y-92803664D01*
X143989726Y-92804079D01*
X144009163Y-92808388D01*
X144034240Y-92813070D01*
X144063568Y-92817922D01*
X144095757Y-92822737D01*
X144129415Y-92827313D01*
X144163152Y-92831443D01*
X144195578Y-92834923D01*
X144206167Y-92835932D01*
X144237905Y-92838462D01*
X144269888Y-92840184D01*
X144302791Y-92841067D01*
X144337290Y-92841080D01*
X144374060Y-92840194D01*
X144413775Y-92838377D01*
X144457113Y-92835599D01*
X144504746Y-92831829D01*
X144557352Y-92827037D01*
X144615605Y-92821192D01*
X144677125Y-92814600D01*
X144766165Y-92804237D01*
X144861639Y-92792018D01*
X144963193Y-92778007D01*
X145070469Y-92762269D01*
X145183115Y-92744868D01*
X145300774Y-92725867D01*
X145423091Y-92705332D01*
X145549712Y-92683326D01*
X145680280Y-92659914D01*
X145814441Y-92635160D01*
X145951840Y-92609128D01*
X146092121Y-92581882D01*
X146234930Y-92553486D01*
X146379911Y-92524006D01*
X146526709Y-92493505D01*
X146674969Y-92462046D01*
X146824335Y-92429696D01*
X146911972Y-92410408D01*
X146956466Y-92400554D01*
X146994684Y-92392267D01*
X147027258Y-92385680D01*
X147054823Y-92380928D01*
X147078011Y-92378146D01*
X147097455Y-92377468D01*
X147113788Y-92379028D01*
X147127642Y-92382962D01*
X147139652Y-92389404D01*
X147150449Y-92398488D01*
X147160667Y-92410348D01*
X147170938Y-92425120D01*
X147181896Y-92442938D01*
X147194174Y-92463936D01*
X147198453Y-92471295D01*
X147235722Y-92537072D01*
X147270654Y-92602322D01*
X147302855Y-92666214D01*
X147331929Y-92727915D01*
X147357481Y-92786594D01*
X147379117Y-92841419D01*
X147392982Y-92880859D01*
X147408442Y-92933272D01*
X147419158Y-92982184D01*
X147425158Y-93027367D01*
X147426469Y-93068594D01*
X147423119Y-93105635D01*
X147415134Y-93138262D01*
X147402543Y-93166247D01*
X147385372Y-93189362D01*
X147363649Y-93207378D01*
X147353124Y-93213395D01*
X147342991Y-93218154D01*
X147331941Y-93222524D01*
X147319615Y-93226533D01*
X147305657Y-93230209D01*
X147289709Y-93233581D01*
X147271413Y-93236677D01*
X147250414Y-93239524D01*
X147226352Y-93242152D01*
X147198872Y-93244587D01*
X147167615Y-93246859D01*
X147132225Y-93248995D01*
X147092343Y-93251023D01*
X147047613Y-93252973D01*
X146997677Y-93254871D01*
X146942178Y-93256746D01*
X146880759Y-93258626D01*
X146813062Y-93260540D01*
X146738731Y-93262515D01*
X146725000Y-93262869D01*
X146602923Y-93266207D01*
X146487344Y-93269786D01*
X146377707Y-93273639D01*
X146273456Y-93277794D01*
X146174037Y-93282284D01*
X146078895Y-93287138D01*
X145987474Y-93292388D01*
X145899219Y-93298064D01*
X145813574Y-93304196D01*
X145729985Y-93310816D01*
X145647897Y-93317954D01*
X145566754Y-93325640D01*
X145539667Y-93328345D01*
X145410967Y-93342177D01*
X145286502Y-93357273D01*
X145165523Y-93373805D01*
X145047281Y-93391941D01*
X144931028Y-93411851D01*
X144816016Y-93433705D01*
X144701496Y-93457671D01*
X144586721Y-93483920D01*
X144470941Y-93512620D01*
X144353408Y-93543942D01*
X144233373Y-93578054D01*
X144110090Y-93615127D01*
X143982808Y-93655329D01*
X143850780Y-93698830D01*
X143745792Y-93734551D01*
X143695932Y-93752059D01*
X143648400Y-93769485D01*
X143602527Y-93787150D01*
X143557643Y-93805374D01*
X143513080Y-93824476D01*
X143468167Y-93844779D01*
X143422235Y-93866601D01*
X143374615Y-93890263D01*
X143324637Y-93916085D01*
X143271633Y-93944388D01*
X143214932Y-93975492D01*
X143153865Y-94009717D01*
X143087763Y-94047384D01*
X143066694Y-94059493D01*
X143008073Y-94093223D01*
X142955102Y-94123651D01*
X142907334Y-94151025D01*
X142864321Y-94175591D01*
X142825616Y-94197596D01*
X142790771Y-94217287D01*
X142759338Y-94234910D01*
X142730870Y-94250714D01*
X142704919Y-94264944D01*
X142681037Y-94277848D01*
X142658777Y-94289672D01*
X142637692Y-94300664D01*
X142617332Y-94311070D01*
X142597252Y-94321138D01*
X142577003Y-94331113D01*
X142556138Y-94341244D01*
X142554306Y-94342128D01*
X142486867Y-94373565D01*
X142423250Y-94400819D01*
X142362082Y-94424282D01*
X142301992Y-94444345D01*
X142241609Y-94461402D01*
X142179560Y-94475844D01*
X142114474Y-94488064D01*
X142044978Y-94498454D01*
X141980139Y-94506279D01*
X141939152Y-94510039D01*
X141893206Y-94512999D01*
X141844358Y-94515105D01*
X141794663Y-94516301D01*
X141746179Y-94516532D01*
X141700962Y-94515744D01*
X141671458Y-94514508D01*
X141591912Y-94507865D01*
X141511456Y-94496743D01*
X141431278Y-94481443D01*
X141352567Y-94462263D01*
X141276511Y-94439501D01*
X141204298Y-94413456D01*
X141137116Y-94384427D01*
X141119008Y-94375625D01*
X141038028Y-94331372D01*
X140958806Y-94280408D01*
X140881482Y-94222893D01*
X140806195Y-94158983D01*
X140733086Y-94088836D01*
X140662295Y-94012610D01*
X140593960Y-93930463D01*
X140528223Y-93842552D01*
X140465222Y-93749036D01*
X140405097Y-93650070D01*
X140347989Y-93545814D01*
X140302897Y-93455201D01*
X140284559Y-93415287D01*
X140266937Y-93373922D01*
X140249526Y-93329814D01*
X140231819Y-93281672D01*
X140213310Y-93228204D01*
X140208965Y-93215250D01*
X140201296Y-93191804D01*
X140193193Y-93166214D01*
X140185008Y-93139673D01*
X140177093Y-93113373D01*
X140169801Y-93088508D01*
X140163485Y-93066269D01*
X140158496Y-93047848D01*
X140155187Y-93034440D01*
X140154378Y-93030558D01*
X140152209Y-93018996D01*
X139947595Y-92936428D01*
X139911615Y-92921883D01*
X139877607Y-92908085D01*
X139846132Y-92895266D01*
X139817748Y-92883654D01*
X139793014Y-92873480D01*
X139772490Y-92864974D01*
X139756734Y-92858367D01*
X139746307Y-92853889D01*
X139741768Y-92851769D01*
X139741619Y-92851656D01*
X139743960Y-92849006D01*
X139751162Y-92842050D01*
X139762812Y-92831163D01*
X139778495Y-92816724D01*
X139797797Y-92799108D01*
X139820304Y-92778694D01*
X139845601Y-92755859D01*
X139873274Y-92730979D01*
X139902909Y-92704432D01*
X139928286Y-92681769D01*
X139964302Y-92649640D01*
X139995416Y-92621846D01*
X140021998Y-92598033D01*
X140044415Y-92577848D01*
X140063038Y-92560935D01*
X140078235Y-92546942D01*
X140090376Y-92535513D01*
X140099830Y-92526294D01*
X140106965Y-92518931D01*
X140112152Y-92513071D01*
X140115759Y-92508358D01*
X140118156Y-92504439D01*
X140119712Y-92500959D01*
X140120795Y-92497565D01*
X140120979Y-92496897D01*
X140127388Y-92476348D01*
X140136490Y-92451398D01*
X140147560Y-92423816D01*
X140159874Y-92395375D01*
X140172705Y-92367843D01*
X140179300Y-92354554D01*
X140211749Y-92296345D01*
X140248977Y-92240220D01*
X140291666Y-92185249D01*
X140340499Y-92130502D01*
X140353642Y-92116849D01*
X140409151Y-92063310D01*
X140466431Y-92014827D01*
X140526685Y-91970531D01*
X140591117Y-91929557D01*
X140660931Y-91891037D01*
X140681917Y-91880420D01*
X140749971Y-91848548D01*
X140817985Y-91820713D01*
X140887187Y-91796541D01*
X140958807Y-91775659D01*
X141034072Y-91757692D01*
X141114212Y-91742268D01*
X141160680Y-91734752D01*
X141180516Y-91731832D01*
X141197844Y-91729566D01*
X141214061Y-91727870D01*
X141230562Y-91726659D01*
X141248742Y-91725848D01*
X141269998Y-91725355D01*
X141295724Y-91725094D01*
X141322208Y-91724991D01*
X141359423Y-91725069D01*
X141359423Y-91725069D01*
G37*
X141359423Y-91725069D02*
X141391094Y-91725572D01*
X141418725Y-91726621D01*
X141443824Y-91728340D01*
X141467893Y-91730851D01*
X141492439Y-91734276D01*
X141518967Y-91738740D01*
X141540931Y-91742815D01*
X141599786Y-91755578D01*
X141660883Y-91771645D01*
X141721336Y-91790182D01*
X141778260Y-91810354D01*
X141789639Y-91814777D01*
X141832817Y-91831970D01*
X141875192Y-91849108D01*
X141917150Y-91866370D01*
X141959080Y-91883937D01*
X142001369Y-91901989D01*
X142044404Y-91920707D01*
X142088573Y-91940271D01*
X142134265Y-91960862D01*
X142181866Y-91982659D01*
X142231764Y-92005844D01*
X142284347Y-92030597D01*
X142340003Y-92057099D01*
X142399118Y-92085528D01*
X142462082Y-92116067D01*
X142529280Y-92148896D01*
X142601102Y-92184194D01*
X142677935Y-92222143D01*
X142760166Y-92262923D01*
X142848183Y-92306714D01*
X142870903Y-92318037D01*
X142949183Y-92356981D01*
X143021702Y-92392880D01*
X143088949Y-92425961D01*
X143151415Y-92456448D01*
X143209589Y-92484567D01*
X143263962Y-92510545D01*
X143315024Y-92534606D01*
X143363265Y-92556978D01*
X143409175Y-92577885D01*
X143453244Y-92597553D01*
X143495962Y-92616208D01*
X143537819Y-92634076D01*
X143579306Y-92651382D01*
X143620912Y-92668353D01*
X143663128Y-92685213D01*
X143696403Y-92698281D01*
X143719926Y-92707518D01*
X143741319Y-92716037D01*
X143759688Y-92723473D01*
X143774143Y-92729460D01*
X143783791Y-92733635D01*
X143787732Y-92735624D01*
X143787199Y-92739719D01*
X143781987Y-92747737D01*
X143772739Y-92758968D01*
X143760100Y-92772704D01*
X143744712Y-92788236D01*
X143727219Y-92804855D01*
X143714178Y-92816657D01*
X143646199Y-92872758D01*
X143571764Y-92926253D01*
X143490994Y-92977086D01*
X143404011Y-93025200D01*
X143310938Y-93070538D01*
X143211897Y-93113043D01*
X143107009Y-93152658D01*
X142996398Y-93189327D01*
X142880185Y-93222992D01*
X142793292Y-93245296D01*
X142692697Y-93268538D01*
X142597709Y-93287867D01*
X142508081Y-93303303D01*
X142423561Y-93314868D01*
X142343901Y-93322580D01*
X142268851Y-93326462D01*
X142198163Y-93326535D01*
X142131587Y-93322818D01*
X142068874Y-93315332D01*
X142031082Y-93308660D01*
X141970450Y-93293748D01*
X141915094Y-93274367D01*
X141865086Y-93250590D01*
X141820499Y-93222491D01*
X141781404Y-93190142D01*
X141747873Y-93153617D01*
X141719979Y-93112988D01*
X141697795Y-93068329D01*
X141681392Y-93019713D01*
X141670842Y-92967214D01*
X141667903Y-92940940D01*
X141667085Y-92929833D01*
X141666149Y-92921698D01*
X141664111Y-92915994D01*
X141659991Y-92912178D01*
X141652806Y-92909710D01*
X141641575Y-92908046D01*
X141625315Y-92906646D01*
X141603045Y-92904967D01*
X141602667Y-92904937D01*
X141575115Y-92902710D01*
X141553944Y-92900816D01*
X141538491Y-92899166D01*
X141528094Y-92897673D01*
X141522090Y-92896249D01*
X141519817Y-92894807D01*
X141519918Y-92893974D01*
X141517973Y-92892665D01*
X141511139Y-92892440D01*
X141501468Y-92893114D01*
X141491010Y-92894497D01*
X141481817Y-92896403D01*
X141477431Y-92897859D01*
X141471923Y-92899376D01*
X141460616Y-92901836D01*
X141444669Y-92905008D01*
X141425241Y-92908665D01*
X141403489Y-92912578D01*
X141398056Y-92913529D01*
X141316570Y-92927036D01*
X141239154Y-92938409D01*
X141163266Y-92947987D01*
X141086367Y-92956109D01*
X141062917Y-92958294D01*
X141040487Y-92959888D01*
X141013281Y-92961121D01*
X140982652Y-92961993D01*
X140949951Y-92962504D01*
X140916529Y-92962652D01*
X140883738Y-92962438D01*
X140852930Y-92961861D01*
X140825455Y-92960920D01*
X140802666Y-92959615D01*
X140789514Y-92958402D01*
X140716686Y-92948747D01*
X140645829Y-92936860D01*
X140575068Y-92922349D01*
X140502527Y-92904822D01*
X140426331Y-92883890D01*
X140410857Y-92879368D01*
X140388243Y-92872575D01*
X140371577Y-92867222D01*
X140359982Y-92862959D01*
X140352578Y-92859438D01*
X140348490Y-92856309D01*
X140347057Y-92853968D01*
X140346091Y-92848855D01*
X140344509Y-92837561D01*
X140342410Y-92820925D01*
X140339895Y-92799783D01*
X140337063Y-92774975D01*
X140334013Y-92747338D01*
X140330918Y-92718392D01*
X140327321Y-92684399D01*
X140324435Y-92656757D01*
X140322312Y-92634791D01*
X140321001Y-92617830D01*
X140320553Y-92605198D01*
X140321018Y-92596223D01*
X140322447Y-92590230D01*
X140324890Y-92586547D01*
X140328397Y-92584499D01*
X140333018Y-92583413D01*
X140338805Y-92582615D01*
X140341091Y-92582283D01*
X140352337Y-92580254D01*
X140369389Y-92576797D01*
X140391193Y-92572151D01*
X140416700Y-92566555D01*
X140444858Y-92560249D01*
X140474615Y-92553471D01*
X140504921Y-92546461D01*
X140534725Y-92539457D01*
X140562975Y-92532700D01*
X140588620Y-92526427D01*
X140607833Y-92521593D01*
X140710462Y-92494234D01*
X140806453Y-92466397D01*
X140896213Y-92437945D01*
X140980153Y-92408742D01*
X141058680Y-92378650D01*
X141132203Y-92347534D01*
X141144056Y-92342213D01*
X141214730Y-92307760D01*
X141286700Y-92268022D01*
X141358246Y-92224092D01*
X141427648Y-92177066D01*
X141493190Y-92128037D01*
X141537403Y-92091786D01*
X141555065Y-92076423D01*
X141573398Y-92060012D01*
X141591684Y-92043244D01*
X141609206Y-92026810D01*
X141625249Y-92011401D01*
X141639095Y-91997709D01*
X141650027Y-91986424D01*
X141657329Y-91978238D01*
X141660283Y-91973841D01*
X141660219Y-91973368D01*
X141654114Y-91970119D01*
X141642137Y-91965797D01*
X141625347Y-91960663D01*
X141604801Y-91954980D01*
X141581556Y-91949011D01*
X141556670Y-91943019D01*
X141531199Y-91937265D01*
X141506201Y-91932013D01*
X141482732Y-91927526D01*
X141461852Y-91924065D01*
X141461556Y-91924021D01*
X141406513Y-91917477D01*
X141352179Y-91914423D01*
X141297039Y-91914893D01*
X141239581Y-91918923D01*
X141178289Y-91926548D01*
X141148461Y-91931261D01*
X141055204Y-91949850D01*
X140965771Y-91973707D01*
X140880377Y-92002725D01*
X140799234Y-92036797D01*
X140722557Y-92075818D01*
X140650558Y-92119681D01*
X140583451Y-92168280D01*
X140521449Y-92221509D01*
X140477949Y-92264915D01*
X140435574Y-92313556D01*
X140397536Y-92364333D01*
X140364493Y-92416230D01*
X140337105Y-92468230D01*
X140319656Y-92509355D01*
X140314680Y-92521769D01*
X140310056Y-92531937D01*
X140306789Y-92537652D01*
X140303532Y-92540958D01*
X140295631Y-92548670D01*
X140283561Y-92560334D01*
X140267793Y-92575496D01*
X140248801Y-92593704D01*
X140227057Y-92614504D01*
X140203034Y-92637442D01*
X140177205Y-92662065D01*
X140158042Y-92680309D01*
X140131341Y-92705737D01*
X140106208Y-92729712D01*
X140083104Y-92751794D01*
X140062486Y-92771540D01*
X140044813Y-92788513D01*
X140030545Y-92802270D01*
X140020139Y-92812371D01*
X140014055Y-92818376D01*
X140012607Y-92819922D01*
X140015572Y-92821699D01*
X140024384Y-92826052D01*
X140038436Y-92832701D01*
X140057123Y-92841368D01*
X140079836Y-92851773D01*
X140105972Y-92863637D01*
X140134923Y-92876683D01*
X140166083Y-92890630D01*
X140173468Y-92893923D01*
X140335126Y-92965942D01*
X140351981Y-93026214D01*
X140360094Y-93054199D01*
X140369941Y-93086534D01*
X140380916Y-93121347D01*
X140392411Y-93156762D01*
X140403817Y-93190907D01*
X140414527Y-93221907D01*
X140423511Y-93246757D01*
X140428959Y-93260443D01*
X140433479Y-93268917D01*
X140438136Y-93273733D01*
X140443830Y-93276392D01*
X140451132Y-93277558D01*
X140464453Y-93278496D01*
X140482760Y-93279209D01*
X140505020Y-93279697D01*
X140530201Y-93279965D01*
X140557269Y-93280013D01*
X140585192Y-93279845D01*
X140612937Y-93279461D01*
X140639472Y-93278866D01*
X140663763Y-93278060D01*
X140684777Y-93277046D01*
X140701319Y-93275841D01*
X140864261Y-93258212D01*
X140964139Y-93244838D01*
X141006859Y-93238400D01*
X141043678Y-93232100D01*
X141075734Y-93225624D01*
X141104167Y-93218661D01*
X141130116Y-93210899D01*
X141154721Y-93202025D01*
X141179122Y-93191727D01*
X141204457Y-93179694D01*
X141207556Y-93178147D01*
X141263115Y-93146813D01*
X141317664Y-93109211D01*
X141370233Y-93066128D01*
X141419852Y-93018353D01*
X141460314Y-92973042D01*
X141478347Y-92951319D01*
X141480748Y-92976569D01*
X141487775Y-93023991D01*
X141499681Y-93073168D01*
X141515802Y-93122224D01*
X141535477Y-93169282D01*
X141558042Y-93212463D01*
X141571719Y-93234289D01*
X141609340Y-93284006D01*
X141652141Y-93329003D01*
X141700037Y-93369251D01*
X141752937Y-93404723D01*
X141810757Y-93435389D01*
X141873406Y-93461223D01*
X141940799Y-93482197D01*
X142012848Y-93498282D01*
X142089465Y-93509451D01*
X142170562Y-93515676D01*
X142256053Y-93516929D01*
X142345848Y-93513182D01*
X142424639Y-93506139D01*
X142497782Y-93496822D01*
X142575875Y-93484509D01*
X142657621Y-93469481D01*
X142741724Y-93452024D01*
X142826887Y-93432418D01*
X142911813Y-93410949D01*
X142995205Y-93387899D01*
X143071986Y-93364745D01*
X143169460Y-93332112D01*
X143263786Y-93296670D01*
X143354613Y-93258629D01*
X143441592Y-93218203D01*
X143524372Y-93175600D01*
X143602604Y-93131034D01*
X143675937Y-93084714D01*
X143744021Y-93036853D01*
X143806506Y-92987661D01*
X143863041Y-92937350D01*
X143913278Y-92886131D01*
X143956865Y-92834215D01*
X143961516Y-92828103D01*
X143971132Y-92815676D01*
X143977892Y-92808104D01*
X143982929Y-92804422D01*
X143987377Y-92803664D01*
X143989726Y-92804079D01*
X144009163Y-92808388D01*
X144034240Y-92813070D01*
X144063568Y-92817922D01*
X144095757Y-92822737D01*
X144129415Y-92827313D01*
X144163152Y-92831443D01*
X144195578Y-92834923D01*
X144206167Y-92835932D01*
X144237905Y-92838462D01*
X144269888Y-92840184D01*
X144302791Y-92841067D01*
X144337290Y-92841080D01*
X144374060Y-92840194D01*
X144413775Y-92838377D01*
X144457113Y-92835599D01*
X144504746Y-92831829D01*
X144557352Y-92827037D01*
X144615605Y-92821192D01*
X144677125Y-92814600D01*
X144766165Y-92804237D01*
X144861639Y-92792018D01*
X144963193Y-92778007D01*
X145070469Y-92762269D01*
X145183115Y-92744868D01*
X145300774Y-92725867D01*
X145423091Y-92705332D01*
X145549712Y-92683326D01*
X145680280Y-92659914D01*
X145814441Y-92635160D01*
X145951840Y-92609128D01*
X146092121Y-92581882D01*
X146234930Y-92553486D01*
X146379911Y-92524006D01*
X146526709Y-92493505D01*
X146674969Y-92462046D01*
X146824335Y-92429696D01*
X146911972Y-92410408D01*
X146956466Y-92400554D01*
X146994684Y-92392267D01*
X147027258Y-92385680D01*
X147054823Y-92380928D01*
X147078011Y-92378146D01*
X147097455Y-92377468D01*
X147113788Y-92379028D01*
X147127642Y-92382962D01*
X147139652Y-92389404D01*
X147150449Y-92398488D01*
X147160667Y-92410348D01*
X147170938Y-92425120D01*
X147181896Y-92442938D01*
X147194174Y-92463936D01*
X147198453Y-92471295D01*
X147235722Y-92537072D01*
X147270654Y-92602322D01*
X147302855Y-92666214D01*
X147331929Y-92727915D01*
X147357481Y-92786594D01*
X147379117Y-92841419D01*
X147392982Y-92880859D01*
X147408442Y-92933272D01*
X147419158Y-92982184D01*
X147425158Y-93027367D01*
X147426469Y-93068594D01*
X147423119Y-93105635D01*
X147415134Y-93138262D01*
X147402543Y-93166247D01*
X147385372Y-93189362D01*
X147363649Y-93207378D01*
X147353124Y-93213395D01*
X147342991Y-93218154D01*
X147331941Y-93222524D01*
X147319615Y-93226533D01*
X147305657Y-93230209D01*
X147289709Y-93233581D01*
X147271413Y-93236677D01*
X147250414Y-93239524D01*
X147226352Y-93242152D01*
X147198872Y-93244587D01*
X147167615Y-93246859D01*
X147132225Y-93248995D01*
X147092343Y-93251023D01*
X147047613Y-93252973D01*
X146997677Y-93254871D01*
X146942178Y-93256746D01*
X146880759Y-93258626D01*
X146813062Y-93260540D01*
X146738731Y-93262515D01*
X146725000Y-93262869D01*
X146602923Y-93266207D01*
X146487344Y-93269786D01*
X146377707Y-93273639D01*
X146273456Y-93277794D01*
X146174037Y-93282284D01*
X146078895Y-93287138D01*
X145987474Y-93292388D01*
X145899219Y-93298064D01*
X145813574Y-93304196D01*
X145729985Y-93310816D01*
X145647897Y-93317954D01*
X145566754Y-93325640D01*
X145539667Y-93328345D01*
X145410967Y-93342177D01*
X145286502Y-93357273D01*
X145165523Y-93373805D01*
X145047281Y-93391941D01*
X144931028Y-93411851D01*
X144816016Y-93433705D01*
X144701496Y-93457671D01*
X144586721Y-93483920D01*
X144470941Y-93512620D01*
X144353408Y-93543942D01*
X144233373Y-93578054D01*
X144110090Y-93615127D01*
X143982808Y-93655329D01*
X143850780Y-93698830D01*
X143745792Y-93734551D01*
X143695932Y-93752059D01*
X143648400Y-93769485D01*
X143602527Y-93787150D01*
X143557643Y-93805374D01*
X143513080Y-93824476D01*
X143468167Y-93844779D01*
X143422235Y-93866601D01*
X143374615Y-93890263D01*
X143324637Y-93916085D01*
X143271633Y-93944388D01*
X143214932Y-93975492D01*
X143153865Y-94009717D01*
X143087763Y-94047384D01*
X143066694Y-94059493D01*
X143008073Y-94093223D01*
X142955102Y-94123651D01*
X142907334Y-94151025D01*
X142864321Y-94175591D01*
X142825616Y-94197596D01*
X142790771Y-94217287D01*
X142759338Y-94234910D01*
X142730870Y-94250714D01*
X142704919Y-94264944D01*
X142681037Y-94277848D01*
X142658777Y-94289672D01*
X142637692Y-94300664D01*
X142617332Y-94311070D01*
X142597252Y-94321138D01*
X142577003Y-94331113D01*
X142556138Y-94341244D01*
X142554306Y-94342128D01*
X142486867Y-94373565D01*
X142423250Y-94400819D01*
X142362082Y-94424282D01*
X142301992Y-94444345D01*
X142241609Y-94461402D01*
X142179560Y-94475844D01*
X142114474Y-94488064D01*
X142044978Y-94498454D01*
X141980139Y-94506279D01*
X141939152Y-94510039D01*
X141893206Y-94512999D01*
X141844358Y-94515105D01*
X141794663Y-94516301D01*
X141746179Y-94516532D01*
X141700962Y-94515744D01*
X141671458Y-94514508D01*
X141591912Y-94507865D01*
X141511456Y-94496743D01*
X141431278Y-94481443D01*
X141352567Y-94462263D01*
X141276511Y-94439501D01*
X141204298Y-94413456D01*
X141137116Y-94384427D01*
X141119008Y-94375625D01*
X141038028Y-94331372D01*
X140958806Y-94280408D01*
X140881482Y-94222893D01*
X140806195Y-94158983D01*
X140733086Y-94088836D01*
X140662295Y-94012610D01*
X140593960Y-93930463D01*
X140528223Y-93842552D01*
X140465222Y-93749036D01*
X140405097Y-93650070D01*
X140347989Y-93545814D01*
X140302897Y-93455201D01*
X140284559Y-93415287D01*
X140266937Y-93373922D01*
X140249526Y-93329814D01*
X140231819Y-93281672D01*
X140213310Y-93228204D01*
X140208965Y-93215250D01*
X140201296Y-93191804D01*
X140193193Y-93166214D01*
X140185008Y-93139673D01*
X140177093Y-93113373D01*
X140169801Y-93088508D01*
X140163485Y-93066269D01*
X140158496Y-93047848D01*
X140155187Y-93034440D01*
X140154378Y-93030558D01*
X140152209Y-93018996D01*
X139947595Y-92936428D01*
X139911615Y-92921883D01*
X139877607Y-92908085D01*
X139846132Y-92895266D01*
X139817748Y-92883654D01*
X139793014Y-92873480D01*
X139772490Y-92864974D01*
X139756734Y-92858367D01*
X139746307Y-92853889D01*
X139741768Y-92851769D01*
X139741619Y-92851656D01*
X139743960Y-92849006D01*
X139751162Y-92842050D01*
X139762812Y-92831163D01*
X139778495Y-92816724D01*
X139797797Y-92799108D01*
X139820304Y-92778694D01*
X139845601Y-92755859D01*
X139873274Y-92730979D01*
X139902909Y-92704432D01*
X139928286Y-92681769D01*
X139964302Y-92649640D01*
X139995416Y-92621846D01*
X140021998Y-92598033D01*
X140044415Y-92577848D01*
X140063038Y-92560935D01*
X140078235Y-92546942D01*
X140090376Y-92535513D01*
X140099830Y-92526294D01*
X140106965Y-92518931D01*
X140112152Y-92513071D01*
X140115759Y-92508358D01*
X140118156Y-92504439D01*
X140119712Y-92500959D01*
X140120795Y-92497565D01*
X140120979Y-92496897D01*
X140127388Y-92476348D01*
X140136490Y-92451398D01*
X140147560Y-92423816D01*
X140159874Y-92395375D01*
X140172705Y-92367843D01*
X140179300Y-92354554D01*
X140211749Y-92296345D01*
X140248977Y-92240220D01*
X140291666Y-92185249D01*
X140340499Y-92130502D01*
X140353642Y-92116849D01*
X140409151Y-92063310D01*
X140466431Y-92014827D01*
X140526685Y-91970531D01*
X140591117Y-91929557D01*
X140660931Y-91891037D01*
X140681917Y-91880420D01*
X140749971Y-91848548D01*
X140817985Y-91820713D01*
X140887187Y-91796541D01*
X140958807Y-91775659D01*
X141034072Y-91757692D01*
X141114212Y-91742268D01*
X141160680Y-91734752D01*
X141180516Y-91731832D01*
X141197844Y-91729566D01*
X141214061Y-91727870D01*
X141230562Y-91726659D01*
X141248742Y-91725848D01*
X141269998Y-91725355D01*
X141295724Y-91725094D01*
X141322208Y-91724991D01*
X141359423Y-91725069D01*
G36*
X150491912Y-91139328D02*
X150529087Y-91139340D01*
X150561821Y-91139366D01*
X150590406Y-91139411D01*
X150615137Y-91139481D01*
X150636306Y-91139581D01*
X150654208Y-91139715D01*
X150669136Y-91139889D01*
X150681384Y-91140109D01*
X150691247Y-91140379D01*
X150699017Y-91140705D01*
X150704988Y-91141092D01*
X150709454Y-91141544D01*
X150712709Y-91142067D01*
X150715046Y-91142667D01*
X150716760Y-91143349D01*
X150718032Y-91144048D01*
X150724217Y-91149369D01*
X150728517Y-91155738D01*
X150728618Y-91155984D01*
X150729468Y-91159432D01*
X150731162Y-91167481D01*
X150733633Y-91179785D01*
X150736816Y-91195999D01*
X150740644Y-91215777D01*
X150745052Y-91238772D01*
X150749972Y-91264640D01*
X150755339Y-91293034D01*
X150761087Y-91323609D01*
X150767150Y-91356019D01*
X150773461Y-91389918D01*
X150776888Y-91408396D01*
X150783321Y-91443102D01*
X150789535Y-91476614D01*
X150795466Y-91508574D01*
X150801046Y-91538625D01*
X150806209Y-91566411D01*
X150810889Y-91591572D01*
X150815018Y-91613753D01*
X150818531Y-91632596D01*
X150821362Y-91647743D01*
X150823443Y-91658837D01*
X150824708Y-91665522D01*
X150825013Y-91667096D01*
X150825885Y-91671591D01*
X150826785Y-91675572D01*
X150828016Y-91679199D01*
X150829879Y-91682631D01*
X150832678Y-91686027D01*
X150836715Y-91689546D01*
X150842292Y-91693349D01*
X150849712Y-91697593D01*
X150859277Y-91702440D01*
X150871290Y-91708046D01*
X150886054Y-91714573D01*
X150903871Y-91722180D01*
X150925043Y-91731025D01*
X150949873Y-91741268D01*
X150978663Y-91753068D01*
X151011716Y-91766586D01*
X151021628Y-91770639D01*
X151056076Y-91784740D01*
X151086188Y-91797060D01*
X151112294Y-91807692D01*
X151134727Y-91816727D01*
X151153816Y-91824258D01*
X151169894Y-91830378D01*
X151183292Y-91835177D01*
X151194341Y-91838748D01*
X151203372Y-91841184D01*
X151210717Y-91842576D01*
X151216707Y-91843017D01*
X151221673Y-91842599D01*
X151225947Y-91841413D01*
X151229860Y-91839553D01*
X151233743Y-91837110D01*
X151237927Y-91834176D01*
X151241390Y-91831759D01*
X151245895Y-91828675D01*
X151254234Y-91822960D01*
X151266094Y-91814828D01*
X151281161Y-91804496D01*
X151299123Y-91792176D01*
X151319666Y-91778085D01*
X151342477Y-91762437D01*
X151367244Y-91745447D01*
X151393652Y-91727329D01*
X151421388Y-91708299D01*
X151450140Y-91688571D01*
X151461367Y-91680867D01*
X151494967Y-91657819D01*
X151524678Y-91637457D01*
X151550756Y-91619616D01*
X151573454Y-91604130D01*
X151593028Y-91590833D01*
X151609732Y-91579561D01*
X151623819Y-91570146D01*
X151635546Y-91562424D01*
X151645166Y-91556229D01*
X151652934Y-91551394D01*
X151659104Y-91547754D01*
X151663931Y-91545144D01*
X151667669Y-91543398D01*
X151670573Y-91542350D01*
X151672897Y-91541833D01*
X151674895Y-91541684D01*
X151675110Y-91541683D01*
X151686011Y-91541683D01*
X151872758Y-91728429D01*
X151902582Y-91758256D01*
X151929048Y-91784738D01*
X151952358Y-91808086D01*
X151972712Y-91828513D01*
X151990310Y-91846229D01*
X152005352Y-91861445D01*
X152018040Y-91874372D01*
X152028573Y-91885223D01*
X152037152Y-91894207D01*
X152043977Y-91901537D01*
X152049249Y-91907423D01*
X152053168Y-91912076D01*
X152055935Y-91915708D01*
X152057749Y-91918530D01*
X152058812Y-91920754D01*
X152059323Y-91922589D01*
X152059484Y-91924249D01*
X152059495Y-91925217D01*
X152058249Y-91934021D01*
X152055215Y-91942217D01*
X152054773Y-91942985D01*
X152052686Y-91946153D01*
X152047958Y-91953162D01*
X152040798Y-91963709D01*
X152031414Y-91977491D01*
X152020012Y-91994203D01*
X152006801Y-92013542D01*
X151991987Y-92035204D01*
X151975780Y-92058884D01*
X151958385Y-92084279D01*
X151940012Y-92111086D01*
X151920866Y-92138999D01*
X151918179Y-92142916D01*
X151898759Y-92171219D01*
X151879948Y-92198639D01*
X151861966Y-92224850D01*
X151845037Y-92249529D01*
X151829383Y-92272353D01*
X151815226Y-92292997D01*
X151802787Y-92311137D01*
X151792289Y-92326450D01*
X151783954Y-92338611D01*
X151778005Y-92347297D01*
X151774663Y-92352184D01*
X151774525Y-92352386D01*
X151771271Y-92357029D01*
X151768436Y-92361113D01*
X151766117Y-92364966D01*
X151764410Y-92368916D01*
X151763412Y-92373290D01*
X151763218Y-92378418D01*
X151763927Y-92384628D01*
X151765635Y-92392247D01*
X151768437Y-92401604D01*
X151772431Y-92413027D01*
X151777713Y-92426845D01*
X151784381Y-92443385D01*
X151792529Y-92462975D01*
X151802256Y-92485945D01*
X151813657Y-92512621D01*
X151826830Y-92543333D01*
X151839234Y-92572256D01*
X151851459Y-92600761D01*
X151863181Y-92628056D01*
X151874240Y-92653768D01*
X151884475Y-92677524D01*
X151893723Y-92698952D01*
X151901825Y-92717678D01*
X151908620Y-92733330D01*
X151913945Y-92745536D01*
X151917640Y-92753921D01*
X151919544Y-92758114D01*
X151919671Y-92758370D01*
X151924634Y-92765307D01*
X151931041Y-92771298D01*
X151931084Y-92771329D01*
X151932257Y-92772180D01*
X151933418Y-92772962D01*
X151934835Y-92773728D01*
X151936774Y-92774531D01*
X151939505Y-92775425D01*
X151943294Y-92776463D01*
X151948410Y-92777699D01*
X151955119Y-92779185D01*
X151963691Y-92780974D01*
X151974392Y-92783121D01*
X151987490Y-92785678D01*
X152003253Y-92788699D01*
X152021948Y-92792236D01*
X152043845Y-92796344D01*
X152069209Y-92801075D01*
X152098308Y-92806483D01*
X152131412Y-92812621D01*
X152168786Y-92819543D01*
X152210700Y-92827300D01*
X152234287Y-92831666D01*
X152264902Y-92837339D01*
X152294300Y-92842800D01*
X152322076Y-92847972D01*
X152347820Y-92852779D01*
X152371124Y-92857143D01*
X152391580Y-92860989D01*
X152408782Y-92864240D01*
X152422319Y-92866819D01*
X152431786Y-92868650D01*
X152436773Y-92869656D01*
X152437099Y-92869729D01*
X152445862Y-92872846D01*
X152453200Y-92877326D01*
X152454703Y-92878716D01*
X152460623Y-92885018D01*
X152461262Y-93148246D01*
X152461362Y-93190381D01*
X152461443Y-93227778D01*
X152461500Y-93260730D01*
X152461528Y-93289530D01*
X152461523Y-93314469D01*
X152461481Y-93335841D01*
X152461396Y-93353938D01*
X152461265Y-93369052D01*
X152461083Y-93381475D01*
X152460845Y-93391500D01*
X152460546Y-93399419D01*
X152460183Y-93405525D01*
X152459751Y-93410110D01*
X152459245Y-93413466D01*
X152458660Y-93415886D01*
X152457993Y-93417663D01*
X152457238Y-93419088D01*
X152457056Y-93419389D01*
X152450775Y-93426182D01*
X152443843Y-93430019D01*
X152439972Y-93430937D01*
X152431590Y-93432681D01*
X152419132Y-93435167D01*
X152403035Y-93438312D01*
X152383733Y-93442032D01*
X152361662Y-93446243D01*
X152337258Y-93450861D01*
X152310957Y-93455803D01*
X152283193Y-93460984D01*
X152272010Y-93463062D01*
X152226078Y-93471585D01*
X152184833Y-93479241D01*
X152148017Y-93486081D01*
X152115370Y-93492152D01*
X152086635Y-93497503D01*
X152061553Y-93502184D01*
X152039865Y-93506244D01*
X152021313Y-93509731D01*
X152005637Y-93512695D01*
X151992580Y-93515184D01*
X151981883Y-93517248D01*
X151973287Y-93518935D01*
X151966533Y-93520294D01*
X151961364Y-93521375D01*
X151957520Y-93522226D01*
X151954743Y-93522896D01*
X151952774Y-93523435D01*
X151952077Y-93523649D01*
X151944794Y-93527446D01*
X151938208Y-93533110D01*
X151937927Y-93533437D01*
X151936055Y-93536873D01*
X151932476Y-93544645D01*
X151927329Y-93556416D01*
X151920757Y-93571844D01*
X151912901Y-93590589D01*
X151903901Y-93612313D01*
X151893899Y-93636674D01*
X151883037Y-93663333D01*
X151871454Y-93691951D01*
X151859294Y-93722186D01*
X151853193Y-93737423D01*
X151839259Y-93772282D01*
X151827081Y-93802781D01*
X151816543Y-93829233D01*
X151807533Y-93851948D01*
X151799936Y-93871239D01*
X151793639Y-93887415D01*
X151788527Y-93900787D01*
X151784487Y-93911668D01*
X151781406Y-93920367D01*
X151779168Y-93927196D01*
X151777661Y-93932467D01*
X151776770Y-93936489D01*
X151776381Y-93939575D01*
X151776382Y-93942035D01*
X151776657Y-93944180D01*
X151776961Y-93945703D01*
X151777914Y-93948459D01*
X151779976Y-93952672D01*
X151783294Y-93958563D01*
X151788016Y-93966354D01*
X151794288Y-93976268D01*
X151802257Y-93988525D01*
X151812070Y-94003349D01*
X151823875Y-94020961D01*
X151837818Y-94041583D01*
X151854045Y-94065436D01*
X151872705Y-94092743D01*
X151893943Y-94123726D01*
X151917907Y-94158606D01*
X151918620Y-94159643D01*
X151938339Y-94188371D01*
X151957248Y-94216022D01*
X151975151Y-94242303D01*
X151991851Y-94266922D01*
X152007151Y-94289585D01*
X152020857Y-94310000D01*
X152032771Y-94327874D01*
X152042698Y-94342914D01*
X152050441Y-94354828D01*
X152055804Y-94363324D01*
X152058590Y-94368107D01*
X152058951Y-94368972D01*
X152059189Y-94376912D01*
X152058379Y-94382804D01*
X152056445Y-94385722D01*
X152051277Y-94391774D01*
X152042837Y-94401002D01*
X152031086Y-94413444D01*
X152015985Y-94429142D01*
X151997494Y-94448136D01*
X151975575Y-94470466D01*
X151950189Y-94496172D01*
X151921296Y-94525294D01*
X151888858Y-94557873D01*
X151875143Y-94571619D01*
X151849929Y-94596847D01*
X151825621Y-94621107D01*
X151802468Y-94644157D01*
X151780714Y-94665753D01*
X151760608Y-94685654D01*
X151742395Y-94703615D01*
X151726321Y-94719396D01*
X151712634Y-94732752D01*
X151701579Y-94743442D01*
X151693404Y-94751223D01*
X151688354Y-94755851D01*
X151686803Y-94757089D01*
X151676833Y-94760352D01*
X151666612Y-94759312D01*
X151655289Y-94753848D01*
X151653010Y-94752346D01*
X151649136Y-94749695D01*
X151641436Y-94744419D01*
X151630229Y-94736737D01*
X151615836Y-94726870D01*
X151598578Y-94715037D01*
X151578776Y-94701458D01*
X151556749Y-94686352D01*
X151532818Y-94669940D01*
X151507305Y-94652442D01*
X151480529Y-94634077D01*
X151455940Y-94617211D01*
X151428417Y-94598348D01*
X151401938Y-94580232D01*
X151376816Y-94563074D01*
X151353363Y-94547087D01*
X151331892Y-94532482D01*
X151312716Y-94519473D01*
X151296147Y-94508271D01*
X151282498Y-94499088D01*
X151272082Y-94492136D01*
X151265212Y-94487629D01*
X151262297Y-94485825D01*
X151250483Y-94482294D01*
X151244107Y-94482398D01*
X151239402Y-94483917D01*
X151230635Y-94487726D01*
X151218135Y-94493662D01*
X151202231Y-94501562D01*
X151183253Y-94511264D01*
X151161529Y-94522606D01*
X151144559Y-94531596D01*
X151120834Y-94544199D01*
X151101102Y-94554565D01*
X151084942Y-94562860D01*
X151071927Y-94569252D01*
X151061636Y-94573908D01*
X151053644Y-94576995D01*
X151047526Y-94578680D01*
X151042861Y-94579131D01*
X151039223Y-94578513D01*
X151036189Y-94576994D01*
X151033889Y-94575222D01*
X151032309Y-94572374D01*
X151028885Y-94565011D01*
X151023675Y-94553274D01*
X151016737Y-94537305D01*
X151008133Y-94517245D01*
X150997920Y-94493234D01*
X150986159Y-94465413D01*
X150972908Y-94433924D01*
X150958227Y-94398906D01*
X150942175Y-94360501D01*
X150924812Y-94318850D01*
X150906196Y-94274094D01*
X150886388Y-94226374D01*
X150865446Y-94175830D01*
X150848588Y-94135080D01*
X150826707Y-94082154D01*
X150806672Y-94033674D01*
X150788403Y-93989444D01*
X150771821Y-93949263D01*
X150756845Y-93912932D01*
X150743396Y-93880253D01*
X150731395Y-93851026D01*
X150720763Y-93825052D01*
X150711419Y-93802131D01*
X150703285Y-93782066D01*
X150696280Y-93764657D01*
X150690325Y-93749704D01*
X150685342Y-93737009D01*
X150681249Y-93726373D01*
X150677968Y-93717595D01*
X150675419Y-93710478D01*
X150673522Y-93704823D01*
X150672199Y-93700429D01*
X150671369Y-93697099D01*
X150670953Y-93694632D01*
X150670871Y-93692830D01*
X150671045Y-93691494D01*
X150671199Y-93690950D01*
X150673599Y-93685298D01*
X150677242Y-93680243D01*
X150682912Y-93675085D01*
X150691395Y-93669125D01*
X150703475Y-93661663D01*
X150705257Y-93660602D01*
X150717135Y-93653219D01*
X150730052Y-93644680D01*
X150741491Y-93636656D01*
X150742980Y-93635558D01*
X150752649Y-93628368D01*
X150764572Y-93619506D01*
X150776963Y-93610299D01*
X150784475Y-93604719D01*
X150825725Y-93570988D01*
X150863516Y-93533697D01*
X150897598Y-93493121D01*
X150927724Y-93449533D01*
X150933524Y-93440024D01*
X150956301Y-93397314D01*
X150975628Y-93351638D01*
X150991173Y-93303973D01*
X151002607Y-93255300D01*
X151008232Y-93219155D01*
X151009830Y-93200627D01*
X151010694Y-93178600D01*
X151010850Y-93154549D01*
X151010321Y-93129948D01*
X151009129Y-93106271D01*
X151007300Y-93084991D01*
X151005914Y-93074045D01*
X150995747Y-93021737D01*
X150980996Y-92971214D01*
X150961839Y-92922723D01*
X150938456Y-92876508D01*
X150911024Y-92832817D01*
X150879724Y-92791897D01*
X150844732Y-92753992D01*
X150806229Y-92719350D01*
X150764393Y-92688217D01*
X150719403Y-92660840D01*
X150697977Y-92649712D01*
X150650646Y-92628956D01*
X150602462Y-92612984D01*
X150553044Y-92601707D01*
X150502010Y-92595039D01*
X150450000Y-92592891D01*
X150404843Y-92594365D01*
X150362475Y-92598928D01*
X150321562Y-92606788D01*
X150280769Y-92618152D01*
X150273960Y-92620378D01*
X150224705Y-92639370D01*
X150177852Y-92662596D01*
X150133643Y-92689815D01*
X150092319Y-92720788D01*
X150054122Y-92755275D01*
X150019295Y-92793036D01*
X149988078Y-92833832D01*
X149960714Y-92877422D01*
X149937445Y-92923567D01*
X149918512Y-92972026D01*
X149918074Y-92973329D01*
X149906907Y-93010050D01*
X149898666Y-93045126D01*
X149893102Y-93080130D01*
X149889965Y-93116637D01*
X149889004Y-93156084D01*
X149889990Y-93193824D01*
X149893057Y-93228572D01*
X149898476Y-93262030D01*
X149906521Y-93295900D01*
X149916756Y-93329742D01*
X149935700Y-93379412D01*
X149958995Y-93426635D01*
X149986490Y-93471205D01*
X150018038Y-93512917D01*
X150053490Y-93551564D01*
X150092697Y-93586943D01*
X150115524Y-93604723D01*
X150126681Y-93612991D01*
X150137963Y-93621394D01*
X150147838Y-93628788D01*
X150153247Y-93632869D01*
X150161470Y-93638763D01*
X150172332Y-93646081D01*
X150184134Y-93653693D01*
X150190970Y-93657937D01*
X150204169Y-93666145D01*
X150213686Y-93672542D01*
X150220241Y-93677755D01*
X150224550Y-93682410D01*
X150227333Y-93687134D01*
X150228805Y-93690963D01*
X150229075Y-93692144D01*
X150229131Y-93693689D01*
X150228892Y-93695799D01*
X150228280Y-93698672D01*
X150227214Y-93702506D01*
X150225615Y-93707503D01*
X150223404Y-93713860D01*
X150220501Y-93721776D01*
X150216826Y-93731451D01*
X150212300Y-93743084D01*
X150206844Y-93756874D01*
X150200377Y-93773020D01*
X150192821Y-93791722D01*
X150184096Y-93813177D01*
X150174121Y-93837586D01*
X150162819Y-93865148D01*
X150150108Y-93896061D01*
X150135911Y-93930526D01*
X150120146Y-93968740D01*
X150102735Y-94010903D01*
X150083598Y-94057214D01*
X150062655Y-94107873D01*
X150051400Y-94135093D01*
X150029840Y-94187188D01*
X150009326Y-94236673D01*
X149989918Y-94283400D01*
X149971680Y-94327222D01*
X149954674Y-94367990D01*
X149938960Y-94405558D01*
X149924603Y-94439776D01*
X149911664Y-94470499D01*
X149900205Y-94497577D01*
X149890288Y-94520864D01*
X149881976Y-94540211D01*
X149875331Y-94555471D01*
X149870415Y-94566495D01*
X149867290Y-94573138D01*
X149866094Y-94575222D01*
X149859755Y-94578499D01*
X149853425Y-94579623D01*
X149848868Y-94578370D01*
X149840014Y-94574631D01*
X149826924Y-94568434D01*
X149809655Y-94559809D01*
X149788269Y-94548785D01*
X149762823Y-94535390D01*
X149756253Y-94531898D01*
X149736434Y-94521410D01*
X149717737Y-94511640D01*
X149700684Y-94502852D01*
X149685798Y-94495310D01*
X149673603Y-94489279D01*
X149664622Y-94485022D01*
X149659377Y-94482804D01*
X149658575Y-94482569D01*
X149650146Y-94482265D01*
X149642779Y-94483666D01*
X149639584Y-94485468D01*
X149632560Y-94489915D01*
X149622019Y-94496797D01*
X149608271Y-94505905D01*
X149591630Y-94517028D01*
X149572407Y-94529958D01*
X149550914Y-94544484D01*
X149527463Y-94560396D01*
X149502365Y-94577486D01*
X149475933Y-94595542D01*
X149452155Y-94611834D01*
X149424535Y-94630782D01*
X149397794Y-94649127D01*
X149372265Y-94666639D01*
X149348281Y-94683089D01*
X149326177Y-94698249D01*
X149306285Y-94711890D01*
X149288940Y-94723784D01*
X149274475Y-94733700D01*
X149263223Y-94741411D01*
X149255520Y-94746688D01*
X149252143Y-94748997D01*
X149240080Y-94756348D01*
X149230284Y-94760042D01*
X149221756Y-94760249D01*
X149213499Y-94757140D01*
X149211435Y-94755912D01*
X149208636Y-94753496D01*
X149202539Y-94747759D01*
X149193394Y-94738946D01*
X149181448Y-94727303D01*
X149166951Y-94713076D01*
X149150151Y-94696510D01*
X149131297Y-94677851D01*
X149110638Y-94657345D01*
X149088423Y-94635237D01*
X149064900Y-94611772D01*
X149040318Y-94587196D01*
X149023599Y-94570451D01*
X148989864Y-94536593D01*
X148959690Y-94506208D01*
X148933039Y-94479257D01*
X148909874Y-94455702D01*
X148890155Y-94435503D01*
X148873845Y-94418619D01*
X148860905Y-94405013D01*
X148851297Y-94394645D01*
X148844984Y-94387474D01*
X148841926Y-94383463D01*
X148841620Y-94382804D01*
X148840720Y-94374838D01*
X148841035Y-94368972D01*
X148842592Y-94365961D01*
X148846814Y-94359106D01*
X148853504Y-94348700D01*
X148862468Y-94335035D01*
X148873508Y-94318405D01*
X148886428Y-94299102D01*
X148901032Y-94277418D01*
X148917124Y-94253647D01*
X148934507Y-94228081D01*
X148952986Y-94201013D01*
X148972364Y-94172735D01*
X148981360Y-94159643D01*
X149005411Y-94124639D01*
X149026733Y-94093539D01*
X149045470Y-94066121D01*
X149061771Y-94042165D01*
X149075781Y-94021447D01*
X149087648Y-94003747D01*
X149097518Y-93988844D01*
X149105539Y-93976515D01*
X149111856Y-93966539D01*
X149116616Y-93958694D01*
X149119967Y-93952759D01*
X149122054Y-93948513D01*
X149123025Y-93945733D01*
X149123032Y-93945703D01*
X149123436Y-93943591D01*
X149123648Y-93941390D01*
X149123553Y-93938789D01*
X149123037Y-93935475D01*
X149121987Y-93931139D01*
X149120289Y-93925468D01*
X149117829Y-93918151D01*
X149114492Y-93908877D01*
X149110166Y-93897335D01*
X149104736Y-93883213D01*
X149098087Y-93866201D01*
X149090107Y-93845986D01*
X149080682Y-93822258D01*
X149069696Y-93794705D01*
X149057038Y-93763017D01*
X149046905Y-93737669D01*
X149034860Y-93707618D01*
X149023256Y-93678812D01*
X149012239Y-93651606D01*
X149001957Y-93626358D01*
X148992556Y-93603425D01*
X148984185Y-93583164D01*
X148976989Y-93565931D01*
X148971117Y-93552083D01*
X148966716Y-93541977D01*
X148963932Y-93535970D01*
X148963088Y-93534467D01*
X148956838Y-93528611D01*
X148950097Y-93524588D01*
X148946559Y-93523678D01*
X148938425Y-93521925D01*
X148926048Y-93519397D01*
X148909779Y-93516162D01*
X148889970Y-93512289D01*
X148866973Y-93507844D01*
X148841139Y-93502896D01*
X148812820Y-93497512D01*
X148782367Y-93491761D01*
X148750133Y-93485710D01*
X148716468Y-93479427D01*
X148703435Y-93477004D01*
X148669307Y-93470655D01*
X148636465Y-93464523D01*
X148605261Y-93458675D01*
X148576049Y-93453179D01*
X148549181Y-93448101D01*
X148525011Y-93443509D01*
X148503890Y-93439469D01*
X148486171Y-93436049D01*
X148472208Y-93433316D01*
X148462352Y-93431337D01*
X148456958Y-93430179D01*
X148456157Y-93429970D01*
X148448245Y-93425394D01*
X148442943Y-93419389D01*
X148442168Y-93418002D01*
X148441481Y-93416330D01*
X148440879Y-93414080D01*
X148440355Y-93410959D01*
X148439907Y-93406675D01*
X148439529Y-93400936D01*
X148439216Y-93393449D01*
X148438965Y-93383921D01*
X148438771Y-93372061D01*
X148438628Y-93357577D01*
X148438534Y-93340175D01*
X148438482Y-93319563D01*
X148438470Y-93295449D01*
X148438491Y-93267540D01*
X148438541Y-93235545D01*
X148438617Y-93199170D01*
X148438713Y-93158123D01*
X148438737Y-93148246D01*
X148439376Y-92885018D01*
X148445371Y-92878637D01*
X148446249Y-92877558D01*
X148446863Y-92876630D01*
X148447492Y-92875794D01*
X148448412Y-92874993D01*
X148449901Y-92874170D01*
X148452235Y-92873267D01*
X148455692Y-92872228D01*
X148460550Y-92870993D01*
X148467085Y-92869507D01*
X148475575Y-92867712D01*
X148486297Y-92865550D01*
X148499528Y-92862964D01*
X148515546Y-92859897D01*
X148534627Y-92856290D01*
X148557049Y-92852087D01*
X148583089Y-92847231D01*
X148613025Y-92841663D01*
X148647133Y-92835327D01*
X148685691Y-92828165D01*
X148719033Y-92821969D01*
X148759894Y-92814373D01*
X148796104Y-92807633D01*
X148827952Y-92801678D01*
X148855730Y-92796438D01*
X148879729Y-92791841D01*
X148900240Y-92787816D01*
X148917555Y-92784294D01*
X148931964Y-92781202D01*
X148943759Y-92778470D01*
X148953232Y-92776027D01*
X148960672Y-92773802D01*
X148966372Y-92771724D01*
X148970622Y-92769723D01*
X148973714Y-92767728D01*
X148975938Y-92765667D01*
X148977587Y-92763470D01*
X148978951Y-92761066D01*
X148980321Y-92758384D01*
X148980328Y-92758370D01*
X148981932Y-92754878D01*
X148985354Y-92747134D01*
X148990431Y-92735510D01*
X148997002Y-92720381D01*
X149004907Y-92702119D01*
X149013985Y-92681096D01*
X149024073Y-92657685D01*
X149035012Y-92632259D01*
X149046640Y-92605190D01*
X149058795Y-92576853D01*
X149060765Y-92572256D01*
X149075488Y-92537931D01*
X149088358Y-92507914D01*
X149099474Y-92481878D01*
X149108931Y-92459494D01*
X149116826Y-92440435D01*
X149123256Y-92424371D01*
X149128317Y-92410975D01*
X149132107Y-92399918D01*
X149134721Y-92390873D01*
X149136256Y-92383511D01*
X149136809Y-92377503D01*
X149136477Y-92372522D01*
X149135356Y-92368240D01*
X149133543Y-92364328D01*
X149131134Y-92360457D01*
X149128226Y-92356301D01*
X149125494Y-92352386D01*
X149122369Y-92347811D01*
X149116618Y-92339410D01*
X149108463Y-92327505D01*
X149098122Y-92312415D01*
X149085816Y-92294463D01*
X149071766Y-92273969D01*
X149056191Y-92251255D01*
X149039312Y-92226642D01*
X149021348Y-92200451D01*
X149002521Y-92173003D01*
X148983050Y-92144620D01*
X148980030Y-92140217D01*
X148960707Y-92112039D01*
X148942160Y-92084966D01*
X148924592Y-92059298D01*
X148908206Y-92035329D01*
X148893202Y-92013359D01*
X148879785Y-91993683D01*
X148868157Y-91976599D01*
X148858520Y-91962404D01*
X148851077Y-91951394D01*
X148846030Y-91943867D01*
X148843582Y-91940120D01*
X148843407Y-91939823D01*
X148841443Y-91933596D01*
X148840507Y-91925669D01*
X148840495Y-91924753D01*
X148840576Y-91923141D01*
X148840955Y-91921404D01*
X148841831Y-91919332D01*
X148843405Y-91916714D01*
X148845877Y-91913339D01*
X148849448Y-91908996D01*
X148854318Y-91903476D01*
X148860686Y-91896567D01*
X148868754Y-91888059D01*
X148878723Y-91877740D01*
X148890791Y-91865402D01*
X148905160Y-91850832D01*
X148922031Y-91833820D01*
X148941602Y-91814155D01*
X148964076Y-91791628D01*
X148989652Y-91766027D01*
X149018530Y-91737141D01*
X149027241Y-91728429D01*
X149213988Y-91541683D01*
X149224972Y-91541683D01*
X149226369Y-91541594D01*
X149227491Y-91541417D01*
X149228543Y-91541286D01*
X149229727Y-91541335D01*
X149231247Y-91541700D01*
X149233305Y-91542514D01*
X149236105Y-91543912D01*
X149239851Y-91546028D01*
X149244744Y-91548997D01*
X149250989Y-91552953D01*
X149258789Y-91558030D01*
X149268346Y-91564364D01*
X149279864Y-91572087D01*
X149293546Y-91581336D01*
X149309595Y-91592243D01*
X149328215Y-91604944D01*
X149349608Y-91619574D01*
X149373978Y-91636265D01*
X149401528Y-91655153D01*
X149432460Y-91676373D01*
X149466979Y-91700058D01*
X149505287Y-91726344D01*
X149538033Y-91748809D01*
X149565331Y-91767530D01*
X149588804Y-91783605D01*
X149608772Y-91797235D01*
X149625556Y-91808622D01*
X149639475Y-91817967D01*
X149650851Y-91825472D01*
X149660003Y-91831339D01*
X149667253Y-91835769D01*
X149672919Y-91838963D01*
X149677323Y-91841124D01*
X149680786Y-91842454D01*
X149683627Y-91843152D01*
X149686166Y-91843422D01*
X149688451Y-91843465D01*
X149691406Y-91843229D01*
X149695398Y-91842441D01*
X149700742Y-91840979D01*
X149707755Y-91838723D01*
X149716754Y-91835553D01*
X149728054Y-91831347D01*
X149741972Y-91825985D01*
X149758824Y-91819345D01*
X149778927Y-91811308D01*
X149802596Y-91801752D01*
X149830148Y-91790556D01*
X149861900Y-91777600D01*
X149876141Y-91771777D01*
X149904446Y-91760172D01*
X149931495Y-91749031D01*
X149956912Y-91738511D01*
X149980319Y-91728772D01*
X150001341Y-91719970D01*
X150019601Y-91712266D01*
X150034722Y-91705816D01*
X150046327Y-91700779D01*
X150054041Y-91697313D01*
X150057486Y-91695577D01*
X150057527Y-91695547D01*
X150059785Y-91693863D01*
X150061830Y-91692155D01*
X150063729Y-91690136D01*
X150065547Y-91687517D01*
X150067351Y-91684014D01*
X150069207Y-91679338D01*
X150071181Y-91673203D01*
X150073339Y-91665322D01*
X150075747Y-91655407D01*
X150078471Y-91643173D01*
X150081577Y-91628331D01*
X150085131Y-91610596D01*
X150089200Y-91589680D01*
X150093849Y-91565296D01*
X150099144Y-91537158D01*
X150105152Y-91504977D01*
X150111939Y-91468468D01*
X150119570Y-91427344D01*
X150120771Y-91420869D01*
X150127357Y-91385447D01*
X150133728Y-91351329D01*
X150139819Y-91318850D01*
X150145567Y-91288348D01*
X150150907Y-91260159D01*
X150155774Y-91234620D01*
X150160105Y-91212068D01*
X150163834Y-91192838D01*
X150166898Y-91177269D01*
X150169233Y-91165695D01*
X150170773Y-91158455D01*
X150171400Y-91155984D01*
X150175549Y-91149638D01*
X150181701Y-91144214D01*
X150181968Y-91144048D01*
X150183368Y-91143288D01*
X150185123Y-91142614D01*
X150187526Y-91142020D01*
X150190872Y-91141503D01*
X150195454Y-91141056D01*
X150201565Y-91140675D01*
X150209501Y-91140354D01*
X150219553Y-91140089D01*
X150232017Y-91139873D01*
X150247185Y-91139702D01*
X150265351Y-91139571D01*
X150286810Y-91139474D01*
X150311855Y-91139406D01*
X150340779Y-91139363D01*
X150373876Y-91139338D01*
X150411441Y-91139328D01*
X150450000Y-91139325D01*
X150491912Y-91139328D01*
X150491912Y-91139328D01*
G37*
X150491912Y-91139328D02*
X150529087Y-91139340D01*
X150561821Y-91139366D01*
X150590406Y-91139411D01*
X150615137Y-91139481D01*
X150636306Y-91139581D01*
X150654208Y-91139715D01*
X150669136Y-91139889D01*
X150681384Y-91140109D01*
X150691247Y-91140379D01*
X150699017Y-91140705D01*
X150704988Y-91141092D01*
X150709454Y-91141544D01*
X150712709Y-91142067D01*
X150715046Y-91142667D01*
X150716760Y-91143349D01*
X150718032Y-91144048D01*
X150724217Y-91149369D01*
X150728517Y-91155738D01*
X150728618Y-91155984D01*
X150729468Y-91159432D01*
X150731162Y-91167481D01*
X150733633Y-91179785D01*
X150736816Y-91195999D01*
X150740644Y-91215777D01*
X150745052Y-91238772D01*
X150749972Y-91264640D01*
X150755339Y-91293034D01*
X150761087Y-91323609D01*
X150767150Y-91356019D01*
X150773461Y-91389918D01*
X150776888Y-91408396D01*
X150783321Y-91443102D01*
X150789535Y-91476614D01*
X150795466Y-91508574D01*
X150801046Y-91538625D01*
X150806209Y-91566411D01*
X150810889Y-91591572D01*
X150815018Y-91613753D01*
X150818531Y-91632596D01*
X150821362Y-91647743D01*
X150823443Y-91658837D01*
X150824708Y-91665522D01*
X150825013Y-91667096D01*
X150825885Y-91671591D01*
X150826785Y-91675572D01*
X150828016Y-91679199D01*
X150829879Y-91682631D01*
X150832678Y-91686027D01*
X150836715Y-91689546D01*
X150842292Y-91693349D01*
X150849712Y-91697593D01*
X150859277Y-91702440D01*
X150871290Y-91708046D01*
X150886054Y-91714573D01*
X150903871Y-91722180D01*
X150925043Y-91731025D01*
X150949873Y-91741268D01*
X150978663Y-91753068D01*
X151011716Y-91766586D01*
X151021628Y-91770639D01*
X151056076Y-91784740D01*
X151086188Y-91797060D01*
X151112294Y-91807692D01*
X151134727Y-91816727D01*
X151153816Y-91824258D01*
X151169894Y-91830378D01*
X151183292Y-91835177D01*
X151194341Y-91838748D01*
X151203372Y-91841184D01*
X151210717Y-91842576D01*
X151216707Y-91843017D01*
X151221673Y-91842599D01*
X151225947Y-91841413D01*
X151229860Y-91839553D01*
X151233743Y-91837110D01*
X151237927Y-91834176D01*
X151241390Y-91831759D01*
X151245895Y-91828675D01*
X151254234Y-91822960D01*
X151266094Y-91814828D01*
X151281161Y-91804496D01*
X151299123Y-91792176D01*
X151319666Y-91778085D01*
X151342477Y-91762437D01*
X151367244Y-91745447D01*
X151393652Y-91727329D01*
X151421388Y-91708299D01*
X151450140Y-91688571D01*
X151461367Y-91680867D01*
X151494967Y-91657819D01*
X151524678Y-91637457D01*
X151550756Y-91619616D01*
X151573454Y-91604130D01*
X151593028Y-91590833D01*
X151609732Y-91579561D01*
X151623819Y-91570146D01*
X151635546Y-91562424D01*
X151645166Y-91556229D01*
X151652934Y-91551394D01*
X151659104Y-91547754D01*
X151663931Y-91545144D01*
X151667669Y-91543398D01*
X151670573Y-91542350D01*
X151672897Y-91541833D01*
X151674895Y-91541684D01*
X151675110Y-91541683D01*
X151686011Y-91541683D01*
X151872758Y-91728429D01*
X151902582Y-91758256D01*
X151929048Y-91784738D01*
X151952358Y-91808086D01*
X151972712Y-91828513D01*
X151990310Y-91846229D01*
X152005352Y-91861445D01*
X152018040Y-91874372D01*
X152028573Y-91885223D01*
X152037152Y-91894207D01*
X152043977Y-91901537D01*
X152049249Y-91907423D01*
X152053168Y-91912076D01*
X152055935Y-91915708D01*
X152057749Y-91918530D01*
X152058812Y-91920754D01*
X152059323Y-91922589D01*
X152059484Y-91924249D01*
X152059495Y-91925217D01*
X152058249Y-91934021D01*
X152055215Y-91942217D01*
X152054773Y-91942985D01*
X152052686Y-91946153D01*
X152047958Y-91953162D01*
X152040798Y-91963709D01*
X152031414Y-91977491D01*
X152020012Y-91994203D01*
X152006801Y-92013542D01*
X151991987Y-92035204D01*
X151975780Y-92058884D01*
X151958385Y-92084279D01*
X151940012Y-92111086D01*
X151920866Y-92138999D01*
X151918179Y-92142916D01*
X151898759Y-92171219D01*
X151879948Y-92198639D01*
X151861966Y-92224850D01*
X151845037Y-92249529D01*
X151829383Y-92272353D01*
X151815226Y-92292997D01*
X151802787Y-92311137D01*
X151792289Y-92326450D01*
X151783954Y-92338611D01*
X151778005Y-92347297D01*
X151774663Y-92352184D01*
X151774525Y-92352386D01*
X151771271Y-92357029D01*
X151768436Y-92361113D01*
X151766117Y-92364966D01*
X151764410Y-92368916D01*
X151763412Y-92373290D01*
X151763218Y-92378418D01*
X151763927Y-92384628D01*
X151765635Y-92392247D01*
X151768437Y-92401604D01*
X151772431Y-92413027D01*
X151777713Y-92426845D01*
X151784381Y-92443385D01*
X151792529Y-92462975D01*
X151802256Y-92485945D01*
X151813657Y-92512621D01*
X151826830Y-92543333D01*
X151839234Y-92572256D01*
X151851459Y-92600761D01*
X151863181Y-92628056D01*
X151874240Y-92653768D01*
X151884475Y-92677524D01*
X151893723Y-92698952D01*
X151901825Y-92717678D01*
X151908620Y-92733330D01*
X151913945Y-92745536D01*
X151917640Y-92753921D01*
X151919544Y-92758114D01*
X151919671Y-92758370D01*
X151924634Y-92765307D01*
X151931041Y-92771298D01*
X151931084Y-92771329D01*
X151932257Y-92772180D01*
X151933418Y-92772962D01*
X151934835Y-92773728D01*
X151936774Y-92774531D01*
X151939505Y-92775425D01*
X151943294Y-92776463D01*
X151948410Y-92777699D01*
X151955119Y-92779185D01*
X151963691Y-92780974D01*
X151974392Y-92783121D01*
X151987490Y-92785678D01*
X152003253Y-92788699D01*
X152021948Y-92792236D01*
X152043845Y-92796344D01*
X152069209Y-92801075D01*
X152098308Y-92806483D01*
X152131412Y-92812621D01*
X152168786Y-92819543D01*
X152210700Y-92827300D01*
X152234287Y-92831666D01*
X152264902Y-92837339D01*
X152294300Y-92842800D01*
X152322076Y-92847972D01*
X152347820Y-92852779D01*
X152371124Y-92857143D01*
X152391580Y-92860989D01*
X152408782Y-92864240D01*
X152422319Y-92866819D01*
X152431786Y-92868650D01*
X152436773Y-92869656D01*
X152437099Y-92869729D01*
X152445862Y-92872846D01*
X152453200Y-92877326D01*
X152454703Y-92878716D01*
X152460623Y-92885018D01*
X152461262Y-93148246D01*
X152461362Y-93190381D01*
X152461443Y-93227778D01*
X152461500Y-93260730D01*
X152461528Y-93289530D01*
X152461523Y-93314469D01*
X152461481Y-93335841D01*
X152461396Y-93353938D01*
X152461265Y-93369052D01*
X152461083Y-93381475D01*
X152460845Y-93391500D01*
X152460546Y-93399419D01*
X152460183Y-93405525D01*
X152459751Y-93410110D01*
X152459245Y-93413466D01*
X152458660Y-93415886D01*
X152457993Y-93417663D01*
X152457238Y-93419088D01*
X152457056Y-93419389D01*
X152450775Y-93426182D01*
X152443843Y-93430019D01*
X152439972Y-93430937D01*
X152431590Y-93432681D01*
X152419132Y-93435167D01*
X152403035Y-93438312D01*
X152383733Y-93442032D01*
X152361662Y-93446243D01*
X152337258Y-93450861D01*
X152310957Y-93455803D01*
X152283193Y-93460984D01*
X152272010Y-93463062D01*
X152226078Y-93471585D01*
X152184833Y-93479241D01*
X152148017Y-93486081D01*
X152115370Y-93492152D01*
X152086635Y-93497503D01*
X152061553Y-93502184D01*
X152039865Y-93506244D01*
X152021313Y-93509731D01*
X152005637Y-93512695D01*
X151992580Y-93515184D01*
X151981883Y-93517248D01*
X151973287Y-93518935D01*
X151966533Y-93520294D01*
X151961364Y-93521375D01*
X151957520Y-93522226D01*
X151954743Y-93522896D01*
X151952774Y-93523435D01*
X151952077Y-93523649D01*
X151944794Y-93527446D01*
X151938208Y-93533110D01*
X151937927Y-93533437D01*
X151936055Y-93536873D01*
X151932476Y-93544645D01*
X151927329Y-93556416D01*
X151920757Y-93571844D01*
X151912901Y-93590589D01*
X151903901Y-93612313D01*
X151893899Y-93636674D01*
X151883037Y-93663333D01*
X151871454Y-93691951D01*
X151859294Y-93722186D01*
X151853193Y-93737423D01*
X151839259Y-93772282D01*
X151827081Y-93802781D01*
X151816543Y-93829233D01*
X151807533Y-93851948D01*
X151799936Y-93871239D01*
X151793639Y-93887415D01*
X151788527Y-93900787D01*
X151784487Y-93911668D01*
X151781406Y-93920367D01*
X151779168Y-93927196D01*
X151777661Y-93932467D01*
X151776770Y-93936489D01*
X151776381Y-93939575D01*
X151776382Y-93942035D01*
X151776657Y-93944180D01*
X151776961Y-93945703D01*
X151777914Y-93948459D01*
X151779976Y-93952672D01*
X151783294Y-93958563D01*
X151788016Y-93966354D01*
X151794288Y-93976268D01*
X151802257Y-93988525D01*
X151812070Y-94003349D01*
X151823875Y-94020961D01*
X151837818Y-94041583D01*
X151854045Y-94065436D01*
X151872705Y-94092743D01*
X151893943Y-94123726D01*
X151917907Y-94158606D01*
X151918620Y-94159643D01*
X151938339Y-94188371D01*
X151957248Y-94216022D01*
X151975151Y-94242303D01*
X151991851Y-94266922D01*
X152007151Y-94289585D01*
X152020857Y-94310000D01*
X152032771Y-94327874D01*
X152042698Y-94342914D01*
X152050441Y-94354828D01*
X152055804Y-94363324D01*
X152058590Y-94368107D01*
X152058951Y-94368972D01*
X152059189Y-94376912D01*
X152058379Y-94382804D01*
X152056445Y-94385722D01*
X152051277Y-94391774D01*
X152042837Y-94401002D01*
X152031086Y-94413444D01*
X152015985Y-94429142D01*
X151997494Y-94448136D01*
X151975575Y-94470466D01*
X151950189Y-94496172D01*
X151921296Y-94525294D01*
X151888858Y-94557873D01*
X151875143Y-94571619D01*
X151849929Y-94596847D01*
X151825621Y-94621107D01*
X151802468Y-94644157D01*
X151780714Y-94665753D01*
X151760608Y-94685654D01*
X151742395Y-94703615D01*
X151726321Y-94719396D01*
X151712634Y-94732752D01*
X151701579Y-94743442D01*
X151693404Y-94751223D01*
X151688354Y-94755851D01*
X151686803Y-94757089D01*
X151676833Y-94760352D01*
X151666612Y-94759312D01*
X151655289Y-94753848D01*
X151653010Y-94752346D01*
X151649136Y-94749695D01*
X151641436Y-94744419D01*
X151630229Y-94736737D01*
X151615836Y-94726870D01*
X151598578Y-94715037D01*
X151578776Y-94701458D01*
X151556749Y-94686352D01*
X151532818Y-94669940D01*
X151507305Y-94652442D01*
X151480529Y-94634077D01*
X151455940Y-94617211D01*
X151428417Y-94598348D01*
X151401938Y-94580232D01*
X151376816Y-94563074D01*
X151353363Y-94547087D01*
X151331892Y-94532482D01*
X151312716Y-94519473D01*
X151296147Y-94508271D01*
X151282498Y-94499088D01*
X151272082Y-94492136D01*
X151265212Y-94487629D01*
X151262297Y-94485825D01*
X151250483Y-94482294D01*
X151244107Y-94482398D01*
X151239402Y-94483917D01*
X151230635Y-94487726D01*
X151218135Y-94493662D01*
X151202231Y-94501562D01*
X151183253Y-94511264D01*
X151161529Y-94522606D01*
X151144559Y-94531596D01*
X151120834Y-94544199D01*
X151101102Y-94554565D01*
X151084942Y-94562860D01*
X151071927Y-94569252D01*
X151061636Y-94573908D01*
X151053644Y-94576995D01*
X151047526Y-94578680D01*
X151042861Y-94579131D01*
X151039223Y-94578513D01*
X151036189Y-94576994D01*
X151033889Y-94575222D01*
X151032309Y-94572374D01*
X151028885Y-94565011D01*
X151023675Y-94553274D01*
X151016737Y-94537305D01*
X151008133Y-94517245D01*
X150997920Y-94493234D01*
X150986159Y-94465413D01*
X150972908Y-94433924D01*
X150958227Y-94398906D01*
X150942175Y-94360501D01*
X150924812Y-94318850D01*
X150906196Y-94274094D01*
X150886388Y-94226374D01*
X150865446Y-94175830D01*
X150848588Y-94135080D01*
X150826707Y-94082154D01*
X150806672Y-94033674D01*
X150788403Y-93989444D01*
X150771821Y-93949263D01*
X150756845Y-93912932D01*
X150743396Y-93880253D01*
X150731395Y-93851026D01*
X150720763Y-93825052D01*
X150711419Y-93802131D01*
X150703285Y-93782066D01*
X150696280Y-93764657D01*
X150690325Y-93749704D01*
X150685342Y-93737009D01*
X150681249Y-93726373D01*
X150677968Y-93717595D01*
X150675419Y-93710478D01*
X150673522Y-93704823D01*
X150672199Y-93700429D01*
X150671369Y-93697099D01*
X150670953Y-93694632D01*
X150670871Y-93692830D01*
X150671045Y-93691494D01*
X150671199Y-93690950D01*
X150673599Y-93685298D01*
X150677242Y-93680243D01*
X150682912Y-93675085D01*
X150691395Y-93669125D01*
X150703475Y-93661663D01*
X150705257Y-93660602D01*
X150717135Y-93653219D01*
X150730052Y-93644680D01*
X150741491Y-93636656D01*
X150742980Y-93635558D01*
X150752649Y-93628368D01*
X150764572Y-93619506D01*
X150776963Y-93610299D01*
X150784475Y-93604719D01*
X150825725Y-93570988D01*
X150863516Y-93533697D01*
X150897598Y-93493121D01*
X150927724Y-93449533D01*
X150933524Y-93440024D01*
X150956301Y-93397314D01*
X150975628Y-93351638D01*
X150991173Y-93303973D01*
X151002607Y-93255300D01*
X151008232Y-93219155D01*
X151009830Y-93200627D01*
X151010694Y-93178600D01*
X151010850Y-93154549D01*
X151010321Y-93129948D01*
X151009129Y-93106271D01*
X151007300Y-93084991D01*
X151005914Y-93074045D01*
X150995747Y-93021737D01*
X150980996Y-92971214D01*
X150961839Y-92922723D01*
X150938456Y-92876508D01*
X150911024Y-92832817D01*
X150879724Y-92791897D01*
X150844732Y-92753992D01*
X150806229Y-92719350D01*
X150764393Y-92688217D01*
X150719403Y-92660840D01*
X150697977Y-92649712D01*
X150650646Y-92628956D01*
X150602462Y-92612984D01*
X150553044Y-92601707D01*
X150502010Y-92595039D01*
X150450000Y-92592891D01*
X150404843Y-92594365D01*
X150362475Y-92598928D01*
X150321562Y-92606788D01*
X150280769Y-92618152D01*
X150273960Y-92620378D01*
X150224705Y-92639370D01*
X150177852Y-92662596D01*
X150133643Y-92689815D01*
X150092319Y-92720788D01*
X150054122Y-92755275D01*
X150019295Y-92793036D01*
X149988078Y-92833832D01*
X149960714Y-92877422D01*
X149937445Y-92923567D01*
X149918512Y-92972026D01*
X149918074Y-92973329D01*
X149906907Y-93010050D01*
X149898666Y-93045126D01*
X149893102Y-93080130D01*
X149889965Y-93116637D01*
X149889004Y-93156084D01*
X149889990Y-93193824D01*
X149893057Y-93228572D01*
X149898476Y-93262030D01*
X149906521Y-93295900D01*
X149916756Y-93329742D01*
X149935700Y-93379412D01*
X149958995Y-93426635D01*
X149986490Y-93471205D01*
X150018038Y-93512917D01*
X150053490Y-93551564D01*
X150092697Y-93586943D01*
X150115524Y-93604723D01*
X150126681Y-93612991D01*
X150137963Y-93621394D01*
X150147838Y-93628788D01*
X150153247Y-93632869D01*
X150161470Y-93638763D01*
X150172332Y-93646081D01*
X150184134Y-93653693D01*
X150190970Y-93657937D01*
X150204169Y-93666145D01*
X150213686Y-93672542D01*
X150220241Y-93677755D01*
X150224550Y-93682410D01*
X150227333Y-93687134D01*
X150228805Y-93690963D01*
X150229075Y-93692144D01*
X150229131Y-93693689D01*
X150228892Y-93695799D01*
X150228280Y-93698672D01*
X150227214Y-93702506D01*
X150225615Y-93707503D01*
X150223404Y-93713860D01*
X150220501Y-93721776D01*
X150216826Y-93731451D01*
X150212300Y-93743084D01*
X150206844Y-93756874D01*
X150200377Y-93773020D01*
X150192821Y-93791722D01*
X150184096Y-93813177D01*
X150174121Y-93837586D01*
X150162819Y-93865148D01*
X150150108Y-93896061D01*
X150135911Y-93930526D01*
X150120146Y-93968740D01*
X150102735Y-94010903D01*
X150083598Y-94057214D01*
X150062655Y-94107873D01*
X150051400Y-94135093D01*
X150029840Y-94187188D01*
X150009326Y-94236673D01*
X149989918Y-94283400D01*
X149971680Y-94327222D01*
X149954674Y-94367990D01*
X149938960Y-94405558D01*
X149924603Y-94439776D01*
X149911664Y-94470499D01*
X149900205Y-94497577D01*
X149890288Y-94520864D01*
X149881976Y-94540211D01*
X149875331Y-94555471D01*
X149870415Y-94566495D01*
X149867290Y-94573138D01*
X149866094Y-94575222D01*
X149859755Y-94578499D01*
X149853425Y-94579623D01*
X149848868Y-94578370D01*
X149840014Y-94574631D01*
X149826924Y-94568434D01*
X149809655Y-94559809D01*
X149788269Y-94548785D01*
X149762823Y-94535390D01*
X149756253Y-94531898D01*
X149736434Y-94521410D01*
X149717737Y-94511640D01*
X149700684Y-94502852D01*
X149685798Y-94495310D01*
X149673603Y-94489279D01*
X149664622Y-94485022D01*
X149659377Y-94482804D01*
X149658575Y-94482569D01*
X149650146Y-94482265D01*
X149642779Y-94483666D01*
X149639584Y-94485468D01*
X149632560Y-94489915D01*
X149622019Y-94496797D01*
X149608271Y-94505905D01*
X149591630Y-94517028D01*
X149572407Y-94529958D01*
X149550914Y-94544484D01*
X149527463Y-94560396D01*
X149502365Y-94577486D01*
X149475933Y-94595542D01*
X149452155Y-94611834D01*
X149424535Y-94630782D01*
X149397794Y-94649127D01*
X149372265Y-94666639D01*
X149348281Y-94683089D01*
X149326177Y-94698249D01*
X149306285Y-94711890D01*
X149288940Y-94723784D01*
X149274475Y-94733700D01*
X149263223Y-94741411D01*
X149255520Y-94746688D01*
X149252143Y-94748997D01*
X149240080Y-94756348D01*
X149230284Y-94760042D01*
X149221756Y-94760249D01*
X149213499Y-94757140D01*
X149211435Y-94755912D01*
X149208636Y-94753496D01*
X149202539Y-94747759D01*
X149193394Y-94738946D01*
X149181448Y-94727303D01*
X149166951Y-94713076D01*
X149150151Y-94696510D01*
X149131297Y-94677851D01*
X149110638Y-94657345D01*
X149088423Y-94635237D01*
X149064900Y-94611772D01*
X149040318Y-94587196D01*
X149023599Y-94570451D01*
X148989864Y-94536593D01*
X148959690Y-94506208D01*
X148933039Y-94479257D01*
X148909874Y-94455702D01*
X148890155Y-94435503D01*
X148873845Y-94418619D01*
X148860905Y-94405013D01*
X148851297Y-94394645D01*
X148844984Y-94387474D01*
X148841926Y-94383463D01*
X148841620Y-94382804D01*
X148840720Y-94374838D01*
X148841035Y-94368972D01*
X148842592Y-94365961D01*
X148846814Y-94359106D01*
X148853504Y-94348700D01*
X148862468Y-94335035D01*
X148873508Y-94318405D01*
X148886428Y-94299102D01*
X148901032Y-94277418D01*
X148917124Y-94253647D01*
X148934507Y-94228081D01*
X148952986Y-94201013D01*
X148972364Y-94172735D01*
X148981360Y-94159643D01*
X149005411Y-94124639D01*
X149026733Y-94093539D01*
X149045470Y-94066121D01*
X149061771Y-94042165D01*
X149075781Y-94021447D01*
X149087648Y-94003747D01*
X149097518Y-93988844D01*
X149105539Y-93976515D01*
X149111856Y-93966539D01*
X149116616Y-93958694D01*
X149119967Y-93952759D01*
X149122054Y-93948513D01*
X149123025Y-93945733D01*
X149123032Y-93945703D01*
X149123436Y-93943591D01*
X149123648Y-93941390D01*
X149123553Y-93938789D01*
X149123037Y-93935475D01*
X149121987Y-93931139D01*
X149120289Y-93925468D01*
X149117829Y-93918151D01*
X149114492Y-93908877D01*
X149110166Y-93897335D01*
X149104736Y-93883213D01*
X149098087Y-93866201D01*
X149090107Y-93845986D01*
X149080682Y-93822258D01*
X149069696Y-93794705D01*
X149057038Y-93763017D01*
X149046905Y-93737669D01*
X149034860Y-93707618D01*
X149023256Y-93678812D01*
X149012239Y-93651606D01*
X149001957Y-93626358D01*
X148992556Y-93603425D01*
X148984185Y-93583164D01*
X148976989Y-93565931D01*
X148971117Y-93552083D01*
X148966716Y-93541977D01*
X148963932Y-93535970D01*
X148963088Y-93534467D01*
X148956838Y-93528611D01*
X148950097Y-93524588D01*
X148946559Y-93523678D01*
X148938425Y-93521925D01*
X148926048Y-93519397D01*
X148909779Y-93516162D01*
X148889970Y-93512289D01*
X148866973Y-93507844D01*
X148841139Y-93502896D01*
X148812820Y-93497512D01*
X148782367Y-93491761D01*
X148750133Y-93485710D01*
X148716468Y-93479427D01*
X148703435Y-93477004D01*
X148669307Y-93470655D01*
X148636465Y-93464523D01*
X148605261Y-93458675D01*
X148576049Y-93453179D01*
X148549181Y-93448101D01*
X148525011Y-93443509D01*
X148503890Y-93439469D01*
X148486171Y-93436049D01*
X148472208Y-93433316D01*
X148462352Y-93431337D01*
X148456958Y-93430179D01*
X148456157Y-93429970D01*
X148448245Y-93425394D01*
X148442943Y-93419389D01*
X148442168Y-93418002D01*
X148441481Y-93416330D01*
X148440879Y-93414080D01*
X148440355Y-93410959D01*
X148439907Y-93406675D01*
X148439529Y-93400936D01*
X148439216Y-93393449D01*
X148438965Y-93383921D01*
X148438771Y-93372061D01*
X148438628Y-93357577D01*
X148438534Y-93340175D01*
X148438482Y-93319563D01*
X148438470Y-93295449D01*
X148438491Y-93267540D01*
X148438541Y-93235545D01*
X148438617Y-93199170D01*
X148438713Y-93158123D01*
X148438737Y-93148246D01*
X148439376Y-92885018D01*
X148445371Y-92878637D01*
X148446249Y-92877558D01*
X148446863Y-92876630D01*
X148447492Y-92875794D01*
X148448412Y-92874993D01*
X148449901Y-92874170D01*
X148452235Y-92873267D01*
X148455692Y-92872228D01*
X148460550Y-92870993D01*
X148467085Y-92869507D01*
X148475575Y-92867712D01*
X148486297Y-92865550D01*
X148499528Y-92862964D01*
X148515546Y-92859897D01*
X148534627Y-92856290D01*
X148557049Y-92852087D01*
X148583089Y-92847231D01*
X148613025Y-92841663D01*
X148647133Y-92835327D01*
X148685691Y-92828165D01*
X148719033Y-92821969D01*
X148759894Y-92814373D01*
X148796104Y-92807633D01*
X148827952Y-92801678D01*
X148855730Y-92796438D01*
X148879729Y-92791841D01*
X148900240Y-92787816D01*
X148917555Y-92784294D01*
X148931964Y-92781202D01*
X148943759Y-92778470D01*
X148953232Y-92776027D01*
X148960672Y-92773802D01*
X148966372Y-92771724D01*
X148970622Y-92769723D01*
X148973714Y-92767728D01*
X148975938Y-92765667D01*
X148977587Y-92763470D01*
X148978951Y-92761066D01*
X148980321Y-92758384D01*
X148980328Y-92758370D01*
X148981932Y-92754878D01*
X148985354Y-92747134D01*
X148990431Y-92735510D01*
X148997002Y-92720381D01*
X149004907Y-92702119D01*
X149013985Y-92681096D01*
X149024073Y-92657685D01*
X149035012Y-92632259D01*
X149046640Y-92605190D01*
X149058795Y-92576853D01*
X149060765Y-92572256D01*
X149075488Y-92537931D01*
X149088358Y-92507914D01*
X149099474Y-92481878D01*
X149108931Y-92459494D01*
X149116826Y-92440435D01*
X149123256Y-92424371D01*
X149128317Y-92410975D01*
X149132107Y-92399918D01*
X149134721Y-92390873D01*
X149136256Y-92383511D01*
X149136809Y-92377503D01*
X149136477Y-92372522D01*
X149135356Y-92368240D01*
X149133543Y-92364328D01*
X149131134Y-92360457D01*
X149128226Y-92356301D01*
X149125494Y-92352386D01*
X149122369Y-92347811D01*
X149116618Y-92339410D01*
X149108463Y-92327505D01*
X149098122Y-92312415D01*
X149085816Y-92294463D01*
X149071766Y-92273969D01*
X149056191Y-92251255D01*
X149039312Y-92226642D01*
X149021348Y-92200451D01*
X149002521Y-92173003D01*
X148983050Y-92144620D01*
X148980030Y-92140217D01*
X148960707Y-92112039D01*
X148942160Y-92084966D01*
X148924592Y-92059298D01*
X148908206Y-92035329D01*
X148893202Y-92013359D01*
X148879785Y-91993683D01*
X148868157Y-91976599D01*
X148858520Y-91962404D01*
X148851077Y-91951394D01*
X148846030Y-91943867D01*
X148843582Y-91940120D01*
X148843407Y-91939823D01*
X148841443Y-91933596D01*
X148840507Y-91925669D01*
X148840495Y-91924753D01*
X148840576Y-91923141D01*
X148840955Y-91921404D01*
X148841831Y-91919332D01*
X148843405Y-91916714D01*
X148845877Y-91913339D01*
X148849448Y-91908996D01*
X148854318Y-91903476D01*
X148860686Y-91896567D01*
X148868754Y-91888059D01*
X148878723Y-91877740D01*
X148890791Y-91865402D01*
X148905160Y-91850832D01*
X148922031Y-91833820D01*
X148941602Y-91814155D01*
X148964076Y-91791628D01*
X148989652Y-91766027D01*
X149018530Y-91737141D01*
X149027241Y-91728429D01*
X149213988Y-91541683D01*
X149224972Y-91541683D01*
X149226369Y-91541594D01*
X149227491Y-91541417D01*
X149228543Y-91541286D01*
X149229727Y-91541335D01*
X149231247Y-91541700D01*
X149233305Y-91542514D01*
X149236105Y-91543912D01*
X149239851Y-91546028D01*
X149244744Y-91548997D01*
X149250989Y-91552953D01*
X149258789Y-91558030D01*
X149268346Y-91564364D01*
X149279864Y-91572087D01*
X149293546Y-91581336D01*
X149309595Y-91592243D01*
X149328215Y-91604944D01*
X149349608Y-91619574D01*
X149373978Y-91636265D01*
X149401528Y-91655153D01*
X149432460Y-91676373D01*
X149466979Y-91700058D01*
X149505287Y-91726344D01*
X149538033Y-91748809D01*
X149565331Y-91767530D01*
X149588804Y-91783605D01*
X149608772Y-91797235D01*
X149625556Y-91808622D01*
X149639475Y-91817967D01*
X149650851Y-91825472D01*
X149660003Y-91831339D01*
X149667253Y-91835769D01*
X149672919Y-91838963D01*
X149677323Y-91841124D01*
X149680786Y-91842454D01*
X149683627Y-91843152D01*
X149686166Y-91843422D01*
X149688451Y-91843465D01*
X149691406Y-91843229D01*
X149695398Y-91842441D01*
X149700742Y-91840979D01*
X149707755Y-91838723D01*
X149716754Y-91835553D01*
X149728054Y-91831347D01*
X149741972Y-91825985D01*
X149758824Y-91819345D01*
X149778927Y-91811308D01*
X149802596Y-91801752D01*
X149830148Y-91790556D01*
X149861900Y-91777600D01*
X149876141Y-91771777D01*
X149904446Y-91760172D01*
X149931495Y-91749031D01*
X149956912Y-91738511D01*
X149980319Y-91728772D01*
X150001341Y-91719970D01*
X150019601Y-91712266D01*
X150034722Y-91705816D01*
X150046327Y-91700779D01*
X150054041Y-91697313D01*
X150057486Y-91695577D01*
X150057527Y-91695547D01*
X150059785Y-91693863D01*
X150061830Y-91692155D01*
X150063729Y-91690136D01*
X150065547Y-91687517D01*
X150067351Y-91684014D01*
X150069207Y-91679338D01*
X150071181Y-91673203D01*
X150073339Y-91665322D01*
X150075747Y-91655407D01*
X150078471Y-91643173D01*
X150081577Y-91628331D01*
X150085131Y-91610596D01*
X150089200Y-91589680D01*
X150093849Y-91565296D01*
X150099144Y-91537158D01*
X150105152Y-91504977D01*
X150111939Y-91468468D01*
X150119570Y-91427344D01*
X150120771Y-91420869D01*
X150127357Y-91385447D01*
X150133728Y-91351329D01*
X150139819Y-91318850D01*
X150145567Y-91288348D01*
X150150907Y-91260159D01*
X150155774Y-91234620D01*
X150160105Y-91212068D01*
X150163834Y-91192838D01*
X150166898Y-91177269D01*
X150169233Y-91165695D01*
X150170773Y-91158455D01*
X150171400Y-91155984D01*
X150175549Y-91149638D01*
X150181701Y-91144214D01*
X150181968Y-91144048D01*
X150183368Y-91143288D01*
X150185123Y-91142614D01*
X150187526Y-91142020D01*
X150190872Y-91141503D01*
X150195454Y-91141056D01*
X150201565Y-91140675D01*
X150209501Y-91140354D01*
X150219553Y-91140089D01*
X150232017Y-91139873D01*
X150247185Y-91139702D01*
X150265351Y-91139571D01*
X150286810Y-91139474D01*
X150311855Y-91139406D01*
X150340779Y-91139363D01*
X150373876Y-91139338D01*
X150411441Y-91139328D01*
X150450000Y-91139325D01*
X150491912Y-91139328D01*
D12*
X164250000Y-120400000D03*
X137450000Y-94600000D03*
D13*
X161190000Y-100200000D03*
X161190000Y-100600000D03*
X161190000Y-101000000D03*
X161190000Y-101400000D03*
X161190000Y-101800000D03*
X161190000Y-102200000D03*
X161190000Y-102600000D03*
X161190000Y-103000000D03*
X161190000Y-103400000D03*
X161190000Y-103800000D03*
X161190000Y-107800000D03*
X161190000Y-107400000D03*
X161190000Y-107000000D03*
X161190000Y-106600000D03*
X161190000Y-106200000D03*
X161190000Y-105800000D03*
X161190000Y-105400000D03*
X161190000Y-105000000D03*
X161190000Y-104600000D03*
X161190000Y-104200000D03*
X161190000Y-108200000D03*
X161190000Y-108600000D03*
X161190000Y-109000000D03*
X161190000Y-109400000D03*
X161190000Y-109800000D03*
X161190000Y-110200000D03*
X161190000Y-110600000D03*
X161190000Y-111000000D03*
X161190000Y-111400000D03*
X161190000Y-111800000D03*
X161190000Y-115800000D03*
X161190000Y-115400000D03*
X161190000Y-115000000D03*
X161190000Y-114600000D03*
X161190000Y-114200000D03*
X161190000Y-113800000D03*
X161190000Y-113400000D03*
X161190000Y-113000000D03*
X161190000Y-112600000D03*
X161190000Y-112200000D03*
X158110000Y-112200000D03*
X158110000Y-112600000D03*
X158110000Y-113000000D03*
X158110000Y-113400000D03*
X158110000Y-113800000D03*
X158110000Y-114200000D03*
X158110000Y-114600000D03*
X158110000Y-115000000D03*
X158110000Y-115400000D03*
X158110000Y-115800000D03*
X158110000Y-111800000D03*
X158110000Y-111400000D03*
X158110000Y-111000000D03*
X158110000Y-110600000D03*
X158110000Y-110200000D03*
X158110000Y-109800000D03*
X158110000Y-109400000D03*
X158110000Y-109000000D03*
X158110000Y-108600000D03*
X158110000Y-108200000D03*
X158110000Y-104200000D03*
X158110000Y-104600000D03*
X158110000Y-105000000D03*
X158110000Y-105400000D03*
X158110000Y-105800000D03*
X158110000Y-106200000D03*
X158110000Y-106600000D03*
X158110000Y-107000000D03*
X158110000Y-107400000D03*
X158110000Y-107800000D03*
X158110000Y-103800000D03*
X158110000Y-103400000D03*
X158110000Y-103000000D03*
X158110000Y-102600000D03*
X158110000Y-102200000D03*
X158110000Y-101800000D03*
X158110000Y-101400000D03*
X158110000Y-101000000D03*
X158110000Y-100600000D03*
X158110000Y-100200000D03*
D14*
X158461920Y-94250000D03*
X158461920Y-93599760D03*
X158461920Y-92949520D03*
X155800000Y-92949520D03*
X155800000Y-93599760D03*
X155800000Y-94250000D03*
X164300000Y-98250000D03*
X164300000Y-97599760D03*
X164300000Y-96949520D03*
X161638080Y-96949520D03*
X161638080Y-97599760D03*
X161638080Y-98250000D03*
X158611920Y-96700000D03*
X158611920Y-96049760D03*
X158611920Y-95399520D03*
X155950000Y-95399520D03*
X155950000Y-96049760D03*
X155950000Y-96700000D03*
D15*
X131550000Y-116430000D03*
D16*
X131550000Y-113890000D03*
X131550000Y-111350000D03*
X131550000Y-108810000D03*
X131550000Y-106270000D03*
X131550000Y-103730000D03*
X131550000Y-101190000D03*
X131550000Y-98650000D03*
D17*
X143450000Y-100600000D03*
X143250000Y-113650000D03*
D12*
X138300000Y-120950000D03*
D18*
X162950000Y-97849974D03*
X162500000Y-95300000D03*
D19*
X163335170Y-106128721D03*
X162579214Y-106491109D03*
X162993938Y-107218712D03*
X162237982Y-107581100D03*
X162237982Y-108419301D03*
X162993938Y-108781689D03*
X162579214Y-109509292D03*
X163335170Y-109871680D03*
D18*
X164264956Y-95352566D03*
X160500000Y-95450000D03*
X157300000Y-95000000D03*
X159100000Y-98150000D03*
X159950000Y-93400000D03*
X154500000Y-92950000D03*
X153600000Y-93750000D03*
X160729126Y-94320874D03*
D19*
X154941767Y-102858749D03*
X155697723Y-103221137D03*
X161045015Y-116945501D03*
X161045015Y-99054899D03*
X158255617Y-99054899D03*
X158255617Y-99054899D03*
X162035617Y-116147324D03*
X162511810Y-116834445D03*
X163166374Y-116308281D03*
X163642567Y-116995401D03*
X164626605Y-116049236D03*
X165041329Y-115321633D03*
X164285373Y-114959245D03*
X164700097Y-114231642D03*
X163944142Y-113869254D03*
X164358866Y-113141651D03*
X163602910Y-112779264D03*
X164017634Y-112051661D03*
X163261678Y-111689273D03*
X163676402Y-110961670D03*
X162920446Y-110599282D03*
X162920446Y-105401118D03*
X163676402Y-105038731D03*
X163261678Y-104311128D03*
X164017634Y-103948740D03*
X163602910Y-103221137D03*
X164358866Y-102858749D03*
X163944142Y-102131146D03*
X164700097Y-101768759D03*
X164285373Y-101041156D03*
X165041329Y-100678768D03*
X164626605Y-99951165D03*
X163642567Y-99005000D03*
X163166374Y-99692120D03*
X162511810Y-99165956D03*
X162035617Y-99853076D03*
X157265015Y-99853076D03*
X156788823Y-99165956D03*
X156134258Y-99692120D03*
X155658066Y-99005000D03*
X154674027Y-99951165D03*
X154259303Y-100678768D03*
X155015259Y-101041156D03*
X154600535Y-101768759D03*
X155356491Y-102131146D03*
X155965462Y-106128721D03*
X156721418Y-106491109D03*
D18*
X141400000Y-113650000D03*
X141450000Y-100650000D03*
D19*
X155877188Y-109755446D03*
X156306694Y-107218712D03*
X157062650Y-107581100D03*
X157062650Y-108419301D03*
X156306694Y-108781689D03*
X156405055Y-110406564D03*
X155557661Y-110872080D03*
X156057591Y-111544886D03*
X155240532Y-111988865D03*
X155710097Y-112683205D03*
X154921491Y-113108907D03*
X155362788Y-113821547D03*
X154600242Y-114231126D03*
X155014577Y-114959772D03*
X154258648Y-115321947D03*
D18*
X154267539Y-116171186D03*
X154900000Y-116721269D03*
X136950000Y-110000000D03*
X137500000Y-109050000D03*
X148700000Y-112900000D03*
X151050000Y-113000000D03*
X154325068Y-92130246D03*
X160303087Y-96914049D03*
X157300000Y-97100000D03*
X156750000Y-92200000D03*
X154650000Y-94900000D03*
D19*
X156380187Y-105401118D03*
D20*
X162950000Y-97849974D02*
X162950000Y-96450000D01*
X162950000Y-96450000D02*
X162850000Y-96350000D01*
X162950000Y-97849974D02*
X163350266Y-98250240D01*
X163350266Y-98250240D02*
X163350506Y-98250000D01*
X163350506Y-98250000D02*
X164300000Y-98250000D01*
X162850000Y-96350000D02*
X162550000Y-96050000D01*
X158461920Y-94250000D02*
X158461920Y-95249520D01*
X158461920Y-95249520D02*
X158611920Y-95399520D01*
X159353696Y-95399520D02*
X159975678Y-96021502D01*
X158611920Y-95399520D02*
X159353696Y-95399520D01*
X160771502Y-96021502D02*
X160528498Y-96021502D01*
X162550000Y-96050000D02*
X160800000Y-96050000D01*
X160800000Y-96050000D02*
X160771502Y-96021502D01*
X160528498Y-96021502D02*
X159914476Y-96021502D01*
X159235978Y-96700000D02*
X158611920Y-96700000D01*
X159975678Y-96021502D02*
X160528498Y-96021502D01*
X159914476Y-96021502D02*
X159235978Y-96700000D01*
X162500000Y-96000000D02*
X162500000Y-95784933D01*
X162550000Y-96050000D02*
X162500000Y-96000000D01*
X162500000Y-95784933D02*
X162500000Y-95300000D01*
X158611920Y-94261920D02*
X158600000Y-94250000D01*
X161190316Y-106624000D02*
X161540316Y-106624000D01*
X161540316Y-106624000D02*
X162460992Y-105841578D01*
X162460992Y-105841578D02*
X162749830Y-105946114D01*
X162749830Y-105946114D02*
X163335170Y-106128721D01*
X161190316Y-107024000D02*
X161540316Y-107024000D01*
X161540316Y-107024000D02*
X162406505Y-106287883D01*
X162406505Y-106287883D02*
X162579214Y-106491109D01*
X161190316Y-107424000D02*
X161540316Y-107424000D01*
X161540316Y-107424000D02*
X162119760Y-106931569D01*
X162119760Y-106931569D02*
X162408598Y-107036104D01*
X162408598Y-107036104D02*
X162993938Y-107218712D01*
X161190316Y-107824000D02*
X161540316Y-107824000D01*
X161540316Y-107824000D02*
X162065274Y-107377873D01*
X162065274Y-107377873D02*
X162237982Y-107581100D01*
X161190316Y-108176401D02*
X161540316Y-108176401D01*
X161540316Y-108176401D02*
X162065274Y-108622527D01*
X162065274Y-108622527D02*
X162237982Y-108419301D01*
X161190316Y-108576401D02*
X161540316Y-108576401D01*
X161540316Y-108576401D02*
X162119760Y-109068832D01*
X162119760Y-109068832D02*
X162408598Y-108964297D01*
X162408598Y-108964297D02*
X162993938Y-108781689D01*
X161190316Y-108976401D02*
X161540316Y-108976401D01*
X161540316Y-108976401D02*
X162406505Y-109712518D01*
X162406505Y-109712518D02*
X162579214Y-109509292D01*
X161190316Y-109376401D02*
X161540316Y-109376401D01*
X161540316Y-109376401D02*
X162460992Y-110158823D01*
X162460992Y-110158823D02*
X162749830Y-110054287D01*
X162749830Y-110054287D02*
X163335170Y-109871680D01*
X165202970Y-96290580D02*
X164607855Y-95695465D01*
X163412390Y-94500000D02*
X163922057Y-95009667D01*
X164851180Y-96949520D02*
X165202970Y-96597730D01*
X164300000Y-96949520D02*
X164851180Y-96949520D01*
X160500000Y-95450000D02*
X161450000Y-94500000D01*
X163922057Y-95009667D02*
X164264956Y-95352566D01*
X165202970Y-96597730D02*
X165202970Y-96290580D01*
X161450000Y-94500000D02*
X163412390Y-94500000D01*
X164607855Y-95695465D02*
X164264956Y-95352566D01*
X164300000Y-97599760D02*
X164300000Y-96949520D01*
X160500000Y-95450000D02*
X160500000Y-94965067D01*
X160500000Y-94965067D02*
X159134693Y-93599760D01*
X159134693Y-93599760D02*
X158461920Y-93599760D01*
X157300000Y-93996790D02*
X157300000Y-94515067D01*
X157300000Y-94515067D02*
X157300000Y-95000000D01*
X158611920Y-96049760D02*
X157708950Y-96049760D01*
X157708950Y-96049760D02*
X157300000Y-95640810D01*
X157300000Y-95640810D02*
X157300000Y-95000000D01*
X159502970Y-92949520D02*
X158461920Y-92949520D01*
X158265067Y-97800000D02*
X156698210Y-97800000D01*
X155950000Y-97051790D02*
X155950000Y-96700000D01*
X156698210Y-97800000D02*
X155950000Y-97051790D01*
X159100000Y-98150000D02*
X158615067Y-98150000D01*
X158615067Y-98150000D02*
X158265067Y-97800000D01*
X159950000Y-93396550D02*
X159950000Y-93400000D01*
X159502970Y-92949520D02*
X159950000Y-93396550D01*
X156470220Y-96800240D02*
X155919040Y-96800240D01*
X155800000Y-92949520D02*
X154500480Y-92949520D01*
X154500480Y-92949520D02*
X154500000Y-92950000D01*
X155938080Y-92949520D02*
X155937600Y-92950000D01*
X153600000Y-102950000D02*
X154598740Y-103948740D01*
X154598740Y-103948740D02*
X156495045Y-103948740D01*
X156903232Y-104295632D02*
X156495045Y-103948740D01*
X157607600Y-105000000D02*
X156903232Y-104295632D01*
X158110000Y-105000000D02*
X157607600Y-105000000D01*
X153600000Y-93750000D02*
X153600000Y-102950000D01*
X160729126Y-94320874D02*
X160729126Y-92679126D01*
X160729126Y-92679126D02*
X160500000Y-92450000D01*
X156917251Y-93032749D02*
X156917251Y-94173799D01*
X156917251Y-94173799D02*
X156841050Y-94250000D01*
X156841050Y-94250000D02*
X155800000Y-94250000D01*
X160500000Y-92450000D02*
X157500000Y-92450000D01*
X157500000Y-92450000D02*
X156917251Y-93032749D01*
X158110316Y-104224000D02*
X157760316Y-104224000D01*
X157760316Y-104224000D02*
X155815945Y-102571606D01*
X155815945Y-102571606D02*
X155527107Y-102676142D01*
X155527107Y-102676142D02*
X154941767Y-102858749D01*
X158110316Y-104624000D02*
X157760316Y-104624000D01*
X157760316Y-104624000D02*
X155870431Y-103017911D01*
X155870431Y-103017911D02*
X155697723Y-103221137D01*
X159450000Y-105800000D02*
X158110000Y-105800000D01*
X159750000Y-105500000D02*
X159450000Y-105800000D01*
X159700000Y-96671314D02*
X159700000Y-99250000D01*
X159750000Y-99300000D02*
X159750000Y-105500000D01*
X159700000Y-99250000D02*
X159750000Y-99300000D01*
X159885657Y-96485657D02*
X159700000Y-96671314D01*
X161638080Y-96949520D02*
X160874588Y-96949520D01*
X160874588Y-96949520D02*
X160874588Y-96639728D01*
X160874588Y-96639728D02*
X160577408Y-96342548D01*
X160577408Y-96342548D02*
X160028766Y-96342548D01*
X160028766Y-96342548D02*
X159885657Y-96485657D01*
X158110000Y-105400000D02*
X159350000Y-105400000D01*
X155146302Y-95399520D02*
X155950000Y-95399520D01*
X159445190Y-99426256D02*
X158452433Y-98433499D01*
X159350000Y-105400000D02*
X159445190Y-105304810D01*
X159445190Y-105304810D02*
X159445190Y-99426256D01*
X158452433Y-98433499D02*
X154733499Y-98433499D01*
X154733499Y-98433499D02*
X154733499Y-95812323D01*
X154733499Y-95812323D02*
X155146302Y-95399520D01*
X161045015Y-115800200D02*
X161045015Y-116945501D01*
X161045015Y-100200200D02*
X161045015Y-99054899D01*
X158255617Y-100200200D02*
X158255617Y-99054899D01*
X158255617Y-100200200D02*
X158255617Y-99054899D01*
X161190316Y-115376401D02*
X161540316Y-115376401D01*
X161540316Y-115376401D02*
X162208326Y-115944098D01*
X162208326Y-115944098D02*
X162035617Y-116147324D01*
X161190316Y-114976401D02*
X161540316Y-114976401D01*
X161540316Y-114976401D02*
X162657575Y-115925886D01*
X162657575Y-115925886D02*
X162600996Y-116227803D01*
X162600996Y-116227803D02*
X162511810Y-116834445D01*
X161190316Y-114576401D02*
X161540316Y-114576401D01*
X161540316Y-114576401D02*
X163339083Y-116105055D01*
X163339083Y-116105055D02*
X163166374Y-116308281D01*
X161190316Y-114176401D02*
X161540316Y-114176401D01*
X161540316Y-114176401D02*
X163788332Y-116086842D01*
X163788332Y-116086842D02*
X163731753Y-116388759D01*
X163731753Y-116388759D02*
X163642567Y-116995401D01*
X161190316Y-113776401D02*
X161540316Y-113776401D01*
X161540316Y-113776401D02*
X164453897Y-116252462D01*
X164453897Y-116252462D02*
X164626605Y-116049236D01*
X161190316Y-113376401D02*
X161540316Y-113376401D01*
X161540316Y-113376401D02*
X164167151Y-115608776D01*
X164167151Y-115608776D02*
X164455989Y-115504240D01*
X164455989Y-115504240D02*
X165041329Y-115321633D01*
X161190316Y-112976401D02*
X161540316Y-112976401D01*
X161540316Y-112976401D02*
X164112665Y-115162471D01*
X164112665Y-115162471D02*
X164285373Y-114959245D01*
X161190316Y-112576401D02*
X161540316Y-112576401D01*
X161540316Y-112576401D02*
X163825920Y-114518785D01*
X163825920Y-114518785D02*
X164114757Y-114414250D01*
X164114757Y-114414250D02*
X164700097Y-114231642D01*
X161190316Y-112176401D02*
X161540316Y-112176401D01*
X161540316Y-112176401D02*
X163771433Y-114072481D01*
X163771433Y-114072481D02*
X163944142Y-113869254D01*
X161190316Y-111776401D02*
X161540316Y-111776401D01*
X161540316Y-111776401D02*
X163484688Y-113428795D01*
X163484688Y-113428795D02*
X163773526Y-113324259D01*
X163773526Y-113324259D02*
X164358866Y-113141651D01*
X161190316Y-111376401D02*
X161540316Y-111376401D01*
X161540316Y-111376401D02*
X163430201Y-112982490D01*
X163430201Y-112982490D02*
X163602910Y-112779264D01*
X161190316Y-110976401D02*
X161540316Y-110976401D01*
X161540316Y-110976401D02*
X163143456Y-112338804D01*
X163143456Y-112338804D02*
X163432294Y-112234268D01*
X163432294Y-112234268D02*
X164017634Y-112051661D01*
X161190316Y-110576401D02*
X161540316Y-110576401D01*
X161540316Y-110576401D02*
X163088969Y-111892499D01*
X163088969Y-111892499D02*
X163261678Y-111689273D01*
X161190316Y-110176401D02*
X161540316Y-110176401D01*
X161540316Y-110176401D02*
X162802224Y-111248813D01*
X162802224Y-111248813D02*
X163091062Y-111144278D01*
X163091062Y-111144278D02*
X163676402Y-110961670D01*
X161190316Y-109776401D02*
X161540316Y-109776401D01*
X161540316Y-109776401D02*
X162747737Y-110802509D01*
X162747737Y-110802509D02*
X162920446Y-110599282D01*
X161190316Y-106224000D02*
X161540316Y-106224000D01*
X161540316Y-106224000D02*
X162747737Y-105197892D01*
X162747737Y-105197892D02*
X162920446Y-105401118D01*
X161190316Y-105824000D02*
X161540316Y-105824000D01*
X161540316Y-105824000D02*
X162802224Y-104751587D01*
X162802224Y-104751587D02*
X163091062Y-104856123D01*
X163091062Y-104856123D02*
X163676402Y-105038731D01*
X161190316Y-105424000D02*
X161540316Y-105424000D01*
X161540316Y-105424000D02*
X163088969Y-104107901D01*
X163088969Y-104107901D02*
X163261678Y-104311128D01*
X161190316Y-105024000D02*
X161540316Y-105024000D01*
X161540316Y-105024000D02*
X163143456Y-103661597D01*
X163143456Y-103661597D02*
X163432294Y-103766132D01*
X163432294Y-103766132D02*
X164017634Y-103948740D01*
X161190316Y-104624000D02*
X161540316Y-104624000D01*
X161540316Y-104624000D02*
X163430201Y-103017911D01*
X163430201Y-103017911D02*
X163602910Y-103221137D01*
X161190316Y-104224000D02*
X161540316Y-104224000D01*
X161540316Y-104224000D02*
X163484688Y-102571606D01*
X163484688Y-102571606D02*
X163773526Y-102676142D01*
X163773526Y-102676142D02*
X164358866Y-102858749D01*
X161190316Y-103824000D02*
X161540316Y-103824000D01*
X161540316Y-103824000D02*
X163771433Y-101927920D01*
X163771433Y-101927920D02*
X163944142Y-102131146D01*
X161190316Y-103424000D02*
X161540316Y-103424000D01*
X161540316Y-103424000D02*
X163825920Y-101481616D01*
X163825920Y-101481616D02*
X164114757Y-101586151D01*
X164114757Y-101586151D02*
X164700097Y-101768759D01*
X161190316Y-103024000D02*
X161540316Y-103024000D01*
X161540316Y-103024000D02*
X164112665Y-100837930D01*
X164112665Y-100837930D02*
X164285373Y-101041156D01*
X161190316Y-102624000D02*
X161540316Y-102624000D01*
X161540316Y-102624000D02*
X164167151Y-100391625D01*
X164167151Y-100391625D02*
X164455989Y-100496161D01*
X164455989Y-100496161D02*
X165041329Y-100678768D01*
X161190316Y-102224000D02*
X161540316Y-102224000D01*
X161540316Y-102224000D02*
X164453897Y-99747939D01*
X164453897Y-99747939D02*
X164626605Y-99951165D01*
X161190316Y-101824000D02*
X161540316Y-101824000D01*
X161540316Y-101824000D02*
X163788332Y-99913558D01*
X163788332Y-99913558D02*
X163731753Y-99611642D01*
X163731753Y-99611642D02*
X163642567Y-99005000D01*
X161190316Y-101424000D02*
X161540316Y-101424000D01*
X161540316Y-101424000D02*
X163339083Y-99895346D01*
X163339083Y-99895346D02*
X163166374Y-99692120D01*
X161190316Y-101024000D02*
X161540316Y-101024000D01*
X161540316Y-101024000D02*
X162657575Y-100074515D01*
X162657575Y-100074515D02*
X162600996Y-99772598D01*
X162600996Y-99772598D02*
X162511810Y-99165956D01*
X161190316Y-100624000D02*
X161540316Y-100624000D01*
X161540316Y-100624000D02*
X162208326Y-100056303D01*
X162208326Y-100056303D02*
X162035617Y-99853076D01*
X158110316Y-100624000D02*
X157760316Y-100624000D01*
X157760316Y-100624000D02*
X157092307Y-100056303D01*
X157092307Y-100056303D02*
X157265015Y-99853076D01*
X158110316Y-101024000D02*
X157760316Y-101024000D01*
X157760316Y-101024000D02*
X156643057Y-100074515D01*
X156643057Y-100074515D02*
X156699637Y-99772598D01*
X156699637Y-99772598D02*
X156788823Y-99165956D01*
X158110316Y-101424000D02*
X157760316Y-101424000D01*
X157760316Y-101424000D02*
X155961549Y-99895346D01*
X155961549Y-99895346D02*
X156134258Y-99692120D01*
X158110316Y-101824000D02*
X157760316Y-101824000D01*
X157760316Y-101824000D02*
X155512300Y-99913558D01*
X155512300Y-99913558D02*
X155568880Y-99611642D01*
X155568880Y-99611642D02*
X155658066Y-99005000D01*
X158110316Y-102224000D02*
X157760316Y-102224000D01*
X157760316Y-102224000D02*
X154846736Y-99747939D01*
X154846736Y-99747939D02*
X154674027Y-99951165D01*
X158110316Y-102624000D02*
X157760316Y-102624000D01*
X157760316Y-102624000D02*
X155133481Y-100391625D01*
X155133481Y-100391625D02*
X154844643Y-100496161D01*
X154844643Y-100496161D02*
X154259303Y-100678768D01*
X158110316Y-103024000D02*
X157760316Y-103024000D01*
X157760316Y-103024000D02*
X155187968Y-100837930D01*
X155187968Y-100837930D02*
X155015259Y-101041156D01*
X158110316Y-103424000D02*
X157760316Y-103424000D01*
X157760316Y-103424000D02*
X155474713Y-101481616D01*
X155474713Y-101481616D02*
X155185875Y-101586151D01*
X155185875Y-101586151D02*
X154600535Y-101768759D01*
X158110316Y-103824000D02*
X157760316Y-103824000D01*
X157760316Y-103824000D02*
X155529200Y-101927920D01*
X155529200Y-101927920D02*
X155356491Y-102131146D01*
X158110316Y-106624000D02*
X157760316Y-106624000D01*
X157760316Y-106624000D02*
X156839640Y-105841578D01*
X156839640Y-105841578D02*
X156550802Y-105946114D01*
X156550802Y-105946114D02*
X155965462Y-106128721D01*
X158110316Y-107024000D02*
X157760316Y-107024000D01*
X157760316Y-107024000D02*
X156894127Y-106287883D01*
X156894127Y-106287883D02*
X156721418Y-106491109D01*
D21*
X134500000Y-103800000D02*
X134430000Y-103730000D01*
X134430000Y-103730000D02*
X131550000Y-103730000D01*
D20*
X143250000Y-113650000D02*
X141400000Y-113650000D01*
X154850000Y-108781689D02*
X154850000Y-111000000D01*
X154850000Y-111000000D02*
X152200000Y-113650000D01*
X152200000Y-113650000D02*
X143250000Y-113650000D01*
D21*
X134652400Y-113960000D02*
X134582400Y-113890000D01*
X134582400Y-113890000D02*
X131550000Y-113890000D01*
D20*
X143450000Y-100600000D02*
X141500000Y-100600000D01*
X141500000Y-100600000D02*
X141450000Y-100650000D01*
X145400000Y-100700000D02*
X143550000Y-100700000D01*
X143550000Y-100700000D02*
X143450000Y-100600000D01*
X147900000Y-100700000D02*
X145400000Y-100700000D01*
X149300000Y-100700000D02*
X151325005Y-102725005D01*
X151325005Y-102725005D02*
X151325005Y-103800000D01*
X147900000Y-100700000D02*
X149300000Y-100700000D01*
D21*
X156306694Y-108781689D02*
X154850000Y-108781689D01*
X154850000Y-108781689D02*
X139678311Y-108781689D01*
X156306694Y-108781689D02*
X153025005Y-105500000D01*
X153025005Y-105500000D02*
X152025005Y-104500000D01*
X152025005Y-104500000D02*
X151325005Y-103800000D01*
D20*
X156892034Y-107187966D02*
X156480000Y-107600000D01*
X156892034Y-107036104D02*
X156892034Y-107187966D01*
X156496001Y-107923999D02*
X156306694Y-107734692D01*
X156306694Y-107734692D02*
X156306694Y-107218712D01*
X157062650Y-107581100D02*
X156719751Y-107923999D01*
X156719751Y-107923999D02*
X156496001Y-107923999D01*
D21*
X139678311Y-108781689D02*
X136024000Y-112436000D01*
X136024000Y-112588400D02*
X134652400Y-113960000D01*
X136024000Y-112436000D02*
X136024000Y-112588400D01*
X134652400Y-113960000D02*
X134500000Y-113960000D01*
X151325005Y-103800000D02*
X134500000Y-103800000D01*
D20*
X156256233Y-109376401D02*
X156220087Y-109412547D01*
X158110316Y-109376401D02*
X156256233Y-109376401D01*
X156220087Y-109412547D02*
X155877188Y-109755446D01*
X158110316Y-107424000D02*
X157760316Y-107424000D01*
X157760316Y-107424000D02*
X157180872Y-106931569D01*
X157180872Y-106931569D02*
X156892034Y-107036104D01*
X156892034Y-107036104D02*
X156306694Y-107218712D01*
X158110316Y-107824000D02*
X157760316Y-107824000D01*
X157760316Y-107824000D02*
X157235359Y-107377873D01*
X157235359Y-107377873D02*
X157062650Y-107581100D01*
X158110316Y-108176401D02*
X157760316Y-108176401D01*
X157760316Y-108176401D02*
X157235359Y-108622527D01*
X157235359Y-108622527D02*
X157062650Y-108419301D01*
X158110316Y-108576401D02*
X157760316Y-108576401D01*
X157760316Y-108576401D02*
X157180872Y-109068832D01*
X157180872Y-109068832D02*
X156892034Y-108964297D01*
X156892034Y-108964297D02*
X156306694Y-108781689D01*
X158110316Y-108976401D02*
X157760316Y-108976401D01*
X157760316Y-108976401D02*
X156894127Y-109712518D01*
X156894127Y-109712518D02*
X156721418Y-109509292D01*
X158110316Y-111376401D02*
X157374892Y-111376401D01*
X157374892Y-111376401D02*
X156747954Y-110749463D01*
X156747954Y-110749463D02*
X156405055Y-110406564D01*
X156042594Y-110872080D02*
X155557661Y-110872080D01*
X157134931Y-111776401D02*
X156331914Y-110973384D01*
X158110316Y-111776401D02*
X157134931Y-111776401D01*
X156331914Y-110973384D02*
X156143898Y-110973384D01*
X156143898Y-110973384D02*
X156042594Y-110872080D01*
X156689106Y-112176401D02*
X156400490Y-111887785D01*
X158110316Y-112176401D02*
X156689106Y-112176401D01*
X156400490Y-111887785D02*
X156057591Y-111544886D01*
X155363370Y-112111703D02*
X155240532Y-111988865D01*
X156734685Y-112861968D02*
X155984420Y-112111703D01*
X157665127Y-112671590D02*
X157634060Y-112671590D01*
X157412615Y-112861968D02*
X156734685Y-112861968D01*
X157525787Y-112748796D02*
X157412615Y-112861968D01*
X157556853Y-112748796D02*
X157525787Y-112748796D01*
X157634060Y-112671590D02*
X157556853Y-112748796D01*
X158110316Y-112576401D02*
X157760316Y-112576401D01*
X157760316Y-112576401D02*
X157665127Y-112671590D01*
X155984420Y-112111703D02*
X155363370Y-112111703D01*
X156193671Y-113166779D02*
X156052996Y-113026104D01*
X156052996Y-113026104D02*
X155710097Y-112683205D01*
X157665127Y-113071590D02*
X157634060Y-113071590D01*
X157760316Y-112976401D02*
X157665127Y-113071590D01*
X158110316Y-112976401D02*
X157760316Y-112976401D01*
X157538871Y-113166779D02*
X156193671Y-113166779D01*
X157634060Y-113071590D02*
X157538871Y-113166779D01*
X155858656Y-113471590D02*
X155637111Y-113250045D01*
X155062629Y-113250045D02*
X154921491Y-113108907D01*
X157665127Y-113471590D02*
X155858656Y-113471590D01*
X155637111Y-113250045D02*
X155062629Y-113250045D01*
X157760316Y-113376401D02*
X157665127Y-113471590D01*
X158110316Y-113376401D02*
X157760316Y-113376401D01*
X158110316Y-113776401D02*
X158065170Y-113821547D01*
X155847721Y-113821547D02*
X155362788Y-113821547D01*
X158065170Y-113821547D02*
X155847721Y-113821547D01*
X154757386Y-114388270D02*
X154600242Y-114231126D01*
X158110316Y-114176401D02*
X155817097Y-114176401D01*
X155288900Y-114388270D02*
X154757386Y-114388270D01*
X155419415Y-114518785D02*
X155288900Y-114388270D01*
X155817097Y-114176401D02*
X155474713Y-114518785D01*
X155474713Y-114518785D02*
X155419415Y-114518785D01*
X158110316Y-114576401D02*
X157483960Y-114576401D01*
X155499510Y-114959772D02*
X155014577Y-114959772D01*
X157100589Y-114959772D02*
X155499510Y-114959772D01*
X157483960Y-114576401D02*
X157100589Y-114959772D01*
X155120154Y-115664532D02*
X154601233Y-115664532D01*
X154601233Y-115664532D02*
X154258648Y-115321947D01*
X155776313Y-116320691D02*
X155120154Y-115664532D01*
X155923006Y-116537808D02*
X155776313Y-116391115D01*
X158110316Y-114976401D02*
X157760316Y-114976401D01*
X157760316Y-114976401D02*
X155923006Y-116537808D01*
X155776313Y-116391115D02*
X155776313Y-116320691D01*
X155174322Y-116149767D02*
X154288958Y-116149767D01*
X154288958Y-116149767D02*
X154267539Y-116171186D01*
X155786685Y-116832555D02*
X155471502Y-116517372D01*
X157732561Y-115400000D02*
X156024186Y-116851835D01*
X158110000Y-115400000D02*
X157732561Y-115400000D01*
X156024186Y-116851835D02*
X155786685Y-116832555D01*
X155471502Y-116517372D02*
X155471502Y-116446947D01*
X155471502Y-116446947D02*
X155174322Y-116149767D01*
X155342899Y-117164168D02*
X155242899Y-117064168D01*
X156495832Y-117164168D02*
X155342899Y-117164168D01*
X157860000Y-115800000D02*
X156495832Y-117164168D01*
X158110000Y-115800000D02*
X157860000Y-115800000D01*
X155242899Y-117064168D02*
X154900000Y-116721269D01*
X136950000Y-110000000D02*
X135600000Y-111350000D01*
X135600000Y-111350000D02*
X131550000Y-111350000D01*
X137500000Y-109050000D02*
X131790000Y-109050000D01*
X131790000Y-109050000D02*
X131550000Y-108810000D01*
X151050000Y-113000000D02*
X148800000Y-113000000D01*
X148800000Y-113000000D02*
X148700000Y-112900000D01*
X161638080Y-98250000D02*
X160346552Y-98250000D01*
X160346552Y-98250000D02*
X160303087Y-98206535D01*
X160303087Y-98206535D02*
X160303087Y-97700000D01*
X160303087Y-97700000D02*
X160303087Y-97398982D01*
X161638080Y-97599760D02*
X160735110Y-97599760D01*
X160735110Y-97599760D02*
X160634870Y-97700000D01*
X160634870Y-97700000D02*
X160303087Y-97700000D01*
X158110000Y-106200000D02*
X159531067Y-106200000D01*
X154650000Y-93945822D02*
X154650000Y-93846790D01*
X154650000Y-93846790D02*
X154897030Y-93599760D01*
X154897030Y-93599760D02*
X155800000Y-93599760D01*
X154650000Y-94900000D02*
X154650000Y-93945822D01*
X154650000Y-93945822D02*
X153928499Y-93224321D01*
X153928499Y-93224321D02*
X153928499Y-92526815D01*
X153928499Y-92526815D02*
X153982169Y-92473145D01*
X153982169Y-92473145D02*
X154325068Y-92130246D01*
X154394822Y-92200000D02*
X154325068Y-92130246D01*
X156750000Y-92200000D02*
X154394822Y-92200000D01*
X160303087Y-97398982D02*
X160303087Y-96914049D01*
X160239234Y-98270388D02*
X160303087Y-98206535D01*
X156957101Y-96757101D02*
X156957101Y-96153891D01*
X157300000Y-97100000D02*
X156957101Y-96757101D01*
X156957101Y-96153891D02*
X156852970Y-96049760D01*
X156852970Y-96049760D02*
X155950000Y-96049760D01*
X160054811Y-98454811D02*
X160239234Y-98270388D01*
X160054811Y-98454811D02*
X160050000Y-98450000D01*
X160059620Y-104997487D02*
X160054811Y-104992678D01*
X159531067Y-106200000D02*
X160059620Y-105671447D01*
X160054811Y-104992678D02*
X160054811Y-98454811D01*
X160059620Y-105671447D02*
X160059620Y-104997487D01*
X158110316Y-106224000D02*
X157760316Y-106224000D01*
X157760316Y-106224000D02*
X156552895Y-105197892D01*
X156552895Y-105197892D02*
X156380187Y-105401118D01*
D22*
G36*
X155770092Y-107106451D02*
X155954093Y-107106611D01*
X156166759Y-107319649D01*
X156526048Y-107468839D01*
X156915081Y-107469178D01*
X157097307Y-107393884D01*
X157125000Y-107417418D01*
X157125000Y-107527002D01*
X157144339Y-107527002D01*
X157125000Y-107573690D01*
X157125000Y-107591250D01*
X157133750Y-107600000D01*
X157125000Y-107608750D01*
X157125000Y-107626310D01*
X157196945Y-107800000D01*
X157125000Y-107973690D01*
X157125000Y-107991250D01*
X157133750Y-108000000D01*
X157125000Y-108008750D01*
X157125000Y-108026310D01*
X157196945Y-108200000D01*
X157125000Y-108373690D01*
X157125000Y-108391250D01*
X157133750Y-108400000D01*
X157125000Y-108408750D01*
X157125000Y-108426310D01*
X157196945Y-108600000D01*
X157125000Y-108773690D01*
X157125000Y-108791250D01*
X157133750Y-108800000D01*
X157125000Y-108808750D01*
X157125000Y-108826310D01*
X157196945Y-109000000D01*
X157125000Y-109173690D01*
X157125000Y-109191250D01*
X157133750Y-109200000D01*
X157125000Y-109208750D01*
X157125000Y-109226310D01*
X157196755Y-109399541D01*
X157163569Y-109448110D01*
X157132572Y-109601178D01*
X157125000Y-109608750D01*
X157125000Y-109626310D01*
X157126667Y-109630335D01*
X157112560Y-109700000D01*
X157112560Y-109731137D01*
X156959714Y-109578024D01*
X156600425Y-109428834D01*
X156211392Y-109428495D01*
X155851843Y-109577057D01*
X155576515Y-109851905D01*
X155558960Y-109894181D01*
X155363998Y-109894011D01*
X155004449Y-110042573D01*
X154970174Y-110076788D01*
X154826698Y-110077007D01*
X154826988Y-107027000D01*
X155578753Y-107027000D01*
X155770092Y-107106451D01*
X155770092Y-107106451D01*
G37*
X155770092Y-107106451D02*
X155954093Y-107106611D01*
X156166759Y-107319649D01*
X156526048Y-107468839D01*
X156915081Y-107469178D01*
X157097307Y-107393884D01*
X157125000Y-107417418D01*
X157125000Y-107527002D01*
X157144339Y-107527002D01*
X157125000Y-107573690D01*
X157125000Y-107591250D01*
X157133750Y-107600000D01*
X157125000Y-107608750D01*
X157125000Y-107626310D01*
X157196945Y-107800000D01*
X157125000Y-107973690D01*
X157125000Y-107991250D01*
X157133750Y-108000000D01*
X157125000Y-108008750D01*
X157125000Y-108026310D01*
X157196945Y-108200000D01*
X157125000Y-108373690D01*
X157125000Y-108391250D01*
X157133750Y-108400000D01*
X157125000Y-108408750D01*
X157125000Y-108426310D01*
X157196945Y-108600000D01*
X157125000Y-108773690D01*
X157125000Y-108791250D01*
X157133750Y-108800000D01*
X157125000Y-108808750D01*
X157125000Y-108826310D01*
X157196945Y-109000000D01*
X157125000Y-109173690D01*
X157125000Y-109191250D01*
X157133750Y-109200000D01*
X157125000Y-109208750D01*
X157125000Y-109226310D01*
X157196755Y-109399541D01*
X157163569Y-109448110D01*
X157132572Y-109601178D01*
X157125000Y-109608750D01*
X157125000Y-109626310D01*
X157126667Y-109630335D01*
X157112560Y-109700000D01*
X157112560Y-109731137D01*
X156959714Y-109578024D01*
X156600425Y-109428834D01*
X156211392Y-109428495D01*
X155851843Y-109577057D01*
X155576515Y-109851905D01*
X155558960Y-109894181D01*
X155363998Y-109894011D01*
X155004449Y-110042573D01*
X154970174Y-110076788D01*
X154826698Y-110077007D01*
X154826988Y-107027000D01*
X155578753Y-107027000D01*
X155770092Y-107106451D01*
M02*
