G04 #@! TF.FileFunction,Legend,Bot*
%FSLAX46Y46*%
G04 Gerber Fmt 4.6, Leading zero omitted, Abs format (unit mm)*
G04 Created by KiCad (PCBNEW 4.0.1-stable) date Tuesday, April 12, 2016 'PMt' 11:12:41 PM*
%MOMM*%
G01*
G04 APERTURE LIST*
%ADD10C,0.100000*%
%ADD11C,0.400000*%
%ADD12C,0.200000*%
%ADD13C,0.300000*%
%ADD14C,0.150000*%
G04 APERTURE END LIST*
D10*
D11*
X138914286Y-90969048D02*
X138795238Y-90850000D01*
X138557143Y-90730952D01*
X137961905Y-90730952D01*
X137723809Y-90850000D01*
X137604762Y-90969048D01*
X137485714Y-91207143D01*
X137485714Y-91445238D01*
X137604762Y-91802381D01*
X139033333Y-93230952D01*
X137485714Y-93230952D01*
X137185714Y-124930952D02*
X138614286Y-124930952D01*
X137900000Y-124930952D02*
X137900000Y-122430952D01*
X138138095Y-122788095D01*
X138376190Y-123026190D01*
X138614286Y-123145238D01*
D12*
X158240000Y-124907143D02*
X158382857Y-124978571D01*
X158668571Y-124978571D01*
X158811429Y-124907143D01*
X158882857Y-124835714D01*
X158954286Y-124692857D01*
X158954286Y-124264286D01*
X158882857Y-124121429D01*
X158811429Y-124050000D01*
X158668571Y-123978571D01*
X158382857Y-123978571D01*
X158240000Y-124050000D01*
X157597143Y-124978571D02*
X157597143Y-123478571D01*
X157454286Y-124407143D02*
X157025715Y-124978571D01*
X157025715Y-123978571D02*
X157597143Y-124550000D01*
X155740000Y-124978571D02*
X155740000Y-123478571D01*
X155740000Y-124907143D02*
X155882857Y-124978571D01*
X156168571Y-124978571D01*
X156311429Y-124907143D01*
X156382857Y-124835714D01*
X156454286Y-124692857D01*
X156454286Y-124264286D01*
X156382857Y-124121429D01*
X156311429Y-124050000D01*
X156168571Y-123978571D01*
X155882857Y-123978571D01*
X155740000Y-124050000D01*
X155025714Y-124835714D02*
X154954286Y-124907143D01*
X155025714Y-124978571D01*
X155097143Y-124907143D01*
X155025714Y-124835714D01*
X155025714Y-124978571D01*
X154525714Y-123978571D02*
X153954285Y-123978571D01*
X154311428Y-123478571D02*
X154311428Y-124764286D01*
X154240000Y-124907143D01*
X154097142Y-124978571D01*
X153954285Y-124978571D01*
X152882857Y-124907143D02*
X153025714Y-124978571D01*
X153311428Y-124978571D01*
X153454285Y-124907143D01*
X153525714Y-124764286D01*
X153525714Y-124192857D01*
X153454285Y-124050000D01*
X153311428Y-123978571D01*
X153025714Y-123978571D01*
X152882857Y-124050000D01*
X152811428Y-124192857D01*
X152811428Y-124335714D01*
X153525714Y-124478571D01*
X151525714Y-124907143D02*
X151668571Y-124978571D01*
X151954285Y-124978571D01*
X152097143Y-124907143D01*
X152168571Y-124835714D01*
X152240000Y-124692857D01*
X152240000Y-124264286D01*
X152168571Y-124121429D01*
X152097143Y-124050000D01*
X151954285Y-123978571D01*
X151668571Y-123978571D01*
X151525714Y-124050000D01*
X150882857Y-124978571D02*
X150882857Y-123478571D01*
X150240000Y-124978571D02*
X150240000Y-124192857D01*
X150311429Y-124050000D01*
X150454286Y-123978571D01*
X150668571Y-123978571D01*
X150811429Y-124050000D01*
X150882857Y-124121429D01*
X148454286Y-123407143D02*
X149740000Y-125335714D01*
X147311428Y-124978571D02*
X147311428Y-123478571D01*
X147311428Y-124907143D02*
X147454285Y-124978571D01*
X147739999Y-124978571D01*
X147882857Y-124907143D01*
X147954285Y-124835714D01*
X148025714Y-124692857D01*
X148025714Y-124264286D01*
X147954285Y-124121429D01*
X147882857Y-124050000D01*
X147739999Y-123978571D01*
X147454285Y-123978571D01*
X147311428Y-124050000D01*
X146668571Y-124907143D02*
X146525714Y-124978571D01*
X146239999Y-124978571D01*
X146097142Y-124907143D01*
X146025714Y-124764286D01*
X146025714Y-124692857D01*
X146097142Y-124550000D01*
X146239999Y-124478571D01*
X146454285Y-124478571D01*
X146597142Y-124407143D01*
X146668571Y-124264286D01*
X146668571Y-124192857D01*
X146597142Y-124050000D01*
X146454285Y-123978571D01*
X146239999Y-123978571D01*
X146097142Y-124050000D01*
X145382856Y-124978571D02*
X145382856Y-123478571D01*
X145382856Y-124050000D02*
X145239999Y-123978571D01*
X144954285Y-123978571D01*
X144811428Y-124050000D01*
X144739999Y-124121429D01*
X144668570Y-124264286D01*
X144668570Y-124692857D01*
X144739999Y-124835714D01*
X144811428Y-124907143D01*
X144954285Y-124978571D01*
X145239999Y-124978571D01*
X145382856Y-124907143D01*
X142954285Y-123407143D02*
X144239999Y-125335714D01*
X142597141Y-123978571D02*
X142239998Y-124978571D01*
X141882856Y-123978571D01*
X141382856Y-123621429D02*
X141311427Y-123550000D01*
X141168570Y-123478571D01*
X140811427Y-123478571D01*
X140668570Y-123550000D01*
X140597141Y-123621429D01*
X140525713Y-123764286D01*
X140525713Y-123907143D01*
X140597141Y-124121429D01*
X141454284Y-124978571D01*
X140525713Y-124978571D01*
D13*
X137092857Y-120378571D02*
X137092857Y-118878571D01*
X136521429Y-118878571D01*
X136378571Y-118950000D01*
X136307143Y-119021429D01*
X136235714Y-119164286D01*
X136235714Y-119378571D01*
X136307143Y-119521429D01*
X136378571Y-119592857D01*
X136521429Y-119664286D01*
X137092857Y-119664286D01*
X135378571Y-120378571D02*
X135521429Y-120307143D01*
X135592857Y-120235714D01*
X135664286Y-120092857D01*
X135664286Y-119664286D01*
X135592857Y-119521429D01*
X135521429Y-119450000D01*
X135378571Y-119378571D01*
X135164286Y-119378571D01*
X135021429Y-119450000D01*
X134950000Y-119521429D01*
X134878571Y-119664286D01*
X134878571Y-120092857D01*
X134950000Y-120235714D01*
X135021429Y-120307143D01*
X135164286Y-120378571D01*
X135378571Y-120378571D01*
X134235714Y-120378571D02*
X134235714Y-119378571D01*
X134235714Y-119664286D02*
X134164286Y-119521429D01*
X134092857Y-119450000D01*
X133950000Y-119378571D01*
X133807143Y-119378571D01*
X133521429Y-119378571D02*
X132950000Y-119378571D01*
X133307143Y-118878571D02*
X133307143Y-120164286D01*
X133235715Y-120307143D01*
X133092857Y-120378571D01*
X132950000Y-120378571D01*
X130521429Y-120378571D02*
X131378572Y-120378571D01*
X130950000Y-120378571D02*
X130950000Y-118878571D01*
X131092857Y-119092857D01*
X131235715Y-119235714D01*
X131378572Y-119307143D01*
X137092857Y-97228571D02*
X137092857Y-95728571D01*
X136521429Y-95728571D01*
X136378571Y-95800000D01*
X136307143Y-95871429D01*
X136235714Y-96014286D01*
X136235714Y-96228571D01*
X136307143Y-96371429D01*
X136378571Y-96442857D01*
X136521429Y-96514286D01*
X137092857Y-96514286D01*
X135378571Y-97228571D02*
X135521429Y-97157143D01*
X135592857Y-97085714D01*
X135664286Y-96942857D01*
X135664286Y-96514286D01*
X135592857Y-96371429D01*
X135521429Y-96300000D01*
X135378571Y-96228571D01*
X135164286Y-96228571D01*
X135021429Y-96300000D01*
X134950000Y-96371429D01*
X134878571Y-96514286D01*
X134878571Y-96942857D01*
X134950000Y-97085714D01*
X135021429Y-97157143D01*
X135164286Y-97228571D01*
X135378571Y-97228571D01*
X134235714Y-97228571D02*
X134235714Y-96228571D01*
X134235714Y-96514286D02*
X134164286Y-96371429D01*
X134092857Y-96300000D01*
X133950000Y-96228571D01*
X133807143Y-96228571D01*
X133521429Y-96228571D02*
X132950000Y-96228571D01*
X133307143Y-95728571D02*
X133307143Y-97014286D01*
X133235715Y-97157143D01*
X133092857Y-97228571D01*
X132950000Y-97228571D01*
X131378572Y-95871429D02*
X131307143Y-95800000D01*
X131164286Y-95728571D01*
X130807143Y-95728571D01*
X130664286Y-95800000D01*
X130592857Y-95871429D01*
X130521429Y-96014286D01*
X130521429Y-96157143D01*
X130592857Y-96371429D01*
X131450000Y-97228571D01*
X130521429Y-97228571D01*
D12*
X139100000Y-98000000D02*
X137100000Y-98000000D01*
X139100000Y-108000000D02*
X139100000Y-98000000D01*
X137100000Y-108000000D02*
X139100000Y-108000000D01*
X139100000Y-108000000D02*
X139100000Y-118000000D01*
X139100000Y-118000000D02*
X137100000Y-118000000D01*
D13*
X135497143Y-97908571D02*
X134640000Y-97908571D01*
X135068571Y-99408571D02*
X135068571Y-97908571D01*
X134282857Y-97908571D02*
X133282857Y-99408571D01*
X133282857Y-97908571D02*
X134282857Y-99408571D01*
X134925714Y-102008571D02*
X135425714Y-101294286D01*
X135782857Y-102008571D02*
X135782857Y-100508571D01*
X135211429Y-100508571D01*
X135068571Y-100580000D01*
X134997143Y-100651429D01*
X134925714Y-100794286D01*
X134925714Y-101008571D01*
X134997143Y-101151429D01*
X135068571Y-101222857D01*
X135211429Y-101294286D01*
X135782857Y-101294286D01*
X134425714Y-100508571D02*
X133425714Y-102008571D01*
X133425714Y-100508571D02*
X134425714Y-102008571D01*
X137822857Y-103867143D02*
X136680000Y-103867143D01*
X137251429Y-104438571D02*
X137251429Y-103295714D01*
X135251428Y-102938571D02*
X135965714Y-102938571D01*
X136037143Y-103652857D01*
X135965714Y-103581429D01*
X135822857Y-103510000D01*
X135465714Y-103510000D01*
X135322857Y-103581429D01*
X135251428Y-103652857D01*
X135180000Y-103795714D01*
X135180000Y-104152857D01*
X135251428Y-104295714D01*
X135322857Y-104367143D01*
X135465714Y-104438571D01*
X135822857Y-104438571D01*
X135965714Y-104367143D01*
X136037143Y-104295714D01*
X134751429Y-102938571D02*
X134251429Y-104438571D01*
X133751429Y-102938571D01*
X136537143Y-105660000D02*
X136680000Y-105588571D01*
X136894286Y-105588571D01*
X137108571Y-105660000D01*
X137251429Y-105802857D01*
X137322857Y-105945714D01*
X137394286Y-106231429D01*
X137394286Y-106445714D01*
X137322857Y-106731429D01*
X137251429Y-106874286D01*
X137108571Y-107017143D01*
X136894286Y-107088571D01*
X136751429Y-107088571D01*
X136537143Y-107017143D01*
X136465714Y-106945714D01*
X136465714Y-106445714D01*
X136751429Y-106445714D01*
X135822857Y-107088571D02*
X135822857Y-105588571D01*
X134965714Y-107088571D01*
X134965714Y-105588571D01*
X134251428Y-107088571D02*
X134251428Y-105588571D01*
X133894285Y-105588571D01*
X133680000Y-105660000D01*
X133537142Y-105802857D01*
X133465714Y-105945714D01*
X133394285Y-106231429D01*
X133394285Y-106445714D01*
X133465714Y-106731429D01*
X133537142Y-106874286D01*
X133680000Y-107017143D01*
X133894285Y-107088571D01*
X134251428Y-107088571D01*
X135657143Y-108228571D02*
X134800000Y-108228571D01*
X135228571Y-109728571D02*
X135228571Y-108228571D01*
X134442857Y-108228571D02*
X133442857Y-109728571D01*
X133442857Y-108228571D02*
X134442857Y-109728571D01*
X134985714Y-112228571D02*
X135485714Y-111514286D01*
X135842857Y-112228571D02*
X135842857Y-110728571D01*
X135271429Y-110728571D01*
X135128571Y-110800000D01*
X135057143Y-110871429D01*
X134985714Y-111014286D01*
X134985714Y-111228571D01*
X135057143Y-111371429D01*
X135128571Y-111442857D01*
X135271429Y-111514286D01*
X135842857Y-111514286D01*
X134485714Y-110728571D02*
X133485714Y-112228571D01*
X133485714Y-110728571D02*
X134485714Y-112228571D01*
X137542857Y-114107143D02*
X136400000Y-114107143D01*
X136971429Y-114678571D02*
X136971429Y-113535714D01*
X134971428Y-113178571D02*
X135685714Y-113178571D01*
X135757143Y-113892857D01*
X135685714Y-113821429D01*
X135542857Y-113750000D01*
X135185714Y-113750000D01*
X135042857Y-113821429D01*
X134971428Y-113892857D01*
X134900000Y-114035714D01*
X134900000Y-114392857D01*
X134971428Y-114535714D01*
X135042857Y-114607143D01*
X135185714Y-114678571D01*
X135542857Y-114678571D01*
X135685714Y-114607143D01*
X135757143Y-114535714D01*
X134471429Y-113178571D02*
X133971429Y-114678571D01*
X133471429Y-113178571D01*
X136507143Y-115750000D02*
X136650000Y-115678571D01*
X136864286Y-115678571D01*
X137078571Y-115750000D01*
X137221429Y-115892857D01*
X137292857Y-116035714D01*
X137364286Y-116321429D01*
X137364286Y-116535714D01*
X137292857Y-116821429D01*
X137221429Y-116964286D01*
X137078571Y-117107143D01*
X136864286Y-117178571D01*
X136721429Y-117178571D01*
X136507143Y-117107143D01*
X136435714Y-117035714D01*
X136435714Y-116535714D01*
X136721429Y-116535714D01*
X135792857Y-117178571D02*
X135792857Y-115678571D01*
X134935714Y-117178571D01*
X134935714Y-115678571D01*
X134221428Y-117178571D02*
X134221428Y-115678571D01*
X133864285Y-115678571D01*
X133650000Y-115750000D01*
X133507142Y-115892857D01*
X133435714Y-116035714D01*
X133364285Y-116321429D01*
X133364285Y-116535714D01*
X133435714Y-116821429D01*
X133507142Y-116964286D01*
X133650000Y-117107143D01*
X133864285Y-117178571D01*
X134221428Y-117178571D01*
D10*
G36*
X165687579Y-104145562D02*
X164719203Y-104145562D01*
X164601191Y-104373961D01*
X164605263Y-104366814D01*
X164609616Y-104360100D01*
X164614249Y-104353819D01*
X164619164Y-104347971D01*
X164624359Y-104342556D01*
X164629835Y-104337575D01*
X164635592Y-104333027D01*
X164641630Y-104328911D01*
X164647948Y-104325229D01*
X164654548Y-104321981D01*
X164661428Y-104319165D01*
X164668589Y-104316783D01*
X164676031Y-104314833D01*
X164683754Y-104313317D01*
X164691757Y-104312234D01*
X164700041Y-104311585D01*
X164708607Y-104311368D01*
X165174275Y-104311368D01*
X165174263Y-104311368D01*
X165178169Y-104321769D01*
X165181852Y-104332197D01*
X165185312Y-104342653D01*
X165188548Y-104353135D01*
X165191562Y-104363645D01*
X165194352Y-104374182D01*
X165196919Y-104384746D01*
X165199263Y-104395338D01*
X165201383Y-104405957D01*
X165203281Y-104416602D01*
X165204955Y-104427276D01*
X165206406Y-104437976D01*
X165207633Y-104448704D01*
X165208638Y-104459458D01*
X165209419Y-104470240D01*
X165209977Y-104481050D01*
X165210312Y-104491886D01*
X165210423Y-104502750D01*
X165210293Y-104514890D01*
X165209900Y-104526617D01*
X165209246Y-104537930D01*
X165208330Y-104548829D01*
X165207153Y-104559314D01*
X165205714Y-104569386D01*
X165204013Y-104579044D01*
X165202051Y-104588288D01*
X165199827Y-104597118D01*
X165196875Y-104607012D01*
X165193318Y-104616851D01*
X165189155Y-104626636D01*
X165184387Y-104636365D01*
X165179013Y-104646038D01*
X165173034Y-104655657D01*
X165166449Y-104665221D01*
X165159259Y-104674729D01*
X165153529Y-104681471D01*
X165147244Y-104687907D01*
X165140406Y-104694037D01*
X165133015Y-104699861D01*
X165125069Y-104705378D01*
X165116570Y-104710590D01*
X165107517Y-104715495D01*
X165097911Y-104720095D01*
X165087751Y-104724388D01*
X165077037Y-104728375D01*
X165065769Y-104732055D01*
X165057035Y-104734670D01*
X165048004Y-104737104D01*
X165038674Y-104739358D01*
X165029047Y-104741432D01*
X165019122Y-104743325D01*
X165008899Y-104745038D01*
X164998378Y-104746570D01*
X164987559Y-104747923D01*
X164976442Y-104749095D01*
X164965027Y-104750086D01*
X164953315Y-104750898D01*
X164941304Y-104751529D01*
X164928996Y-104751980D01*
X164916390Y-104752250D01*
X164903486Y-104752340D01*
X164890510Y-104752261D01*
X164877815Y-104752023D01*
X164865404Y-104751627D01*
X164853275Y-104751072D01*
X164841428Y-104750359D01*
X164829863Y-104749488D01*
X164818581Y-104748458D01*
X164807582Y-104747269D01*
X164796864Y-104745922D01*
X164786430Y-104744416D01*
X164776277Y-104742753D01*
X164766407Y-104740930D01*
X164756820Y-104738949D01*
X164747515Y-104736810D01*
X164738492Y-104734512D01*
X164729752Y-104732055D01*
X164717395Y-104728382D01*
X164705666Y-104724417D01*
X164694564Y-104720160D01*
X164684089Y-104715612D01*
X164674242Y-104710772D01*
X164665021Y-104705641D01*
X164656428Y-104700218D01*
X164648462Y-104694504D01*
X164641123Y-104688498D01*
X164634411Y-104682200D01*
X164628326Y-104675611D01*
X164620705Y-104666364D01*
X164613718Y-104657145D01*
X164607364Y-104647954D01*
X164601645Y-104638790D01*
X164596560Y-104629653D01*
X164592109Y-104620545D01*
X164588292Y-104611463D01*
X164585109Y-104602410D01*
X164582428Y-104593204D01*
X164580105Y-104583668D01*
X164578138Y-104573802D01*
X164576530Y-104563604D01*
X164575279Y-104553076D01*
X164574385Y-104542217D01*
X164573849Y-104531027D01*
X164573670Y-104519507D01*
X164573810Y-104506295D01*
X164574231Y-104493517D01*
X164574934Y-104481171D01*
X164575916Y-104469259D01*
X164577180Y-104457780D01*
X164578725Y-104446734D01*
X164580550Y-104436121D01*
X164582656Y-104425942D01*
X164585043Y-104416195D01*
X164587711Y-104406882D01*
X164590660Y-104398002D01*
X164593889Y-104389555D01*
X164597400Y-104381542D01*
X164601191Y-104373961D01*
X164719203Y-104145562D01*
X164709526Y-104145709D01*
X164699898Y-104146150D01*
X164690319Y-104146885D01*
X164680788Y-104147914D01*
X164671307Y-104149237D01*
X164661874Y-104150854D01*
X164653252Y-104152690D01*
X164644019Y-104155174D01*
X164634174Y-104158306D01*
X164623716Y-104162085D01*
X164612647Y-104166513D01*
X164600966Y-104171589D01*
X164588674Y-104177312D01*
X164579005Y-104182397D01*
X164569598Y-104187852D01*
X164560452Y-104193677D01*
X164551568Y-104199873D01*
X164542945Y-104206438D01*
X164534583Y-104213374D01*
X164526483Y-104220680D01*
X164518644Y-104228356D01*
X164511066Y-104236403D01*
X164505546Y-104242834D01*
X164500162Y-104249779D01*
X164494912Y-104257239D01*
X164489797Y-104265213D01*
X164484817Y-104273702D01*
X164479972Y-104282705D01*
X164475262Y-104292222D01*
X164470687Y-104302255D01*
X164466247Y-104312801D01*
X164461942Y-104323862D01*
X164457772Y-104335438D01*
X164453737Y-104347528D01*
X164450746Y-104356881D01*
X164447948Y-104366421D01*
X164445344Y-104376146D01*
X164442932Y-104386058D01*
X164440713Y-104396155D01*
X164438687Y-104406439D01*
X164436854Y-104416908D01*
X164435214Y-104427564D01*
X164433767Y-104438406D01*
X164432513Y-104449434D01*
X164431451Y-104460647D01*
X164430583Y-104472047D01*
X164429908Y-104483633D01*
X164429425Y-104495405D01*
X164429136Y-104507363D01*
X164429040Y-104519507D01*
X164429148Y-104530645D01*
X164429474Y-104541719D01*
X164430016Y-104552727D01*
X164430776Y-104563669D01*
X164431753Y-104574547D01*
X164432946Y-104585359D01*
X164434357Y-104596105D01*
X164435985Y-104606787D01*
X164437830Y-104617403D01*
X164439611Y-104626288D01*
X164441757Y-104635304D01*
X164444269Y-104644451D01*
X164447146Y-104653730D01*
X164450389Y-104663140D01*
X164453997Y-104672681D01*
X164457970Y-104682353D01*
X164462309Y-104692157D01*
X164467014Y-104702091D01*
X164472083Y-104712157D01*
X164477519Y-104722354D01*
X164482793Y-104731798D01*
X164488324Y-104741022D01*
X164494113Y-104750025D01*
X164500158Y-104758808D01*
X164506460Y-104767370D01*
X164513020Y-104775712D01*
X164519836Y-104783833D01*
X164526910Y-104791734D01*
X164534241Y-104799414D01*
X164541828Y-104806874D01*
X164549673Y-104814113D01*
X164557775Y-104821132D01*
X164564541Y-104826596D01*
X164571668Y-104831935D01*
X164579155Y-104837148D01*
X164587003Y-104842236D01*
X164595212Y-104847198D01*
X164603781Y-104852035D01*
X164612711Y-104856747D01*
X164622001Y-104861333D01*
X164631652Y-104865794D01*
X164641664Y-104870129D01*
X164652036Y-104874339D01*
X164662769Y-104878423D01*
X164673863Y-104882382D01*
X164685317Y-104886215D01*
X164697131Y-104889924D01*
X164706585Y-104892816D01*
X164716196Y-104895552D01*
X164725962Y-104898132D01*
X164735886Y-104900556D01*
X164745965Y-104902823D01*
X164756201Y-104904934D01*
X164766593Y-104906888D01*
X164777142Y-104908686D01*
X164787847Y-104910328D01*
X164798709Y-104911813D01*
X164809726Y-104913142D01*
X164820900Y-104914315D01*
X164832231Y-104915331D01*
X164843718Y-104916191D01*
X164855361Y-104916895D01*
X164867161Y-104917442D01*
X164879117Y-104917833D01*
X164891229Y-104918068D01*
X164903498Y-104918146D01*
X164916177Y-104918062D01*
X164928681Y-104917810D01*
X164941008Y-104917390D01*
X164953160Y-104916802D01*
X164965135Y-104916046D01*
X164976934Y-104915122D01*
X164988558Y-104914030D01*
X165000005Y-104912770D01*
X165011276Y-104911342D01*
X165022372Y-104909746D01*
X165033291Y-104907982D01*
X165044034Y-104906050D01*
X165054602Y-104903951D01*
X165064993Y-104901683D01*
X165075208Y-104899247D01*
X165085248Y-104896643D01*
X165095111Y-104893871D01*
X165104798Y-104890931D01*
X165114309Y-104887824D01*
X165123645Y-104884548D01*
X165132804Y-104881104D01*
X165144411Y-104876474D01*
X165155638Y-104871623D01*
X165166487Y-104866552D01*
X165176957Y-104861260D01*
X165187048Y-104855748D01*
X165196760Y-104850016D01*
X165206093Y-104844062D01*
X165215047Y-104837889D01*
X165223623Y-104831495D01*
X165231819Y-104824880D01*
X165239636Y-104818045D01*
X165247075Y-104810990D01*
X165254134Y-104803713D01*
X165260815Y-104796217D01*
X165267116Y-104788500D01*
X165273039Y-104780562D01*
X165279459Y-104771352D01*
X165285618Y-104762114D01*
X165291517Y-104752849D01*
X165297154Y-104743557D01*
X165302531Y-104734238D01*
X165307647Y-104724892D01*
X165312502Y-104715519D01*
X165317096Y-104706119D01*
X165321429Y-104696692D01*
X165325502Y-104687238D01*
X165329313Y-104677757D01*
X165332864Y-104668250D01*
X165336154Y-104658715D01*
X165339183Y-104649153D01*
X165341855Y-104639631D01*
X165344330Y-104629966D01*
X165346606Y-104620157D01*
X165348684Y-104610203D01*
X165350565Y-104600106D01*
X165352247Y-104589864D01*
X165353732Y-104579479D01*
X165355019Y-104568950D01*
X165356107Y-104558276D01*
X165356998Y-104547459D01*
X165357691Y-104536498D01*
X165358186Y-104525392D01*
X165358483Y-104514143D01*
X165358582Y-104502750D01*
X165358500Y-104491701D01*
X165358255Y-104480701D01*
X165357847Y-104469751D01*
X165357275Y-104458849D01*
X165356540Y-104447996D01*
X165355642Y-104437192D01*
X165354581Y-104426437D01*
X165353356Y-104415731D01*
X165351968Y-104405075D01*
X165350417Y-104394467D01*
X165348702Y-104383908D01*
X165346824Y-104373398D01*
X165344783Y-104362937D01*
X165342578Y-104352525D01*
X165340210Y-104342163D01*
X165337679Y-104331849D01*
X165334984Y-104321584D01*
X165332127Y-104311368D01*
X165687555Y-104311368D01*
X165687555Y-104145562D01*
X165687579Y-104145562D01*
X165687579Y-104145562D01*
G37*
G36*
X165128421Y-105143042D02*
X164728018Y-105291208D01*
X164736317Y-105288859D01*
X164744899Y-105286661D01*
X164753763Y-105284614D01*
X164762910Y-105282720D01*
X164772339Y-105280976D01*
X164782051Y-105279385D01*
X164792046Y-105277945D01*
X164802323Y-105276656D01*
X164812882Y-105275519D01*
X164823724Y-105274534D01*
X164834848Y-105273700D01*
X164846255Y-105273018D01*
X164857945Y-105272488D01*
X164869916Y-105272109D01*
X164882171Y-105271881D01*
X164894708Y-105271806D01*
X164907248Y-105271881D01*
X164919513Y-105272109D01*
X164931502Y-105272488D01*
X164943215Y-105273018D01*
X164954653Y-105273700D01*
X164965815Y-105274534D01*
X164976702Y-105275519D01*
X164987313Y-105276656D01*
X164997648Y-105277945D01*
X165007708Y-105279385D01*
X165017492Y-105280976D01*
X165027000Y-105282720D01*
X165036233Y-105284614D01*
X165045190Y-105286661D01*
X165053871Y-105288859D01*
X165062277Y-105291208D01*
X165073866Y-105295057D01*
X165084902Y-105299226D01*
X165095383Y-105303716D01*
X165105311Y-105308527D01*
X165114685Y-105313658D01*
X165123505Y-105319110D01*
X165131771Y-105324883D01*
X165139483Y-105330976D01*
X165146641Y-105337390D01*
X165153245Y-105344125D01*
X165159295Y-105351181D01*
X165166088Y-105360011D01*
X165172358Y-105368863D01*
X165178105Y-105377737D01*
X165183331Y-105386633D01*
X165188033Y-105395550D01*
X165192214Y-105404489D01*
X165195872Y-105413450D01*
X165199008Y-105422433D01*
X165201621Y-105431438D01*
X165203845Y-105440660D01*
X165205807Y-105450296D01*
X165207508Y-105460346D01*
X165208947Y-105470809D01*
X165210124Y-105481687D01*
X165211040Y-105492978D01*
X165211694Y-105504682D01*
X165212087Y-105516801D01*
X165212218Y-105529333D01*
X165212087Y-105542051D01*
X165211694Y-105554333D01*
X165211040Y-105566179D01*
X165210124Y-105577590D01*
X165208947Y-105588565D01*
X165207508Y-105599105D01*
X165205807Y-105609209D01*
X165203845Y-105618878D01*
X165201621Y-105628111D01*
X165199005Y-105637116D01*
X165195868Y-105646098D01*
X165192209Y-105655059D01*
X165188028Y-105663999D01*
X165183325Y-105672916D01*
X165178100Y-105681812D01*
X165172354Y-105690686D01*
X165166085Y-105699538D01*
X165159295Y-105708368D01*
X165153245Y-105715416D01*
X165146641Y-105722129D01*
X165139483Y-105728507D01*
X165131771Y-105734549D01*
X165123505Y-105740257D01*
X165114685Y-105745628D01*
X165105311Y-105750665D01*
X165095383Y-105755366D01*
X165084902Y-105759732D01*
X165073866Y-105763763D01*
X165062277Y-105767458D01*
X165053871Y-105769915D01*
X165045190Y-105772213D01*
X165036233Y-105774352D01*
X165027000Y-105776333D01*
X165017492Y-105778155D01*
X165007708Y-105779819D01*
X164997648Y-105781325D01*
X164987313Y-105782672D01*
X164976702Y-105783860D01*
X164965815Y-105784891D01*
X164954653Y-105785762D01*
X164943215Y-105786475D01*
X164931502Y-105787030D01*
X164919513Y-105787426D01*
X164907248Y-105787664D01*
X164894708Y-105787743D01*
X164882171Y-105787664D01*
X164869916Y-105787426D01*
X164857945Y-105787030D01*
X164846255Y-105786475D01*
X164834848Y-105785762D01*
X164823724Y-105784891D01*
X164812882Y-105783860D01*
X164802323Y-105782672D01*
X164792046Y-105781325D01*
X164782051Y-105779819D01*
X164772339Y-105778155D01*
X164762910Y-105776333D01*
X164753763Y-105774352D01*
X164744899Y-105772213D01*
X164736317Y-105769915D01*
X164728018Y-105767458D01*
X164716276Y-105763763D01*
X164705102Y-105759732D01*
X164694497Y-105755366D01*
X164684460Y-105750665D01*
X164674992Y-105745628D01*
X164666092Y-105740257D01*
X164657761Y-105734549D01*
X164649998Y-105728507D01*
X164642804Y-105722129D01*
X164636178Y-105715416D01*
X164630120Y-105708368D01*
X164623328Y-105699538D01*
X164617058Y-105690686D01*
X164611310Y-105681812D01*
X164606085Y-105672916D01*
X164601382Y-105663999D01*
X164597202Y-105655059D01*
X164593543Y-105646098D01*
X164590408Y-105637116D01*
X164587794Y-105628111D01*
X164585571Y-105618878D01*
X164583608Y-105609209D01*
X164581908Y-105599105D01*
X164580469Y-105588565D01*
X164579291Y-105577590D01*
X164578375Y-105566179D01*
X164577721Y-105554333D01*
X164577329Y-105542051D01*
X164577198Y-105529333D01*
X164577329Y-105516801D01*
X164577721Y-105504682D01*
X164578375Y-105492978D01*
X164579291Y-105481687D01*
X164580469Y-105470809D01*
X164581908Y-105460346D01*
X164583608Y-105450296D01*
X164585571Y-105440660D01*
X164587794Y-105431438D01*
X164590410Y-105422433D01*
X164593548Y-105413450D01*
X164597207Y-105404489D01*
X164601388Y-105395550D01*
X164606091Y-105386633D01*
X164611316Y-105377737D01*
X164617062Y-105368863D01*
X164623330Y-105360011D01*
X164630120Y-105351181D01*
X164636178Y-105344125D01*
X164642804Y-105337390D01*
X164649998Y-105330976D01*
X164657761Y-105324883D01*
X164666092Y-105319110D01*
X164674992Y-105313658D01*
X164684460Y-105308527D01*
X164694497Y-105303716D01*
X164705102Y-105299226D01*
X164716276Y-105295057D01*
X164728018Y-105291208D01*
X165128421Y-105143042D01*
X165119596Y-105139672D01*
X165110601Y-105136460D01*
X165101433Y-105133404D01*
X165092095Y-105130505D01*
X165082585Y-105127763D01*
X165072904Y-105125177D01*
X165063052Y-105122748D01*
X165053028Y-105120476D01*
X165042833Y-105118360D01*
X165032467Y-105116401D01*
X165021929Y-105114599D01*
X165011220Y-105112954D01*
X165000340Y-105111465D01*
X164989288Y-105110133D01*
X164978065Y-105108957D01*
X164966671Y-105107939D01*
X164955105Y-105107077D01*
X164943368Y-105106372D01*
X164931460Y-105105823D01*
X164919381Y-105105431D01*
X164907130Y-105105196D01*
X164894708Y-105105118D01*
X164882287Y-105105196D01*
X164870042Y-105105431D01*
X164857972Y-105105823D01*
X164846076Y-105106372D01*
X164834356Y-105107077D01*
X164822810Y-105107939D01*
X164811439Y-105108957D01*
X164800244Y-105110133D01*
X164789223Y-105111465D01*
X164778377Y-105112954D01*
X164767706Y-105114599D01*
X164757210Y-105116401D01*
X164746889Y-105118360D01*
X164736743Y-105120476D01*
X164726772Y-105122748D01*
X164716976Y-105125177D01*
X164707355Y-105127763D01*
X164697909Y-105130505D01*
X164688638Y-105133404D01*
X164679541Y-105136460D01*
X164670620Y-105139672D01*
X164661874Y-105143042D01*
X164650732Y-105147598D01*
X164639927Y-105152343D01*
X164629457Y-105157278D01*
X164619322Y-105162402D01*
X164609523Y-105167715D01*
X164600060Y-105173217D01*
X164590932Y-105178908D01*
X164582140Y-105184789D01*
X164573683Y-105190859D01*
X164565562Y-105197118D01*
X164557776Y-105203566D01*
X164550326Y-105210204D01*
X164543212Y-105217030D01*
X164536433Y-105224046D01*
X164529990Y-105231251D01*
X164523882Y-105238646D01*
X164518110Y-105246229D01*
X164511451Y-105255566D01*
X164505080Y-105264930D01*
X164498996Y-105274321D01*
X164493201Y-105283739D01*
X164487693Y-105293184D01*
X164482474Y-105302656D01*
X164477543Y-105312155D01*
X164472899Y-105321680D01*
X164468544Y-105331233D01*
X164464477Y-105340813D01*
X164460697Y-105350420D01*
X164457206Y-105360054D01*
X164454003Y-105369715D01*
X164451088Y-105379403D01*
X164448294Y-105389293D01*
X164445708Y-105399310D01*
X164443328Y-105409452D01*
X164441156Y-105419720D01*
X164439190Y-105430115D01*
X164437431Y-105440635D01*
X164435879Y-105451281D01*
X164434534Y-105462054D01*
X164433396Y-105472952D01*
X164432465Y-105483976D01*
X164431741Y-105495126D01*
X164431224Y-105506403D01*
X164430913Y-105517805D01*
X164430810Y-105529333D01*
X164430913Y-105540979D01*
X164431224Y-105552480D01*
X164431741Y-105563837D01*
X164432465Y-105575050D01*
X164433396Y-105586120D01*
X164434534Y-105597045D01*
X164435879Y-105607826D01*
X164437431Y-105618464D01*
X164439190Y-105628957D01*
X164441156Y-105639306D01*
X164443328Y-105649512D01*
X164445708Y-105659573D01*
X164448294Y-105669490D01*
X164451088Y-105679264D01*
X164454003Y-105689073D01*
X164457206Y-105698847D01*
X164460697Y-105708584D01*
X164464477Y-105718285D01*
X164468544Y-105727951D01*
X164472899Y-105737580D01*
X164477543Y-105747174D01*
X164482474Y-105756731D01*
X164487693Y-105766252D01*
X164493201Y-105775738D01*
X164498996Y-105785187D01*
X164505080Y-105794601D01*
X164511451Y-105803978D01*
X164518110Y-105813319D01*
X164523882Y-105820903D01*
X164529990Y-105828297D01*
X164536433Y-105835502D01*
X164543212Y-105842518D01*
X164550326Y-105849345D01*
X164557776Y-105855982D01*
X164565562Y-105862431D01*
X164573683Y-105868690D01*
X164582140Y-105874760D01*
X164590932Y-105880640D01*
X164600060Y-105886332D01*
X164609523Y-105891834D01*
X164619322Y-105897147D01*
X164629457Y-105902271D01*
X164639927Y-105907205D01*
X164650732Y-105911951D01*
X164661874Y-105916507D01*
X164670620Y-105919876D01*
X164679541Y-105923089D01*
X164688638Y-105926145D01*
X164697909Y-105929044D01*
X164707355Y-105931786D01*
X164716976Y-105934372D01*
X164726772Y-105936801D01*
X164736743Y-105939073D01*
X164746889Y-105941189D01*
X164757210Y-105943147D01*
X164767706Y-105944950D01*
X164778377Y-105946595D01*
X164789223Y-105948084D01*
X164800244Y-105949416D01*
X164811439Y-105950591D01*
X164822810Y-105951610D01*
X164834356Y-105952472D01*
X164846076Y-105953177D01*
X164857972Y-105953725D01*
X164870042Y-105954117D01*
X164882287Y-105954352D01*
X164894708Y-105954431D01*
X164907130Y-105954352D01*
X164919381Y-105954117D01*
X164931460Y-105953725D01*
X164943368Y-105953177D01*
X164955105Y-105952472D01*
X164966671Y-105951610D01*
X164978065Y-105950591D01*
X164989288Y-105949416D01*
X165000340Y-105948084D01*
X165011220Y-105946595D01*
X165021929Y-105944950D01*
X165032467Y-105943147D01*
X165042833Y-105941189D01*
X165053028Y-105939073D01*
X165063052Y-105936801D01*
X165072904Y-105934372D01*
X165082585Y-105931786D01*
X165092095Y-105929044D01*
X165101433Y-105926145D01*
X165110601Y-105923089D01*
X165119596Y-105919876D01*
X165128421Y-105916507D01*
X165139462Y-105911951D01*
X165150173Y-105907205D01*
X165160555Y-105902271D01*
X165170607Y-105897147D01*
X165180329Y-105891834D01*
X165189722Y-105886332D01*
X165198786Y-105880640D01*
X165207520Y-105874760D01*
X165215924Y-105868690D01*
X165223999Y-105862431D01*
X165231744Y-105855982D01*
X165239159Y-105849345D01*
X165246245Y-105842518D01*
X165253001Y-105835502D01*
X165259428Y-105828297D01*
X165265525Y-105820903D01*
X165271293Y-105813319D01*
X165277957Y-105803978D01*
X165284342Y-105794601D01*
X165290448Y-105785187D01*
X165296275Y-105775738D01*
X165301824Y-105766252D01*
X165307093Y-105756731D01*
X165312084Y-105747174D01*
X165316795Y-105737580D01*
X165321228Y-105727951D01*
X165325381Y-105718285D01*
X165329256Y-105708584D01*
X165332852Y-105698847D01*
X165336169Y-105689073D01*
X165339207Y-105679264D01*
X165341879Y-105669490D01*
X165344354Y-105659573D01*
X165346630Y-105649512D01*
X165348708Y-105639306D01*
X165350589Y-105628957D01*
X165352272Y-105618464D01*
X165353756Y-105607826D01*
X165355043Y-105597045D01*
X165356131Y-105586120D01*
X165357022Y-105575050D01*
X165357715Y-105563837D01*
X165358210Y-105552480D01*
X165358507Y-105540979D01*
X165358606Y-105529333D01*
X165358507Y-105517805D01*
X165358210Y-105506403D01*
X165357715Y-105495126D01*
X165357022Y-105483976D01*
X165356131Y-105472952D01*
X165355043Y-105462054D01*
X165353756Y-105451281D01*
X165352272Y-105440635D01*
X165350589Y-105430115D01*
X165348708Y-105419720D01*
X165346630Y-105409452D01*
X165344354Y-105399310D01*
X165341879Y-105389293D01*
X165339207Y-105379403D01*
X165336169Y-105369715D01*
X165332852Y-105360054D01*
X165329256Y-105350420D01*
X165325381Y-105340813D01*
X165321228Y-105331233D01*
X165316795Y-105321680D01*
X165312084Y-105312155D01*
X165307093Y-105302656D01*
X165301824Y-105293184D01*
X165296275Y-105283739D01*
X165290448Y-105274321D01*
X165284342Y-105264930D01*
X165277957Y-105255566D01*
X165271293Y-105246229D01*
X165265525Y-105238646D01*
X165259428Y-105231251D01*
X165253001Y-105224046D01*
X165246245Y-105217030D01*
X165239159Y-105210204D01*
X165231744Y-105203566D01*
X165223999Y-105197118D01*
X165215924Y-105190859D01*
X165207520Y-105184789D01*
X165198786Y-105178908D01*
X165189722Y-105173217D01*
X165180329Y-105167715D01*
X165170607Y-105162402D01*
X165160555Y-105157278D01*
X165150173Y-105152343D01*
X165139462Y-105147598D01*
X165128421Y-105143042D01*
X165128421Y-105143042D01*
G37*
G36*
X165344493Y-106194319D02*
X164100078Y-106194319D01*
X164100078Y-106360125D01*
X165344493Y-106360125D01*
X165344493Y-106194319D01*
X165344493Y-106194319D01*
G37*
G36*
X164443152Y-106557681D02*
X164443152Y-106734951D01*
X165118715Y-106977486D01*
X164443152Y-107215611D01*
X164443152Y-107392882D01*
X165440632Y-107022465D01*
X165453126Y-107017724D01*
X165465312Y-107012879D01*
X165477189Y-107007930D01*
X165488757Y-107002877D01*
X165500018Y-106997720D01*
X165510969Y-106992459D01*
X165521612Y-106987095D01*
X165531947Y-106981626D01*
X165541973Y-106976054D01*
X165551690Y-106970378D01*
X165561099Y-106964597D01*
X165570200Y-106958713D01*
X165578992Y-106952726D01*
X165587476Y-106946634D01*
X165595651Y-106940438D01*
X165603517Y-106934139D01*
X165611075Y-106927735D01*
X165618325Y-106921228D01*
X165625266Y-106914617D01*
X165631899Y-106907902D01*
X165638223Y-106901083D01*
X165644238Y-106894160D01*
X165649946Y-106887133D01*
X165655344Y-106880003D01*
X165660434Y-106872768D01*
X165665216Y-106865430D01*
X165669689Y-106857988D01*
X165673854Y-106850442D01*
X165677710Y-106842792D01*
X165681258Y-106835038D01*
X165684497Y-106827180D01*
X165687428Y-106819218D01*
X165690050Y-106811153D01*
X165692364Y-106802983D01*
X165694369Y-106794710D01*
X165696065Y-106786333D01*
X165697454Y-106777852D01*
X165698533Y-106769267D01*
X165699305Y-106760578D01*
X165699767Y-106751785D01*
X165699922Y-106742889D01*
X165699922Y-106742010D01*
X165699824Y-106731972D01*
X165699530Y-106721848D01*
X165699040Y-106711638D01*
X165698354Y-106701342D01*
X165697472Y-106690961D01*
X165696393Y-106680494D01*
X165695119Y-106669942D01*
X165693649Y-106659303D01*
X165691983Y-106648579D01*
X165690121Y-106637769D01*
X165688063Y-106626873D01*
X165685809Y-106615892D01*
X165537639Y-106615892D01*
X165540329Y-106626590D01*
X165542755Y-106637164D01*
X165544916Y-106647615D01*
X165546813Y-106657943D01*
X165548446Y-106668147D01*
X165549814Y-106678228D01*
X165550918Y-106688185D01*
X165551757Y-106698018D01*
X165552332Y-106707729D01*
X165552642Y-106717315D01*
X165552411Y-106724735D01*
X165551717Y-106732058D01*
X165550561Y-106739285D01*
X165548942Y-106746416D01*
X165546860Y-106753451D01*
X165544316Y-106760390D01*
X165541310Y-106767232D01*
X165537841Y-106773979D01*
X165533909Y-106780630D01*
X165529515Y-106787185D01*
X165524658Y-106793644D01*
X165519338Y-106800006D01*
X165513556Y-106806273D01*
X165507312Y-106812444D01*
X165500605Y-106818518D01*
X165493435Y-106824497D01*
X165485803Y-106830380D01*
X165477709Y-106836166D01*
X165469151Y-106841857D01*
X165460132Y-106847451D01*
X165450649Y-106852950D01*
X165440704Y-106858352D01*
X165430297Y-106863658D01*
X165419427Y-106868869D01*
X165408094Y-106873983D01*
X165396299Y-106879001D01*
X165384042Y-106883923D01*
X165371321Y-106888750D01*
X165358139Y-106893480D01*
X165344493Y-106898114D01*
X164443152Y-106557683D01*
X164443152Y-106557681D01*
X164443152Y-106557681D01*
G37*
G36*
X164698034Y-107512826D02*
X164686917Y-107513025D01*
X164675968Y-107513620D01*
X164665186Y-107514612D01*
X164654571Y-107516001D01*
X164644125Y-107517787D01*
X164633845Y-107519970D01*
X164623734Y-107522550D01*
X164613790Y-107525526D01*
X164604014Y-107528900D01*
X164594405Y-107532670D01*
X164584964Y-107536837D01*
X164575691Y-107541401D01*
X164566585Y-107546362D01*
X164557647Y-107551720D01*
X164548876Y-107557475D01*
X164540274Y-107563626D01*
X164531838Y-107570175D01*
X164523571Y-107577120D01*
X164515470Y-107584462D01*
X164507538Y-107592201D01*
X164501384Y-107598756D01*
X164495481Y-107605579D01*
X164489829Y-107612670D01*
X164484428Y-107620029D01*
X164479279Y-107627656D01*
X164474380Y-107635551D01*
X164469733Y-107643714D01*
X164465337Y-107652145D01*
X164461193Y-107660845D01*
X164457299Y-107669813D01*
X164453657Y-107679048D01*
X164450266Y-107688552D01*
X164447126Y-107698324D01*
X164444237Y-107708364D01*
X164441599Y-107718672D01*
X164439213Y-107729248D01*
X164437078Y-107740093D01*
X164435194Y-107751205D01*
X164433561Y-107762586D01*
X164432180Y-107774235D01*
X164431049Y-107786152D01*
X164430170Y-107798336D01*
X164429542Y-107810790D01*
X164429165Y-107823511D01*
X164429040Y-107836500D01*
X164429151Y-107847153D01*
X164429486Y-107857793D01*
X164430045Y-107868420D01*
X164430827Y-107879033D01*
X164431832Y-107889633D01*
X164433061Y-107900220D01*
X164434513Y-107910793D01*
X164436188Y-107921353D01*
X164438087Y-107931900D01*
X164440209Y-107942433D01*
X164442555Y-107952953D01*
X164445124Y-107963460D01*
X164447916Y-107973953D01*
X164450932Y-107984433D01*
X164454171Y-107994900D01*
X164457634Y-108005353D01*
X164461320Y-108015793D01*
X164465229Y-108026220D01*
X164469362Y-108036633D01*
X164473718Y-108047033D01*
X164478298Y-108057420D01*
X164483101Y-108067793D01*
X164488127Y-108078153D01*
X164630999Y-108078153D01*
X164625999Y-108067011D01*
X164621242Y-108055930D01*
X164616729Y-108044909D01*
X164612460Y-108033948D01*
X164608435Y-108023046D01*
X164604654Y-108012205D01*
X164601116Y-108001424D01*
X164597823Y-107990702D01*
X164594774Y-107980041D01*
X164591969Y-107969440D01*
X164589407Y-107958898D01*
X164587090Y-107948417D01*
X164585016Y-107937996D01*
X164583187Y-107927634D01*
X164581601Y-107917333D01*
X164580259Y-107907092D01*
X164579162Y-107896910D01*
X164578308Y-107886789D01*
X164577698Y-107876727D01*
X164577332Y-107866726D01*
X164577210Y-107856785D01*
X164577369Y-107843768D01*
X164577844Y-107831243D01*
X164578636Y-107819210D01*
X164579746Y-107807667D01*
X164581172Y-107796615D01*
X164582915Y-107786055D01*
X164584975Y-107775986D01*
X164587352Y-107766408D01*
X164590046Y-107757321D01*
X164593057Y-107748725D01*
X164596385Y-107740621D01*
X164600030Y-107733008D01*
X164603992Y-107725886D01*
X164608271Y-107719255D01*
X164612866Y-107713115D01*
X164617779Y-107707466D01*
X164623008Y-107702309D01*
X164628555Y-107697643D01*
X164634418Y-107693468D01*
X164640599Y-107689784D01*
X164647096Y-107686591D01*
X164653910Y-107683890D01*
X164661042Y-107681679D01*
X164668490Y-107679960D01*
X164676255Y-107678732D01*
X164684337Y-107677996D01*
X164692736Y-107677750D01*
X164701013Y-107678338D01*
X164708984Y-107680102D01*
X164716650Y-107683042D01*
X164724012Y-107687157D01*
X164731068Y-107692449D01*
X164737819Y-107698917D01*
X164744266Y-107706560D01*
X164750407Y-107715380D01*
X164756243Y-107725375D01*
X164760689Y-107734194D01*
X164765048Y-107743335D01*
X164769320Y-107752795D01*
X164773504Y-107762577D01*
X164777600Y-107772679D01*
X164781609Y-107783102D01*
X164785530Y-107793846D01*
X164789363Y-107804910D01*
X164793109Y-107816295D01*
X164796768Y-107828001D01*
X164800339Y-107840028D01*
X164803240Y-107850340D01*
X164806246Y-107860652D01*
X164809356Y-107870964D01*
X164812571Y-107881276D01*
X164815890Y-107891588D01*
X164819314Y-107901900D01*
X164822842Y-107912212D01*
X164826475Y-107922524D01*
X164830212Y-107932835D01*
X164834053Y-107943147D01*
X164837999Y-107953459D01*
X164842050Y-107963771D01*
X164846205Y-107974083D01*
X164850173Y-107983681D01*
X164854519Y-107993072D01*
X164859243Y-108002256D01*
X164864346Y-108011233D01*
X164869826Y-108020003D01*
X164875684Y-108028566D01*
X164881920Y-108036922D01*
X164888534Y-108045071D01*
X164895526Y-108053013D01*
X164902895Y-108060748D01*
X164910643Y-108068276D01*
X164918769Y-108075597D01*
X164927273Y-108082711D01*
X164936155Y-108089618D01*
X164944210Y-108095492D01*
X164952500Y-108100987D01*
X164961023Y-108106103D01*
X164969781Y-108110840D01*
X164978773Y-108115198D01*
X164987999Y-108119177D01*
X164997460Y-108122777D01*
X165007154Y-108125998D01*
X165017083Y-108128841D01*
X165027246Y-108131304D01*
X165037642Y-108133388D01*
X165048274Y-108135093D01*
X165059139Y-108136420D01*
X165070238Y-108137367D01*
X165081572Y-108137936D01*
X165093139Y-108138125D01*
X165103913Y-108137920D01*
X165114536Y-108137305D01*
X165125009Y-108136280D01*
X165135333Y-108134844D01*
X165145506Y-108132999D01*
X165155530Y-108130743D01*
X165165404Y-108128077D01*
X165175127Y-108125002D01*
X165184701Y-108121516D01*
X165194125Y-108117620D01*
X165203399Y-108113314D01*
X165212523Y-108108598D01*
X165221498Y-108103471D01*
X165230322Y-108097935D01*
X165238996Y-108091988D01*
X165247521Y-108085632D01*
X165255895Y-108078865D01*
X165264120Y-108071688D01*
X165272195Y-108064101D01*
X165280119Y-108056104D01*
X165286041Y-108049662D01*
X165291730Y-108042953D01*
X165297187Y-108035979D01*
X165302411Y-108028738D01*
X165307404Y-108021231D01*
X165312164Y-108013458D01*
X165316692Y-108005418D01*
X165320988Y-107997113D01*
X165325052Y-107988542D01*
X165328883Y-107979704D01*
X165332482Y-107970600D01*
X165335849Y-107961230D01*
X165338984Y-107951594D01*
X165341887Y-107941691D01*
X165344557Y-107931523D01*
X165346995Y-107921088D01*
X165349201Y-107910388D01*
X165351175Y-107899421D01*
X165352917Y-107888188D01*
X165354426Y-107876689D01*
X165355703Y-107864923D01*
X165356748Y-107852892D01*
X165357561Y-107840594D01*
X165358141Y-107828030D01*
X165358490Y-107815200D01*
X165358606Y-107802104D01*
X165358506Y-107790580D01*
X165358205Y-107779148D01*
X165357704Y-107767810D01*
X165357003Y-107756565D01*
X165356101Y-107745413D01*
X165354999Y-107734354D01*
X165353697Y-107723388D01*
X165352194Y-107712516D01*
X165350491Y-107701736D01*
X165348587Y-107691050D01*
X165346483Y-107680457D01*
X165344179Y-107669956D01*
X165341675Y-107659550D01*
X165338970Y-107649236D01*
X165336064Y-107639015D01*
X165332958Y-107628887D01*
X165329652Y-107618853D01*
X165326146Y-107608912D01*
X165322439Y-107599064D01*
X165318532Y-107589309D01*
X165314424Y-107579647D01*
X165310116Y-107570078D01*
X165305608Y-107560602D01*
X165300899Y-107551220D01*
X165295990Y-107541931D01*
X165146062Y-107541931D01*
X165151459Y-107551731D01*
X165156626Y-107561584D01*
X165161564Y-107571489D01*
X165166272Y-107581447D01*
X165170751Y-107591456D01*
X165175000Y-107601517D01*
X165179019Y-107611630D01*
X165182808Y-107621796D01*
X165186368Y-107632013D01*
X165189698Y-107642282D01*
X165192799Y-107652604D01*
X165195670Y-107662977D01*
X165198311Y-107673403D01*
X165200722Y-107683881D01*
X165202904Y-107694410D01*
X165204856Y-107704992D01*
X165206579Y-107715626D01*
X165208072Y-107726312D01*
X165209335Y-107737050D01*
X165210368Y-107747840D01*
X165211172Y-107758682D01*
X165211746Y-107769576D01*
X165212091Y-107780523D01*
X165212206Y-107791521D01*
X165212206Y-107795049D01*
X165212023Y-107808101D01*
X165211475Y-107820662D01*
X165210562Y-107832733D01*
X165209284Y-107844313D01*
X165207640Y-107855402D01*
X165205631Y-107866001D01*
X165203257Y-107876110D01*
X165200518Y-107885727D01*
X165197414Y-107894855D01*
X165193944Y-107903492D01*
X165190109Y-107911638D01*
X165185909Y-107919294D01*
X165181343Y-107926459D01*
X165174825Y-107935172D01*
X165167972Y-107942969D01*
X165160784Y-107949848D01*
X165153261Y-107955810D01*
X165145402Y-107960855D01*
X165137209Y-107964982D01*
X165128681Y-107968192D01*
X165119818Y-107970485D01*
X165110620Y-107971861D01*
X165101087Y-107972320D01*
X165091165Y-107971926D01*
X165081608Y-107970745D01*
X165072416Y-107968777D01*
X165063588Y-107966022D01*
X165055125Y-107962480D01*
X165047027Y-107958150D01*
X165039293Y-107953034D01*
X165031924Y-107947130D01*
X165024919Y-107940439D01*
X165018279Y-107932960D01*
X165012004Y-107924695D01*
X165006382Y-107916757D01*
X165000981Y-107908526D01*
X164995801Y-107900000D01*
X164990840Y-107891181D01*
X164986100Y-107882067D01*
X164981581Y-107872660D01*
X164977282Y-107862959D01*
X164973204Y-107852963D01*
X164969345Y-107842674D01*
X164965708Y-107832091D01*
X164962290Y-107821213D01*
X164959094Y-107810042D01*
X164956086Y-107799594D01*
X164953038Y-107789147D01*
X164949947Y-107778699D01*
X164946816Y-107768251D01*
X164943642Y-107757804D01*
X164940427Y-107747356D01*
X164937170Y-107736909D01*
X164933872Y-107726461D01*
X164930532Y-107716013D01*
X164927150Y-107705566D01*
X164923727Y-107695118D01*
X164920262Y-107684670D01*
X164916756Y-107674223D01*
X164912914Y-107664025D01*
X164908718Y-107654058D01*
X164904167Y-107644320D01*
X164899261Y-107634812D01*
X164894001Y-107625533D01*
X164888385Y-107616484D01*
X164882416Y-107607664D01*
X164876091Y-107599075D01*
X164869412Y-107590714D01*
X164862378Y-107582584D01*
X164854990Y-107574683D01*
X164847246Y-107567012D01*
X164839148Y-107559570D01*
X164831717Y-107553545D01*
X164824002Y-107547936D01*
X164816006Y-107542742D01*
X164807727Y-107537964D01*
X164799167Y-107533601D01*
X164790324Y-107529654D01*
X164781198Y-107526123D01*
X164771791Y-107523006D01*
X164762101Y-107520306D01*
X164752129Y-107518020D01*
X164741874Y-107516151D01*
X164731338Y-107514697D01*
X164720519Y-107513658D01*
X164709418Y-107513035D01*
X164698034Y-107512827D01*
X164698034Y-107512826D01*
X164698034Y-107512826D01*
G37*
G36*
X164582496Y-108266889D02*
X164443152Y-108266889D01*
X164443152Y-108423875D01*
X164174158Y-108423875D01*
X164174158Y-108588799D01*
X164443152Y-108588799D01*
X164443152Y-108828688D01*
X164582496Y-108828688D01*
X164582496Y-108588799D01*
X165106373Y-108588799D01*
X165115775Y-108589074D01*
X165124741Y-108589899D01*
X165133268Y-108591275D01*
X165141359Y-108593201D01*
X165149012Y-108595677D01*
X165156228Y-108598704D01*
X165163006Y-108602281D01*
X165169348Y-108606408D01*
X165175252Y-108611086D01*
X165180718Y-108616314D01*
X165185747Y-108622092D01*
X165190339Y-108628421D01*
X165194494Y-108635299D01*
X165198211Y-108642728D01*
X165201491Y-108650708D01*
X165204334Y-108659238D01*
X165206739Y-108668318D01*
X165208707Y-108677948D01*
X165210238Y-108688129D01*
X165211331Y-108698860D01*
X165211987Y-108710141D01*
X165212206Y-108721972D01*
X165212206Y-108723736D01*
X165211941Y-108735898D01*
X165211147Y-108747690D01*
X165209825Y-108759111D01*
X165207973Y-108770162D01*
X165205592Y-108780842D01*
X165202682Y-108791152D01*
X165199242Y-108801092D01*
X165195274Y-108810661D01*
X165190777Y-108819860D01*
X165185750Y-108828688D01*
X165333921Y-108828688D01*
X165337864Y-108818398D01*
X165341463Y-108808109D01*
X165344721Y-108797820D01*
X165347635Y-108787530D01*
X165350206Y-108777241D01*
X165352435Y-108766952D01*
X165354320Y-108756662D01*
X165355863Y-108746373D01*
X165357063Y-108736084D01*
X165357920Y-108725794D01*
X165358434Y-108715505D01*
X165358606Y-108705216D01*
X165358606Y-108700806D01*
X165358444Y-108691393D01*
X165357957Y-108681799D01*
X165357146Y-108672026D01*
X165356011Y-108662072D01*
X165354551Y-108651939D01*
X165352767Y-108641626D01*
X165350658Y-108631132D01*
X165348708Y-108622716D01*
X165346387Y-108613929D01*
X165343697Y-108604772D01*
X165340638Y-108595245D01*
X165337208Y-108585347D01*
X165333410Y-108575080D01*
X165329241Y-108564442D01*
X165324704Y-108553434D01*
X165319796Y-108542056D01*
X165315189Y-108532901D01*
X165310027Y-108524038D01*
X165304312Y-108515466D01*
X165298043Y-108507186D01*
X165291220Y-108499198D01*
X165283842Y-108491501D01*
X165275912Y-108484095D01*
X165267427Y-108476982D01*
X165258388Y-108470159D01*
X165248795Y-108463628D01*
X165238649Y-108457389D01*
X165230194Y-108452773D01*
X165221460Y-108448498D01*
X165212447Y-108444565D01*
X165203155Y-108440974D01*
X165193585Y-108437726D01*
X165183735Y-108434819D01*
X165173607Y-108432254D01*
X165163199Y-108430031D01*
X165152513Y-108428150D01*
X165141548Y-108426611D01*
X165130303Y-108425414D01*
X165118780Y-108424559D01*
X165106978Y-108424046D01*
X165094897Y-108423875D01*
X164582484Y-108423875D01*
X164582484Y-108266889D01*
X164582496Y-108266889D01*
X164582496Y-108266889D01*
G37*
G36*
X165060507Y-108995375D02*
X165058713Y-109159416D01*
X165067872Y-109159615D01*
X165076750Y-109160213D01*
X165085346Y-109161209D01*
X165093660Y-109162604D01*
X165101692Y-109164397D01*
X165109442Y-109166588D01*
X165116911Y-109169178D01*
X165124097Y-109172167D01*
X165131002Y-109175553D01*
X165137625Y-109179339D01*
X165143966Y-109183523D01*
X165150026Y-109188105D01*
X165155803Y-109193085D01*
X165161299Y-109198465D01*
X165166513Y-109204242D01*
X165171445Y-109210418D01*
X165176095Y-109216993D01*
X165180463Y-109223966D01*
X165184550Y-109231337D01*
X165188355Y-109239107D01*
X165191878Y-109247275D01*
X165195119Y-109255842D01*
X165198078Y-109264807D01*
X165200755Y-109274171D01*
X165203151Y-109283933D01*
X165205265Y-109294094D01*
X165207096Y-109304653D01*
X165208647Y-109315610D01*
X165209915Y-109326966D01*
X165210901Y-109338721D01*
X165211606Y-109350873D01*
X165212028Y-109363425D01*
X165212169Y-109376374D01*
X165212169Y-109379020D01*
X165212026Y-109391608D01*
X165211594Y-109403797D01*
X165210875Y-109415586D01*
X165209868Y-109426976D01*
X165208574Y-109437966D01*
X165206992Y-109448556D01*
X165205122Y-109458746D01*
X165202964Y-109468537D01*
X165200519Y-109477929D01*
X165197787Y-109486920D01*
X165194766Y-109495512D01*
X165191458Y-109503705D01*
X165187863Y-109511498D01*
X165183979Y-109518891D01*
X165179808Y-109525884D01*
X165175350Y-109532478D01*
X165170603Y-109538673D01*
X165165569Y-109544467D01*
X165160248Y-109549862D01*
X165154638Y-109554858D01*
X165148741Y-109559453D01*
X165142557Y-109563649D01*
X165136085Y-109567446D01*
X165129325Y-109570843D01*
X165122277Y-109573840D01*
X165114942Y-109576438D01*
X165107319Y-109578636D01*
X165099409Y-109580434D01*
X165091210Y-109581833D01*
X165082725Y-109582832D01*
X165073951Y-109583431D01*
X165064890Y-109583631D01*
X164918478Y-109583631D01*
X164917014Y-109574173D01*
X164915649Y-109564444D01*
X164914384Y-109554446D01*
X164913219Y-109544177D01*
X164912153Y-109533639D01*
X164911186Y-109522831D01*
X164910320Y-109511753D01*
X164909552Y-109500404D01*
X164908884Y-109488786D01*
X164908316Y-109476898D01*
X164907847Y-109464740D01*
X164907478Y-109452311D01*
X164907208Y-109439613D01*
X164907038Y-109426645D01*
X164907183Y-109416242D01*
X164907618Y-109405694D01*
X164908343Y-109395003D01*
X164909358Y-109384168D01*
X164910663Y-109373188D01*
X164912258Y-109362065D01*
X164914143Y-109350798D01*
X164915803Y-109340779D01*
X164917714Y-109330568D01*
X164919875Y-109320164D01*
X164922286Y-109309567D01*
X164924947Y-109298777D01*
X164927859Y-109287794D01*
X164931021Y-109276618D01*
X164934433Y-109265249D01*
X164937797Y-109255254D01*
X164941619Y-109245650D01*
X164945899Y-109236439D01*
X164950635Y-109227619D01*
X164955829Y-109219192D01*
X164961480Y-109211157D01*
X164967589Y-109203513D01*
X164974155Y-109196261D01*
X164981178Y-109189402D01*
X164989529Y-109182374D01*
X164998265Y-109176283D01*
X165007388Y-109171129D01*
X165016896Y-109166912D01*
X165026789Y-109163633D01*
X165037069Y-109161290D01*
X165047734Y-109159884D01*
X165058785Y-109159416D01*
X165058713Y-109159416D01*
X165060507Y-108995375D01*
X165049439Y-108995571D01*
X165038576Y-108996159D01*
X165027919Y-108997139D01*
X165017466Y-108998511D01*
X165007219Y-109000275D01*
X164997176Y-109002431D01*
X164987339Y-109004978D01*
X164977707Y-109007918D01*
X164968280Y-109011250D01*
X164959058Y-109014974D01*
X164950042Y-109019090D01*
X164941230Y-109023597D01*
X164932624Y-109028497D01*
X164924222Y-109033789D01*
X164916026Y-109039472D01*
X164908035Y-109045548D01*
X164900249Y-109052016D01*
X164892668Y-109058875D01*
X164885293Y-109066127D01*
X164878122Y-109073770D01*
X164871157Y-109081806D01*
X164864396Y-109090233D01*
X164857841Y-109099053D01*
X164851491Y-109108264D01*
X164846519Y-109115885D01*
X164841715Y-109123696D01*
X164837080Y-109131697D01*
X164832613Y-109139889D01*
X164828315Y-109148270D01*
X164824185Y-109156841D01*
X164820224Y-109165603D01*
X164816432Y-109174555D01*
X164812808Y-109183697D01*
X164809352Y-109193029D01*
X164806066Y-109202551D01*
X164802947Y-109212263D01*
X164799998Y-109222165D01*
X164797217Y-109232258D01*
X164794604Y-109242540D01*
X164792160Y-109253013D01*
X164789884Y-109263675D01*
X164787777Y-109274528D01*
X164785839Y-109285571D01*
X164784069Y-109296804D01*
X164782468Y-109308227D01*
X164781035Y-109319840D01*
X164779771Y-109331644D01*
X164778676Y-109343637D01*
X164777749Y-109355821D01*
X164776990Y-109368195D01*
X164776400Y-109380758D01*
X164775979Y-109393512D01*
X164775726Y-109406456D01*
X164775642Y-109419590D01*
X164775689Y-109430856D01*
X164775830Y-109442074D01*
X164776065Y-109453245D01*
X164776395Y-109464370D01*
X164776819Y-109475447D01*
X164777337Y-109486477D01*
X164777949Y-109497460D01*
X164778656Y-109508396D01*
X164779456Y-109519285D01*
X164780351Y-109530127D01*
X164781340Y-109540922D01*
X164782423Y-109551670D01*
X164783601Y-109562371D01*
X164784872Y-109573025D01*
X164786238Y-109583632D01*
X164773076Y-109582829D01*
X164760360Y-109581667D01*
X164748089Y-109580144D01*
X164736264Y-109578261D01*
X164724884Y-109576018D01*
X164713950Y-109573415D01*
X164703461Y-109570451D01*
X164693418Y-109567128D01*
X164683820Y-109563445D01*
X164674668Y-109559401D01*
X164665961Y-109554998D01*
X164657700Y-109550234D01*
X164649884Y-109545110D01*
X164642514Y-109539626D01*
X164635589Y-109533782D01*
X164629110Y-109527578D01*
X164623076Y-109521014D01*
X164618015Y-109514870D01*
X164613227Y-109508320D01*
X164608713Y-109501364D01*
X164604472Y-109494003D01*
X164600505Y-109486237D01*
X164596812Y-109478065D01*
X164593392Y-109469487D01*
X164590246Y-109460504D01*
X164587373Y-109451116D01*
X164584774Y-109441321D01*
X164582449Y-109431122D01*
X164580397Y-109420516D01*
X164578618Y-109409505D01*
X164577114Y-109398089D01*
X164575883Y-109386267D01*
X164574925Y-109374040D01*
X164574241Y-109361406D01*
X164573831Y-109348368D01*
X164573694Y-109334924D01*
X164573779Y-109324695D01*
X164574034Y-109314411D01*
X164574459Y-109304069D01*
X164575054Y-109293671D01*
X164575819Y-109283216D01*
X164576755Y-109272704D01*
X164577860Y-109262136D01*
X164579135Y-109251511D01*
X164580580Y-109240829D01*
X164582196Y-109230091D01*
X164583981Y-109219296D01*
X164585937Y-109208444D01*
X164588062Y-109197535D01*
X164590358Y-109186570D01*
X164592823Y-109175548D01*
X164595459Y-109164470D01*
X164598264Y-109153335D01*
X164601240Y-109142143D01*
X164604386Y-109130894D01*
X164607701Y-109119589D01*
X164611187Y-109108227D01*
X164614843Y-109096809D01*
X164618669Y-109085333D01*
X164477555Y-109085333D01*
X164473752Y-109095591D01*
X164470105Y-109105902D01*
X164466612Y-109116266D01*
X164463275Y-109126685D01*
X164460094Y-109137156D01*
X164457067Y-109147682D01*
X164454196Y-109158261D01*
X164451479Y-109168894D01*
X164448919Y-109179580D01*
X164446513Y-109190320D01*
X164444262Y-109201114D01*
X164442167Y-109211961D01*
X164440227Y-109222862D01*
X164438442Y-109233816D01*
X164436812Y-109244824D01*
X164435338Y-109255886D01*
X164434018Y-109267001D01*
X164432854Y-109278170D01*
X164431845Y-109289393D01*
X164430992Y-109300669D01*
X164430293Y-109311999D01*
X164429750Y-109323382D01*
X164429362Y-109334819D01*
X164429129Y-109346310D01*
X164429052Y-109357854D01*
X164429160Y-109370283D01*
X164429487Y-109382521D01*
X164430031Y-109394570D01*
X164430792Y-109406428D01*
X164431771Y-109418096D01*
X164432968Y-109429574D01*
X164434382Y-109440862D01*
X164436013Y-109451960D01*
X164437862Y-109462867D01*
X164439929Y-109473585D01*
X164442213Y-109484112D01*
X164444715Y-109494450D01*
X164447435Y-109504597D01*
X164450371Y-109514554D01*
X164453526Y-109524321D01*
X164456898Y-109533898D01*
X164460488Y-109543285D01*
X164464295Y-109552482D01*
X164468319Y-109561488D01*
X164472562Y-109570305D01*
X164477021Y-109578931D01*
X164481699Y-109587367D01*
X164486593Y-109595614D01*
X164491706Y-109603670D01*
X164497036Y-109611536D01*
X164502583Y-109619212D01*
X164508348Y-109626697D01*
X164514331Y-109633993D01*
X164520531Y-109641098D01*
X164526949Y-109648014D01*
X164533742Y-109654948D01*
X164540738Y-109661638D01*
X164547937Y-109668086D01*
X164555340Y-109674290D01*
X164562946Y-109680251D01*
X164570756Y-109685968D01*
X164578769Y-109691442D01*
X164586986Y-109696673D01*
X164595406Y-109701660D01*
X164604030Y-109706405D01*
X164612856Y-109710906D01*
X164621887Y-109715163D01*
X164631121Y-109719178D01*
X164640558Y-109722949D01*
X164650199Y-109726477D01*
X164660043Y-109729761D01*
X164670090Y-109732802D01*
X164680341Y-109735600D01*
X164690795Y-109738155D01*
X164701453Y-109740466D01*
X164712315Y-109742534D01*
X164723379Y-109744359D01*
X164734647Y-109745940D01*
X164746119Y-109747278D01*
X164757794Y-109748373D01*
X164769672Y-109749225D01*
X164781754Y-109749833D01*
X164794039Y-109750198D01*
X164806528Y-109750320D01*
X165066696Y-109750320D01*
X165076398Y-109750148D01*
X165086099Y-109749634D01*
X165095801Y-109748776D01*
X165105502Y-109747576D01*
X165115203Y-109746032D01*
X165124905Y-109744146D01*
X165133311Y-109742292D01*
X165142401Y-109739754D01*
X165152174Y-109736532D01*
X165162631Y-109732626D01*
X165173772Y-109728037D01*
X165185597Y-109722763D01*
X165198105Y-109716806D01*
X165207960Y-109711906D01*
X165217532Y-109706614D01*
X165226821Y-109700931D01*
X165235827Y-109694855D01*
X165244549Y-109688387D01*
X165252987Y-109681528D01*
X165261143Y-109674276D01*
X165269015Y-109666633D01*
X165276603Y-109658597D01*
X165282127Y-109652166D01*
X165287529Y-109645221D01*
X165292808Y-109637761D01*
X165297965Y-109629787D01*
X165302999Y-109621298D01*
X165307911Y-109612295D01*
X165312701Y-109602778D01*
X165317368Y-109592745D01*
X165321912Y-109582199D01*
X165326335Y-109571138D01*
X165330634Y-109559562D01*
X165334812Y-109547472D01*
X165337695Y-109538122D01*
X165340391Y-109528593D01*
X165342902Y-109518885D01*
X165345227Y-109508997D01*
X165347366Y-109498931D01*
X165349319Y-109488685D01*
X165351086Y-109478260D01*
X165352666Y-109467656D01*
X165354061Y-109456873D01*
X165355270Y-109445911D01*
X165356293Y-109434769D01*
X165357130Y-109423449D01*
X165357781Y-109411949D01*
X165358246Y-109400270D01*
X165358525Y-109388412D01*
X165358618Y-109376375D01*
X165358521Y-109364014D01*
X165358232Y-109351846D01*
X165357750Y-109339871D01*
X165357075Y-109328089D01*
X165356207Y-109316499D01*
X165355147Y-109305103D01*
X165353893Y-109293899D01*
X165352447Y-109282889D01*
X165350807Y-109272071D01*
X165348975Y-109261447D01*
X165346950Y-109251015D01*
X165344733Y-109240776D01*
X165342322Y-109230730D01*
X165339718Y-109220877D01*
X165336922Y-109211217D01*
X165333933Y-109201750D01*
X165329613Y-109189513D01*
X165325183Y-109177791D01*
X165320644Y-109166583D01*
X165315994Y-109155889D01*
X165311234Y-109145710D01*
X165306364Y-109136045D01*
X165301384Y-109126895D01*
X165296294Y-109118259D01*
X165291094Y-109110138D01*
X165285784Y-109102531D01*
X165280363Y-109095439D01*
X165274833Y-109088861D01*
X165268007Y-109081426D01*
X165260934Y-109074291D01*
X165253614Y-109067456D01*
X165246047Y-109060921D01*
X165238233Y-109054686D01*
X165230172Y-109048750D01*
X165221863Y-109043115D01*
X165213308Y-109037779D01*
X165204505Y-109032743D01*
X165195456Y-109028007D01*
X165184240Y-109022757D01*
X165173521Y-109018030D01*
X165163297Y-109013827D01*
X165153570Y-109010148D01*
X165144338Y-109006992D01*
X165135602Y-109004360D01*
X165127362Y-109002251D01*
X165119619Y-109000667D01*
X165109645Y-108999050D01*
X165099721Y-108997727D01*
X165089846Y-108996698D01*
X165080021Y-108995963D01*
X165070245Y-108995521D01*
X165060519Y-108995374D01*
X165060507Y-108995375D01*
X165060507Y-108995375D01*
G37*
G36*
X165238661Y-110046653D02*
X165231720Y-110040493D01*
X165224607Y-110034511D01*
X165217321Y-110028709D01*
X165209862Y-110023084D01*
X165202231Y-110017639D01*
X165194426Y-110012371D01*
X165186449Y-110007283D01*
X165178299Y-110002373D01*
X165169977Y-109997641D01*
X165161481Y-109993088D01*
X165152813Y-109988714D01*
X165143972Y-109984518D01*
X165134958Y-109980500D01*
X165125771Y-109976662D01*
X165116412Y-109973001D01*
X165106880Y-109969520D01*
X165097175Y-109966217D01*
X165087297Y-109963092D01*
X165077246Y-109960146D01*
X165067023Y-109957378D01*
X165056627Y-109954789D01*
X165046058Y-109952379D01*
X165035316Y-109950147D01*
X165024401Y-109948094D01*
X165013314Y-109946219D01*
X165002054Y-109944523D01*
X164990621Y-109943005D01*
X164979015Y-109941666D01*
X164967237Y-109940506D01*
X164955286Y-109939524D01*
X164943162Y-109938720D01*
X164930865Y-109938095D01*
X164918395Y-109937649D01*
X164905753Y-109937381D01*
X164892938Y-109937292D01*
X164880123Y-109937381D01*
X164867483Y-109937649D01*
X164855017Y-109938095D01*
X164842725Y-109938720D01*
X164830608Y-109939524D01*
X164818665Y-109940506D01*
X164806896Y-109941666D01*
X164795301Y-109943005D01*
X164783880Y-109944523D01*
X164772634Y-109946219D01*
X164761562Y-109948094D01*
X164750664Y-109950147D01*
X164739941Y-109952379D01*
X164729391Y-109954789D01*
X164719016Y-109957378D01*
X164708815Y-109960146D01*
X164698789Y-109963092D01*
X164688936Y-109966217D01*
X164679258Y-109969520D01*
X164669754Y-109973001D01*
X164660425Y-109976662D01*
X164651269Y-109980500D01*
X164642288Y-109984518D01*
X164633481Y-109988714D01*
X164624849Y-109993088D01*
X164616390Y-109997641D01*
X164608106Y-110002373D01*
X164599996Y-110007283D01*
X164592061Y-110012371D01*
X164584299Y-110017639D01*
X164576712Y-110023084D01*
X164569299Y-110028709D01*
X164562060Y-110034511D01*
X164554996Y-110040493D01*
X164548106Y-110046653D01*
X164540999Y-110053369D01*
X164534111Y-110060262D01*
X164527441Y-110067331D01*
X164520991Y-110074577D01*
X164514759Y-110081999D01*
X164508745Y-110089598D01*
X164502950Y-110097374D01*
X164497374Y-110105326D01*
X164492017Y-110113455D01*
X164486878Y-110121760D01*
X164481958Y-110130242D01*
X164477256Y-110138900D01*
X164472774Y-110147735D01*
X164468510Y-110156746D01*
X164464464Y-110165934D01*
X164460638Y-110175298D01*
X164457029Y-110184839D01*
X164453640Y-110194557D01*
X164450469Y-110204451D01*
X164447517Y-110214522D01*
X164444784Y-110224769D01*
X164442269Y-110235193D01*
X164439973Y-110245793D01*
X164437896Y-110256570D01*
X164436037Y-110267524D01*
X164434397Y-110278654D01*
X164432976Y-110289960D01*
X164431773Y-110301443D01*
X164430789Y-110313103D01*
X164430024Y-110324939D01*
X164429477Y-110336952D01*
X164429149Y-110349141D01*
X164429040Y-110361507D01*
X164429120Y-110372498D01*
X164429361Y-110383458D01*
X164429764Y-110394387D01*
X164430327Y-110405285D01*
X164431051Y-110416152D01*
X164431935Y-110426988D01*
X164432981Y-110437793D01*
X164434188Y-110448567D01*
X164435555Y-110459310D01*
X164437083Y-110470021D01*
X164438772Y-110480702D01*
X164440623Y-110491352D01*
X164442633Y-110501970D01*
X164444805Y-110512558D01*
X164447138Y-110523115D01*
X164449632Y-110533640D01*
X164452286Y-110544134D01*
X164455101Y-110554598D01*
X164458077Y-110565030D01*
X164461214Y-110575431D01*
X164464512Y-110585802D01*
X164467971Y-110596141D01*
X164471591Y-110606449D01*
X164475371Y-110616726D01*
X164479313Y-110626972D01*
X164636298Y-110626972D01*
X164631476Y-110616752D01*
X164626860Y-110606522D01*
X164622449Y-110596283D01*
X164618243Y-110586035D01*
X164614242Y-110575778D01*
X164610447Y-110565512D01*
X164606856Y-110555236D01*
X164603471Y-110544951D01*
X164600291Y-110534658D01*
X164597316Y-110524354D01*
X164594546Y-110514042D01*
X164591982Y-110503721D01*
X164589623Y-110493390D01*
X164587468Y-110483050D01*
X164585519Y-110472701D01*
X164583775Y-110462343D01*
X164582237Y-110451975D01*
X164580903Y-110441599D01*
X164579775Y-110431213D01*
X164578851Y-110420818D01*
X164578133Y-110410414D01*
X164577620Y-110400000D01*
X164577313Y-110389578D01*
X164577210Y-110379146D01*
X164577210Y-110375618D01*
X164577371Y-110363317D01*
X164577854Y-110351285D01*
X164578658Y-110339522D01*
X164579785Y-110328028D01*
X164581233Y-110316803D01*
X164583004Y-110305847D01*
X164585096Y-110295160D01*
X164587510Y-110284742D01*
X164590246Y-110274593D01*
X164593303Y-110264713D01*
X164596683Y-110255102D01*
X164600385Y-110245760D01*
X164604408Y-110236687D01*
X164608753Y-110227883D01*
X164613420Y-110219348D01*
X164618409Y-110211082D01*
X164623720Y-110203085D01*
X164629353Y-110195357D01*
X164635307Y-110187898D01*
X164641584Y-110180708D01*
X164646653Y-110175385D01*
X164652090Y-110170271D01*
X164657895Y-110165365D01*
X164664067Y-110160669D01*
X164670608Y-110156181D01*
X164677516Y-110151901D01*
X164684793Y-110147831D01*
X164692437Y-110143969D01*
X164700449Y-110140316D01*
X164708829Y-110136872D01*
X164717576Y-110133636D01*
X164726692Y-110130609D01*
X164736176Y-110127791D01*
X164746027Y-110125182D01*
X164756246Y-110122782D01*
X164766833Y-110120590D01*
X164777788Y-110118607D01*
X164789111Y-110116832D01*
X164800802Y-110115267D01*
X164812861Y-110113910D01*
X164825287Y-110112762D01*
X164838082Y-110111822D01*
X164851244Y-110111092D01*
X164864774Y-110110570D01*
X164878672Y-110110257D01*
X164892938Y-110110152D01*
X164906078Y-110110243D01*
X164918920Y-110110513D01*
X164931464Y-110110964D01*
X164943710Y-110111595D01*
X164955658Y-110112406D01*
X164967308Y-110113398D01*
X164978660Y-110114570D01*
X164989714Y-110115922D01*
X165000470Y-110117455D01*
X165010928Y-110119168D01*
X165021088Y-110121061D01*
X165030950Y-110123135D01*
X165040515Y-110125389D01*
X165049781Y-110127823D01*
X165058749Y-110130437D01*
X165070338Y-110134446D01*
X165081374Y-110138776D01*
X165091855Y-110143426D01*
X165101783Y-110148397D01*
X165111157Y-110153688D01*
X165119977Y-110159301D01*
X165128242Y-110165234D01*
X165135954Y-110171488D01*
X165143113Y-110178062D01*
X165149717Y-110184957D01*
X165155767Y-110192173D01*
X165162560Y-110201385D01*
X165168830Y-110210596D01*
X165174577Y-110219808D01*
X165179802Y-110229019D01*
X165184505Y-110238230D01*
X165188686Y-110247442D01*
X165192344Y-110256653D01*
X165195480Y-110265865D01*
X165198093Y-110275076D01*
X165200106Y-110283702D01*
X165201908Y-110292644D01*
X165203497Y-110301905D01*
X165204875Y-110311483D01*
X165206040Y-110321378D01*
X165206994Y-110331591D01*
X165207736Y-110342121D01*
X165208266Y-110352969D01*
X165208583Y-110364135D01*
X165208689Y-110375618D01*
X165208590Y-110386408D01*
X165208291Y-110397170D01*
X165207794Y-110407905D01*
X165207097Y-110418613D01*
X165206201Y-110429292D01*
X165205106Y-110439945D01*
X165203812Y-110450569D01*
X165202319Y-110461166D01*
X165200627Y-110471736D01*
X165198736Y-110482278D01*
X165196646Y-110492792D01*
X165194357Y-110503279D01*
X165191869Y-110513739D01*
X165189181Y-110524170D01*
X165186295Y-110534574D01*
X165183210Y-110544951D01*
X165179925Y-110555300D01*
X165176442Y-110565622D01*
X165172759Y-110575916D01*
X165168877Y-110586182D01*
X165164796Y-110596421D01*
X165160517Y-110606632D01*
X165156038Y-110616816D01*
X165151360Y-110626972D01*
X165308345Y-110626972D01*
X165312286Y-110616726D01*
X165316067Y-110606449D01*
X165319686Y-110596141D01*
X165323145Y-110585801D01*
X165326443Y-110575431D01*
X165329580Y-110565030D01*
X165332556Y-110554597D01*
X165335372Y-110544134D01*
X165338026Y-110533640D01*
X165340520Y-110523114D01*
X165342852Y-110512558D01*
X165345024Y-110501970D01*
X165347035Y-110491351D01*
X165348885Y-110480702D01*
X165350574Y-110470021D01*
X165352102Y-110459309D01*
X165353470Y-110448567D01*
X165354676Y-110437793D01*
X165355722Y-110426988D01*
X165356607Y-110416152D01*
X165357331Y-110405285D01*
X165357894Y-110394387D01*
X165358296Y-110383458D01*
X165358537Y-110372498D01*
X165358618Y-110361507D01*
X165358508Y-110349141D01*
X165358177Y-110336951D01*
X165357627Y-110324939D01*
X165356856Y-110313103D01*
X165355864Y-110301443D01*
X165354653Y-110289960D01*
X165353221Y-110278653D01*
X165351569Y-110267523D01*
X165349696Y-110256570D01*
X165347604Y-110245793D01*
X165345291Y-110235193D01*
X165342757Y-110224769D01*
X165340004Y-110214522D01*
X165337030Y-110204451D01*
X165333836Y-110194557D01*
X165330421Y-110184839D01*
X165326787Y-110175298D01*
X165322932Y-110165934D01*
X165318856Y-110156746D01*
X165314561Y-110147734D01*
X165310045Y-110138899D01*
X165305309Y-110130241D01*
X165300352Y-110121759D01*
X165295176Y-110113454D01*
X165289779Y-110105326D01*
X165284162Y-110097374D01*
X165278324Y-110089598D01*
X165272266Y-110081999D01*
X165265988Y-110074577D01*
X165259490Y-110067331D01*
X165252771Y-110060261D01*
X165245832Y-110053369D01*
X165238673Y-110046652D01*
X165238661Y-110046653D01*
X165238661Y-110046653D01*
G37*
G36*
X165344493Y-110823646D02*
X164100078Y-110823646D01*
X164100078Y-110988570D01*
X164820629Y-110988570D01*
X164443152Y-111378389D01*
X164443152Y-111602403D01*
X164818858Y-111210820D01*
X165344493Y-111654438D01*
X165344493Y-111434833D01*
X164925570Y-111100577D01*
X165034052Y-110988570D01*
X165344493Y-110988570D01*
X165344493Y-110823646D01*
X165344493Y-110823646D01*
G37*
G36*
X159116309Y-123130592D02*
X159116309Y-121617505D01*
X158759436Y-121433111D01*
X158770603Y-121439473D01*
X158781094Y-121446274D01*
X158790908Y-121453514D01*
X158800045Y-121461193D01*
X158808506Y-121469311D01*
X158816289Y-121477867D01*
X158823396Y-121486862D01*
X158829826Y-121496296D01*
X158835579Y-121506169D01*
X158840655Y-121516481D01*
X158845055Y-121527231D01*
X158848777Y-121538420D01*
X158851823Y-121550048D01*
X158854192Y-121562115D01*
X158855884Y-121574621D01*
X158856899Y-121587565D01*
X158857238Y-121600948D01*
X158857238Y-122328554D01*
X158857238Y-122328536D01*
X158840986Y-122334639D01*
X158824692Y-122340394D01*
X158808355Y-122345800D01*
X158791976Y-122350857D01*
X158775555Y-122355565D01*
X158759091Y-122359925D01*
X158742584Y-122363936D01*
X158726035Y-122367598D01*
X158709443Y-122370911D01*
X158692809Y-122373876D01*
X158676132Y-122376492D01*
X158659412Y-122378759D01*
X158642651Y-122380677D01*
X158625846Y-122382246D01*
X158608999Y-122383467D01*
X158592110Y-122384339D01*
X158575178Y-122384862D01*
X158558203Y-122385037D01*
X158539234Y-122384832D01*
X158520911Y-122384219D01*
X158503235Y-122383197D01*
X158486205Y-122381766D01*
X158469822Y-122379926D01*
X158454085Y-122377678D01*
X158438994Y-122375021D01*
X158424551Y-122371954D01*
X158410753Y-122368479D01*
X158395293Y-122363867D01*
X158379920Y-122358309D01*
X158364632Y-122351805D01*
X158349430Y-122344354D01*
X158334315Y-122335958D01*
X158319286Y-122326615D01*
X158304343Y-122316327D01*
X158289486Y-122305092D01*
X158278951Y-122296138D01*
X158268895Y-122286319D01*
X158259317Y-122275635D01*
X158250217Y-122264085D01*
X158241596Y-122251671D01*
X158233453Y-122238391D01*
X158225789Y-122224246D01*
X158218602Y-122209236D01*
X158211894Y-122193360D01*
X158205665Y-122176620D01*
X158199913Y-122159014D01*
X158195828Y-122145368D01*
X158192025Y-122131256D01*
X158188503Y-122116679D01*
X158185263Y-122101636D01*
X158182305Y-122086128D01*
X158179629Y-122070154D01*
X158177234Y-122053715D01*
X158175121Y-122036811D01*
X158173290Y-122019441D01*
X158171740Y-122001605D01*
X158170472Y-121983304D01*
X158169486Y-121964538D01*
X158168782Y-121945307D01*
X158168359Y-121925609D01*
X158168218Y-121905447D01*
X158168342Y-121885171D01*
X158168714Y-121865337D01*
X158169333Y-121845943D01*
X158170199Y-121826991D01*
X158171314Y-121808481D01*
X158172676Y-121790411D01*
X158174285Y-121772783D01*
X158176142Y-121755596D01*
X158178247Y-121738851D01*
X158180599Y-121722546D01*
X158183199Y-121706683D01*
X158186047Y-121691261D01*
X158189142Y-121676281D01*
X158192485Y-121661742D01*
X158196075Y-121647644D01*
X158199913Y-121633987D01*
X158205653Y-121614680D01*
X158211849Y-121596353D01*
X158218500Y-121579007D01*
X158225606Y-121562640D01*
X158233168Y-121547253D01*
X158241186Y-121532846D01*
X158249659Y-121519419D01*
X158258588Y-121506972D01*
X158267972Y-121495504D01*
X158277812Y-121485017D01*
X158288108Y-121475510D01*
X158302556Y-121463601D01*
X158316960Y-121452684D01*
X158331322Y-121442757D01*
X158345641Y-121433821D01*
X158359916Y-121425875D01*
X158374149Y-121418920D01*
X158388339Y-121412956D01*
X158402485Y-121407983D01*
X158416868Y-121403794D01*
X158431768Y-121400163D01*
X158447185Y-121397091D01*
X158463119Y-121394578D01*
X158479569Y-121392623D01*
X158496536Y-121391226D01*
X158514020Y-121390388D01*
X158532021Y-121390109D01*
X158552664Y-121390329D01*
X158572630Y-121390987D01*
X158591920Y-121392084D01*
X158610533Y-121393619D01*
X158628469Y-121395594D01*
X158645728Y-121398007D01*
X158662310Y-121400859D01*
X158678216Y-121404150D01*
X158693445Y-121407880D01*
X158707996Y-121412049D01*
X158721871Y-121416656D01*
X158735070Y-121421702D01*
X158747591Y-121427187D01*
X158759436Y-121433111D01*
X159116309Y-121617505D01*
X159116079Y-121602385D01*
X159115390Y-121587341D01*
X159114242Y-121572373D01*
X159112634Y-121557482D01*
X159110567Y-121542666D01*
X159108040Y-121527928D01*
X159105172Y-121514457D01*
X159101291Y-121500029D01*
X159096398Y-121484646D01*
X159090492Y-121468307D01*
X159083573Y-121451012D01*
X159075643Y-121432760D01*
X159066699Y-121413552D01*
X159058754Y-121398445D01*
X159050231Y-121383747D01*
X159041129Y-121369457D01*
X159031449Y-121355575D01*
X159021190Y-121342101D01*
X159010353Y-121329036D01*
X158998937Y-121316379D01*
X158986943Y-121304131D01*
X158974371Y-121292291D01*
X158964323Y-121283666D01*
X158953471Y-121275253D01*
X158941815Y-121267050D01*
X158929355Y-121259058D01*
X158916091Y-121251277D01*
X158902024Y-121243706D01*
X158887152Y-121236347D01*
X158871477Y-121229199D01*
X158854998Y-121222261D01*
X158837715Y-121215534D01*
X158819629Y-121209018D01*
X158800738Y-121202714D01*
X158786123Y-121198041D01*
X158771218Y-121193669D01*
X158756022Y-121189599D01*
X158740535Y-121185831D01*
X158724757Y-121182364D01*
X158708689Y-121179198D01*
X158692331Y-121176334D01*
X158675681Y-121173772D01*
X158658741Y-121171511D01*
X158641510Y-121169551D01*
X158623988Y-121167893D01*
X158606176Y-121166536D01*
X158588073Y-121165481D01*
X158569680Y-121164727D01*
X158550995Y-121164275D01*
X158532021Y-121164124D01*
X158514616Y-121164294D01*
X158497314Y-121164803D01*
X158480114Y-121165650D01*
X158463017Y-121166837D01*
X158446021Y-121168364D01*
X158429127Y-121170229D01*
X158412335Y-121172433D01*
X158395646Y-121174977D01*
X158379058Y-121177859D01*
X158365175Y-121180642D01*
X158351088Y-121183996D01*
X158336795Y-121187920D01*
X158322297Y-121192416D01*
X158307594Y-121197483D01*
X158292686Y-121203120D01*
X158277573Y-121209329D01*
X158262255Y-121216108D01*
X158246732Y-121223459D01*
X158231005Y-121231380D01*
X158215072Y-121239873D01*
X158200315Y-121248114D01*
X158185903Y-121256757D01*
X158171836Y-121265801D01*
X158158113Y-121275247D01*
X158144734Y-121285094D01*
X158131700Y-121295344D01*
X158119011Y-121305994D01*
X158106666Y-121317047D01*
X158094666Y-121328501D01*
X158083010Y-121340357D01*
X158071698Y-121352614D01*
X158060731Y-121365274D01*
X158052194Y-121375846D01*
X158043852Y-121386981D01*
X158035706Y-121398680D01*
X158027757Y-121410943D01*
X158020003Y-121423769D01*
X158012445Y-121437158D01*
X158005083Y-121451111D01*
X157997917Y-121465627D01*
X157990948Y-121480707D01*
X157984174Y-121496350D01*
X157977596Y-121512557D01*
X157971214Y-121529327D01*
X157965028Y-121546660D01*
X157959038Y-121564557D01*
X157953245Y-121583017D01*
X157948725Y-121597789D01*
X157944450Y-121612806D01*
X157940418Y-121628066D01*
X157936632Y-121643571D01*
X157933089Y-121659321D01*
X157929791Y-121675314D01*
X157926737Y-121691552D01*
X157923928Y-121708035D01*
X157921363Y-121724761D01*
X157919042Y-121741732D01*
X157916965Y-121758947D01*
X157915133Y-121776407D01*
X157913545Y-121794111D01*
X157912201Y-121812059D01*
X157911102Y-121830252D01*
X157910247Y-121848689D01*
X157909636Y-121867370D01*
X157909269Y-121886296D01*
X157909147Y-121905466D01*
X157909279Y-121925277D01*
X157909672Y-121944814D01*
X157910328Y-121964075D01*
X157911247Y-121983062D01*
X157912428Y-122001773D01*
X157913872Y-122020210D01*
X157915578Y-122038371D01*
X157917547Y-122056258D01*
X157919778Y-122073869D01*
X157922271Y-122091206D01*
X157925028Y-122108267D01*
X157928046Y-122125054D01*
X157931327Y-122141565D01*
X157934871Y-122157802D01*
X157938677Y-122173763D01*
X157942745Y-122189449D01*
X157947076Y-122204861D01*
X157951670Y-122219997D01*
X157956526Y-122234859D01*
X157961644Y-122249445D01*
X157967025Y-122263756D01*
X157974260Y-122281892D01*
X157981839Y-122299435D01*
X157989763Y-122316386D01*
X157998031Y-122332745D01*
X158006643Y-122348513D01*
X158015601Y-122363688D01*
X158024902Y-122378271D01*
X158034549Y-122392261D01*
X158044540Y-122405660D01*
X158054875Y-122418467D01*
X158065555Y-122430682D01*
X158076579Y-122442304D01*
X158087948Y-122453335D01*
X158099661Y-122463773D01*
X158111719Y-122473619D01*
X158124121Y-122482874D01*
X158138513Y-122492905D01*
X158152948Y-122502529D01*
X158167424Y-122511745D01*
X158181943Y-122520554D01*
X158196503Y-122528955D01*
X158211106Y-122536948D01*
X158225752Y-122544534D01*
X158240439Y-122551713D01*
X158255168Y-122558483D01*
X158269940Y-122564847D01*
X158284754Y-122570802D01*
X158299610Y-122576350D01*
X158314508Y-122581491D01*
X158329449Y-122586223D01*
X158344326Y-122590399D01*
X158359428Y-122594265D01*
X158374755Y-122597822D01*
X158390308Y-122601069D01*
X158406085Y-122604008D01*
X158422087Y-122606637D01*
X158438314Y-122608956D01*
X158454766Y-122610967D01*
X158471443Y-122612668D01*
X158488345Y-122614060D01*
X158505472Y-122615142D01*
X158522824Y-122615915D01*
X158540401Y-122616379D01*
X158558203Y-122616534D01*
X158575467Y-122616406D01*
X158592654Y-122616024D01*
X158609765Y-122615386D01*
X158626799Y-122614493D01*
X158643756Y-122613344D01*
X158660637Y-122611941D01*
X158677442Y-122610283D01*
X158694170Y-122608369D01*
X158710821Y-122606200D01*
X158727396Y-122603776D01*
X158743894Y-122601097D01*
X158760316Y-122598162D01*
X158776661Y-122594973D01*
X158792929Y-122591528D01*
X158809121Y-122587828D01*
X158825236Y-122583873D01*
X158841275Y-122579663D01*
X158857238Y-122575198D01*
X158857238Y-123130555D01*
X159116309Y-123130555D01*
X159116309Y-123130592D01*
X159116309Y-123130592D01*
G37*
G36*
X157557747Y-122256908D02*
X157326237Y-121631277D01*
X157329908Y-121644245D01*
X157333343Y-121657654D01*
X157336540Y-121671505D01*
X157339501Y-121685797D01*
X157342224Y-121700530D01*
X157344711Y-121715705D01*
X157346961Y-121731321D01*
X157348975Y-121747379D01*
X157350751Y-121763878D01*
X157352291Y-121780818D01*
X157353593Y-121798200D01*
X157354659Y-121816024D01*
X157355488Y-121834288D01*
X157356080Y-121852994D01*
X157356435Y-121872142D01*
X157356554Y-121891731D01*
X157356435Y-121911325D01*
X157356080Y-121930489D01*
X157355488Y-121949222D01*
X157354659Y-121967524D01*
X157353593Y-121985396D01*
X157352291Y-122002836D01*
X157350751Y-122019847D01*
X157348975Y-122036426D01*
X157346961Y-122052575D01*
X157344711Y-122068293D01*
X157342224Y-122083581D01*
X157339501Y-122098437D01*
X157336540Y-122112864D01*
X157333343Y-122126859D01*
X157329908Y-122140424D01*
X157326237Y-122153558D01*
X157320224Y-122171666D01*
X157313709Y-122188909D01*
X157306694Y-122205287D01*
X157299177Y-122220799D01*
X157291160Y-122235445D01*
X157282641Y-122249226D01*
X157273621Y-122262142D01*
X157264100Y-122274192D01*
X157254078Y-122285376D01*
X157243555Y-122295695D01*
X157232530Y-122305149D01*
X157218733Y-122315762D01*
X157204902Y-122325559D01*
X157191036Y-122334540D01*
X157177137Y-122342704D01*
X157163203Y-122350052D01*
X157149236Y-122356584D01*
X157135234Y-122362300D01*
X157121198Y-122367200D01*
X157107129Y-122371283D01*
X157092719Y-122374758D01*
X157077663Y-122377824D01*
X157061960Y-122380481D01*
X157045611Y-122382730D01*
X157028615Y-122384569D01*
X157010972Y-122386000D01*
X156992684Y-122387022D01*
X156973748Y-122387636D01*
X156954167Y-122387840D01*
X156934296Y-122387636D01*
X156915105Y-122387022D01*
X156896595Y-122386000D01*
X156878766Y-122384569D01*
X156861617Y-122382730D01*
X156845149Y-122380481D01*
X156829361Y-122377824D01*
X156814253Y-122374758D01*
X156799826Y-122371283D01*
X156785757Y-122367196D01*
X156771721Y-122362294D01*
X156757720Y-122356576D01*
X156743752Y-122350043D01*
X156729819Y-122342695D01*
X156715919Y-122334531D01*
X156702054Y-122325552D01*
X156688222Y-122315758D01*
X156674425Y-122305149D01*
X156663412Y-122295695D01*
X156652923Y-122285376D01*
X156642958Y-122274192D01*
X156633517Y-122262142D01*
X156624599Y-122249226D01*
X156616206Y-122235445D01*
X156608336Y-122220799D01*
X156600990Y-122205287D01*
X156594168Y-122188909D01*
X156587870Y-122171666D01*
X156582096Y-122153558D01*
X156578258Y-122140424D01*
X156574668Y-122126859D01*
X156571325Y-122112864D01*
X156568230Y-122098437D01*
X156565382Y-122083581D01*
X156562782Y-122068293D01*
X156560430Y-122052575D01*
X156558325Y-122036426D01*
X156556468Y-122019847D01*
X156554859Y-122002836D01*
X156553497Y-121985396D01*
X156552382Y-121967524D01*
X156551516Y-121949222D01*
X156550897Y-121930489D01*
X156550525Y-121911325D01*
X156550402Y-121891731D01*
X156550525Y-121872142D01*
X156550897Y-121852994D01*
X156551516Y-121834288D01*
X156552382Y-121816024D01*
X156553497Y-121798200D01*
X156554859Y-121780818D01*
X156556468Y-121763878D01*
X156558325Y-121747379D01*
X156560430Y-121731321D01*
X156562782Y-121715705D01*
X156565382Y-121700530D01*
X156568230Y-121685797D01*
X156571325Y-121671505D01*
X156574668Y-121657654D01*
X156578258Y-121644245D01*
X156582096Y-121631277D01*
X156587870Y-121612931D01*
X156594168Y-121595472D01*
X156600990Y-121578902D01*
X156608336Y-121563219D01*
X156616206Y-121548425D01*
X156624599Y-121534520D01*
X156633517Y-121521502D01*
X156642958Y-121509372D01*
X156652923Y-121498131D01*
X156663412Y-121487778D01*
X156674425Y-121478313D01*
X156688222Y-121467700D01*
X156702054Y-121457903D01*
X156715919Y-121448922D01*
X156729819Y-121440758D01*
X156743752Y-121433409D01*
X156757720Y-121426877D01*
X156771721Y-121421162D01*
X156785757Y-121416262D01*
X156799826Y-121412179D01*
X156814253Y-121408704D01*
X156829361Y-121405638D01*
X156845149Y-121402981D01*
X156861617Y-121400732D01*
X156878766Y-121398892D01*
X156896595Y-121397462D01*
X156915105Y-121396439D01*
X156934296Y-121395826D01*
X156954167Y-121395622D01*
X156973748Y-121395826D01*
X156992684Y-121396439D01*
X157010972Y-121397462D01*
X157028615Y-121398892D01*
X157045611Y-121400732D01*
X157061960Y-121402981D01*
X157077663Y-121405638D01*
X157092719Y-121408704D01*
X157107129Y-121412179D01*
X157121198Y-121416266D01*
X157135234Y-121421168D01*
X157149236Y-121426886D01*
X157163203Y-121433419D01*
X157177137Y-121440767D01*
X157191036Y-121448931D01*
X157204902Y-121457909D01*
X157218733Y-121467704D01*
X157232530Y-121478313D01*
X157243555Y-121487778D01*
X157254078Y-121498131D01*
X157264100Y-121509372D01*
X157273621Y-121521502D01*
X157282641Y-121534520D01*
X157291160Y-121548425D01*
X157299177Y-121563219D01*
X157306694Y-121578902D01*
X157313709Y-121595472D01*
X157320224Y-121612931D01*
X157326237Y-121631277D01*
X157557747Y-122256908D01*
X157563012Y-122243119D01*
X157568031Y-122229063D01*
X157572806Y-122214740D01*
X157577336Y-122200148D01*
X157581621Y-122185289D01*
X157585661Y-122170163D01*
X157589457Y-122154768D01*
X157593007Y-122139106D01*
X157596313Y-122123177D01*
X157599373Y-122106979D01*
X157602189Y-122090514D01*
X157604760Y-122073781D01*
X157607086Y-122056781D01*
X157609168Y-122039513D01*
X157611004Y-122021977D01*
X157612596Y-122004173D01*
X157613942Y-121986102D01*
X157615044Y-121967763D01*
X157615901Y-121949157D01*
X157616513Y-121930282D01*
X157616881Y-121911141D01*
X157617003Y-121891731D01*
X157616881Y-121872324D01*
X157616513Y-121853191D01*
X157615901Y-121834331D01*
X157615044Y-121815744D01*
X157613942Y-121797431D01*
X157612596Y-121779391D01*
X157611004Y-121761624D01*
X157609168Y-121744131D01*
X157607086Y-121726911D01*
X157604760Y-121709964D01*
X157602189Y-121693291D01*
X157599373Y-121676891D01*
X157596313Y-121660765D01*
X157593007Y-121644912D01*
X157589457Y-121629332D01*
X157585661Y-121614025D01*
X157581621Y-121598992D01*
X157577336Y-121584233D01*
X157572806Y-121569746D01*
X157568031Y-121555533D01*
X157563012Y-121541594D01*
X157557747Y-121527928D01*
X157550628Y-121510519D01*
X157543214Y-121493635D01*
X157535503Y-121477276D01*
X157527497Y-121461441D01*
X157519196Y-121446130D01*
X157510599Y-121431343D01*
X157501706Y-121417081D01*
X157492517Y-121403343D01*
X157483033Y-121390130D01*
X157473253Y-121377440D01*
X157463178Y-121365276D01*
X157452807Y-121353635D01*
X157442140Y-121342519D01*
X157431178Y-121331927D01*
X157419920Y-121321860D01*
X157408366Y-121312316D01*
X157396517Y-121303298D01*
X157381928Y-121292892D01*
X157367297Y-121282937D01*
X157352624Y-121273432D01*
X157337908Y-121264376D01*
X157323150Y-121255771D01*
X157308351Y-121247616D01*
X157293509Y-121239910D01*
X157278624Y-121232655D01*
X157263698Y-121225850D01*
X157248729Y-121219495D01*
X157233719Y-121213590D01*
X157218666Y-121208135D01*
X157203570Y-121203129D01*
X157188433Y-121198574D01*
X157172979Y-121194210D01*
X157157329Y-121190168D01*
X157141481Y-121186450D01*
X157125437Y-121183056D01*
X157109196Y-121179984D01*
X157092758Y-121177236D01*
X157076123Y-121174811D01*
X157059291Y-121172710D01*
X157042263Y-121170932D01*
X157025037Y-121169477D01*
X157007615Y-121168345D01*
X156989996Y-121167537D01*
X156972180Y-121167052D01*
X156954167Y-121166890D01*
X156935971Y-121167052D01*
X156918000Y-121167537D01*
X156900254Y-121168345D01*
X156882734Y-121169477D01*
X156865438Y-121170932D01*
X156848367Y-121172710D01*
X156831521Y-121174811D01*
X156814900Y-121177236D01*
X156798505Y-121179984D01*
X156782334Y-121183056D01*
X156766388Y-121186450D01*
X156750667Y-121190168D01*
X156735171Y-121194210D01*
X156719900Y-121198574D01*
X156704573Y-121203129D01*
X156689302Y-121208135D01*
X156674087Y-121213590D01*
X156658929Y-121219495D01*
X156643827Y-121225850D01*
X156628781Y-121232655D01*
X156613791Y-121239910D01*
X156598858Y-121247616D01*
X156583981Y-121255771D01*
X156569160Y-121264376D01*
X156554395Y-121273432D01*
X156539687Y-121282937D01*
X156525034Y-121292892D01*
X156510438Y-121303298D01*
X156498589Y-121312316D01*
X156487036Y-121321860D01*
X156475778Y-121331927D01*
X156464815Y-121342519D01*
X156454149Y-121353635D01*
X156443778Y-121365276D01*
X156433702Y-121377440D01*
X156423922Y-121390130D01*
X156414438Y-121403343D01*
X156405250Y-121417081D01*
X156396357Y-121431343D01*
X156387760Y-121446130D01*
X156379458Y-121461441D01*
X156371452Y-121477276D01*
X156363742Y-121493635D01*
X156356327Y-121510519D01*
X156349208Y-121527928D01*
X156343943Y-121541594D01*
X156338924Y-121555533D01*
X156334149Y-121569746D01*
X156329619Y-121584233D01*
X156325334Y-121598992D01*
X156321294Y-121614025D01*
X156317499Y-121629332D01*
X156313948Y-121644912D01*
X156310643Y-121660765D01*
X156307582Y-121676891D01*
X156304766Y-121693291D01*
X156302195Y-121709964D01*
X156299869Y-121726911D01*
X156297788Y-121744131D01*
X156295951Y-121761624D01*
X156294360Y-121779391D01*
X156293013Y-121797431D01*
X156291911Y-121815744D01*
X156291054Y-121834331D01*
X156290442Y-121853191D01*
X156290075Y-121872324D01*
X156289952Y-121891731D01*
X156290075Y-121911141D01*
X156290442Y-121930282D01*
X156291054Y-121949157D01*
X156291911Y-121967763D01*
X156293013Y-121986102D01*
X156294360Y-122004173D01*
X156295951Y-122021977D01*
X156297788Y-122039513D01*
X156299869Y-122056781D01*
X156302195Y-122073781D01*
X156304766Y-122090514D01*
X156307582Y-122106979D01*
X156310643Y-122123177D01*
X156313948Y-122139106D01*
X156317499Y-122154768D01*
X156321294Y-122170163D01*
X156325334Y-122185289D01*
X156329619Y-122200148D01*
X156334149Y-122214740D01*
X156338924Y-122229063D01*
X156343943Y-122243119D01*
X156349208Y-122256908D01*
X156356327Y-122274159D01*
X156363742Y-122290895D01*
X156371452Y-122307117D01*
X156379458Y-122322823D01*
X156387760Y-122338015D01*
X156396357Y-122352691D01*
X156405250Y-122366853D01*
X156414438Y-122380499D01*
X156423922Y-122393631D01*
X156433702Y-122406248D01*
X156443778Y-122418349D01*
X156454149Y-122429936D01*
X156464815Y-122441008D01*
X156475778Y-122451565D01*
X156487036Y-122461607D01*
X156498589Y-122471133D01*
X156510438Y-122480145D01*
X156525034Y-122490558D01*
X156539687Y-122500535D01*
X156554395Y-122510075D01*
X156569160Y-122519180D01*
X156583981Y-122527850D01*
X156598858Y-122536083D01*
X156613791Y-122543881D01*
X156628781Y-122551242D01*
X156643827Y-122558168D01*
X156658929Y-122564658D01*
X156674087Y-122570713D01*
X156689302Y-122576331D01*
X156704573Y-122581514D01*
X156719900Y-122586261D01*
X156735171Y-122590436D01*
X156750667Y-122594303D01*
X156766388Y-122597859D01*
X156782334Y-122601107D01*
X156798505Y-122604045D01*
X156814900Y-122606674D01*
X156831521Y-122608994D01*
X156848367Y-122611004D01*
X156865438Y-122612705D01*
X156882734Y-122614097D01*
X156900254Y-122615180D01*
X156918000Y-122615953D01*
X156935971Y-122616417D01*
X156954167Y-122616572D01*
X156972180Y-122616417D01*
X156989996Y-122615953D01*
X157007615Y-122615180D01*
X157025037Y-122614097D01*
X157042263Y-122612705D01*
X157059291Y-122611004D01*
X157076123Y-122608994D01*
X157092758Y-122606674D01*
X157109196Y-122604045D01*
X157125437Y-122601107D01*
X157141481Y-122597859D01*
X157157329Y-122594303D01*
X157172979Y-122590436D01*
X157188433Y-122586261D01*
X157203570Y-122581514D01*
X157218666Y-122576331D01*
X157233719Y-122570713D01*
X157248729Y-122564658D01*
X157263698Y-122558168D01*
X157278624Y-122551242D01*
X157293509Y-122543881D01*
X157308351Y-122536083D01*
X157323150Y-122527850D01*
X157337908Y-122519180D01*
X157352624Y-122510075D01*
X157367297Y-122500535D01*
X157381928Y-122490558D01*
X157396517Y-122480145D01*
X157408366Y-122471133D01*
X157419920Y-122461607D01*
X157431178Y-122451565D01*
X157442140Y-122441008D01*
X157452807Y-122429936D01*
X157463178Y-122418349D01*
X157473253Y-122406248D01*
X157483033Y-122393631D01*
X157492517Y-122380499D01*
X157501706Y-122366853D01*
X157510599Y-122352691D01*
X157519196Y-122338015D01*
X157527497Y-122322823D01*
X157535503Y-122307117D01*
X157543214Y-122290895D01*
X157550628Y-122274159D01*
X157557747Y-122256908D01*
X157557747Y-122256908D01*
G37*
G36*
X155915126Y-122594521D02*
X155915126Y-120650122D01*
X155656055Y-120650122D01*
X155656055Y-122594521D01*
X155915126Y-122594521D01*
X155915126Y-122594521D01*
G37*
G36*
X155347374Y-121186175D02*
X155070388Y-121186175D01*
X154691428Y-122241743D01*
X154319358Y-121186175D01*
X154042372Y-121186175D01*
X154621148Y-122744738D01*
X154628556Y-122764260D01*
X154636127Y-122783300D01*
X154643860Y-122801858D01*
X154651755Y-122819934D01*
X154659813Y-122837527D01*
X154668032Y-122854639D01*
X154676415Y-122871269D01*
X154684959Y-122887417D01*
X154693666Y-122903082D01*
X154702535Y-122918266D01*
X154711567Y-122932968D01*
X154720760Y-122947187D01*
X154730116Y-122960925D01*
X154739635Y-122974181D01*
X154749315Y-122986954D01*
X154759158Y-122999246D01*
X154769164Y-123011055D01*
X154779331Y-123022383D01*
X154789661Y-123033228D01*
X154800154Y-123043592D01*
X154810808Y-123053473D01*
X154821625Y-123062873D01*
X154832604Y-123071790D01*
X154843746Y-123080225D01*
X154855050Y-123088179D01*
X154866516Y-123095650D01*
X154878144Y-123102639D01*
X154889935Y-123109147D01*
X154901888Y-123115172D01*
X154914004Y-123120715D01*
X154926281Y-123125776D01*
X154938721Y-123130356D01*
X154951324Y-123134453D01*
X154964089Y-123138068D01*
X154977016Y-123141201D01*
X154990105Y-123143852D01*
X155003356Y-123146021D01*
X155016770Y-123147708D01*
X155030347Y-123148913D01*
X155044085Y-123149637D01*
X155057986Y-123149878D01*
X155059360Y-123149878D01*
X155075044Y-123149724D01*
X155090863Y-123149265D01*
X155106816Y-123148499D01*
X155122902Y-123147427D01*
X155139123Y-123146049D01*
X155155478Y-123144365D01*
X155171966Y-123142374D01*
X155188589Y-123140077D01*
X155205346Y-123137474D01*
X155222236Y-123134564D01*
X155239261Y-123131349D01*
X155256419Y-123127827D01*
X155256419Y-122896310D01*
X155239704Y-122900514D01*
X155223181Y-122904304D01*
X155206851Y-122907682D01*
X155190714Y-122910646D01*
X155174770Y-122913197D01*
X155159019Y-122915334D01*
X155143461Y-122917059D01*
X155128096Y-122918370D01*
X155112924Y-122919268D01*
X155097945Y-122919754D01*
X155086352Y-122919392D01*
X155074910Y-122918308D01*
X155063618Y-122916501D01*
X155052476Y-122913972D01*
X155041483Y-122910719D01*
X155030641Y-122906744D01*
X155019949Y-122902046D01*
X155009407Y-122896626D01*
X154999015Y-122890483D01*
X154988773Y-122883617D01*
X154978682Y-122876028D01*
X154968740Y-122867716D01*
X154958948Y-122858682D01*
X154949306Y-122848925D01*
X154939815Y-122838445D01*
X154930473Y-122827243D01*
X154921282Y-122815318D01*
X154912240Y-122802670D01*
X154903349Y-122789299D01*
X154894608Y-122775206D01*
X154886016Y-122760389D01*
X154877575Y-122744851D01*
X154869284Y-122728589D01*
X154861143Y-122711604D01*
X154853152Y-122693897D01*
X154845311Y-122675468D01*
X154837620Y-122656315D01*
X154830079Y-122636440D01*
X154822688Y-122615841D01*
X154815447Y-122594521D01*
X155347370Y-121186175D01*
X155347374Y-121186175D01*
X155347374Y-121186175D01*
G37*
G36*
X153854959Y-121584429D02*
X153854649Y-121567058D01*
X153853718Y-121549949D01*
X153852168Y-121533102D01*
X153849998Y-121516518D01*
X153847207Y-121500195D01*
X153843797Y-121484134D01*
X153839766Y-121468334D01*
X153835115Y-121452797D01*
X153829844Y-121437522D01*
X153823953Y-121422508D01*
X153817442Y-121407757D01*
X153810310Y-121393267D01*
X153802559Y-121379039D01*
X153794187Y-121365073D01*
X153785195Y-121351369D01*
X153775584Y-121337927D01*
X153765352Y-121324747D01*
X153754500Y-121311829D01*
X153743028Y-121299173D01*
X153730935Y-121286778D01*
X153720694Y-121277162D01*
X153710033Y-121267939D01*
X153698954Y-121259107D01*
X153687455Y-121250669D01*
X153675538Y-121242623D01*
X153663202Y-121234969D01*
X153650447Y-121227708D01*
X153637273Y-121220839D01*
X153623680Y-121214363D01*
X153609668Y-121208280D01*
X153595237Y-121202589D01*
X153580387Y-121197290D01*
X153565119Y-121192384D01*
X153549431Y-121187870D01*
X153533325Y-121183749D01*
X153516799Y-121180020D01*
X153499855Y-121176684D01*
X153482492Y-121173740D01*
X153464709Y-121171189D01*
X153446508Y-121169031D01*
X153427888Y-121167264D01*
X153408849Y-121165891D01*
X153389391Y-121164909D01*
X153369514Y-121164321D01*
X153349219Y-121164124D01*
X153332573Y-121164299D01*
X153315948Y-121164822D01*
X153299344Y-121165695D01*
X153282760Y-121166917D01*
X153266198Y-121168488D01*
X153249656Y-121170407D01*
X153233135Y-121172676D01*
X153216635Y-121175294D01*
X153200156Y-121178261D01*
X153183698Y-121181577D01*
X153167260Y-121185242D01*
X153150844Y-121189256D01*
X153134448Y-121193619D01*
X153118073Y-121198331D01*
X153101719Y-121203393D01*
X153085386Y-121208803D01*
X153069073Y-121214562D01*
X153052782Y-121220671D01*
X153036511Y-121227128D01*
X153020261Y-121233935D01*
X153004032Y-121241090D01*
X152987824Y-121248595D01*
X152971636Y-121256449D01*
X152971636Y-121479686D01*
X152989045Y-121471873D01*
X153006359Y-121464440D01*
X153023580Y-121457389D01*
X153040707Y-121450718D01*
X153057740Y-121444429D01*
X153074680Y-121438521D01*
X153091526Y-121432994D01*
X153108278Y-121427849D01*
X153124936Y-121423084D01*
X153141501Y-121418701D01*
X153157971Y-121414699D01*
X153174348Y-121411078D01*
X153190632Y-121407838D01*
X153206821Y-121404979D01*
X153222917Y-121402502D01*
X153238919Y-121400405D01*
X153254828Y-121398690D01*
X153270642Y-121397356D01*
X153286363Y-121396403D01*
X153301990Y-121395831D01*
X153317524Y-121395641D01*
X153337862Y-121395888D01*
X153357432Y-121396631D01*
X153376235Y-121397869D01*
X153394271Y-121399602D01*
X153411539Y-121401831D01*
X153428039Y-121404555D01*
X153443772Y-121407774D01*
X153458738Y-121411488D01*
X153472936Y-121415697D01*
X153486367Y-121420402D01*
X153499030Y-121425602D01*
X153510926Y-121431297D01*
X153522054Y-121437487D01*
X153532415Y-121444173D01*
X153542008Y-121451353D01*
X153550834Y-121459029D01*
X153558892Y-121467201D01*
X153566183Y-121475867D01*
X153572707Y-121485029D01*
X153578463Y-121494686D01*
X153583451Y-121504838D01*
X153587672Y-121515485D01*
X153591126Y-121526628D01*
X153593812Y-121538265D01*
X153595731Y-121550398D01*
X153596882Y-121563027D01*
X153597266Y-121576150D01*
X153596347Y-121589082D01*
X153593591Y-121601537D01*
X153588997Y-121613516D01*
X153582566Y-121625018D01*
X153574298Y-121636044D01*
X153564193Y-121646593D01*
X153552250Y-121656665D01*
X153538469Y-121666260D01*
X153522851Y-121675379D01*
X153509071Y-121682327D01*
X153494790Y-121689138D01*
X153480007Y-121695812D01*
X153464723Y-121702350D01*
X153448939Y-121708750D01*
X153432653Y-121715014D01*
X153415866Y-121721140D01*
X153398578Y-121727130D01*
X153380788Y-121732983D01*
X153362498Y-121738700D01*
X153343707Y-121744279D01*
X153327594Y-121748813D01*
X153311482Y-121753509D01*
X153295369Y-121758369D01*
X153279257Y-121763392D01*
X153263144Y-121768579D01*
X153247032Y-121773928D01*
X153230919Y-121779441D01*
X153214807Y-121785117D01*
X153198695Y-121790956D01*
X153182582Y-121796958D01*
X153166470Y-121803124D01*
X153150357Y-121809453D01*
X153134245Y-121815945D01*
X153119248Y-121822145D01*
X153104575Y-121828936D01*
X153090225Y-121836318D01*
X153076198Y-121844290D01*
X153062495Y-121852853D01*
X153049116Y-121862006D01*
X153036060Y-121871750D01*
X153023327Y-121882084D01*
X153010917Y-121893009D01*
X152998831Y-121904524D01*
X152987069Y-121916630D01*
X152975630Y-121929327D01*
X152964514Y-121942614D01*
X152953722Y-121956491D01*
X152944544Y-121969078D01*
X152935958Y-121982031D01*
X152927964Y-121995349D01*
X152920563Y-122009033D01*
X152913753Y-122023083D01*
X152907536Y-122037499D01*
X152901911Y-122052281D01*
X152896878Y-122067428D01*
X152892437Y-122082942D01*
X152888588Y-122098821D01*
X152885331Y-122115066D01*
X152882667Y-122131677D01*
X152880594Y-122148654D01*
X152879114Y-122165997D01*
X152878226Y-122183706D01*
X152877930Y-122201780D01*
X152878250Y-122218613D01*
X152879211Y-122235212D01*
X152880813Y-122251577D01*
X152883056Y-122267707D01*
X152885939Y-122283603D01*
X152889464Y-122299265D01*
X152893629Y-122314693D01*
X152898435Y-122329887D01*
X152903882Y-122344846D01*
X152909969Y-122359571D01*
X152916697Y-122374061D01*
X152924066Y-122388318D01*
X152932076Y-122402340D01*
X152940727Y-122416128D01*
X152950018Y-122429682D01*
X152959950Y-122443001D01*
X152970523Y-122456086D01*
X152981737Y-122468937D01*
X152993592Y-122481554D01*
X153006087Y-122493937D01*
X153016153Y-122503189D01*
X153026635Y-122512078D01*
X153037533Y-122520604D01*
X153048847Y-122528768D01*
X153060577Y-122536569D01*
X153072722Y-122544007D01*
X153085284Y-122551082D01*
X153098261Y-122557794D01*
X153111654Y-122564143D01*
X153125463Y-122570130D01*
X153139688Y-122575754D01*
X153154328Y-122581015D01*
X153169385Y-122585913D01*
X153184857Y-122590448D01*
X153200745Y-122594621D01*
X153217049Y-122598430D01*
X153233769Y-122601877D01*
X153250905Y-122604961D01*
X153268457Y-122607682D01*
X153286424Y-122610041D01*
X153304808Y-122612036D01*
X153323607Y-122613669D01*
X153342822Y-122614939D01*
X153362453Y-122615846D01*
X153382499Y-122616390D01*
X153402962Y-122616572D01*
X153420969Y-122616415D01*
X153438831Y-122615945D01*
X153456547Y-122615163D01*
X153474117Y-122614067D01*
X153491542Y-122612658D01*
X153508822Y-122610936D01*
X153525956Y-122608901D01*
X153542944Y-122606553D01*
X153559787Y-122603892D01*
X153576485Y-122600918D01*
X153593037Y-122597630D01*
X153609443Y-122594030D01*
X153625704Y-122590116D01*
X153641819Y-122585890D01*
X153657789Y-122581350D01*
X153673613Y-122576498D01*
X153689292Y-122571332D01*
X153704825Y-122565853D01*
X153720213Y-122560061D01*
X153735455Y-122553956D01*
X153750552Y-122547538D01*
X153765503Y-122540807D01*
X153780309Y-122533762D01*
X153794969Y-122526405D01*
X153809483Y-122518735D01*
X153809483Y-122284471D01*
X153794170Y-122292904D01*
X153778774Y-122300979D01*
X153763298Y-122308694D01*
X153747740Y-122316050D01*
X153732100Y-122323048D01*
X153716380Y-122329687D01*
X153700578Y-122335967D01*
X153684694Y-122341888D01*
X153668730Y-122347450D01*
X153652684Y-122352653D01*
X153636556Y-122357498D01*
X153620348Y-122361984D01*
X153604058Y-122366110D01*
X153587686Y-122369878D01*
X153571234Y-122373288D01*
X153554700Y-122376338D01*
X153538084Y-122379029D01*
X153521387Y-122381362D01*
X153504609Y-122383335D01*
X153487750Y-122384950D01*
X153470809Y-122386206D01*
X153453787Y-122387103D01*
X153436683Y-122387642D01*
X153419499Y-122387821D01*
X153413986Y-122387821D01*
X153393593Y-122387536D01*
X153373966Y-122386680D01*
X153355105Y-122385253D01*
X153337012Y-122383256D01*
X153319684Y-122380688D01*
X153303123Y-122377549D01*
X153287329Y-122373839D01*
X153272301Y-122369559D01*
X153258039Y-122364709D01*
X153244544Y-122359287D01*
X153231816Y-122353295D01*
X153219854Y-122346732D01*
X153208658Y-122339599D01*
X153195043Y-122329414D01*
X153182861Y-122318706D01*
X153172113Y-122307475D01*
X153162797Y-122295720D01*
X153154915Y-122283441D01*
X153148466Y-122270639D01*
X153143449Y-122257314D01*
X153139867Y-122243466D01*
X153137717Y-122229093D01*
X153137000Y-122214198D01*
X153137615Y-122198696D01*
X153139460Y-122183763D01*
X153142535Y-122169400D01*
X153146840Y-122155606D01*
X153152375Y-122142383D01*
X153159140Y-122129729D01*
X153167135Y-122117645D01*
X153176360Y-122106131D01*
X153186815Y-122095186D01*
X153198499Y-122084811D01*
X153211414Y-122075006D01*
X153223817Y-122066222D01*
X153236678Y-122057783D01*
X153249999Y-122049688D01*
X153263780Y-122041938D01*
X153278020Y-122034532D01*
X153292719Y-122027470D01*
X153307877Y-122020753D01*
X153323495Y-122014380D01*
X153339572Y-122008352D01*
X153356108Y-122002668D01*
X153373104Y-121997329D01*
X153390559Y-121992334D01*
X153406884Y-121987635D01*
X153423208Y-121982872D01*
X153439533Y-121978043D01*
X153455857Y-121973149D01*
X153472182Y-121968191D01*
X153488506Y-121963167D01*
X153504830Y-121958078D01*
X153521155Y-121952925D01*
X153537479Y-121947706D01*
X153553804Y-121942422D01*
X153570128Y-121937073D01*
X153586453Y-121931660D01*
X153602777Y-121926181D01*
X153618710Y-121920178D01*
X153634285Y-121913621D01*
X153649500Y-121906510D01*
X153664357Y-121898845D01*
X153678855Y-121890626D01*
X153692994Y-121881852D01*
X153706774Y-121872524D01*
X153720196Y-121862642D01*
X153733259Y-121852206D01*
X153745963Y-121841216D01*
X153758308Y-121829671D01*
X153770295Y-121817572D01*
X153781922Y-121804919D01*
X153791336Y-121793307D01*
X153800100Y-121781254D01*
X153808215Y-121768760D01*
X153815681Y-121755824D01*
X153822498Y-121742448D01*
X153828665Y-121728631D01*
X153834183Y-121714372D01*
X153839053Y-121699673D01*
X153843272Y-121684532D01*
X153846843Y-121668951D01*
X153849764Y-121652928D01*
X153852037Y-121636465D01*
X153853660Y-121619561D01*
X153854634Y-121602215D01*
X153854958Y-121584429D01*
X153854959Y-121584429D01*
X153854959Y-121584429D01*
G37*
G36*
X152676736Y-121403900D02*
X152676736Y-121186175D01*
X152431445Y-121186175D01*
X152431445Y-120765871D01*
X152173752Y-120765871D01*
X152173752Y-121186175D01*
X151798926Y-121186175D01*
X151798926Y-121403900D01*
X152173752Y-121403900D01*
X152173752Y-122222458D01*
X152173322Y-122237149D01*
X152172032Y-122251157D01*
X152169883Y-122264482D01*
X152166873Y-122277123D01*
X152163004Y-122289081D01*
X152158275Y-122300356D01*
X152152686Y-122310948D01*
X152146237Y-122320856D01*
X152138928Y-122330081D01*
X152130760Y-122338622D01*
X152121731Y-122346480D01*
X152111843Y-122353655D01*
X152101095Y-122360147D01*
X152089487Y-122365955D01*
X152077019Y-122371080D01*
X152063691Y-122375521D01*
X152049504Y-122379280D01*
X152034456Y-122382355D01*
X152018549Y-122384746D01*
X152001782Y-122386454D01*
X151984155Y-122387479D01*
X151965668Y-122387821D01*
X151962912Y-122387821D01*
X151943909Y-122387408D01*
X151925484Y-122386168D01*
X151907639Y-122384101D01*
X151890372Y-122381207D01*
X151873684Y-122377487D01*
X151857575Y-122372940D01*
X151842044Y-122367566D01*
X151827092Y-122361366D01*
X151812720Y-122354339D01*
X151798925Y-122346485D01*
X151798925Y-122578001D01*
X151815002Y-122584162D01*
X151831080Y-122589787D01*
X151847157Y-122594876D01*
X151863234Y-122599429D01*
X151879311Y-122603447D01*
X151895388Y-122606929D01*
X151911465Y-122609875D01*
X151927542Y-122612286D01*
X151943619Y-122614161D01*
X151959696Y-122615500D01*
X151975774Y-122616304D01*
X151991851Y-122616572D01*
X151998741Y-122616572D01*
X152013449Y-122616318D01*
X152028439Y-122615558D01*
X152043710Y-122614291D01*
X152059262Y-122612517D01*
X152075095Y-122610236D01*
X152091210Y-122607448D01*
X152107606Y-122604154D01*
X152120757Y-122601106D01*
X152134486Y-122597480D01*
X152148794Y-122593277D01*
X152163680Y-122588496D01*
X152179145Y-122583138D01*
X152195188Y-122577203D01*
X152211809Y-122570690D01*
X152229009Y-122563599D01*
X152246788Y-122555931D01*
X152261092Y-122548732D01*
X152274941Y-122540668D01*
X152288334Y-122531737D01*
X152301271Y-122521942D01*
X152313753Y-122511280D01*
X152325780Y-122499754D01*
X152337351Y-122487362D01*
X152348466Y-122474104D01*
X152359126Y-122459981D01*
X152369331Y-122444992D01*
X152379079Y-122429138D01*
X152386293Y-122415928D01*
X152392972Y-122402281D01*
X152399117Y-122388198D01*
X152404728Y-122373680D01*
X152409804Y-122358726D01*
X152414346Y-122343336D01*
X152418353Y-122327510D01*
X152421827Y-122311249D01*
X152424765Y-122294551D01*
X152427170Y-122277418D01*
X152429040Y-122259849D01*
X152430376Y-122241844D01*
X152431177Y-122223404D01*
X152431445Y-122204527D01*
X152431445Y-121403882D01*
X152676735Y-121403882D01*
X152676736Y-121403900D01*
X152676736Y-121403900D01*
G37*
G36*
X151538476Y-122150792D02*
X151282162Y-122147989D01*
X151281851Y-122162300D01*
X151280917Y-122176172D01*
X151279361Y-122189603D01*
X151277182Y-122202593D01*
X151274380Y-122215144D01*
X151270956Y-122227253D01*
X151266909Y-122238923D01*
X151262240Y-122250152D01*
X151256948Y-122260941D01*
X151251033Y-122271289D01*
X151244496Y-122281198D01*
X151237336Y-122290665D01*
X151229554Y-122299693D01*
X151221149Y-122308280D01*
X151212122Y-122316426D01*
X151202472Y-122324133D01*
X151192199Y-122331399D01*
X151181304Y-122338224D01*
X151169786Y-122344609D01*
X151157645Y-122350554D01*
X151144882Y-122356059D01*
X151131497Y-122361123D01*
X151117489Y-122365747D01*
X151102858Y-122369930D01*
X151087605Y-122373673D01*
X151071729Y-122376976D01*
X151055230Y-122379838D01*
X151038109Y-122382260D01*
X151020365Y-122384242D01*
X151001999Y-122385783D01*
X150983010Y-122386884D01*
X150963399Y-122387544D01*
X150943165Y-122387765D01*
X150939031Y-122387765D01*
X150919362Y-122387540D01*
X150900317Y-122386866D01*
X150881897Y-122385742D01*
X150864101Y-122384169D01*
X150846929Y-122382146D01*
X150830382Y-122379674D01*
X150814459Y-122376753D01*
X150799161Y-122373382D01*
X150784487Y-122369561D01*
X150770437Y-122365292D01*
X150757012Y-122360572D01*
X150744211Y-122355403D01*
X150732035Y-122349785D01*
X150720483Y-122343717D01*
X150709556Y-122337200D01*
X150699253Y-122330234D01*
X150689574Y-122322818D01*
X150680520Y-122314952D01*
X150672090Y-122306637D01*
X150664285Y-122297872D01*
X150657104Y-122288659D01*
X150650548Y-122278995D01*
X150644616Y-122268882D01*
X150639308Y-122258320D01*
X150634625Y-122247308D01*
X150630566Y-122235847D01*
X150627132Y-122223936D01*
X150624322Y-122211576D01*
X150622137Y-122198766D01*
X150620575Y-122185507D01*
X150619639Y-122171799D01*
X150619327Y-122157641D01*
X150619327Y-121928871D01*
X150634105Y-121926584D01*
X150649306Y-121924452D01*
X150664928Y-121922475D01*
X150680973Y-121920654D01*
X150697439Y-121918989D01*
X150714327Y-121917479D01*
X150731637Y-121916124D01*
X150749368Y-121914925D01*
X150767522Y-121913882D01*
X150786097Y-121912994D01*
X150805094Y-121912261D01*
X150824514Y-121911685D01*
X150844354Y-121911263D01*
X150864617Y-121910997D01*
X150880872Y-121911224D01*
X150897353Y-121911903D01*
X150914058Y-121913036D01*
X150930988Y-121914622D01*
X150948143Y-121916661D01*
X150965523Y-121919153D01*
X150983129Y-121922098D01*
X150998782Y-121924692D01*
X151014737Y-121927678D01*
X151030994Y-121931054D01*
X151047552Y-121934822D01*
X151064411Y-121938980D01*
X151081572Y-121943529D01*
X151099034Y-121948470D01*
X151116798Y-121953801D01*
X151132416Y-121959058D01*
X151147421Y-121965030D01*
X151161814Y-121971717D01*
X151175595Y-121979118D01*
X151188762Y-121987233D01*
X151201318Y-121996063D01*
X151213261Y-122005608D01*
X151224591Y-122015867D01*
X151235310Y-122026840D01*
X151246291Y-122039888D01*
X151255808Y-122053539D01*
X151263861Y-122067793D01*
X151270450Y-122082650D01*
X151275574Y-122098109D01*
X151279235Y-122114170D01*
X151281431Y-122130835D01*
X151282163Y-122148102D01*
X151282162Y-122147989D01*
X151538476Y-122150792D01*
X151538170Y-122133498D01*
X151537251Y-122116525D01*
X151535720Y-122099873D01*
X151533577Y-122083541D01*
X151530821Y-122067529D01*
X151527452Y-122051838D01*
X151523471Y-122036467D01*
X151518878Y-122021417D01*
X151513672Y-122006688D01*
X151507853Y-121992279D01*
X151501422Y-121978190D01*
X151494379Y-121964422D01*
X151486723Y-121950974D01*
X151478455Y-121937847D01*
X151469575Y-121925041D01*
X151460081Y-121912555D01*
X151449976Y-121900389D01*
X151439258Y-121888544D01*
X151427927Y-121877020D01*
X151415984Y-121865816D01*
X151403429Y-121854932D01*
X151390261Y-121844369D01*
X151376480Y-121834127D01*
X151362088Y-121824205D01*
X151350180Y-121816435D01*
X151337975Y-121808929D01*
X151325473Y-121801687D01*
X151312674Y-121794708D01*
X151299578Y-121787992D01*
X151286185Y-121781539D01*
X151272495Y-121775350D01*
X151258508Y-121769424D01*
X151244224Y-121763762D01*
X151229643Y-121758363D01*
X151214765Y-121753227D01*
X151199589Y-121748355D01*
X151184117Y-121743746D01*
X151168348Y-121739401D01*
X151152281Y-121735319D01*
X151135918Y-121731500D01*
X151119257Y-121727944D01*
X151102300Y-121724652D01*
X151085045Y-121721624D01*
X151067494Y-121718858D01*
X151049645Y-121716356D01*
X151031499Y-121714118D01*
X151013056Y-121712142D01*
X150994317Y-121710431D01*
X150975280Y-121708982D01*
X150955946Y-121707797D01*
X150936315Y-121706875D01*
X150916387Y-121706217D01*
X150896162Y-121705822D01*
X150875640Y-121705690D01*
X150858038Y-121705764D01*
X150840509Y-121705984D01*
X150823054Y-121706352D01*
X150805672Y-121706867D01*
X150788364Y-121707530D01*
X150771130Y-121708339D01*
X150753969Y-121709296D01*
X150736881Y-121710400D01*
X150719867Y-121711651D01*
X150702926Y-121713049D01*
X150686059Y-121714594D01*
X150669265Y-121716287D01*
X150652545Y-121718126D01*
X150635898Y-121720113D01*
X150619325Y-121722247D01*
X150620579Y-121701682D01*
X150622396Y-121681813D01*
X150624776Y-121662640D01*
X150627718Y-121644163D01*
X150631222Y-121626382D01*
X150635290Y-121609297D01*
X150639920Y-121592909D01*
X150645112Y-121577216D01*
X150650868Y-121562219D01*
X150657186Y-121547919D01*
X150664066Y-121534315D01*
X150671510Y-121521406D01*
X150679516Y-121509194D01*
X150688084Y-121497678D01*
X150697215Y-121486858D01*
X150706909Y-121476734D01*
X150717166Y-121467306D01*
X150726766Y-121459398D01*
X150737000Y-121451917D01*
X150747868Y-121444864D01*
X150759370Y-121438238D01*
X150771505Y-121432039D01*
X150784273Y-121426269D01*
X150797676Y-121420925D01*
X150811712Y-121416009D01*
X150826382Y-121411521D01*
X150841685Y-121407460D01*
X150857623Y-121403826D01*
X150874193Y-121400620D01*
X150891398Y-121397841D01*
X150909236Y-121395490D01*
X150927708Y-121393567D01*
X150946813Y-121392070D01*
X150966552Y-121391002D01*
X150986925Y-121390360D01*
X151007932Y-121390147D01*
X151023913Y-121390280D01*
X151039984Y-121390678D01*
X151056142Y-121391342D01*
X151072390Y-121392272D01*
X151088725Y-121393468D01*
X151105150Y-121394929D01*
X151121663Y-121396656D01*
X151138264Y-121398649D01*
X151154955Y-121400907D01*
X151171733Y-121403431D01*
X151188601Y-121406221D01*
X151205556Y-121409276D01*
X151222601Y-121412597D01*
X151239734Y-121416184D01*
X151256955Y-121420036D01*
X151274266Y-121424154D01*
X151291664Y-121428538D01*
X151309152Y-121433188D01*
X151326727Y-121438103D01*
X151344392Y-121443283D01*
X151362145Y-121448730D01*
X151379986Y-121454442D01*
X151397917Y-121460420D01*
X151397917Y-121239929D01*
X151381889Y-121233988D01*
X151365779Y-121228289D01*
X151349584Y-121222832D01*
X151333305Y-121217618D01*
X151316943Y-121212646D01*
X151300497Y-121207917D01*
X151283967Y-121203431D01*
X151267354Y-121199187D01*
X151250656Y-121195185D01*
X151233875Y-121191426D01*
X151217010Y-121187910D01*
X151200061Y-121184636D01*
X151183029Y-121181604D01*
X151165912Y-121178815D01*
X151148712Y-121176269D01*
X151131428Y-121173965D01*
X151114061Y-121171904D01*
X151096609Y-121170085D01*
X151079074Y-121168508D01*
X151061455Y-121167175D01*
X151043752Y-121166083D01*
X151025965Y-121165235D01*
X151008095Y-121164628D01*
X150990141Y-121164264D01*
X150972103Y-121164143D01*
X150952683Y-121164313D01*
X150933561Y-121164823D01*
X150914735Y-121165673D01*
X150896207Y-121166863D01*
X150877975Y-121168392D01*
X150860041Y-121170262D01*
X150842403Y-121172471D01*
X150825063Y-121175021D01*
X150808020Y-121177910D01*
X150791274Y-121181139D01*
X150774824Y-121184708D01*
X150758672Y-121188618D01*
X150742817Y-121192867D01*
X150727259Y-121197455D01*
X150711998Y-121202384D01*
X150697034Y-121207653D01*
X150682367Y-121213262D01*
X150667997Y-121219210D01*
X150653925Y-121225499D01*
X150640149Y-121232127D01*
X150626670Y-121239096D01*
X150613488Y-121246404D01*
X150600604Y-121254052D01*
X150588016Y-121262040D01*
X150575725Y-121270369D01*
X150563732Y-121279036D01*
X150552035Y-121288044D01*
X150540636Y-121297392D01*
X150529534Y-121307080D01*
X150518728Y-121317108D01*
X150507894Y-121327721D01*
X150497440Y-121338652D01*
X150487366Y-121349902D01*
X150477672Y-121361469D01*
X150468359Y-121373354D01*
X150459425Y-121385556D01*
X150450872Y-121398077D01*
X150442699Y-121410916D01*
X150434905Y-121424072D01*
X150427493Y-121437546D01*
X150420460Y-121451338D01*
X150413807Y-121465448D01*
X150407535Y-121479876D01*
X150401642Y-121494622D01*
X150396130Y-121509685D01*
X150390998Y-121525067D01*
X150386246Y-121540766D01*
X150381875Y-121556783D01*
X150377883Y-121573118D01*
X150374272Y-121589771D01*
X150371041Y-121606741D01*
X150368189Y-121624030D01*
X150365718Y-121641636D01*
X150363628Y-121659561D01*
X150361917Y-121677803D01*
X150360586Y-121696363D01*
X150359636Y-121715241D01*
X150359066Y-121734436D01*
X150358876Y-121753950D01*
X150358876Y-122160463D01*
X150359144Y-122175621D01*
X150359948Y-122190780D01*
X150361287Y-122205938D01*
X150363163Y-122221097D01*
X150365575Y-122236255D01*
X150368522Y-122251414D01*
X150371419Y-122264548D01*
X150375385Y-122278751D01*
X150380419Y-122294022D01*
X150386521Y-122310362D01*
X150393693Y-122327769D01*
X150401933Y-122346245D01*
X150411241Y-122365789D01*
X150418897Y-122381188D01*
X150427165Y-122396144D01*
X150436046Y-122410658D01*
X150445539Y-122424729D01*
X150455645Y-122438357D01*
X150466363Y-122451543D01*
X150477693Y-122464285D01*
X150489636Y-122476585D01*
X150502192Y-122488443D01*
X150512240Y-122497074D01*
X150523092Y-122505514D01*
X150534748Y-122513763D01*
X150547208Y-122521820D01*
X150560471Y-122529686D01*
X150574539Y-122537361D01*
X150589410Y-122544845D01*
X150605085Y-122552137D01*
X150621564Y-122559238D01*
X150638847Y-122566148D01*
X150656934Y-122572866D01*
X150675824Y-122579394D01*
X150690434Y-122583898D01*
X150705323Y-122588112D01*
X150720492Y-122592035D01*
X150735941Y-122595667D01*
X150751670Y-122599009D01*
X150767679Y-122602060D01*
X150783968Y-122604821D01*
X150800537Y-122607291D01*
X150817386Y-122609471D01*
X150834514Y-122611360D01*
X150851923Y-122612958D01*
X150869611Y-122614266D01*
X150887580Y-122615283D01*
X150905828Y-122616009D01*
X150924356Y-122616445D01*
X150943164Y-122616590D01*
X150962478Y-122616440D01*
X150981491Y-122615988D01*
X151000202Y-122615234D01*
X151018612Y-122614180D01*
X151036720Y-122612824D01*
X151054527Y-122611166D01*
X151072032Y-122609208D01*
X151089236Y-122606948D01*
X151106139Y-122604387D01*
X151122740Y-122601524D01*
X151139039Y-122598360D01*
X151155037Y-122594895D01*
X151170734Y-122591128D01*
X151186129Y-122587060D01*
X151201223Y-122582691D01*
X151216016Y-122578020D01*
X151235136Y-122571271D01*
X151253452Y-122564349D01*
X151270965Y-122557256D01*
X151287674Y-122549990D01*
X151303578Y-122542553D01*
X151318679Y-122534944D01*
X151332977Y-122527162D01*
X151346470Y-122519209D01*
X151359159Y-122511084D01*
X151371045Y-122502787D01*
X151382127Y-122494318D01*
X151392404Y-122485677D01*
X151404021Y-122475012D01*
X151415170Y-122463960D01*
X151425849Y-122452523D01*
X151436061Y-122440699D01*
X151445803Y-122428489D01*
X151455078Y-122415894D01*
X151463883Y-122402912D01*
X151472220Y-122389544D01*
X151480089Y-122375790D01*
X151487489Y-122361650D01*
X151495693Y-122344125D01*
X151503078Y-122327376D01*
X151509645Y-122311402D01*
X151515394Y-122296202D01*
X151520325Y-122281778D01*
X151524438Y-122268128D01*
X151527732Y-122255254D01*
X151530208Y-122243154D01*
X151532735Y-122227570D01*
X151534802Y-122212064D01*
X151536410Y-122196634D01*
X151537559Y-122181283D01*
X151538248Y-122166008D01*
X151538477Y-122150811D01*
X151538476Y-122150792D01*
X151538476Y-122150792D01*
G37*
G36*
X149895855Y-122429157D02*
X149905480Y-122418313D01*
X149914826Y-122407199D01*
X149923893Y-122395814D01*
X149932681Y-122384160D01*
X149941190Y-122372236D01*
X149949420Y-122360041D01*
X149957371Y-122347577D01*
X149965043Y-122334843D01*
X149972436Y-122321838D01*
X149979550Y-122308564D01*
X149986385Y-122295020D01*
X149992941Y-122281206D01*
X149999218Y-122267122D01*
X150005216Y-122252768D01*
X150010935Y-122238143D01*
X150016375Y-122223249D01*
X150021537Y-122208085D01*
X150026419Y-122192651D01*
X150031022Y-122176947D01*
X150035346Y-122160973D01*
X150039391Y-122144729D01*
X150043158Y-122128215D01*
X150046645Y-122111431D01*
X150049853Y-122094377D01*
X150052783Y-122077053D01*
X150055433Y-122059459D01*
X150057804Y-122041596D01*
X150059897Y-122023462D01*
X150061710Y-122005058D01*
X150063244Y-121986384D01*
X150064500Y-121967440D01*
X150065476Y-121948226D01*
X150066174Y-121928743D01*
X150066592Y-121908989D01*
X150066732Y-121888965D01*
X150066592Y-121868943D01*
X150066174Y-121849192D01*
X150065476Y-121829714D01*
X150064500Y-121810508D01*
X150063244Y-121791575D01*
X150061710Y-121772913D01*
X150059897Y-121754524D01*
X150057804Y-121736407D01*
X150055433Y-121718563D01*
X150052783Y-121700991D01*
X150049853Y-121683690D01*
X150046645Y-121666663D01*
X150043158Y-121649907D01*
X150039391Y-121633424D01*
X150035346Y-121617213D01*
X150031022Y-121601274D01*
X150026419Y-121585607D01*
X150021537Y-121570213D01*
X150016375Y-121555091D01*
X150010935Y-121540241D01*
X150005216Y-121525664D01*
X149999218Y-121511359D01*
X149992941Y-121497326D01*
X149986385Y-121483565D01*
X149979550Y-121470076D01*
X149972436Y-121456860D01*
X149965043Y-121443916D01*
X149957371Y-121431244D01*
X149949420Y-121418845D01*
X149941190Y-121406718D01*
X149932681Y-121394863D01*
X149923893Y-121383280D01*
X149914826Y-121371969D01*
X149905480Y-121360931D01*
X149895855Y-121350165D01*
X149885361Y-121339061D01*
X149874591Y-121328298D01*
X149863545Y-121317877D01*
X149852223Y-121307798D01*
X149840626Y-121298060D01*
X149828753Y-121288664D01*
X149816603Y-121279610D01*
X149804178Y-121270897D01*
X149791477Y-121262526D01*
X149778500Y-121254497D01*
X149765248Y-121246809D01*
X149751719Y-121239463D01*
X149737915Y-121232459D01*
X149723834Y-121225796D01*
X149709478Y-121219475D01*
X149694846Y-121213496D01*
X149679938Y-121207859D01*
X149664755Y-121202563D01*
X149649295Y-121197608D01*
X149633560Y-121192996D01*
X149617548Y-121188725D01*
X149601261Y-121184796D01*
X149584698Y-121181208D01*
X149567859Y-121177962D01*
X149550744Y-121175058D01*
X149533354Y-121172495D01*
X149515687Y-121170274D01*
X149497745Y-121168395D01*
X149479527Y-121166858D01*
X149461033Y-121165662D01*
X149442263Y-121164808D01*
X149423217Y-121164295D01*
X149403895Y-121164124D01*
X149386722Y-121164250D01*
X149369597Y-121164627D01*
X149352520Y-121165256D01*
X149335492Y-121166135D01*
X149318512Y-121167266D01*
X149301581Y-121168649D01*
X149284698Y-121170283D01*
X149267864Y-121172168D01*
X149251079Y-121174305D01*
X149234341Y-121176693D01*
X149217653Y-121179332D01*
X149201013Y-121182223D01*
X149184421Y-121185365D01*
X149167878Y-121188758D01*
X149151384Y-121192403D01*
X149134937Y-121196299D01*
X149118540Y-121200447D01*
X149102191Y-121204846D01*
X149085890Y-121209496D01*
X149069638Y-121214398D01*
X149053435Y-121219551D01*
X149037280Y-121224955D01*
X149021173Y-121230611D01*
X149005115Y-121236518D01*
X148989106Y-121242676D01*
X148989106Y-121487965D01*
X149005075Y-121480432D01*
X149021059Y-121473219D01*
X149037057Y-121466326D01*
X149053070Y-121459755D01*
X149069097Y-121453504D01*
X149085138Y-121447573D01*
X149101193Y-121441963D01*
X149117263Y-121436674D01*
X149133348Y-121431705D01*
X149149446Y-121427057D01*
X149165559Y-121422729D01*
X149181687Y-121418722D01*
X149197828Y-121415035D01*
X149213984Y-121411669D01*
X149230155Y-121408624D01*
X149246340Y-121405899D01*
X149262539Y-121403495D01*
X149278752Y-121401411D01*
X149294980Y-121399648D01*
X149311222Y-121398205D01*
X149327479Y-121397083D01*
X149343750Y-121396282D01*
X149360035Y-121395801D01*
X149376334Y-121395641D01*
X149381847Y-121395641D01*
X149401067Y-121395892D01*
X149419867Y-121396647D01*
X149438247Y-121397904D01*
X149456206Y-121399664D01*
X149473745Y-121401927D01*
X149490864Y-121404693D01*
X149507562Y-121407962D01*
X149523840Y-121411734D01*
X149539698Y-121416009D01*
X149555136Y-121420787D01*
X149570153Y-121426067D01*
X149584750Y-121431851D01*
X149598926Y-121438137D01*
X149612682Y-121444927D01*
X149626018Y-121452219D01*
X149638934Y-121460014D01*
X149651429Y-121468313D01*
X149663504Y-121477114D01*
X149675159Y-121486418D01*
X149686394Y-121496225D01*
X149694711Y-121504145D01*
X149702702Y-121512640D01*
X149710367Y-121521710D01*
X149717705Y-121531355D01*
X149724718Y-121541575D01*
X149731404Y-121552369D01*
X149737764Y-121563738D01*
X149743798Y-121575682D01*
X149749506Y-121588201D01*
X149754888Y-121601295D01*
X149759943Y-121614963D01*
X149764673Y-121629206D01*
X149769076Y-121644024D01*
X149773153Y-121659417D01*
X149776904Y-121675385D01*
X149780329Y-121691927D01*
X149783427Y-121709044D01*
X149786200Y-121726736D01*
X149788646Y-121745003D01*
X149790766Y-121763845D01*
X149792560Y-121783261D01*
X149794027Y-121803252D01*
X149795169Y-121823818D01*
X149795984Y-121844959D01*
X149796474Y-121866675D01*
X149796637Y-121888965D01*
X149796496Y-121909496D01*
X149796073Y-121929562D01*
X149795369Y-121949162D01*
X149794383Y-121968296D01*
X149793115Y-121986965D01*
X149791566Y-122005168D01*
X149789734Y-122022906D01*
X149787621Y-122040178D01*
X149785227Y-122056984D01*
X149782550Y-122073325D01*
X149779592Y-122089200D01*
X149776352Y-122104610D01*
X149772830Y-122119554D01*
X149769027Y-122134032D01*
X149764942Y-122148045D01*
X149758678Y-122166154D01*
X149751913Y-122183396D01*
X149744647Y-122199774D01*
X149736880Y-122215286D01*
X149728612Y-122229932D01*
X149719842Y-122243713D01*
X149710572Y-122256629D01*
X149700801Y-122268679D01*
X149690528Y-122279863D01*
X149679754Y-122290182D01*
X149668479Y-122299636D01*
X149654086Y-122310249D01*
X149639694Y-122320046D01*
X149625301Y-122329027D01*
X149610908Y-122337191D01*
X149596515Y-122344540D01*
X149582122Y-122351072D01*
X149567729Y-122356787D01*
X149553336Y-122361687D01*
X149538944Y-122365770D01*
X149525466Y-122368916D01*
X149511493Y-122371731D01*
X149497024Y-122374214D01*
X149482058Y-122376367D01*
X149466597Y-122378188D01*
X149450639Y-122379678D01*
X149434185Y-122380837D01*
X149417235Y-122381665D01*
X149399789Y-122382162D01*
X149381847Y-122382327D01*
X149364988Y-122382172D01*
X149348171Y-122381705D01*
X149331398Y-122380928D01*
X149314668Y-122379839D01*
X149297981Y-122378439D01*
X149281337Y-122376729D01*
X149264736Y-122374707D01*
X149248178Y-122372374D01*
X149231663Y-122369730D01*
X149215191Y-122366776D01*
X149198762Y-122363510D01*
X149182376Y-122359933D01*
X149166034Y-122356045D01*
X149149734Y-122351846D01*
X149133477Y-122347336D01*
X149117264Y-122342515D01*
X149101094Y-122337383D01*
X149084966Y-122331940D01*
X149068882Y-122326186D01*
X149052841Y-122320121D01*
X149036842Y-122313745D01*
X149020887Y-122307057D01*
X149004975Y-122300059D01*
X148989106Y-122292750D01*
X148989106Y-122538039D01*
X149005116Y-122544197D01*
X149021174Y-122550104D01*
X149037280Y-122555760D01*
X149053435Y-122561164D01*
X149069639Y-122566317D01*
X149085891Y-122571219D01*
X149102191Y-122575869D01*
X149118541Y-122580268D01*
X149134938Y-122584416D01*
X149151384Y-122588312D01*
X149167879Y-122591957D01*
X149184422Y-122595350D01*
X149201013Y-122598492D01*
X149217653Y-122601383D01*
X149234342Y-122604022D01*
X149251079Y-122606410D01*
X149267865Y-122608547D01*
X149284699Y-122610432D01*
X149301581Y-122612066D01*
X149318513Y-122613448D01*
X149335492Y-122614580D01*
X149352520Y-122615459D01*
X149369597Y-122616088D01*
X149386722Y-122616465D01*
X149403896Y-122616590D01*
X149423218Y-122616418D01*
X149442263Y-122615902D01*
X149461033Y-122615042D01*
X149479527Y-122613837D01*
X149497746Y-122612288D01*
X149515688Y-122610395D01*
X149533354Y-122608158D01*
X149550745Y-122605576D01*
X149567860Y-122602651D01*
X149584699Y-122599381D01*
X149601262Y-122595767D01*
X149617549Y-122591808D01*
X149633560Y-122587506D01*
X149649296Y-122582859D01*
X149664755Y-122577868D01*
X149679939Y-122572533D01*
X149694847Y-122566854D01*
X149709479Y-122560831D01*
X149723835Y-122554463D01*
X149737915Y-122547751D01*
X149751720Y-122540695D01*
X149765248Y-122533295D01*
X149778501Y-122525551D01*
X149791478Y-122517462D01*
X149804179Y-122509029D01*
X149816604Y-122500252D01*
X149828753Y-122491131D01*
X149840626Y-122481666D01*
X149852224Y-122471856D01*
X149863546Y-122461703D01*
X149874592Y-122451205D01*
X149885361Y-122440362D01*
X149895856Y-122429176D01*
X149895855Y-122429157D01*
X149895855Y-122429157D01*
G37*
G36*
X148681803Y-122594521D02*
X148681803Y-120650122D01*
X148424110Y-120650122D01*
X148424110Y-121775982D01*
X147815017Y-121186175D01*
X147464996Y-121186175D01*
X148076844Y-121773216D01*
X147383691Y-122594521D01*
X147726823Y-122594521D01*
X148249099Y-121939953D01*
X148424110Y-122109456D01*
X148424110Y-122594521D01*
X148681803Y-122594521D01*
X148681803Y-122594521D01*
G37*
D14*
X158725000Y-99240000D02*
X160575000Y-99240000D01*
X158725000Y-116760000D02*
X160575000Y-116760000D01*
X159650000Y-115800000D02*
X159650000Y-100200000D01*
X156850000Y-96500000D02*
X157550000Y-96500000D01*
X157550000Y-95300000D02*
X156850000Y-95300000D01*
X158337500Y-94737500D02*
X156187500Y-94737500D01*
X159162500Y-92487500D02*
X156187500Y-92487500D01*
X154950000Y-91875000D02*
X155950000Y-91875000D01*
X155950000Y-90525000D02*
X154950000Y-90525000D01*
X146749820Y-98551940D02*
X146749820Y-97850900D01*
X146749820Y-97850900D02*
X146500900Y-97850900D01*
X143950840Y-97850900D02*
X143750180Y-97850900D01*
X143750180Y-97850900D02*
X143750180Y-98551940D01*
X145049660Y-103050180D02*
X144348620Y-103050180D01*
X144348620Y-103050180D02*
X144348620Y-103299100D01*
X144348620Y-105849160D02*
X144348620Y-106049820D01*
X144348620Y-106049820D02*
X145049660Y-106049820D01*
X145000800Y-108500180D02*
X144299760Y-108500180D01*
X144299760Y-108500180D02*
X144299760Y-108749100D01*
X144299760Y-111299160D02*
X144299760Y-111499820D01*
X144299760Y-111499820D02*
X145000800Y-111499820D01*
X143450180Y-116298060D02*
X143450180Y-116999100D01*
X143450180Y-116999100D02*
X143699100Y-116999100D01*
X146249160Y-116999100D02*
X146449820Y-116999100D01*
X146449820Y-116999100D02*
X146449820Y-116298060D01*
X140675000Y-97600000D02*
X140675000Y-98600000D01*
X142025000Y-98600000D02*
X142025000Y-97600000D01*
X142025000Y-103750000D02*
X142025000Y-102750000D01*
X140675000Y-102750000D02*
X140675000Y-103750000D01*
X140675000Y-110650000D02*
X140675000Y-111650000D01*
X142025000Y-111650000D02*
X142025000Y-110650000D01*
X141975000Y-116800000D02*
X141975000Y-115800000D01*
X140625000Y-115800000D02*
X140625000Y-116800000D01*
X144900000Y-102725000D02*
X145900000Y-102725000D01*
X145900000Y-101375000D02*
X144900000Y-101375000D01*
X149575000Y-105200000D02*
X149575000Y-104200000D01*
X148225000Y-104200000D02*
X148225000Y-105200000D01*
X149525000Y-110650000D02*
X149525000Y-109650000D01*
X148175000Y-109650000D02*
X148175000Y-110650000D01*
X145500000Y-112025000D02*
X144500000Y-112025000D01*
X144500000Y-113375000D02*
X145500000Y-113375000D01*
X136233333Y-121728571D02*
X136566667Y-121728571D01*
X136566667Y-122252381D02*
X136566667Y-121252381D01*
X136090476Y-121252381D01*
X135280952Y-121585714D02*
X135280952Y-122252381D01*
X135519048Y-121204762D02*
X135757143Y-121919048D01*
X135138095Y-121919048D01*
X135783333Y-93828571D02*
X136116667Y-93828571D01*
X136116667Y-94352381D02*
X136116667Y-93352381D01*
X135640476Y-93352381D01*
X134783333Y-93352381D02*
X135259524Y-93352381D01*
X135307143Y-93828571D01*
X135259524Y-93780952D01*
X135164286Y-93733333D01*
X134926190Y-93733333D01*
X134830952Y-93780952D01*
X134783333Y-93828571D01*
X134735714Y-93923810D01*
X134735714Y-94161905D01*
X134783333Y-94257143D01*
X134830952Y-94304762D01*
X134926190Y-94352381D01*
X135164286Y-94352381D01*
X135259524Y-94304762D01*
X135307143Y-94257143D01*
X164583333Y-118778571D02*
X164916667Y-118778571D01*
X164916667Y-119302381D02*
X164916667Y-118302381D01*
X164440476Y-118302381D01*
X163630952Y-118302381D02*
X163821429Y-118302381D01*
X163916667Y-118350000D01*
X163964286Y-118397619D01*
X164059524Y-118540476D01*
X164107143Y-118730952D01*
X164107143Y-119111905D01*
X164059524Y-119207143D01*
X164011905Y-119254762D01*
X163916667Y-119302381D01*
X163726190Y-119302381D01*
X163630952Y-119254762D01*
X163583333Y-119207143D01*
X163535714Y-119111905D01*
X163535714Y-118873810D01*
X163583333Y-118778571D01*
X163630952Y-118730952D01*
X163726190Y-118683333D01*
X163916667Y-118683333D01*
X164011905Y-118730952D01*
X164059524Y-118778571D01*
X164107143Y-118873810D01*
X147245238Y-97347619D02*
X147340476Y-97300000D01*
X147435714Y-97204762D01*
X147578571Y-97061905D01*
X147673810Y-97014286D01*
X147769048Y-97014286D01*
X147721429Y-97252381D02*
X147816667Y-97204762D01*
X147911905Y-97109524D01*
X147959524Y-96919048D01*
X147959524Y-96585714D01*
X147911905Y-96395238D01*
X147816667Y-96300000D01*
X147721429Y-96252381D01*
X147530952Y-96252381D01*
X147435714Y-96300000D01*
X147340476Y-96395238D01*
X147292857Y-96585714D01*
X147292857Y-96919048D01*
X147340476Y-97109524D01*
X147435714Y-97204762D01*
X147530952Y-97252381D01*
X147721429Y-97252381D01*
X146340476Y-97252381D02*
X146911905Y-97252381D01*
X146626191Y-97252381D02*
X146626191Y-96252381D01*
X146721429Y-96395238D01*
X146816667Y-96490476D01*
X146911905Y-96538095D01*
X143345238Y-106647619D02*
X143440476Y-106600000D01*
X143535714Y-106504762D01*
X143678571Y-106361905D01*
X143773810Y-106314286D01*
X143869048Y-106314286D01*
X143821429Y-106552381D02*
X143916667Y-106504762D01*
X144011905Y-106409524D01*
X144059524Y-106219048D01*
X144059524Y-105885714D01*
X144011905Y-105695238D01*
X143916667Y-105600000D01*
X143821429Y-105552381D01*
X143630952Y-105552381D01*
X143535714Y-105600000D01*
X143440476Y-105695238D01*
X143392857Y-105885714D01*
X143392857Y-106219048D01*
X143440476Y-106409524D01*
X143535714Y-106504762D01*
X143630952Y-106552381D01*
X143821429Y-106552381D01*
X143011905Y-105647619D02*
X142964286Y-105600000D01*
X142869048Y-105552381D01*
X142630952Y-105552381D01*
X142535714Y-105600000D01*
X142488095Y-105647619D01*
X142440476Y-105742857D01*
X142440476Y-105838095D01*
X142488095Y-105980952D01*
X143059524Y-106552381D01*
X142440476Y-106552381D01*
X143295238Y-108997619D02*
X143390476Y-108950000D01*
X143485714Y-108854762D01*
X143628571Y-108711905D01*
X143723810Y-108664286D01*
X143819048Y-108664286D01*
X143771429Y-108902381D02*
X143866667Y-108854762D01*
X143961905Y-108759524D01*
X144009524Y-108569048D01*
X144009524Y-108235714D01*
X143961905Y-108045238D01*
X143866667Y-107950000D01*
X143771429Y-107902381D01*
X143580952Y-107902381D01*
X143485714Y-107950000D01*
X143390476Y-108045238D01*
X143342857Y-108235714D01*
X143342857Y-108569048D01*
X143390476Y-108759524D01*
X143485714Y-108854762D01*
X143580952Y-108902381D01*
X143771429Y-108902381D01*
X143009524Y-107902381D02*
X142390476Y-107902381D01*
X142723810Y-108283333D01*
X142580952Y-108283333D01*
X142485714Y-108330952D01*
X142438095Y-108378571D01*
X142390476Y-108473810D01*
X142390476Y-108711905D01*
X142438095Y-108807143D01*
X142485714Y-108854762D01*
X142580952Y-108902381D01*
X142866667Y-108902381D01*
X142961905Y-108854762D01*
X143009524Y-108807143D01*
X145045238Y-120706479D02*
X145140476Y-120658860D01*
X145235714Y-120563622D01*
X145378571Y-120420765D01*
X145473810Y-120373146D01*
X145569048Y-120373146D01*
X145521429Y-120611241D02*
X145616667Y-120563622D01*
X145711905Y-120468384D01*
X145759524Y-120277908D01*
X145759524Y-119944574D01*
X145711905Y-119754098D01*
X145616667Y-119658860D01*
X145521429Y-119611241D01*
X145330952Y-119611241D01*
X145235714Y-119658860D01*
X145140476Y-119754098D01*
X145092857Y-119944574D01*
X145092857Y-120277908D01*
X145140476Y-120468384D01*
X145235714Y-120563622D01*
X145330952Y-120611241D01*
X145521429Y-120611241D01*
X144235714Y-119944574D02*
X144235714Y-120611241D01*
X144473810Y-119563622D02*
X144711905Y-120277908D01*
X144092857Y-120277908D01*
X139616666Y-97352381D02*
X139950000Y-96876190D01*
X140188095Y-97352381D02*
X140188095Y-96352381D01*
X139807142Y-96352381D01*
X139711904Y-96400000D01*
X139664285Y-96447619D01*
X139616666Y-96542857D01*
X139616666Y-96685714D01*
X139664285Y-96780952D01*
X139711904Y-96828571D01*
X139807142Y-96876190D01*
X140188095Y-96876190D01*
X138664285Y-97352381D02*
X139235714Y-97352381D01*
X138950000Y-97352381D02*
X138950000Y-96352381D01*
X139045238Y-96495238D01*
X139140476Y-96590476D01*
X139235714Y-96638095D01*
X140516666Y-106802381D02*
X140850000Y-106326190D01*
X141088095Y-106802381D02*
X141088095Y-105802381D01*
X140707142Y-105802381D01*
X140611904Y-105850000D01*
X140564285Y-105897619D01*
X140516666Y-105992857D01*
X140516666Y-106135714D01*
X140564285Y-106230952D01*
X140611904Y-106278571D01*
X140707142Y-106326190D01*
X141088095Y-106326190D01*
X140135714Y-105897619D02*
X140088095Y-105850000D01*
X139992857Y-105802381D01*
X139754761Y-105802381D01*
X139659523Y-105850000D01*
X139611904Y-105897619D01*
X139564285Y-105992857D01*
X139564285Y-106088095D01*
X139611904Y-106230952D01*
X140183333Y-106802381D01*
X139564285Y-106802381D01*
X140516666Y-108902381D02*
X140850000Y-108426190D01*
X141088095Y-108902381D02*
X141088095Y-107902381D01*
X140707142Y-107902381D01*
X140611904Y-107950000D01*
X140564285Y-107997619D01*
X140516666Y-108092857D01*
X140516666Y-108235714D01*
X140564285Y-108330952D01*
X140611904Y-108378571D01*
X140707142Y-108426190D01*
X141088095Y-108426190D01*
X140183333Y-107902381D02*
X139564285Y-107902381D01*
X139897619Y-108283333D01*
X139754761Y-108283333D01*
X139659523Y-108330952D01*
X139611904Y-108378571D01*
X139564285Y-108473810D01*
X139564285Y-108711905D01*
X139611904Y-108807143D01*
X139659523Y-108854762D01*
X139754761Y-108902381D01*
X140040476Y-108902381D01*
X140135714Y-108854762D01*
X140183333Y-108807143D01*
X141516666Y-119752381D02*
X141850000Y-119276190D01*
X142088095Y-119752381D02*
X142088095Y-118752381D01*
X141707142Y-118752381D01*
X141611904Y-118800000D01*
X141564285Y-118847619D01*
X141516666Y-118942857D01*
X141516666Y-119085714D01*
X141564285Y-119180952D01*
X141611904Y-119228571D01*
X141707142Y-119276190D01*
X142088095Y-119276190D01*
X140659523Y-119085714D02*
X140659523Y-119752381D01*
X140897619Y-118704762D02*
X141135714Y-119419048D01*
X140516666Y-119419048D01*
X148666666Y-102252381D02*
X149000000Y-101776190D01*
X149238095Y-102252381D02*
X149238095Y-101252381D01*
X148857142Y-101252381D01*
X148761904Y-101300000D01*
X148714285Y-101347619D01*
X148666666Y-101442857D01*
X148666666Y-101585714D01*
X148714285Y-101680952D01*
X148761904Y-101728571D01*
X148857142Y-101776190D01*
X149238095Y-101776190D01*
X147761904Y-101252381D02*
X148238095Y-101252381D01*
X148285714Y-101728571D01*
X148238095Y-101680952D01*
X148142857Y-101633333D01*
X147904761Y-101633333D01*
X147809523Y-101680952D01*
X147761904Y-101728571D01*
X147714285Y-101823810D01*
X147714285Y-102061905D01*
X147761904Y-102157143D01*
X147809523Y-102204762D01*
X147904761Y-102252381D01*
X148142857Y-102252381D01*
X148238095Y-102204762D01*
X148285714Y-102157143D01*
X150916666Y-105152381D02*
X151250000Y-104676190D01*
X151488095Y-105152381D02*
X151488095Y-104152381D01*
X151107142Y-104152381D01*
X151011904Y-104200000D01*
X150964285Y-104247619D01*
X150916666Y-104342857D01*
X150916666Y-104485714D01*
X150964285Y-104580952D01*
X151011904Y-104628571D01*
X151107142Y-104676190D01*
X151488095Y-104676190D01*
X150059523Y-104152381D02*
X150250000Y-104152381D01*
X150345238Y-104200000D01*
X150392857Y-104247619D01*
X150488095Y-104390476D01*
X150535714Y-104580952D01*
X150535714Y-104961905D01*
X150488095Y-105057143D01*
X150440476Y-105104762D01*
X150345238Y-105152381D01*
X150154761Y-105152381D01*
X150059523Y-105104762D01*
X150011904Y-105057143D01*
X149964285Y-104961905D01*
X149964285Y-104723810D01*
X150011904Y-104628571D01*
X150059523Y-104580952D01*
X150154761Y-104533333D01*
X150345238Y-104533333D01*
X150440476Y-104580952D01*
X150488095Y-104628571D01*
X150535714Y-104723810D01*
X150916666Y-110602381D02*
X151250000Y-110126190D01*
X151488095Y-110602381D02*
X151488095Y-109602381D01*
X151107142Y-109602381D01*
X151011904Y-109650000D01*
X150964285Y-109697619D01*
X150916666Y-109792857D01*
X150916666Y-109935714D01*
X150964285Y-110030952D01*
X151011904Y-110078571D01*
X151107142Y-110126190D01*
X151488095Y-110126190D01*
X150583333Y-109602381D02*
X149916666Y-109602381D01*
X150345238Y-110602381D01*
X148366666Y-114402381D02*
X148700000Y-113926190D01*
X148938095Y-114402381D02*
X148938095Y-113402381D01*
X148557142Y-113402381D01*
X148461904Y-113450000D01*
X148414285Y-113497619D01*
X148366666Y-113592857D01*
X148366666Y-113735714D01*
X148414285Y-113830952D01*
X148461904Y-113878571D01*
X148557142Y-113926190D01*
X148938095Y-113926190D01*
X147795238Y-113830952D02*
X147890476Y-113783333D01*
X147938095Y-113735714D01*
X147985714Y-113640476D01*
X147985714Y-113592857D01*
X147938095Y-113497619D01*
X147890476Y-113450000D01*
X147795238Y-113402381D01*
X147604761Y-113402381D01*
X147509523Y-113450000D01*
X147461904Y-113497619D01*
X147414285Y-113592857D01*
X147414285Y-113640476D01*
X147461904Y-113735714D01*
X147509523Y-113783333D01*
X147604761Y-113830952D01*
X147795238Y-113830952D01*
X147890476Y-113878571D01*
X147938095Y-113926190D01*
X147985714Y-114021429D01*
X147985714Y-114211905D01*
X147938095Y-114307143D01*
X147890476Y-114354762D01*
X147795238Y-114402381D01*
X147604761Y-114402381D01*
X147509523Y-114354762D01*
X147461904Y-114307143D01*
X147414285Y-114211905D01*
X147414285Y-114021429D01*
X147461904Y-113926190D01*
X147509523Y-113878571D01*
X147604761Y-113830952D01*
M02*
