G04 #@! TF.FileFunction,Legend,Top*
%FSLAX46Y46*%
G04 Gerber Fmt 4.6, Leading zero omitted, Abs format (unit mm)*
G04 Created by KiCad (PCBNEW 4.0.1-stable) date Monday, April 04, 2016 'PMt' 01:11:27 PM*
%MOMM*%
G01*
G04 APERTURE LIST*
%ADD10C,0.100000*%
%ADD11C,0.400000*%
%ADD12C,0.200000*%
%ADD13C,0.250000*%
%ADD14C,0.300000*%
%ADD15C,0.150000*%
%ADD16C,0.010000*%
G04 APERTURE END LIST*
D10*
D11*
X137485714Y-90969048D02*
X137604762Y-90850000D01*
X137842857Y-90730952D01*
X138438095Y-90730952D01*
X138676191Y-90850000D01*
X138795238Y-90969048D01*
X138914286Y-91207143D01*
X138914286Y-91445238D01*
X138795238Y-91802381D01*
X137366667Y-93230952D01*
X138914286Y-93230952D01*
X138614286Y-124930952D02*
X137185714Y-124930952D01*
X137900000Y-124930952D02*
X137900000Y-122430952D01*
X137661905Y-122788095D01*
X137423810Y-123026190D01*
X137185714Y-123145238D01*
D12*
X157626190Y-117784524D02*
X157685714Y-117725000D01*
X157804762Y-117665476D01*
X158102381Y-117665476D01*
X158221428Y-117725000D01*
X158280952Y-117784524D01*
X158340476Y-117903571D01*
X158340476Y-118022619D01*
X158280952Y-118201190D01*
X157566666Y-118915476D01*
X158340476Y-118915476D01*
X158876190Y-118915476D02*
X158876190Y-118082143D01*
X158876190Y-118201190D02*
X158935714Y-118141667D01*
X159054761Y-118082143D01*
X159233333Y-118082143D01*
X159352381Y-118141667D01*
X159411904Y-118260714D01*
X159411904Y-118915476D01*
X159411904Y-118260714D02*
X159471428Y-118141667D01*
X159590476Y-118082143D01*
X159769047Y-118082143D01*
X159888095Y-118141667D01*
X159947619Y-118260714D01*
X159947619Y-118915476D01*
X160542857Y-118915476D02*
X160542857Y-118082143D01*
X160542857Y-118201190D02*
X160602381Y-118141667D01*
X160721428Y-118082143D01*
X160900000Y-118082143D01*
X161019048Y-118141667D01*
X161078571Y-118260714D01*
X161078571Y-118915476D01*
X161078571Y-118260714D02*
X161138095Y-118141667D01*
X161257143Y-118082143D01*
X161435714Y-118082143D01*
X161554762Y-118141667D01*
X161614286Y-118260714D01*
X161614286Y-118915476D01*
D13*
X141210000Y-124907143D02*
X141067143Y-124978571D01*
X140781429Y-124978571D01*
X140638571Y-124907143D01*
X140567143Y-124835714D01*
X140495714Y-124692857D01*
X140495714Y-124264286D01*
X140567143Y-124121429D01*
X140638571Y-124050000D01*
X140781429Y-123978571D01*
X141067143Y-123978571D01*
X141210000Y-124050000D01*
X141852857Y-124978571D02*
X141852857Y-123478571D01*
X141995714Y-124407143D02*
X142424285Y-124978571D01*
X142424285Y-123978571D02*
X141852857Y-124550000D01*
X143710000Y-124978571D02*
X143710000Y-123478571D01*
X143710000Y-124907143D02*
X143567143Y-124978571D01*
X143281429Y-124978571D01*
X143138571Y-124907143D01*
X143067143Y-124835714D01*
X142995714Y-124692857D01*
X142995714Y-124264286D01*
X143067143Y-124121429D01*
X143138571Y-124050000D01*
X143281429Y-123978571D01*
X143567143Y-123978571D01*
X143710000Y-124050000D01*
X144424286Y-124835714D02*
X144495714Y-124907143D01*
X144424286Y-124978571D01*
X144352857Y-124907143D01*
X144424286Y-124835714D01*
X144424286Y-124978571D01*
X144924286Y-123978571D02*
X145495715Y-123978571D01*
X145138572Y-123478571D02*
X145138572Y-124764286D01*
X145210000Y-124907143D01*
X145352858Y-124978571D01*
X145495715Y-124978571D01*
X146567143Y-124907143D02*
X146424286Y-124978571D01*
X146138572Y-124978571D01*
X145995715Y-124907143D01*
X145924286Y-124764286D01*
X145924286Y-124192857D01*
X145995715Y-124050000D01*
X146138572Y-123978571D01*
X146424286Y-123978571D01*
X146567143Y-124050000D01*
X146638572Y-124192857D01*
X146638572Y-124335714D01*
X145924286Y-124478571D01*
X147924286Y-124907143D02*
X147781429Y-124978571D01*
X147495715Y-124978571D01*
X147352857Y-124907143D01*
X147281429Y-124835714D01*
X147210000Y-124692857D01*
X147210000Y-124264286D01*
X147281429Y-124121429D01*
X147352857Y-124050000D01*
X147495715Y-123978571D01*
X147781429Y-123978571D01*
X147924286Y-124050000D01*
X148567143Y-124978571D02*
X148567143Y-123478571D01*
X149210000Y-124978571D02*
X149210000Y-124192857D01*
X149138571Y-124050000D01*
X148995714Y-123978571D01*
X148781429Y-123978571D01*
X148638571Y-124050000D01*
X148567143Y-124121429D01*
X150995714Y-123407143D02*
X149710000Y-125335714D01*
X152138572Y-124978571D02*
X152138572Y-123478571D01*
X152138572Y-124907143D02*
X151995715Y-124978571D01*
X151710001Y-124978571D01*
X151567143Y-124907143D01*
X151495715Y-124835714D01*
X151424286Y-124692857D01*
X151424286Y-124264286D01*
X151495715Y-124121429D01*
X151567143Y-124050000D01*
X151710001Y-123978571D01*
X151995715Y-123978571D01*
X152138572Y-124050000D01*
X152781429Y-124907143D02*
X152924286Y-124978571D01*
X153210001Y-124978571D01*
X153352858Y-124907143D01*
X153424286Y-124764286D01*
X153424286Y-124692857D01*
X153352858Y-124550000D01*
X153210001Y-124478571D01*
X152995715Y-124478571D01*
X152852858Y-124407143D01*
X152781429Y-124264286D01*
X152781429Y-124192857D01*
X152852858Y-124050000D01*
X152995715Y-123978571D01*
X153210001Y-123978571D01*
X153352858Y-124050000D01*
X154067144Y-124978571D02*
X154067144Y-123478571D01*
X154067144Y-124050000D02*
X154210001Y-123978571D01*
X154495715Y-123978571D01*
X154638572Y-124050000D01*
X154710001Y-124121429D01*
X154781430Y-124264286D01*
X154781430Y-124692857D01*
X154710001Y-124835714D01*
X154638572Y-124907143D01*
X154495715Y-124978571D01*
X154210001Y-124978571D01*
X154067144Y-124907143D01*
X156495715Y-123407143D02*
X155210001Y-125335714D01*
X156852859Y-123978571D02*
X157210002Y-124978571D01*
X157567144Y-123978571D01*
X158067144Y-123621429D02*
X158138573Y-123550000D01*
X158281430Y-123478571D01*
X158638573Y-123478571D01*
X158781430Y-123550000D01*
X158852859Y-123621429D01*
X158924287Y-123764286D01*
X158924287Y-123907143D01*
X158852859Y-124121429D01*
X157995716Y-124978571D01*
X158924287Y-124978571D01*
D14*
X130507143Y-120378571D02*
X130507143Y-118878571D01*
X131078571Y-118878571D01*
X131221429Y-118950000D01*
X131292857Y-119021429D01*
X131364286Y-119164286D01*
X131364286Y-119378571D01*
X131292857Y-119521429D01*
X131221429Y-119592857D01*
X131078571Y-119664286D01*
X130507143Y-119664286D01*
X132221429Y-120378571D02*
X132078571Y-120307143D01*
X132007143Y-120235714D01*
X131935714Y-120092857D01*
X131935714Y-119664286D01*
X132007143Y-119521429D01*
X132078571Y-119450000D01*
X132221429Y-119378571D01*
X132435714Y-119378571D01*
X132578571Y-119450000D01*
X132650000Y-119521429D01*
X132721429Y-119664286D01*
X132721429Y-120092857D01*
X132650000Y-120235714D01*
X132578571Y-120307143D01*
X132435714Y-120378571D01*
X132221429Y-120378571D01*
X133364286Y-120378571D02*
X133364286Y-119378571D01*
X133364286Y-119664286D02*
X133435714Y-119521429D01*
X133507143Y-119450000D01*
X133650000Y-119378571D01*
X133792857Y-119378571D01*
X134078571Y-119378571D02*
X134650000Y-119378571D01*
X134292857Y-118878571D02*
X134292857Y-120164286D01*
X134364285Y-120307143D01*
X134507143Y-120378571D01*
X134650000Y-120378571D01*
X137078571Y-120378571D02*
X136221428Y-120378571D01*
X136650000Y-120378571D02*
X136650000Y-118878571D01*
X136507143Y-119092857D01*
X136364285Y-119235714D01*
X136221428Y-119307143D01*
X130557143Y-97278571D02*
X130557143Y-95778571D01*
X131128571Y-95778571D01*
X131271429Y-95850000D01*
X131342857Y-95921429D01*
X131414286Y-96064286D01*
X131414286Y-96278571D01*
X131342857Y-96421429D01*
X131271429Y-96492857D01*
X131128571Y-96564286D01*
X130557143Y-96564286D01*
X132271429Y-97278571D02*
X132128571Y-97207143D01*
X132057143Y-97135714D01*
X131985714Y-96992857D01*
X131985714Y-96564286D01*
X132057143Y-96421429D01*
X132128571Y-96350000D01*
X132271429Y-96278571D01*
X132485714Y-96278571D01*
X132628571Y-96350000D01*
X132700000Y-96421429D01*
X132771429Y-96564286D01*
X132771429Y-96992857D01*
X132700000Y-97135714D01*
X132628571Y-97207143D01*
X132485714Y-97278571D01*
X132271429Y-97278571D01*
X133414286Y-97278571D02*
X133414286Y-96278571D01*
X133414286Y-96564286D02*
X133485714Y-96421429D01*
X133557143Y-96350000D01*
X133700000Y-96278571D01*
X133842857Y-96278571D01*
X134128571Y-96278571D02*
X134700000Y-96278571D01*
X134342857Y-95778571D02*
X134342857Y-97064286D01*
X134414285Y-97207143D01*
X134557143Y-97278571D01*
X134700000Y-97278571D01*
X136271428Y-95921429D02*
X136342857Y-95850000D01*
X136485714Y-95778571D01*
X136842857Y-95778571D01*
X136985714Y-95850000D01*
X137057143Y-95921429D01*
X137128571Y-96064286D01*
X137128571Y-96207143D01*
X137057143Y-96421429D01*
X136200000Y-97278571D01*
X137128571Y-97278571D01*
D12*
X139100000Y-98000000D02*
X137100000Y-98000000D01*
X139100000Y-108000000D02*
X139100000Y-98000000D01*
X139100000Y-118000000D02*
X137100000Y-118000000D01*
X139100000Y-108000000D02*
X139100000Y-118000000D01*
X137100000Y-108000000D02*
X139100000Y-108000000D01*
D14*
X133242857Y-108228571D02*
X134100000Y-108228571D01*
X133671429Y-109728571D02*
X133671429Y-108228571D01*
X134457143Y-108228571D02*
X135457143Y-109728571D01*
X135457143Y-108228571D02*
X134457143Y-109728571D01*
X134314286Y-112228571D02*
X133814286Y-111514286D01*
X133457143Y-112228571D02*
X133457143Y-110728571D01*
X134028571Y-110728571D01*
X134171429Y-110800000D01*
X134242857Y-110871429D01*
X134314286Y-111014286D01*
X134314286Y-111228571D01*
X134242857Y-111371429D01*
X134171429Y-111442857D01*
X134028571Y-111514286D01*
X133457143Y-111514286D01*
X134814286Y-110728571D02*
X135814286Y-112228571D01*
X135814286Y-110728571D02*
X134814286Y-112228571D01*
X133457143Y-114107143D02*
X134600000Y-114107143D01*
X134028571Y-114678571D02*
X134028571Y-113535714D01*
X136028572Y-113178571D02*
X135314286Y-113178571D01*
X135242857Y-113892857D01*
X135314286Y-113821429D01*
X135457143Y-113750000D01*
X135814286Y-113750000D01*
X135957143Y-113821429D01*
X136028572Y-113892857D01*
X136100000Y-114035714D01*
X136100000Y-114392857D01*
X136028572Y-114535714D01*
X135957143Y-114607143D01*
X135814286Y-114678571D01*
X135457143Y-114678571D01*
X135314286Y-114607143D01*
X135242857Y-114535714D01*
X136528571Y-113178571D02*
X137028571Y-114678571D01*
X137528571Y-113178571D01*
X134242857Y-115750000D02*
X134100000Y-115678571D01*
X133885714Y-115678571D01*
X133671429Y-115750000D01*
X133528571Y-115892857D01*
X133457143Y-116035714D01*
X133385714Y-116321429D01*
X133385714Y-116535714D01*
X133457143Y-116821429D01*
X133528571Y-116964286D01*
X133671429Y-117107143D01*
X133885714Y-117178571D01*
X134028571Y-117178571D01*
X134242857Y-117107143D01*
X134314286Y-117035714D01*
X134314286Y-116535714D01*
X134028571Y-116535714D01*
X134957143Y-117178571D02*
X134957143Y-115678571D01*
X135814286Y-117178571D01*
X135814286Y-115678571D01*
X136528572Y-117178571D02*
X136528572Y-115678571D01*
X136885715Y-115678571D01*
X137100000Y-115750000D01*
X137242858Y-115892857D01*
X137314286Y-116035714D01*
X137385715Y-116321429D01*
X137385715Y-116535714D01*
X137314286Y-116821429D01*
X137242858Y-116964286D01*
X137100000Y-117107143D01*
X136885715Y-117178571D01*
X136528572Y-117178571D01*
X134192857Y-105500000D02*
X134050000Y-105428571D01*
X133835714Y-105428571D01*
X133621429Y-105500000D01*
X133478571Y-105642857D01*
X133407143Y-105785714D01*
X133335714Y-106071429D01*
X133335714Y-106285714D01*
X133407143Y-106571429D01*
X133478571Y-106714286D01*
X133621429Y-106857143D01*
X133835714Y-106928571D01*
X133978571Y-106928571D01*
X134192857Y-106857143D01*
X134264286Y-106785714D01*
X134264286Y-106285714D01*
X133978571Y-106285714D01*
X134907143Y-106928571D02*
X134907143Y-105428571D01*
X135764286Y-106928571D01*
X135764286Y-105428571D01*
X136478572Y-106928571D02*
X136478572Y-105428571D01*
X136835715Y-105428571D01*
X137050000Y-105500000D01*
X137192858Y-105642857D01*
X137264286Y-105785714D01*
X137335715Y-106071429D01*
X137335715Y-106285714D01*
X137264286Y-106571429D01*
X137192858Y-106714286D01*
X137050000Y-106857143D01*
X136835715Y-106928571D01*
X136478572Y-106928571D01*
X133207143Y-103807143D02*
X134350000Y-103807143D01*
X133778571Y-104378571D02*
X133778571Y-103235714D01*
X135778572Y-102878571D02*
X135064286Y-102878571D01*
X134992857Y-103592857D01*
X135064286Y-103521429D01*
X135207143Y-103450000D01*
X135564286Y-103450000D01*
X135707143Y-103521429D01*
X135778572Y-103592857D01*
X135850000Y-103735714D01*
X135850000Y-104092857D01*
X135778572Y-104235714D01*
X135707143Y-104307143D01*
X135564286Y-104378571D01*
X135207143Y-104378571D01*
X135064286Y-104307143D01*
X134992857Y-104235714D01*
X136278571Y-102878571D02*
X136778571Y-104378571D01*
X137278571Y-102878571D01*
X134264286Y-102028571D02*
X133764286Y-101314286D01*
X133407143Y-102028571D02*
X133407143Y-100528571D01*
X133978571Y-100528571D01*
X134121429Y-100600000D01*
X134192857Y-100671429D01*
X134264286Y-100814286D01*
X134264286Y-101028571D01*
X134192857Y-101171429D01*
X134121429Y-101242857D01*
X133978571Y-101314286D01*
X133407143Y-101314286D01*
X134764286Y-100528571D02*
X135764286Y-102028571D01*
X135764286Y-100528571D02*
X134764286Y-102028571D01*
X133342857Y-97928571D02*
X134200000Y-97928571D01*
X133771429Y-99428571D02*
X133771429Y-97928571D01*
X134557143Y-97928571D02*
X135557143Y-99428571D01*
X135557143Y-97928571D02*
X134557143Y-99428571D01*
D15*
X159109620Y-94920560D02*
X159678580Y-94920560D01*
X159678580Y-94920560D02*
X159678580Y-94509080D01*
X164947700Y-98920560D02*
X165516660Y-98920560D01*
X165516660Y-98920560D02*
X165516660Y-98509080D01*
X159259620Y-97370560D02*
X159828580Y-97370560D01*
X159828580Y-97370560D02*
X159828580Y-96959080D01*
X132850000Y-117980000D02*
X132850000Y-116430000D01*
X131550000Y-117980000D02*
X132850000Y-117980000D01*
X127359000Y-116557000D02*
X121517000Y-116557000D01*
X121517000Y-116557000D02*
X121517000Y-116303000D01*
X121517000Y-116303000D02*
X127359000Y-116303000D01*
X127359000Y-116303000D02*
X127359000Y-116430000D01*
X127359000Y-116430000D02*
X121517000Y-116430000D01*
X130026000Y-98904000D02*
X130407000Y-98904000D01*
X130026000Y-98396000D02*
X130407000Y-98396000D01*
X130026000Y-116684000D02*
X130407000Y-116684000D01*
X130026000Y-116176000D02*
X130407000Y-116176000D01*
X130026000Y-114144000D02*
X130407000Y-114144000D01*
X130026000Y-113636000D02*
X130407000Y-113636000D01*
X130026000Y-111604000D02*
X130407000Y-111604000D01*
X130026000Y-111096000D02*
X130407000Y-111096000D01*
X130026000Y-100936000D02*
X130407000Y-100936000D01*
X130026000Y-101444000D02*
X130407000Y-101444000D01*
X130026000Y-103476000D02*
X130407000Y-103476000D01*
X130026000Y-103984000D02*
X130407000Y-103984000D01*
X130026000Y-106016000D02*
X130407000Y-106016000D01*
X130026000Y-106524000D02*
X130407000Y-106524000D01*
X130026000Y-108556000D02*
X130407000Y-108556000D01*
X130026000Y-109064000D02*
X130407000Y-109064000D01*
X130026000Y-102460000D02*
X127486000Y-102460000D01*
X130026000Y-102460000D02*
X130026000Y-99920000D01*
X130026000Y-99920000D02*
X127486000Y-99920000D01*
X127486000Y-101444000D02*
X121390000Y-101444000D01*
X121390000Y-101444000D02*
X121390000Y-100936000D01*
X121390000Y-100936000D02*
X127486000Y-100936000D01*
X127486000Y-99920000D02*
X127486000Y-102460000D01*
X127486000Y-97380000D02*
X127486000Y-99920000D01*
X121390000Y-98396000D02*
X127486000Y-98396000D01*
X121390000Y-98904000D02*
X121390000Y-98396000D01*
X127486000Y-98904000D02*
X121390000Y-98904000D01*
X130026000Y-99920000D02*
X130026000Y-97380000D01*
X130026000Y-99920000D02*
X127486000Y-99920000D01*
X130026000Y-97380000D02*
X127486000Y-97380000D01*
X130026000Y-117700000D02*
X127486000Y-117700000D01*
X130026000Y-115160000D02*
X127486000Y-115160000D01*
X130026000Y-115160000D02*
X130026000Y-112620000D01*
X130026000Y-112620000D02*
X127486000Y-112620000D01*
X127486000Y-114144000D02*
X121390000Y-114144000D01*
X121390000Y-114144000D02*
X121390000Y-113636000D01*
X121390000Y-113636000D02*
X127486000Y-113636000D01*
X127486000Y-112620000D02*
X127486000Y-115160000D01*
X127486000Y-115160000D02*
X127486000Y-117700000D01*
X121390000Y-116176000D02*
X127486000Y-116176000D01*
X121390000Y-116684000D02*
X121390000Y-116176000D01*
X127486000Y-116684000D02*
X121390000Y-116684000D01*
X130026000Y-115160000D02*
X127486000Y-115160000D01*
X130026000Y-117700000D02*
X130026000Y-115160000D01*
X130026000Y-107540000D02*
X127486000Y-107540000D01*
X130026000Y-107540000D02*
X130026000Y-105000000D01*
X130026000Y-105000000D02*
X127486000Y-105000000D01*
X127486000Y-106524000D02*
X121390000Y-106524000D01*
X121390000Y-106524000D02*
X121390000Y-106016000D01*
X121390000Y-106016000D02*
X127486000Y-106016000D01*
X127486000Y-105000000D02*
X127486000Y-107540000D01*
X127486000Y-102460000D02*
X127486000Y-105000000D01*
X121390000Y-103476000D02*
X127486000Y-103476000D01*
X121390000Y-103984000D02*
X121390000Y-103476000D01*
X127486000Y-103984000D02*
X121390000Y-103984000D01*
X130026000Y-102460000D02*
X127486000Y-102460000D01*
X130026000Y-105000000D02*
X130026000Y-102460000D01*
X130026000Y-105000000D02*
X127486000Y-105000000D01*
X130026000Y-110080000D02*
X127486000Y-110080000D01*
X130026000Y-110080000D02*
X130026000Y-107540000D01*
X130026000Y-107540000D02*
X127486000Y-107540000D01*
X127486000Y-109064000D02*
X121390000Y-109064000D01*
X121390000Y-109064000D02*
X121390000Y-108556000D01*
X121390000Y-108556000D02*
X127486000Y-108556000D01*
X127486000Y-107540000D02*
X127486000Y-110080000D01*
X127486000Y-110080000D02*
X127486000Y-112620000D01*
X121390000Y-111096000D02*
X127486000Y-111096000D01*
X121390000Y-111604000D02*
X121390000Y-111096000D01*
X127486000Y-111604000D02*
X121390000Y-111604000D01*
X130026000Y-110080000D02*
X127486000Y-110080000D01*
X130026000Y-112620000D02*
X130026000Y-110080000D01*
X130026000Y-112620000D02*
X127486000Y-112620000D01*
D16*
G36*
X150611343Y-121112173D02*
X150682011Y-121117779D01*
X150753885Y-121127766D01*
X150801382Y-121136682D01*
X150826837Y-121142279D01*
X150852505Y-121148526D01*
X150877782Y-121155225D01*
X150902064Y-121162177D01*
X150924750Y-121169184D01*
X150945234Y-121176047D01*
X150962915Y-121182567D01*
X150977188Y-121188546D01*
X150987451Y-121193786D01*
X150993099Y-121198087D01*
X150994023Y-121200081D01*
X150993536Y-121203499D01*
X150992111Y-121212235D01*
X150989802Y-121225983D01*
X150986660Y-121244442D01*
X150982741Y-121267305D01*
X150978097Y-121294270D01*
X150972780Y-121325033D01*
X150966846Y-121359290D01*
X150960346Y-121396736D01*
X150953334Y-121437068D01*
X150945863Y-121479982D01*
X150937987Y-121525174D01*
X150929758Y-121572340D01*
X150921231Y-121621177D01*
X150912457Y-121671380D01*
X150903492Y-121722645D01*
X150894387Y-121774668D01*
X150885196Y-121827146D01*
X150875972Y-121879775D01*
X150866769Y-121932250D01*
X150857640Y-121984268D01*
X150848637Y-122035525D01*
X150839815Y-122085717D01*
X150831227Y-122134540D01*
X150822925Y-122181690D01*
X150814963Y-122226863D01*
X150807395Y-122269756D01*
X150800273Y-122310063D01*
X150793651Y-122347483D01*
X150787582Y-122381709D01*
X150782119Y-122412440D01*
X150777316Y-122439370D01*
X150773226Y-122462195D01*
X150769902Y-122480613D01*
X150767397Y-122494319D01*
X150765764Y-122503008D01*
X150765375Y-122504977D01*
X150750970Y-122569946D01*
X150734930Y-122632006D01*
X150717410Y-122690722D01*
X150698560Y-122745660D01*
X150678535Y-122796386D01*
X150657487Y-122842464D01*
X150635569Y-122883461D01*
X150627679Y-122896595D01*
X150596411Y-122942499D01*
X150562288Y-122984126D01*
X150525596Y-123021188D01*
X150486624Y-123053397D01*
X150445660Y-123080464D01*
X150441820Y-123082675D01*
X150410174Y-123098664D01*
X150373928Y-123113437D01*
X150334117Y-123126698D01*
X150291776Y-123138152D01*
X150247938Y-123147503D01*
X150203638Y-123154455D01*
X150182510Y-123156853D01*
X150161263Y-123158560D01*
X150136707Y-123159889D01*
X150110329Y-123160814D01*
X150083615Y-123161308D01*
X150058050Y-123161344D01*
X150035122Y-123160895D01*
X150016316Y-123159934D01*
X150015512Y-123159872D01*
X149938839Y-123151108D01*
X149861212Y-123136763D01*
X149831045Y-123129748D01*
X149814287Y-123125460D01*
X149797612Y-123120890D01*
X149782097Y-123116365D01*
X149768821Y-123112210D01*
X149758860Y-123108750D01*
X149753293Y-123106312D01*
X149753109Y-123106196D01*
X149751958Y-123104332D01*
X149751567Y-123100254D01*
X149752003Y-123093284D01*
X149753336Y-123082743D01*
X149755634Y-123067955D01*
X149758942Y-123048380D01*
X149768508Y-122993000D01*
X149951035Y-122991419D01*
X149988914Y-122991074D01*
X150021550Y-122990734D01*
X150049407Y-122990384D01*
X150072951Y-122990010D01*
X150092645Y-122989598D01*
X150108955Y-122989132D01*
X150122345Y-122988598D01*
X150133280Y-122987982D01*
X150142224Y-122987269D01*
X150149642Y-122986445D01*
X150155999Y-122985495D01*
X150159247Y-122984907D01*
X150196448Y-122976777D01*
X150228941Y-122967465D01*
X150257664Y-122956626D01*
X150283556Y-122943913D01*
X150303710Y-122931594D01*
X150317129Y-122921416D01*
X150332624Y-122907726D01*
X150349039Y-122891715D01*
X150365218Y-122874576D01*
X150380002Y-122857500D01*
X150392238Y-122841680D01*
X150395420Y-122837085D01*
X150411533Y-122810628D01*
X150427673Y-122779677D01*
X150443320Y-122745422D01*
X150457955Y-122709050D01*
X150471057Y-122671750D01*
X150478936Y-122646080D01*
X150482337Y-122633606D01*
X150486192Y-122618400D01*
X150490263Y-122601521D01*
X150494315Y-122584029D01*
X150498109Y-122566985D01*
X150501408Y-122551450D01*
X150503977Y-122538483D01*
X150505577Y-122529145D01*
X150506000Y-122525007D01*
X150504304Y-122523844D01*
X150498898Y-122524862D01*
X150489302Y-122528194D01*
X150476747Y-122533259D01*
X150433426Y-122550106D01*
X150390202Y-122564483D01*
X150348315Y-122576027D01*
X150309001Y-122584376D01*
X150293382Y-122586867D01*
X150279180Y-122588324D01*
X150260714Y-122589395D01*
X150239319Y-122590080D01*
X150216327Y-122590378D01*
X150193074Y-122590289D01*
X150170891Y-122589812D01*
X150151113Y-122588945D01*
X150135075Y-122587689D01*
X150129247Y-122586969D01*
X150104748Y-122582711D01*
X150079000Y-122577038D01*
X150054049Y-122570462D01*
X150031938Y-122563494D01*
X150024388Y-122560728D01*
X149994248Y-122546239D01*
X149965440Y-122526844D01*
X149938770Y-122503321D01*
X149915041Y-122476448D01*
X149895059Y-122447001D01*
X149883334Y-122424402D01*
X149867082Y-122382405D01*
X149854393Y-122335963D01*
X149845266Y-122285095D01*
X149839704Y-122229815D01*
X149837708Y-122170141D01*
X149839279Y-122106090D01*
X149839534Y-122102696D01*
X150096448Y-122102696D01*
X150096695Y-122149856D01*
X150099354Y-122194444D01*
X150104398Y-122235594D01*
X150111796Y-122272444D01*
X150112277Y-122274355D01*
X150123204Y-122307702D01*
X150137902Y-122336776D01*
X150156374Y-122361578D01*
X150178625Y-122382110D01*
X150204657Y-122398374D01*
X150234474Y-122410373D01*
X150268081Y-122418107D01*
X150305480Y-122421580D01*
X150346677Y-122420793D01*
X150378947Y-122417556D01*
X150397250Y-122414529D01*
X150417107Y-122410159D01*
X150437717Y-122404733D01*
X150458277Y-122398535D01*
X150477987Y-122391854D01*
X150496045Y-122384974D01*
X150511649Y-122378182D01*
X150523998Y-122371764D01*
X150532291Y-122366007D01*
X150535623Y-122361626D01*
X150536280Y-122358288D01*
X150537862Y-122349674D01*
X150540311Y-122336116D01*
X150543567Y-122317949D01*
X150547573Y-122295504D01*
X150552268Y-122269116D01*
X150557595Y-122239118D01*
X150563495Y-122205842D01*
X150569910Y-122169623D01*
X150576779Y-122130793D01*
X150584046Y-122089686D01*
X150591650Y-122046635D01*
X150599534Y-122001973D01*
X150607639Y-121956033D01*
X150615906Y-121909149D01*
X150624276Y-121861654D01*
X150632691Y-121813881D01*
X150641092Y-121766164D01*
X150649420Y-121718836D01*
X150657617Y-121672229D01*
X150665624Y-121626678D01*
X150673382Y-121582515D01*
X150680832Y-121540074D01*
X150687916Y-121499688D01*
X150694576Y-121461690D01*
X150700751Y-121426414D01*
X150706385Y-121394192D01*
X150711418Y-121365358D01*
X150715791Y-121340246D01*
X150719446Y-121319188D01*
X150722323Y-121302518D01*
X150724366Y-121290569D01*
X150725513Y-121283675D01*
X150725753Y-121282034D01*
X150723015Y-121281080D01*
X150715256Y-121280339D01*
X150703160Y-121279800D01*
X150687408Y-121279454D01*
X150668684Y-121279290D01*
X150647671Y-121279296D01*
X150625050Y-121279464D01*
X150601506Y-121279781D01*
X150577720Y-121280238D01*
X150554376Y-121280824D01*
X150532156Y-121281528D01*
X150511743Y-121282340D01*
X150493820Y-121283249D01*
X150479070Y-121284245D01*
X150468175Y-121285316D01*
X150463273Y-121286093D01*
X150428186Y-121295095D01*
X150397246Y-121306721D01*
X150369241Y-121321641D01*
X150342955Y-121340523D01*
X150317175Y-121364036D01*
X150311850Y-121369480D01*
X150286667Y-121398881D01*
X150262512Y-121433477D01*
X150239605Y-121472812D01*
X150218164Y-121516430D01*
X150198408Y-121563877D01*
X150180557Y-121614697D01*
X150164829Y-121668434D01*
X150161061Y-121683045D01*
X150153746Y-121713889D01*
X150146098Y-121749201D01*
X150138335Y-121787768D01*
X150130675Y-121828376D01*
X150123337Y-121869811D01*
X150116539Y-121910861D01*
X150110500Y-121950311D01*
X150105436Y-121986949D01*
X150103306Y-122004112D01*
X150098642Y-122053827D01*
X150096448Y-122102696D01*
X149839534Y-122102696D01*
X149844419Y-122037679D01*
X149849805Y-121989842D01*
X149858559Y-121926957D01*
X149868864Y-121864010D01*
X149880541Y-121801778D01*
X149893411Y-121741039D01*
X149907295Y-121682569D01*
X149922016Y-121627146D01*
X149937394Y-121575546D01*
X149953251Y-121528546D01*
X149960002Y-121510389D01*
X149982699Y-121455643D01*
X150006909Y-121406038D01*
X150032894Y-121361143D01*
X150060916Y-121320530D01*
X150091238Y-121283770D01*
X150111949Y-121262089D01*
X150147740Y-121229834D01*
X150185488Y-121202096D01*
X150225823Y-121178536D01*
X150269376Y-121158815D01*
X150316778Y-121142593D01*
X150350461Y-121133642D01*
X150411441Y-121121685D01*
X150475572Y-121114123D01*
X150542368Y-121110954D01*
X150611343Y-121112173D01*
X150611343Y-121112173D01*
G37*
X150611343Y-121112173D02*
X150682011Y-121117779D01*
X150753885Y-121127766D01*
X150801382Y-121136682D01*
X150826837Y-121142279D01*
X150852505Y-121148526D01*
X150877782Y-121155225D01*
X150902064Y-121162177D01*
X150924750Y-121169184D01*
X150945234Y-121176047D01*
X150962915Y-121182567D01*
X150977188Y-121188546D01*
X150987451Y-121193786D01*
X150993099Y-121198087D01*
X150994023Y-121200081D01*
X150993536Y-121203499D01*
X150992111Y-121212235D01*
X150989802Y-121225983D01*
X150986660Y-121244442D01*
X150982741Y-121267305D01*
X150978097Y-121294270D01*
X150972780Y-121325033D01*
X150966846Y-121359290D01*
X150960346Y-121396736D01*
X150953334Y-121437068D01*
X150945863Y-121479982D01*
X150937987Y-121525174D01*
X150929758Y-121572340D01*
X150921231Y-121621177D01*
X150912457Y-121671380D01*
X150903492Y-121722645D01*
X150894387Y-121774668D01*
X150885196Y-121827146D01*
X150875972Y-121879775D01*
X150866769Y-121932250D01*
X150857640Y-121984268D01*
X150848637Y-122035525D01*
X150839815Y-122085717D01*
X150831227Y-122134540D01*
X150822925Y-122181690D01*
X150814963Y-122226863D01*
X150807395Y-122269756D01*
X150800273Y-122310063D01*
X150793651Y-122347483D01*
X150787582Y-122381709D01*
X150782119Y-122412440D01*
X150777316Y-122439370D01*
X150773226Y-122462195D01*
X150769902Y-122480613D01*
X150767397Y-122494319D01*
X150765764Y-122503008D01*
X150765375Y-122504977D01*
X150750970Y-122569946D01*
X150734930Y-122632006D01*
X150717410Y-122690722D01*
X150698560Y-122745660D01*
X150678535Y-122796386D01*
X150657487Y-122842464D01*
X150635569Y-122883461D01*
X150627679Y-122896595D01*
X150596411Y-122942499D01*
X150562288Y-122984126D01*
X150525596Y-123021188D01*
X150486624Y-123053397D01*
X150445660Y-123080464D01*
X150441820Y-123082675D01*
X150410174Y-123098664D01*
X150373928Y-123113437D01*
X150334117Y-123126698D01*
X150291776Y-123138152D01*
X150247938Y-123147503D01*
X150203638Y-123154455D01*
X150182510Y-123156853D01*
X150161263Y-123158560D01*
X150136707Y-123159889D01*
X150110329Y-123160814D01*
X150083615Y-123161308D01*
X150058050Y-123161344D01*
X150035122Y-123160895D01*
X150016316Y-123159934D01*
X150015512Y-123159872D01*
X149938839Y-123151108D01*
X149861212Y-123136763D01*
X149831045Y-123129748D01*
X149814287Y-123125460D01*
X149797612Y-123120890D01*
X149782097Y-123116365D01*
X149768821Y-123112210D01*
X149758860Y-123108750D01*
X149753293Y-123106312D01*
X149753109Y-123106196D01*
X149751958Y-123104332D01*
X149751567Y-123100254D01*
X149752003Y-123093284D01*
X149753336Y-123082743D01*
X149755634Y-123067955D01*
X149758942Y-123048380D01*
X149768508Y-122993000D01*
X149951035Y-122991419D01*
X149988914Y-122991074D01*
X150021550Y-122990734D01*
X150049407Y-122990384D01*
X150072951Y-122990010D01*
X150092645Y-122989598D01*
X150108955Y-122989132D01*
X150122345Y-122988598D01*
X150133280Y-122987982D01*
X150142224Y-122987269D01*
X150149642Y-122986445D01*
X150155999Y-122985495D01*
X150159247Y-122984907D01*
X150196448Y-122976777D01*
X150228941Y-122967465D01*
X150257664Y-122956626D01*
X150283556Y-122943913D01*
X150303710Y-122931594D01*
X150317129Y-122921416D01*
X150332624Y-122907726D01*
X150349039Y-122891715D01*
X150365218Y-122874576D01*
X150380002Y-122857500D01*
X150392238Y-122841680D01*
X150395420Y-122837085D01*
X150411533Y-122810628D01*
X150427673Y-122779677D01*
X150443320Y-122745422D01*
X150457955Y-122709050D01*
X150471057Y-122671750D01*
X150478936Y-122646080D01*
X150482337Y-122633606D01*
X150486192Y-122618400D01*
X150490263Y-122601521D01*
X150494315Y-122584029D01*
X150498109Y-122566985D01*
X150501408Y-122551450D01*
X150503977Y-122538483D01*
X150505577Y-122529145D01*
X150506000Y-122525007D01*
X150504304Y-122523844D01*
X150498898Y-122524862D01*
X150489302Y-122528194D01*
X150476747Y-122533259D01*
X150433426Y-122550106D01*
X150390202Y-122564483D01*
X150348315Y-122576027D01*
X150309001Y-122584376D01*
X150293382Y-122586867D01*
X150279180Y-122588324D01*
X150260714Y-122589395D01*
X150239319Y-122590080D01*
X150216327Y-122590378D01*
X150193074Y-122590289D01*
X150170891Y-122589812D01*
X150151113Y-122588945D01*
X150135075Y-122587689D01*
X150129247Y-122586969D01*
X150104748Y-122582711D01*
X150079000Y-122577038D01*
X150054049Y-122570462D01*
X150031938Y-122563494D01*
X150024388Y-122560728D01*
X149994248Y-122546239D01*
X149965440Y-122526844D01*
X149938770Y-122503321D01*
X149915041Y-122476448D01*
X149895059Y-122447001D01*
X149883334Y-122424402D01*
X149867082Y-122382405D01*
X149854393Y-122335963D01*
X149845266Y-122285095D01*
X149839704Y-122229815D01*
X149837708Y-122170141D01*
X149839279Y-122106090D01*
X149839534Y-122102696D01*
X150096448Y-122102696D01*
X150096695Y-122149856D01*
X150099354Y-122194444D01*
X150104398Y-122235594D01*
X150111796Y-122272444D01*
X150112277Y-122274355D01*
X150123204Y-122307702D01*
X150137902Y-122336776D01*
X150156374Y-122361578D01*
X150178625Y-122382110D01*
X150204657Y-122398374D01*
X150234474Y-122410373D01*
X150268081Y-122418107D01*
X150305480Y-122421580D01*
X150346677Y-122420793D01*
X150378947Y-122417556D01*
X150397250Y-122414529D01*
X150417107Y-122410159D01*
X150437717Y-122404733D01*
X150458277Y-122398535D01*
X150477987Y-122391854D01*
X150496045Y-122384974D01*
X150511649Y-122378182D01*
X150523998Y-122371764D01*
X150532291Y-122366007D01*
X150535623Y-122361626D01*
X150536280Y-122358288D01*
X150537862Y-122349674D01*
X150540311Y-122336116D01*
X150543567Y-122317949D01*
X150547573Y-122295504D01*
X150552268Y-122269116D01*
X150557595Y-122239118D01*
X150563495Y-122205842D01*
X150569910Y-122169623D01*
X150576779Y-122130793D01*
X150584046Y-122089686D01*
X150591650Y-122046635D01*
X150599534Y-122001973D01*
X150607639Y-121956033D01*
X150615906Y-121909149D01*
X150624276Y-121861654D01*
X150632691Y-121813881D01*
X150641092Y-121766164D01*
X150649420Y-121718836D01*
X150657617Y-121672229D01*
X150665624Y-121626678D01*
X150673382Y-121582515D01*
X150680832Y-121540074D01*
X150687916Y-121499688D01*
X150694576Y-121461690D01*
X150700751Y-121426414D01*
X150706385Y-121394192D01*
X150711418Y-121365358D01*
X150715791Y-121340246D01*
X150719446Y-121319188D01*
X150722323Y-121302518D01*
X150724366Y-121290569D01*
X150725513Y-121283675D01*
X150725753Y-121282034D01*
X150723015Y-121281080D01*
X150715256Y-121280339D01*
X150703160Y-121279800D01*
X150687408Y-121279454D01*
X150668684Y-121279290D01*
X150647671Y-121279296D01*
X150625050Y-121279464D01*
X150601506Y-121279781D01*
X150577720Y-121280238D01*
X150554376Y-121280824D01*
X150532156Y-121281528D01*
X150511743Y-121282340D01*
X150493820Y-121283249D01*
X150479070Y-121284245D01*
X150468175Y-121285316D01*
X150463273Y-121286093D01*
X150428186Y-121295095D01*
X150397246Y-121306721D01*
X150369241Y-121321641D01*
X150342955Y-121340523D01*
X150317175Y-121364036D01*
X150311850Y-121369480D01*
X150286667Y-121398881D01*
X150262512Y-121433477D01*
X150239605Y-121472812D01*
X150218164Y-121516430D01*
X150198408Y-121563877D01*
X150180557Y-121614697D01*
X150164829Y-121668434D01*
X150161061Y-121683045D01*
X150153746Y-121713889D01*
X150146098Y-121749201D01*
X150138335Y-121787768D01*
X150130675Y-121828376D01*
X150123337Y-121869811D01*
X150116539Y-121910861D01*
X150110500Y-121950311D01*
X150105436Y-121986949D01*
X150103306Y-122004112D01*
X150098642Y-122053827D01*
X150096448Y-122102696D01*
X149839534Y-122102696D01*
X149844419Y-122037679D01*
X149849805Y-121989842D01*
X149858559Y-121926957D01*
X149868864Y-121864010D01*
X149880541Y-121801778D01*
X149893411Y-121741039D01*
X149907295Y-121682569D01*
X149922016Y-121627146D01*
X149937394Y-121575546D01*
X149953251Y-121528546D01*
X149960002Y-121510389D01*
X149982699Y-121455643D01*
X150006909Y-121406038D01*
X150032894Y-121361143D01*
X150060916Y-121320530D01*
X150091238Y-121283770D01*
X150111949Y-121262089D01*
X150147740Y-121229834D01*
X150185488Y-121202096D01*
X150225823Y-121178536D01*
X150269376Y-121158815D01*
X150316778Y-121142593D01*
X150350461Y-121133642D01*
X150411441Y-121121685D01*
X150475572Y-121114123D01*
X150542368Y-121110954D01*
X150611343Y-121112173D01*
G36*
X153098868Y-120831859D02*
X153098157Y-120835611D01*
X153096589Y-120844303D01*
X153094267Y-120857336D01*
X153091296Y-120874108D01*
X153087783Y-120894021D01*
X153083832Y-120916473D01*
X153079548Y-120940864D01*
X153075036Y-120966595D01*
X153070400Y-120993064D01*
X153065747Y-121019673D01*
X153061180Y-121045821D01*
X153056805Y-121070907D01*
X153052727Y-121094331D01*
X153049051Y-121115494D01*
X153045882Y-121133794D01*
X153043325Y-121148633D01*
X153041484Y-121159409D01*
X153040465Y-121165523D01*
X153040292Y-121166703D01*
X153043070Y-121166907D01*
X153051098Y-121167121D01*
X153063920Y-121167340D01*
X153081077Y-121167559D01*
X153102113Y-121167774D01*
X153126570Y-121167981D01*
X153153990Y-121168176D01*
X153183917Y-121168353D01*
X153215894Y-121168509D01*
X153239493Y-121168604D01*
X153438694Y-121169337D01*
X153427457Y-121232590D01*
X153416219Y-121295843D01*
X153405913Y-121298640D01*
X153398615Y-121300624D01*
X153387646Y-121303612D01*
X153374842Y-121307102D01*
X153368253Y-121308899D01*
X153309595Y-121323118D01*
X153248363Y-121334627D01*
X153186274Y-121343193D01*
X153125044Y-121348581D01*
X153066388Y-121350556D01*
X153063432Y-121350561D01*
X153006499Y-121350561D01*
X153004889Y-121358410D01*
X153004097Y-121362716D01*
X153002405Y-121372247D01*
X152999883Y-121386604D01*
X152996599Y-121405385D01*
X152992624Y-121428193D01*
X152988025Y-121454625D01*
X152982873Y-121484284D01*
X152977236Y-121516768D01*
X152971184Y-121551678D01*
X152964785Y-121588613D01*
X152958109Y-121627175D01*
X152951224Y-121666962D01*
X152944201Y-121707576D01*
X152937107Y-121748616D01*
X152930012Y-121789682D01*
X152922986Y-121830374D01*
X152916096Y-121870293D01*
X152909414Y-121909038D01*
X152903006Y-121946210D01*
X152896943Y-121981408D01*
X152891294Y-122014233D01*
X152886128Y-122044285D01*
X152881514Y-122071164D01*
X152877521Y-122094469D01*
X152874218Y-122113802D01*
X152871674Y-122128762D01*
X152869958Y-122138949D01*
X152869142Y-122143955D01*
X152864900Y-122182407D01*
X152863771Y-122220073D01*
X152865672Y-122256109D01*
X152870520Y-122289669D01*
X152878234Y-122319906D01*
X152888728Y-122345976D01*
X152888973Y-122346464D01*
X152897130Y-122359859D01*
X152908096Y-122374112D01*
X152920459Y-122387647D01*
X152932803Y-122398889D01*
X152941585Y-122405096D01*
X152947823Y-122408603D01*
X152953949Y-122411580D01*
X152960484Y-122414074D01*
X152967943Y-122416134D01*
X152976845Y-122417809D01*
X152987707Y-122419146D01*
X153001048Y-122420194D01*
X153017385Y-122421002D01*
X153037235Y-122421618D01*
X153061117Y-122422090D01*
X153089547Y-122422467D01*
X153123045Y-122422797D01*
X153131829Y-122422874D01*
X153273309Y-122424096D01*
X153265304Y-122470245D01*
X153261746Y-122490959D01*
X153258969Y-122506800D01*
X153256649Y-122518494D01*
X153254460Y-122526769D01*
X153252078Y-122532349D01*
X153249177Y-122535962D01*
X153245432Y-122538335D01*
X153240518Y-122540193D01*
X153234110Y-122542263D01*
X153232884Y-122542677D01*
X153204501Y-122551359D01*
X153171507Y-122559713D01*
X153134996Y-122567525D01*
X153096065Y-122574583D01*
X153055807Y-122580673D01*
X153015319Y-122585583D01*
X153008318Y-122586302D01*
X152973926Y-122589322D01*
X152943686Y-122591016D01*
X152916206Y-122591412D01*
X152890091Y-122590534D01*
X152868240Y-122588835D01*
X152823382Y-122582772D01*
X152783216Y-122573585D01*
X152747556Y-122561114D01*
X152716214Y-122545199D01*
X152689004Y-122525679D01*
X152665740Y-122502395D01*
X152646235Y-122475186D01*
X152630302Y-122443892D01*
X152617757Y-122408353D01*
X152608411Y-122368408D01*
X152607816Y-122365134D01*
X152605823Y-122349756D01*
X152604394Y-122330007D01*
X152603541Y-122307196D01*
X152603274Y-122282632D01*
X152603606Y-122257627D01*
X152604548Y-122233489D01*
X152606111Y-122211529D01*
X152606433Y-122208168D01*
X152607205Y-122200604D01*
X152608008Y-122193157D01*
X152608892Y-122185522D01*
X152609907Y-122177397D01*
X152611105Y-122168476D01*
X152612535Y-122158455D01*
X152614246Y-122147032D01*
X152616291Y-122133901D01*
X152618717Y-122118758D01*
X152621577Y-122101300D01*
X152624919Y-122081222D01*
X152628795Y-122058220D01*
X152633254Y-122031990D01*
X152638346Y-122002229D01*
X152644123Y-121968632D01*
X152650633Y-121930895D01*
X152657927Y-121888713D01*
X152666055Y-121841784D01*
X152675068Y-121789803D01*
X152683756Y-121739729D01*
X152691675Y-121694043D01*
X152699321Y-121649852D01*
X152706635Y-121607489D01*
X152713562Y-121567286D01*
X152720044Y-121529575D01*
X152726025Y-121494688D01*
X152731449Y-121462956D01*
X152736258Y-121434712D01*
X152740396Y-121410288D01*
X152743805Y-121390016D01*
X152746431Y-121374228D01*
X152748215Y-121363255D01*
X152749101Y-121357430D01*
X152749191Y-121356589D01*
X152749076Y-121354864D01*
X152748325Y-121353504D01*
X152746333Y-121352466D01*
X152742492Y-121351706D01*
X152736196Y-121351181D01*
X152726838Y-121350848D01*
X152713811Y-121350662D01*
X152696509Y-121350581D01*
X152674324Y-121350562D01*
X152665000Y-121350561D01*
X152639780Y-121350510D01*
X152619779Y-121350342D01*
X152604509Y-121350036D01*
X152593482Y-121349572D01*
X152586210Y-121348929D01*
X152582206Y-121348086D01*
X152580981Y-121347023D01*
X152580981Y-121346994D01*
X152581533Y-121343395D01*
X152583015Y-121334898D01*
X152585296Y-121322214D01*
X152588248Y-121306056D01*
X152591741Y-121287134D01*
X152595645Y-121266159D01*
X152597476Y-121256382D01*
X152613798Y-121169337D01*
X152699466Y-121168582D01*
X152785134Y-121167828D01*
X152814966Y-120996635D01*
X152844798Y-120825443D01*
X152972566Y-120825440D01*
X153100334Y-120825438D01*
X153098868Y-120831859D01*
X153098868Y-120831859D01*
G37*
X153098868Y-120831859D02*
X153098157Y-120835611D01*
X153096589Y-120844303D01*
X153094267Y-120857336D01*
X153091296Y-120874108D01*
X153087783Y-120894021D01*
X153083832Y-120916473D01*
X153079548Y-120940864D01*
X153075036Y-120966595D01*
X153070400Y-120993064D01*
X153065747Y-121019673D01*
X153061180Y-121045821D01*
X153056805Y-121070907D01*
X153052727Y-121094331D01*
X153049051Y-121115494D01*
X153045882Y-121133794D01*
X153043325Y-121148633D01*
X153041484Y-121159409D01*
X153040465Y-121165523D01*
X153040292Y-121166703D01*
X153043070Y-121166907D01*
X153051098Y-121167121D01*
X153063920Y-121167340D01*
X153081077Y-121167559D01*
X153102113Y-121167774D01*
X153126570Y-121167981D01*
X153153990Y-121168176D01*
X153183917Y-121168353D01*
X153215894Y-121168509D01*
X153239493Y-121168604D01*
X153438694Y-121169337D01*
X153427457Y-121232590D01*
X153416219Y-121295843D01*
X153405913Y-121298640D01*
X153398615Y-121300624D01*
X153387646Y-121303612D01*
X153374842Y-121307102D01*
X153368253Y-121308899D01*
X153309595Y-121323118D01*
X153248363Y-121334627D01*
X153186274Y-121343193D01*
X153125044Y-121348581D01*
X153066388Y-121350556D01*
X153063432Y-121350561D01*
X153006499Y-121350561D01*
X153004889Y-121358410D01*
X153004097Y-121362716D01*
X153002405Y-121372247D01*
X152999883Y-121386604D01*
X152996599Y-121405385D01*
X152992624Y-121428193D01*
X152988025Y-121454625D01*
X152982873Y-121484284D01*
X152977236Y-121516768D01*
X152971184Y-121551678D01*
X152964785Y-121588613D01*
X152958109Y-121627175D01*
X152951224Y-121666962D01*
X152944201Y-121707576D01*
X152937107Y-121748616D01*
X152930012Y-121789682D01*
X152922986Y-121830374D01*
X152916096Y-121870293D01*
X152909414Y-121909038D01*
X152903006Y-121946210D01*
X152896943Y-121981408D01*
X152891294Y-122014233D01*
X152886128Y-122044285D01*
X152881514Y-122071164D01*
X152877521Y-122094469D01*
X152874218Y-122113802D01*
X152871674Y-122128762D01*
X152869958Y-122138949D01*
X152869142Y-122143955D01*
X152864900Y-122182407D01*
X152863771Y-122220073D01*
X152865672Y-122256109D01*
X152870520Y-122289669D01*
X152878234Y-122319906D01*
X152888728Y-122345976D01*
X152888973Y-122346464D01*
X152897130Y-122359859D01*
X152908096Y-122374112D01*
X152920459Y-122387647D01*
X152932803Y-122398889D01*
X152941585Y-122405096D01*
X152947823Y-122408603D01*
X152953949Y-122411580D01*
X152960484Y-122414074D01*
X152967943Y-122416134D01*
X152976845Y-122417809D01*
X152987707Y-122419146D01*
X153001048Y-122420194D01*
X153017385Y-122421002D01*
X153037235Y-122421618D01*
X153061117Y-122422090D01*
X153089547Y-122422467D01*
X153123045Y-122422797D01*
X153131829Y-122422874D01*
X153273309Y-122424096D01*
X153265304Y-122470245D01*
X153261746Y-122490959D01*
X153258969Y-122506800D01*
X153256649Y-122518494D01*
X153254460Y-122526769D01*
X153252078Y-122532349D01*
X153249177Y-122535962D01*
X153245432Y-122538335D01*
X153240518Y-122540193D01*
X153234110Y-122542263D01*
X153232884Y-122542677D01*
X153204501Y-122551359D01*
X153171507Y-122559713D01*
X153134996Y-122567525D01*
X153096065Y-122574583D01*
X153055807Y-122580673D01*
X153015319Y-122585583D01*
X153008318Y-122586302D01*
X152973926Y-122589322D01*
X152943686Y-122591016D01*
X152916206Y-122591412D01*
X152890091Y-122590534D01*
X152868240Y-122588835D01*
X152823382Y-122582772D01*
X152783216Y-122573585D01*
X152747556Y-122561114D01*
X152716214Y-122545199D01*
X152689004Y-122525679D01*
X152665740Y-122502395D01*
X152646235Y-122475186D01*
X152630302Y-122443892D01*
X152617757Y-122408353D01*
X152608411Y-122368408D01*
X152607816Y-122365134D01*
X152605823Y-122349756D01*
X152604394Y-122330007D01*
X152603541Y-122307196D01*
X152603274Y-122282632D01*
X152603606Y-122257627D01*
X152604548Y-122233489D01*
X152606111Y-122211529D01*
X152606433Y-122208168D01*
X152607205Y-122200604D01*
X152608008Y-122193157D01*
X152608892Y-122185522D01*
X152609907Y-122177397D01*
X152611105Y-122168476D01*
X152612535Y-122158455D01*
X152614246Y-122147032D01*
X152616291Y-122133901D01*
X152618717Y-122118758D01*
X152621577Y-122101300D01*
X152624919Y-122081222D01*
X152628795Y-122058220D01*
X152633254Y-122031990D01*
X152638346Y-122002229D01*
X152644123Y-121968632D01*
X152650633Y-121930895D01*
X152657927Y-121888713D01*
X152666055Y-121841784D01*
X152675068Y-121789803D01*
X152683756Y-121739729D01*
X152691675Y-121694043D01*
X152699321Y-121649852D01*
X152706635Y-121607489D01*
X152713562Y-121567286D01*
X152720044Y-121529575D01*
X152726025Y-121494688D01*
X152731449Y-121462956D01*
X152736258Y-121434712D01*
X152740396Y-121410288D01*
X152743805Y-121390016D01*
X152746431Y-121374228D01*
X152748215Y-121363255D01*
X152749101Y-121357430D01*
X152749191Y-121356589D01*
X152749076Y-121354864D01*
X152748325Y-121353504D01*
X152746333Y-121352466D01*
X152742492Y-121351706D01*
X152736196Y-121351181D01*
X152726838Y-121350848D01*
X152713811Y-121350662D01*
X152696509Y-121350581D01*
X152674324Y-121350562D01*
X152665000Y-121350561D01*
X152639780Y-121350510D01*
X152619779Y-121350342D01*
X152604509Y-121350036D01*
X152593482Y-121349572D01*
X152586210Y-121348929D01*
X152582206Y-121348086D01*
X152580981Y-121347023D01*
X152580981Y-121346994D01*
X152581533Y-121343395D01*
X152583015Y-121334898D01*
X152585296Y-121322214D01*
X152588248Y-121306056D01*
X152591741Y-121287134D01*
X152595645Y-121266159D01*
X152597476Y-121256382D01*
X152613798Y-121169337D01*
X152699466Y-121168582D01*
X152785134Y-121167828D01*
X152814966Y-120996635D01*
X152844798Y-120825443D01*
X152972566Y-120825440D01*
X153100334Y-120825438D01*
X153098868Y-120831859D01*
G36*
X154336971Y-120541549D02*
X154390019Y-120543652D01*
X154443322Y-120547410D01*
X154495914Y-120552738D01*
X154546832Y-120559553D01*
X154595111Y-120567771D01*
X154639786Y-120577308D01*
X154679893Y-120588081D01*
X154682168Y-120588776D01*
X154695047Y-120592911D01*
X154703233Y-120596061D01*
X154707565Y-120598650D01*
X154708880Y-120601103D01*
X154708719Y-120602248D01*
X154707908Y-120606075D01*
X154706319Y-120614416D01*
X154704133Y-120626249D01*
X154701532Y-120640553D01*
X154698699Y-120656306D01*
X154695816Y-120672487D01*
X154693064Y-120688074D01*
X154690626Y-120702047D01*
X154688684Y-120713383D01*
X154687419Y-120721063D01*
X154687011Y-120724016D01*
X154684230Y-120724229D01*
X154676174Y-120724455D01*
X154663276Y-120724690D01*
X154645971Y-120724928D01*
X154624691Y-120725167D01*
X154599870Y-120725401D01*
X154571941Y-120725626D01*
X154541337Y-120725837D01*
X154508492Y-120726032D01*
X154473840Y-120726204D01*
X154465118Y-120726243D01*
X154422242Y-120726431D01*
X154384631Y-120726621D01*
X154351842Y-120726844D01*
X154323430Y-120727128D01*
X154298954Y-120727502D01*
X154277970Y-120727995D01*
X154260035Y-120728636D01*
X154244705Y-120729454D01*
X154231538Y-120730479D01*
X154220091Y-120731739D01*
X154209919Y-120733264D01*
X154200581Y-120735082D01*
X154191633Y-120737222D01*
X154182631Y-120739714D01*
X154173133Y-120742587D01*
X154162696Y-120745869D01*
X154161888Y-120746125D01*
X154123580Y-120760214D01*
X154089570Y-120777070D01*
X154058880Y-120797281D01*
X154030534Y-120821431D01*
X154021711Y-120830177D01*
X153993766Y-120862872D01*
X153969634Y-120899563D01*
X153949460Y-120939873D01*
X153933391Y-120983423D01*
X153921571Y-121029836D01*
X153914147Y-121078733D01*
X153911587Y-121115783D01*
X153911304Y-121149546D01*
X153913245Y-121179047D01*
X153917736Y-121205405D01*
X153925104Y-121229741D01*
X153935675Y-121253177D01*
X153949777Y-121276832D01*
X153964643Y-121297764D01*
X153978773Y-121315520D01*
X153993806Y-121332301D01*
X154010176Y-121348405D01*
X154028318Y-121364128D01*
X154048665Y-121379765D01*
X154071652Y-121395612D01*
X154097712Y-121411967D01*
X154127279Y-121429125D01*
X154160788Y-121447383D01*
X154198671Y-121467036D01*
X154241364Y-121488381D01*
X154250360Y-121492802D01*
X154281880Y-121508646D01*
X154309182Y-121523318D01*
X154333428Y-121537555D01*
X154355781Y-121552091D01*
X154377402Y-121567660D01*
X154399455Y-121584998D01*
X154410180Y-121593867D01*
X154439547Y-121620005D01*
X154464485Y-121645763D01*
X154486024Y-121672414D01*
X154505198Y-121701232D01*
X154522529Y-121732491D01*
X154537269Y-121763847D01*
X154548487Y-121793922D01*
X154556508Y-121824127D01*
X154561652Y-121855875D01*
X154564245Y-121890577D01*
X154564713Y-121917067D01*
X154562506Y-121972995D01*
X154555888Y-122029387D01*
X154548844Y-122068533D01*
X154534567Y-122130803D01*
X154518052Y-122188005D01*
X154499127Y-122240394D01*
X154477621Y-122288221D01*
X154453362Y-122331740D01*
X154426178Y-122371205D01*
X154395898Y-122406868D01*
X154362349Y-122438983D01*
X154325360Y-122467802D01*
X154284759Y-122493580D01*
X154247133Y-122513360D01*
X154208482Y-122530635D01*
X154169286Y-122545320D01*
X154128604Y-122557661D01*
X154085494Y-122567901D01*
X154039013Y-122576283D01*
X153988219Y-122583053D01*
X153970674Y-122584941D01*
X153956972Y-122586059D01*
X153938816Y-122587122D01*
X153917200Y-122588108D01*
X153893118Y-122588994D01*
X153867563Y-122589757D01*
X153841528Y-122590374D01*
X153816007Y-122590823D01*
X153791994Y-122591080D01*
X153770481Y-122591122D01*
X153752463Y-122590927D01*
X153738933Y-122590472D01*
X153736652Y-122590334D01*
X153697909Y-122587565D01*
X153663736Y-122584759D01*
X153632994Y-122581779D01*
X153604548Y-122578490D01*
X153577260Y-122574756D01*
X153549991Y-122570442D01*
X153521606Y-122565412D01*
X153511191Y-122563457D01*
X153493882Y-122559976D01*
X153475748Y-122556003D01*
X153457726Y-122551778D01*
X153440750Y-122547539D01*
X153425753Y-122543529D01*
X153413671Y-122539985D01*
X153405437Y-122537148D01*
X153402141Y-122535452D01*
X153402129Y-122532320D01*
X153402980Y-122524553D01*
X153404536Y-122513133D01*
X153406640Y-122499041D01*
X153409134Y-122483258D01*
X153411860Y-122466765D01*
X153414662Y-122450545D01*
X153417381Y-122435578D01*
X153419861Y-122422845D01*
X153421295Y-122416118D01*
X153422665Y-122410022D01*
X153647439Y-122408497D01*
X153692237Y-122408178D01*
X153731792Y-122407848D01*
X153766569Y-122407483D01*
X153797033Y-122407060D01*
X153823649Y-122406552D01*
X153846883Y-122405937D01*
X153867198Y-122405190D01*
X153885061Y-122404285D01*
X153900935Y-122403199D01*
X153915287Y-122401908D01*
X153928581Y-122400386D01*
X153941281Y-122398609D01*
X153953854Y-122396553D01*
X153966764Y-122394194D01*
X153980475Y-122391506D01*
X153983997Y-122390797D01*
X154030310Y-122379598D01*
X154071879Y-122365605D01*
X154109019Y-122348670D01*
X154142043Y-122328643D01*
X154171266Y-122305373D01*
X154179206Y-122297869D01*
X154205562Y-122269166D01*
X154228595Y-122237923D01*
X154248550Y-122203630D01*
X154265674Y-122165775D01*
X154280213Y-122123849D01*
X154292411Y-122077340D01*
X154297905Y-122051202D01*
X154300412Y-122034285D01*
X154302124Y-122014303D01*
X154303042Y-121992633D01*
X154303168Y-121970650D01*
X154302500Y-121949732D01*
X154301040Y-121931254D01*
X154298788Y-121916593D01*
X154297859Y-121912786D01*
X154289856Y-121889384D01*
X154278863Y-121866803D01*
X154264284Y-121844053D01*
X154245524Y-121820143D01*
X154234771Y-121807866D01*
X154217688Y-121790801D01*
X154196334Y-121772809D01*
X154170540Y-121753780D01*
X154140132Y-121733604D01*
X154104938Y-121712172D01*
X154064787Y-121689374D01*
X154019506Y-121665101D01*
X153974955Y-121642270D01*
X153942955Y-121625892D01*
X153915292Y-121611077D01*
X153891013Y-121597250D01*
X153869162Y-121583837D01*
X153848783Y-121570266D01*
X153828923Y-121555963D01*
X153820080Y-121549274D01*
X153781719Y-121516722D01*
X153748298Y-121481555D01*
X153719479Y-121443321D01*
X153694922Y-121401570D01*
X153674451Y-121356269D01*
X153662811Y-121320080D01*
X153654658Y-121279815D01*
X153649988Y-121235918D01*
X153648798Y-121188832D01*
X153651087Y-121138998D01*
X153656850Y-121086859D01*
X153666086Y-121032858D01*
X153676805Y-120985258D01*
X153693905Y-120925991D01*
X153714499Y-120871192D01*
X153738655Y-120820763D01*
X153766443Y-120774606D01*
X153797932Y-120732622D01*
X153833191Y-120694714D01*
X153872289Y-120660783D01*
X153915296Y-120630731D01*
X153934296Y-120619382D01*
X153969336Y-120601685D01*
X154008905Y-120585774D01*
X154052029Y-120571932D01*
X154097731Y-120560439D01*
X154145037Y-120551575D01*
X154189000Y-120545998D01*
X154235497Y-120542638D01*
X154285142Y-120541183D01*
X154336971Y-120541549D01*
X154336971Y-120541549D01*
G37*
X154336971Y-120541549D02*
X154390019Y-120543652D01*
X154443322Y-120547410D01*
X154495914Y-120552738D01*
X154546832Y-120559553D01*
X154595111Y-120567771D01*
X154639786Y-120577308D01*
X154679893Y-120588081D01*
X154682168Y-120588776D01*
X154695047Y-120592911D01*
X154703233Y-120596061D01*
X154707565Y-120598650D01*
X154708880Y-120601103D01*
X154708719Y-120602248D01*
X154707908Y-120606075D01*
X154706319Y-120614416D01*
X154704133Y-120626249D01*
X154701532Y-120640553D01*
X154698699Y-120656306D01*
X154695816Y-120672487D01*
X154693064Y-120688074D01*
X154690626Y-120702047D01*
X154688684Y-120713383D01*
X154687419Y-120721063D01*
X154687011Y-120724016D01*
X154684230Y-120724229D01*
X154676174Y-120724455D01*
X154663276Y-120724690D01*
X154645971Y-120724928D01*
X154624691Y-120725167D01*
X154599870Y-120725401D01*
X154571941Y-120725626D01*
X154541337Y-120725837D01*
X154508492Y-120726032D01*
X154473840Y-120726204D01*
X154465118Y-120726243D01*
X154422242Y-120726431D01*
X154384631Y-120726621D01*
X154351842Y-120726844D01*
X154323430Y-120727128D01*
X154298954Y-120727502D01*
X154277970Y-120727995D01*
X154260035Y-120728636D01*
X154244705Y-120729454D01*
X154231538Y-120730479D01*
X154220091Y-120731739D01*
X154209919Y-120733264D01*
X154200581Y-120735082D01*
X154191633Y-120737222D01*
X154182631Y-120739714D01*
X154173133Y-120742587D01*
X154162696Y-120745869D01*
X154161888Y-120746125D01*
X154123580Y-120760214D01*
X154089570Y-120777070D01*
X154058880Y-120797281D01*
X154030534Y-120821431D01*
X154021711Y-120830177D01*
X153993766Y-120862872D01*
X153969634Y-120899563D01*
X153949460Y-120939873D01*
X153933391Y-120983423D01*
X153921571Y-121029836D01*
X153914147Y-121078733D01*
X153911587Y-121115783D01*
X153911304Y-121149546D01*
X153913245Y-121179047D01*
X153917736Y-121205405D01*
X153925104Y-121229741D01*
X153935675Y-121253177D01*
X153949777Y-121276832D01*
X153964643Y-121297764D01*
X153978773Y-121315520D01*
X153993806Y-121332301D01*
X154010176Y-121348405D01*
X154028318Y-121364128D01*
X154048665Y-121379765D01*
X154071652Y-121395612D01*
X154097712Y-121411967D01*
X154127279Y-121429125D01*
X154160788Y-121447383D01*
X154198671Y-121467036D01*
X154241364Y-121488381D01*
X154250360Y-121492802D01*
X154281880Y-121508646D01*
X154309182Y-121523318D01*
X154333428Y-121537555D01*
X154355781Y-121552091D01*
X154377402Y-121567660D01*
X154399455Y-121584998D01*
X154410180Y-121593867D01*
X154439547Y-121620005D01*
X154464485Y-121645763D01*
X154486024Y-121672414D01*
X154505198Y-121701232D01*
X154522529Y-121732491D01*
X154537269Y-121763847D01*
X154548487Y-121793922D01*
X154556508Y-121824127D01*
X154561652Y-121855875D01*
X154564245Y-121890577D01*
X154564713Y-121917067D01*
X154562506Y-121972995D01*
X154555888Y-122029387D01*
X154548844Y-122068533D01*
X154534567Y-122130803D01*
X154518052Y-122188005D01*
X154499127Y-122240394D01*
X154477621Y-122288221D01*
X154453362Y-122331740D01*
X154426178Y-122371205D01*
X154395898Y-122406868D01*
X154362349Y-122438983D01*
X154325360Y-122467802D01*
X154284759Y-122493580D01*
X154247133Y-122513360D01*
X154208482Y-122530635D01*
X154169286Y-122545320D01*
X154128604Y-122557661D01*
X154085494Y-122567901D01*
X154039013Y-122576283D01*
X153988219Y-122583053D01*
X153970674Y-122584941D01*
X153956972Y-122586059D01*
X153938816Y-122587122D01*
X153917200Y-122588108D01*
X153893118Y-122588994D01*
X153867563Y-122589757D01*
X153841528Y-122590374D01*
X153816007Y-122590823D01*
X153791994Y-122591080D01*
X153770481Y-122591122D01*
X153752463Y-122590927D01*
X153738933Y-122590472D01*
X153736652Y-122590334D01*
X153697909Y-122587565D01*
X153663736Y-122584759D01*
X153632994Y-122581779D01*
X153604548Y-122578490D01*
X153577260Y-122574756D01*
X153549991Y-122570442D01*
X153521606Y-122565412D01*
X153511191Y-122563457D01*
X153493882Y-122559976D01*
X153475748Y-122556003D01*
X153457726Y-122551778D01*
X153440750Y-122547539D01*
X153425753Y-122543529D01*
X153413671Y-122539985D01*
X153405437Y-122537148D01*
X153402141Y-122535452D01*
X153402129Y-122532320D01*
X153402980Y-122524553D01*
X153404536Y-122513133D01*
X153406640Y-122499041D01*
X153409134Y-122483258D01*
X153411860Y-122466765D01*
X153414662Y-122450545D01*
X153417381Y-122435578D01*
X153419861Y-122422845D01*
X153421295Y-122416118D01*
X153422665Y-122410022D01*
X153647439Y-122408497D01*
X153692237Y-122408178D01*
X153731792Y-122407848D01*
X153766569Y-122407483D01*
X153797033Y-122407060D01*
X153823649Y-122406552D01*
X153846883Y-122405937D01*
X153867198Y-122405190D01*
X153885061Y-122404285D01*
X153900935Y-122403199D01*
X153915287Y-122401908D01*
X153928581Y-122400386D01*
X153941281Y-122398609D01*
X153953854Y-122396553D01*
X153966764Y-122394194D01*
X153980475Y-122391506D01*
X153983997Y-122390797D01*
X154030310Y-122379598D01*
X154071879Y-122365605D01*
X154109019Y-122348670D01*
X154142043Y-122328643D01*
X154171266Y-122305373D01*
X154179206Y-122297869D01*
X154205562Y-122269166D01*
X154228595Y-122237923D01*
X154248550Y-122203630D01*
X154265674Y-122165775D01*
X154280213Y-122123849D01*
X154292411Y-122077340D01*
X154297905Y-122051202D01*
X154300412Y-122034285D01*
X154302124Y-122014303D01*
X154303042Y-121992633D01*
X154303168Y-121970650D01*
X154302500Y-121949732D01*
X154301040Y-121931254D01*
X154298788Y-121916593D01*
X154297859Y-121912786D01*
X154289856Y-121889384D01*
X154278863Y-121866803D01*
X154264284Y-121844053D01*
X154245524Y-121820143D01*
X154234771Y-121807866D01*
X154217688Y-121790801D01*
X154196334Y-121772809D01*
X154170540Y-121753780D01*
X154140132Y-121733604D01*
X154104938Y-121712172D01*
X154064787Y-121689374D01*
X154019506Y-121665101D01*
X153974955Y-121642270D01*
X153942955Y-121625892D01*
X153915292Y-121611077D01*
X153891013Y-121597250D01*
X153869162Y-121583837D01*
X153848783Y-121570266D01*
X153828923Y-121555963D01*
X153820080Y-121549274D01*
X153781719Y-121516722D01*
X153748298Y-121481555D01*
X153719479Y-121443321D01*
X153694922Y-121401570D01*
X153674451Y-121356269D01*
X153662811Y-121320080D01*
X153654658Y-121279815D01*
X153649988Y-121235918D01*
X153648798Y-121188832D01*
X153651087Y-121138998D01*
X153656850Y-121086859D01*
X153666086Y-121032858D01*
X153676805Y-120985258D01*
X153693905Y-120925991D01*
X153714499Y-120871192D01*
X153738655Y-120820763D01*
X153766443Y-120774606D01*
X153797932Y-120732622D01*
X153833191Y-120694714D01*
X153872289Y-120660783D01*
X153915296Y-120630731D01*
X153934296Y-120619382D01*
X153969336Y-120601685D01*
X154008905Y-120585774D01*
X154052029Y-120571932D01*
X154097731Y-120560439D01*
X154145037Y-120551575D01*
X154189000Y-120545998D01*
X154235497Y-120542638D01*
X154285142Y-120541183D01*
X154336971Y-120541549D01*
G36*
X155353413Y-120831859D02*
X155352686Y-120835639D01*
X155351101Y-120844363D01*
X155348765Y-120857428D01*
X155345783Y-120874233D01*
X155342258Y-120894176D01*
X155338298Y-120916657D01*
X155334007Y-120941073D01*
X155329490Y-120966822D01*
X155324852Y-120993303D01*
X155320199Y-121019915D01*
X155315636Y-121046056D01*
X155311268Y-121071124D01*
X155307201Y-121094518D01*
X155303539Y-121115636D01*
X155300388Y-121133876D01*
X155297853Y-121148638D01*
X155296039Y-121159318D01*
X155295052Y-121165317D01*
X155294899Y-121166407D01*
X155297677Y-121166661D01*
X155305705Y-121166921D01*
X155318526Y-121167183D01*
X155335682Y-121167442D01*
X155356717Y-121167692D01*
X155381172Y-121167929D01*
X155408590Y-121168147D01*
X155438514Y-121168341D01*
X155470485Y-121168507D01*
X155493991Y-121168604D01*
X155693082Y-121169337D01*
X155681869Y-121232612D01*
X155670657Y-121295886D01*
X155660435Y-121298662D01*
X155653178Y-121300636D01*
X155642243Y-121303614D01*
X155629461Y-121307098D01*
X155622860Y-121308899D01*
X155564202Y-121323118D01*
X155502970Y-121334627D01*
X155440881Y-121343193D01*
X155379651Y-121348581D01*
X155320995Y-121350556D01*
X155318039Y-121350561D01*
X155261105Y-121350561D01*
X155259446Y-121358410D01*
X155258010Y-121365749D01*
X155255720Y-121378176D01*
X155252642Y-121395290D01*
X155248847Y-121416687D01*
X155244402Y-121441968D01*
X155239377Y-121470730D01*
X155233839Y-121502572D01*
X155227858Y-121537093D01*
X155221501Y-121573891D01*
X155214838Y-121612564D01*
X155207937Y-121652711D01*
X155200866Y-121693930D01*
X155193695Y-121735821D01*
X155186491Y-121777981D01*
X155179324Y-121820009D01*
X155172261Y-121861503D01*
X155165372Y-121902063D01*
X155158724Y-121941285D01*
X155152387Y-121978770D01*
X155146430Y-122014115D01*
X155140919Y-122046919D01*
X155135925Y-122076781D01*
X155131516Y-122103298D01*
X155127759Y-122126070D01*
X155124725Y-122144695D01*
X155122481Y-122158771D01*
X155121096Y-122167897D01*
X155120680Y-122171067D01*
X155118261Y-122211292D01*
X155119426Y-122249086D01*
X155124060Y-122284084D01*
X155132045Y-122315924D01*
X155143261Y-122344241D01*
X155157593Y-122368672D01*
X155174922Y-122388854D01*
X155195131Y-122404422D01*
X155196477Y-122405228D01*
X155202643Y-122408707D01*
X155208724Y-122411660D01*
X155215237Y-122414135D01*
X155222699Y-122416180D01*
X155231626Y-122417842D01*
X155242536Y-122419170D01*
X155255943Y-122420212D01*
X155272366Y-122421015D01*
X155292321Y-122421628D01*
X155316324Y-122422099D01*
X155344893Y-122422475D01*
X155378543Y-122422805D01*
X155386380Y-122422874D01*
X155527804Y-122424096D01*
X155518454Y-122477254D01*
X155515456Y-122494110D01*
X155512727Y-122509100D01*
X155510443Y-122521289D01*
X155508779Y-122529741D01*
X155507910Y-122533522D01*
X155507902Y-122533542D01*
X155504714Y-122535693D01*
X155496976Y-122538908D01*
X155485678Y-122542880D01*
X155471812Y-122547305D01*
X155456367Y-122551878D01*
X155440336Y-122556292D01*
X155424709Y-122560242D01*
X155411910Y-122563128D01*
X155356727Y-122573652D01*
X155303770Y-122581763D01*
X155253601Y-122587410D01*
X155206780Y-122590544D01*
X155163865Y-122591114D01*
X155125418Y-122589070D01*
X155124164Y-122588951D01*
X155079643Y-122582953D01*
X155039818Y-122573968D01*
X155004473Y-122561918D01*
X154973392Y-122546720D01*
X154946358Y-122528295D01*
X154935168Y-122518664D01*
X154921464Y-122504991D01*
X154910344Y-122491328D01*
X154900407Y-122475756D01*
X154891509Y-122458914D01*
X154878307Y-122427772D01*
X154868298Y-122393864D01*
X154861450Y-122356847D01*
X154857733Y-122316376D01*
X154857117Y-122272109D01*
X154859571Y-122223700D01*
X154865065Y-122170806D01*
X154865540Y-122167098D01*
X154866545Y-122160292D01*
X154868470Y-122148222D01*
X154871253Y-122131248D01*
X154874834Y-122109727D01*
X154879150Y-122084019D01*
X154884142Y-122054483D01*
X154889748Y-122021478D01*
X154895907Y-121985364D01*
X154902558Y-121946498D01*
X154909640Y-121905240D01*
X154917092Y-121861949D01*
X154924853Y-121816984D01*
X154932862Y-121770704D01*
X154936816Y-121747898D01*
X154944829Y-121701675D01*
X154952568Y-121656951D01*
X154959978Y-121614053D01*
X154967002Y-121573308D01*
X154973584Y-121535046D01*
X154979669Y-121499592D01*
X154985201Y-121467275D01*
X154990122Y-121438422D01*
X154994379Y-121413360D01*
X154997913Y-121392417D01*
X155000670Y-121375921D01*
X155002594Y-121364199D01*
X155003628Y-121357579D01*
X155003798Y-121356196D01*
X155003616Y-121354586D01*
X155002668Y-121353315D01*
X155000348Y-121352345D01*
X154996052Y-121351634D01*
X154989174Y-121351142D01*
X154979111Y-121350830D01*
X154965257Y-121350655D01*
X154947007Y-121350579D01*
X154923757Y-121350562D01*
X154919274Y-121350561D01*
X154834751Y-121350561D01*
X154836256Y-121342713D01*
X154837140Y-121337969D01*
X154838905Y-121328389D01*
X154841409Y-121314750D01*
X154844509Y-121297831D01*
X154848062Y-121278411D01*
X154851925Y-121257268D01*
X154852998Y-121251388D01*
X154868236Y-121167911D01*
X154953899Y-121167910D01*
X155039562Y-121167910D01*
X155069438Y-120996674D01*
X155099315Y-120825438D01*
X155354940Y-120825438D01*
X155353413Y-120831859D01*
X155353413Y-120831859D01*
G37*
X155353413Y-120831859D02*
X155352686Y-120835639D01*
X155351101Y-120844363D01*
X155348765Y-120857428D01*
X155345783Y-120874233D01*
X155342258Y-120894176D01*
X155338298Y-120916657D01*
X155334007Y-120941073D01*
X155329490Y-120966822D01*
X155324852Y-120993303D01*
X155320199Y-121019915D01*
X155315636Y-121046056D01*
X155311268Y-121071124D01*
X155307201Y-121094518D01*
X155303539Y-121115636D01*
X155300388Y-121133876D01*
X155297853Y-121148638D01*
X155296039Y-121159318D01*
X155295052Y-121165317D01*
X155294899Y-121166407D01*
X155297677Y-121166661D01*
X155305705Y-121166921D01*
X155318526Y-121167183D01*
X155335682Y-121167442D01*
X155356717Y-121167692D01*
X155381172Y-121167929D01*
X155408590Y-121168147D01*
X155438514Y-121168341D01*
X155470485Y-121168507D01*
X155493991Y-121168604D01*
X155693082Y-121169337D01*
X155681869Y-121232612D01*
X155670657Y-121295886D01*
X155660435Y-121298662D01*
X155653178Y-121300636D01*
X155642243Y-121303614D01*
X155629461Y-121307098D01*
X155622860Y-121308899D01*
X155564202Y-121323118D01*
X155502970Y-121334627D01*
X155440881Y-121343193D01*
X155379651Y-121348581D01*
X155320995Y-121350556D01*
X155318039Y-121350561D01*
X155261105Y-121350561D01*
X155259446Y-121358410D01*
X155258010Y-121365749D01*
X155255720Y-121378176D01*
X155252642Y-121395290D01*
X155248847Y-121416687D01*
X155244402Y-121441968D01*
X155239377Y-121470730D01*
X155233839Y-121502572D01*
X155227858Y-121537093D01*
X155221501Y-121573891D01*
X155214838Y-121612564D01*
X155207937Y-121652711D01*
X155200866Y-121693930D01*
X155193695Y-121735821D01*
X155186491Y-121777981D01*
X155179324Y-121820009D01*
X155172261Y-121861503D01*
X155165372Y-121902063D01*
X155158724Y-121941285D01*
X155152387Y-121978770D01*
X155146430Y-122014115D01*
X155140919Y-122046919D01*
X155135925Y-122076781D01*
X155131516Y-122103298D01*
X155127759Y-122126070D01*
X155124725Y-122144695D01*
X155122481Y-122158771D01*
X155121096Y-122167897D01*
X155120680Y-122171067D01*
X155118261Y-122211292D01*
X155119426Y-122249086D01*
X155124060Y-122284084D01*
X155132045Y-122315924D01*
X155143261Y-122344241D01*
X155157593Y-122368672D01*
X155174922Y-122388854D01*
X155195131Y-122404422D01*
X155196477Y-122405228D01*
X155202643Y-122408707D01*
X155208724Y-122411660D01*
X155215237Y-122414135D01*
X155222699Y-122416180D01*
X155231626Y-122417842D01*
X155242536Y-122419170D01*
X155255943Y-122420212D01*
X155272366Y-122421015D01*
X155292321Y-122421628D01*
X155316324Y-122422099D01*
X155344893Y-122422475D01*
X155378543Y-122422805D01*
X155386380Y-122422874D01*
X155527804Y-122424096D01*
X155518454Y-122477254D01*
X155515456Y-122494110D01*
X155512727Y-122509100D01*
X155510443Y-122521289D01*
X155508779Y-122529741D01*
X155507910Y-122533522D01*
X155507902Y-122533542D01*
X155504714Y-122535693D01*
X155496976Y-122538908D01*
X155485678Y-122542880D01*
X155471812Y-122547305D01*
X155456367Y-122551878D01*
X155440336Y-122556292D01*
X155424709Y-122560242D01*
X155411910Y-122563128D01*
X155356727Y-122573652D01*
X155303770Y-122581763D01*
X155253601Y-122587410D01*
X155206780Y-122590544D01*
X155163865Y-122591114D01*
X155125418Y-122589070D01*
X155124164Y-122588951D01*
X155079643Y-122582953D01*
X155039818Y-122573968D01*
X155004473Y-122561918D01*
X154973392Y-122546720D01*
X154946358Y-122528295D01*
X154935168Y-122518664D01*
X154921464Y-122504991D01*
X154910344Y-122491328D01*
X154900407Y-122475756D01*
X154891509Y-122458914D01*
X154878307Y-122427772D01*
X154868298Y-122393864D01*
X154861450Y-122356847D01*
X154857733Y-122316376D01*
X154857117Y-122272109D01*
X154859571Y-122223700D01*
X154865065Y-122170806D01*
X154865540Y-122167098D01*
X154866545Y-122160292D01*
X154868470Y-122148222D01*
X154871253Y-122131248D01*
X154874834Y-122109727D01*
X154879150Y-122084019D01*
X154884142Y-122054483D01*
X154889748Y-122021478D01*
X154895907Y-121985364D01*
X154902558Y-121946498D01*
X154909640Y-121905240D01*
X154917092Y-121861949D01*
X154924853Y-121816984D01*
X154932862Y-121770704D01*
X154936816Y-121747898D01*
X154944829Y-121701675D01*
X154952568Y-121656951D01*
X154959978Y-121614053D01*
X154967002Y-121573308D01*
X154973584Y-121535046D01*
X154979669Y-121499592D01*
X154985201Y-121467275D01*
X154990122Y-121438422D01*
X154994379Y-121413360D01*
X154997913Y-121392417D01*
X155000670Y-121375921D01*
X155002594Y-121364199D01*
X155003628Y-121357579D01*
X155003798Y-121356196D01*
X155003616Y-121354586D01*
X155002668Y-121353315D01*
X155000348Y-121352345D01*
X154996052Y-121351634D01*
X154989174Y-121351142D01*
X154979111Y-121350830D01*
X154965257Y-121350655D01*
X154947007Y-121350579D01*
X154923757Y-121350562D01*
X154919274Y-121350561D01*
X154834751Y-121350561D01*
X154836256Y-121342713D01*
X154837140Y-121337969D01*
X154838905Y-121328389D01*
X154841409Y-121314750D01*
X154844509Y-121297831D01*
X154848062Y-121278411D01*
X154851925Y-121257268D01*
X154852998Y-121251388D01*
X154868236Y-121167911D01*
X154953899Y-121167910D01*
X155039562Y-121167910D01*
X155069438Y-120996674D01*
X155099315Y-120825438D01*
X155354940Y-120825438D01*
X155353413Y-120831859D01*
G36*
X156503239Y-121112728D02*
X156532204Y-121113545D01*
X156558852Y-121114818D01*
X156582038Y-121116544D01*
X156592011Y-121117582D01*
X156636768Y-121123724D01*
X156682380Y-121131677D01*
X156727769Y-121141174D01*
X156771859Y-121151951D01*
X156813573Y-121163742D01*
X156851833Y-121176284D01*
X156885562Y-121189310D01*
X156888335Y-121190495D01*
X156896353Y-121194257D01*
X156900176Y-121197361D01*
X156900964Y-121201128D01*
X156900453Y-121204293D01*
X156899816Y-121207787D01*
X156898240Y-121216656D01*
X156895769Y-121230652D01*
X156892445Y-121249527D01*
X156888314Y-121273034D01*
X156883417Y-121300925D01*
X156877798Y-121332951D01*
X156871502Y-121368866D01*
X156864570Y-121408422D01*
X156857047Y-121451370D01*
X156848976Y-121497463D01*
X156840401Y-121546453D01*
X156831364Y-121598093D01*
X156821909Y-121652134D01*
X156812080Y-121708329D01*
X156801920Y-121766430D01*
X156791473Y-121826189D01*
X156781824Y-121881393D01*
X156771157Y-121942417D01*
X156760740Y-122001996D01*
X156750615Y-122059882D01*
X156740827Y-122115830D01*
X156731417Y-122169590D01*
X156722431Y-122220918D01*
X156713910Y-122269564D01*
X156705899Y-122315283D01*
X156698441Y-122357828D01*
X156691578Y-122396950D01*
X156685355Y-122432403D01*
X156679814Y-122463941D01*
X156675000Y-122491315D01*
X156670955Y-122514279D01*
X156667722Y-122532586D01*
X156665345Y-122545988D01*
X156663868Y-122554239D01*
X156663342Y-122557061D01*
X156661824Y-122563483D01*
X156450742Y-122563483D01*
X156450742Y-122477865D01*
X156443479Y-122477865D01*
X156437678Y-122479633D01*
X156428298Y-122484643D01*
X156416119Y-122492449D01*
X156408518Y-122497769D01*
X156364088Y-122526223D01*
X156317115Y-122549637D01*
X156267854Y-122567945D01*
X156216560Y-122581083D01*
X156163488Y-122588983D01*
X156108894Y-122591582D01*
X156053384Y-122588847D01*
X156010587Y-122582913D01*
X155970659Y-122573733D01*
X155934122Y-122561496D01*
X155901503Y-122546388D01*
X155873326Y-122528598D01*
X155863776Y-122521076D01*
X155839364Y-122497970D01*
X155818037Y-122472085D01*
X155799631Y-122443043D01*
X155783986Y-122410467D01*
X155770941Y-122373978D01*
X155760335Y-122333200D01*
X155752005Y-122287755D01*
X155746806Y-122247168D01*
X155743983Y-122207873D01*
X155743350Y-122163739D01*
X155743693Y-122152714D01*
X156002649Y-122152714D01*
X156005419Y-122198808D01*
X156011001Y-122240466D01*
X156019388Y-122277532D01*
X156030573Y-122309854D01*
X156037621Y-122324985D01*
X156049810Y-122344748D01*
X156065163Y-122363656D01*
X156082361Y-122380335D01*
X156100083Y-122393413D01*
X156107309Y-122397474D01*
X156134181Y-122408352D01*
X156164974Y-122416086D01*
X156198781Y-122420574D01*
X156234692Y-122421714D01*
X156271800Y-122419405D01*
X156286641Y-122417513D01*
X156331070Y-122408501D01*
X156375845Y-122394589D01*
X156413945Y-122378831D01*
X156441361Y-122366085D01*
X156450505Y-122314239D01*
X156451987Y-122305837D01*
X156454404Y-122292141D01*
X156457698Y-122273477D01*
X156461811Y-122250173D01*
X156466686Y-122222555D01*
X156472264Y-122190951D01*
X156478489Y-122155686D01*
X156485303Y-122117087D01*
X156492647Y-122075482D01*
X156500464Y-122031198D01*
X156508697Y-121984560D01*
X156517287Y-121935896D01*
X156526178Y-121885533D01*
X156535311Y-121833797D01*
X156544629Y-121781016D01*
X156546054Y-121772943D01*
X156555231Y-121720912D01*
X156564124Y-121670392D01*
X156572685Y-121621672D01*
X156580862Y-121575038D01*
X156588607Y-121530776D01*
X156595870Y-121489173D01*
X156602600Y-121450516D01*
X156608748Y-121415092D01*
X156614265Y-121383188D01*
X156619101Y-121355089D01*
X156623205Y-121331084D01*
X156626529Y-121311458D01*
X156629022Y-121296499D01*
X156630635Y-121286493D01*
X156631318Y-121281727D01*
X156631331Y-121281353D01*
X156628239Y-121280726D01*
X156620179Y-121280214D01*
X156607891Y-121279816D01*
X156592112Y-121279528D01*
X156573582Y-121279349D01*
X156553040Y-121279276D01*
X156531225Y-121279305D01*
X156508876Y-121279435D01*
X156486730Y-121279663D01*
X156465529Y-121279986D01*
X156446009Y-121280402D01*
X156428910Y-121280908D01*
X156414972Y-121281502D01*
X156405355Y-121282142D01*
X156366584Y-121287323D01*
X156331842Y-121295850D01*
X156300282Y-121308106D01*
X156271054Y-121324475D01*
X156243310Y-121345339D01*
X156222400Y-121364735D01*
X156209579Y-121378378D01*
X156196343Y-121393793D01*
X156184379Y-121408953D01*
X156177177Y-121419056D01*
X156167690Y-121434332D01*
X156156784Y-121453624D01*
X156145108Y-121475629D01*
X156133313Y-121499043D01*
X156122047Y-121522563D01*
X156111963Y-121544887D01*
X156103709Y-121564709D01*
X156101088Y-121571587D01*
X156087729Y-121611039D01*
X156074665Y-121655995D01*
X156061943Y-121706256D01*
X156049608Y-121761621D01*
X156037705Y-121821892D01*
X156026280Y-121886871D01*
X156019825Y-121927056D01*
X156011279Y-121989354D01*
X156005572Y-122047832D01*
X156002698Y-122102337D01*
X156002649Y-122152714D01*
X155743693Y-122152714D01*
X155744864Y-122115181D01*
X155748481Y-122062613D01*
X155754156Y-122006449D01*
X155761846Y-121947102D01*
X155771507Y-121884987D01*
X155783093Y-121820518D01*
X155796563Y-121754108D01*
X155801791Y-121730134D01*
X155819973Y-121655191D01*
X155840054Y-121585599D01*
X155862052Y-121521318D01*
X155885987Y-121462311D01*
X155911877Y-121408539D01*
X155939741Y-121359963D01*
X155969596Y-121316545D01*
X156001461Y-121278245D01*
X156034747Y-121245563D01*
X156069137Y-121217675D01*
X156105110Y-121193489D01*
X156143255Y-121172763D01*
X156184161Y-121155253D01*
X156228415Y-121140717D01*
X156276606Y-121128912D01*
X156329321Y-121119594D01*
X156344846Y-121117414D01*
X156363694Y-121115487D01*
X156387087Y-121114020D01*
X156413882Y-121113011D01*
X156442935Y-121112459D01*
X156473102Y-121112365D01*
X156503239Y-121112728D01*
X156503239Y-121112728D01*
G37*
X156503239Y-121112728D02*
X156532204Y-121113545D01*
X156558852Y-121114818D01*
X156582038Y-121116544D01*
X156592011Y-121117582D01*
X156636768Y-121123724D01*
X156682380Y-121131677D01*
X156727769Y-121141174D01*
X156771859Y-121151951D01*
X156813573Y-121163742D01*
X156851833Y-121176284D01*
X156885562Y-121189310D01*
X156888335Y-121190495D01*
X156896353Y-121194257D01*
X156900176Y-121197361D01*
X156900964Y-121201128D01*
X156900453Y-121204293D01*
X156899816Y-121207787D01*
X156898240Y-121216656D01*
X156895769Y-121230652D01*
X156892445Y-121249527D01*
X156888314Y-121273034D01*
X156883417Y-121300925D01*
X156877798Y-121332951D01*
X156871502Y-121368866D01*
X156864570Y-121408422D01*
X156857047Y-121451370D01*
X156848976Y-121497463D01*
X156840401Y-121546453D01*
X156831364Y-121598093D01*
X156821909Y-121652134D01*
X156812080Y-121708329D01*
X156801920Y-121766430D01*
X156791473Y-121826189D01*
X156781824Y-121881393D01*
X156771157Y-121942417D01*
X156760740Y-122001996D01*
X156750615Y-122059882D01*
X156740827Y-122115830D01*
X156731417Y-122169590D01*
X156722431Y-122220918D01*
X156713910Y-122269564D01*
X156705899Y-122315283D01*
X156698441Y-122357828D01*
X156691578Y-122396950D01*
X156685355Y-122432403D01*
X156679814Y-122463941D01*
X156675000Y-122491315D01*
X156670955Y-122514279D01*
X156667722Y-122532586D01*
X156665345Y-122545988D01*
X156663868Y-122554239D01*
X156663342Y-122557061D01*
X156661824Y-122563483D01*
X156450742Y-122563483D01*
X156450742Y-122477865D01*
X156443479Y-122477865D01*
X156437678Y-122479633D01*
X156428298Y-122484643D01*
X156416119Y-122492449D01*
X156408518Y-122497769D01*
X156364088Y-122526223D01*
X156317115Y-122549637D01*
X156267854Y-122567945D01*
X156216560Y-122581083D01*
X156163488Y-122588983D01*
X156108894Y-122591582D01*
X156053384Y-122588847D01*
X156010587Y-122582913D01*
X155970659Y-122573733D01*
X155934122Y-122561496D01*
X155901503Y-122546388D01*
X155873326Y-122528598D01*
X155863776Y-122521076D01*
X155839364Y-122497970D01*
X155818037Y-122472085D01*
X155799631Y-122443043D01*
X155783986Y-122410467D01*
X155770941Y-122373978D01*
X155760335Y-122333200D01*
X155752005Y-122287755D01*
X155746806Y-122247168D01*
X155743983Y-122207873D01*
X155743350Y-122163739D01*
X155743693Y-122152714D01*
X156002649Y-122152714D01*
X156005419Y-122198808D01*
X156011001Y-122240466D01*
X156019388Y-122277532D01*
X156030573Y-122309854D01*
X156037621Y-122324985D01*
X156049810Y-122344748D01*
X156065163Y-122363656D01*
X156082361Y-122380335D01*
X156100083Y-122393413D01*
X156107309Y-122397474D01*
X156134181Y-122408352D01*
X156164974Y-122416086D01*
X156198781Y-122420574D01*
X156234692Y-122421714D01*
X156271800Y-122419405D01*
X156286641Y-122417513D01*
X156331070Y-122408501D01*
X156375845Y-122394589D01*
X156413945Y-122378831D01*
X156441361Y-122366085D01*
X156450505Y-122314239D01*
X156451987Y-122305837D01*
X156454404Y-122292141D01*
X156457698Y-122273477D01*
X156461811Y-122250173D01*
X156466686Y-122222555D01*
X156472264Y-122190951D01*
X156478489Y-122155686D01*
X156485303Y-122117087D01*
X156492647Y-122075482D01*
X156500464Y-122031198D01*
X156508697Y-121984560D01*
X156517287Y-121935896D01*
X156526178Y-121885533D01*
X156535311Y-121833797D01*
X156544629Y-121781016D01*
X156546054Y-121772943D01*
X156555231Y-121720912D01*
X156564124Y-121670392D01*
X156572685Y-121621672D01*
X156580862Y-121575038D01*
X156588607Y-121530776D01*
X156595870Y-121489173D01*
X156602600Y-121450516D01*
X156608748Y-121415092D01*
X156614265Y-121383188D01*
X156619101Y-121355089D01*
X156623205Y-121331084D01*
X156626529Y-121311458D01*
X156629022Y-121296499D01*
X156630635Y-121286493D01*
X156631318Y-121281727D01*
X156631331Y-121281353D01*
X156628239Y-121280726D01*
X156620179Y-121280214D01*
X156607891Y-121279816D01*
X156592112Y-121279528D01*
X156573582Y-121279349D01*
X156553040Y-121279276D01*
X156531225Y-121279305D01*
X156508876Y-121279435D01*
X156486730Y-121279663D01*
X156465529Y-121279986D01*
X156446009Y-121280402D01*
X156428910Y-121280908D01*
X156414972Y-121281502D01*
X156405355Y-121282142D01*
X156366584Y-121287323D01*
X156331842Y-121295850D01*
X156300282Y-121308106D01*
X156271054Y-121324475D01*
X156243310Y-121345339D01*
X156222400Y-121364735D01*
X156209579Y-121378378D01*
X156196343Y-121393793D01*
X156184379Y-121408953D01*
X156177177Y-121419056D01*
X156167690Y-121434332D01*
X156156784Y-121453624D01*
X156145108Y-121475629D01*
X156133313Y-121499043D01*
X156122047Y-121522563D01*
X156111963Y-121544887D01*
X156103709Y-121564709D01*
X156101088Y-121571587D01*
X156087729Y-121611039D01*
X156074665Y-121655995D01*
X156061943Y-121706256D01*
X156049608Y-121761621D01*
X156037705Y-121821892D01*
X156026280Y-121886871D01*
X156019825Y-121927056D01*
X156011279Y-121989354D01*
X156005572Y-122047832D01*
X156002698Y-122102337D01*
X156002649Y-122152714D01*
X155743693Y-122152714D01*
X155744864Y-122115181D01*
X155748481Y-122062613D01*
X155754156Y-122006449D01*
X155761846Y-121947102D01*
X155771507Y-121884987D01*
X155783093Y-121820518D01*
X155796563Y-121754108D01*
X155801791Y-121730134D01*
X155819973Y-121655191D01*
X155840054Y-121585599D01*
X155862052Y-121521318D01*
X155885987Y-121462311D01*
X155911877Y-121408539D01*
X155939741Y-121359963D01*
X155969596Y-121316545D01*
X156001461Y-121278245D01*
X156034747Y-121245563D01*
X156069137Y-121217675D01*
X156105110Y-121193489D01*
X156143255Y-121172763D01*
X156184161Y-121155253D01*
X156228415Y-121140717D01*
X156276606Y-121128912D01*
X156329321Y-121119594D01*
X156344846Y-121117414D01*
X156363694Y-121115487D01*
X156387087Y-121114020D01*
X156413882Y-121113011D01*
X156442935Y-121112459D01*
X156473102Y-121112365D01*
X156503239Y-121112728D01*
G36*
X157774673Y-121112664D02*
X157801267Y-121113237D01*
X157826169Y-121114216D01*
X157848148Y-121115593D01*
X157865975Y-121117361D01*
X157866932Y-121117485D01*
X157895864Y-121121671D01*
X157926437Y-121126726D01*
X157956831Y-121132316D01*
X157985227Y-121138105D01*
X158009805Y-121143758D01*
X158010416Y-121143910D01*
X158026010Y-121147978D01*
X158041823Y-121152415D01*
X158056788Y-121156888D01*
X158069835Y-121161062D01*
X158079896Y-121164603D01*
X158085901Y-121167177D01*
X158086893Y-121167827D01*
X158087136Y-121171153D01*
X158086470Y-121179198D01*
X158085006Y-121191069D01*
X158082856Y-121205869D01*
X158080132Y-121222704D01*
X158079818Y-121224551D01*
X158070469Y-121279213D01*
X157931993Y-121279238D01*
X157902791Y-121279303D01*
X157874010Y-121279478D01*
X157846421Y-121279751D01*
X157820798Y-121280110D01*
X157797916Y-121280543D01*
X157778547Y-121281037D01*
X157763465Y-121281580D01*
X157754696Y-121282063D01*
X157709925Y-121287442D01*
X157668937Y-121296952D01*
X157631399Y-121310765D01*
X157596978Y-121329058D01*
X157565344Y-121352004D01*
X157536162Y-121379778D01*
X157510980Y-121410031D01*
X157490377Y-121439610D01*
X157471239Y-121471624D01*
X157453444Y-121506427D01*
X157436873Y-121544374D01*
X157421404Y-121585820D01*
X157406916Y-121631119D01*
X157393290Y-121680626D01*
X157380404Y-121734696D01*
X157368138Y-121793683D01*
X157356371Y-121857943D01*
X157354103Y-121871245D01*
X157346929Y-121914967D01*
X157340995Y-121953888D01*
X157336229Y-121988758D01*
X157332559Y-122020333D01*
X157329911Y-122049363D01*
X157328215Y-122076602D01*
X157327396Y-122102804D01*
X157327384Y-122128719D01*
X157327762Y-122145382D01*
X157330173Y-122187671D01*
X157334725Y-122225083D01*
X157341559Y-122258084D01*
X157350819Y-122287144D01*
X157362647Y-122312731D01*
X157377184Y-122335312D01*
X157390164Y-122350786D01*
X157408705Y-122368829D01*
X157427624Y-122383213D01*
X157448165Y-122394598D01*
X157471570Y-122403646D01*
X157499082Y-122411018D01*
X157506328Y-122412589D01*
X157518985Y-122414929D01*
X157533215Y-122416938D01*
X157549477Y-122418639D01*
X157568233Y-122420050D01*
X157589944Y-122421191D01*
X157615071Y-122422084D01*
X157644074Y-122422748D01*
X157677416Y-122423202D01*
X157715556Y-122423469D01*
X157757486Y-122423566D01*
X157895545Y-122423640D01*
X157894062Y-122431488D01*
X157893099Y-122436871D01*
X157891383Y-122446756D01*
X157889106Y-122460018D01*
X157886461Y-122475533D01*
X157884497Y-122487122D01*
X157876415Y-122534908D01*
X157859225Y-122540583D01*
X157838845Y-122546679D01*
X157813920Y-122553107D01*
X157785582Y-122559639D01*
X157754966Y-122566045D01*
X157723206Y-122572096D01*
X157691435Y-122577564D01*
X157660788Y-122582218D01*
X157639405Y-122585015D01*
X157625859Y-122586323D01*
X157608281Y-122587542D01*
X157587820Y-122588637D01*
X157565620Y-122589573D01*
X157542830Y-122590316D01*
X157520596Y-122590831D01*
X157500066Y-122591083D01*
X157482385Y-122591036D01*
X157468702Y-122590657D01*
X157463888Y-122590347D01*
X157417471Y-122585740D01*
X157376142Y-122580130D01*
X157339343Y-122573323D01*
X157306513Y-122565130D01*
X157277091Y-122555360D01*
X157250518Y-122543821D01*
X157226232Y-122530323D01*
X157203673Y-122514674D01*
X157182282Y-122496684D01*
X157178329Y-122493009D01*
X157154848Y-122468093D01*
X157134578Y-122440491D01*
X157117302Y-122409722D01*
X157102801Y-122375304D01*
X157090857Y-122336754D01*
X157081251Y-122293591D01*
X157077164Y-122269528D01*
X157074590Y-122248215D01*
X157072641Y-122222483D01*
X157071339Y-122193587D01*
X157070699Y-122162783D01*
X157070741Y-122131327D01*
X157071484Y-122100475D01*
X157072945Y-122071483D01*
X157074051Y-122056910D01*
X157079310Y-122005675D01*
X157086465Y-121950554D01*
X157095268Y-121892952D01*
X157105474Y-121834274D01*
X157116835Y-121775925D01*
X157129104Y-121719309D01*
X157142036Y-121665832D01*
X157144229Y-121657359D01*
X157164712Y-121585868D01*
X157187412Y-121519626D01*
X157212339Y-121458618D01*
X157239502Y-121402830D01*
X157268909Y-121352248D01*
X157300568Y-121306858D01*
X157334490Y-121266645D01*
X157370682Y-121231595D01*
X157409154Y-121201693D01*
X157435339Y-121185039D01*
X157469094Y-121167653D01*
X157507491Y-121152053D01*
X157549668Y-121138504D01*
X157594767Y-121127270D01*
X157641925Y-121118616D01*
X157659382Y-121116165D01*
X157675982Y-121114590D01*
X157697041Y-121113461D01*
X157721330Y-121112768D01*
X157747617Y-121112505D01*
X157774673Y-121112664D01*
X157774673Y-121112664D01*
G37*
X157774673Y-121112664D02*
X157801267Y-121113237D01*
X157826169Y-121114216D01*
X157848148Y-121115593D01*
X157865975Y-121117361D01*
X157866932Y-121117485D01*
X157895864Y-121121671D01*
X157926437Y-121126726D01*
X157956831Y-121132316D01*
X157985227Y-121138105D01*
X158009805Y-121143758D01*
X158010416Y-121143910D01*
X158026010Y-121147978D01*
X158041823Y-121152415D01*
X158056788Y-121156888D01*
X158069835Y-121161062D01*
X158079896Y-121164603D01*
X158085901Y-121167177D01*
X158086893Y-121167827D01*
X158087136Y-121171153D01*
X158086470Y-121179198D01*
X158085006Y-121191069D01*
X158082856Y-121205869D01*
X158080132Y-121222704D01*
X158079818Y-121224551D01*
X158070469Y-121279213D01*
X157931993Y-121279238D01*
X157902791Y-121279303D01*
X157874010Y-121279478D01*
X157846421Y-121279751D01*
X157820798Y-121280110D01*
X157797916Y-121280543D01*
X157778547Y-121281037D01*
X157763465Y-121281580D01*
X157754696Y-121282063D01*
X157709925Y-121287442D01*
X157668937Y-121296952D01*
X157631399Y-121310765D01*
X157596978Y-121329058D01*
X157565344Y-121352004D01*
X157536162Y-121379778D01*
X157510980Y-121410031D01*
X157490377Y-121439610D01*
X157471239Y-121471624D01*
X157453444Y-121506427D01*
X157436873Y-121544374D01*
X157421404Y-121585820D01*
X157406916Y-121631119D01*
X157393290Y-121680626D01*
X157380404Y-121734696D01*
X157368138Y-121793683D01*
X157356371Y-121857943D01*
X157354103Y-121871245D01*
X157346929Y-121914967D01*
X157340995Y-121953888D01*
X157336229Y-121988758D01*
X157332559Y-122020333D01*
X157329911Y-122049363D01*
X157328215Y-122076602D01*
X157327396Y-122102804D01*
X157327384Y-122128719D01*
X157327762Y-122145382D01*
X157330173Y-122187671D01*
X157334725Y-122225083D01*
X157341559Y-122258084D01*
X157350819Y-122287144D01*
X157362647Y-122312731D01*
X157377184Y-122335312D01*
X157390164Y-122350786D01*
X157408705Y-122368829D01*
X157427624Y-122383213D01*
X157448165Y-122394598D01*
X157471570Y-122403646D01*
X157499082Y-122411018D01*
X157506328Y-122412589D01*
X157518985Y-122414929D01*
X157533215Y-122416938D01*
X157549477Y-122418639D01*
X157568233Y-122420050D01*
X157589944Y-122421191D01*
X157615071Y-122422084D01*
X157644074Y-122422748D01*
X157677416Y-122423202D01*
X157715556Y-122423469D01*
X157757486Y-122423566D01*
X157895545Y-122423640D01*
X157894062Y-122431488D01*
X157893099Y-122436871D01*
X157891383Y-122446756D01*
X157889106Y-122460018D01*
X157886461Y-122475533D01*
X157884497Y-122487122D01*
X157876415Y-122534908D01*
X157859225Y-122540583D01*
X157838845Y-122546679D01*
X157813920Y-122553107D01*
X157785582Y-122559639D01*
X157754966Y-122566045D01*
X157723206Y-122572096D01*
X157691435Y-122577564D01*
X157660788Y-122582218D01*
X157639405Y-122585015D01*
X157625859Y-122586323D01*
X157608281Y-122587542D01*
X157587820Y-122588637D01*
X157565620Y-122589573D01*
X157542830Y-122590316D01*
X157520596Y-122590831D01*
X157500066Y-122591083D01*
X157482385Y-122591036D01*
X157468702Y-122590657D01*
X157463888Y-122590347D01*
X157417471Y-122585740D01*
X157376142Y-122580130D01*
X157339343Y-122573323D01*
X157306513Y-122565130D01*
X157277091Y-122555360D01*
X157250518Y-122543821D01*
X157226232Y-122530323D01*
X157203673Y-122514674D01*
X157182282Y-122496684D01*
X157178329Y-122493009D01*
X157154848Y-122468093D01*
X157134578Y-122440491D01*
X157117302Y-122409722D01*
X157102801Y-122375304D01*
X157090857Y-122336754D01*
X157081251Y-122293591D01*
X157077164Y-122269528D01*
X157074590Y-122248215D01*
X157072641Y-122222483D01*
X157071339Y-122193587D01*
X157070699Y-122162783D01*
X157070741Y-122131327D01*
X157071484Y-122100475D01*
X157072945Y-122071483D01*
X157074051Y-122056910D01*
X157079310Y-122005675D01*
X157086465Y-121950554D01*
X157095268Y-121892952D01*
X157105474Y-121834274D01*
X157116835Y-121775925D01*
X157129104Y-121719309D01*
X157142036Y-121665832D01*
X157144229Y-121657359D01*
X157164712Y-121585868D01*
X157187412Y-121519626D01*
X157212339Y-121458618D01*
X157239502Y-121402830D01*
X157268909Y-121352248D01*
X157300568Y-121306858D01*
X157334490Y-121266645D01*
X157370682Y-121231595D01*
X157409154Y-121201693D01*
X157435339Y-121185039D01*
X157469094Y-121167653D01*
X157507491Y-121152053D01*
X157549668Y-121138504D01*
X157594767Y-121127270D01*
X157641925Y-121118616D01*
X157659382Y-121116165D01*
X157675982Y-121114590D01*
X157697041Y-121113461D01*
X157721330Y-121112768D01*
X157747617Y-121112505D01*
X157774673Y-121112664D01*
G36*
X148595590Y-120576432D02*
X148594729Y-120581161D01*
X148593058Y-120590749D01*
X148590708Y-120604429D01*
X148587810Y-120621430D01*
X148584497Y-120640984D01*
X148580898Y-120662321D01*
X148579624Y-120669898D01*
X148575970Y-120691584D01*
X148572563Y-120711673D01*
X148569532Y-120729412D01*
X148567007Y-120744049D01*
X148565117Y-120754829D01*
X148563993Y-120760999D01*
X148563803Y-120761938D01*
X148562363Y-120768359D01*
X147850171Y-120768359D01*
X147788151Y-121114398D01*
X147780330Y-121158070D01*
X147772795Y-121200204D01*
X147765607Y-121240458D01*
X147758827Y-121278489D01*
X147752516Y-121313952D01*
X147746734Y-121346505D01*
X147741543Y-121375803D01*
X147737004Y-121401504D01*
X147733177Y-121423264D01*
X147730123Y-121440738D01*
X147727903Y-121453585D01*
X147726578Y-121461460D01*
X147726201Y-121464005D01*
X147727262Y-121464598D01*
X147730603Y-121465125D01*
X147736496Y-121465591D01*
X147745214Y-121465998D01*
X147757031Y-121466350D01*
X147772219Y-121466650D01*
X147791050Y-121466901D01*
X147813798Y-121467107D01*
X147840736Y-121467271D01*
X147872136Y-121467395D01*
X147908271Y-121467484D01*
X147949414Y-121467541D01*
X147995838Y-121467569D01*
X148024506Y-121467573D01*
X148074017Y-121467585D01*
X148118094Y-121467625D01*
X148157008Y-121467695D01*
X148191033Y-121467799D01*
X148220441Y-121467940D01*
X148245505Y-121468121D01*
X148266499Y-121468346D01*
X148283695Y-121468617D01*
X148297365Y-121468939D01*
X148307783Y-121469313D01*
X148315222Y-121469745D01*
X148319953Y-121470236D01*
X148322251Y-121470790D01*
X148322576Y-121471140D01*
X148322063Y-121474716D01*
X148320682Y-121483232D01*
X148318550Y-121496003D01*
X148315781Y-121512346D01*
X148312492Y-121531577D01*
X148308798Y-121553014D01*
X148306047Y-121568887D01*
X148289684Y-121663067D01*
X147690692Y-121665921D01*
X147630173Y-122012674D01*
X147622145Y-122058674D01*
X147614126Y-122104622D01*
X147606200Y-122150032D01*
X147598453Y-122194419D01*
X147590969Y-122237297D01*
X147583833Y-122278181D01*
X147577130Y-122316586D01*
X147570945Y-122352026D01*
X147565361Y-122384015D01*
X147560465Y-122412068D01*
X147556340Y-122435700D01*
X147553071Y-122454424D01*
X147551844Y-122461455D01*
X147534032Y-122563483D01*
X147278888Y-122563483D01*
X147282714Y-122542792D01*
X147283494Y-122538429D01*
X147285224Y-122528653D01*
X147287866Y-122513672D01*
X147291385Y-122493694D01*
X147295744Y-122468928D01*
X147300905Y-122439583D01*
X147306833Y-122405867D01*
X147313490Y-122367989D01*
X147320841Y-122326156D01*
X147328848Y-122280579D01*
X147337474Y-122231464D01*
X147346685Y-122179021D01*
X147356441Y-122123459D01*
X147366708Y-122064985D01*
X147377448Y-122003808D01*
X147388625Y-121940137D01*
X147400201Y-121874181D01*
X147412142Y-121806147D01*
X147424409Y-121736245D01*
X147436966Y-121664682D01*
X147449777Y-121591668D01*
X147456528Y-121553191D01*
X147469431Y-121479649D01*
X147482088Y-121407517D01*
X147494462Y-121337002D01*
X147506518Y-121268307D01*
X147518220Y-121201638D01*
X147529531Y-121137199D01*
X147540416Y-121075196D01*
X147550839Y-121015833D01*
X147560763Y-120959316D01*
X147570153Y-120905848D01*
X147578973Y-120855635D01*
X147587187Y-120808883D01*
X147594758Y-120765795D01*
X147601651Y-120726577D01*
X147607830Y-120691433D01*
X147613258Y-120660569D01*
X147617900Y-120634190D01*
X147621720Y-120612500D01*
X147624682Y-120595704D01*
X147626749Y-120584007D01*
X147627887Y-120577614D01*
X147628103Y-120576432D01*
X147629690Y-120568584D01*
X148597173Y-120568584D01*
X148595590Y-120576432D01*
X148595590Y-120576432D01*
G37*
X148595590Y-120576432D02*
X148594729Y-120581161D01*
X148593058Y-120590749D01*
X148590708Y-120604429D01*
X148587810Y-120621430D01*
X148584497Y-120640984D01*
X148580898Y-120662321D01*
X148579624Y-120669898D01*
X148575970Y-120691584D01*
X148572563Y-120711673D01*
X148569532Y-120729412D01*
X148567007Y-120744049D01*
X148565117Y-120754829D01*
X148563993Y-120760999D01*
X148563803Y-120761938D01*
X148562363Y-120768359D01*
X147850171Y-120768359D01*
X147788151Y-121114398D01*
X147780330Y-121158070D01*
X147772795Y-121200204D01*
X147765607Y-121240458D01*
X147758827Y-121278489D01*
X147752516Y-121313952D01*
X147746734Y-121346505D01*
X147741543Y-121375803D01*
X147737004Y-121401504D01*
X147733177Y-121423264D01*
X147730123Y-121440738D01*
X147727903Y-121453585D01*
X147726578Y-121461460D01*
X147726201Y-121464005D01*
X147727262Y-121464598D01*
X147730603Y-121465125D01*
X147736496Y-121465591D01*
X147745214Y-121465998D01*
X147757031Y-121466350D01*
X147772219Y-121466650D01*
X147791050Y-121466901D01*
X147813798Y-121467107D01*
X147840736Y-121467271D01*
X147872136Y-121467395D01*
X147908271Y-121467484D01*
X147949414Y-121467541D01*
X147995838Y-121467569D01*
X148024506Y-121467573D01*
X148074017Y-121467585D01*
X148118094Y-121467625D01*
X148157008Y-121467695D01*
X148191033Y-121467799D01*
X148220441Y-121467940D01*
X148245505Y-121468121D01*
X148266499Y-121468346D01*
X148283695Y-121468617D01*
X148297365Y-121468939D01*
X148307783Y-121469313D01*
X148315222Y-121469745D01*
X148319953Y-121470236D01*
X148322251Y-121470790D01*
X148322576Y-121471140D01*
X148322063Y-121474716D01*
X148320682Y-121483232D01*
X148318550Y-121496003D01*
X148315781Y-121512346D01*
X148312492Y-121531577D01*
X148308798Y-121553014D01*
X148306047Y-121568887D01*
X148289684Y-121663067D01*
X147690692Y-121665921D01*
X147630173Y-122012674D01*
X147622145Y-122058674D01*
X147614126Y-122104622D01*
X147606200Y-122150032D01*
X147598453Y-122194419D01*
X147590969Y-122237297D01*
X147583833Y-122278181D01*
X147577130Y-122316586D01*
X147570945Y-122352026D01*
X147565361Y-122384015D01*
X147560465Y-122412068D01*
X147556340Y-122435700D01*
X147553071Y-122454424D01*
X147551844Y-122461455D01*
X147534032Y-122563483D01*
X147278888Y-122563483D01*
X147282714Y-122542792D01*
X147283494Y-122538429D01*
X147285224Y-122528653D01*
X147287866Y-122513672D01*
X147291385Y-122493694D01*
X147295744Y-122468928D01*
X147300905Y-122439583D01*
X147306833Y-122405867D01*
X147313490Y-122367989D01*
X147320841Y-122326156D01*
X147328848Y-122280579D01*
X147337474Y-122231464D01*
X147346685Y-122179021D01*
X147356441Y-122123459D01*
X147366708Y-122064985D01*
X147377448Y-122003808D01*
X147388625Y-121940137D01*
X147400201Y-121874181D01*
X147412142Y-121806147D01*
X147424409Y-121736245D01*
X147436966Y-121664682D01*
X147449777Y-121591668D01*
X147456528Y-121553191D01*
X147469431Y-121479649D01*
X147482088Y-121407517D01*
X147494462Y-121337002D01*
X147506518Y-121268307D01*
X147518220Y-121201638D01*
X147529531Y-121137199D01*
X147540416Y-121075196D01*
X147550839Y-121015833D01*
X147560763Y-120959316D01*
X147570153Y-120905848D01*
X147578973Y-120855635D01*
X147587187Y-120808883D01*
X147594758Y-120765795D01*
X147601651Y-120726577D01*
X147607830Y-120691433D01*
X147613258Y-120660569D01*
X147617900Y-120634190D01*
X147621720Y-120612500D01*
X147624682Y-120595704D01*
X147626749Y-120584007D01*
X147627887Y-120577614D01*
X147628103Y-120576432D01*
X147629690Y-120568584D01*
X148597173Y-120568584D01*
X148595590Y-120576432D01*
G36*
X149011048Y-120568601D02*
X149036294Y-120568664D01*
X149056791Y-120568790D01*
X149073018Y-120568994D01*
X149085455Y-120569294D01*
X149094581Y-120569706D01*
X149100876Y-120570247D01*
X149104818Y-120570933D01*
X149106887Y-120571782D01*
X149107562Y-120572809D01*
X149107573Y-120572989D01*
X149107087Y-120575967D01*
X149105657Y-120584322D01*
X149103326Y-120597810D01*
X149100136Y-120616186D01*
X149096132Y-120639206D01*
X149091355Y-120666625D01*
X149085848Y-120698199D01*
X149079654Y-120733683D01*
X149072817Y-120772832D01*
X149065378Y-120815403D01*
X149057381Y-120861150D01*
X149048869Y-120909829D01*
X149039884Y-120961196D01*
X149030469Y-121015006D01*
X149020668Y-121071013D01*
X149010522Y-121128975D01*
X149000076Y-121188646D01*
X148989371Y-121249782D01*
X148978451Y-121312138D01*
X148967358Y-121375469D01*
X148956135Y-121439532D01*
X148944826Y-121504081D01*
X148933472Y-121568873D01*
X148922117Y-121633661D01*
X148910804Y-121698203D01*
X148899575Y-121762253D01*
X148888474Y-121825567D01*
X148877543Y-121887901D01*
X148866825Y-121949009D01*
X148856362Y-122008647D01*
X148846199Y-122066572D01*
X148836377Y-122122537D01*
X148826939Y-122176299D01*
X148817929Y-122227613D01*
X148809389Y-122276235D01*
X148801362Y-122321919D01*
X148793891Y-122364422D01*
X148787018Y-122403499D01*
X148780787Y-122438906D01*
X148775241Y-122470397D01*
X148770421Y-122497729D01*
X148766372Y-122520656D01*
X148763136Y-122538934D01*
X148760755Y-122552320D01*
X148760418Y-122554207D01*
X148758758Y-122563483D01*
X148632076Y-122563483D01*
X148601780Y-122563469D01*
X148576705Y-122563416D01*
X148556362Y-122563305D01*
X148540263Y-122563118D01*
X148527921Y-122562837D01*
X148518848Y-122562444D01*
X148512556Y-122561920D01*
X148508558Y-122561246D01*
X148506365Y-122560405D01*
X148505490Y-122559379D01*
X148505394Y-122558738D01*
X148505882Y-122555601D01*
X148507324Y-122547045D01*
X148509684Y-122533271D01*
X148512927Y-122514480D01*
X148517017Y-122490875D01*
X148521920Y-122462656D01*
X148527600Y-122430026D01*
X148534022Y-122393186D01*
X148541150Y-122352338D01*
X148548949Y-122307684D01*
X148557385Y-122259426D01*
X148566421Y-122207764D01*
X148576023Y-122152902D01*
X148586155Y-122095040D01*
X148596782Y-122034380D01*
X148607868Y-121971124D01*
X148619379Y-121905474D01*
X148631279Y-121837631D01*
X148643533Y-121767797D01*
X148656106Y-121696174D01*
X148668961Y-121622963D01*
X148679483Y-121563063D01*
X148692537Y-121488753D01*
X148705337Y-121415885D01*
X148717846Y-121344658D01*
X148730030Y-121275273D01*
X148741853Y-121207932D01*
X148753281Y-121142835D01*
X148764278Y-121080183D01*
X148774808Y-121020177D01*
X148784837Y-120963018D01*
X148794330Y-120908907D01*
X148803250Y-120858044D01*
X148811564Y-120810632D01*
X148819235Y-120766869D01*
X148826228Y-120726959D01*
X148832509Y-120691100D01*
X148838042Y-120659495D01*
X148842791Y-120632344D01*
X148846722Y-120609848D01*
X148849799Y-120592208D01*
X148851987Y-120579625D01*
X148853251Y-120572300D01*
X148853573Y-120570358D01*
X148856332Y-120569991D01*
X148864225Y-120569649D01*
X148876681Y-120569341D01*
X148893126Y-120569074D01*
X148912989Y-120568858D01*
X148935695Y-120568699D01*
X148960672Y-120568606D01*
X148980573Y-120568584D01*
X149011048Y-120568601D01*
X149011048Y-120568601D01*
G37*
X149011048Y-120568601D02*
X149036294Y-120568664D01*
X149056791Y-120568790D01*
X149073018Y-120568994D01*
X149085455Y-120569294D01*
X149094581Y-120569706D01*
X149100876Y-120570247D01*
X149104818Y-120570933D01*
X149106887Y-120571782D01*
X149107562Y-120572809D01*
X149107573Y-120572989D01*
X149107087Y-120575967D01*
X149105657Y-120584322D01*
X149103326Y-120597810D01*
X149100136Y-120616186D01*
X149096132Y-120639206D01*
X149091355Y-120666625D01*
X149085848Y-120698199D01*
X149079654Y-120733683D01*
X149072817Y-120772832D01*
X149065378Y-120815403D01*
X149057381Y-120861150D01*
X149048869Y-120909829D01*
X149039884Y-120961196D01*
X149030469Y-121015006D01*
X149020668Y-121071013D01*
X149010522Y-121128975D01*
X149000076Y-121188646D01*
X148989371Y-121249782D01*
X148978451Y-121312138D01*
X148967358Y-121375469D01*
X148956135Y-121439532D01*
X148944826Y-121504081D01*
X148933472Y-121568873D01*
X148922117Y-121633661D01*
X148910804Y-121698203D01*
X148899575Y-121762253D01*
X148888474Y-121825567D01*
X148877543Y-121887901D01*
X148866825Y-121949009D01*
X148856362Y-122008647D01*
X148846199Y-122066572D01*
X148836377Y-122122537D01*
X148826939Y-122176299D01*
X148817929Y-122227613D01*
X148809389Y-122276235D01*
X148801362Y-122321919D01*
X148793891Y-122364422D01*
X148787018Y-122403499D01*
X148780787Y-122438906D01*
X148775241Y-122470397D01*
X148770421Y-122497729D01*
X148766372Y-122520656D01*
X148763136Y-122538934D01*
X148760755Y-122552320D01*
X148760418Y-122554207D01*
X148758758Y-122563483D01*
X148632076Y-122563483D01*
X148601780Y-122563469D01*
X148576705Y-122563416D01*
X148556362Y-122563305D01*
X148540263Y-122563118D01*
X148527921Y-122562837D01*
X148518848Y-122562444D01*
X148512556Y-122561920D01*
X148508558Y-122561246D01*
X148506365Y-122560405D01*
X148505490Y-122559379D01*
X148505394Y-122558738D01*
X148505882Y-122555601D01*
X148507324Y-122547045D01*
X148509684Y-122533271D01*
X148512927Y-122514480D01*
X148517017Y-122490875D01*
X148521920Y-122462656D01*
X148527600Y-122430026D01*
X148534022Y-122393186D01*
X148541150Y-122352338D01*
X148548949Y-122307684D01*
X148557385Y-122259426D01*
X148566421Y-122207764D01*
X148576023Y-122152902D01*
X148586155Y-122095040D01*
X148596782Y-122034380D01*
X148607868Y-121971124D01*
X148619379Y-121905474D01*
X148631279Y-121837631D01*
X148643533Y-121767797D01*
X148656106Y-121696174D01*
X148668961Y-121622963D01*
X148679483Y-121563063D01*
X148692537Y-121488753D01*
X148705337Y-121415885D01*
X148717846Y-121344658D01*
X148730030Y-121275273D01*
X148741853Y-121207932D01*
X148753281Y-121142835D01*
X148764278Y-121080183D01*
X148774808Y-121020177D01*
X148784837Y-120963018D01*
X148794330Y-120908907D01*
X148803250Y-120858044D01*
X148811564Y-120810632D01*
X148819235Y-120766869D01*
X148826228Y-120726959D01*
X148832509Y-120691100D01*
X148838042Y-120659495D01*
X148842791Y-120632344D01*
X148846722Y-120609848D01*
X148849799Y-120592208D01*
X148851987Y-120579625D01*
X148853251Y-120572300D01*
X148853573Y-120570358D01*
X148856332Y-120569991D01*
X148864225Y-120569649D01*
X148876681Y-120569341D01*
X148893126Y-120569074D01*
X148912989Y-120568858D01*
X148935695Y-120568699D01*
X148960672Y-120568606D01*
X148980573Y-120568584D01*
X149011048Y-120568601D01*
G36*
X149471424Y-121139774D02*
X149494202Y-121139840D01*
X149519228Y-121139948D01*
X149538950Y-121140054D01*
X149665849Y-121140797D01*
X149540935Y-121850000D01*
X149529881Y-121912767D01*
X149519087Y-121974063D01*
X149508597Y-122033651D01*
X149498451Y-122091292D01*
X149488692Y-122146749D01*
X149479361Y-122199783D01*
X149470501Y-122250158D01*
X149462152Y-122297634D01*
X149454357Y-122341975D01*
X149447157Y-122382942D01*
X149440595Y-122420298D01*
X149434711Y-122453804D01*
X149429549Y-122483224D01*
X149425149Y-122508318D01*
X149421554Y-122528850D01*
X149418805Y-122544581D01*
X149416945Y-122555273D01*
X149416014Y-122560690D01*
X149415910Y-122561342D01*
X149413128Y-122561786D01*
X149405211Y-122562198D01*
X149392734Y-122562570D01*
X149376269Y-122562891D01*
X149356390Y-122563152D01*
X149333670Y-122563344D01*
X149308683Y-122563456D01*
X149288798Y-122563483D01*
X149256998Y-122563447D01*
X149230522Y-122563334D01*
X149208989Y-122563133D01*
X149192015Y-122562834D01*
X149179219Y-122562425D01*
X149170216Y-122561897D01*
X149164626Y-122561240D01*
X149162064Y-122560442D01*
X149161798Y-122560026D01*
X149162284Y-122556952D01*
X149163708Y-122548557D01*
X149166020Y-122535131D01*
X149169169Y-122516962D01*
X149173103Y-122494339D01*
X149177772Y-122467553D01*
X149183125Y-122436891D01*
X149189112Y-122402643D01*
X149195681Y-122365099D01*
X149202781Y-122324547D01*
X149210362Y-122281277D01*
X149218374Y-122235577D01*
X149226764Y-122187738D01*
X149235482Y-122138047D01*
X149244478Y-122086795D01*
X149253701Y-122034271D01*
X149263099Y-121980763D01*
X149272622Y-121926561D01*
X149282219Y-121871954D01*
X149291839Y-121817232D01*
X149301432Y-121762682D01*
X149310946Y-121708596D01*
X149320331Y-121655261D01*
X149329536Y-121602967D01*
X149338510Y-121552003D01*
X149347202Y-121502659D01*
X149355562Y-121455223D01*
X149363538Y-121409984D01*
X149371079Y-121367233D01*
X149378136Y-121327257D01*
X149384657Y-121290347D01*
X149390590Y-121256791D01*
X149395886Y-121226878D01*
X149400494Y-121200898D01*
X149404362Y-121179140D01*
X149407440Y-121161894D01*
X149409677Y-121149447D01*
X149411023Y-121142090D01*
X149411426Y-121140054D01*
X149414317Y-121139916D01*
X149422339Y-121139819D01*
X149434916Y-121139763D01*
X149451469Y-121139748D01*
X149471424Y-121139774D01*
X149471424Y-121139774D01*
G37*
X149471424Y-121139774D02*
X149494202Y-121139840D01*
X149519228Y-121139948D01*
X149538950Y-121140054D01*
X149665849Y-121140797D01*
X149540935Y-121850000D01*
X149529881Y-121912767D01*
X149519087Y-121974063D01*
X149508597Y-122033651D01*
X149498451Y-122091292D01*
X149488692Y-122146749D01*
X149479361Y-122199783D01*
X149470501Y-122250158D01*
X149462152Y-122297634D01*
X149454357Y-122341975D01*
X149447157Y-122382942D01*
X149440595Y-122420298D01*
X149434711Y-122453804D01*
X149429549Y-122483224D01*
X149425149Y-122508318D01*
X149421554Y-122528850D01*
X149418805Y-122544581D01*
X149416945Y-122555273D01*
X149416014Y-122560690D01*
X149415910Y-122561342D01*
X149413128Y-122561786D01*
X149405211Y-122562198D01*
X149392734Y-122562570D01*
X149376269Y-122562891D01*
X149356390Y-122563152D01*
X149333670Y-122563344D01*
X149308683Y-122563456D01*
X149288798Y-122563483D01*
X149256998Y-122563447D01*
X149230522Y-122563334D01*
X149208989Y-122563133D01*
X149192015Y-122562834D01*
X149179219Y-122562425D01*
X149170216Y-122561897D01*
X149164626Y-122561240D01*
X149162064Y-122560442D01*
X149161798Y-122560026D01*
X149162284Y-122556952D01*
X149163708Y-122548557D01*
X149166020Y-122535131D01*
X149169169Y-122516962D01*
X149173103Y-122494339D01*
X149177772Y-122467553D01*
X149183125Y-122436891D01*
X149189112Y-122402643D01*
X149195681Y-122365099D01*
X149202781Y-122324547D01*
X149210362Y-122281277D01*
X149218374Y-122235577D01*
X149226764Y-122187738D01*
X149235482Y-122138047D01*
X149244478Y-122086795D01*
X149253701Y-122034271D01*
X149263099Y-121980763D01*
X149272622Y-121926561D01*
X149282219Y-121871954D01*
X149291839Y-121817232D01*
X149301432Y-121762682D01*
X149310946Y-121708596D01*
X149320331Y-121655261D01*
X149329536Y-121602967D01*
X149338510Y-121552003D01*
X149347202Y-121502659D01*
X149355562Y-121455223D01*
X149363538Y-121409984D01*
X149371079Y-121367233D01*
X149378136Y-121327257D01*
X149384657Y-121290347D01*
X149390590Y-121256791D01*
X149395886Y-121226878D01*
X149400494Y-121200898D01*
X149404362Y-121179140D01*
X149407440Y-121161894D01*
X149409677Y-121149447D01*
X149411023Y-121142090D01*
X149411426Y-121140054D01*
X149414317Y-121139916D01*
X149422339Y-121139819D01*
X149434916Y-121139763D01*
X149451469Y-121139748D01*
X149471424Y-121139774D01*
G36*
X151727618Y-120568987D02*
X151739056Y-120569053D01*
X151745795Y-120569159D01*
X151747423Y-120569268D01*
X151746932Y-120572119D01*
X151745511Y-120580229D01*
X151743225Y-120593236D01*
X151740138Y-120610776D01*
X151736312Y-120632490D01*
X151731813Y-120658013D01*
X151726703Y-120686984D01*
X151721047Y-120719041D01*
X151714909Y-120753822D01*
X151708352Y-120790965D01*
X151701441Y-120830107D01*
X151694238Y-120870886D01*
X151693444Y-120875382D01*
X151686222Y-120916315D01*
X151679296Y-120955650D01*
X151672732Y-120993025D01*
X151666590Y-121028078D01*
X151660934Y-121060447D01*
X151655827Y-121089770D01*
X151651333Y-121115684D01*
X151647513Y-121137828D01*
X151644431Y-121155840D01*
X151642149Y-121169357D01*
X151640732Y-121178017D01*
X151640241Y-121181459D01*
X151640246Y-121181503D01*
X151643018Y-121180832D01*
X151649525Y-121178344D01*
X151657625Y-121174895D01*
X151671562Y-121169187D01*
X151689555Y-121162492D01*
X151710150Y-121155299D01*
X151731891Y-121148098D01*
X151753321Y-121141379D01*
X151772985Y-121135631D01*
X151780281Y-121133648D01*
X151823133Y-121123996D01*
X151867724Y-121117077D01*
X151913265Y-121112855D01*
X151958966Y-121111293D01*
X152004040Y-121112356D01*
X152047696Y-121116007D01*
X152089146Y-121122209D01*
X152127600Y-121130928D01*
X152162271Y-121142125D01*
X152185540Y-121152240D01*
X152213552Y-121168968D01*
X152239428Y-121190022D01*
X152261979Y-121214304D01*
X152278633Y-121238320D01*
X152291095Y-121264013D01*
X152301108Y-121294155D01*
X152308570Y-121327991D01*
X152313383Y-121364768D01*
X152315446Y-121403733D01*
X152314659Y-121444131D01*
X152311155Y-121483354D01*
X152310377Y-121488508D01*
X152308676Y-121498939D01*
X152306114Y-121514303D01*
X152302749Y-121534254D01*
X152298642Y-121558448D01*
X152293852Y-121586538D01*
X152288439Y-121618180D01*
X152282464Y-121653029D01*
X152275985Y-121690739D01*
X152269063Y-121730966D01*
X152261757Y-121773364D01*
X152254127Y-121817588D01*
X152246234Y-121863293D01*
X152238136Y-121910134D01*
X152229894Y-121957766D01*
X152221568Y-122005842D01*
X152213217Y-122054020D01*
X152204901Y-122101952D01*
X152196680Y-122149294D01*
X152188614Y-122195701D01*
X152180762Y-122240828D01*
X152173185Y-122284329D01*
X152165942Y-122325859D01*
X152159093Y-122365074D01*
X152152697Y-122401628D01*
X152146816Y-122435176D01*
X152141507Y-122465372D01*
X152136833Y-122491872D01*
X152132851Y-122514330D01*
X152129622Y-122532401D01*
X152127205Y-122545741D01*
X152125662Y-122554003D01*
X152125338Y-122555634D01*
X152123727Y-122563483D01*
X151869451Y-122563483D01*
X151871381Y-122551353D01*
X151872071Y-122547303D01*
X151873698Y-122537920D01*
X151876211Y-122523494D01*
X151879558Y-122504317D01*
X151883690Y-122480676D01*
X151888556Y-122452863D01*
X151894104Y-122421166D01*
X151900284Y-122385876D01*
X151907046Y-122347283D01*
X151914338Y-122305676D01*
X151922110Y-122261345D01*
X151930311Y-122214579D01*
X151938890Y-122165669D01*
X151947797Y-122114905D01*
X151956980Y-122062575D01*
X151961982Y-122034078D01*
X151972973Y-121971453D01*
X151983019Y-121914185D01*
X151992161Y-121862008D01*
X152000445Y-121814658D01*
X152007913Y-121771870D01*
X152014607Y-121733380D01*
X152020573Y-121698922D01*
X152025853Y-121668231D01*
X152030489Y-121641043D01*
X152034527Y-121617093D01*
X152038008Y-121596116D01*
X152040976Y-121577847D01*
X152043475Y-121562021D01*
X152045547Y-121548373D01*
X152047236Y-121536639D01*
X152048586Y-121526554D01*
X152049640Y-121517852D01*
X152050440Y-121510270D01*
X152051030Y-121503541D01*
X152051454Y-121497402D01*
X152051755Y-121491587D01*
X152051976Y-121485832D01*
X152052066Y-121483032D01*
X152052532Y-121464760D01*
X152052585Y-121450812D01*
X152052132Y-121439815D01*
X152051082Y-121430395D01*
X152049343Y-121421176D01*
X152047418Y-121413111D01*
X152043562Y-121399625D01*
X152038939Y-121386040D01*
X152034455Y-121374993D01*
X152033827Y-121373668D01*
X152025480Y-121360084D01*
X152013597Y-121345281D01*
X151999652Y-121330779D01*
X151985118Y-121318096D01*
X151971469Y-121308751D01*
X151970108Y-121308004D01*
X151948316Y-121298672D01*
X151922175Y-121291265D01*
X151892737Y-121285859D01*
X151861053Y-121282530D01*
X151828174Y-121281353D01*
X151795152Y-121282406D01*
X151763038Y-121285763D01*
X151734892Y-121291023D01*
X151710673Y-121297429D01*
X151685170Y-121305474D01*
X151660437Y-121314444D01*
X151638525Y-121323625D01*
X151631347Y-121327030D01*
X151610840Y-121337168D01*
X151607656Y-121355994D01*
X151606861Y-121360607D01*
X151605132Y-121370573D01*
X151602517Y-121385621D01*
X151599063Y-121405482D01*
X151594816Y-121429886D01*
X151589823Y-121458562D01*
X151584132Y-121491241D01*
X151577790Y-121527651D01*
X151570843Y-121567524D01*
X151563339Y-121610589D01*
X151555325Y-121656576D01*
X151546848Y-121705214D01*
X151537955Y-121756234D01*
X151528693Y-121809366D01*
X151519109Y-121864339D01*
X151509250Y-121920884D01*
X151500958Y-121968438D01*
X151397445Y-122562056D01*
X151269801Y-122562799D01*
X151142158Y-122563542D01*
X151143874Y-122554237D01*
X151144492Y-122550754D01*
X151146062Y-122541853D01*
X151148547Y-122527736D01*
X151151912Y-122508608D01*
X151156122Y-122484671D01*
X151161140Y-122456129D01*
X151166931Y-122423185D01*
X151173460Y-122386042D01*
X151180690Y-122344904D01*
X151188585Y-122299974D01*
X151197111Y-122251455D01*
X151206231Y-122199551D01*
X151215910Y-122144464D01*
X151226111Y-122086400D01*
X151236799Y-122025559D01*
X151247939Y-121962147D01*
X151259495Y-121896365D01*
X151271430Y-121828419D01*
X151283710Y-121758510D01*
X151296298Y-121686842D01*
X151309159Y-121613619D01*
X151319020Y-121557471D01*
X151492449Y-120570011D01*
X151619955Y-120569268D01*
X151646313Y-120569130D01*
X151670830Y-120569034D01*
X151692934Y-120568977D01*
X151712054Y-120568962D01*
X151727618Y-120568987D01*
X151727618Y-120568987D01*
G37*
X151727618Y-120568987D02*
X151739056Y-120569053D01*
X151745795Y-120569159D01*
X151747423Y-120569268D01*
X151746932Y-120572119D01*
X151745511Y-120580229D01*
X151743225Y-120593236D01*
X151740138Y-120610776D01*
X151736312Y-120632490D01*
X151731813Y-120658013D01*
X151726703Y-120686984D01*
X151721047Y-120719041D01*
X151714909Y-120753822D01*
X151708352Y-120790965D01*
X151701441Y-120830107D01*
X151694238Y-120870886D01*
X151693444Y-120875382D01*
X151686222Y-120916315D01*
X151679296Y-120955650D01*
X151672732Y-120993025D01*
X151666590Y-121028078D01*
X151660934Y-121060447D01*
X151655827Y-121089770D01*
X151651333Y-121115684D01*
X151647513Y-121137828D01*
X151644431Y-121155840D01*
X151642149Y-121169357D01*
X151640732Y-121178017D01*
X151640241Y-121181459D01*
X151640246Y-121181503D01*
X151643018Y-121180832D01*
X151649525Y-121178344D01*
X151657625Y-121174895D01*
X151671562Y-121169187D01*
X151689555Y-121162492D01*
X151710150Y-121155299D01*
X151731891Y-121148098D01*
X151753321Y-121141379D01*
X151772985Y-121135631D01*
X151780281Y-121133648D01*
X151823133Y-121123996D01*
X151867724Y-121117077D01*
X151913265Y-121112855D01*
X151958966Y-121111293D01*
X152004040Y-121112356D01*
X152047696Y-121116007D01*
X152089146Y-121122209D01*
X152127600Y-121130928D01*
X152162271Y-121142125D01*
X152185540Y-121152240D01*
X152213552Y-121168968D01*
X152239428Y-121190022D01*
X152261979Y-121214304D01*
X152278633Y-121238320D01*
X152291095Y-121264013D01*
X152301108Y-121294155D01*
X152308570Y-121327991D01*
X152313383Y-121364768D01*
X152315446Y-121403733D01*
X152314659Y-121444131D01*
X152311155Y-121483354D01*
X152310377Y-121488508D01*
X152308676Y-121498939D01*
X152306114Y-121514303D01*
X152302749Y-121534254D01*
X152298642Y-121558448D01*
X152293852Y-121586538D01*
X152288439Y-121618180D01*
X152282464Y-121653029D01*
X152275985Y-121690739D01*
X152269063Y-121730966D01*
X152261757Y-121773364D01*
X152254127Y-121817588D01*
X152246234Y-121863293D01*
X152238136Y-121910134D01*
X152229894Y-121957766D01*
X152221568Y-122005842D01*
X152213217Y-122054020D01*
X152204901Y-122101952D01*
X152196680Y-122149294D01*
X152188614Y-122195701D01*
X152180762Y-122240828D01*
X152173185Y-122284329D01*
X152165942Y-122325859D01*
X152159093Y-122365074D01*
X152152697Y-122401628D01*
X152146816Y-122435176D01*
X152141507Y-122465372D01*
X152136833Y-122491872D01*
X152132851Y-122514330D01*
X152129622Y-122532401D01*
X152127205Y-122545741D01*
X152125662Y-122554003D01*
X152125338Y-122555634D01*
X152123727Y-122563483D01*
X151869451Y-122563483D01*
X151871381Y-122551353D01*
X151872071Y-122547303D01*
X151873698Y-122537920D01*
X151876211Y-122523494D01*
X151879558Y-122504317D01*
X151883690Y-122480676D01*
X151888556Y-122452863D01*
X151894104Y-122421166D01*
X151900284Y-122385876D01*
X151907046Y-122347283D01*
X151914338Y-122305676D01*
X151922110Y-122261345D01*
X151930311Y-122214579D01*
X151938890Y-122165669D01*
X151947797Y-122114905D01*
X151956980Y-122062575D01*
X151961982Y-122034078D01*
X151972973Y-121971453D01*
X151983019Y-121914185D01*
X151992161Y-121862008D01*
X152000445Y-121814658D01*
X152007913Y-121771870D01*
X152014607Y-121733380D01*
X152020573Y-121698922D01*
X152025853Y-121668231D01*
X152030489Y-121641043D01*
X152034527Y-121617093D01*
X152038008Y-121596116D01*
X152040976Y-121577847D01*
X152043475Y-121562021D01*
X152045547Y-121548373D01*
X152047236Y-121536639D01*
X152048586Y-121526554D01*
X152049640Y-121517852D01*
X152050440Y-121510270D01*
X152051030Y-121503541D01*
X152051454Y-121497402D01*
X152051755Y-121491587D01*
X152051976Y-121485832D01*
X152052066Y-121483032D01*
X152052532Y-121464760D01*
X152052585Y-121450812D01*
X152052132Y-121439815D01*
X152051082Y-121430395D01*
X152049343Y-121421176D01*
X152047418Y-121413111D01*
X152043562Y-121399625D01*
X152038939Y-121386040D01*
X152034455Y-121374993D01*
X152033827Y-121373668D01*
X152025480Y-121360084D01*
X152013597Y-121345281D01*
X151999652Y-121330779D01*
X151985118Y-121318096D01*
X151971469Y-121308751D01*
X151970108Y-121308004D01*
X151948316Y-121298672D01*
X151922175Y-121291265D01*
X151892737Y-121285859D01*
X151861053Y-121282530D01*
X151828174Y-121281353D01*
X151795152Y-121282406D01*
X151763038Y-121285763D01*
X151734892Y-121291023D01*
X151710673Y-121297429D01*
X151685170Y-121305474D01*
X151660437Y-121314444D01*
X151638525Y-121323625D01*
X151631347Y-121327030D01*
X151610840Y-121337168D01*
X151607656Y-121355994D01*
X151606861Y-121360607D01*
X151605132Y-121370573D01*
X151602517Y-121385621D01*
X151599063Y-121405482D01*
X151594816Y-121429886D01*
X151589823Y-121458562D01*
X151584132Y-121491241D01*
X151577790Y-121527651D01*
X151570843Y-121567524D01*
X151563339Y-121610589D01*
X151555325Y-121656576D01*
X151546848Y-121705214D01*
X151537955Y-121756234D01*
X151528693Y-121809366D01*
X151519109Y-121864339D01*
X151509250Y-121920884D01*
X151500958Y-121968438D01*
X151397445Y-122562056D01*
X151269801Y-122562799D01*
X151142158Y-122563542D01*
X151143874Y-122554237D01*
X151144492Y-122550754D01*
X151146062Y-122541853D01*
X151148547Y-122527736D01*
X151151912Y-122508608D01*
X151156122Y-122484671D01*
X151161140Y-122456129D01*
X151166931Y-122423185D01*
X151173460Y-122386042D01*
X151180690Y-122344904D01*
X151188585Y-122299974D01*
X151197111Y-122251455D01*
X151206231Y-122199551D01*
X151215910Y-122144464D01*
X151226111Y-122086400D01*
X151236799Y-122025559D01*
X151247939Y-121962147D01*
X151259495Y-121896365D01*
X151271430Y-121828419D01*
X151283710Y-121758510D01*
X151296298Y-121686842D01*
X151309159Y-121613619D01*
X151319020Y-121557471D01*
X151492449Y-120570011D01*
X151619955Y-120569268D01*
X151646313Y-120569130D01*
X151670830Y-120569034D01*
X151692934Y-120568977D01*
X151712054Y-120568962D01*
X151727618Y-120568987D01*
G36*
X158702584Y-120568987D02*
X158714027Y-120569052D01*
X158720772Y-120569159D01*
X158722406Y-120569268D01*
X158721909Y-120572107D01*
X158720464Y-120580311D01*
X158718115Y-120593625D01*
X158714907Y-120611792D01*
X158710886Y-120634557D01*
X158706096Y-120661665D01*
X158700584Y-120692860D01*
X158694393Y-120727885D01*
X158687569Y-120766486D01*
X158680158Y-120808407D01*
X158672204Y-120853393D01*
X158663753Y-120901186D01*
X158654850Y-120951533D01*
X158645541Y-121004177D01*
X158635869Y-121058863D01*
X158625882Y-121115335D01*
X158615623Y-121173337D01*
X158614311Y-121180752D01*
X158604026Y-121238934D01*
X158594016Y-121295621D01*
X158584326Y-121350559D01*
X158575002Y-121403490D01*
X158566087Y-121454159D01*
X158557627Y-121502310D01*
X158549666Y-121547688D01*
X158542249Y-121590036D01*
X158535421Y-121629098D01*
X158529225Y-121664620D01*
X158523708Y-121696344D01*
X158518914Y-121724016D01*
X158514887Y-121747379D01*
X158511673Y-121766177D01*
X158509315Y-121780154D01*
X158507859Y-121789056D01*
X158507350Y-121792625D01*
X158507355Y-121792683D01*
X158509370Y-121792683D01*
X158511241Y-121790365D01*
X158516500Y-121783853D01*
X158524947Y-121773394D01*
X158536384Y-121759234D01*
X158550612Y-121741620D01*
X158567431Y-121720798D01*
X158586643Y-121697015D01*
X158608048Y-121670516D01*
X158631447Y-121641550D01*
X158656642Y-121610361D01*
X158683433Y-121577196D01*
X158711621Y-121542303D01*
X158741007Y-121505926D01*
X158771392Y-121468314D01*
X158773719Y-121465432D01*
X159037126Y-121139370D01*
X159178384Y-121139370D01*
X159210412Y-121139379D01*
X159237183Y-121139417D01*
X159259150Y-121139499D01*
X159276765Y-121139642D01*
X159290479Y-121139862D01*
X159300743Y-121140176D01*
X159308010Y-121140600D01*
X159312731Y-121141149D01*
X159315358Y-121141841D01*
X159316344Y-121142691D01*
X159316138Y-121143716D01*
X159315726Y-121144303D01*
X159313471Y-121147026D01*
X159307757Y-121153880D01*
X159298787Y-121164619D01*
X159286769Y-121179000D01*
X159271905Y-121196776D01*
X159254402Y-121217704D01*
X159234465Y-121241537D01*
X159212298Y-121268031D01*
X159188106Y-121296941D01*
X159162095Y-121328021D01*
X159134470Y-121361027D01*
X159105435Y-121395714D01*
X159075195Y-121431837D01*
X159043956Y-121469149D01*
X159039259Y-121474760D01*
X159007897Y-121512218D01*
X158977509Y-121548516D01*
X158948299Y-121583410D01*
X158920472Y-121616653D01*
X158894233Y-121648003D01*
X158869786Y-121677214D01*
X158847335Y-121704042D01*
X158827086Y-121728242D01*
X158809244Y-121749571D01*
X158794011Y-121767782D01*
X158781595Y-121782632D01*
X158772198Y-121793877D01*
X158766025Y-121801271D01*
X158763282Y-121804570D01*
X158763179Y-121804697D01*
X158763012Y-121805989D01*
X158763623Y-121808723D01*
X158765119Y-121813128D01*
X158767609Y-121819433D01*
X158771200Y-121827868D01*
X158776002Y-121838663D01*
X158782122Y-121852046D01*
X158789669Y-121868249D01*
X158798751Y-121887499D01*
X158809476Y-121910027D01*
X158821953Y-121936063D01*
X158836290Y-121965835D01*
X158852596Y-121999573D01*
X158870978Y-122037508D01*
X158891546Y-122079868D01*
X158914407Y-122126883D01*
X158939669Y-122178782D01*
X158940821Y-122181147D01*
X158961927Y-122224502D01*
X158982359Y-122266493D01*
X159001974Y-122306831D01*
X159020633Y-122345226D01*
X159038194Y-122381385D01*
X159054517Y-122415020D01*
X159069462Y-122445840D01*
X159082886Y-122473554D01*
X159094650Y-122497872D01*
X159104612Y-122518503D01*
X159112632Y-122535156D01*
X159118569Y-122547542D01*
X159122283Y-122555370D01*
X159123627Y-122558333D01*
X159123778Y-122559502D01*
X159123117Y-122560479D01*
X159121182Y-122561283D01*
X159117513Y-122561929D01*
X159111647Y-122562434D01*
X159103124Y-122562817D01*
X159091482Y-122563094D01*
X159076259Y-122563281D01*
X159056994Y-122563397D01*
X159033226Y-122563457D01*
X159004493Y-122563480D01*
X158984314Y-122563483D01*
X158843367Y-122563483D01*
X158674084Y-122196039D01*
X158654149Y-122152784D01*
X158634851Y-122110943D01*
X158616327Y-122070810D01*
X158598712Y-122032679D01*
X158582144Y-121996844D01*
X158566759Y-121963600D01*
X158552692Y-121933241D01*
X158540081Y-121906060D01*
X158529062Y-121882353D01*
X158519771Y-121862412D01*
X158512344Y-121846533D01*
X158506918Y-121835009D01*
X158503629Y-121828134D01*
X158502622Y-121826173D01*
X158502267Y-121825597D01*
X158501971Y-121824948D01*
X158501682Y-121824504D01*
X158501350Y-121824541D01*
X158500926Y-121825339D01*
X158500358Y-121827175D01*
X158499596Y-121830328D01*
X158498591Y-121835076D01*
X158497291Y-121841696D01*
X158495646Y-121850467D01*
X158493606Y-121861667D01*
X158491120Y-121875573D01*
X158488138Y-121892465D01*
X158484610Y-121912620D01*
X158480485Y-121936316D01*
X158475713Y-121963831D01*
X158470243Y-121995444D01*
X158464025Y-122031432D01*
X158457010Y-122072074D01*
X158449145Y-122117647D01*
X158440381Y-122168430D01*
X158435739Y-122195325D01*
X158428081Y-122239674D01*
X158420674Y-122282527D01*
X158413579Y-122323540D01*
X158406855Y-122362371D01*
X158400561Y-122398676D01*
X158394758Y-122432113D01*
X158389505Y-122462339D01*
X158384862Y-122489009D01*
X158380887Y-122511782D01*
X158377642Y-122530314D01*
X158375185Y-122544261D01*
X158373577Y-122553281D01*
X158372876Y-122557031D01*
X158372869Y-122557061D01*
X158371330Y-122563483D01*
X158244384Y-122563483D01*
X158218089Y-122563436D01*
X158193639Y-122563303D01*
X158171606Y-122563093D01*
X158152563Y-122562816D01*
X158137083Y-122562481D01*
X158125736Y-122562098D01*
X158119096Y-122561677D01*
X158117549Y-122561342D01*
X158118046Y-122558403D01*
X158119496Y-122550043D01*
X158121864Y-122536463D01*
X158125115Y-122517863D01*
X158129214Y-122494444D01*
X158134125Y-122466406D01*
X158139813Y-122433950D01*
X158146243Y-122397278D01*
X158153380Y-122356588D01*
X158161189Y-122312083D01*
X158169634Y-122263962D01*
X158178680Y-122212426D01*
X158188292Y-122157677D01*
X158198435Y-122099914D01*
X158209073Y-122039338D01*
X158220172Y-121976150D01*
X158231696Y-121910550D01*
X158243610Y-121842739D01*
X158255878Y-121772918D01*
X158268466Y-121701288D01*
X158281338Y-121628048D01*
X158292489Y-121564606D01*
X158467318Y-120570011D01*
X158594895Y-120569268D01*
X158621259Y-120569130D01*
X158645782Y-120569034D01*
X158667891Y-120568977D01*
X158687015Y-120568962D01*
X158702584Y-120568987D01*
X158702584Y-120568987D01*
G37*
X158702584Y-120568987D02*
X158714027Y-120569052D01*
X158720772Y-120569159D01*
X158722406Y-120569268D01*
X158721909Y-120572107D01*
X158720464Y-120580311D01*
X158718115Y-120593625D01*
X158714907Y-120611792D01*
X158710886Y-120634557D01*
X158706096Y-120661665D01*
X158700584Y-120692860D01*
X158694393Y-120727885D01*
X158687569Y-120766486D01*
X158680158Y-120808407D01*
X158672204Y-120853393D01*
X158663753Y-120901186D01*
X158654850Y-120951533D01*
X158645541Y-121004177D01*
X158635869Y-121058863D01*
X158625882Y-121115335D01*
X158615623Y-121173337D01*
X158614311Y-121180752D01*
X158604026Y-121238934D01*
X158594016Y-121295621D01*
X158584326Y-121350559D01*
X158575002Y-121403490D01*
X158566087Y-121454159D01*
X158557627Y-121502310D01*
X158549666Y-121547688D01*
X158542249Y-121590036D01*
X158535421Y-121629098D01*
X158529225Y-121664620D01*
X158523708Y-121696344D01*
X158518914Y-121724016D01*
X158514887Y-121747379D01*
X158511673Y-121766177D01*
X158509315Y-121780154D01*
X158507859Y-121789056D01*
X158507350Y-121792625D01*
X158507355Y-121792683D01*
X158509370Y-121792683D01*
X158511241Y-121790365D01*
X158516500Y-121783853D01*
X158524947Y-121773394D01*
X158536384Y-121759234D01*
X158550612Y-121741620D01*
X158567431Y-121720798D01*
X158586643Y-121697015D01*
X158608048Y-121670516D01*
X158631447Y-121641550D01*
X158656642Y-121610361D01*
X158683433Y-121577196D01*
X158711621Y-121542303D01*
X158741007Y-121505926D01*
X158771392Y-121468314D01*
X158773719Y-121465432D01*
X159037126Y-121139370D01*
X159178384Y-121139370D01*
X159210412Y-121139379D01*
X159237183Y-121139417D01*
X159259150Y-121139499D01*
X159276765Y-121139642D01*
X159290479Y-121139862D01*
X159300743Y-121140176D01*
X159308010Y-121140600D01*
X159312731Y-121141149D01*
X159315358Y-121141841D01*
X159316344Y-121142691D01*
X159316138Y-121143716D01*
X159315726Y-121144303D01*
X159313471Y-121147026D01*
X159307757Y-121153880D01*
X159298787Y-121164619D01*
X159286769Y-121179000D01*
X159271905Y-121196776D01*
X159254402Y-121217704D01*
X159234465Y-121241537D01*
X159212298Y-121268031D01*
X159188106Y-121296941D01*
X159162095Y-121328021D01*
X159134470Y-121361027D01*
X159105435Y-121395714D01*
X159075195Y-121431837D01*
X159043956Y-121469149D01*
X159039259Y-121474760D01*
X159007897Y-121512218D01*
X158977509Y-121548516D01*
X158948299Y-121583410D01*
X158920472Y-121616653D01*
X158894233Y-121648003D01*
X158869786Y-121677214D01*
X158847335Y-121704042D01*
X158827086Y-121728242D01*
X158809244Y-121749571D01*
X158794011Y-121767782D01*
X158781595Y-121782632D01*
X158772198Y-121793877D01*
X158766025Y-121801271D01*
X158763282Y-121804570D01*
X158763179Y-121804697D01*
X158763012Y-121805989D01*
X158763623Y-121808723D01*
X158765119Y-121813128D01*
X158767609Y-121819433D01*
X158771200Y-121827868D01*
X158776002Y-121838663D01*
X158782122Y-121852046D01*
X158789669Y-121868249D01*
X158798751Y-121887499D01*
X158809476Y-121910027D01*
X158821953Y-121936063D01*
X158836290Y-121965835D01*
X158852596Y-121999573D01*
X158870978Y-122037508D01*
X158891546Y-122079868D01*
X158914407Y-122126883D01*
X158939669Y-122178782D01*
X158940821Y-122181147D01*
X158961927Y-122224502D01*
X158982359Y-122266493D01*
X159001974Y-122306831D01*
X159020633Y-122345226D01*
X159038194Y-122381385D01*
X159054517Y-122415020D01*
X159069462Y-122445840D01*
X159082886Y-122473554D01*
X159094650Y-122497872D01*
X159104612Y-122518503D01*
X159112632Y-122535156D01*
X159118569Y-122547542D01*
X159122283Y-122555370D01*
X159123627Y-122558333D01*
X159123778Y-122559502D01*
X159123117Y-122560479D01*
X159121182Y-122561283D01*
X159117513Y-122561929D01*
X159111647Y-122562434D01*
X159103124Y-122562817D01*
X159091482Y-122563094D01*
X159076259Y-122563281D01*
X159056994Y-122563397D01*
X159033226Y-122563457D01*
X159004493Y-122563480D01*
X158984314Y-122563483D01*
X158843367Y-122563483D01*
X158674084Y-122196039D01*
X158654149Y-122152784D01*
X158634851Y-122110943D01*
X158616327Y-122070810D01*
X158598712Y-122032679D01*
X158582144Y-121996844D01*
X158566759Y-121963600D01*
X158552692Y-121933241D01*
X158540081Y-121906060D01*
X158529062Y-121882353D01*
X158519771Y-121862412D01*
X158512344Y-121846533D01*
X158506918Y-121835009D01*
X158503629Y-121828134D01*
X158502622Y-121826173D01*
X158502267Y-121825597D01*
X158501971Y-121824948D01*
X158501682Y-121824504D01*
X158501350Y-121824541D01*
X158500926Y-121825339D01*
X158500358Y-121827175D01*
X158499596Y-121830328D01*
X158498591Y-121835076D01*
X158497291Y-121841696D01*
X158495646Y-121850467D01*
X158493606Y-121861667D01*
X158491120Y-121875573D01*
X158488138Y-121892465D01*
X158484610Y-121912620D01*
X158480485Y-121936316D01*
X158475713Y-121963831D01*
X158470243Y-121995444D01*
X158464025Y-122031432D01*
X158457010Y-122072074D01*
X158449145Y-122117647D01*
X158440381Y-122168430D01*
X158435739Y-122195325D01*
X158428081Y-122239674D01*
X158420674Y-122282527D01*
X158413579Y-122323540D01*
X158406855Y-122362371D01*
X158400561Y-122398676D01*
X158394758Y-122432113D01*
X158389505Y-122462339D01*
X158384862Y-122489009D01*
X158380887Y-122511782D01*
X158377642Y-122530314D01*
X158375185Y-122544261D01*
X158373577Y-122553281D01*
X158372876Y-122557031D01*
X158372869Y-122557061D01*
X158371330Y-122563483D01*
X158244384Y-122563483D01*
X158218089Y-122563436D01*
X158193639Y-122563303D01*
X158171606Y-122563093D01*
X158152563Y-122562816D01*
X158137083Y-122562481D01*
X158125736Y-122562098D01*
X158119096Y-122561677D01*
X158117549Y-122561342D01*
X158118046Y-122558403D01*
X158119496Y-122550043D01*
X158121864Y-122536463D01*
X158125115Y-122517863D01*
X158129214Y-122494444D01*
X158134125Y-122466406D01*
X158139813Y-122433950D01*
X158146243Y-122397278D01*
X158153380Y-122356588D01*
X158161189Y-122312083D01*
X158169634Y-122263962D01*
X158178680Y-122212426D01*
X158188292Y-122157677D01*
X158198435Y-122099914D01*
X158209073Y-122039338D01*
X158220172Y-121976150D01*
X158231696Y-121910550D01*
X158243610Y-121842739D01*
X158255878Y-121772918D01*
X158268466Y-121701288D01*
X158281338Y-121628048D01*
X158292489Y-121564606D01*
X158467318Y-120570011D01*
X158594895Y-120569268D01*
X158621259Y-120569130D01*
X158645782Y-120569034D01*
X158667891Y-120568977D01*
X158687015Y-120568962D01*
X158702584Y-120568987D01*
G36*
X149559895Y-120626066D02*
X149582672Y-120626132D01*
X149607695Y-120626240D01*
X149627393Y-120626346D01*
X149754262Y-120627089D01*
X149733584Y-120746955D01*
X149728908Y-120774061D01*
X149724292Y-120800823D01*
X149719880Y-120826406D01*
X149715815Y-120849976D01*
X149712243Y-120870696D01*
X149709306Y-120887733D01*
X149707149Y-120900251D01*
X149706639Y-120903207D01*
X149700372Y-120939595D01*
X149573782Y-120939595D01*
X149543558Y-120939584D01*
X149518551Y-120939537D01*
X149498269Y-120939435D01*
X149482221Y-120939259D01*
X149469917Y-120938990D01*
X149460863Y-120938607D01*
X149454570Y-120938092D01*
X149450547Y-120937425D01*
X149448301Y-120936587D01*
X149447342Y-120935558D01*
X149447171Y-120934601D01*
X149447633Y-120931069D01*
X149448957Y-120922604D01*
X149451033Y-120909831D01*
X149453757Y-120893375D01*
X149457021Y-120873861D01*
X149460717Y-120851914D01*
X149464740Y-120828160D01*
X149468981Y-120803224D01*
X149473335Y-120777730D01*
X149477693Y-120752304D01*
X149481950Y-120727571D01*
X149485999Y-120704156D01*
X149489731Y-120682684D01*
X149493041Y-120663781D01*
X149495822Y-120648071D01*
X149497966Y-120636180D01*
X149499367Y-120628732D01*
X149499902Y-120626346D01*
X149502793Y-120626208D01*
X149510814Y-120626111D01*
X149523389Y-120626055D01*
X149539942Y-120626040D01*
X149559895Y-120626066D01*
X149559895Y-120626066D01*
G37*
X149559895Y-120626066D02*
X149582672Y-120626132D01*
X149607695Y-120626240D01*
X149627393Y-120626346D01*
X149754262Y-120627089D01*
X149733584Y-120746955D01*
X149728908Y-120774061D01*
X149724292Y-120800823D01*
X149719880Y-120826406D01*
X149715815Y-120849976D01*
X149712243Y-120870696D01*
X149709306Y-120887733D01*
X149707149Y-120900251D01*
X149706639Y-120903207D01*
X149700372Y-120939595D01*
X149573782Y-120939595D01*
X149543558Y-120939584D01*
X149518551Y-120939537D01*
X149498269Y-120939435D01*
X149482221Y-120939259D01*
X149469917Y-120938990D01*
X149460863Y-120938607D01*
X149454570Y-120938092D01*
X149450547Y-120937425D01*
X149448301Y-120936587D01*
X149447342Y-120935558D01*
X149447171Y-120934601D01*
X149447633Y-120931069D01*
X149448957Y-120922604D01*
X149451033Y-120909831D01*
X149453757Y-120893375D01*
X149457021Y-120873861D01*
X149460717Y-120851914D01*
X149464740Y-120828160D01*
X149468981Y-120803224D01*
X149473335Y-120777730D01*
X149477693Y-120752304D01*
X149481950Y-120727571D01*
X149485999Y-120704156D01*
X149489731Y-120682684D01*
X149493041Y-120663781D01*
X149495822Y-120648071D01*
X149497966Y-120636180D01*
X149499367Y-120628732D01*
X149499902Y-120626346D01*
X149502793Y-120626208D01*
X149510814Y-120626111D01*
X149523389Y-120626055D01*
X149539942Y-120626040D01*
X149559895Y-120626066D01*
D15*
X163916667Y-118778571D02*
X163583333Y-118778571D01*
X163583333Y-119302381D02*
X163583333Y-118302381D01*
X164059524Y-118302381D01*
X164345238Y-118302381D02*
X164964286Y-118302381D01*
X164630952Y-118683333D01*
X164773810Y-118683333D01*
X164869048Y-118730952D01*
X164916667Y-118778571D01*
X164964286Y-118873810D01*
X164964286Y-119111905D01*
X164916667Y-119207143D01*
X164869048Y-119254762D01*
X164773810Y-119302381D01*
X164488095Y-119302381D01*
X164392857Y-119254762D01*
X164345238Y-119207143D01*
X135066667Y-93828571D02*
X134733333Y-93828571D01*
X134733333Y-94352381D02*
X134733333Y-93352381D01*
X135209524Y-93352381D01*
X135542857Y-93447619D02*
X135590476Y-93400000D01*
X135685714Y-93352381D01*
X135923810Y-93352381D01*
X136019048Y-93400000D01*
X136066667Y-93447619D01*
X136114286Y-93542857D01*
X136114286Y-93638095D01*
X136066667Y-93780952D01*
X135495238Y-94352381D01*
X136114286Y-94352381D01*
X142711905Y-99302381D02*
X142711905Y-98302381D01*
X143092858Y-98302381D01*
X143188096Y-98350000D01*
X143235715Y-98397619D01*
X143283334Y-98492857D01*
X143283334Y-98635714D01*
X143235715Y-98730952D01*
X143188096Y-98778571D01*
X143092858Y-98826190D01*
X142711905Y-98826190D01*
X143664286Y-98397619D02*
X143711905Y-98350000D01*
X143807143Y-98302381D01*
X144045239Y-98302381D01*
X144140477Y-98350000D01*
X144188096Y-98397619D01*
X144235715Y-98492857D01*
X144235715Y-98588095D01*
X144188096Y-98730952D01*
X143616667Y-99302381D01*
X144235715Y-99302381D01*
X142511905Y-115852381D02*
X142511905Y-114852381D01*
X142892858Y-114852381D01*
X142988096Y-114900000D01*
X143035715Y-114947619D01*
X143083334Y-115042857D01*
X143083334Y-115185714D01*
X143035715Y-115280952D01*
X142988096Y-115328571D01*
X142892858Y-115376190D01*
X142511905Y-115376190D01*
X143416667Y-114852381D02*
X144035715Y-114852381D01*
X143702381Y-115233333D01*
X143845239Y-115233333D01*
X143940477Y-115280952D01*
X143988096Y-115328571D01*
X144035715Y-115423810D01*
X144035715Y-115661905D01*
X143988096Y-115757143D01*
X143940477Y-115804762D01*
X143845239Y-115852381D01*
X143559524Y-115852381D01*
X143464286Y-115804762D01*
X143416667Y-115757143D01*
X135616667Y-121728571D02*
X135283333Y-121728571D01*
X135283333Y-122252381D02*
X135283333Y-121252381D01*
X135759524Y-121252381D01*
X136664286Y-122252381D02*
X136092857Y-122252381D01*
X136378571Y-122252381D02*
X136378571Y-121252381D01*
X136283333Y-121395238D01*
X136188095Y-121490476D01*
X136092857Y-121538095D01*
M02*
