G04 #@! TF.FileFunction,Copper,L2,Bot,Signal*
%FSLAX46Y46*%
G04 Gerber Fmt 4.6, Leading zero omitted, Abs format (unit mm)*
G04 Created by KiCad (PCBNEW (2015-11-03 BZR 6296)-product) date Tuesday, November 10, 2015 'PMt' 04:38:30 PM*
%MOMM*%
G01*
G04 APERTURE LIST*
%ADD10C,0.100000*%
%ADD11C,0.010000*%
%ADD12R,0.660000X0.230000*%
%ADD13R,0.660000X0.350000*%
%ADD14R,1.200000X0.750000*%
%ADD15R,0.750000X0.300000*%
%ADD16R,0.875000X0.725000*%
%ADD17R,1.200000X0.900000*%
%ADD18C,1.524000*%
%ADD19R,2.032000X1.727200*%
%ADD20O,2.032000X1.727200*%
%ADD21C,0.685800*%
%ADD22C,0.685801*%
%ADD23C,0.152400*%
%ADD24C,0.254000*%
G04 APERTURE END LIST*
D10*
D11*
G36*
X147190577Y-92135069D02*
X147158906Y-92135572D01*
X147131275Y-92136621D01*
X147106176Y-92138340D01*
X147082107Y-92140851D01*
X147057561Y-92144276D01*
X147031033Y-92148740D01*
X147009069Y-92152815D01*
X146950214Y-92165578D01*
X146889117Y-92181645D01*
X146828664Y-92200182D01*
X146771740Y-92220354D01*
X146760361Y-92224777D01*
X146717183Y-92241970D01*
X146674808Y-92259108D01*
X146632850Y-92276370D01*
X146590920Y-92293937D01*
X146548631Y-92311989D01*
X146505596Y-92330707D01*
X146461427Y-92350271D01*
X146415735Y-92370862D01*
X146368134Y-92392659D01*
X146318236Y-92415844D01*
X146265653Y-92440597D01*
X146209997Y-92467099D01*
X146150882Y-92495528D01*
X146087918Y-92526067D01*
X146020720Y-92558896D01*
X145948898Y-92594194D01*
X145872065Y-92632143D01*
X145789834Y-92672923D01*
X145701817Y-92716714D01*
X145679097Y-92728037D01*
X145600817Y-92766981D01*
X145528298Y-92802880D01*
X145461051Y-92835961D01*
X145398585Y-92866448D01*
X145340411Y-92894567D01*
X145286038Y-92920545D01*
X145234976Y-92944606D01*
X145186735Y-92966978D01*
X145140825Y-92987885D01*
X145096756Y-93007553D01*
X145054038Y-93026208D01*
X145012181Y-93044076D01*
X144970694Y-93061382D01*
X144929088Y-93078353D01*
X144886872Y-93095213D01*
X144853597Y-93108281D01*
X144830074Y-93117518D01*
X144808681Y-93126037D01*
X144790312Y-93133473D01*
X144775857Y-93139460D01*
X144766209Y-93143635D01*
X144762268Y-93145624D01*
X144762801Y-93149719D01*
X144768013Y-93157737D01*
X144777261Y-93168968D01*
X144789900Y-93182704D01*
X144805288Y-93198236D01*
X144822781Y-93214855D01*
X144835822Y-93226657D01*
X144903801Y-93282758D01*
X144978236Y-93336253D01*
X145059006Y-93387086D01*
X145145989Y-93435200D01*
X145239062Y-93480538D01*
X145338103Y-93523043D01*
X145442991Y-93562658D01*
X145553602Y-93599327D01*
X145669815Y-93632992D01*
X145756708Y-93655296D01*
X145857303Y-93678538D01*
X145952291Y-93697867D01*
X146041919Y-93713303D01*
X146126439Y-93724868D01*
X146206099Y-93732580D01*
X146281149Y-93736462D01*
X146351837Y-93736535D01*
X146418413Y-93732818D01*
X146481126Y-93725332D01*
X146518918Y-93718660D01*
X146579550Y-93703748D01*
X146634906Y-93684367D01*
X146684914Y-93660590D01*
X146729501Y-93632491D01*
X146768596Y-93600142D01*
X146802127Y-93563617D01*
X146830021Y-93522988D01*
X146852205Y-93478329D01*
X146868608Y-93429713D01*
X146879158Y-93377214D01*
X146882097Y-93350940D01*
X146882915Y-93339833D01*
X146883851Y-93331698D01*
X146885889Y-93325994D01*
X146890009Y-93322178D01*
X146897194Y-93319710D01*
X146908425Y-93318046D01*
X146924685Y-93316646D01*
X146946955Y-93314967D01*
X146947333Y-93314937D01*
X146974885Y-93312710D01*
X146996056Y-93310816D01*
X147011509Y-93309166D01*
X147021906Y-93307673D01*
X147027910Y-93306249D01*
X147030183Y-93304807D01*
X147030082Y-93303974D01*
X147032027Y-93302665D01*
X147038861Y-93302440D01*
X147048532Y-93303114D01*
X147058990Y-93304497D01*
X147068183Y-93306403D01*
X147072569Y-93307859D01*
X147078077Y-93309376D01*
X147089384Y-93311836D01*
X147105331Y-93315008D01*
X147124759Y-93318665D01*
X147146511Y-93322578D01*
X147151944Y-93323529D01*
X147233430Y-93337036D01*
X147310846Y-93348409D01*
X147386734Y-93357987D01*
X147463633Y-93366109D01*
X147487083Y-93368294D01*
X147509513Y-93369888D01*
X147536719Y-93371121D01*
X147567348Y-93371993D01*
X147600049Y-93372504D01*
X147633471Y-93372652D01*
X147666262Y-93372438D01*
X147697070Y-93371861D01*
X147724545Y-93370920D01*
X147747334Y-93369615D01*
X147760486Y-93368402D01*
X147833314Y-93358747D01*
X147904171Y-93346860D01*
X147974932Y-93332349D01*
X148047473Y-93314822D01*
X148123669Y-93293890D01*
X148139143Y-93289368D01*
X148161757Y-93282575D01*
X148178423Y-93277222D01*
X148190018Y-93272959D01*
X148197422Y-93269438D01*
X148201510Y-93266309D01*
X148202943Y-93263968D01*
X148203909Y-93258855D01*
X148205491Y-93247561D01*
X148207590Y-93230925D01*
X148210105Y-93209783D01*
X148212937Y-93184975D01*
X148215987Y-93157338D01*
X148219082Y-93128392D01*
X148222679Y-93094399D01*
X148225565Y-93066757D01*
X148227688Y-93044791D01*
X148228999Y-93027830D01*
X148229447Y-93015198D01*
X148228982Y-93006223D01*
X148227553Y-93000230D01*
X148225110Y-92996547D01*
X148221603Y-92994499D01*
X148216982Y-92993413D01*
X148211195Y-92992615D01*
X148208909Y-92992283D01*
X148197663Y-92990254D01*
X148180611Y-92986797D01*
X148158807Y-92982151D01*
X148133300Y-92976555D01*
X148105142Y-92970249D01*
X148075385Y-92963471D01*
X148045079Y-92956461D01*
X148015275Y-92949457D01*
X147987025Y-92942700D01*
X147961380Y-92936427D01*
X147942167Y-92931593D01*
X147839538Y-92904234D01*
X147743547Y-92876397D01*
X147653787Y-92847945D01*
X147569847Y-92818742D01*
X147491320Y-92788650D01*
X147417797Y-92757534D01*
X147405944Y-92752213D01*
X147335270Y-92717760D01*
X147263300Y-92678022D01*
X147191754Y-92634092D01*
X147122352Y-92587066D01*
X147056810Y-92538037D01*
X147012597Y-92501786D01*
X146994935Y-92486423D01*
X146976602Y-92470012D01*
X146958316Y-92453244D01*
X146940794Y-92436810D01*
X146924751Y-92421401D01*
X146910905Y-92407709D01*
X146899973Y-92396424D01*
X146892671Y-92388238D01*
X146889717Y-92383841D01*
X146889781Y-92383368D01*
X146895886Y-92380119D01*
X146907863Y-92375797D01*
X146924653Y-92370663D01*
X146945199Y-92364980D01*
X146968444Y-92359011D01*
X146993330Y-92353019D01*
X147018801Y-92347265D01*
X147043799Y-92342013D01*
X147067268Y-92337526D01*
X147088148Y-92334065D01*
X147088444Y-92334021D01*
X147143487Y-92327477D01*
X147197821Y-92324423D01*
X147252961Y-92324893D01*
X147310419Y-92328923D01*
X147371711Y-92336548D01*
X147401539Y-92341261D01*
X147494796Y-92359850D01*
X147584229Y-92383707D01*
X147669623Y-92412725D01*
X147750766Y-92446797D01*
X147827443Y-92485818D01*
X147899442Y-92529681D01*
X147966549Y-92578280D01*
X148028551Y-92631509D01*
X148072051Y-92674915D01*
X148114426Y-92723556D01*
X148152464Y-92774333D01*
X148185507Y-92826230D01*
X148212895Y-92878230D01*
X148230344Y-92919355D01*
X148235320Y-92931769D01*
X148239944Y-92941937D01*
X148243211Y-92947652D01*
X148246468Y-92950958D01*
X148254369Y-92958670D01*
X148266439Y-92970334D01*
X148282207Y-92985496D01*
X148301199Y-93003704D01*
X148322943Y-93024504D01*
X148346966Y-93047442D01*
X148372795Y-93072065D01*
X148391958Y-93090309D01*
X148418659Y-93115737D01*
X148443792Y-93139712D01*
X148466896Y-93161794D01*
X148487514Y-93181540D01*
X148505187Y-93198513D01*
X148519455Y-93212270D01*
X148529861Y-93222371D01*
X148535945Y-93228376D01*
X148537393Y-93229922D01*
X148534428Y-93231699D01*
X148525616Y-93236052D01*
X148511564Y-93242701D01*
X148492877Y-93251368D01*
X148470164Y-93261773D01*
X148444028Y-93273637D01*
X148415077Y-93286683D01*
X148383917Y-93300630D01*
X148376532Y-93303923D01*
X148214874Y-93375942D01*
X148198019Y-93436214D01*
X148189906Y-93464199D01*
X148180059Y-93496534D01*
X148169084Y-93531347D01*
X148157589Y-93566762D01*
X148146183Y-93600907D01*
X148135473Y-93631907D01*
X148126489Y-93656757D01*
X148121041Y-93670443D01*
X148116521Y-93678917D01*
X148111864Y-93683733D01*
X148106170Y-93686392D01*
X148098868Y-93687558D01*
X148085547Y-93688496D01*
X148067240Y-93689209D01*
X148044980Y-93689697D01*
X148019799Y-93689965D01*
X147992731Y-93690013D01*
X147964808Y-93689845D01*
X147937063Y-93689461D01*
X147910528Y-93688866D01*
X147886237Y-93688060D01*
X147865223Y-93687046D01*
X147848681Y-93685841D01*
X147685739Y-93668212D01*
X147585861Y-93654838D01*
X147543141Y-93648400D01*
X147506322Y-93642100D01*
X147474266Y-93635624D01*
X147445833Y-93628661D01*
X147419884Y-93620899D01*
X147395279Y-93612025D01*
X147370878Y-93601727D01*
X147345543Y-93589694D01*
X147342444Y-93588147D01*
X147286885Y-93556813D01*
X147232336Y-93519211D01*
X147179767Y-93476128D01*
X147130148Y-93428353D01*
X147089686Y-93383042D01*
X147071653Y-93361319D01*
X147069252Y-93386569D01*
X147062225Y-93433991D01*
X147050319Y-93483168D01*
X147034198Y-93532224D01*
X147014523Y-93579282D01*
X146991958Y-93622463D01*
X146978281Y-93644289D01*
X146940660Y-93694006D01*
X146897859Y-93739003D01*
X146849963Y-93779251D01*
X146797063Y-93814723D01*
X146739243Y-93845389D01*
X146676594Y-93871223D01*
X146609201Y-93892197D01*
X146537152Y-93908282D01*
X146460535Y-93919451D01*
X146379438Y-93925676D01*
X146293947Y-93926929D01*
X146204152Y-93923182D01*
X146125361Y-93916139D01*
X146052218Y-93906822D01*
X145974125Y-93894509D01*
X145892379Y-93879481D01*
X145808276Y-93862024D01*
X145723113Y-93842418D01*
X145638187Y-93820949D01*
X145554795Y-93797899D01*
X145478014Y-93774745D01*
X145380540Y-93742112D01*
X145286214Y-93706670D01*
X145195387Y-93668629D01*
X145108408Y-93628203D01*
X145025628Y-93585600D01*
X144947396Y-93541034D01*
X144874063Y-93494714D01*
X144805979Y-93446853D01*
X144743494Y-93397661D01*
X144686959Y-93347350D01*
X144636722Y-93296131D01*
X144593135Y-93244215D01*
X144588484Y-93238103D01*
X144578868Y-93225676D01*
X144572108Y-93218104D01*
X144567071Y-93214422D01*
X144562623Y-93213664D01*
X144560274Y-93214079D01*
X144540837Y-93218388D01*
X144515760Y-93223070D01*
X144486432Y-93227922D01*
X144454243Y-93232737D01*
X144420585Y-93237313D01*
X144386848Y-93241443D01*
X144354422Y-93244923D01*
X144343833Y-93245932D01*
X144312095Y-93248462D01*
X144280112Y-93250184D01*
X144247209Y-93251067D01*
X144212710Y-93251080D01*
X144175940Y-93250194D01*
X144136225Y-93248377D01*
X144092887Y-93245599D01*
X144045254Y-93241829D01*
X143992648Y-93237037D01*
X143934395Y-93231192D01*
X143872875Y-93224600D01*
X143783835Y-93214237D01*
X143688361Y-93202018D01*
X143586807Y-93188007D01*
X143479531Y-93172269D01*
X143366885Y-93154868D01*
X143249226Y-93135867D01*
X143126909Y-93115332D01*
X143000288Y-93093326D01*
X142869720Y-93069914D01*
X142735559Y-93045160D01*
X142598160Y-93019128D01*
X142457879Y-92991882D01*
X142315070Y-92963486D01*
X142170089Y-92934006D01*
X142023291Y-92903505D01*
X141875031Y-92872046D01*
X141725665Y-92839696D01*
X141638028Y-92820408D01*
X141593534Y-92810554D01*
X141555316Y-92802267D01*
X141522742Y-92795680D01*
X141495177Y-92790928D01*
X141471989Y-92788146D01*
X141452545Y-92787468D01*
X141436212Y-92789028D01*
X141422358Y-92792962D01*
X141410348Y-92799404D01*
X141399551Y-92808488D01*
X141389333Y-92820348D01*
X141379062Y-92835120D01*
X141368104Y-92852938D01*
X141355826Y-92873936D01*
X141351547Y-92881295D01*
X141314278Y-92947072D01*
X141279346Y-93012322D01*
X141247145Y-93076214D01*
X141218071Y-93137915D01*
X141192519Y-93196594D01*
X141170883Y-93251419D01*
X141157018Y-93290859D01*
X141141558Y-93343272D01*
X141130842Y-93392184D01*
X141124842Y-93437367D01*
X141123531Y-93478594D01*
X141126881Y-93515635D01*
X141134866Y-93548262D01*
X141147457Y-93576247D01*
X141164628Y-93599362D01*
X141186351Y-93617378D01*
X141196876Y-93623395D01*
X141207009Y-93628154D01*
X141218059Y-93632524D01*
X141230385Y-93636533D01*
X141244343Y-93640209D01*
X141260291Y-93643581D01*
X141278587Y-93646677D01*
X141299586Y-93649524D01*
X141323648Y-93652152D01*
X141351128Y-93654587D01*
X141382385Y-93656859D01*
X141417775Y-93658995D01*
X141457657Y-93661023D01*
X141502387Y-93662973D01*
X141552323Y-93664871D01*
X141607822Y-93666746D01*
X141669241Y-93668626D01*
X141736938Y-93670540D01*
X141811269Y-93672515D01*
X141825000Y-93672869D01*
X141947077Y-93676207D01*
X142062656Y-93679786D01*
X142172293Y-93683639D01*
X142276544Y-93687794D01*
X142375963Y-93692284D01*
X142471105Y-93697138D01*
X142562526Y-93702388D01*
X142650781Y-93708064D01*
X142736426Y-93714196D01*
X142820015Y-93720816D01*
X142902103Y-93727954D01*
X142983246Y-93735640D01*
X143010333Y-93738345D01*
X143139033Y-93752177D01*
X143263498Y-93767273D01*
X143384477Y-93783805D01*
X143502719Y-93801941D01*
X143618972Y-93821851D01*
X143733984Y-93843705D01*
X143848504Y-93867671D01*
X143963279Y-93893920D01*
X144079059Y-93922620D01*
X144196592Y-93953942D01*
X144316627Y-93988054D01*
X144439910Y-94025127D01*
X144567192Y-94065329D01*
X144699220Y-94108830D01*
X144804208Y-94144551D01*
X144854068Y-94162059D01*
X144901600Y-94179485D01*
X144947473Y-94197150D01*
X144992357Y-94215374D01*
X145036920Y-94234476D01*
X145081833Y-94254779D01*
X145127765Y-94276601D01*
X145175385Y-94300263D01*
X145225363Y-94326085D01*
X145278367Y-94354388D01*
X145335068Y-94385492D01*
X145396135Y-94419717D01*
X145462237Y-94457384D01*
X145483306Y-94469493D01*
X145541927Y-94503223D01*
X145594898Y-94533651D01*
X145642666Y-94561025D01*
X145685679Y-94585591D01*
X145724384Y-94607596D01*
X145759229Y-94627287D01*
X145790662Y-94644910D01*
X145819130Y-94660714D01*
X145845081Y-94674944D01*
X145868963Y-94687848D01*
X145891223Y-94699672D01*
X145912308Y-94710664D01*
X145932668Y-94721070D01*
X145952748Y-94731138D01*
X145972997Y-94741113D01*
X145993862Y-94751244D01*
X145995694Y-94752128D01*
X146063133Y-94783565D01*
X146126750Y-94810819D01*
X146187918Y-94834282D01*
X146248008Y-94854345D01*
X146308391Y-94871402D01*
X146370440Y-94885844D01*
X146435526Y-94898064D01*
X146505022Y-94908454D01*
X146569861Y-94916279D01*
X146610848Y-94920039D01*
X146656794Y-94922999D01*
X146705642Y-94925105D01*
X146755337Y-94926301D01*
X146803821Y-94926532D01*
X146849038Y-94925744D01*
X146878542Y-94924508D01*
X146958088Y-94917865D01*
X147038544Y-94906743D01*
X147118722Y-94891443D01*
X147197433Y-94872263D01*
X147273489Y-94849501D01*
X147345702Y-94823456D01*
X147412884Y-94794427D01*
X147430992Y-94785625D01*
X147511972Y-94741372D01*
X147591194Y-94690408D01*
X147668518Y-94632893D01*
X147743805Y-94568983D01*
X147816914Y-94498836D01*
X147887705Y-94422610D01*
X147956040Y-94340463D01*
X148021777Y-94252552D01*
X148084778Y-94159036D01*
X148144903Y-94060070D01*
X148202011Y-93955814D01*
X148247103Y-93865201D01*
X148265441Y-93825287D01*
X148283063Y-93783922D01*
X148300474Y-93739814D01*
X148318181Y-93691672D01*
X148336690Y-93638204D01*
X148341035Y-93625250D01*
X148348704Y-93601804D01*
X148356807Y-93576214D01*
X148364992Y-93549673D01*
X148372907Y-93523373D01*
X148380199Y-93498508D01*
X148386515Y-93476269D01*
X148391504Y-93457848D01*
X148394813Y-93444440D01*
X148395622Y-93440558D01*
X148397791Y-93428996D01*
X148602405Y-93346428D01*
X148638385Y-93331883D01*
X148672393Y-93318085D01*
X148703868Y-93305266D01*
X148732252Y-93293654D01*
X148756986Y-93283480D01*
X148777510Y-93274974D01*
X148793266Y-93268367D01*
X148803693Y-93263889D01*
X148808232Y-93261769D01*
X148808381Y-93261656D01*
X148806040Y-93259006D01*
X148798838Y-93252050D01*
X148787188Y-93241163D01*
X148771505Y-93226724D01*
X148752203Y-93209108D01*
X148729696Y-93188694D01*
X148704399Y-93165859D01*
X148676726Y-93140979D01*
X148647091Y-93114432D01*
X148621714Y-93091769D01*
X148585698Y-93059640D01*
X148554584Y-93031846D01*
X148528002Y-93008033D01*
X148505585Y-92987848D01*
X148486962Y-92970935D01*
X148471765Y-92956942D01*
X148459624Y-92945513D01*
X148450170Y-92936294D01*
X148443035Y-92928931D01*
X148437848Y-92923071D01*
X148434241Y-92918358D01*
X148431844Y-92914439D01*
X148430288Y-92910959D01*
X148429205Y-92907565D01*
X148429021Y-92906897D01*
X148422612Y-92886348D01*
X148413510Y-92861398D01*
X148402440Y-92833816D01*
X148390126Y-92805375D01*
X148377295Y-92777843D01*
X148370700Y-92764554D01*
X148338251Y-92706345D01*
X148301023Y-92650220D01*
X148258334Y-92595249D01*
X148209501Y-92540502D01*
X148196358Y-92526849D01*
X148140849Y-92473310D01*
X148083569Y-92424827D01*
X148023315Y-92380531D01*
X147958883Y-92339557D01*
X147889069Y-92301037D01*
X147868083Y-92290420D01*
X147800029Y-92258548D01*
X147732015Y-92230713D01*
X147662813Y-92206541D01*
X147591193Y-92185659D01*
X147515928Y-92167692D01*
X147435788Y-92152268D01*
X147389320Y-92144752D01*
X147369484Y-92141832D01*
X147352156Y-92139566D01*
X147335939Y-92137870D01*
X147319438Y-92136659D01*
X147301258Y-92135848D01*
X147280002Y-92135355D01*
X147254276Y-92135094D01*
X147227792Y-92134991D01*
X147190577Y-92135069D01*
X147190577Y-92135069D01*
G37*
X147190577Y-92135069D02*
X147158906Y-92135572D01*
X147131275Y-92136621D01*
X147106176Y-92138340D01*
X147082107Y-92140851D01*
X147057561Y-92144276D01*
X147031033Y-92148740D01*
X147009069Y-92152815D01*
X146950214Y-92165578D01*
X146889117Y-92181645D01*
X146828664Y-92200182D01*
X146771740Y-92220354D01*
X146760361Y-92224777D01*
X146717183Y-92241970D01*
X146674808Y-92259108D01*
X146632850Y-92276370D01*
X146590920Y-92293937D01*
X146548631Y-92311989D01*
X146505596Y-92330707D01*
X146461427Y-92350271D01*
X146415735Y-92370862D01*
X146368134Y-92392659D01*
X146318236Y-92415844D01*
X146265653Y-92440597D01*
X146209997Y-92467099D01*
X146150882Y-92495528D01*
X146087918Y-92526067D01*
X146020720Y-92558896D01*
X145948898Y-92594194D01*
X145872065Y-92632143D01*
X145789834Y-92672923D01*
X145701817Y-92716714D01*
X145679097Y-92728037D01*
X145600817Y-92766981D01*
X145528298Y-92802880D01*
X145461051Y-92835961D01*
X145398585Y-92866448D01*
X145340411Y-92894567D01*
X145286038Y-92920545D01*
X145234976Y-92944606D01*
X145186735Y-92966978D01*
X145140825Y-92987885D01*
X145096756Y-93007553D01*
X145054038Y-93026208D01*
X145012181Y-93044076D01*
X144970694Y-93061382D01*
X144929088Y-93078353D01*
X144886872Y-93095213D01*
X144853597Y-93108281D01*
X144830074Y-93117518D01*
X144808681Y-93126037D01*
X144790312Y-93133473D01*
X144775857Y-93139460D01*
X144766209Y-93143635D01*
X144762268Y-93145624D01*
X144762801Y-93149719D01*
X144768013Y-93157737D01*
X144777261Y-93168968D01*
X144789900Y-93182704D01*
X144805288Y-93198236D01*
X144822781Y-93214855D01*
X144835822Y-93226657D01*
X144903801Y-93282758D01*
X144978236Y-93336253D01*
X145059006Y-93387086D01*
X145145989Y-93435200D01*
X145239062Y-93480538D01*
X145338103Y-93523043D01*
X145442991Y-93562658D01*
X145553602Y-93599327D01*
X145669815Y-93632992D01*
X145756708Y-93655296D01*
X145857303Y-93678538D01*
X145952291Y-93697867D01*
X146041919Y-93713303D01*
X146126439Y-93724868D01*
X146206099Y-93732580D01*
X146281149Y-93736462D01*
X146351837Y-93736535D01*
X146418413Y-93732818D01*
X146481126Y-93725332D01*
X146518918Y-93718660D01*
X146579550Y-93703748D01*
X146634906Y-93684367D01*
X146684914Y-93660590D01*
X146729501Y-93632491D01*
X146768596Y-93600142D01*
X146802127Y-93563617D01*
X146830021Y-93522988D01*
X146852205Y-93478329D01*
X146868608Y-93429713D01*
X146879158Y-93377214D01*
X146882097Y-93350940D01*
X146882915Y-93339833D01*
X146883851Y-93331698D01*
X146885889Y-93325994D01*
X146890009Y-93322178D01*
X146897194Y-93319710D01*
X146908425Y-93318046D01*
X146924685Y-93316646D01*
X146946955Y-93314967D01*
X146947333Y-93314937D01*
X146974885Y-93312710D01*
X146996056Y-93310816D01*
X147011509Y-93309166D01*
X147021906Y-93307673D01*
X147027910Y-93306249D01*
X147030183Y-93304807D01*
X147030082Y-93303974D01*
X147032027Y-93302665D01*
X147038861Y-93302440D01*
X147048532Y-93303114D01*
X147058990Y-93304497D01*
X147068183Y-93306403D01*
X147072569Y-93307859D01*
X147078077Y-93309376D01*
X147089384Y-93311836D01*
X147105331Y-93315008D01*
X147124759Y-93318665D01*
X147146511Y-93322578D01*
X147151944Y-93323529D01*
X147233430Y-93337036D01*
X147310846Y-93348409D01*
X147386734Y-93357987D01*
X147463633Y-93366109D01*
X147487083Y-93368294D01*
X147509513Y-93369888D01*
X147536719Y-93371121D01*
X147567348Y-93371993D01*
X147600049Y-93372504D01*
X147633471Y-93372652D01*
X147666262Y-93372438D01*
X147697070Y-93371861D01*
X147724545Y-93370920D01*
X147747334Y-93369615D01*
X147760486Y-93368402D01*
X147833314Y-93358747D01*
X147904171Y-93346860D01*
X147974932Y-93332349D01*
X148047473Y-93314822D01*
X148123669Y-93293890D01*
X148139143Y-93289368D01*
X148161757Y-93282575D01*
X148178423Y-93277222D01*
X148190018Y-93272959D01*
X148197422Y-93269438D01*
X148201510Y-93266309D01*
X148202943Y-93263968D01*
X148203909Y-93258855D01*
X148205491Y-93247561D01*
X148207590Y-93230925D01*
X148210105Y-93209783D01*
X148212937Y-93184975D01*
X148215987Y-93157338D01*
X148219082Y-93128392D01*
X148222679Y-93094399D01*
X148225565Y-93066757D01*
X148227688Y-93044791D01*
X148228999Y-93027830D01*
X148229447Y-93015198D01*
X148228982Y-93006223D01*
X148227553Y-93000230D01*
X148225110Y-92996547D01*
X148221603Y-92994499D01*
X148216982Y-92993413D01*
X148211195Y-92992615D01*
X148208909Y-92992283D01*
X148197663Y-92990254D01*
X148180611Y-92986797D01*
X148158807Y-92982151D01*
X148133300Y-92976555D01*
X148105142Y-92970249D01*
X148075385Y-92963471D01*
X148045079Y-92956461D01*
X148015275Y-92949457D01*
X147987025Y-92942700D01*
X147961380Y-92936427D01*
X147942167Y-92931593D01*
X147839538Y-92904234D01*
X147743547Y-92876397D01*
X147653787Y-92847945D01*
X147569847Y-92818742D01*
X147491320Y-92788650D01*
X147417797Y-92757534D01*
X147405944Y-92752213D01*
X147335270Y-92717760D01*
X147263300Y-92678022D01*
X147191754Y-92634092D01*
X147122352Y-92587066D01*
X147056810Y-92538037D01*
X147012597Y-92501786D01*
X146994935Y-92486423D01*
X146976602Y-92470012D01*
X146958316Y-92453244D01*
X146940794Y-92436810D01*
X146924751Y-92421401D01*
X146910905Y-92407709D01*
X146899973Y-92396424D01*
X146892671Y-92388238D01*
X146889717Y-92383841D01*
X146889781Y-92383368D01*
X146895886Y-92380119D01*
X146907863Y-92375797D01*
X146924653Y-92370663D01*
X146945199Y-92364980D01*
X146968444Y-92359011D01*
X146993330Y-92353019D01*
X147018801Y-92347265D01*
X147043799Y-92342013D01*
X147067268Y-92337526D01*
X147088148Y-92334065D01*
X147088444Y-92334021D01*
X147143487Y-92327477D01*
X147197821Y-92324423D01*
X147252961Y-92324893D01*
X147310419Y-92328923D01*
X147371711Y-92336548D01*
X147401539Y-92341261D01*
X147494796Y-92359850D01*
X147584229Y-92383707D01*
X147669623Y-92412725D01*
X147750766Y-92446797D01*
X147827443Y-92485818D01*
X147899442Y-92529681D01*
X147966549Y-92578280D01*
X148028551Y-92631509D01*
X148072051Y-92674915D01*
X148114426Y-92723556D01*
X148152464Y-92774333D01*
X148185507Y-92826230D01*
X148212895Y-92878230D01*
X148230344Y-92919355D01*
X148235320Y-92931769D01*
X148239944Y-92941937D01*
X148243211Y-92947652D01*
X148246468Y-92950958D01*
X148254369Y-92958670D01*
X148266439Y-92970334D01*
X148282207Y-92985496D01*
X148301199Y-93003704D01*
X148322943Y-93024504D01*
X148346966Y-93047442D01*
X148372795Y-93072065D01*
X148391958Y-93090309D01*
X148418659Y-93115737D01*
X148443792Y-93139712D01*
X148466896Y-93161794D01*
X148487514Y-93181540D01*
X148505187Y-93198513D01*
X148519455Y-93212270D01*
X148529861Y-93222371D01*
X148535945Y-93228376D01*
X148537393Y-93229922D01*
X148534428Y-93231699D01*
X148525616Y-93236052D01*
X148511564Y-93242701D01*
X148492877Y-93251368D01*
X148470164Y-93261773D01*
X148444028Y-93273637D01*
X148415077Y-93286683D01*
X148383917Y-93300630D01*
X148376532Y-93303923D01*
X148214874Y-93375942D01*
X148198019Y-93436214D01*
X148189906Y-93464199D01*
X148180059Y-93496534D01*
X148169084Y-93531347D01*
X148157589Y-93566762D01*
X148146183Y-93600907D01*
X148135473Y-93631907D01*
X148126489Y-93656757D01*
X148121041Y-93670443D01*
X148116521Y-93678917D01*
X148111864Y-93683733D01*
X148106170Y-93686392D01*
X148098868Y-93687558D01*
X148085547Y-93688496D01*
X148067240Y-93689209D01*
X148044980Y-93689697D01*
X148019799Y-93689965D01*
X147992731Y-93690013D01*
X147964808Y-93689845D01*
X147937063Y-93689461D01*
X147910528Y-93688866D01*
X147886237Y-93688060D01*
X147865223Y-93687046D01*
X147848681Y-93685841D01*
X147685739Y-93668212D01*
X147585861Y-93654838D01*
X147543141Y-93648400D01*
X147506322Y-93642100D01*
X147474266Y-93635624D01*
X147445833Y-93628661D01*
X147419884Y-93620899D01*
X147395279Y-93612025D01*
X147370878Y-93601727D01*
X147345543Y-93589694D01*
X147342444Y-93588147D01*
X147286885Y-93556813D01*
X147232336Y-93519211D01*
X147179767Y-93476128D01*
X147130148Y-93428353D01*
X147089686Y-93383042D01*
X147071653Y-93361319D01*
X147069252Y-93386569D01*
X147062225Y-93433991D01*
X147050319Y-93483168D01*
X147034198Y-93532224D01*
X147014523Y-93579282D01*
X146991958Y-93622463D01*
X146978281Y-93644289D01*
X146940660Y-93694006D01*
X146897859Y-93739003D01*
X146849963Y-93779251D01*
X146797063Y-93814723D01*
X146739243Y-93845389D01*
X146676594Y-93871223D01*
X146609201Y-93892197D01*
X146537152Y-93908282D01*
X146460535Y-93919451D01*
X146379438Y-93925676D01*
X146293947Y-93926929D01*
X146204152Y-93923182D01*
X146125361Y-93916139D01*
X146052218Y-93906822D01*
X145974125Y-93894509D01*
X145892379Y-93879481D01*
X145808276Y-93862024D01*
X145723113Y-93842418D01*
X145638187Y-93820949D01*
X145554795Y-93797899D01*
X145478014Y-93774745D01*
X145380540Y-93742112D01*
X145286214Y-93706670D01*
X145195387Y-93668629D01*
X145108408Y-93628203D01*
X145025628Y-93585600D01*
X144947396Y-93541034D01*
X144874063Y-93494714D01*
X144805979Y-93446853D01*
X144743494Y-93397661D01*
X144686959Y-93347350D01*
X144636722Y-93296131D01*
X144593135Y-93244215D01*
X144588484Y-93238103D01*
X144578868Y-93225676D01*
X144572108Y-93218104D01*
X144567071Y-93214422D01*
X144562623Y-93213664D01*
X144560274Y-93214079D01*
X144540837Y-93218388D01*
X144515760Y-93223070D01*
X144486432Y-93227922D01*
X144454243Y-93232737D01*
X144420585Y-93237313D01*
X144386848Y-93241443D01*
X144354422Y-93244923D01*
X144343833Y-93245932D01*
X144312095Y-93248462D01*
X144280112Y-93250184D01*
X144247209Y-93251067D01*
X144212710Y-93251080D01*
X144175940Y-93250194D01*
X144136225Y-93248377D01*
X144092887Y-93245599D01*
X144045254Y-93241829D01*
X143992648Y-93237037D01*
X143934395Y-93231192D01*
X143872875Y-93224600D01*
X143783835Y-93214237D01*
X143688361Y-93202018D01*
X143586807Y-93188007D01*
X143479531Y-93172269D01*
X143366885Y-93154868D01*
X143249226Y-93135867D01*
X143126909Y-93115332D01*
X143000288Y-93093326D01*
X142869720Y-93069914D01*
X142735559Y-93045160D01*
X142598160Y-93019128D01*
X142457879Y-92991882D01*
X142315070Y-92963486D01*
X142170089Y-92934006D01*
X142023291Y-92903505D01*
X141875031Y-92872046D01*
X141725665Y-92839696D01*
X141638028Y-92820408D01*
X141593534Y-92810554D01*
X141555316Y-92802267D01*
X141522742Y-92795680D01*
X141495177Y-92790928D01*
X141471989Y-92788146D01*
X141452545Y-92787468D01*
X141436212Y-92789028D01*
X141422358Y-92792962D01*
X141410348Y-92799404D01*
X141399551Y-92808488D01*
X141389333Y-92820348D01*
X141379062Y-92835120D01*
X141368104Y-92852938D01*
X141355826Y-92873936D01*
X141351547Y-92881295D01*
X141314278Y-92947072D01*
X141279346Y-93012322D01*
X141247145Y-93076214D01*
X141218071Y-93137915D01*
X141192519Y-93196594D01*
X141170883Y-93251419D01*
X141157018Y-93290859D01*
X141141558Y-93343272D01*
X141130842Y-93392184D01*
X141124842Y-93437367D01*
X141123531Y-93478594D01*
X141126881Y-93515635D01*
X141134866Y-93548262D01*
X141147457Y-93576247D01*
X141164628Y-93599362D01*
X141186351Y-93617378D01*
X141196876Y-93623395D01*
X141207009Y-93628154D01*
X141218059Y-93632524D01*
X141230385Y-93636533D01*
X141244343Y-93640209D01*
X141260291Y-93643581D01*
X141278587Y-93646677D01*
X141299586Y-93649524D01*
X141323648Y-93652152D01*
X141351128Y-93654587D01*
X141382385Y-93656859D01*
X141417775Y-93658995D01*
X141457657Y-93661023D01*
X141502387Y-93662973D01*
X141552323Y-93664871D01*
X141607822Y-93666746D01*
X141669241Y-93668626D01*
X141736938Y-93670540D01*
X141811269Y-93672515D01*
X141825000Y-93672869D01*
X141947077Y-93676207D01*
X142062656Y-93679786D01*
X142172293Y-93683639D01*
X142276544Y-93687794D01*
X142375963Y-93692284D01*
X142471105Y-93697138D01*
X142562526Y-93702388D01*
X142650781Y-93708064D01*
X142736426Y-93714196D01*
X142820015Y-93720816D01*
X142902103Y-93727954D01*
X142983246Y-93735640D01*
X143010333Y-93738345D01*
X143139033Y-93752177D01*
X143263498Y-93767273D01*
X143384477Y-93783805D01*
X143502719Y-93801941D01*
X143618972Y-93821851D01*
X143733984Y-93843705D01*
X143848504Y-93867671D01*
X143963279Y-93893920D01*
X144079059Y-93922620D01*
X144196592Y-93953942D01*
X144316627Y-93988054D01*
X144439910Y-94025127D01*
X144567192Y-94065329D01*
X144699220Y-94108830D01*
X144804208Y-94144551D01*
X144854068Y-94162059D01*
X144901600Y-94179485D01*
X144947473Y-94197150D01*
X144992357Y-94215374D01*
X145036920Y-94234476D01*
X145081833Y-94254779D01*
X145127765Y-94276601D01*
X145175385Y-94300263D01*
X145225363Y-94326085D01*
X145278367Y-94354388D01*
X145335068Y-94385492D01*
X145396135Y-94419717D01*
X145462237Y-94457384D01*
X145483306Y-94469493D01*
X145541927Y-94503223D01*
X145594898Y-94533651D01*
X145642666Y-94561025D01*
X145685679Y-94585591D01*
X145724384Y-94607596D01*
X145759229Y-94627287D01*
X145790662Y-94644910D01*
X145819130Y-94660714D01*
X145845081Y-94674944D01*
X145868963Y-94687848D01*
X145891223Y-94699672D01*
X145912308Y-94710664D01*
X145932668Y-94721070D01*
X145952748Y-94731138D01*
X145972997Y-94741113D01*
X145993862Y-94751244D01*
X145995694Y-94752128D01*
X146063133Y-94783565D01*
X146126750Y-94810819D01*
X146187918Y-94834282D01*
X146248008Y-94854345D01*
X146308391Y-94871402D01*
X146370440Y-94885844D01*
X146435526Y-94898064D01*
X146505022Y-94908454D01*
X146569861Y-94916279D01*
X146610848Y-94920039D01*
X146656794Y-94922999D01*
X146705642Y-94925105D01*
X146755337Y-94926301D01*
X146803821Y-94926532D01*
X146849038Y-94925744D01*
X146878542Y-94924508D01*
X146958088Y-94917865D01*
X147038544Y-94906743D01*
X147118722Y-94891443D01*
X147197433Y-94872263D01*
X147273489Y-94849501D01*
X147345702Y-94823456D01*
X147412884Y-94794427D01*
X147430992Y-94785625D01*
X147511972Y-94741372D01*
X147591194Y-94690408D01*
X147668518Y-94632893D01*
X147743805Y-94568983D01*
X147816914Y-94498836D01*
X147887705Y-94422610D01*
X147956040Y-94340463D01*
X148021777Y-94252552D01*
X148084778Y-94159036D01*
X148144903Y-94060070D01*
X148202011Y-93955814D01*
X148247103Y-93865201D01*
X148265441Y-93825287D01*
X148283063Y-93783922D01*
X148300474Y-93739814D01*
X148318181Y-93691672D01*
X148336690Y-93638204D01*
X148341035Y-93625250D01*
X148348704Y-93601804D01*
X148356807Y-93576214D01*
X148364992Y-93549673D01*
X148372907Y-93523373D01*
X148380199Y-93498508D01*
X148386515Y-93476269D01*
X148391504Y-93457848D01*
X148394813Y-93444440D01*
X148395622Y-93440558D01*
X148397791Y-93428996D01*
X148602405Y-93346428D01*
X148638385Y-93331883D01*
X148672393Y-93318085D01*
X148703868Y-93305266D01*
X148732252Y-93293654D01*
X148756986Y-93283480D01*
X148777510Y-93274974D01*
X148793266Y-93268367D01*
X148803693Y-93263889D01*
X148808232Y-93261769D01*
X148808381Y-93261656D01*
X148806040Y-93259006D01*
X148798838Y-93252050D01*
X148787188Y-93241163D01*
X148771505Y-93226724D01*
X148752203Y-93209108D01*
X148729696Y-93188694D01*
X148704399Y-93165859D01*
X148676726Y-93140979D01*
X148647091Y-93114432D01*
X148621714Y-93091769D01*
X148585698Y-93059640D01*
X148554584Y-93031846D01*
X148528002Y-93008033D01*
X148505585Y-92987848D01*
X148486962Y-92970935D01*
X148471765Y-92956942D01*
X148459624Y-92945513D01*
X148450170Y-92936294D01*
X148443035Y-92928931D01*
X148437848Y-92923071D01*
X148434241Y-92918358D01*
X148431844Y-92914439D01*
X148430288Y-92910959D01*
X148429205Y-92907565D01*
X148429021Y-92906897D01*
X148422612Y-92886348D01*
X148413510Y-92861398D01*
X148402440Y-92833816D01*
X148390126Y-92805375D01*
X148377295Y-92777843D01*
X148370700Y-92764554D01*
X148338251Y-92706345D01*
X148301023Y-92650220D01*
X148258334Y-92595249D01*
X148209501Y-92540502D01*
X148196358Y-92526849D01*
X148140849Y-92473310D01*
X148083569Y-92424827D01*
X148023315Y-92380531D01*
X147958883Y-92339557D01*
X147889069Y-92301037D01*
X147868083Y-92290420D01*
X147800029Y-92258548D01*
X147732015Y-92230713D01*
X147662813Y-92206541D01*
X147591193Y-92185659D01*
X147515928Y-92167692D01*
X147435788Y-92152268D01*
X147389320Y-92144752D01*
X147369484Y-92141832D01*
X147352156Y-92139566D01*
X147335939Y-92137870D01*
X147319438Y-92136659D01*
X147301258Y-92135848D01*
X147280002Y-92135355D01*
X147254276Y-92135094D01*
X147227792Y-92134991D01*
X147190577Y-92135069D01*
D12*
X161005000Y-115800000D03*
X158295000Y-115800000D03*
X161005000Y-100200000D03*
X158295000Y-100200000D03*
X161005000Y-115400000D03*
X161005000Y-115000000D03*
X161005000Y-114600000D03*
X161005000Y-114200000D03*
X161005000Y-113800000D03*
X161005000Y-113400000D03*
X161005000Y-113000000D03*
X161005000Y-112600000D03*
X161005000Y-112200000D03*
X161005000Y-111800000D03*
X161005000Y-111400000D03*
X161005000Y-111000000D03*
X161005000Y-110600000D03*
X161005000Y-110200000D03*
X161005000Y-109800000D03*
X161005000Y-109400000D03*
X161005000Y-109000000D03*
X161005000Y-108600000D03*
X161005000Y-108200000D03*
X161005000Y-107800000D03*
X161005000Y-107400000D03*
X161005000Y-107000000D03*
X161005000Y-106600000D03*
X161005000Y-106200000D03*
X161005000Y-105800000D03*
X161005000Y-105400000D03*
X161005000Y-105000000D03*
X161005000Y-104600000D03*
X161005000Y-104200000D03*
X161005000Y-103800000D03*
X161005000Y-103400000D03*
X161005000Y-103000000D03*
X161005000Y-102600000D03*
X161005000Y-102200000D03*
X161005000Y-101800000D03*
X161005000Y-101400000D03*
X161005000Y-101000000D03*
X161005000Y-100600000D03*
D13*
X161005000Y-99725000D03*
X158295000Y-99725000D03*
X161005000Y-116275000D03*
X158295000Y-116275000D03*
D12*
X158295000Y-100600000D03*
X158295000Y-101000000D03*
X158295000Y-101400000D03*
X158295000Y-101800000D03*
X158295000Y-102200000D03*
X158295000Y-102600000D03*
X158295000Y-103000000D03*
X158295000Y-103400000D03*
X158295000Y-103800000D03*
X158295000Y-104200000D03*
X158295000Y-104600000D03*
X158295000Y-105000000D03*
X158295000Y-105400000D03*
X158295000Y-105800000D03*
X158295000Y-106200000D03*
X158295000Y-106600000D03*
X158295000Y-107000000D03*
X158295000Y-107400000D03*
X158295000Y-107800000D03*
X158295000Y-108200000D03*
X158295000Y-108600000D03*
X158295000Y-109000000D03*
X158295000Y-109400000D03*
X158295000Y-109800000D03*
X158295000Y-110200000D03*
X158295000Y-110600000D03*
X158295000Y-111000000D03*
X158295000Y-111400000D03*
X158295000Y-111800000D03*
X158295000Y-112200000D03*
X158295000Y-112600000D03*
X158295000Y-113000000D03*
X158295000Y-113400000D03*
X158295000Y-113800000D03*
X158295000Y-114200000D03*
X158295000Y-114600000D03*
X158295000Y-115000000D03*
X158295000Y-115400000D03*
D14*
X156250000Y-95900000D03*
X158150000Y-95900000D03*
D15*
X158712500Y-92862500D03*
X158712500Y-93362500D03*
X158712500Y-93862500D03*
X158712500Y-94362500D03*
X155812500Y-94362500D03*
X155812500Y-93862500D03*
X155812500Y-93362500D03*
X155812500Y-92862500D03*
D16*
X156825000Y-93975000D03*
X156825000Y-93250000D03*
X157700000Y-93975000D03*
X157700000Y-93250000D03*
D17*
X156550000Y-91200000D03*
X154350000Y-91200000D03*
D18*
X158550000Y-91250000D03*
D19*
X134500000Y-116500000D03*
D20*
X134500000Y-113960000D03*
X134500000Y-111420000D03*
X134500000Y-108880000D03*
X134500000Y-106340000D03*
X134500000Y-103800000D03*
X134500000Y-101260000D03*
X134500000Y-98720000D03*
D21*
X162950000Y-97849974D03*
X162500000Y-95300000D03*
D22*
X163335170Y-106128721D03*
X162579214Y-106491109D03*
X162993938Y-107218712D03*
X162237982Y-107581100D03*
X162237982Y-108419301D03*
X162993938Y-108781689D03*
X162579214Y-109509292D03*
X163335170Y-109871680D03*
D21*
X164264956Y-95352566D03*
X160500000Y-95450000D03*
X157300000Y-95000000D03*
X159100000Y-98150000D03*
X159950000Y-93400000D03*
X154500000Y-92950000D03*
X153600000Y-93750000D03*
X154325068Y-92130246D03*
X160303087Y-96914049D03*
X157300000Y-97100000D03*
X156750000Y-92200000D03*
X154650000Y-94900000D03*
D22*
X156380187Y-105401118D03*
D21*
X160729126Y-94320874D03*
D22*
X154941767Y-102858749D03*
X155697723Y-103221137D03*
X161045015Y-116945501D03*
X161045015Y-99054899D03*
X158255617Y-99054899D03*
X158255617Y-99054899D03*
X162035617Y-116147324D03*
X162511810Y-116834445D03*
X163166374Y-116308281D03*
X163642567Y-116995401D03*
X164626605Y-116049236D03*
X165041329Y-115321633D03*
X164285373Y-114959245D03*
X164700097Y-114231642D03*
X163944142Y-113869254D03*
X164358866Y-113141651D03*
X163602910Y-112779264D03*
X164017634Y-112051661D03*
X163261678Y-111689273D03*
X163676402Y-110961670D03*
X162920446Y-110599282D03*
X162920446Y-105401118D03*
X163676402Y-105038731D03*
X163261678Y-104311128D03*
X164017634Y-103948740D03*
X163602910Y-103221137D03*
X164358866Y-102858749D03*
X163944142Y-102131146D03*
X164700097Y-101768759D03*
X164285373Y-101041156D03*
X165041329Y-100678768D03*
X164626605Y-99951165D03*
X163642567Y-99005000D03*
X163166374Y-99692120D03*
X162511810Y-99165956D03*
X162035617Y-99853076D03*
X157265015Y-99853076D03*
X156788823Y-99165956D03*
X156134258Y-99692120D03*
X155658066Y-99005000D03*
X154674027Y-99951165D03*
X154259303Y-100678768D03*
X155015259Y-101041156D03*
X154600535Y-101768759D03*
X155356491Y-102131146D03*
X155965462Y-106128721D03*
X156721418Y-106491109D03*
X155877188Y-109755446D03*
X156306694Y-107218712D03*
X157062650Y-107581100D03*
X157062650Y-108419301D03*
X156306694Y-108781689D03*
X156405055Y-110406564D03*
X155557661Y-110872080D03*
X156057591Y-111544886D03*
X155240532Y-111988865D03*
X155710097Y-112683205D03*
X154921491Y-113108907D03*
X155362788Y-113821547D03*
X154600242Y-114231126D03*
X155014577Y-114959772D03*
X154258648Y-115321947D03*
D21*
X154267539Y-116171186D03*
X154900000Y-116721269D03*
D23*
X162154815Y-98095191D02*
X162850000Y-97400006D01*
X162850000Y-97400006D02*
X162850000Y-97749974D01*
X162850000Y-97749974D02*
X162950000Y-97849974D01*
X159945189Y-105385878D02*
X159945189Y-98623744D01*
X160473743Y-98095191D02*
X162154815Y-98095191D01*
X159531067Y-105800000D02*
X159945189Y-105385878D01*
X159945189Y-98623744D02*
X160473743Y-98095191D01*
X158295000Y-105800000D02*
X159531067Y-105800000D01*
X162500000Y-94815067D02*
X162500000Y-95300000D01*
X159239900Y-92560100D02*
X160445033Y-92560100D01*
X158937500Y-92862500D02*
X159239900Y-92560100D01*
X160445033Y-92560100D02*
X162500000Y-94615067D01*
X158712500Y-92862500D02*
X158937500Y-92862500D01*
X162500000Y-94615067D02*
X162500000Y-94815067D01*
X160522600Y-106600000D02*
X159950000Y-106600000D01*
X160522600Y-106600000D02*
X160250000Y-106327400D01*
X161005000Y-109400000D02*
X159950000Y-109400000D01*
X161005000Y-109400000D02*
X160522600Y-109400000D01*
X161005000Y-109000000D02*
X159900000Y-109000000D01*
X161005000Y-108600000D02*
X159900000Y-108600000D01*
X161005000Y-108200000D02*
X159900000Y-108200000D01*
X161005000Y-107800000D02*
X159950000Y-107800000D01*
X161005000Y-107400000D02*
X159950000Y-107400000D01*
X161005000Y-107000000D02*
X159850000Y-107000000D01*
X161005000Y-106600000D02*
X160522600Y-106600000D01*
X160250000Y-99550000D02*
X160473514Y-99326486D01*
X160473514Y-99326486D02*
X160473514Y-98780578D01*
X160770694Y-98483398D02*
X163362426Y-98483398D01*
X163362426Y-98483398D02*
X164200000Y-97645824D01*
X164200000Y-97645824D02*
X164200000Y-97400000D01*
X160250000Y-106327400D02*
X160250000Y-99550000D01*
X160473514Y-98780578D02*
X160770694Y-98483398D01*
X161190316Y-106624000D02*
X161540316Y-106624000D01*
X161540316Y-106624000D02*
X162460992Y-105841578D01*
X162460992Y-105841578D02*
X162749830Y-105946114D01*
X162749830Y-105946114D02*
X163335170Y-106128721D01*
X161190316Y-107024000D02*
X161540316Y-107024000D01*
X161540316Y-107024000D02*
X162406505Y-106287883D01*
X162406505Y-106287883D02*
X162579214Y-106491109D01*
X161190316Y-107424000D02*
X161540316Y-107424000D01*
X161540316Y-107424000D02*
X162119760Y-106931569D01*
X162119760Y-106931569D02*
X162408598Y-107036104D01*
X162408598Y-107036104D02*
X162993938Y-107218712D01*
X161190316Y-107824000D02*
X161540316Y-107824000D01*
X161540316Y-107824000D02*
X162065274Y-107377873D01*
X162065274Y-107377873D02*
X162237982Y-107581100D01*
X161190316Y-108176401D02*
X161540316Y-108176401D01*
X161540316Y-108176401D02*
X162065274Y-108622527D01*
X162065274Y-108622527D02*
X162237982Y-108419301D01*
X161190316Y-108576401D02*
X161540316Y-108576401D01*
X161540316Y-108576401D02*
X162119760Y-109068832D01*
X162119760Y-109068832D02*
X162408598Y-108964297D01*
X162408598Y-108964297D02*
X162993938Y-108781689D01*
X161190316Y-108976401D02*
X161540316Y-108976401D01*
X161540316Y-108976401D02*
X162406505Y-109712518D01*
X162406505Y-109712518D02*
X162579214Y-109509292D01*
X161190316Y-109376401D02*
X161540316Y-109376401D01*
X161540316Y-109376401D02*
X162460992Y-110158823D01*
X162460992Y-110158823D02*
X162749830Y-110054287D01*
X162749830Y-110054287D02*
X163335170Y-109871680D01*
X163750000Y-95382589D02*
X163780023Y-95352566D01*
X163780023Y-95352566D02*
X164264956Y-95352566D01*
X163750000Y-95450000D02*
X163750000Y-95382589D01*
X160500000Y-95450000D02*
X160050000Y-95900000D01*
X160050000Y-95900000D02*
X158150000Y-95900000D01*
X160500000Y-95450000D02*
X159497600Y-95450000D01*
X159497600Y-95450000D02*
X158712500Y-94664900D01*
X158712500Y-94664900D02*
X158712500Y-94362500D01*
X157300000Y-95000000D02*
X158377400Y-95000000D01*
X158377400Y-95000000D02*
X158712500Y-94664900D01*
X157300000Y-95000000D02*
X157300000Y-95050000D01*
X157300000Y-95050000D02*
X158150000Y-95900000D01*
X158808467Y-105400000D02*
X159300000Y-104908467D01*
X158295000Y-105400000D02*
X158808467Y-105400000D01*
X160228028Y-93749372D02*
X159927400Y-94050000D01*
X159589348Y-98950000D02*
X159589348Y-98548519D01*
X161003448Y-93749372D02*
X160228028Y-93749372D01*
X161376312Y-97163035D02*
X161376312Y-94122236D01*
X161376312Y-94122236D02*
X161003448Y-93749372D01*
X160748967Y-97790380D02*
X161376312Y-97163035D01*
X159589348Y-98548519D02*
X160347487Y-97790380D01*
X160347487Y-97790380D02*
X160748967Y-97790380D01*
X159589348Y-98639348D02*
X159100000Y-98150000D01*
X159300000Y-99239348D02*
X159589348Y-98950000D01*
X159589348Y-98950000D02*
X159589348Y-98639348D01*
X159300000Y-104908467D02*
X159300000Y-99239348D01*
X159950000Y-94027400D02*
X159927400Y-94050000D01*
X159950000Y-93400000D02*
X159950000Y-94027400D01*
X159927400Y-94050000D02*
X159239900Y-93362500D01*
X159239900Y-93362500D02*
X158712500Y-93362500D01*
X154400000Y-92950000D02*
X154500000Y-92950000D01*
X153600000Y-93750000D02*
X154400000Y-92950000D01*
X154350000Y-92105314D02*
X154325068Y-92130246D01*
X154350000Y-91200000D02*
X154350000Y-92105314D01*
X157300000Y-97100000D02*
X160117136Y-97100000D01*
X160117136Y-97100000D02*
X160303087Y-96914049D01*
X156250000Y-96050000D02*
X156250000Y-95900000D01*
X157300000Y-97100000D02*
X156250000Y-96050000D01*
X156750000Y-92200000D02*
X156475000Y-92200000D01*
X156475000Y-92200000D02*
X155812500Y-92862500D01*
X156250000Y-95900000D02*
X156025000Y-95900000D01*
X155025000Y-94900000D02*
X154650000Y-94900000D01*
X156025000Y-95900000D02*
X155025000Y-94900000D01*
X158110316Y-106224000D02*
X157760316Y-106224000D01*
X157760316Y-106224000D02*
X156552895Y-105197892D01*
X156552895Y-105197892D02*
X156380187Y-105401118D01*
X158295000Y-105000000D02*
X158777400Y-105000000D01*
X158777400Y-105000000D02*
X158950000Y-104827400D01*
X161071501Y-97036738D02*
X161071501Y-95175679D01*
X158528498Y-98474322D02*
X158528498Y-97875678D01*
X161071501Y-95175679D02*
X160745822Y-94850000D01*
X160745822Y-94850000D02*
X160227400Y-94850000D01*
X160622670Y-97485569D02*
X161071501Y-97036738D01*
X158950000Y-104827400D02*
X158950000Y-98895824D01*
X158528498Y-97875678D02*
X158918607Y-97485569D01*
X158918607Y-97485569D02*
X160622670Y-97485569D01*
X158950000Y-98895824D02*
X158528498Y-98474322D01*
X160227400Y-94850000D02*
X160227400Y-94822600D01*
X160227400Y-94822600D02*
X160386227Y-94663773D01*
X160386227Y-94663773D02*
X160729126Y-94320874D01*
X160227400Y-94850000D02*
X159239900Y-93862500D01*
X159239900Y-93862500D02*
X158712500Y-93862500D01*
X153650000Y-101664047D02*
X154501803Y-102515850D01*
X155251098Y-94328498D02*
X154375678Y-94328498D01*
X154598868Y-102515850D02*
X154941767Y-102858749D01*
X155285100Y-94362500D02*
X155251098Y-94328498D01*
X154375678Y-94328498D02*
X153650000Y-95054176D01*
X153650000Y-95054176D02*
X153650000Y-101664047D01*
X154501803Y-102515850D02*
X154598868Y-102515850D01*
X155812500Y-94362500D02*
X155285100Y-94362500D01*
X158110316Y-104224000D02*
X157760316Y-104224000D01*
X157760316Y-104224000D02*
X155815945Y-102571606D01*
X155815945Y-102571606D02*
X155527107Y-102676142D01*
X155527107Y-102676142D02*
X154941767Y-102858749D01*
X155354824Y-103564036D02*
X155697723Y-103221137D01*
X153345189Y-102107994D02*
X154801231Y-103564036D01*
X153345189Y-94927920D02*
X153345189Y-102107994D01*
X155812500Y-93862500D02*
X154410609Y-93862500D01*
X154410609Y-93862500D02*
X153345189Y-94927920D01*
X154801231Y-103564036D02*
X155354824Y-103564036D01*
X158110316Y-104624000D02*
X157760316Y-104624000D01*
X157760316Y-104624000D02*
X155870431Y-103017911D01*
X155870431Y-103017911D02*
X155697723Y-103221137D01*
X156400000Y-91200000D02*
X156550000Y-91200000D01*
X155812500Y-93362500D02*
X155285100Y-93362500D01*
X155208899Y-93286299D02*
X155208899Y-92391101D01*
X155208899Y-92391101D02*
X156400000Y-91200000D01*
X155285100Y-93362500D02*
X155208899Y-93286299D01*
X156550000Y-91200000D02*
X158500000Y-91200000D01*
X158500000Y-91200000D02*
X158550000Y-91250000D01*
X161005000Y-116200000D02*
X161005000Y-116905486D01*
X161005000Y-116905486D02*
X161045015Y-116945501D01*
X161005000Y-115800000D02*
X161005000Y-116200000D01*
X158295000Y-116200000D02*
X158295000Y-116906118D01*
X158295000Y-116906118D02*
X158255617Y-116945501D01*
X158295000Y-115800000D02*
X158295000Y-116200000D01*
D24*
X156250000Y-118950000D02*
X142182400Y-118950000D01*
X142182400Y-118950000D02*
X134652400Y-111420000D01*
X134652400Y-111420000D02*
X134500000Y-111420000D01*
X158254499Y-116945501D02*
X156250000Y-118950000D01*
X158255617Y-116945501D02*
X158254499Y-116945501D01*
D23*
X161005000Y-99800000D02*
X161005000Y-100200000D01*
X161045015Y-99054899D02*
X161045015Y-99759985D01*
X161045015Y-99759985D02*
X161005000Y-99800000D01*
X158255617Y-99054899D02*
X158255617Y-99760617D01*
X158255617Y-99760617D02*
X158295000Y-99800000D01*
X158295000Y-100200000D02*
X158295000Y-99800000D01*
X161190316Y-115376401D02*
X161540316Y-115376401D01*
X161540316Y-115376401D02*
X162208326Y-115944098D01*
X162208326Y-115944098D02*
X162035617Y-116147324D01*
X161190316Y-114976401D02*
X161540316Y-114976401D01*
X161540316Y-114976401D02*
X162657575Y-115925886D01*
X162657575Y-115925886D02*
X162600996Y-116227803D01*
X162600996Y-116227803D02*
X162511810Y-116834445D01*
X161190316Y-114576401D02*
X161540316Y-114576401D01*
X161540316Y-114576401D02*
X163339083Y-116105055D01*
X163339083Y-116105055D02*
X163166374Y-116308281D01*
X161190316Y-114176401D02*
X161540316Y-114176401D01*
X161540316Y-114176401D02*
X163788332Y-116086842D01*
X163788332Y-116086842D02*
X163731753Y-116388759D01*
X163731753Y-116388759D02*
X163642567Y-116995401D01*
X161190316Y-113776401D02*
X161540316Y-113776401D01*
X161540316Y-113776401D02*
X164453897Y-116252462D01*
X164453897Y-116252462D02*
X164626605Y-116049236D01*
X161190316Y-113376401D02*
X161540316Y-113376401D01*
X161540316Y-113376401D02*
X164167151Y-115608776D01*
X164167151Y-115608776D02*
X164455989Y-115504240D01*
X164455989Y-115504240D02*
X165041329Y-115321633D01*
X161190316Y-112976401D02*
X161540316Y-112976401D01*
X161540316Y-112976401D02*
X164112665Y-115162471D01*
X164112665Y-115162471D02*
X164285373Y-114959245D01*
X161190316Y-112576401D02*
X161540316Y-112576401D01*
X161540316Y-112576401D02*
X163825920Y-114518785D01*
X163825920Y-114518785D02*
X164114757Y-114414250D01*
X164114757Y-114414250D02*
X164700097Y-114231642D01*
X161190316Y-112176401D02*
X161540316Y-112176401D01*
X161540316Y-112176401D02*
X163771433Y-114072481D01*
X163771433Y-114072481D02*
X163944142Y-113869254D01*
X161190316Y-111776401D02*
X161540316Y-111776401D01*
X161540316Y-111776401D02*
X163484688Y-113428795D01*
X163484688Y-113428795D02*
X163773526Y-113324259D01*
X163773526Y-113324259D02*
X164358866Y-113141651D01*
X161190316Y-111376401D02*
X161540316Y-111376401D01*
X161540316Y-111376401D02*
X163430201Y-112982490D01*
X163430201Y-112982490D02*
X163602910Y-112779264D01*
X161190316Y-110976401D02*
X161540316Y-110976401D01*
X161540316Y-110976401D02*
X163143456Y-112338804D01*
X163143456Y-112338804D02*
X163432294Y-112234268D01*
X163432294Y-112234268D02*
X164017634Y-112051661D01*
X161190316Y-110576401D02*
X161540316Y-110576401D01*
X161540316Y-110576401D02*
X163088969Y-111892499D01*
X163088969Y-111892499D02*
X163261678Y-111689273D01*
X161190316Y-110176401D02*
X161540316Y-110176401D01*
X161540316Y-110176401D02*
X162802224Y-111248813D01*
X162802224Y-111248813D02*
X163091062Y-111144278D01*
X163091062Y-111144278D02*
X163676402Y-110961670D01*
X161190316Y-109776401D02*
X161540316Y-109776401D01*
X161540316Y-109776401D02*
X162747737Y-110802509D01*
X162747737Y-110802509D02*
X162920446Y-110599282D01*
X161190316Y-106224000D02*
X161540316Y-106224000D01*
X161540316Y-106224000D02*
X162747737Y-105197892D01*
X162747737Y-105197892D02*
X162920446Y-105401118D01*
X161190316Y-105824000D02*
X161540316Y-105824000D01*
X161540316Y-105824000D02*
X162802224Y-104751587D01*
X162802224Y-104751587D02*
X163091062Y-104856123D01*
X163091062Y-104856123D02*
X163676402Y-105038731D01*
X161190316Y-105424000D02*
X161540316Y-105424000D01*
X161540316Y-105424000D02*
X163088969Y-104107901D01*
X163088969Y-104107901D02*
X163261678Y-104311128D01*
X161190316Y-105024000D02*
X161540316Y-105024000D01*
X161540316Y-105024000D02*
X163143456Y-103661597D01*
X163143456Y-103661597D02*
X163432294Y-103766132D01*
X163432294Y-103766132D02*
X164017634Y-103948740D01*
X161190316Y-104624000D02*
X161540316Y-104624000D01*
X161540316Y-104624000D02*
X163430201Y-103017911D01*
X163430201Y-103017911D02*
X163602910Y-103221137D01*
X161190316Y-104224000D02*
X161540316Y-104224000D01*
X161540316Y-104224000D02*
X163484688Y-102571606D01*
X163484688Y-102571606D02*
X163773526Y-102676142D01*
X163773526Y-102676142D02*
X164358866Y-102858749D01*
X161190316Y-103824000D02*
X161540316Y-103824000D01*
X161540316Y-103824000D02*
X163771433Y-101927920D01*
X163771433Y-101927920D02*
X163944142Y-102131146D01*
X161190316Y-103424000D02*
X161540316Y-103424000D01*
X161540316Y-103424000D02*
X163825920Y-101481616D01*
X163825920Y-101481616D02*
X164114757Y-101586151D01*
X164114757Y-101586151D02*
X164700097Y-101768759D01*
X161190316Y-103024000D02*
X161540316Y-103024000D01*
X161540316Y-103024000D02*
X164112665Y-100837930D01*
X164112665Y-100837930D02*
X164285373Y-101041156D01*
X161190316Y-102624000D02*
X161540316Y-102624000D01*
X161540316Y-102624000D02*
X164167151Y-100391625D01*
X164167151Y-100391625D02*
X164455989Y-100496161D01*
X164455989Y-100496161D02*
X165041329Y-100678768D01*
X161190316Y-102224000D02*
X161540316Y-102224000D01*
X161540316Y-102224000D02*
X164453897Y-99747939D01*
X164453897Y-99747939D02*
X164626605Y-99951165D01*
X161190316Y-101824000D02*
X161540316Y-101824000D01*
X161540316Y-101824000D02*
X163788332Y-99913558D01*
X163788332Y-99913558D02*
X163731753Y-99611642D01*
X163731753Y-99611642D02*
X163642567Y-99005000D01*
X161190316Y-101424000D02*
X161540316Y-101424000D01*
X161540316Y-101424000D02*
X163339083Y-99895346D01*
X163339083Y-99895346D02*
X163166374Y-99692120D01*
X161190316Y-101024000D02*
X161540316Y-101024000D01*
X161540316Y-101024000D02*
X162657575Y-100074515D01*
X162657575Y-100074515D02*
X162600996Y-99772598D01*
X162600996Y-99772598D02*
X162511810Y-99165956D01*
X161190316Y-100624000D02*
X161540316Y-100624000D01*
X161540316Y-100624000D02*
X162208326Y-100056303D01*
X162208326Y-100056303D02*
X162035617Y-99853076D01*
X158110316Y-100624000D02*
X157760316Y-100624000D01*
X157760316Y-100624000D02*
X157092307Y-100056303D01*
X157092307Y-100056303D02*
X157265015Y-99853076D01*
X158110316Y-101024000D02*
X157760316Y-101024000D01*
X157760316Y-101024000D02*
X156643057Y-100074515D01*
X156643057Y-100074515D02*
X156699637Y-99772598D01*
X156699637Y-99772598D02*
X156788823Y-99165956D01*
X158110316Y-101424000D02*
X157760316Y-101424000D01*
X157760316Y-101424000D02*
X155961549Y-99895346D01*
X155961549Y-99895346D02*
X156134258Y-99692120D01*
X158110316Y-101824000D02*
X157760316Y-101824000D01*
X157760316Y-101824000D02*
X155512300Y-99913558D01*
X155512300Y-99913558D02*
X155568880Y-99611642D01*
X155568880Y-99611642D02*
X155658066Y-99005000D01*
X158110316Y-102224000D02*
X157760316Y-102224000D01*
X157760316Y-102224000D02*
X154846736Y-99747939D01*
X154846736Y-99747939D02*
X154674027Y-99951165D01*
X158110316Y-102624000D02*
X157760316Y-102624000D01*
X157760316Y-102624000D02*
X155133481Y-100391625D01*
X155133481Y-100391625D02*
X154844643Y-100496161D01*
X154844643Y-100496161D02*
X154259303Y-100678768D01*
X158110316Y-103024000D02*
X157760316Y-103024000D01*
X157760316Y-103024000D02*
X155187968Y-100837930D01*
X155187968Y-100837930D02*
X155015259Y-101041156D01*
X158110316Y-103424000D02*
X157760316Y-103424000D01*
X157760316Y-103424000D02*
X155474713Y-101481616D01*
X155474713Y-101481616D02*
X155185875Y-101586151D01*
X155185875Y-101586151D02*
X154600535Y-101768759D01*
X158110316Y-103824000D02*
X157760316Y-103824000D01*
X157760316Y-103824000D02*
X155529200Y-101927920D01*
X155529200Y-101927920D02*
X155356491Y-102131146D01*
X158110316Y-106624000D02*
X157760316Y-106624000D01*
X157760316Y-106624000D02*
X156839640Y-105841578D01*
X156839640Y-105841578D02*
X156550802Y-105946114D01*
X156550802Y-105946114D02*
X155965462Y-106128721D01*
X158110316Y-107024000D02*
X157760316Y-107024000D01*
X157760316Y-107024000D02*
X156894127Y-106287883D01*
X156894127Y-106287883D02*
X156721418Y-106491109D01*
X157760316Y-107824000D02*
X157784316Y-107800000D01*
X157784316Y-107800000D02*
X158295000Y-107800000D01*
X157760316Y-107424000D02*
X157784316Y-107400000D01*
X157784316Y-107400000D02*
X158295000Y-107400000D01*
X158110316Y-109376401D02*
X157310000Y-109376401D01*
X157310000Y-109376401D02*
X156256233Y-109376401D01*
X158110316Y-108976401D02*
X157710000Y-108976401D01*
X157710000Y-108976401D02*
X157310000Y-109376401D01*
X156256233Y-109376401D02*
X156220087Y-109412547D01*
X156220087Y-109412547D02*
X155877188Y-109755446D01*
X157760316Y-107424000D02*
X157180872Y-106931569D01*
X157180872Y-106931569D02*
X156892034Y-107036104D01*
X156892034Y-107036104D02*
X156306694Y-107218712D01*
X157760316Y-107824000D02*
X157235359Y-107377873D01*
X157235359Y-107377873D02*
X157062650Y-107581100D01*
X158110316Y-108176401D02*
X157760316Y-108176401D01*
X157760316Y-108176401D02*
X157235359Y-108622527D01*
X157235359Y-108622527D02*
X157062650Y-108419301D01*
X158110316Y-108576401D02*
X157760316Y-108576401D01*
X157760316Y-108576401D02*
X157180872Y-109068832D01*
X157180872Y-109068832D02*
X156892034Y-108964297D01*
X156892034Y-108964297D02*
X156306694Y-108781689D01*
X156889988Y-110406564D02*
X156405055Y-110406564D01*
X157573914Y-109776401D02*
X156943751Y-110406564D01*
X158110316Y-109776401D02*
X157573914Y-109776401D01*
X156943751Y-110406564D02*
X156889988Y-110406564D01*
X157604981Y-110176401D02*
X156938656Y-110842726D01*
X156531616Y-111173086D02*
X156331914Y-110973384D01*
X155658965Y-110973384D02*
X155557661Y-110872080D01*
X156861976Y-110842726D02*
X156531616Y-111173086D01*
X158110316Y-110176401D02*
X157604981Y-110176401D01*
X156938656Y-110842726D02*
X156861976Y-110842726D01*
X156331914Y-110973384D02*
X155658965Y-110973384D01*
X157064912Y-111147537D02*
X156988233Y-111147537D01*
X158110316Y-110576401D02*
X157760316Y-110576401D01*
X156633513Y-111502257D02*
X156505627Y-111544886D01*
X157255292Y-110957157D02*
X157064912Y-111147537D01*
X157507804Y-110766779D02*
X157317426Y-110957157D01*
X156505627Y-111544886D02*
X156057591Y-111544886D01*
X157760316Y-110576401D02*
X157569938Y-110766779D01*
X156988233Y-111147537D02*
X156633513Y-111502257D01*
X157569938Y-110766779D02*
X157507804Y-110766779D01*
X157317426Y-110957157D02*
X157255292Y-110957157D01*
X157634060Y-111071590D02*
X157443682Y-111261968D01*
X156477573Y-112066421D02*
X156186500Y-112313783D01*
X158110316Y-110976401D02*
X157791382Y-110976401D01*
X157191170Y-111452346D02*
X157114490Y-111452346D01*
X157791382Y-110976401D02*
X157696193Y-111071590D01*
X155984420Y-112111703D02*
X155363370Y-112111703D01*
X156592105Y-111837359D02*
X156477573Y-112066421D01*
X157114490Y-111452346D02*
X156798166Y-111768670D01*
X157696193Y-111071590D02*
X157634060Y-111071590D01*
X156798166Y-111768670D02*
X156592105Y-111837359D01*
X157381548Y-111261968D02*
X157191170Y-111452346D01*
X157443682Y-111261968D02*
X157381548Y-111261968D01*
X155363370Y-112111703D02*
X155240532Y-111988865D01*
X156186500Y-112313783D02*
X155984420Y-112111703D01*
X156195030Y-112683205D02*
X155710097Y-112683205D01*
X156808273Y-112086600D02*
X156722378Y-112258390D01*
X156222496Y-112683205D02*
X156195030Y-112683205D01*
X157569938Y-111566779D02*
X157507804Y-111566779D01*
X157760316Y-111376401D02*
X157569938Y-111566779D01*
X156722378Y-112258390D02*
X156222496Y-112683205D01*
X156962820Y-112035083D02*
X156808273Y-112086600D01*
X157078012Y-111919891D02*
X156962820Y-112035083D01*
X157092557Y-111919891D02*
X157078012Y-111919891D01*
X157255292Y-111757157D02*
X157092557Y-111919891D01*
X157317426Y-111757157D02*
X157255292Y-111757157D01*
X157507804Y-111566779D02*
X157317426Y-111757157D01*
X158110316Y-111376401D02*
X157760316Y-111376401D01*
X157218812Y-112224702D02*
X157204268Y-112224702D01*
X158110316Y-111776401D02*
X157791382Y-111776401D01*
X157204268Y-112224702D02*
X157127475Y-112301495D01*
X156967310Y-112450103D02*
X156958538Y-112457705D01*
X157634060Y-111871590D02*
X157443682Y-112061968D01*
X155815880Y-113428773D02*
X155815815Y-113428749D01*
X157791382Y-111776401D02*
X157696193Y-111871590D01*
X157127475Y-112301495D02*
X157024441Y-112335841D01*
X157024441Y-112335841D02*
X156967310Y-112450103D01*
X155062629Y-113250045D02*
X154921491Y-113108907D01*
X155637111Y-113250045D02*
X155062629Y-113250045D01*
X156958538Y-112457705D02*
X155815880Y-113428773D01*
X157381548Y-112061968D02*
X157218812Y-112224702D01*
X157696193Y-111871590D02*
X157634060Y-111871590D01*
X155815815Y-113428749D02*
X155637111Y-113250045D01*
X157443682Y-112061968D02*
X157381548Y-112061968D01*
X157240609Y-112585082D02*
X157212801Y-112640698D01*
X157292128Y-112567909D02*
X157240609Y-112585082D01*
X157212801Y-112640698D02*
X157157094Y-112688978D01*
X155824397Y-113821547D02*
X155362788Y-113821547D01*
X157306674Y-112567909D02*
X157292128Y-112567909D01*
X157760316Y-112176401D02*
X157569938Y-112366779D01*
X157507804Y-112366779D02*
X157306674Y-112567909D01*
X157569938Y-112366779D02*
X157507804Y-112366779D01*
X157157094Y-112688978D02*
X155824397Y-113821547D01*
X158110316Y-112176401D02*
X157760316Y-112176401D01*
X155388051Y-114487421D02*
X155288900Y-114388270D01*
X157456777Y-112834323D02*
X157403516Y-112879587D01*
X157355609Y-112920298D02*
X157355595Y-112920297D01*
X157791382Y-112576401D02*
X157696193Y-112671590D01*
X157696193Y-112671590D02*
X157634060Y-112671590D01*
X155474669Y-114518770D02*
X155388051Y-114487421D01*
X157634060Y-112671590D02*
X157471327Y-112834323D01*
X157403516Y-112879587D02*
X157355609Y-112920298D01*
X158110316Y-112576401D02*
X157791382Y-112576401D01*
X154757386Y-114388270D02*
X154600242Y-114231126D01*
X157355595Y-112920297D02*
X155474669Y-114518770D01*
X155288900Y-114388270D02*
X154757386Y-114388270D01*
X157471327Y-112834323D02*
X157456777Y-112834323D01*
X157760316Y-112976401D02*
X157586083Y-113150632D01*
X155426437Y-114959772D02*
X155014577Y-114959772D01*
X157456789Y-113234324D02*
X157456775Y-113234323D01*
X157557958Y-113148349D02*
X157456789Y-113234324D01*
X157586083Y-113150632D02*
X157557958Y-113148349D01*
X158110316Y-112976401D02*
X157760316Y-112976401D01*
X157456775Y-113234323D02*
X155426437Y-114959772D01*
X155205328Y-115531681D02*
X154468382Y-115531681D01*
X157557955Y-113548349D02*
X155288248Y-115477222D01*
X155259787Y-115477222D02*
X155205328Y-115531681D01*
X158110316Y-113376401D02*
X157791382Y-113376401D01*
X155288248Y-115477222D02*
X155259787Y-115477222D01*
X157557969Y-113548350D02*
X157557955Y-113548349D01*
X157659137Y-113462375D02*
X157557969Y-113548350D01*
X157791382Y-113376401D02*
X157701933Y-113465849D01*
X154468382Y-115531681D02*
X154258648Y-115321947D01*
X157701933Y-113465849D02*
X157659137Y-113462375D01*
X155386043Y-115782033D02*
X155305509Y-115862567D01*
X155400273Y-115782033D02*
X155386043Y-115782033D01*
X154576158Y-115862567D02*
X154267539Y-116171186D01*
X155305509Y-115862567D02*
X154576158Y-115862567D01*
X157659148Y-113862376D02*
X157659135Y-113862375D01*
X157659135Y-113862375D02*
X155400273Y-115782033D01*
X157760316Y-113776401D02*
X157659148Y-113862376D01*
X158110316Y-113776401D02*
X157760316Y-113776401D01*
X158110316Y-114176401D02*
X157760316Y-114176401D01*
X155242899Y-116356243D02*
X155242899Y-116378370D01*
X155512300Y-116086842D02*
X155242899Y-116356243D01*
X157760316Y-114176401D02*
X155512300Y-116086842D01*
X155242899Y-116378370D02*
X154900000Y-116721269D01*
D24*
X154393589Y-117343589D02*
X135770000Y-98720000D01*
X155456411Y-117343589D02*
X154393589Y-117343589D01*
X156134258Y-116665742D02*
X155456411Y-117343589D01*
X156134258Y-116308281D02*
X156134258Y-116665742D01*
X135770000Y-98720000D02*
X134500000Y-98720000D01*
D23*
X158110316Y-114576401D02*
X157760316Y-114576401D01*
X157760316Y-114576401D02*
X155961549Y-116105055D01*
X155961549Y-116105055D02*
X156134258Y-116308281D01*
D24*
X155900000Y-117750000D02*
X151142400Y-117750000D01*
X151142400Y-117750000D02*
X134652400Y-101260000D01*
X134652400Y-101260000D02*
X134500000Y-101260000D01*
X156788823Y-116861177D02*
X155900000Y-117750000D01*
X156788823Y-116834445D02*
X156788823Y-116861177D01*
D23*
X158110316Y-114976401D02*
X157760316Y-114976401D01*
X157760316Y-114976401D02*
X156643057Y-115925886D01*
X156643057Y-115925886D02*
X156699637Y-116227803D01*
X156699637Y-116227803D02*
X156788823Y-116834445D01*
D24*
X156250000Y-118200000D02*
X143972400Y-118200000D01*
X143972400Y-118200000D02*
X134652400Y-108880000D01*
X134652400Y-108880000D02*
X134500000Y-108880000D01*
X157265015Y-117184985D02*
X156250000Y-118200000D01*
X157265015Y-116147324D02*
X157265015Y-117184985D01*
D23*
X158110316Y-115376401D02*
X157760316Y-115376401D01*
X157760316Y-115376401D02*
X157092307Y-115944098D01*
X157092307Y-115944098D02*
X157265015Y-116147324D01*
G36*
X157624618Y-90630511D02*
X157556897Y-90793600D01*
X157486669Y-90793600D01*
X157486669Y-90750000D01*
X157463644Y-90627635D01*
X157391327Y-90515251D01*
X157280983Y-90439856D01*
X157150000Y-90413331D01*
X155950000Y-90413331D01*
X155827635Y-90436356D01*
X155715251Y-90508673D01*
X155639856Y-90619017D01*
X155613331Y-90750000D01*
X155613331Y-91411933D01*
X155264172Y-91761092D01*
X155286669Y-91650000D01*
X155286669Y-90750000D01*
X155263644Y-90627635D01*
X155191327Y-90515251D01*
X155080983Y-90439856D01*
X154950000Y-90413331D01*
X153750000Y-90413331D01*
X153627635Y-90436356D01*
X153515251Y-90508673D01*
X153439856Y-90619017D01*
X153413331Y-90750000D01*
X153413331Y-91650000D01*
X153436356Y-91772365D01*
X153508673Y-91884749D01*
X153619017Y-91960144D01*
X153663166Y-91969085D01*
X153652085Y-91995771D01*
X153651851Y-92263547D01*
X153754109Y-92511029D01*
X153894894Y-92652059D01*
X153827017Y-92815525D01*
X153826901Y-92948363D01*
X153698279Y-93076985D01*
X153466699Y-93076783D01*
X153219217Y-93179041D01*
X153029706Y-93368222D01*
X152927017Y-93615525D01*
X152926783Y-93883301D01*
X153029041Y-94130783D01*
X153218222Y-94320294D01*
X153331176Y-94367197D01*
X153057821Y-94640552D01*
X152969724Y-94772397D01*
X152938789Y-94927920D01*
X152938789Y-102107994D01*
X152969724Y-102263517D01*
X153044894Y-102376015D01*
X153057821Y-102395362D01*
X154513863Y-103851404D01*
X154645708Y-103939501D01*
X154801231Y-103970436D01*
X155354824Y-103970436D01*
X155510347Y-103939501D01*
X155578244Y-103894133D01*
X155831024Y-103894354D01*
X156078506Y-103792096D01*
X156113149Y-103757513D01*
X157497142Y-104933678D01*
X157552302Y-104964391D01*
X157604793Y-104999465D01*
X157621129Y-105002714D01*
X157628331Y-105006724D01*
X157628331Y-105115000D01*
X157644912Y-105203120D01*
X157628331Y-105285000D01*
X157628331Y-105515000D01*
X157642555Y-105590590D01*
X156837080Y-104906070D01*
X156761965Y-104830824D01*
X156514662Y-104728135D01*
X156246886Y-104727901D01*
X155999404Y-104830159D01*
X155809893Y-105019340D01*
X155707204Y-105266643D01*
X155706994Y-105507222D01*
X155584679Y-105557762D01*
X155395168Y-105746943D01*
X155292479Y-105994246D01*
X155292245Y-106262022D01*
X155394503Y-106509504D01*
X155583684Y-106699015D01*
X155789110Y-106784315D01*
X155736400Y-106836934D01*
X155633711Y-107084237D01*
X155633477Y-107352013D01*
X155735735Y-107599495D01*
X155924916Y-107789006D01*
X156172219Y-107891695D01*
X156439995Y-107891929D01*
X156459463Y-107883885D01*
X156491691Y-107961883D01*
X156529843Y-108000101D01*
X156492356Y-108037523D01*
X156459617Y-108116366D01*
X156441169Y-108108706D01*
X156173393Y-108108472D01*
X155925911Y-108210730D01*
X155736400Y-108399911D01*
X155633711Y-108647214D01*
X155633477Y-108914990D01*
X155708603Y-109096808D01*
X155496405Y-109184487D01*
X155306894Y-109373668D01*
X155204205Y-109620971D01*
X155203971Y-109888747D01*
X155306229Y-110136229D01*
X155384992Y-110215130D01*
X155176878Y-110301121D01*
X154987367Y-110490302D01*
X154884678Y-110737605D01*
X154884444Y-111005381D01*
X154986702Y-111252863D01*
X155066272Y-111332572D01*
X154859749Y-111417906D01*
X154670238Y-111607087D01*
X154567549Y-111854390D01*
X154567315Y-112122166D01*
X154669573Y-112369648D01*
X154750887Y-112451104D01*
X154540708Y-112537948D01*
X154351197Y-112727129D01*
X154248508Y-112974432D01*
X154248274Y-113242208D01*
X154350532Y-113489690D01*
X154432739Y-113572041D01*
X154219459Y-113660167D01*
X154029948Y-113849348D01*
X153927259Y-114096651D01*
X153927025Y-114364427D01*
X154029283Y-114611909D01*
X154083359Y-114666079D01*
X153877865Y-114750988D01*
X153688354Y-114940169D01*
X153585665Y-115187472D01*
X153585431Y-115455248D01*
X153687689Y-115702730D01*
X153735798Y-115750923D01*
X153697245Y-115789408D01*
X153635261Y-115938683D01*
X136093289Y-98396711D01*
X135944963Y-98297602D01*
X135782110Y-98265209D01*
X135781701Y-98263153D01*
X135522918Y-97875856D01*
X135135621Y-97617073D01*
X134678774Y-97526200D01*
X134321226Y-97526200D01*
X133864379Y-97617073D01*
X133477082Y-97875856D01*
X133218299Y-98263153D01*
X133127426Y-98720000D01*
X133218299Y-99176847D01*
X133477082Y-99564144D01*
X133864379Y-99822927D01*
X134321226Y-99913800D01*
X134678774Y-99913800D01*
X135135621Y-99822927D01*
X135522918Y-99564144D01*
X135701019Y-99297597D01*
X153696222Y-117292800D01*
X151331778Y-117292800D01*
X135771337Y-101732359D01*
X135781701Y-101716847D01*
X135872574Y-101260000D01*
X135781701Y-100803153D01*
X135522918Y-100415856D01*
X135135621Y-100157073D01*
X134678774Y-100066200D01*
X134321226Y-100066200D01*
X133864379Y-100157073D01*
X133477082Y-100415856D01*
X133218299Y-100803153D01*
X133127426Y-101260000D01*
X133218299Y-101716847D01*
X133477082Y-102104144D01*
X133864379Y-102362927D01*
X134321226Y-102453800D01*
X134678774Y-102453800D01*
X135113207Y-102367385D01*
X150488622Y-117742800D01*
X144161779Y-117742800D01*
X135771337Y-109352358D01*
X135781701Y-109336847D01*
X135872574Y-108880000D01*
X135781701Y-108423153D01*
X135522918Y-108035856D01*
X135135621Y-107777073D01*
X134960736Y-107742286D01*
X135429716Y-107559852D01*
X135837363Y-107169530D01*
X136043737Y-106740382D01*
X135941950Y-106517800D01*
X134677800Y-106517800D01*
X134677800Y-106537800D01*
X134322200Y-106537800D01*
X134322200Y-106517800D01*
X133058050Y-106517800D01*
X132956263Y-106740382D01*
X133162637Y-107169530D01*
X133570284Y-107559852D01*
X134039264Y-107742286D01*
X133864379Y-107777073D01*
X133477082Y-108035856D01*
X133218299Y-108423153D01*
X133127426Y-108880000D01*
X133218299Y-109336847D01*
X133477082Y-109724144D01*
X133864379Y-109982927D01*
X134321226Y-110073800D01*
X134678774Y-110073800D01*
X135113207Y-109987385D01*
X143618621Y-118492800D01*
X142371778Y-118492800D01*
X135771337Y-111892359D01*
X135781701Y-111876847D01*
X135872574Y-111420000D01*
X135781701Y-110963153D01*
X135522918Y-110575856D01*
X135135621Y-110317073D01*
X134678774Y-110226200D01*
X134321226Y-110226200D01*
X133864379Y-110317073D01*
X133477082Y-110575856D01*
X133218299Y-110963153D01*
X133127426Y-111420000D01*
X133218299Y-111876847D01*
X133477082Y-112264144D01*
X133864379Y-112522927D01*
X134321226Y-112613800D01*
X134678774Y-112613800D01*
X135113207Y-112527385D01*
X141859111Y-119273289D01*
X142007437Y-119372398D01*
X142182400Y-119407200D01*
X156250000Y-119407200D01*
X156424963Y-119372398D01*
X156573289Y-119273289D01*
X158575537Y-117271041D01*
X158578906Y-117268790D01*
X158678015Y-117120464D01*
X158712817Y-116945501D01*
X158701400Y-116888103D01*
X158701400Y-116772293D01*
X158747365Y-116763644D01*
X158859749Y-116691327D01*
X158935144Y-116580983D01*
X158961669Y-116450000D01*
X158961669Y-116100000D01*
X158943625Y-116004105D01*
X158961669Y-115915000D01*
X158961669Y-115685000D01*
X158945088Y-115596880D01*
X158961669Y-115515000D01*
X158961669Y-115285000D01*
X158945088Y-115196880D01*
X158961669Y-115115000D01*
X158961669Y-114885000D01*
X158945088Y-114796880D01*
X158961669Y-114715000D01*
X158961669Y-114485000D01*
X158945088Y-114396880D01*
X158961669Y-114315000D01*
X158961669Y-114085000D01*
X158945088Y-113996880D01*
X158961669Y-113915000D01*
X158961669Y-113685000D01*
X158945088Y-113596880D01*
X158961669Y-113515000D01*
X158961669Y-113285000D01*
X158945088Y-113196880D01*
X158961669Y-113115000D01*
X158961669Y-112885000D01*
X158945088Y-112796880D01*
X158961669Y-112715000D01*
X158961669Y-112485000D01*
X158945088Y-112396880D01*
X158961669Y-112315000D01*
X158961669Y-112085000D01*
X158945088Y-111996880D01*
X158961669Y-111915000D01*
X158961669Y-111685000D01*
X158945088Y-111596880D01*
X158961669Y-111515000D01*
X158961669Y-111285000D01*
X158945088Y-111196880D01*
X158961669Y-111115000D01*
X158961669Y-110885000D01*
X158945088Y-110796880D01*
X158961669Y-110715000D01*
X158961669Y-110485000D01*
X158945088Y-110396880D01*
X158961669Y-110315000D01*
X158961669Y-110085000D01*
X158945088Y-109996880D01*
X158961669Y-109915000D01*
X158961669Y-109685000D01*
X158945088Y-109596880D01*
X158961669Y-109515000D01*
X158961669Y-109285000D01*
X158945088Y-109196880D01*
X158961669Y-109115000D01*
X158961669Y-108885000D01*
X158945088Y-108796880D01*
X158961669Y-108715000D01*
X158961669Y-108485000D01*
X158945088Y-108396880D01*
X158961669Y-108315000D01*
X158961669Y-108085000D01*
X158945088Y-107996880D01*
X158961669Y-107915000D01*
X158961669Y-107685000D01*
X158945088Y-107596880D01*
X158961669Y-107515000D01*
X158961669Y-107285000D01*
X158945088Y-107196880D01*
X158961669Y-107115000D01*
X158961669Y-106885000D01*
X158945088Y-106796880D01*
X158961669Y-106715000D01*
X158961669Y-106485000D01*
X158945088Y-106396880D01*
X158961669Y-106315000D01*
X158961669Y-106206400D01*
X159531067Y-106206400D01*
X159686590Y-106175465D01*
X159818435Y-106087368D01*
X160232557Y-105673246D01*
X160251780Y-105644477D01*
X160320654Y-105541401D01*
X160338331Y-105452531D01*
X160338331Y-105515000D01*
X160354912Y-105603120D01*
X160338331Y-105685000D01*
X160338331Y-105915000D01*
X160351793Y-105986543D01*
X160344077Y-105989739D01*
X160179739Y-106154078D01*
X160090800Y-106368796D01*
X160090800Y-106396450D01*
X160214083Y-106519733D01*
X160179739Y-106554078D01*
X160090800Y-106768796D01*
X160090800Y-106796450D01*
X160094350Y-106800000D01*
X160090800Y-106803550D01*
X160090800Y-106831204D01*
X160160718Y-107000000D01*
X160090800Y-107168796D01*
X160090800Y-107196450D01*
X160094350Y-107200000D01*
X160090800Y-107203550D01*
X160090800Y-107231204D01*
X160160718Y-107400000D01*
X160090800Y-107568796D01*
X160090800Y-107596450D01*
X160094350Y-107600000D01*
X160090800Y-107603550D01*
X160090800Y-107631204D01*
X160160718Y-107800000D01*
X160090800Y-107968796D01*
X160090800Y-107996450D01*
X160094350Y-108000000D01*
X160090800Y-108003550D01*
X160090800Y-108031204D01*
X160160718Y-108200000D01*
X160090800Y-108368796D01*
X160090800Y-108396450D01*
X160094350Y-108400000D01*
X160090800Y-108403550D01*
X160090800Y-108431204D01*
X160160718Y-108600000D01*
X160090800Y-108768796D01*
X160090800Y-108796450D01*
X160094350Y-108800000D01*
X160090800Y-108803550D01*
X160090800Y-108831204D01*
X160160718Y-109000000D01*
X160090800Y-109168796D01*
X160090800Y-109196450D01*
X160094350Y-109200000D01*
X160090800Y-109203550D01*
X160090800Y-109231204D01*
X160179739Y-109445922D01*
X160214083Y-109480267D01*
X160090800Y-109603550D01*
X160090800Y-109631204D01*
X160179739Y-109845922D01*
X160344077Y-110010261D01*
X160352740Y-110013849D01*
X160338331Y-110085000D01*
X160338331Y-110315000D01*
X160354912Y-110403120D01*
X160338331Y-110485000D01*
X160338331Y-110715000D01*
X160354912Y-110803120D01*
X160338331Y-110885000D01*
X160338331Y-111115000D01*
X160354912Y-111203120D01*
X160338331Y-111285000D01*
X160338331Y-111515000D01*
X160354912Y-111603120D01*
X160338331Y-111685000D01*
X160338331Y-111915000D01*
X160354912Y-112003120D01*
X160338331Y-112085000D01*
X160338331Y-112315000D01*
X160354912Y-112403120D01*
X160338331Y-112485000D01*
X160338331Y-112715000D01*
X160354912Y-112803120D01*
X160338331Y-112885000D01*
X160338331Y-113115000D01*
X160354912Y-113203120D01*
X160338331Y-113285000D01*
X160338331Y-113515000D01*
X160354912Y-113603120D01*
X160338331Y-113685000D01*
X160338331Y-113915000D01*
X160354912Y-114003120D01*
X160338331Y-114085000D01*
X160338331Y-114315000D01*
X160354912Y-114403120D01*
X160338331Y-114485000D01*
X160338331Y-114715000D01*
X160354912Y-114803120D01*
X160338331Y-114885000D01*
X160338331Y-115115000D01*
X160354912Y-115203120D01*
X160338331Y-115285000D01*
X160338331Y-115515000D01*
X160354912Y-115603120D01*
X160338331Y-115685000D01*
X160338331Y-115915000D01*
X160356375Y-116010895D01*
X160338331Y-116100000D01*
X160338331Y-116450000D01*
X160361356Y-116572365D01*
X160428077Y-116676053D01*
X160372032Y-116811026D01*
X160371798Y-117078802D01*
X160474056Y-117326284D01*
X160663237Y-117515795D01*
X160910540Y-117618484D01*
X161178316Y-117618718D01*
X161425798Y-117516460D01*
X161615309Y-117327279D01*
X161717998Y-117079976D01*
X161718232Y-116812200D01*
X161684394Y-116730305D01*
X161838744Y-116794397D01*
X161838593Y-116967746D01*
X161940851Y-117215228D01*
X162130032Y-117404739D01*
X162377335Y-117507428D01*
X162645111Y-117507662D01*
X162892593Y-117405404D01*
X163027879Y-117270353D01*
X163071608Y-117376184D01*
X163260789Y-117565695D01*
X163508092Y-117668384D01*
X163775868Y-117668618D01*
X164023350Y-117566360D01*
X164212861Y-117377179D01*
X164315550Y-117129876D01*
X164315784Y-116862100D01*
X164213526Y-116614618D01*
X164122694Y-116523627D01*
X164125216Y-116506470D01*
X164169713Y-116544285D01*
X164244827Y-116619530D01*
X164492130Y-116722219D01*
X164759906Y-116722453D01*
X165007388Y-116620195D01*
X165196899Y-116431014D01*
X165299588Y-116183711D01*
X165299798Y-115943131D01*
X165422112Y-115892592D01*
X165594800Y-115720205D01*
X165594800Y-123210093D01*
X165408979Y-124144277D01*
X164902410Y-124902412D01*
X164144277Y-125408979D01*
X163210092Y-125594800D01*
X132789907Y-125594800D01*
X131855723Y-125408979D01*
X131097588Y-124902410D01*
X130591021Y-124144277D01*
X130485235Y-123612452D01*
X130919483Y-123612452D01*
X131197527Y-124285371D01*
X131711921Y-124800664D01*
X132384354Y-125079882D01*
X133112452Y-125080517D01*
X133785371Y-124802473D01*
X134300664Y-124288079D01*
X134579882Y-123615646D01*
X134579884Y-123612452D01*
X161419483Y-123612452D01*
X161697527Y-124285371D01*
X162211921Y-124800664D01*
X162884354Y-125079882D01*
X163612452Y-125080517D01*
X164285371Y-124802473D01*
X164800664Y-124288079D01*
X165079882Y-123615646D01*
X165080517Y-122887548D01*
X164802473Y-122214629D01*
X164288079Y-121699336D01*
X163615646Y-121420118D01*
X162887548Y-121419483D01*
X162214629Y-121697527D01*
X161699336Y-122211921D01*
X161420118Y-122884354D01*
X161419483Y-123612452D01*
X134579884Y-123612452D01*
X134580517Y-122887548D01*
X134302473Y-122214629D01*
X133788079Y-121699336D01*
X133115646Y-121420118D01*
X132387548Y-121419483D01*
X131714629Y-121697527D01*
X131199336Y-122211921D01*
X130920118Y-122884354D01*
X130919483Y-123612452D01*
X130485235Y-123612452D01*
X130405200Y-123210092D01*
X130405200Y-116823850D01*
X132899800Y-116823850D01*
X132899800Y-117479804D01*
X132988739Y-117694522D01*
X133153077Y-117858861D01*
X133367795Y-117947800D01*
X134176150Y-117947800D01*
X134322200Y-117801750D01*
X134322200Y-116677800D01*
X134677800Y-116677800D01*
X134677800Y-117801750D01*
X134823850Y-117947800D01*
X135632205Y-117947800D01*
X135846923Y-117858861D01*
X136011261Y-117694522D01*
X136100200Y-117479804D01*
X136100200Y-116823850D01*
X135954150Y-116677800D01*
X134677800Y-116677800D01*
X134322200Y-116677800D01*
X133045850Y-116677800D01*
X132899800Y-116823850D01*
X130405200Y-116823850D01*
X130405200Y-115520196D01*
X132899800Y-115520196D01*
X132899800Y-116176150D01*
X133045850Y-116322200D01*
X134322200Y-116322200D01*
X134322200Y-116302200D01*
X134677800Y-116302200D01*
X134677800Y-116322200D01*
X135954150Y-116322200D01*
X136100200Y-116176150D01*
X136100200Y-115520196D01*
X136011261Y-115305478D01*
X135846923Y-115141139D01*
X135632205Y-115052200D01*
X135151675Y-115052200D01*
X135522918Y-114804144D01*
X135781701Y-114416847D01*
X135872574Y-113960000D01*
X135781701Y-113503153D01*
X135522918Y-113115856D01*
X135135621Y-112857073D01*
X134678774Y-112766200D01*
X134321226Y-112766200D01*
X133864379Y-112857073D01*
X133477082Y-113115856D01*
X133218299Y-113503153D01*
X133127426Y-113960000D01*
X133218299Y-114416847D01*
X133477082Y-114804144D01*
X133848325Y-115052200D01*
X133367795Y-115052200D01*
X133153077Y-115141139D01*
X132988739Y-115305478D01*
X132899800Y-115520196D01*
X130405200Y-115520196D01*
X130405200Y-105939618D01*
X132956263Y-105939618D01*
X133058050Y-106162200D01*
X134322200Y-106162200D01*
X134322200Y-106142200D01*
X134677800Y-106142200D01*
X134677800Y-106162200D01*
X135941950Y-106162200D01*
X136043737Y-105939618D01*
X135837363Y-105510470D01*
X135429716Y-105120148D01*
X134960736Y-104937714D01*
X135135621Y-104902927D01*
X135522918Y-104644144D01*
X135781701Y-104256847D01*
X135872574Y-103800000D01*
X135781701Y-103343153D01*
X135522918Y-102955856D01*
X135135621Y-102697073D01*
X134678774Y-102606200D01*
X134321226Y-102606200D01*
X133864379Y-102697073D01*
X133477082Y-102955856D01*
X133218299Y-103343153D01*
X133127426Y-103800000D01*
X133218299Y-104256847D01*
X133477082Y-104644144D01*
X133864379Y-104902927D01*
X134039264Y-104937714D01*
X133570284Y-105120148D01*
X133162637Y-105510470D01*
X132956263Y-105939618D01*
X130405200Y-105939618D01*
X130405200Y-93112452D01*
X130919483Y-93112452D01*
X131197527Y-93785371D01*
X131711921Y-94300664D01*
X132384354Y-94579882D01*
X133112452Y-94580517D01*
X133785371Y-94302473D01*
X134300664Y-93788079D01*
X134433597Y-93467940D01*
X140788500Y-93467940D01*
X140791879Y-93488285D01*
X140789694Y-93508786D01*
X140793044Y-93545827D01*
X140800187Y-93570068D01*
X140801290Y-93595319D01*
X140809275Y-93627946D01*
X140822258Y-93655786D01*
X140822366Y-93657946D01*
X140823142Y-93659583D01*
X140829181Y-93685796D01*
X140841772Y-93713781D01*
X140862832Y-93743334D01*
X140867242Y-93752641D01*
X140868197Y-93755847D01*
X140869553Y-93757517D01*
X140878376Y-93776134D01*
X140895548Y-93799249D01*
X140915624Y-93817416D01*
X140917673Y-93820292D01*
X140921284Y-93822551D01*
X140921291Y-93822565D01*
X140921863Y-93823062D01*
X140925326Y-93826196D01*
X140950645Y-93857374D01*
X140972368Y-93875391D01*
X140990580Y-93885246D01*
X140992523Y-93887005D01*
X140996361Y-93888375D01*
X140998000Y-93889262D01*
X141019989Y-93908381D01*
X141030514Y-93914398D01*
X141043425Y-93918719D01*
X141054381Y-93926799D01*
X141064514Y-93931558D01*
X141074817Y-93934109D01*
X141083736Y-93939863D01*
X141094786Y-93944233D01*
X141105172Y-93946126D01*
X141114382Y-93951287D01*
X141126708Y-93955297D01*
X141136320Y-93956438D01*
X141145017Y-93960680D01*
X141158975Y-93964356D01*
X141167317Y-93964867D01*
X141175002Y-93968159D01*
X141190951Y-93971531D01*
X141197884Y-93971614D01*
X141204364Y-93974083D01*
X141222660Y-93977179D01*
X141228259Y-93977018D01*
X141233553Y-93978838D01*
X141254552Y-93981685D01*
X141258972Y-93981412D01*
X141263193Y-93982742D01*
X141287255Y-93985370D01*
X141290720Y-93985066D01*
X141294062Y-93986044D01*
X141321542Y-93988479D01*
X141324226Y-93988188D01*
X141326827Y-93988905D01*
X141358084Y-93991177D01*
X141360164Y-93990918D01*
X141362190Y-93991450D01*
X141397580Y-93993586D01*
X141399184Y-93993366D01*
X141400752Y-93993762D01*
X141440635Y-93995790D01*
X141441856Y-93995611D01*
X141443058Y-93995905D01*
X141487787Y-93997855D01*
X141488730Y-93997710D01*
X141489656Y-93997931D01*
X141539592Y-93999829D01*
X141540303Y-93999715D01*
X141541005Y-93999880D01*
X141596504Y-94001755D01*
X141597039Y-94001667D01*
X141597567Y-94001789D01*
X141658986Y-94003669D01*
X141659379Y-94003603D01*
X141659768Y-94003692D01*
X141727465Y-94005606D01*
X141727751Y-94005558D01*
X141728035Y-94005622D01*
X141802366Y-94007597D01*
X141802498Y-94007574D01*
X141802630Y-94007604D01*
X141816169Y-94007953D01*
X141937484Y-94011270D01*
X142051532Y-94014802D01*
X142159704Y-94018603D01*
X142262231Y-94022690D01*
X142359851Y-94027098D01*
X142452959Y-94031849D01*
X142542196Y-94036973D01*
X142628093Y-94042497D01*
X142711175Y-94048446D01*
X142792285Y-94054870D01*
X142871838Y-94061787D01*
X142950710Y-94069258D01*
X142975729Y-94071757D01*
X143100987Y-94085219D01*
X143220630Y-94099730D01*
X143336366Y-94115545D01*
X143448973Y-94132817D01*
X143559401Y-94151730D01*
X143668344Y-94172430D01*
X143776847Y-94195137D01*
X143885565Y-94220001D01*
X143995549Y-94247264D01*
X144107625Y-94277132D01*
X144222565Y-94309796D01*
X144341162Y-94345460D01*
X144464266Y-94384342D01*
X144592845Y-94426708D01*
X144694711Y-94461367D01*
X144740900Y-94477586D01*
X144783703Y-94493279D01*
X144824171Y-94508862D01*
X144863266Y-94524736D01*
X144901857Y-94541279D01*
X144940835Y-94558899D01*
X144981285Y-94578116D01*
X145023855Y-94599269D01*
X145069460Y-94622831D01*
X145118732Y-94649141D01*
X145172541Y-94678658D01*
X145231253Y-94711563D01*
X145295616Y-94748240D01*
X145316133Y-94760031D01*
X145374754Y-94793761D01*
X145374872Y-94793801D01*
X145374965Y-94793882D01*
X145427935Y-94824310D01*
X145428103Y-94824366D01*
X145428234Y-94824481D01*
X145476003Y-94851856D01*
X145476238Y-94851935D01*
X145476426Y-94852098D01*
X145519439Y-94876664D01*
X145519757Y-94876770D01*
X145520010Y-94876989D01*
X145558715Y-94898994D01*
X145559136Y-94899134D01*
X145559472Y-94899423D01*
X145594317Y-94919114D01*
X145594864Y-94919294D01*
X145595304Y-94919670D01*
X145626737Y-94937293D01*
X145627419Y-94937515D01*
X145627965Y-94937978D01*
X145656434Y-94953782D01*
X145657282Y-94954054D01*
X145657965Y-94954627D01*
X145683916Y-94968857D01*
X145684924Y-94969175D01*
X145685737Y-94969848D01*
X145709619Y-94982752D01*
X145710779Y-94983110D01*
X145711719Y-94983877D01*
X145733979Y-94995701D01*
X145735240Y-94996080D01*
X145736269Y-94996907D01*
X145757354Y-95007898D01*
X145758675Y-95008284D01*
X145759757Y-95009139D01*
X145780117Y-95019545D01*
X145781386Y-95019905D01*
X145782428Y-95020715D01*
X145802508Y-95030783D01*
X145803667Y-95031102D01*
X145804621Y-95031833D01*
X145824870Y-95041808D01*
X145825810Y-95042060D01*
X145826587Y-95042648D01*
X145847452Y-95052779D01*
X145847855Y-95052884D01*
X145848189Y-95053136D01*
X145850021Y-95054020D01*
X145852232Y-95054592D01*
X145854071Y-95055940D01*
X145921509Y-95087377D01*
X145926714Y-95088650D01*
X145931134Y-95091681D01*
X145994751Y-95118935D01*
X146001160Y-95120290D01*
X146006702Y-95123785D01*
X146067870Y-95147248D01*
X146075255Y-95148515D01*
X146081761Y-95152228D01*
X146141851Y-95172291D01*
X146149772Y-95173294D01*
X146156886Y-95176922D01*
X146217270Y-95193979D01*
X146225176Y-95194604D01*
X146232404Y-95197876D01*
X146294453Y-95212318D01*
X146301782Y-95212555D01*
X146308586Y-95215288D01*
X146373672Y-95227508D01*
X146380006Y-95227440D01*
X146385963Y-95229579D01*
X146455458Y-95239969D01*
X146460276Y-95239738D01*
X146464860Y-95241239D01*
X146529699Y-95249064D01*
X146534563Y-95248692D01*
X146539240Y-95250077D01*
X146580226Y-95253837D01*
X146584825Y-95253353D01*
X146589298Y-95254546D01*
X146635244Y-95257506D01*
X146638837Y-95257029D01*
X146642356Y-95257888D01*
X146691203Y-95259994D01*
X146694410Y-95259499D01*
X146697577Y-95260208D01*
X146747272Y-95261404D01*
X146750515Y-95260840D01*
X146753740Y-95261497D01*
X146802224Y-95261728D01*
X146805938Y-95261008D01*
X146809662Y-95261681D01*
X146854879Y-95260893D01*
X146858951Y-95260009D01*
X146863068Y-95260650D01*
X146892572Y-95259414D01*
X146899428Y-95257749D01*
X146906438Y-95258545D01*
X146985984Y-95251902D01*
X146994816Y-95249365D01*
X147003989Y-95249907D01*
X147084444Y-95238785D01*
X147092667Y-95235934D01*
X147101375Y-95236002D01*
X147181553Y-95220702D01*
X147189506Y-95217480D01*
X147198080Y-95217114D01*
X147276791Y-95197934D01*
X147284775Y-95194220D01*
X147293540Y-95193390D01*
X147369596Y-95170628D01*
X147377911Y-95166223D01*
X147387215Y-95164819D01*
X147459427Y-95138774D01*
X147468405Y-95133362D01*
X147478659Y-95131160D01*
X147545841Y-95102131D01*
X147552087Y-95097819D01*
X147559424Y-95095898D01*
X147577532Y-95087096D01*
X147583994Y-95082196D01*
X147591733Y-95079770D01*
X147672713Y-95035517D01*
X147682028Y-95027727D01*
X147693323Y-95023277D01*
X147772545Y-94972313D01*
X147780834Y-94964307D01*
X147791248Y-94959364D01*
X147868572Y-94901849D01*
X147875896Y-94893745D01*
X147885444Y-94888436D01*
X147960731Y-94824526D01*
X147967160Y-94816421D01*
X147975877Y-94810854D01*
X148048986Y-94740707D01*
X148054594Y-94732678D01*
X148062531Y-94726940D01*
X148133322Y-94650714D01*
X148138188Y-94642814D01*
X148145399Y-94636976D01*
X148213734Y-94554829D01*
X148217938Y-94547088D01*
X148224487Y-94541199D01*
X148290224Y-94453288D01*
X148293833Y-94445735D01*
X148299776Y-94439837D01*
X148362777Y-94346321D01*
X148365859Y-94338959D01*
X148371253Y-94333079D01*
X148431378Y-94234113D01*
X148433990Y-94226949D01*
X148438887Y-94221105D01*
X148495995Y-94116849D01*
X148498006Y-94110455D01*
X148502107Y-94105151D01*
X148547199Y-94014538D01*
X148548588Y-94009429D01*
X148551694Y-94005142D01*
X148570032Y-93965228D01*
X148571138Y-93960594D01*
X148573823Y-93956662D01*
X148591445Y-93915297D01*
X148592380Y-93910832D01*
X148594851Y-93906996D01*
X148612262Y-93862888D01*
X148612978Y-93858945D01*
X148615069Y-93855525D01*
X148632776Y-93807383D01*
X148633285Y-93804150D01*
X148634939Y-93801324D01*
X148653448Y-93747856D01*
X148653673Y-93746226D01*
X148654489Y-93744800D01*
X148658834Y-93731846D01*
X148658997Y-93730575D01*
X148659625Y-93729458D01*
X148667294Y-93706013D01*
X148667487Y-93704407D01*
X148668266Y-93702992D01*
X148676136Y-93678138D01*
X148727840Y-93657274D01*
X148727928Y-93657216D01*
X148728034Y-93657196D01*
X148764014Y-93642651D01*
X148764197Y-93642531D01*
X148764407Y-93642491D01*
X148798416Y-93628693D01*
X148798607Y-93628568D01*
X148798828Y-93628525D01*
X148830303Y-93615707D01*
X148830528Y-93615559D01*
X148830789Y-93615508D01*
X148859173Y-93603896D01*
X148859445Y-93603716D01*
X148859766Y-93603653D01*
X148884500Y-93593479D01*
X148884879Y-93593227D01*
X148885322Y-93593139D01*
X148905846Y-93584633D01*
X148906437Y-93584238D01*
X148907135Y-93584096D01*
X148922891Y-93577489D01*
X148924106Y-93576669D01*
X148925539Y-93576365D01*
X148935967Y-93571887D01*
X148940365Y-93568866D01*
X148945543Y-93567595D01*
X148950082Y-93565475D01*
X148978769Y-93544413D01*
X149010783Y-93528850D01*
X149010932Y-93528737D01*
X149019346Y-93519252D01*
X149030304Y-93512872D01*
X149039572Y-93500702D01*
X149043763Y-93497823D01*
X149045164Y-93495667D01*
X149055507Y-93488073D01*
X149073846Y-93457809D01*
X149097721Y-93430893D01*
X149101865Y-93418909D01*
X149109546Y-93408823D01*
X149114193Y-93391228D01*
X149123288Y-93376218D01*
X149128593Y-93341608D01*
X149140461Y-93307285D01*
X149139703Y-93294626D01*
X149142940Y-93282369D01*
X149140470Y-93264121D01*
X149143104Y-93246940D01*
X149134828Y-93213210D01*
X149132644Y-93176730D01*
X149127100Y-93165327D01*
X149125400Y-93152762D01*
X149116062Y-93136721D01*
X149114772Y-93131465D01*
X149113449Y-93125370D01*
X149113182Y-93124985D01*
X149111939Y-93119919D01*
X149091478Y-93092050D01*
X149075462Y-93059105D01*
X149065977Y-93050691D01*
X149059597Y-93039733D01*
X149057256Y-93037083D01*
X149046566Y-93028942D01*
X149038909Y-93017902D01*
X149031707Y-93010946D01*
X149029343Y-93009425D01*
X149027704Y-93007143D01*
X149016055Y-92996257D01*
X149014975Y-92995587D01*
X149014228Y-92994563D01*
X148998545Y-92980123D01*
X148997909Y-92979735D01*
X148997467Y-92979135D01*
X148978165Y-92961519D01*
X148977714Y-92961246D01*
X148977400Y-92960823D01*
X148954892Y-92940409D01*
X148954545Y-92940201D01*
X148954301Y-92939873D01*
X148929004Y-92917038D01*
X148928711Y-92916863D01*
X148928508Y-92916592D01*
X148900835Y-92891712D01*
X148900569Y-92891554D01*
X148900383Y-92891306D01*
X148870748Y-92864759D01*
X148870524Y-92864627D01*
X148870367Y-92864418D01*
X148844990Y-92841755D01*
X148844909Y-92841708D01*
X148844854Y-92841634D01*
X148808838Y-92809505D01*
X148777893Y-92781862D01*
X148751995Y-92758661D01*
X148730362Y-92739181D01*
X148722945Y-92732445D01*
X148713521Y-92708964D01*
X148711013Y-92705119D01*
X148710046Y-92700633D01*
X148697732Y-92672192D01*
X148695066Y-92668336D01*
X148693952Y-92663780D01*
X148681121Y-92636248D01*
X148678646Y-92632871D01*
X148677553Y-92628832D01*
X148670958Y-92615543D01*
X148665983Y-92609093D01*
X148663481Y-92601342D01*
X148631032Y-92543132D01*
X148622553Y-92533165D01*
X148617587Y-92521060D01*
X148580359Y-92464935D01*
X148571434Y-92455950D01*
X148565768Y-92444626D01*
X148523079Y-92389655D01*
X148514346Y-92382086D01*
X148508482Y-92372123D01*
X148459649Y-92317376D01*
X148454483Y-92313481D01*
X148450991Y-92308033D01*
X148437848Y-92294380D01*
X148432663Y-92290771D01*
X148429060Y-92285584D01*
X148373551Y-92232045D01*
X148364274Y-92226086D01*
X148357409Y-92217457D01*
X148300129Y-92168974D01*
X148289959Y-92163338D01*
X148282114Y-92154755D01*
X148221860Y-92110459D01*
X148211476Y-92105601D01*
X148203188Y-92097680D01*
X148138756Y-92056706D01*
X148128900Y-92052882D01*
X148120817Y-92046067D01*
X148051003Y-92007547D01*
X148045190Y-92005699D01*
X148040387Y-92001935D01*
X148019401Y-91991318D01*
X148014417Y-91989928D01*
X148010250Y-91986862D01*
X147942196Y-91954990D01*
X147934017Y-91952974D01*
X147926990Y-91948322D01*
X147858976Y-91920487D01*
X147850228Y-91918786D01*
X147842550Y-91914262D01*
X147773348Y-91890090D01*
X147764534Y-91888851D01*
X147756639Y-91884740D01*
X147685019Y-91863858D01*
X147676654Y-91863125D01*
X147669024Y-91859620D01*
X147593759Y-91841653D01*
X147586244Y-91841367D01*
X147579279Y-91838533D01*
X147499139Y-91823109D01*
X147494064Y-91823141D01*
X147489310Y-91821369D01*
X147442842Y-91813852D01*
X147440419Y-91813939D01*
X147438138Y-91813126D01*
X147418302Y-91810206D01*
X147415555Y-91810344D01*
X147412949Y-91809462D01*
X147395620Y-91807196D01*
X147391227Y-91807488D01*
X147387021Y-91806184D01*
X147370805Y-91804488D01*
X147365554Y-91804973D01*
X147360473Y-91803569D01*
X147343972Y-91802358D01*
X147339122Y-91802958D01*
X147334376Y-91801792D01*
X147316196Y-91800981D01*
X147312591Y-91801532D01*
X147309031Y-91800738D01*
X147287774Y-91800245D01*
X147285581Y-91800629D01*
X147283402Y-91800172D01*
X147257677Y-91799911D01*
X147256625Y-91800109D01*
X147255579Y-91799897D01*
X147229096Y-91799794D01*
X147228093Y-91799989D01*
X147227089Y-91799792D01*
X147189874Y-91799870D01*
X147187569Y-91800333D01*
X147185254Y-91799911D01*
X147153583Y-91800414D01*
X147149905Y-91801207D01*
X147146190Y-91800613D01*
X147118558Y-91801662D01*
X147113514Y-91802866D01*
X147108371Y-91802204D01*
X147083272Y-91803923D01*
X147077426Y-91805508D01*
X147071395Y-91804949D01*
X147047326Y-91807460D01*
X147041682Y-91809208D01*
X147035784Y-91808867D01*
X147011238Y-91812292D01*
X147006720Y-91813865D01*
X147001937Y-91813723D01*
X146975409Y-91818187D01*
X146972740Y-91819201D01*
X146969887Y-91819164D01*
X146947923Y-91823239D01*
X146943159Y-91825141D01*
X146938030Y-91825229D01*
X146879175Y-91837992D01*
X146872369Y-91840949D01*
X146864963Y-91841400D01*
X146803866Y-91857467D01*
X146797687Y-91860479D01*
X146790849Y-91861173D01*
X146730396Y-91879710D01*
X146723950Y-91883181D01*
X146716702Y-91884233D01*
X146659778Y-91904405D01*
X146655361Y-91907034D01*
X146650299Y-91907926D01*
X146638921Y-91912349D01*
X146637737Y-91913103D01*
X146636357Y-91913358D01*
X146593179Y-91930551D01*
X146592410Y-91931050D01*
X146591505Y-91931222D01*
X146549130Y-91948360D01*
X146548276Y-91948920D01*
X146547274Y-91949117D01*
X146505316Y-91966379D01*
X146504399Y-91966988D01*
X146503323Y-91967207D01*
X146461393Y-91984774D01*
X146460443Y-91985414D01*
X146459321Y-91985650D01*
X146417032Y-92003702D01*
X146416071Y-92004359D01*
X146414935Y-92004606D01*
X146371900Y-92023324D01*
X146370961Y-92023976D01*
X146369845Y-92024226D01*
X146325676Y-92043790D01*
X146324779Y-92044422D01*
X146323708Y-92044669D01*
X146278016Y-92065260D01*
X146277178Y-92065858D01*
X146276179Y-92066095D01*
X146228578Y-92087892D01*
X146227809Y-92088448D01*
X146226887Y-92088672D01*
X146176989Y-92111857D01*
X146176300Y-92112361D01*
X146175471Y-92112567D01*
X146122888Y-92137320D01*
X146122280Y-92137769D01*
X146121543Y-92137956D01*
X146065887Y-92164458D01*
X146065358Y-92164852D01*
X146064722Y-92165016D01*
X146005607Y-92193445D01*
X146005152Y-92193787D01*
X146004600Y-92193931D01*
X145941636Y-92224470D01*
X145941249Y-92224763D01*
X145940779Y-92224887D01*
X145873581Y-92257716D01*
X145873260Y-92257960D01*
X145872871Y-92258064D01*
X145801050Y-92293362D01*
X145800783Y-92293567D01*
X145800457Y-92293654D01*
X145723624Y-92331603D01*
X145723407Y-92331770D01*
X145723140Y-92331842D01*
X145640909Y-92372623D01*
X145640735Y-92372757D01*
X145640522Y-92372815D01*
X145552505Y-92416606D01*
X145552414Y-92416677D01*
X145552302Y-92416707D01*
X145529794Y-92427925D01*
X145529792Y-92427925D01*
X145451822Y-92466715D01*
X145379922Y-92502308D01*
X145313537Y-92534964D01*
X145252217Y-92564892D01*
X145195247Y-92592429D01*
X145142249Y-92617750D01*
X145093079Y-92640920D01*
X145046742Y-92662409D01*
X145003107Y-92682280D01*
X144961388Y-92700900D01*
X144921230Y-92718437D01*
X144881773Y-92735280D01*
X144842885Y-92751502D01*
X144803615Y-92767520D01*
X144763604Y-92783500D01*
X144731065Y-92796279D01*
X144731063Y-92796280D01*
X144707555Y-92805511D01*
X144706867Y-92805953D01*
X144706064Y-92806101D01*
X144684670Y-92814620D01*
X144683855Y-92815149D01*
X144682903Y-92815330D01*
X144664534Y-92822766D01*
X144663389Y-92823518D01*
X144662045Y-92823785D01*
X144647590Y-92829772D01*
X144645358Y-92831263D01*
X144642735Y-92831828D01*
X144633087Y-92836003D01*
X144624840Y-92841703D01*
X144615180Y-92844387D01*
X144611239Y-92846376D01*
X144603908Y-92852110D01*
X144595095Y-92855087D01*
X144561117Y-92884797D01*
X144545557Y-92884462D01*
X144515596Y-92883198D01*
X144513993Y-92883784D01*
X144504306Y-92883576D01*
X144501957Y-92883991D01*
X144495151Y-92886640D01*
X144491366Y-92886745D01*
X144487725Y-92886824D01*
X144473775Y-92889917D01*
X144457650Y-92892927D01*
X144434287Y-92896792D01*
X144406814Y-92900902D01*
X144377648Y-92904867D01*
X144348607Y-92908422D01*
X144320683Y-92911419D01*
X144314584Y-92912000D01*
X144289757Y-92913979D01*
X144266597Y-92915226D01*
X144242664Y-92915869D01*
X144216695Y-92915878D01*
X144187638Y-92915178D01*
X144154569Y-92913665D01*
X144116859Y-92911248D01*
X144073695Y-92907832D01*
X144024552Y-92903355D01*
X143969016Y-92897783D01*
X143910167Y-92891477D01*
X143824448Y-92881501D01*
X143732580Y-92869743D01*
X143634002Y-92856143D01*
X143529469Y-92840807D01*
X143419190Y-92823772D01*
X143303684Y-92805118D01*
X143183369Y-92784920D01*
X143058496Y-92763217D01*
X142929705Y-92740124D01*
X142797144Y-92715665D01*
X142661288Y-92689925D01*
X142522536Y-92662976D01*
X142381095Y-92634852D01*
X142237663Y-92605687D01*
X142092203Y-92575464D01*
X141945115Y-92544254D01*
X141797251Y-92512229D01*
X141710246Y-92493080D01*
X141666014Y-92483284D01*
X141665258Y-92483268D01*
X141664566Y-92482967D01*
X141626348Y-92474680D01*
X141623960Y-92474639D01*
X141621754Y-92473717D01*
X141589180Y-92467130D01*
X141584269Y-92467114D01*
X141579688Y-92465353D01*
X141552123Y-92460601D01*
X141543400Y-92460825D01*
X141535106Y-92458115D01*
X141511919Y-92455333D01*
X141497625Y-92456435D01*
X141483670Y-92453150D01*
X141464226Y-92452472D01*
X141442537Y-92456006D01*
X141420674Y-92453787D01*
X141404341Y-92455347D01*
X141390329Y-92459552D01*
X141389017Y-92459425D01*
X141373068Y-92464288D01*
X141344648Y-92466576D01*
X141330794Y-92470510D01*
X141313483Y-92479370D01*
X141309131Y-92479852D01*
X141293106Y-92488671D01*
X141280451Y-92492530D01*
X141279074Y-92492943D01*
X141279061Y-92492954D01*
X141263915Y-92497572D01*
X141251905Y-92504015D01*
X141229839Y-92522178D01*
X141214368Y-92530096D01*
X141211316Y-92533682D01*
X141194548Y-92542910D01*
X141183751Y-92551994D01*
X141166879Y-92573072D01*
X141145602Y-92589698D01*
X141135384Y-92601558D01*
X141126748Y-92616824D01*
X141114121Y-92628992D01*
X141103849Y-92643764D01*
X141100030Y-92652521D01*
X141093537Y-92659523D01*
X141082579Y-92677341D01*
X141081260Y-92680900D01*
X141078740Y-92683741D01*
X141066462Y-92704739D01*
X141066327Y-92705131D01*
X141066052Y-92705442D01*
X141061773Y-92712802D01*
X141061154Y-92714606D01*
X141059907Y-92716052D01*
X141022638Y-92781830D01*
X141021356Y-92785709D01*
X141018762Y-92788866D01*
X140983830Y-92854116D01*
X140982606Y-92858142D01*
X140980013Y-92861461D01*
X140947812Y-92925353D01*
X140946606Y-92929704D01*
X140943922Y-92933333D01*
X140914848Y-92995034D01*
X140913627Y-92999940D01*
X140910745Y-93004089D01*
X140885193Y-93062768D01*
X140883932Y-93068559D01*
X140880720Y-93073546D01*
X140859084Y-93128372D01*
X140857934Y-93134708D01*
X140854654Y-93140250D01*
X140840789Y-93179690D01*
X140839559Y-93188315D01*
X140835513Y-93196026D01*
X140820053Y-93248439D01*
X140818962Y-93260467D01*
X140814124Y-93271536D01*
X140803408Y-93320447D01*
X140803134Y-93334632D01*
X140798559Y-93348059D01*
X140792559Y-93393242D01*
X140793650Y-93410178D01*
X140789811Y-93426713D01*
X140788500Y-93467940D01*
X134433597Y-93467940D01*
X134579882Y-93115646D01*
X134580517Y-92387548D01*
X134302473Y-91714629D01*
X133788079Y-91199336D01*
X133115646Y-90920118D01*
X132387548Y-90919483D01*
X131714629Y-91197527D01*
X131199336Y-91711921D01*
X130920118Y-92384354D01*
X130919483Y-93112452D01*
X130405200Y-93112452D01*
X130405200Y-92789908D01*
X130591021Y-91855723D01*
X131097588Y-91097590D01*
X131855723Y-90591021D01*
X132789907Y-90405200D01*
X157850322Y-90405200D01*
X157624618Y-90630511D01*
X157624618Y-90630511D01*
G37*
X157624618Y-90630511D02*
X157556897Y-90793600D01*
X157486669Y-90793600D01*
X157486669Y-90750000D01*
X157463644Y-90627635D01*
X157391327Y-90515251D01*
X157280983Y-90439856D01*
X157150000Y-90413331D01*
X155950000Y-90413331D01*
X155827635Y-90436356D01*
X155715251Y-90508673D01*
X155639856Y-90619017D01*
X155613331Y-90750000D01*
X155613331Y-91411933D01*
X155264172Y-91761092D01*
X155286669Y-91650000D01*
X155286669Y-90750000D01*
X155263644Y-90627635D01*
X155191327Y-90515251D01*
X155080983Y-90439856D01*
X154950000Y-90413331D01*
X153750000Y-90413331D01*
X153627635Y-90436356D01*
X153515251Y-90508673D01*
X153439856Y-90619017D01*
X153413331Y-90750000D01*
X153413331Y-91650000D01*
X153436356Y-91772365D01*
X153508673Y-91884749D01*
X153619017Y-91960144D01*
X153663166Y-91969085D01*
X153652085Y-91995771D01*
X153651851Y-92263547D01*
X153754109Y-92511029D01*
X153894894Y-92652059D01*
X153827017Y-92815525D01*
X153826901Y-92948363D01*
X153698279Y-93076985D01*
X153466699Y-93076783D01*
X153219217Y-93179041D01*
X153029706Y-93368222D01*
X152927017Y-93615525D01*
X152926783Y-93883301D01*
X153029041Y-94130783D01*
X153218222Y-94320294D01*
X153331176Y-94367197D01*
X153057821Y-94640552D01*
X152969724Y-94772397D01*
X152938789Y-94927920D01*
X152938789Y-102107994D01*
X152969724Y-102263517D01*
X153044894Y-102376015D01*
X153057821Y-102395362D01*
X154513863Y-103851404D01*
X154645708Y-103939501D01*
X154801231Y-103970436D01*
X155354824Y-103970436D01*
X155510347Y-103939501D01*
X155578244Y-103894133D01*
X155831024Y-103894354D01*
X156078506Y-103792096D01*
X156113149Y-103757513D01*
X157497142Y-104933678D01*
X157552302Y-104964391D01*
X157604793Y-104999465D01*
X157621129Y-105002714D01*
X157628331Y-105006724D01*
X157628331Y-105115000D01*
X157644912Y-105203120D01*
X157628331Y-105285000D01*
X157628331Y-105515000D01*
X157642555Y-105590590D01*
X156837080Y-104906070D01*
X156761965Y-104830824D01*
X156514662Y-104728135D01*
X156246886Y-104727901D01*
X155999404Y-104830159D01*
X155809893Y-105019340D01*
X155707204Y-105266643D01*
X155706994Y-105507222D01*
X155584679Y-105557762D01*
X155395168Y-105746943D01*
X155292479Y-105994246D01*
X155292245Y-106262022D01*
X155394503Y-106509504D01*
X155583684Y-106699015D01*
X155789110Y-106784315D01*
X155736400Y-106836934D01*
X155633711Y-107084237D01*
X155633477Y-107352013D01*
X155735735Y-107599495D01*
X155924916Y-107789006D01*
X156172219Y-107891695D01*
X156439995Y-107891929D01*
X156459463Y-107883885D01*
X156491691Y-107961883D01*
X156529843Y-108000101D01*
X156492356Y-108037523D01*
X156459617Y-108116366D01*
X156441169Y-108108706D01*
X156173393Y-108108472D01*
X155925911Y-108210730D01*
X155736400Y-108399911D01*
X155633711Y-108647214D01*
X155633477Y-108914990D01*
X155708603Y-109096808D01*
X155496405Y-109184487D01*
X155306894Y-109373668D01*
X155204205Y-109620971D01*
X155203971Y-109888747D01*
X155306229Y-110136229D01*
X155384992Y-110215130D01*
X155176878Y-110301121D01*
X154987367Y-110490302D01*
X154884678Y-110737605D01*
X154884444Y-111005381D01*
X154986702Y-111252863D01*
X155066272Y-111332572D01*
X154859749Y-111417906D01*
X154670238Y-111607087D01*
X154567549Y-111854390D01*
X154567315Y-112122166D01*
X154669573Y-112369648D01*
X154750887Y-112451104D01*
X154540708Y-112537948D01*
X154351197Y-112727129D01*
X154248508Y-112974432D01*
X154248274Y-113242208D01*
X154350532Y-113489690D01*
X154432739Y-113572041D01*
X154219459Y-113660167D01*
X154029948Y-113849348D01*
X153927259Y-114096651D01*
X153927025Y-114364427D01*
X154029283Y-114611909D01*
X154083359Y-114666079D01*
X153877865Y-114750988D01*
X153688354Y-114940169D01*
X153585665Y-115187472D01*
X153585431Y-115455248D01*
X153687689Y-115702730D01*
X153735798Y-115750923D01*
X153697245Y-115789408D01*
X153635261Y-115938683D01*
X136093289Y-98396711D01*
X135944963Y-98297602D01*
X135782110Y-98265209D01*
X135781701Y-98263153D01*
X135522918Y-97875856D01*
X135135621Y-97617073D01*
X134678774Y-97526200D01*
X134321226Y-97526200D01*
X133864379Y-97617073D01*
X133477082Y-97875856D01*
X133218299Y-98263153D01*
X133127426Y-98720000D01*
X133218299Y-99176847D01*
X133477082Y-99564144D01*
X133864379Y-99822927D01*
X134321226Y-99913800D01*
X134678774Y-99913800D01*
X135135621Y-99822927D01*
X135522918Y-99564144D01*
X135701019Y-99297597D01*
X153696222Y-117292800D01*
X151331778Y-117292800D01*
X135771337Y-101732359D01*
X135781701Y-101716847D01*
X135872574Y-101260000D01*
X135781701Y-100803153D01*
X135522918Y-100415856D01*
X135135621Y-100157073D01*
X134678774Y-100066200D01*
X134321226Y-100066200D01*
X133864379Y-100157073D01*
X133477082Y-100415856D01*
X133218299Y-100803153D01*
X133127426Y-101260000D01*
X133218299Y-101716847D01*
X133477082Y-102104144D01*
X133864379Y-102362927D01*
X134321226Y-102453800D01*
X134678774Y-102453800D01*
X135113207Y-102367385D01*
X150488622Y-117742800D01*
X144161779Y-117742800D01*
X135771337Y-109352358D01*
X135781701Y-109336847D01*
X135872574Y-108880000D01*
X135781701Y-108423153D01*
X135522918Y-108035856D01*
X135135621Y-107777073D01*
X134960736Y-107742286D01*
X135429716Y-107559852D01*
X135837363Y-107169530D01*
X136043737Y-106740382D01*
X135941950Y-106517800D01*
X134677800Y-106517800D01*
X134677800Y-106537800D01*
X134322200Y-106537800D01*
X134322200Y-106517800D01*
X133058050Y-106517800D01*
X132956263Y-106740382D01*
X133162637Y-107169530D01*
X133570284Y-107559852D01*
X134039264Y-107742286D01*
X133864379Y-107777073D01*
X133477082Y-108035856D01*
X133218299Y-108423153D01*
X133127426Y-108880000D01*
X133218299Y-109336847D01*
X133477082Y-109724144D01*
X133864379Y-109982927D01*
X134321226Y-110073800D01*
X134678774Y-110073800D01*
X135113207Y-109987385D01*
X143618621Y-118492800D01*
X142371778Y-118492800D01*
X135771337Y-111892359D01*
X135781701Y-111876847D01*
X135872574Y-111420000D01*
X135781701Y-110963153D01*
X135522918Y-110575856D01*
X135135621Y-110317073D01*
X134678774Y-110226200D01*
X134321226Y-110226200D01*
X133864379Y-110317073D01*
X133477082Y-110575856D01*
X133218299Y-110963153D01*
X133127426Y-111420000D01*
X133218299Y-111876847D01*
X133477082Y-112264144D01*
X133864379Y-112522927D01*
X134321226Y-112613800D01*
X134678774Y-112613800D01*
X135113207Y-112527385D01*
X141859111Y-119273289D01*
X142007437Y-119372398D01*
X142182400Y-119407200D01*
X156250000Y-119407200D01*
X156424963Y-119372398D01*
X156573289Y-119273289D01*
X158575537Y-117271041D01*
X158578906Y-117268790D01*
X158678015Y-117120464D01*
X158712817Y-116945501D01*
X158701400Y-116888103D01*
X158701400Y-116772293D01*
X158747365Y-116763644D01*
X158859749Y-116691327D01*
X158935144Y-116580983D01*
X158961669Y-116450000D01*
X158961669Y-116100000D01*
X158943625Y-116004105D01*
X158961669Y-115915000D01*
X158961669Y-115685000D01*
X158945088Y-115596880D01*
X158961669Y-115515000D01*
X158961669Y-115285000D01*
X158945088Y-115196880D01*
X158961669Y-115115000D01*
X158961669Y-114885000D01*
X158945088Y-114796880D01*
X158961669Y-114715000D01*
X158961669Y-114485000D01*
X158945088Y-114396880D01*
X158961669Y-114315000D01*
X158961669Y-114085000D01*
X158945088Y-113996880D01*
X158961669Y-113915000D01*
X158961669Y-113685000D01*
X158945088Y-113596880D01*
X158961669Y-113515000D01*
X158961669Y-113285000D01*
X158945088Y-113196880D01*
X158961669Y-113115000D01*
X158961669Y-112885000D01*
X158945088Y-112796880D01*
X158961669Y-112715000D01*
X158961669Y-112485000D01*
X158945088Y-112396880D01*
X158961669Y-112315000D01*
X158961669Y-112085000D01*
X158945088Y-111996880D01*
X158961669Y-111915000D01*
X158961669Y-111685000D01*
X158945088Y-111596880D01*
X158961669Y-111515000D01*
X158961669Y-111285000D01*
X158945088Y-111196880D01*
X158961669Y-111115000D01*
X158961669Y-110885000D01*
X158945088Y-110796880D01*
X158961669Y-110715000D01*
X158961669Y-110485000D01*
X158945088Y-110396880D01*
X158961669Y-110315000D01*
X158961669Y-110085000D01*
X158945088Y-109996880D01*
X158961669Y-109915000D01*
X158961669Y-109685000D01*
X158945088Y-109596880D01*
X158961669Y-109515000D01*
X158961669Y-109285000D01*
X158945088Y-109196880D01*
X158961669Y-109115000D01*
X158961669Y-108885000D01*
X158945088Y-108796880D01*
X158961669Y-108715000D01*
X158961669Y-108485000D01*
X158945088Y-108396880D01*
X158961669Y-108315000D01*
X158961669Y-108085000D01*
X158945088Y-107996880D01*
X158961669Y-107915000D01*
X158961669Y-107685000D01*
X158945088Y-107596880D01*
X158961669Y-107515000D01*
X158961669Y-107285000D01*
X158945088Y-107196880D01*
X158961669Y-107115000D01*
X158961669Y-106885000D01*
X158945088Y-106796880D01*
X158961669Y-106715000D01*
X158961669Y-106485000D01*
X158945088Y-106396880D01*
X158961669Y-106315000D01*
X158961669Y-106206400D01*
X159531067Y-106206400D01*
X159686590Y-106175465D01*
X159818435Y-106087368D01*
X160232557Y-105673246D01*
X160251780Y-105644477D01*
X160320654Y-105541401D01*
X160338331Y-105452531D01*
X160338331Y-105515000D01*
X160354912Y-105603120D01*
X160338331Y-105685000D01*
X160338331Y-105915000D01*
X160351793Y-105986543D01*
X160344077Y-105989739D01*
X160179739Y-106154078D01*
X160090800Y-106368796D01*
X160090800Y-106396450D01*
X160214083Y-106519733D01*
X160179739Y-106554078D01*
X160090800Y-106768796D01*
X160090800Y-106796450D01*
X160094350Y-106800000D01*
X160090800Y-106803550D01*
X160090800Y-106831204D01*
X160160718Y-107000000D01*
X160090800Y-107168796D01*
X160090800Y-107196450D01*
X160094350Y-107200000D01*
X160090800Y-107203550D01*
X160090800Y-107231204D01*
X160160718Y-107400000D01*
X160090800Y-107568796D01*
X160090800Y-107596450D01*
X160094350Y-107600000D01*
X160090800Y-107603550D01*
X160090800Y-107631204D01*
X160160718Y-107800000D01*
X160090800Y-107968796D01*
X160090800Y-107996450D01*
X160094350Y-108000000D01*
X160090800Y-108003550D01*
X160090800Y-108031204D01*
X160160718Y-108200000D01*
X160090800Y-108368796D01*
X160090800Y-108396450D01*
X160094350Y-108400000D01*
X160090800Y-108403550D01*
X160090800Y-108431204D01*
X160160718Y-108600000D01*
X160090800Y-108768796D01*
X160090800Y-108796450D01*
X160094350Y-108800000D01*
X160090800Y-108803550D01*
X160090800Y-108831204D01*
X160160718Y-109000000D01*
X160090800Y-109168796D01*
X160090800Y-109196450D01*
X160094350Y-109200000D01*
X160090800Y-109203550D01*
X160090800Y-109231204D01*
X160179739Y-109445922D01*
X160214083Y-109480267D01*
X160090800Y-109603550D01*
X160090800Y-109631204D01*
X160179739Y-109845922D01*
X160344077Y-110010261D01*
X160352740Y-110013849D01*
X160338331Y-110085000D01*
X160338331Y-110315000D01*
X160354912Y-110403120D01*
X160338331Y-110485000D01*
X160338331Y-110715000D01*
X160354912Y-110803120D01*
X160338331Y-110885000D01*
X160338331Y-111115000D01*
X160354912Y-111203120D01*
X160338331Y-111285000D01*
X160338331Y-111515000D01*
X160354912Y-111603120D01*
X160338331Y-111685000D01*
X160338331Y-111915000D01*
X160354912Y-112003120D01*
X160338331Y-112085000D01*
X160338331Y-112315000D01*
X160354912Y-112403120D01*
X160338331Y-112485000D01*
X160338331Y-112715000D01*
X160354912Y-112803120D01*
X160338331Y-112885000D01*
X160338331Y-113115000D01*
X160354912Y-113203120D01*
X160338331Y-113285000D01*
X160338331Y-113515000D01*
X160354912Y-113603120D01*
X160338331Y-113685000D01*
X160338331Y-113915000D01*
X160354912Y-114003120D01*
X160338331Y-114085000D01*
X160338331Y-114315000D01*
X160354912Y-114403120D01*
X160338331Y-114485000D01*
X160338331Y-114715000D01*
X160354912Y-114803120D01*
X160338331Y-114885000D01*
X160338331Y-115115000D01*
X160354912Y-115203120D01*
X160338331Y-115285000D01*
X160338331Y-115515000D01*
X160354912Y-115603120D01*
X160338331Y-115685000D01*
X160338331Y-115915000D01*
X160356375Y-116010895D01*
X160338331Y-116100000D01*
X160338331Y-116450000D01*
X160361356Y-116572365D01*
X160428077Y-116676053D01*
X160372032Y-116811026D01*
X160371798Y-117078802D01*
X160474056Y-117326284D01*
X160663237Y-117515795D01*
X160910540Y-117618484D01*
X161178316Y-117618718D01*
X161425798Y-117516460D01*
X161615309Y-117327279D01*
X161717998Y-117079976D01*
X161718232Y-116812200D01*
X161684394Y-116730305D01*
X161838744Y-116794397D01*
X161838593Y-116967746D01*
X161940851Y-117215228D01*
X162130032Y-117404739D01*
X162377335Y-117507428D01*
X162645111Y-117507662D01*
X162892593Y-117405404D01*
X163027879Y-117270353D01*
X163071608Y-117376184D01*
X163260789Y-117565695D01*
X163508092Y-117668384D01*
X163775868Y-117668618D01*
X164023350Y-117566360D01*
X164212861Y-117377179D01*
X164315550Y-117129876D01*
X164315784Y-116862100D01*
X164213526Y-116614618D01*
X164122694Y-116523627D01*
X164125216Y-116506470D01*
X164169713Y-116544285D01*
X164244827Y-116619530D01*
X164492130Y-116722219D01*
X164759906Y-116722453D01*
X165007388Y-116620195D01*
X165196899Y-116431014D01*
X165299588Y-116183711D01*
X165299798Y-115943131D01*
X165422112Y-115892592D01*
X165594800Y-115720205D01*
X165594800Y-123210093D01*
X165408979Y-124144277D01*
X164902410Y-124902412D01*
X164144277Y-125408979D01*
X163210092Y-125594800D01*
X132789907Y-125594800D01*
X131855723Y-125408979D01*
X131097588Y-124902410D01*
X130591021Y-124144277D01*
X130485235Y-123612452D01*
X130919483Y-123612452D01*
X131197527Y-124285371D01*
X131711921Y-124800664D01*
X132384354Y-125079882D01*
X133112452Y-125080517D01*
X133785371Y-124802473D01*
X134300664Y-124288079D01*
X134579882Y-123615646D01*
X134579884Y-123612452D01*
X161419483Y-123612452D01*
X161697527Y-124285371D01*
X162211921Y-124800664D01*
X162884354Y-125079882D01*
X163612452Y-125080517D01*
X164285371Y-124802473D01*
X164800664Y-124288079D01*
X165079882Y-123615646D01*
X165080517Y-122887548D01*
X164802473Y-122214629D01*
X164288079Y-121699336D01*
X163615646Y-121420118D01*
X162887548Y-121419483D01*
X162214629Y-121697527D01*
X161699336Y-122211921D01*
X161420118Y-122884354D01*
X161419483Y-123612452D01*
X134579884Y-123612452D01*
X134580517Y-122887548D01*
X134302473Y-122214629D01*
X133788079Y-121699336D01*
X133115646Y-121420118D01*
X132387548Y-121419483D01*
X131714629Y-121697527D01*
X131199336Y-122211921D01*
X130920118Y-122884354D01*
X130919483Y-123612452D01*
X130485235Y-123612452D01*
X130405200Y-123210092D01*
X130405200Y-116823850D01*
X132899800Y-116823850D01*
X132899800Y-117479804D01*
X132988739Y-117694522D01*
X133153077Y-117858861D01*
X133367795Y-117947800D01*
X134176150Y-117947800D01*
X134322200Y-117801750D01*
X134322200Y-116677800D01*
X134677800Y-116677800D01*
X134677800Y-117801750D01*
X134823850Y-117947800D01*
X135632205Y-117947800D01*
X135846923Y-117858861D01*
X136011261Y-117694522D01*
X136100200Y-117479804D01*
X136100200Y-116823850D01*
X135954150Y-116677800D01*
X134677800Y-116677800D01*
X134322200Y-116677800D01*
X133045850Y-116677800D01*
X132899800Y-116823850D01*
X130405200Y-116823850D01*
X130405200Y-115520196D01*
X132899800Y-115520196D01*
X132899800Y-116176150D01*
X133045850Y-116322200D01*
X134322200Y-116322200D01*
X134322200Y-116302200D01*
X134677800Y-116302200D01*
X134677800Y-116322200D01*
X135954150Y-116322200D01*
X136100200Y-116176150D01*
X136100200Y-115520196D01*
X136011261Y-115305478D01*
X135846923Y-115141139D01*
X135632205Y-115052200D01*
X135151675Y-115052200D01*
X135522918Y-114804144D01*
X135781701Y-114416847D01*
X135872574Y-113960000D01*
X135781701Y-113503153D01*
X135522918Y-113115856D01*
X135135621Y-112857073D01*
X134678774Y-112766200D01*
X134321226Y-112766200D01*
X133864379Y-112857073D01*
X133477082Y-113115856D01*
X133218299Y-113503153D01*
X133127426Y-113960000D01*
X133218299Y-114416847D01*
X133477082Y-114804144D01*
X133848325Y-115052200D01*
X133367795Y-115052200D01*
X133153077Y-115141139D01*
X132988739Y-115305478D01*
X132899800Y-115520196D01*
X130405200Y-115520196D01*
X130405200Y-105939618D01*
X132956263Y-105939618D01*
X133058050Y-106162200D01*
X134322200Y-106162200D01*
X134322200Y-106142200D01*
X134677800Y-106142200D01*
X134677800Y-106162200D01*
X135941950Y-106162200D01*
X136043737Y-105939618D01*
X135837363Y-105510470D01*
X135429716Y-105120148D01*
X134960736Y-104937714D01*
X135135621Y-104902927D01*
X135522918Y-104644144D01*
X135781701Y-104256847D01*
X135872574Y-103800000D01*
X135781701Y-103343153D01*
X135522918Y-102955856D01*
X135135621Y-102697073D01*
X134678774Y-102606200D01*
X134321226Y-102606200D01*
X133864379Y-102697073D01*
X133477082Y-102955856D01*
X133218299Y-103343153D01*
X133127426Y-103800000D01*
X133218299Y-104256847D01*
X133477082Y-104644144D01*
X133864379Y-104902927D01*
X134039264Y-104937714D01*
X133570284Y-105120148D01*
X133162637Y-105510470D01*
X132956263Y-105939618D01*
X130405200Y-105939618D01*
X130405200Y-93112452D01*
X130919483Y-93112452D01*
X131197527Y-93785371D01*
X131711921Y-94300664D01*
X132384354Y-94579882D01*
X133112452Y-94580517D01*
X133785371Y-94302473D01*
X134300664Y-93788079D01*
X134433597Y-93467940D01*
X140788500Y-93467940D01*
X140791879Y-93488285D01*
X140789694Y-93508786D01*
X140793044Y-93545827D01*
X140800187Y-93570068D01*
X140801290Y-93595319D01*
X140809275Y-93627946D01*
X140822258Y-93655786D01*
X140822366Y-93657946D01*
X140823142Y-93659583D01*
X140829181Y-93685796D01*
X140841772Y-93713781D01*
X140862832Y-93743334D01*
X140867242Y-93752641D01*
X140868197Y-93755847D01*
X140869553Y-93757517D01*
X140878376Y-93776134D01*
X140895548Y-93799249D01*
X140915624Y-93817416D01*
X140917673Y-93820292D01*
X140921284Y-93822551D01*
X140921291Y-93822565D01*
X140921863Y-93823062D01*
X140925326Y-93826196D01*
X140950645Y-93857374D01*
X140972368Y-93875391D01*
X140990580Y-93885246D01*
X140992523Y-93887005D01*
X140996361Y-93888375D01*
X140998000Y-93889262D01*
X141019989Y-93908381D01*
X141030514Y-93914398D01*
X141043425Y-93918719D01*
X141054381Y-93926799D01*
X141064514Y-93931558D01*
X141074817Y-93934109D01*
X141083736Y-93939863D01*
X141094786Y-93944233D01*
X141105172Y-93946126D01*
X141114382Y-93951287D01*
X141126708Y-93955297D01*
X141136320Y-93956438D01*
X141145017Y-93960680D01*
X141158975Y-93964356D01*
X141167317Y-93964867D01*
X141175002Y-93968159D01*
X141190951Y-93971531D01*
X141197884Y-93971614D01*
X141204364Y-93974083D01*
X141222660Y-93977179D01*
X141228259Y-93977018D01*
X141233553Y-93978838D01*
X141254552Y-93981685D01*
X141258972Y-93981412D01*
X141263193Y-93982742D01*
X141287255Y-93985370D01*
X141290720Y-93985066D01*
X141294062Y-93986044D01*
X141321542Y-93988479D01*
X141324226Y-93988188D01*
X141326827Y-93988905D01*
X141358084Y-93991177D01*
X141360164Y-93990918D01*
X141362190Y-93991450D01*
X141397580Y-93993586D01*
X141399184Y-93993366D01*
X141400752Y-93993762D01*
X141440635Y-93995790D01*
X141441856Y-93995611D01*
X141443058Y-93995905D01*
X141487787Y-93997855D01*
X141488730Y-93997710D01*
X141489656Y-93997931D01*
X141539592Y-93999829D01*
X141540303Y-93999715D01*
X141541005Y-93999880D01*
X141596504Y-94001755D01*
X141597039Y-94001667D01*
X141597567Y-94001789D01*
X141658986Y-94003669D01*
X141659379Y-94003603D01*
X141659768Y-94003692D01*
X141727465Y-94005606D01*
X141727751Y-94005558D01*
X141728035Y-94005622D01*
X141802366Y-94007597D01*
X141802498Y-94007574D01*
X141802630Y-94007604D01*
X141816169Y-94007953D01*
X141937484Y-94011270D01*
X142051532Y-94014802D01*
X142159704Y-94018603D01*
X142262231Y-94022690D01*
X142359851Y-94027098D01*
X142452959Y-94031849D01*
X142542196Y-94036973D01*
X142628093Y-94042497D01*
X142711175Y-94048446D01*
X142792285Y-94054870D01*
X142871838Y-94061787D01*
X142950710Y-94069258D01*
X142975729Y-94071757D01*
X143100987Y-94085219D01*
X143220630Y-94099730D01*
X143336366Y-94115545D01*
X143448973Y-94132817D01*
X143559401Y-94151730D01*
X143668344Y-94172430D01*
X143776847Y-94195137D01*
X143885565Y-94220001D01*
X143995549Y-94247264D01*
X144107625Y-94277132D01*
X144222565Y-94309796D01*
X144341162Y-94345460D01*
X144464266Y-94384342D01*
X144592845Y-94426708D01*
X144694711Y-94461367D01*
X144740900Y-94477586D01*
X144783703Y-94493279D01*
X144824171Y-94508862D01*
X144863266Y-94524736D01*
X144901857Y-94541279D01*
X144940835Y-94558899D01*
X144981285Y-94578116D01*
X145023855Y-94599269D01*
X145069460Y-94622831D01*
X145118732Y-94649141D01*
X145172541Y-94678658D01*
X145231253Y-94711563D01*
X145295616Y-94748240D01*
X145316133Y-94760031D01*
X145374754Y-94793761D01*
X145374872Y-94793801D01*
X145374965Y-94793882D01*
X145427935Y-94824310D01*
X145428103Y-94824366D01*
X145428234Y-94824481D01*
X145476003Y-94851856D01*
X145476238Y-94851935D01*
X145476426Y-94852098D01*
X145519439Y-94876664D01*
X145519757Y-94876770D01*
X145520010Y-94876989D01*
X145558715Y-94898994D01*
X145559136Y-94899134D01*
X145559472Y-94899423D01*
X145594317Y-94919114D01*
X145594864Y-94919294D01*
X145595304Y-94919670D01*
X145626737Y-94937293D01*
X145627419Y-94937515D01*
X145627965Y-94937978D01*
X145656434Y-94953782D01*
X145657282Y-94954054D01*
X145657965Y-94954627D01*
X145683916Y-94968857D01*
X145684924Y-94969175D01*
X145685737Y-94969848D01*
X145709619Y-94982752D01*
X145710779Y-94983110D01*
X145711719Y-94983877D01*
X145733979Y-94995701D01*
X145735240Y-94996080D01*
X145736269Y-94996907D01*
X145757354Y-95007898D01*
X145758675Y-95008284D01*
X145759757Y-95009139D01*
X145780117Y-95019545D01*
X145781386Y-95019905D01*
X145782428Y-95020715D01*
X145802508Y-95030783D01*
X145803667Y-95031102D01*
X145804621Y-95031833D01*
X145824870Y-95041808D01*
X145825810Y-95042060D01*
X145826587Y-95042648D01*
X145847452Y-95052779D01*
X145847855Y-95052884D01*
X145848189Y-95053136D01*
X145850021Y-95054020D01*
X145852232Y-95054592D01*
X145854071Y-95055940D01*
X145921509Y-95087377D01*
X145926714Y-95088650D01*
X145931134Y-95091681D01*
X145994751Y-95118935D01*
X146001160Y-95120290D01*
X146006702Y-95123785D01*
X146067870Y-95147248D01*
X146075255Y-95148515D01*
X146081761Y-95152228D01*
X146141851Y-95172291D01*
X146149772Y-95173294D01*
X146156886Y-95176922D01*
X146217270Y-95193979D01*
X146225176Y-95194604D01*
X146232404Y-95197876D01*
X146294453Y-95212318D01*
X146301782Y-95212555D01*
X146308586Y-95215288D01*
X146373672Y-95227508D01*
X146380006Y-95227440D01*
X146385963Y-95229579D01*
X146455458Y-95239969D01*
X146460276Y-95239738D01*
X146464860Y-95241239D01*
X146529699Y-95249064D01*
X146534563Y-95248692D01*
X146539240Y-95250077D01*
X146580226Y-95253837D01*
X146584825Y-95253353D01*
X146589298Y-95254546D01*
X146635244Y-95257506D01*
X146638837Y-95257029D01*
X146642356Y-95257888D01*
X146691203Y-95259994D01*
X146694410Y-95259499D01*
X146697577Y-95260208D01*
X146747272Y-95261404D01*
X146750515Y-95260840D01*
X146753740Y-95261497D01*
X146802224Y-95261728D01*
X146805938Y-95261008D01*
X146809662Y-95261681D01*
X146854879Y-95260893D01*
X146858951Y-95260009D01*
X146863068Y-95260650D01*
X146892572Y-95259414D01*
X146899428Y-95257749D01*
X146906438Y-95258545D01*
X146985984Y-95251902D01*
X146994816Y-95249365D01*
X147003989Y-95249907D01*
X147084444Y-95238785D01*
X147092667Y-95235934D01*
X147101375Y-95236002D01*
X147181553Y-95220702D01*
X147189506Y-95217480D01*
X147198080Y-95217114D01*
X147276791Y-95197934D01*
X147284775Y-95194220D01*
X147293540Y-95193390D01*
X147369596Y-95170628D01*
X147377911Y-95166223D01*
X147387215Y-95164819D01*
X147459427Y-95138774D01*
X147468405Y-95133362D01*
X147478659Y-95131160D01*
X147545841Y-95102131D01*
X147552087Y-95097819D01*
X147559424Y-95095898D01*
X147577532Y-95087096D01*
X147583994Y-95082196D01*
X147591733Y-95079770D01*
X147672713Y-95035517D01*
X147682028Y-95027727D01*
X147693323Y-95023277D01*
X147772545Y-94972313D01*
X147780834Y-94964307D01*
X147791248Y-94959364D01*
X147868572Y-94901849D01*
X147875896Y-94893745D01*
X147885444Y-94888436D01*
X147960731Y-94824526D01*
X147967160Y-94816421D01*
X147975877Y-94810854D01*
X148048986Y-94740707D01*
X148054594Y-94732678D01*
X148062531Y-94726940D01*
X148133322Y-94650714D01*
X148138188Y-94642814D01*
X148145399Y-94636976D01*
X148213734Y-94554829D01*
X148217938Y-94547088D01*
X148224487Y-94541199D01*
X148290224Y-94453288D01*
X148293833Y-94445735D01*
X148299776Y-94439837D01*
X148362777Y-94346321D01*
X148365859Y-94338959D01*
X148371253Y-94333079D01*
X148431378Y-94234113D01*
X148433990Y-94226949D01*
X148438887Y-94221105D01*
X148495995Y-94116849D01*
X148498006Y-94110455D01*
X148502107Y-94105151D01*
X148547199Y-94014538D01*
X148548588Y-94009429D01*
X148551694Y-94005142D01*
X148570032Y-93965228D01*
X148571138Y-93960594D01*
X148573823Y-93956662D01*
X148591445Y-93915297D01*
X148592380Y-93910832D01*
X148594851Y-93906996D01*
X148612262Y-93862888D01*
X148612978Y-93858945D01*
X148615069Y-93855525D01*
X148632776Y-93807383D01*
X148633285Y-93804150D01*
X148634939Y-93801324D01*
X148653448Y-93747856D01*
X148653673Y-93746226D01*
X148654489Y-93744800D01*
X148658834Y-93731846D01*
X148658997Y-93730575D01*
X148659625Y-93729458D01*
X148667294Y-93706013D01*
X148667487Y-93704407D01*
X148668266Y-93702992D01*
X148676136Y-93678138D01*
X148727840Y-93657274D01*
X148727928Y-93657216D01*
X148728034Y-93657196D01*
X148764014Y-93642651D01*
X148764197Y-93642531D01*
X148764407Y-93642491D01*
X148798416Y-93628693D01*
X148798607Y-93628568D01*
X148798828Y-93628525D01*
X148830303Y-93615707D01*
X148830528Y-93615559D01*
X148830789Y-93615508D01*
X148859173Y-93603896D01*
X148859445Y-93603716D01*
X148859766Y-93603653D01*
X148884500Y-93593479D01*
X148884879Y-93593227D01*
X148885322Y-93593139D01*
X148905846Y-93584633D01*
X148906437Y-93584238D01*
X148907135Y-93584096D01*
X148922891Y-93577489D01*
X148924106Y-93576669D01*
X148925539Y-93576365D01*
X148935967Y-93571887D01*
X148940365Y-93568866D01*
X148945543Y-93567595D01*
X148950082Y-93565475D01*
X148978769Y-93544413D01*
X149010783Y-93528850D01*
X149010932Y-93528737D01*
X149019346Y-93519252D01*
X149030304Y-93512872D01*
X149039572Y-93500702D01*
X149043763Y-93497823D01*
X149045164Y-93495667D01*
X149055507Y-93488073D01*
X149073846Y-93457809D01*
X149097721Y-93430893D01*
X149101865Y-93418909D01*
X149109546Y-93408823D01*
X149114193Y-93391228D01*
X149123288Y-93376218D01*
X149128593Y-93341608D01*
X149140461Y-93307285D01*
X149139703Y-93294626D01*
X149142940Y-93282369D01*
X149140470Y-93264121D01*
X149143104Y-93246940D01*
X149134828Y-93213210D01*
X149132644Y-93176730D01*
X149127100Y-93165327D01*
X149125400Y-93152762D01*
X149116062Y-93136721D01*
X149114772Y-93131465D01*
X149113449Y-93125370D01*
X149113182Y-93124985D01*
X149111939Y-93119919D01*
X149091478Y-93092050D01*
X149075462Y-93059105D01*
X149065977Y-93050691D01*
X149059597Y-93039733D01*
X149057256Y-93037083D01*
X149046566Y-93028942D01*
X149038909Y-93017902D01*
X149031707Y-93010946D01*
X149029343Y-93009425D01*
X149027704Y-93007143D01*
X149016055Y-92996257D01*
X149014975Y-92995587D01*
X149014228Y-92994563D01*
X148998545Y-92980123D01*
X148997909Y-92979735D01*
X148997467Y-92979135D01*
X148978165Y-92961519D01*
X148977714Y-92961246D01*
X148977400Y-92960823D01*
X148954892Y-92940409D01*
X148954545Y-92940201D01*
X148954301Y-92939873D01*
X148929004Y-92917038D01*
X148928711Y-92916863D01*
X148928508Y-92916592D01*
X148900835Y-92891712D01*
X148900569Y-92891554D01*
X148900383Y-92891306D01*
X148870748Y-92864759D01*
X148870524Y-92864627D01*
X148870367Y-92864418D01*
X148844990Y-92841755D01*
X148844909Y-92841708D01*
X148844854Y-92841634D01*
X148808838Y-92809505D01*
X148777893Y-92781862D01*
X148751995Y-92758661D01*
X148730362Y-92739181D01*
X148722945Y-92732445D01*
X148713521Y-92708964D01*
X148711013Y-92705119D01*
X148710046Y-92700633D01*
X148697732Y-92672192D01*
X148695066Y-92668336D01*
X148693952Y-92663780D01*
X148681121Y-92636248D01*
X148678646Y-92632871D01*
X148677553Y-92628832D01*
X148670958Y-92615543D01*
X148665983Y-92609093D01*
X148663481Y-92601342D01*
X148631032Y-92543132D01*
X148622553Y-92533165D01*
X148617587Y-92521060D01*
X148580359Y-92464935D01*
X148571434Y-92455950D01*
X148565768Y-92444626D01*
X148523079Y-92389655D01*
X148514346Y-92382086D01*
X148508482Y-92372123D01*
X148459649Y-92317376D01*
X148454483Y-92313481D01*
X148450991Y-92308033D01*
X148437848Y-92294380D01*
X148432663Y-92290771D01*
X148429060Y-92285584D01*
X148373551Y-92232045D01*
X148364274Y-92226086D01*
X148357409Y-92217457D01*
X148300129Y-92168974D01*
X148289959Y-92163338D01*
X148282114Y-92154755D01*
X148221860Y-92110459D01*
X148211476Y-92105601D01*
X148203188Y-92097680D01*
X148138756Y-92056706D01*
X148128900Y-92052882D01*
X148120817Y-92046067D01*
X148051003Y-92007547D01*
X148045190Y-92005699D01*
X148040387Y-92001935D01*
X148019401Y-91991318D01*
X148014417Y-91989928D01*
X148010250Y-91986862D01*
X147942196Y-91954990D01*
X147934017Y-91952974D01*
X147926990Y-91948322D01*
X147858976Y-91920487D01*
X147850228Y-91918786D01*
X147842550Y-91914262D01*
X147773348Y-91890090D01*
X147764534Y-91888851D01*
X147756639Y-91884740D01*
X147685019Y-91863858D01*
X147676654Y-91863125D01*
X147669024Y-91859620D01*
X147593759Y-91841653D01*
X147586244Y-91841367D01*
X147579279Y-91838533D01*
X147499139Y-91823109D01*
X147494064Y-91823141D01*
X147489310Y-91821369D01*
X147442842Y-91813852D01*
X147440419Y-91813939D01*
X147438138Y-91813126D01*
X147418302Y-91810206D01*
X147415555Y-91810344D01*
X147412949Y-91809462D01*
X147395620Y-91807196D01*
X147391227Y-91807488D01*
X147387021Y-91806184D01*
X147370805Y-91804488D01*
X147365554Y-91804973D01*
X147360473Y-91803569D01*
X147343972Y-91802358D01*
X147339122Y-91802958D01*
X147334376Y-91801792D01*
X147316196Y-91800981D01*
X147312591Y-91801532D01*
X147309031Y-91800738D01*
X147287774Y-91800245D01*
X147285581Y-91800629D01*
X147283402Y-91800172D01*
X147257677Y-91799911D01*
X147256625Y-91800109D01*
X147255579Y-91799897D01*
X147229096Y-91799794D01*
X147228093Y-91799989D01*
X147227089Y-91799792D01*
X147189874Y-91799870D01*
X147187569Y-91800333D01*
X147185254Y-91799911D01*
X147153583Y-91800414D01*
X147149905Y-91801207D01*
X147146190Y-91800613D01*
X147118558Y-91801662D01*
X147113514Y-91802866D01*
X147108371Y-91802204D01*
X147083272Y-91803923D01*
X147077426Y-91805508D01*
X147071395Y-91804949D01*
X147047326Y-91807460D01*
X147041682Y-91809208D01*
X147035784Y-91808867D01*
X147011238Y-91812292D01*
X147006720Y-91813865D01*
X147001937Y-91813723D01*
X146975409Y-91818187D01*
X146972740Y-91819201D01*
X146969887Y-91819164D01*
X146947923Y-91823239D01*
X146943159Y-91825141D01*
X146938030Y-91825229D01*
X146879175Y-91837992D01*
X146872369Y-91840949D01*
X146864963Y-91841400D01*
X146803866Y-91857467D01*
X146797687Y-91860479D01*
X146790849Y-91861173D01*
X146730396Y-91879710D01*
X146723950Y-91883181D01*
X146716702Y-91884233D01*
X146659778Y-91904405D01*
X146655361Y-91907034D01*
X146650299Y-91907926D01*
X146638921Y-91912349D01*
X146637737Y-91913103D01*
X146636357Y-91913358D01*
X146593179Y-91930551D01*
X146592410Y-91931050D01*
X146591505Y-91931222D01*
X146549130Y-91948360D01*
X146548276Y-91948920D01*
X146547274Y-91949117D01*
X146505316Y-91966379D01*
X146504399Y-91966988D01*
X146503323Y-91967207D01*
X146461393Y-91984774D01*
X146460443Y-91985414D01*
X146459321Y-91985650D01*
X146417032Y-92003702D01*
X146416071Y-92004359D01*
X146414935Y-92004606D01*
X146371900Y-92023324D01*
X146370961Y-92023976D01*
X146369845Y-92024226D01*
X146325676Y-92043790D01*
X146324779Y-92044422D01*
X146323708Y-92044669D01*
X146278016Y-92065260D01*
X146277178Y-92065858D01*
X146276179Y-92066095D01*
X146228578Y-92087892D01*
X146227809Y-92088448D01*
X146226887Y-92088672D01*
X146176989Y-92111857D01*
X146176300Y-92112361D01*
X146175471Y-92112567D01*
X146122888Y-92137320D01*
X146122280Y-92137769D01*
X146121543Y-92137956D01*
X146065887Y-92164458D01*
X146065358Y-92164852D01*
X146064722Y-92165016D01*
X146005607Y-92193445D01*
X146005152Y-92193787D01*
X146004600Y-92193931D01*
X145941636Y-92224470D01*
X145941249Y-92224763D01*
X145940779Y-92224887D01*
X145873581Y-92257716D01*
X145873260Y-92257960D01*
X145872871Y-92258064D01*
X145801050Y-92293362D01*
X145800783Y-92293567D01*
X145800457Y-92293654D01*
X145723624Y-92331603D01*
X145723407Y-92331770D01*
X145723140Y-92331842D01*
X145640909Y-92372623D01*
X145640735Y-92372757D01*
X145640522Y-92372815D01*
X145552505Y-92416606D01*
X145552414Y-92416677D01*
X145552302Y-92416707D01*
X145529794Y-92427925D01*
X145529792Y-92427925D01*
X145451822Y-92466715D01*
X145379922Y-92502308D01*
X145313537Y-92534964D01*
X145252217Y-92564892D01*
X145195247Y-92592429D01*
X145142249Y-92617750D01*
X145093079Y-92640920D01*
X145046742Y-92662409D01*
X145003107Y-92682280D01*
X144961388Y-92700900D01*
X144921230Y-92718437D01*
X144881773Y-92735280D01*
X144842885Y-92751502D01*
X144803615Y-92767520D01*
X144763604Y-92783500D01*
X144731065Y-92796279D01*
X144731063Y-92796280D01*
X144707555Y-92805511D01*
X144706867Y-92805953D01*
X144706064Y-92806101D01*
X144684670Y-92814620D01*
X144683855Y-92815149D01*
X144682903Y-92815330D01*
X144664534Y-92822766D01*
X144663389Y-92823518D01*
X144662045Y-92823785D01*
X144647590Y-92829772D01*
X144645358Y-92831263D01*
X144642735Y-92831828D01*
X144633087Y-92836003D01*
X144624840Y-92841703D01*
X144615180Y-92844387D01*
X144611239Y-92846376D01*
X144603908Y-92852110D01*
X144595095Y-92855087D01*
X144561117Y-92884797D01*
X144545557Y-92884462D01*
X144515596Y-92883198D01*
X144513993Y-92883784D01*
X144504306Y-92883576D01*
X144501957Y-92883991D01*
X144495151Y-92886640D01*
X144491366Y-92886745D01*
X144487725Y-92886824D01*
X144473775Y-92889917D01*
X144457650Y-92892927D01*
X144434287Y-92896792D01*
X144406814Y-92900902D01*
X144377648Y-92904867D01*
X144348607Y-92908422D01*
X144320683Y-92911419D01*
X144314584Y-92912000D01*
X144289757Y-92913979D01*
X144266597Y-92915226D01*
X144242664Y-92915869D01*
X144216695Y-92915878D01*
X144187638Y-92915178D01*
X144154569Y-92913665D01*
X144116859Y-92911248D01*
X144073695Y-92907832D01*
X144024552Y-92903355D01*
X143969016Y-92897783D01*
X143910167Y-92891477D01*
X143824448Y-92881501D01*
X143732580Y-92869743D01*
X143634002Y-92856143D01*
X143529469Y-92840807D01*
X143419190Y-92823772D01*
X143303684Y-92805118D01*
X143183369Y-92784920D01*
X143058496Y-92763217D01*
X142929705Y-92740124D01*
X142797144Y-92715665D01*
X142661288Y-92689925D01*
X142522536Y-92662976D01*
X142381095Y-92634852D01*
X142237663Y-92605687D01*
X142092203Y-92575464D01*
X141945115Y-92544254D01*
X141797251Y-92512229D01*
X141710246Y-92493080D01*
X141666014Y-92483284D01*
X141665258Y-92483268D01*
X141664566Y-92482967D01*
X141626348Y-92474680D01*
X141623960Y-92474639D01*
X141621754Y-92473717D01*
X141589180Y-92467130D01*
X141584269Y-92467114D01*
X141579688Y-92465353D01*
X141552123Y-92460601D01*
X141543400Y-92460825D01*
X141535106Y-92458115D01*
X141511919Y-92455333D01*
X141497625Y-92456435D01*
X141483670Y-92453150D01*
X141464226Y-92452472D01*
X141442537Y-92456006D01*
X141420674Y-92453787D01*
X141404341Y-92455347D01*
X141390329Y-92459552D01*
X141389017Y-92459425D01*
X141373068Y-92464288D01*
X141344648Y-92466576D01*
X141330794Y-92470510D01*
X141313483Y-92479370D01*
X141309131Y-92479852D01*
X141293106Y-92488671D01*
X141280451Y-92492530D01*
X141279074Y-92492943D01*
X141279061Y-92492954D01*
X141263915Y-92497572D01*
X141251905Y-92504015D01*
X141229839Y-92522178D01*
X141214368Y-92530096D01*
X141211316Y-92533682D01*
X141194548Y-92542910D01*
X141183751Y-92551994D01*
X141166879Y-92573072D01*
X141145602Y-92589698D01*
X141135384Y-92601558D01*
X141126748Y-92616824D01*
X141114121Y-92628992D01*
X141103849Y-92643764D01*
X141100030Y-92652521D01*
X141093537Y-92659523D01*
X141082579Y-92677341D01*
X141081260Y-92680900D01*
X141078740Y-92683741D01*
X141066462Y-92704739D01*
X141066327Y-92705131D01*
X141066052Y-92705442D01*
X141061773Y-92712802D01*
X141061154Y-92714606D01*
X141059907Y-92716052D01*
X141022638Y-92781830D01*
X141021356Y-92785709D01*
X141018762Y-92788866D01*
X140983830Y-92854116D01*
X140982606Y-92858142D01*
X140980013Y-92861461D01*
X140947812Y-92925353D01*
X140946606Y-92929704D01*
X140943922Y-92933333D01*
X140914848Y-92995034D01*
X140913627Y-92999940D01*
X140910745Y-93004089D01*
X140885193Y-93062768D01*
X140883932Y-93068559D01*
X140880720Y-93073546D01*
X140859084Y-93128372D01*
X140857934Y-93134708D01*
X140854654Y-93140250D01*
X140840789Y-93179690D01*
X140839559Y-93188315D01*
X140835513Y-93196026D01*
X140820053Y-93248439D01*
X140818962Y-93260467D01*
X140814124Y-93271536D01*
X140803408Y-93320447D01*
X140803134Y-93334632D01*
X140798559Y-93348059D01*
X140792559Y-93393242D01*
X140793650Y-93410178D01*
X140789811Y-93426713D01*
X140788500Y-93467940D01*
X134433597Y-93467940D01*
X134579882Y-93115646D01*
X134580517Y-92387548D01*
X134302473Y-91714629D01*
X133788079Y-91199336D01*
X133115646Y-90920118D01*
X132387548Y-90919483D01*
X131714629Y-91197527D01*
X131199336Y-91711921D01*
X130920118Y-92384354D01*
X130919483Y-93112452D01*
X130405200Y-93112452D01*
X130405200Y-92789908D01*
X130591021Y-91855723D01*
X131097588Y-91097590D01*
X131855723Y-90591021D01*
X132789907Y-90405200D01*
X157850322Y-90405200D01*
X157624618Y-90630511D01*
G36*
X165594800Y-114923331D02*
X165423107Y-114751339D01*
X165217681Y-114666039D01*
X165270391Y-114613420D01*
X165373080Y-114366117D01*
X165373314Y-114098341D01*
X165271056Y-113850859D01*
X165081875Y-113661348D01*
X164876449Y-113576048D01*
X164929160Y-113523429D01*
X165031849Y-113276126D01*
X165032083Y-113008350D01*
X164929825Y-112760868D01*
X164740644Y-112571357D01*
X164535218Y-112486057D01*
X164587928Y-112433439D01*
X164690617Y-112186136D01*
X164690851Y-111918360D01*
X164588593Y-111670878D01*
X164399412Y-111481367D01*
X164193986Y-111396067D01*
X164246696Y-111343448D01*
X164349385Y-111096145D01*
X164349619Y-110828369D01*
X164247361Y-110580887D01*
X164058180Y-110391376D01*
X163810877Y-110288687D01*
X163543101Y-110288453D01*
X163523633Y-110296497D01*
X163491405Y-110218499D01*
X163302224Y-110028988D01*
X163054921Y-109926299D01*
X162787145Y-109926065D01*
X162539663Y-110028323D01*
X162505019Y-110062907D01*
X161806717Y-109469466D01*
X161830261Y-109445922D01*
X161919200Y-109231204D01*
X161919200Y-109203550D01*
X161915650Y-109200000D01*
X161919200Y-109196450D01*
X161919200Y-109168796D01*
X161849282Y-109000000D01*
X161919200Y-108831204D01*
X161919200Y-108803550D01*
X161915650Y-108800000D01*
X161919200Y-108796450D01*
X161919200Y-108768796D01*
X161849282Y-108600000D01*
X161919200Y-108431204D01*
X161919200Y-108403550D01*
X161915650Y-108400000D01*
X161919200Y-108396450D01*
X161919200Y-108368796D01*
X161849282Y-108200000D01*
X161919200Y-108031204D01*
X161919200Y-108003550D01*
X161915650Y-108000000D01*
X161919200Y-107996450D01*
X161919200Y-107968796D01*
X161849282Y-107800000D01*
X161919200Y-107631204D01*
X161919200Y-107603550D01*
X161915650Y-107600000D01*
X161919200Y-107596450D01*
X161919200Y-107568796D01*
X161849282Y-107400000D01*
X161919200Y-107231204D01*
X161919200Y-107203550D01*
X161915650Y-107200000D01*
X161919200Y-107196450D01*
X161919200Y-107168796D01*
X161849282Y-107000000D01*
X161919200Y-106831204D01*
X161919200Y-106803550D01*
X161915650Y-106800000D01*
X161919200Y-106796450D01*
X161919200Y-106768796D01*
X161830261Y-106554078D01*
X161806934Y-106530751D01*
X162504906Y-105937591D01*
X162538668Y-105971412D01*
X162785971Y-106074101D01*
X163053747Y-106074335D01*
X163301229Y-105972077D01*
X163490740Y-105782896D01*
X163523478Y-105704053D01*
X163541927Y-105711714D01*
X163809703Y-105711948D01*
X164057185Y-105609690D01*
X164246696Y-105420509D01*
X164349385Y-105173206D01*
X164349619Y-104905430D01*
X164247361Y-104657948D01*
X164193766Y-104604260D01*
X164398417Y-104519699D01*
X164587928Y-104330518D01*
X164690617Y-104083215D01*
X164690851Y-103815439D01*
X164588593Y-103567957D01*
X164534998Y-103514269D01*
X164739649Y-103429708D01*
X164929160Y-103240527D01*
X165031849Y-102993224D01*
X165032083Y-102725448D01*
X164929825Y-102477966D01*
X164876230Y-102424278D01*
X165080880Y-102339718D01*
X165270391Y-102150537D01*
X165373080Y-101903234D01*
X165373314Y-101635458D01*
X165271056Y-101387976D01*
X165217461Y-101334288D01*
X165422112Y-101249727D01*
X165594800Y-101077340D01*
X165594800Y-114923331D01*
X165594800Y-114923331D01*
G37*
X165594800Y-114923331D02*
X165423107Y-114751339D01*
X165217681Y-114666039D01*
X165270391Y-114613420D01*
X165373080Y-114366117D01*
X165373314Y-114098341D01*
X165271056Y-113850859D01*
X165081875Y-113661348D01*
X164876449Y-113576048D01*
X164929160Y-113523429D01*
X165031849Y-113276126D01*
X165032083Y-113008350D01*
X164929825Y-112760868D01*
X164740644Y-112571357D01*
X164535218Y-112486057D01*
X164587928Y-112433439D01*
X164690617Y-112186136D01*
X164690851Y-111918360D01*
X164588593Y-111670878D01*
X164399412Y-111481367D01*
X164193986Y-111396067D01*
X164246696Y-111343448D01*
X164349385Y-111096145D01*
X164349619Y-110828369D01*
X164247361Y-110580887D01*
X164058180Y-110391376D01*
X163810877Y-110288687D01*
X163543101Y-110288453D01*
X163523633Y-110296497D01*
X163491405Y-110218499D01*
X163302224Y-110028988D01*
X163054921Y-109926299D01*
X162787145Y-109926065D01*
X162539663Y-110028323D01*
X162505019Y-110062907D01*
X161806717Y-109469466D01*
X161830261Y-109445922D01*
X161919200Y-109231204D01*
X161919200Y-109203550D01*
X161915650Y-109200000D01*
X161919200Y-109196450D01*
X161919200Y-109168796D01*
X161849282Y-109000000D01*
X161919200Y-108831204D01*
X161919200Y-108803550D01*
X161915650Y-108800000D01*
X161919200Y-108796450D01*
X161919200Y-108768796D01*
X161849282Y-108600000D01*
X161919200Y-108431204D01*
X161919200Y-108403550D01*
X161915650Y-108400000D01*
X161919200Y-108396450D01*
X161919200Y-108368796D01*
X161849282Y-108200000D01*
X161919200Y-108031204D01*
X161919200Y-108003550D01*
X161915650Y-108000000D01*
X161919200Y-107996450D01*
X161919200Y-107968796D01*
X161849282Y-107800000D01*
X161919200Y-107631204D01*
X161919200Y-107603550D01*
X161915650Y-107600000D01*
X161919200Y-107596450D01*
X161919200Y-107568796D01*
X161849282Y-107400000D01*
X161919200Y-107231204D01*
X161919200Y-107203550D01*
X161915650Y-107200000D01*
X161919200Y-107196450D01*
X161919200Y-107168796D01*
X161849282Y-107000000D01*
X161919200Y-106831204D01*
X161919200Y-106803550D01*
X161915650Y-106800000D01*
X161919200Y-106796450D01*
X161919200Y-106768796D01*
X161830261Y-106554078D01*
X161806934Y-106530751D01*
X162504906Y-105937591D01*
X162538668Y-105971412D01*
X162785971Y-106074101D01*
X163053747Y-106074335D01*
X163301229Y-105972077D01*
X163490740Y-105782896D01*
X163523478Y-105704053D01*
X163541927Y-105711714D01*
X163809703Y-105711948D01*
X164057185Y-105609690D01*
X164246696Y-105420509D01*
X164349385Y-105173206D01*
X164349619Y-104905430D01*
X164247361Y-104657948D01*
X164193766Y-104604260D01*
X164398417Y-104519699D01*
X164587928Y-104330518D01*
X164690617Y-104083215D01*
X164690851Y-103815439D01*
X164588593Y-103567957D01*
X164534998Y-103514269D01*
X164739649Y-103429708D01*
X164929160Y-103240527D01*
X165031849Y-102993224D01*
X165032083Y-102725448D01*
X164929825Y-102477966D01*
X164876230Y-102424278D01*
X165080880Y-102339718D01*
X165270391Y-102150537D01*
X165373080Y-101903234D01*
X165373314Y-101635458D01*
X165271056Y-101387976D01*
X165217461Y-101334288D01*
X165422112Y-101249727D01*
X165594800Y-101077340D01*
X165594800Y-114923331D01*
G36*
X161170000Y-109115000D02*
X160840000Y-109115000D01*
X160840000Y-106885000D01*
X161170000Y-106885000D01*
X161170000Y-109115000D01*
X161170000Y-109115000D01*
G37*
X161170000Y-109115000D02*
X160840000Y-109115000D01*
X160840000Y-106885000D01*
X161170000Y-106885000D01*
X161170000Y-109115000D01*
G36*
X164144277Y-90591021D02*
X164902410Y-91097588D01*
X165408979Y-91855723D01*
X165594800Y-92789907D01*
X165594800Y-100280466D01*
X165423107Y-100108474D01*
X165299613Y-100057195D01*
X165299822Y-99817864D01*
X165197564Y-99570382D01*
X165008383Y-99380871D01*
X164761080Y-99278182D01*
X164493304Y-99277948D01*
X164245822Y-99380206D01*
X164170161Y-99455736D01*
X164125216Y-99493931D01*
X164122696Y-99476786D01*
X164212861Y-99386778D01*
X164315550Y-99139475D01*
X164315784Y-98871699D01*
X164213526Y-98624217D01*
X164024345Y-98434706D01*
X163777042Y-98332017D01*
X163509266Y-98331783D01*
X163357108Y-98394654D01*
X163520294Y-98231752D01*
X163622983Y-97984449D01*
X163623217Y-97716673D01*
X163520959Y-97469191D01*
X163331778Y-97279680D01*
X163217190Y-97232099D01*
X163137368Y-97112638D01*
X163005523Y-97024541D01*
X162850000Y-96993606D01*
X162694477Y-97024541D01*
X162562632Y-97112638D01*
X161986479Y-97688791D01*
X161425292Y-97688791D01*
X161663680Y-97450403D01*
X161668534Y-97443138D01*
X161751777Y-97318558D01*
X161782712Y-97163035D01*
X161782712Y-94472515D01*
X162079193Y-94768996D01*
X161929706Y-94918222D01*
X161827017Y-95165525D01*
X161826783Y-95433301D01*
X161929041Y-95680783D01*
X162118222Y-95870294D01*
X162365525Y-95972983D01*
X162633301Y-95973217D01*
X162880783Y-95870959D01*
X163070294Y-95681778D01*
X163172983Y-95434475D01*
X163173217Y-95166699D01*
X163070959Y-94919217D01*
X162906400Y-94754371D01*
X162906400Y-94615067D01*
X162899404Y-94579895D01*
X163612452Y-94580517D01*
X164285371Y-94302473D01*
X164800664Y-93788079D01*
X165079882Y-93115646D01*
X165080517Y-92387548D01*
X164802473Y-91714629D01*
X164288079Y-91199336D01*
X163615646Y-90920118D01*
X162887548Y-90919483D01*
X162214629Y-91197527D01*
X161699336Y-91711921D01*
X161420118Y-92384354D01*
X161419616Y-92959947D01*
X160732401Y-92272732D01*
X160718655Y-92263547D01*
X160600556Y-92184635D01*
X160445033Y-92153700D01*
X159239900Y-92153700D01*
X159178426Y-92165928D01*
X159475382Y-91869489D01*
X159642010Y-91468205D01*
X159642389Y-91033701D01*
X159476462Y-90632127D01*
X159249931Y-90405200D01*
X163210092Y-90405200D01*
X164144277Y-90591021D01*
X164144277Y-90591021D01*
G37*
X164144277Y-90591021D02*
X164902410Y-91097588D01*
X165408979Y-91855723D01*
X165594800Y-92789907D01*
X165594800Y-100280466D01*
X165423107Y-100108474D01*
X165299613Y-100057195D01*
X165299822Y-99817864D01*
X165197564Y-99570382D01*
X165008383Y-99380871D01*
X164761080Y-99278182D01*
X164493304Y-99277948D01*
X164245822Y-99380206D01*
X164170161Y-99455736D01*
X164125216Y-99493931D01*
X164122696Y-99476786D01*
X164212861Y-99386778D01*
X164315550Y-99139475D01*
X164315784Y-98871699D01*
X164213526Y-98624217D01*
X164024345Y-98434706D01*
X163777042Y-98332017D01*
X163509266Y-98331783D01*
X163357108Y-98394654D01*
X163520294Y-98231752D01*
X163622983Y-97984449D01*
X163623217Y-97716673D01*
X163520959Y-97469191D01*
X163331778Y-97279680D01*
X163217190Y-97232099D01*
X163137368Y-97112638D01*
X163005523Y-97024541D01*
X162850000Y-96993606D01*
X162694477Y-97024541D01*
X162562632Y-97112638D01*
X161986479Y-97688791D01*
X161425292Y-97688791D01*
X161663680Y-97450403D01*
X161668534Y-97443138D01*
X161751777Y-97318558D01*
X161782712Y-97163035D01*
X161782712Y-94472515D01*
X162079193Y-94768996D01*
X161929706Y-94918222D01*
X161827017Y-95165525D01*
X161826783Y-95433301D01*
X161929041Y-95680783D01*
X162118222Y-95870294D01*
X162365525Y-95972983D01*
X162633301Y-95973217D01*
X162880783Y-95870959D01*
X163070294Y-95681778D01*
X163172983Y-95434475D01*
X163173217Y-95166699D01*
X163070959Y-94919217D01*
X162906400Y-94754371D01*
X162906400Y-94615067D01*
X162899404Y-94579895D01*
X163612452Y-94580517D01*
X164285371Y-94302473D01*
X164800664Y-93788079D01*
X165079882Y-93115646D01*
X165080517Y-92387548D01*
X164802473Y-91714629D01*
X164288079Y-91199336D01*
X163615646Y-90920118D01*
X162887548Y-90919483D01*
X162214629Y-91197527D01*
X161699336Y-91711921D01*
X161420118Y-92384354D01*
X161419616Y-92959947D01*
X160732401Y-92272732D01*
X160718655Y-92263547D01*
X160600556Y-92184635D01*
X160445033Y-92153700D01*
X159239900Y-92153700D01*
X159178426Y-92165928D01*
X159475382Y-91869489D01*
X159642010Y-91468205D01*
X159642389Y-91033701D01*
X159476462Y-90632127D01*
X159249931Y-90405200D01*
X163210092Y-90405200D01*
X164144277Y-90591021D01*
G36*
X159940032Y-95137368D02*
X160071877Y-95225465D01*
X160227400Y-95256400D01*
X160577486Y-95256400D01*
X160665101Y-95344015D01*
X160665101Y-96335548D01*
X160437562Y-96241066D01*
X160169786Y-96240832D01*
X159922304Y-96343090D01*
X159732793Y-96532271D01*
X159665803Y-96693600D01*
X159157584Y-96693600D01*
X159245261Y-96605922D01*
X159334200Y-96391204D01*
X159334200Y-96223850D01*
X159188150Y-96077800D01*
X158327800Y-96077800D01*
X158327800Y-96097800D01*
X157972200Y-96097800D01*
X157972200Y-96077800D01*
X157952200Y-96077800D01*
X157952200Y-95722200D01*
X157972200Y-95722200D01*
X157972200Y-95702200D01*
X158327800Y-95702200D01*
X158327800Y-95722200D01*
X159188150Y-95722200D01*
X159334200Y-95576150D01*
X159334200Y-95408796D01*
X159245261Y-95194078D01*
X159147884Y-95096700D01*
X159203705Y-95096700D01*
X159418423Y-95007761D01*
X159582761Y-94843422D01*
X159601308Y-94798644D01*
X159940032Y-95137368D01*
X159940032Y-95137368D01*
G37*
X159940032Y-95137368D02*
X160071877Y-95225465D01*
X160227400Y-95256400D01*
X160577486Y-95256400D01*
X160665101Y-95344015D01*
X160665101Y-96335548D01*
X160437562Y-96241066D01*
X160169786Y-96240832D01*
X159922304Y-96343090D01*
X159732793Y-96532271D01*
X159665803Y-96693600D01*
X159157584Y-96693600D01*
X159245261Y-96605922D01*
X159334200Y-96391204D01*
X159334200Y-96223850D01*
X159188150Y-96077800D01*
X158327800Y-96077800D01*
X158327800Y-96097800D01*
X157972200Y-96097800D01*
X157972200Y-96077800D01*
X157952200Y-96077800D01*
X157952200Y-95722200D01*
X157972200Y-95722200D01*
X157972200Y-95702200D01*
X158327800Y-95702200D01*
X158327800Y-95722200D01*
X159188150Y-95722200D01*
X159334200Y-95576150D01*
X159334200Y-95408796D01*
X159245261Y-95194078D01*
X159147884Y-95096700D01*
X159203705Y-95096700D01*
X159418423Y-95007761D01*
X159582761Y-94843422D01*
X159601308Y-94798644D01*
X159940032Y-95137368D01*
G36*
X158910300Y-94437500D02*
X158890300Y-94437500D01*
X158890300Y-94512500D01*
X158534700Y-94512500D01*
X158534700Y-94437500D01*
X158514700Y-94437500D01*
X158514700Y-94349169D01*
X158910300Y-94349169D01*
X158910300Y-94437500D01*
X158910300Y-94437500D01*
G37*
X158910300Y-94437500D02*
X158890300Y-94437500D01*
X158890300Y-94512500D01*
X158534700Y-94512500D01*
X158534700Y-94437500D01*
X158514700Y-94437500D01*
X158514700Y-94349169D01*
X158910300Y-94349169D01*
X158910300Y-94437500D01*
M02*
